<svg xmlns="http://www.w3.org/2000/svg"><symbol id="iborat" viewBox="189 150 181 181"><path d="M257.568 165.821c-.982.09-2.38 1.567-2.38 1.567s-.685-.018-1.026.055c-.592.127-1.323.161-1.72.699-.204.278-.136 1-.136 1l-2.441 1.806c-1.4.309.052 17.015 2.451 32.754 2.375 15.573 15.177 68.73 20.361 88.077 0 0 2.703 16.058 4.321 19.18 0 0 1.213 14.485 8.848 15.867.79.143.862-.247 1.312-.253.311-.004.545.339.942.283a8.323 8.323 0 0 0 1.665-.39c.63-.228.52-.738.907-.942.509-.266 1.119-.018 1.734-.515 5.306-4.283 5.211-14.149 5.211-14.149l-.534-19.72c.5-13.916 1.88-25.138 3.82-36.788 2.913-17.483 7.598-36.363 10.758-52.415 2.088-10.604 2.749-20.554 1.426-29.773-.344-.253-1.267-.525-1.267-.525s.028-.928-.283-1.417c-.281-.442-1.092-.337-1.613-.729a7.44 7.44 0 0 0-1.67-.913c-.353-.566-.792-2.082-2.31-2.172 3.484 3.508-.038 16.399-3.224 31.986-3.474 16.993-8.574 36.697-11.098 53.282-2.808 18.45-2.516 32.913-6.411 33.47-7.078 1.01-15.426-44.963-22.163-74.946-.827-7.32-9.114-41.134-5.48-44.379z" style="fill:#a4d180;stroke:#88c06a;stroke-width:1;stroke-miterlimit:4;stroke-dasharray:none" class="alpha"/><path style="fill:#88c06a;stroke-width:.09967729" d="M252.426 168.324c.529 1.298 1.333 2.31 1.521 3.688.188 1.38-.036 1.304-.015 1.513.02.208.118.417.34.35.22-.066.202-1.078.34-1.682.136-.604.398-3.209.226-3.76-.171-.55-.622-.1-.973-.406.578.666.493 1.43.492 1.713 0 .283-.163.771-.116 1.262-.474-.93-1.241-2.256-1.816-2.678zm58.789 2.66c-.073-.042-.21.31-.39.025-.224-.351-.5.177-.717-.082-.217-.258-.847-.637-.588-.292.26.345.63 1.167.072.638-.558-.53-1.39-.953-.874-.428.515.525 1.003 1.584 1.143 1.764.14.18.844.65.391.57-.453-.079-.142.433-.111.986.031.554-.199 1.351-.341 1.503-.142.152-.28.246-.435.24-.154-.006-.112.292.036.394.148.103.467.46.31.47-.158.009-.31-.313-.557-.293-.247.02-.342.48-.238.627.02-.338.034-.408.265-.38.232.03-.025.194.248.183.274-.01.1.06-.034.117-.132.057.07.238.22.121.303-.193.661-.81.78-1.085-.37.326-.658.26-.864.067.63.08 1.11-.68 1.314-1.348-.03.044-.363.191-.363.191.098-.443.288-1.234.55-1.76.26-.526.276-1.777.223-2.122-.01-.065-.024-.096-.04-.106zm-58.961-1.862-.572.368c-.972 1.748-.129 4.08-.616 4.799-.487.718-.412 2.013-.184 2.37.23.358.683 10.88 2.15 20.114.685 4.3 1.783 11.348 2.942 17.794 1.15 6.404 2.27 12.781 2.663 14.57.254 1.515.772 4.17.772 4.17.386-1.649.77-1.782 1.532-2.148.762-.366 1.108-1.101 1.436-2.137.328-1.037 1.388-1.325 2.077-1.28-.616-.455-1.793-.46-1.227-2.421a13.606 13.606 0 0 1-1.321 2.427c-.36.535-.866.273-.3-.883.566-1.156-.016-1.057-.136-1.4-.119-.344.213-2.135.786-3.189.573-1.054.44-1.647.668-1.917.228-.27.015-.555-.22-.385-.234.17-.228.27-1.015.234-.786-.036-.576 1.004-.826 1.73-.25.725-.848 1.38-1.248 1.261-.4-.118.686-2.424 1.141-3.015.455-.59.44-.841.351-1.488-.088-.646.266-1.279.492-1.6.225-.32.152-.715.387-.885.235-.17.116-.512-.082-.546l-3.52-19.168c-.024-.13-.425-.115-.734-.09-.308.026-.603.113-.654.28-.101.332.974-.131.967.144-.007.275-.397.307-.663.38.339.296.601.174.815.057.213-.117.273.052.09.267-.182.215-.938.302-.997.532-.058.23.53.205.88-.073.35-.279.389-.057.23.156-.157.212-.89 1.047-1.135 1.442s-.276.673.136.588c.412-.084.262.254.08.494-.18.24-.088.931-.765 1.888-.676.957-1.423.82-1.503 1.942 0 0 .292 1.957.511 3.25.219 1.293.333-3.04.543-3.021.21.018.33 1.388.01 2.407-.32 1.02-.405 1.876.097 4.992-.064-1.06.072-1.674.1-2.917.028-1.243.414-2.87.805-3.859.39-.988 1.688-4.103 2.204-1.952.516 2.151-1.514 4.125-2.007 6.294-.017-.282-.2-1.011-.237-1.61-.363.88-.287 2.115-.18 3.88.413-2.341 2.287-1.22 2.58-.392.293.828.571 7.13.027 7.886-.544.757-.063 1.25-.93 1.822-.515.338-.77.904-.88 1.39-1.546-10.748-3.888-26.31-4.076-26.839-.236-.662-.708-1.985-.792-3.243-.084-1.258-1.287-14.69-1.22-15.056.066-.366-.262-.785-.487-1.09-.225-.307-.215-1.356.024-1.746.24-.39.82-.507.591-.73-.23-.222-.453-.345-.344-1.14.11-.794.317-1.36.193-1.646-.125-.285.59-2.062.59-2.062zm59.517 2.86c-.057.907-.241 1.708-.074 2.27.168.561.161 1.29.197 1.483.035.193.068.606.132 1.006.065.4.315.695.446.877.13.182.148.442.178.55.199-.57-.052-.715-.134-.919-.082-.204-.187-1.181-.32-1.746-.134-.565-.293-1.358-.296-1.743-.003-.384-.04-.99-.129-1.778zm-59.264.068c-.202.064-.425.304-.48.567-.087.407-.398.585.597 1.336.996.751 1.088 1.51 1.431 1.715.344.206.14-.43.05-.583-.09-.152.421-.392.393-.124-.05.48.34.436.198-.052-.158-.547-.154-.62-.214-.989-.241.47-.826.244-1.11-.196-.282-.44-.404-1.342-.586-1.599-.056-.08-.143-.104-.24-.085a.26.26 0 0 0-.04.01zm2.52 3.581c-.17.044-.265.118-.329.272-.063.154-.168.395-.701.258-.533-.137-.85-.298-1.238-.186-.388.112-.396.487-.272 1.065.125.579.106 2.316.532 3.42.427 1.103 1.648 5.07 1.71 5.958.063.89.58 1.244.707 2.377.127 1.133.894 3.758 1.305 4.023.411.265-.145.76.392 1.463.538.703 1.527 3.69 1.202 1.846l-2.583-14.657c-.338-1.918-.775-3.798-.83-4.535-.057-.737-.02-.957.106-1.304zm55.771 1.785a2.25 2.25 0 0 0-.215.099c.073-.032.145-.064.215-.099zm-.215.099c-.712.309-1.529.477-1.857.134-.38 2.217-3.025 17.12-3.448 18.553-.424 1.434-2.907 12.296-2.907 12.296.52-1.295 1.098-2.265 1.538-3.425.441-1.159.397-2.546.76-3.637.364-1.09 1.863-8.606 2.682-10.081.818-1.476 2.888-5.155 2.806-5.823-.083-.667-.42-3.006-.652-3.8-.232-.794-.239-.997.008-1.699.235-.665-.134-1.895 1.07-2.518zm1.057.247c.28.139.57.769.648 1.024a7.4 7.4 0 0 1 .213 1.176c.05.46-.069.837-.227 1.05-.159.214-.322.295-.246.587.076.29-.301 2.112-.61 3.13-.309 1.018-.283 2.463-.339 3.19-.056.728-.513 1.556-.92 1.067-.406-.489-.538-.346-.398.232s.486 2.054.755 2.488c.269.434-.195 1.52-.663 2.017-.468.498-.22 4.056-.09 4.564.044.177.062.487.058.846-.192-.436-.462-.744-.747-.762.188.595.033 1.454-.033 2.632-.046.823.118 1.65.13 2.497l-.197 1.1c-.268-.049-.565-.366-.71-.72-.186-.452-.727-.079-.66-1.114-.056.379-.071 1.27.247 2.318.318 1.049-.28 1.706.133 2.698-.67-.41-.491-1.873-1.073-2.011.328.627-.096 2.063-.213 2.866-.117.793-.015 2.388.785 4.111l-.486 2.613c-.936-.021-1.91-.673-3.327-.835.418-.067.838-.232 1.332-.569 0 0-.466-.62-1.631.099.92-.83 2.035-3.038 2.457-5.512-.17.868-.576 1.67-1.376 2.79.563-1.627.63-4.272.04-5.877-.114.438-.155.74-.656 1.374-.5.634-1.406 2.125-1.71 3.138-.305 1.013-1.067 4.63-1.156 5.296-.088.665.105 1.243.437 1.81.332.566.912 1.138.992 1.784.08.645.225 2.448.112 2.97-.112.52-.588 1.721-.7.473-.114-1.247-.417-2.666-1.469-3.841l-.733 3.268c1.51.769.226 4.64 1.279 5.909 1.053 1.269.993 1.74.485 2.62-.51.88-.725 2.018.194 2.927.918.908 1.293 2.281 1.336 2.933.16-1.324.357-1.434.575-2.9.218-1.467-.12-1.579-.705-1.765-.585-.186-.525-.798.127-1.504.651-.705-.543-2.054.546-2.562-1.321-.033-1.612-2.246-1.005-2.947.16 1.385 1.47-.025 1.598-1.105.127-1.081.909-1.052 1.348-1.041.169.005.304-.107.368-.26l-.454 2.47s.961-4.652 1.89-9.139l.012-.01h-.01a1279.287 1279.287 0 0 0 3.06-15.278c.558-2.936 1.886-14.859 1.99-16.27.104-1.41.075-2.252.434-2.708.36-.455.07-1.931.01-2.208-.058-.277-.418-.823-1.047-1.13zm-5.812 30.782c.021-.108.04-.216.054-.327-.016.11-.035.218-.054.327zm1.138 6.983-.16.863a.844.844 0 0 0-.877-.472c.369-.092.73-.202 1.037-.39zm-4.201.883c.051 1.69 2.478.684 2.875.466.295-.163.85-.066 1.1-.136-.39 2.093-.692 3.713-.943 5.07-.007-.202-.13-.418-.43-.538-.676-.27-1.005-.756-1.483-1.183.097.04.588 0 .925.158-1.425-1.42-.846-2.815-2.044-3.837zm-44.829 7.397c.268.326.69.496 1.685.299 1.31-.26 1.638.317 1.026.721-.613.404-.973.938-.583.905.39-.032.757.34.043.703-.625.317-1.422.92-1.582 1.503-.173-1.224-.367-2.584-.589-4.131zm41.035 1.557c-.282 1.419-1.8 8.726-1.8 8.726 1.183.237.929.77 1.513 1.427.584.657.672 2.01.672 2.01-.634-.888-1.167-1.784-1.458-2.23-.291-.445-.288-.726-.78-.828-.105.522-.41 1.39-.41 1.39 1.766 1.222 2.191 4.144 2.195 5.79.004 1.648.923 4.74 2.284 3.543.368-2.25 1.306-6.697 1.306-6.697-1.956-.968-2.418-4.164-2.5-5.186-.084-1.022-.654-2.19-1.3-1.86.653-.705 1.433-.3 1.627-.128.568-1.492.648-2.85.077-3.738-.57-.887-.836-2.125-1.426-2.22zm-35.618 2.98c-.379.602-.279 1.093.162 1.486-.688 1.198-1.303 1.347-1.875 1.617-1.28.606-1.497 1.017-2.12 2.141.266.907.533 2.887.533 2.887.58 1.453 1.914-.446 2.153-1.037.24-.592.944-1.508 1.477-1.837-1.03.155-.317-2.832 1.22-3.741a15.641 15.641 0 0 1-.205-1.054c-.183 1.513-1.673 2.063-.658.553-.534.329-.661-.589-.687-1.015zm1.709 3.466c-.07.002-.16.04-.271.13-.297.237-.67.375-.802 2.1-.133 1.726-1.808 3.688-2.28 3.906-.47.218-1.27.213-1.46-.594l3.22 15.485c.136.64.857-2.042.871-3.296.015-1.255.816-3.183.915-4.266.098-1.082.596-3.449.345-4.609-.25-1.16-.41-3.043.47-4.436a66.515 66.515 0 0 1-.321-1.761c-.704.914-1.635 3.135-1.43 4.656-.017-.785.148-1.442.396-1.892-.342 1.137.018 2.395-.133 3.767-.15 1.372-.518 1.581-1.035 1.624-.517.042-.392-3.26.15-4.52.541-1.26.932-2.186.99-2.906.057-.72.207-1.089.52-1.614.313-.526.343-.6.263-.772-.08-.172-.212-.054-.377.067-.166.12-.25-.123-.092-.35.16-.227.256-.342.244-.52-.007-.11-.067-.204-.183-.2zm31.63 4.757s-.506 2.826-.784 4.112c.773 1.41 1.34 3.559 1.499 5.084.16 1.525.843 3.259 2.654 5.805 0 0 .679-4.065.94-5.29 0 0-.17.683-.8.332-.63-.35-1.769-2-1.918-4.187-.149-2.186-.072-3.785-1.591-5.856zm-29.602 5.084s-.601.175-.811.698c-.21.523-.237 1.563-.383 2.638-.147 1.075-.572 2.705-.77 3.71-.2 1.003-.14 2.163-.346 3.042-.206.878-.778 1.432-1.31 1.197 0 0 .83 3.908 1.337 6.018-.26-1.447-.086-2.398.02-2.964.104-.566 1.686-7.103 1.85-7.902.164-.798.629-1.52 1.278-2.053zm28.403.948c.005.846-.837 4.696-1.131 6.687.18-1.064.596-.768.67-.446.076.321.395 2.134.47 2.39.075.258.172 1.301.781 3.034-.102-.916.578-.904.874-.268.295.635.064 1.645.826 1.98.76.335.975.647.98 2.106l.478-2.951c-.247.614-.923.67-1.148.16-.224-.511.082-1.394.136-1.794.054-.4-1.252-3.188-1.396-3.504-.144-.317-1.662-4.716-1.54-7.394zm-27.485 3.508c-.472 1.304-1.895 7.092-2.04 8.75-.07.79-.171 2.294-.144 3.279.023.864.056 1.362-.274 1.845-.33.483-.56-.257-.621-.404.367 1.565 1.514 6.956 1.514 6.956-.11-1.958 1.276-10.833 2.68-15.124-.223-1.375-1.115-5.302-1.115-5.302zm26.214 3.238c-.128.818-1.135 7.29-1.51 9.485.227-1.269.729-1.116.87-.31.14.805 2.426 11.715 2.687 13.155.262 1.44.44 3.081.345 6.117 0 0 .915-6.953 1.144-9.064-.068.395-.47.915-.68.105-.21-.81-.55-4.667-.623-5.774-.073-1.106-.62-6.643-1.394-8.875-.774-2.231-.964-3.88-.839-4.839zm-24.597 4.788c-.066 1.044-.483 1.869-.742 2.236-.26.367-.463 2.115-.832 4.122-.37 2.008-.718 5.394-.71 6.083.008.69-.521 1.004-.751.531 0 0 .485 2.1.763 3.745-.087-1.66.15-2.27.37-3.125.217-.855 1.56-5.605 1.791-6.315.231-.711.379-2.503 1.015-2.95 0 0-.644-2.766-.904-4.327zm.978 4.667c-.022.941.001 1.236-.398 2.257-.398 1.02-1.24 4.25-1.411 5.693-.17 1.442.095 1.765.048 3.535-.047 1.77.124 2.69.625 5.862-.01-5.356 1.415-12.033 1.42-12.577a2.571 2.571 0 0 1 .417-1.367s-.56-2.82-.7-3.403zm22.363-.19c-.078.014-.16.133-.22.372-.171.694-.93 5.262-1.065 7.13 2.258 4.97 2.725 8.064 2.916 9.567.191 1.502.536 4.03 1.45 6.653 0 0 .23-2.234.545-4.333-.15.703-.65.537-.723-.354-.074-.892-.172-5.574-.508-7.2-.336-1.624-1.667-5.256-1.9-6.607-.232-1.35-.344-3.184-.262-4.212.054-.675-.083-1.04-.233-1.015zm-21.488 3.974c.19 1.17.62 4.093.23 5.206-.389 1.114-1.043 3.089-1.305 6.915-.26 3.826.113 6.016.229 6.828.115.812-.314.848-.707.156.23 1.044 2.811 3.675 2.811 3.675.424-2.392-1.299-4.524-1.319-6.511-.02-1.987.343-9.249 1.499-10.964-.334-1.152-1.438-5.305-1.438-5.305zm19.846 5.098c-.064.968-.19 2.01-.19 2.01-.133.975.184 3.223.346 4.382.163 1.159 5.503 17.972 5.498 18.736-.122-2.282-.994-9.573-.994-9.573-.874-2.143-1.283-2.87-1.708-5.53-.426-2.658-.977-6.06-2.952-10.025zm-17.994 2.799c0 .366-1.271 3.685-1.35 5.896-.087 2.44 1.709 8.33 1.566 8.919-.143.589-.5.907-.866-.024.358 1.99 1.814 7.91 1.814 7.91s-1.449-13.203-1.274-14.576c.174-1.372.045-6.431 1.11-5.152-.644-1.997-.644-1.999-.906-2.86-.025-.08-.056-.116-.094-.113zm17.19 1.442c-.35 2.014-.618 3.722-.618 3.722-.032 2.126 4.845 26.872 5.02 27.333-.733-6.724-.375-9.333-.367-9.639.355 2.21.95 2.838 1.072 4.287.12 1.449.135 2.431.298 2.757.163.325.509.805.529 1.041.02.236.214 1.746.248 2.558.018-3.021-.465-9.596-.839-11.634-.374-2.038-5.139-16.603-5.31-17.464-.171-.862-.158-1.974-.033-2.96zm-16.18 1.575c.286.93.105 2.11-.076 3.286-.18 1.176-.45 5.992-.262 6.05.147.047.584-4.67.722-5.948.09-.843.44-.986.578-.575 0 0-.533-1.4-.961-2.813zm1.033 2.844c.073.475.089 1.504.088 2.293-.001 1.125.57 7.224.199 12.784-.296 4.43.184 8.695.487 8.73.259.029 1.194-2.79 1.22-6.304.045-6.101-1.245-13.723-1.471-15.692 0 0-.32-1.003-.523-1.811zm13.814 1.736c-.23 1.232-.581 2.404-.897 2.973.214 1.416 2.154 2.12 2.156 3.27 0 1.148 2.283 22.374 3.511 22.304 1.339-.076-5.413-24.33-4.77-28.547zm-11.732 3.333c.034 2.014.882 11.221 1.173 18.745.153 3.936 1.41 8.917 1.667 8.93.75.04-1.856-16.663-2.84-27.675zm3.44 2.505c-.5.041.591 23.267 1.223 23.15.668-.123.49-16.453-1.125-22.94-.038-.153-.07-.22-.098-.21zm6.264-.332c-.198.495 1.242.955 1.242.955-.596 5.41.36 20.913 1.318 20.833 1.551-.13-2.968-20.366-2.56-21.788zm-5.05 1.706c.606.763 1.354 5.179 1.49 6.456.327 3.069.254 7.024.206 8.94-.033 1.34.119 5.39 1.775 5.25 1.491-.124 1.662-3.515 1.465-5.454-.138-1.361-.324-7.911-.324-9.54-.001-1.628-.373-4.446.575-5.27-1.15.841-2.581 1.57-5.188-.382z" class="alpha--dark"/><path d="M306.877 176.896c.375.069.582.148.845.031.262-.116.737.06.985.299.249.239.632.376 1.258.1.625-.275 1.003-.258 1.362-.01.36.246.808.532 1.148.66.34.127.32.248.576.205.256-.044.325.092.449.198.123.106.325.018.46.07" style="fill:none;stroke:#88c06a;stroke-width:.25;stroke-miterlimit:4;stroke-dasharray:none" class="alpha"/><path d="M306.902 167.282c.196.481.041.505.213 1.355s.366 1.454.426 1.84c.06.384.106.734.232 1.11.126.376.27.603.286.999.016.395.17 1.22-.074 1.658-.244.438-.315 1.6-.495 2.767-.18 1.167-2.05 10.644-3.825 19.344-1.775 8.7-6.434 28.739-8.556 39.887-2.122 11.148-3.849 21.724-5.193 31.62-1.343 9.897-1.664 17.742-4.809 18.005-2.715.226-7.439-5.108-10.484-17.037-1.498-5.867-3.931-16.856-5.949-27.078-1.8-9.12-3.518-18.055-4.24-21.99-1.162-6.322-2.572-12.318-4.223-20.624-1.926-9.688-3.76-20.658-4.205-23.995-.614-4.604-.03-7.46.45-8.569" style="fill:none;stroke:#88c06a;stroke-width:.25;stroke-miterlimit:4;stroke-dasharray:none" class="alpha"/><path d="M276.966 311.022c-.75-3.967-2.583-16.736-2.676-17.84-.092-1.104-6.662-21.076-6.91-22.405-.247-1.328-4.65-21.425-4.942-22.619-.293-1.193-3.525-17.59-3.734-18.715" style="fill:none;stroke:#88c06a;stroke-width:.25;stroke-miterlimit:4;stroke-dasharray:none"/><path d="M305.257 224.4c-1.125 6.018-5.235 27.651-5.897 31.632-.663 3.982-1.394 11.306-1.826 14.647-.432 3.341-.621 18.038-.55 22.2.07 4.163.28 8.314.326 10.533.047 2.22-.008 8.2-.008 8.2m-47.144-141.176c-.687 2.386-.323 4.177-.177 6.422.145 2.246.667 11.715 1.605 18.548.938 6.832 1.885 12.061 3.24 19.478 1.355 7.417 4.069 21.973 4.779 25.348.71 3.376 5.06 20.28 5.575 22.385.515 2.104 7.534 29.169 7.534 29.169" style="fill:none;stroke:#88c06a;stroke-width:.25;stroke-miterlimit:4;stroke-dasharray:none" class="alpha"/><path d="M283.215 309.317c-.757 5.9 2.66 8.532 1.602 9.176-1.04.634-2.136.596-3.465-5.377.545 2.665.265 7.425-.72 6.84-.953-.568-2.364-2.301-3.382-7.061.636 3.991 2.702 12.864 8.596 13.931.79.143.862-.247 1.312-.253.312-.004.545.339.943.283a8.324 8.324 0 0 0 1.664-.39c.63-.228.52-.738.908-.941.508-.267 1.118-.019 1.733-.516 2.928-2.364 4.21-6.426 4.772-9.593l-.127-.171c-1.515 8.464-6.69 6.396-5.023 4.728 1.666-1.668 2.655-3.14 3.09-6.234-.747 1.036-2.792 4.82-4.816 5.545-2.023.725-2.311-1.057-1.104-1.575 1.207-.518 2.15-2.542 1.217-5.382-2.286 5.888-7.106 1.429-7.2-3.01zm-1.863 3.8a7.962 7.962 0 0 0-.068-.303l.068.302z" style="fill:#88c06a;stroke-width:.09967729" class="alpha--dark"/><path style="fill:#d1e4a6;stroke-width:.09967729" d="M311.358 169.707c-.066 1.877.24 2.46-.092 3.82-.332 1.36.767 1.51-.867 3.362.719-.01 1.074.134 1.184.429.11.295.696.537.982.768-.49-1.298-.642-1.513-.72-2.22-.078-.705.015-1.176-.167-1.755-.183-.58.505-3.356-.32-4.404zm-58.922-.504c-.511.982-.393 1.527-.628 2.166-.235.64-.508 2.073-.263 2.289.245.215.956.72.225 1.67-.73.949.05.982-.083 1.857-.133.874 1.64 12.999 2.391 12.794.752-.204-1.395-9.852-1.46-10.687l-.195-2.485c-.022-.235-.142-.702.679-.986-.23-.18-.376-.209-.607-.37-.231-.16.252-.91-.178-1.433-.431-.523-.74-.595-.532-1.374.208-.78 1.24-1.728 1.603-.234-.056-.602-.263-2.708-.953-3.207zm58.395 8.05a.595.595 0 0 0-.3.06c1.139.09.608.762-.007 1.05.577-.047.653.567.324.79-.33.222-.683 1.071-.757 1.702-.075.632.122 4.157.713 4.677.59.52.11-4.654.081-5.42-.029-.767.686-.586.618-.249-.243 1.2.604 1.494.738.414.091-.74-.168-2.084-.65-2.587.05.04.14-.054.44.147-.326-.23-.769-.561-1.2-.584z" class="alpha--light"/><path d="M308.208 168.626c.064 1.108.247 1.307.285 1.978.038.67.492 1.917.488 2.314-.004.397.185.704.185 1.032 0 .328-.265 2.057-.414 3.462-.149 1.405-4.759 24.518-5.27 26.205-.255.84-1.295 5.926-2.382 11.048 0 0-4.401 20.481-6.79 34.246-1.29 7.445-2.43 16.115-3.77 23.076-1.596 8.292-1.704 14.236-5.167 14.526-8.39.7-14.807-29.12-17.214-39.66-1.105-4.835-5.092-27.361-5.323-27.946-.232-.585-2.88-13.627-4.122-20.715-1.241-7.088-2.528-14.825-2.962-16.722-.434-1.897-.775-3.798-.83-4.535-.057-.737-.02-.957.106-1.304" style="fill:none;stroke:#88c06a;stroke-width:.25;stroke-miterlimit:4;stroke-dasharray:none" class="alpha"/><path d="M249.332 177.43c.11-.445.528-.686 1.22-.688.692-.002 1.05-.167 1.16-.516.112-.35.35-.67.913-.56.563.108.618.16.93.296.311.136.427.041.685-.16.259-.2.793-.443 1.095-.4.302.045.475.048.544-.067.068-.115.554-.373.597.078" style="fill:none;stroke:#88c06a;stroke-width:.25;stroke-miterlimit:4;stroke-dasharray:none" class="alpha"/></symbol><symbol id="iwetsuit" viewBox="65 130 430 430"><g class="js-leg-right"><path class="skin" d="M247.543 282.58c-.403 7.663.403 17.745-2.42 27.424-2.823 9.68-5.646 47.59-3.63 69.367 2.017 21.778-2.016 38.717-3.226 47.186-1.21 8.47 1.613 22.584 3.226 35.893 1.614 13.308 4.033 24.6 2.42 28.633-1.613 4.033.807 8.872-1.21 11.292-2.016 2.42-3.226 6.453-6.05 8.872-2.822 2.42-7.662 7.663-10.485 9.276-2.823 1.613-3.226 8.47 3.63 9.68 6.856 1.21 16.132-1.614 18.148-5.244 2.017-3.63 1.21-8.067 5.646-7.663 4.436.403 5.646-3.227 4.436-8.47-1.21-5.242-.403-7.26 0-7.662.404-.403 1.21-3.226 0-6.453-1.21-3.226.404-27.424 4.84-35.893 4.436-8.47 3.63-18.955 2.016-27.02-1.613-8.067-2.42-14.52.807-21.376 3.227-6.856 4.437-18.55 7.664-33.07 3.226-14.518 12.905-23.39 12.905-60.09" style="fill:#ba6c49;stroke:none"/><path class="skin--dark" d="M247.543 282.58c-.27 5.142 0 11.374-.645 17.842 3.315-5 3.04 1.993 1.264 13.533 4.917-14.4 8.44-2.46 9.844 7.375 2.458-7.375 12.65.006 14.406 29.156 1.756 29.15-2.095 15.79-3.5 9.47-1.405-6.323-5.635-27.38-8.094-30.188.352 22.477.007 34.07-.343 42.5 2.107-3.864 1.057-15.108 4.218-13 3.16 2.107 5.956 29.144.688 32.656-.702-5.268 1.413-8.068-.343-13.688-1.756 5.62-4.22 9.125-5.625 9.125-.702-5.97-1.054-7.025 0-10.186-2.458 4.566-1.742 12.65-2.094 15.812-.35 3.16-3.87-.013-7.03 2.094 5.97 1.054 2.458 4.234 0 3.53-2.46-.7-3.16.33-4.563 1.033 4.917.702-.344 11.95-.344 17.218-1.404-6.32-1.757-10.175-1.405-15.092-.703 6.673 0 15.79-1.407 16.843-.754.567-1.598-2.04-2.123-5.682-.805 5.68-1.705 10.32-2.177 13.63-.07.487-.124.998-.168 1.522 1.487-.565 2.907.1 3.406 2.47 0-2.81-.015-6.66.687-9.47 4.566 6.673 9.48 44.954 5.97 45.656-3.513.703-7.376-19.312-7.376-26.687-.153 1.373-.77 3.604-1.676 4.852.734 5.643 1.67 11.662 2.384 17.547.827 6.818 1.858 13.087 2.457 18.142 1.502-1.413 1.845-3.57 2.462-7.887 0 7.376 2.124 17.205.72 19.313-1.406 2.107-1.406 4.21 0 4.562 1.404.35 4.195-.345 5.25-1.75-.352 6.322-7.382 2.822-13 20.03 3.16-5.97 5.282-10.552 6.686-9.5 1.405 1.055-1.766 12.643-2.468 13.345-.703.703-4.917 7.743-7.375 8.094-2.08.296-8.674 2.1-11.936-1.808.22 2.24 1.793 4.555 5.51 5.21 6.855 1.21 16.13-1.613 18.145-5.243 2.017-3.63 1.21-8.066 5.647-7.663 4.436.403 5.647-3.226 4.437-8.47-1.21-5.242-.404-7.258 0-7.66.403-.404 1.21-3.228 0-6.454-1.21-3.226.4-27.425 4.837-35.895 4.436-8.47 3.63-18.953 2.018-27.02-.7-3.5-1.25-6.698-1.38-9.757-3.54 3.386-6.538 8.982-9 17.29-.702-8.078 4.2-18.592 8.063-24.562-4.214 3.863-8.415 9.462-9.468 11.218 4.565-13.697 6.672-13.693 7.375-19.312.702-5.62.343-8.41.343-11.22 5.62 2.108 8.096-4.582 9.5-9.5-3.16 12.293-7.73 19.673-10.187 27.75 2.165-1.875 4.553-4 6.774-6.35 2.378-7.03 3.662-17.458 6.45-30 1.617-7.28 4.856-13.143 7.685-21.803-5.304 3.92-4.615-1.423-3.347-6.814 1.184-5.032 5.353-21.286 8.106-18.496.29-3.906.46-8.2.46-12.976l-38.717-34.684z" style="fill:#a15330;stroke:none"/><path class="skin--dark" d="M243.963 334.682c-1.756 20.37 1.756 30.555 3.512 36.175 1.756 5.62-1.054 20.02-1.054 23.18 4.567-7.376 4.216-18.966 3.513-22.127 2.01 2.88 9.442 2.088 9.132-8.43-2.458 9.484-11.94 7.728-10.185-18.262-1.405 3.512-1.756 7.727-1.405 12.995-2.557-3.44-3.857-16.875-3.512-23.532z" style="fill:#a15330;stroke:none"/><path class="skin--darker" d="M247.543 282.58c-.485 9.21.123-1.846-.412 9.908-.23 5.048-.572 8.03-1.028 11.06-.204 1.353-.67 3.708-1.5 6.305-.928 2.914-1.725 7.912-2.226 11.926-.066.528-.125 1.02-.174 1.457-.362 3.2-.85 9.23-1.19 16.884-.31 6.885-.37 11.817-.442 15.646-.133 7.038-.4 15.504.204 23.67.11 1.487.182 2.738.24 3.628.15 2.34.364 4.81.48 8.69.1 3.45.057 6.425-.04 8.043-.24 4.024-.802 9.007-1.786 14.793-1.49 8.756-1.26 6.12-2.194 11.853-.116.71-.185 1.367-.223 1.896-.216 2.964-.03 7.21.967 14.388 1.735 12.5 1.485 8.448 2.99 19.756.243 1.827.545 3.96.69 5.02.27 1.976 1.3 9.294 1.688 12.78.563 5.058.678 8.758-.122 10.62-.77 1.812-.72 3.804-.68 4.7.02.467.083 1.023.178 1.767.134 1.05.277 2.103.218 3.017-.06.923-.32 1.495-.617 1.854l-.006.01c-.763.916-1.313 1.863-2.358 3.73-.92 1.645-2.06 3.67-3.714 5.066-1.42 1.197-3.482 3.23-5.283 4.918-2.352 2.203-4 3.58-5.202 4.26-.503.285-.875.68-1.137 1.047a5.937 5.937 0 0 0-.985 4.337c.34 2.198 1.976 4.59 5.788 5.364 4.527.926 9.113.03 11.306-.615 1.095-.322 2.62-.884 4.09-1.736 1.456-.843 2.845-1.965 3.508-3.315.783-1.614 1.417-4.92 1.63-5.555.18-.534.367-.89.554-1.137.125-.164.305-.366.556-.54.436-.305 1.1-.546 2.253-.43 2.562.26 3.796-.815 4.383-1.685.11-.165.23-.367.34-.613.602-1.327.798-3.435.02-6.58-.77-3.123-.755-4.852-.698-5.568l.006-.072c.038-.404.13-.875.286-1.258.122-.295.254-.46.33-.504.095-.08.177-.2.246-.326a3.984 3.984 0 0 0 .355-1.01c.05-.23.11-.568.144-1 .08-.97.05-2.585-.653-4.423-.136-.353-.245-1.047-.31-2.032-.067-.988-.088-2.228-.066-3.633.05-3.066.295-6.694.665-10.18.517-4.865 1.186-8.687 1.772-11.37.48-2.195 1.61-5.89 3.08-8.263 1.24-2.028 2.008-3.955 2.34-5.123.675-2.37 1.235-5.647 1.187-9.89-.047-4.225-.683-8.462-1.58-12.42-1.518-6.678-1.9-10.303-1.598-13.534.166-1.78.988-4.498 2.648-7.377.83-1.458 1.44-2.97 1.75-3.946.764-2.43 1.454-5.822 2.404-11.77 1.006-6.293 1.755-11.5 3.01-17.654.39-1.915.866-3.548 1.25-4.723.58-1.773 1.542-3.926 3.048-7.167 1.528-3.288 2.88-6.22 4.104-9.567.462-1.267.828-2.39 1.085-3.28.744-2.58 1.828-7.722 2.483-14.822.724-7.856.67-14.616.67-20.59 0 5.565-.512 13.144-1.79 20.44-1.23 7.043-2.784 11.756-3.53 14.348-.378 1.308-.43 1.54-.925 3.246-1.037 3.576-1.894 6.15-3.127 9.813-2.208 6.562-.805 2.49-2.426 7.446a60.97 60.97 0 0 0-1.37 4.74c-1.79 7.432-2.242 9.967-3.937 17.49-1.394 6.186-2.162 8.774-2.99 11.408-.303.96-.683 2.39-1.234 3.87-1.322 3.487-1.383 6.126-1.563 8.055-.317 3.404-.2 6.85 1 13.782.685 3.962 1.103 8.106.982 12.198-.123 4.108-.757 7.15-1.393 9.38-.324 1.14-.755 2.925-1.676 5.032-1.23 2.778-1.936 6.533-2.424 8.765-.59 2.703-1.268 6.54-1.8 11.426-.38 3.496-.636 7.14-.696 10.226-.028 1.413-.013 2.67.05 3.68.06.986.163 1.758.33 2.21.64 1.738.64 3.25.557 4.148-.038.4-.095.71-.14.916a8.162 8.162 0 0 1-.106.46c-.042.16-.087.306-.134.428-.033.085-.085.196-.085.196-.13.158-.252.42-.35.755-.132.455-.192.94-.23 1.37l-.008.074c-.065.75-.177 2.52.51 5.724.67 3.117.353 5.022-.18 6.124a3.763 3.763 0 0 1-.287.5c-.44.654-1.374 1.62-3.66 1.436-1.297-.105-2.118.188-2.688.605-.314.23-.535.488-.682.682a6.52 6.52 0 0 0-.73 1.244c-.464 1.007-1.243 3.647-2.2 5.134-.588.896-1.743 1.72-3.128 2.402-1.36.668-2.775 1.12-3.792 1.42-2.05.604-6.258 1.614-10.47.997-3.214-.467-4.668-2.235-5.103-4.012-.426-1.738.15-3.128.593-3.744a2.98 2.98 0 0 1 .914-.854c1.275-.737 2.964-2.19 5.284-4.41 1.798-1.722 3.82-3.76 5.202-4.963 1.715-1.494 2.86-3.624 3.748-5.26 1.013-1.87 1.554-2.82 2.28-3.69l.007-.01c.345-.416.722-.996.93-2.022.2-.978.193-2.123.168-3.17-.013-.554-.044-1.5-.055-1.745-.04-.886-.137-2.685.46-4.29.81-2.154.528-6.103-.122-11.058.054.405-2.11-14.693-1.847-12.77-.17-1.24-.393-3.008-.614-5.02-.056-.506-2.19-18.167-2.362-19.83-.75-7.294-.74-11.19-.526-14.125.037-.503.087-1.125.168-1.79.74-6.047.473-2.75 1.67-11.917a198.491 198.491 0 0 0 1.41-14.914c.11-1.86.34-4.37.464-8.085.12-3.567.07-6.762-.06-8.79a79.85 79.85 0 0 0-.332-3.66c-.84-7.537-1.167-17.007-1.044-23.528.066-3.455.317-9.11.808-15.597.604-7.984 1.246-13.243 1.646-16.782.05-.434.104-.924.165-1.45.466-4.055 1.096-8.908 1.856-11.792.72-2.724 1.06-5.092 1.27-6.486.426-2.83.64-6.355.628-11.173-.012-5.235-.14-7.232.003-9.916z" style="fill:#873916"/></g><g class="js-leg-left"><path class="skin" d="M293.85 316.024c-5.133 10.837-5.704 29.658-2.567 45.343 3.137 15.684-.285 15.97 2.28 24.24 2.568 8.27-.284 10.55 4.28 23.668 4.562 13.118-5.134 21.96 1.14 47.624 6.273 25.664.855 35.075-.57 36.786-1.427 1.71-1.427 5.99 0 8.555 1.425 2.568.285 11.408-1.712 14.83-1.995 3.422-2.565 12.833 8.556 12.833 11.122 0 17.11-4.848 14.83-10.266-2.282-5.42-6.845-12.263-5.42-15.97 1.427-3.707.857-5.418 0-9.98-.854-4.564 4.564-27.948 7.13-37.358 2.567-9.412 3.993-27.093 1.71-37.644-2.28-10.55-4.846-37.072-.57-49.62 4.28-12.547 5.42-24.524 5.42-43.63 0-19.107-3.357-35.077-9.916-49.906" style="fill:#ba6c49;stroke:none"/><path class="skin--dark" d="m318.44 275.517-24.59 40.5c-2.485 5.247-3.87 12.365-4.312 20.094.84-6.24 2.99-12.39 7.093-15.468-2.457 7.376-1.05 19.645-5.967 31.938-.447-1.005-.796-2.35-1.063-3.906.3 4.308.872 8.608 1.688 12.687.177.885.333 1.713.468 2.5 1.927-17.13 12.033-43.64 19.282-63.936 0 17.59-12.972 50.545-18.22 69.25 1.463-3.888 3.627-8.45 6.626-13.782 3.16 9.132.026 32.66-5.594 29.5a6.518 6.518 0 0 1-.562-.343c.092.34.165.688.28 1.06 2.306 7.43.233 10.044 3.095 20 1.53 1.68 2.88 2.73 3.843 3.532-1.756-2.458-.703-1.767-1.406-3.875 2.81 4.215 7.743 13.002 8.094 14.407 0-6.322 2.082-10.182 5.594-11.938-1.054 4.917-2.445 9.116-2.094 15.438.35 6.322-2.798 32.678-3.5 39 3.512-5.62 4.205-5.256 6.312-10.875-1.053 10.886-7.03 31.586-7.03 33.342 0 1.756 3.868 1.405 5.624 0 0 3.512-3.86 4.22-5.97 4.22-2.106 0-1.77 5.975.69 5.624 2.457-.35 3.875-1.047 5.28-1.75-3.863 5.97-10.547 4.216-11.25 8.78 1.054-1.052 2.47-1.78 3.875-1.78-1.053 2.46-3.5 5.997-3.5 10.563 0 4.564-5.99 10.512 2.438 15.78-2.57-.1-5.036-.274-7.282-.594 1.183 2.456 3.802 4.406 8.876 4.406 11.122 0 17.126-4.83 14.844-10.25-2.28-5.418-6.863-12.26-5.437-15.968 1.426-3.708.855-5.438 0-10-.856-4.563 4.558-27.933 7.125-37.344 2.566-9.41 4-27.105 1.718-37.656-1.792-8.292-3.722-26.398-2.406-39.875-1.494 3.188-3.085 4.88-4.437 4.686-4.917-.702 4.933-33.34 8.093-54.062 1.758 10.92 1.825 21.013 1 29.468 1.993-9.357 2.594-19.51 2.594-33.468 0-19.107-3.352-35.078-9.91-49.907zm-13.715 26.157c2.46 10.185-5.284 26.327-8.094 33-.7-14.75 7.042-25.625 8.095-33zm15.094 15.812c3.862 16.507-2.114 46.005-5.626 42.844-3.512-3.16 4.22-38.278 5.625-42.844zm-8.064 5.25c0 2.46 3.86 40.743-4.218 41.094-8.078.35-3.157-32.314 4.218-41.094zm-4.218 52.688c0 1.756 3.518 9.48-1.75 13.343 10.887 4.917 6.316 5.984 1.75 5.282-4.566-.704-10.883 3.5-3.157 6.31-3.862-5.618 7.03-3.177 4.22-2.124-2.81 1.054-.73 3.534 4.188 6.344-1.756.35-3.856.35-7.72-1.406 1.757 1.053 1.4 2.095 1.75 3.5-1.404.35-5.596 1.055-8.405-5.97 1.756 1.055 2.812.352 2.812 0-3.512-3.51-2.478-8.437 3.844-8.437-4.567-2.107-1.396-11.575 2.468-16.843zm-3.532 52.687c0 15.353-3.95 21.018-7.093 15.345.223 3.933.817 8.344 2.062 13.437 2.23 9.125 2.99 16.163 2.97 21.563 1.747-16.484 3.46-38.454 2.06-50.344z" style="fill:#a15330;stroke:none"/><path class="skin--darker" d="M293.85 316.024c-1.453 3.067-3.468 7.91-4.686 16.112-1.172 7.88-1.046 15.414-.612 19.78.212 2.137.85 5.75 1.85 9.627 1.025 3.96 1.546 6.64 1.665 7.95.207 2.278.192 4.298 0 6.747-.136 1.705-.296 3.136-.2 4.82.094 1.688.437 3.283.895 4.795.07.23.13.44.184.626.33 1.153.677 2.216 1.004 3.87.274 1.392.43 2.768.46 3.454.022.477.02 1.038.025 1.847.008 1.57.036 3.597.45 6.233.426 2.694 1.164 5.396 1.87 7.445.03.088.064.185.104.29.437 1.138.95 2.343 1.386 4.06.4 1.574.574 3.024.558 3.852-.06 2.98-.548 5.103-1.545 10.774-.643 3.648-1.185 7.486-1.23 12a63.038 63.038 0 0 0 1.016 11.79 75.26 75.26 0 0 0 1.097 5.01c1.404 5.547 2.46 11 2.96 16.183.48 4.987.33 8.576.07 10.935-.1.902-.218 1.62-.32 2.142-.277 1.43-.686 2.932-1.257 4.306-.57 1.377-1.166 2.278-1.56 2.702-.893.99-1.295 2.667-1.34 4.27a10.67 10.67 0 0 0 .35 3.075c.12.43.476 1.137.945 1.76.268.32.455.826.52 1.17.196 1.032.28 2.917-.104 5.636-.378 2.665-1.19 5.785-2.26 7.462-1.213 1.93-1.888 5.357-.894 8.315.67 1.994 2.012 3.55 3.927 4.55 1.89.986 4.07 1.293 6.077 1.293 3.985 0 9.365-.718 12.925-3.433 2.682-2.045 3.83-4.958 2.422-8.052-.177-.388-4.29-8.425-4.338-8.53-1.4-2.996-1.795-4.815-1.672-6.115.027-.278.1-.65.27-1.03.872-1.965 1.227-3.38 1.195-4.535-.043-1.462-.236-2.297-.838-5.626-.09-.496-.1-1.3-.025-2.388.075-1.088.23-2.404.443-3.863.47-3.212 1.202-7.014 1.903-10.382a385.57 385.57 0 0 1 1.74-7.916c.768-3.35 2.28-8.876 3.388-12.465a41.998 41.998 0 0 0 1.006-3.938c.578-2.902 1.366-8.046 1.67-14.62.302-6.58.067-13.894-1.225-19.457-1.45-6.24-2.575-15.9-2.952-23.945-.157-3.368-.18-6.2-.137-8.468.04-1.974.275-5.372.823-8.784.577-3.598 1.31-6.105 2.01-7.975.157-.424.29-.798.39-1.108 1.084-3.315 2.398-8.377 3.245-14.99.846-6.603 1.01-12.894 1.15-17.23-.075 2.285.513-10.516.517-10.617.09-2.468.1-4.535.053-5.79-.21-5.638-1.08-14.122-3.422-23.378-2.356-9.312-5.35-16.2-7.356-20.737 1.96 4.427 4.6 11.727 6.412 20.95 1.855 9.445 2.22 17.515 2.432 23.235.673 18.208-.453-13.69.262 5.72.165 4.483.285 8.48.217 10.588-.136 4.23-.582 10.665-1.687 17.044-1.138 6.565-2.63 11.26-3.717 14.585-.1.304-.216.674-.347 1.1-.63 2.024-1.137 4.8-1.425 8.453-.284 3.6-.27 6.843-.31 8.92a154.94 154.94 0 0 0 .08 8.517c.29 8.14 1.247 17.742 2.536 24.177 1.087 5.44 1.14 12.58.698 19.093-.44 6.5-1.297 11.482-1.864 14.328-.196.983-.45 2.352-.806 3.85-1.634 6.872-1.334 6.123-2.837 12.667a350.188 350.188 0 0 0-1.73 7.946c-.693 3.377-1.418 7.212-1.876 10.46-.21 1.477-.362 2.826-.432 3.956-.068 1.105-.06 2.027.064 2.67.645 3.32.853 4.123.892 5.438.032 1.096.15 2.267-.534 4.363a5.184 5.184 0 0 0-.224 1.15c-.132 1.4.187 3.275 1.46 6.393.68 1.666 3.15 6.873 3.86 8.722.98 2.56-.08 4.72-2.354 6.278-3.222 2.205-8.08 2.77-11.955 2.77-1.837 0-3.678-.256-5.21-1-1.51-.735-2.582-1.883-3.18-3.423-.928-2.394-.516-5.37.39-7.085 1.073-1.988 1.748-5.31 2.018-8.008.282-2.816.133-4.743-.083-5.872-.066-.35-.144-.976-.358-1.508-.272-.758-.287-1.17-.425-1.668a11.29 11.29 0 0 1-.42-2.697c-.047-1.478.22-2.86.8-3.643.434-.568 1.02-1.562 1.584-3.02.563-1.455.96-2.996 1.246-4.467.103-.53.243-1.27.38-2.184.355-2.41.685-6.042.38-11.143-.315-5.264-1.233-10.878-2.558-16.493a95.864 95.864 0 0 1-1.022-4.918c-.577-3.185-1.128-7.045-1.234-11.483-.106-4.41.25-8.173.717-11.834.77-6.063 1.055-7.52 1.124-10.918.02-.955.18-2.21.12-4.04-.06-1.778-.332-3.392-.702-4.568a7.572 7.572 0 0 0-.093-.286c-.73-2.124-1.532-4.428-2.2-7.098a42.423 42.423 0 0 1-1.207-7.788c-.02-.45-.005-2.326-.085-3.577-.104-1.618-.365-3.098-.673-4.17a22.44 22.44 0 0 0-.2-.658c-.458-1.438-.842-2.885-1.03-4.427-.19-1.55-.153-2.888-.127-4.636.038-2.675-.03-4.393-.257-6.882-.14-1.53-.17-3.902-.788-8.222-.604-4.253-.745-7.085-.988-9.533-.442-4.45-1.178-11.355-.7-19.383.473-7.98 1.976-13.3 3.373-16.25z" style="fill:#873916"/></g><path class="alpha" d="M247 282.6c17 6.4 54.3 7.4 72-7 3 5 6 18.6 7 21-3.7-4-25.5 4.4-28 15.8-2.8 14.5-13.2 13.4-19.5 3.2-10-16-30-13.3-32.2-13.7 0-7.8.7-14.4.7-19.4z" style="fill:#f2f2f2;stroke:#bfbfbf;stroke-width:.5"/><path class="alpha--dark" d="M272.2 299c5.5 2.3 7 2.8 10.4 5-2.2-2.7-6.2-4.2-10.4-5zm25.3-4.3c-7.4 6.4-15 4.7-26.8 1.4 9.7 2 18.7 2.4 26.8-1.3z" style="fill:#d9d9d9"/><path class="alpha" d="M246.3 288c27.6 5.5 52.2 7.6 75-7.8" style="fill:none;stroke:#bfbfbf;stroke-width:.5"/><path class="alpha" d="M275 311c-1-6.3 2.4-12.2 3-19" style="fill:none;stroke:#bfbfbf;stroke-width:.5"/><path class="alpha--dark" d="M314.5 294.2c-9.5.2-17.8 4.3-23 8.6 2.6-1 8.7-4.7 13.7-5.4-7 3.4-9.4 15.8-16.8 16.4-7.3.7-9-5.7-13.4-8.3-4.3-2.7-11-5.4-27-4l.3.4c6 0 21.7-.2 30.2 13.6 6.3 10.2 16.7 11.3 19.6-3.2 2.2-10 19.5-18 26.2-16.7v-.3c-3.3-1-6.6-1.3-9.7-1.2z" style="fill:#d9d9d9"/><path class="alpha" d="M299.5 308.6c0-6-4.2-11-5-17.5" style="fill:none;stroke:#bfbfbf;stroke-width:.5"/><g class="js-torso"><path class="beta" d="M316.3 181.4c-.8 0-1.5.2-2.3.7-5 3-15.8 13-17 16.2-1.5 3 2 80.2 3 85 .7 3.4 7 20.8 9.5 37.3 10.7-6.2 18.6-20.8 13.5-34-7.7-19.4-7.3-26.5-9-29.7-1.5-3.2-2-15 .5-20.2 2.4-5.2 4.8-16.5 7.3-20.6 1.3-2.2 5.3-14 6-24.7l-.7-.8c-2.8-3-6.6-9-10.7-9zm-74 .5c-3 0-5.4 3-7 5.8-1 13.4 5.3 32.8 8.2 42 4.3 13.8 6 25.4 3.6 33.8-2.3 8.5 1 11.3.5 19-.2 20 4.4 32.2 10.7 38.5 3-17.7 9.5-30.4 10.3-34 1-4.8-8.8-83-10.2-86-1.3-3-8.7-15.4-13.8-18.5-.8-.4-1.5-.6-2.3-.6z" style="fill:#333;stroke:#000;stroke-width:1;stroke-linecap:butt;stroke-linejoin:miter;stroke-miterlimit:4;stroke-opacity:1;stroke-dasharray:none"/><path class="beta--dark" d="m311.5 183.8-5 4c3.8 2 6 5 3.5 10.5-3.3 7.2-9 8.5-13.4 8 0 5 .2 11.4.4 18.6 2.8 2.6 3 6.2 1 8.2l-.7.5.4 9.7v.5l.5 8.6c1 1 .8 2 0 3.2l.6 9c3 1 3 4.7.4 8 .3 5.2.6 9.4.8 10.3l1.7 6c2-1.6 4-3.4 5.7-5.6 3.7-4.4 7.5-8 11-9.3l-2.4-9.5c-3.2-2-7-2.3-10.6 1.7 1.7-8.4 5-12 8-12-1-4.8-1-13.3 1-17.6 2.5-5.2 5-16.5 7.4-20.6 1-1.5 3-7.8 4.6-15-4 .2-10.2 3.3-12.7 7.8.8 3.2 0 3.6.4 9 2-1.8 2-1.8 2.5-4.2 0 5-2.4 10.5-7.7 12.5 1.7-1.5 4.5-6.3 4-10.8-6.4 10-8.4 6.5-7 2.5 8.6-3.2 7.5-17.4 15-18.6-4-5.2-6.3-11.2-9.3-15.2zm-74.2 1-2 3c-1 13.4 5.3 32.8 8.2 42 2 6.2 3.4 12 4 17.3 8.6 4 8 7.4 7.7 10.4-2.7.2-5.3-1-7-3.5v3c7 5.2 13 14 8 14.5-4.4.5-7-5-10-2 0 4.2 1.4 7 1.4 11.8 4-1.2 9.7 3.4 13 5 2 1.3 4.5 2.6 7 3.7l1-3c0-1-.2-5.5-.8-11.7-3.4-2.2-3-5-.6-6.5l-1-7.6h-1c-3.3 0-3.8-7.3-1-9l1-.3-.6-5.6c-2.8-.4-3.5-3.8-.8-5.4h.2l-1-7c-.5 0-1-.3-1.7-.8-1.8-2-1.7-5.3.7-8l-2.4-17c-1.6 0-3.3-.3-5.2-.6-6-1-14-11.8-17-22.8zm6.2 28c2.4 1.4 5.5 6 4.7 13-3.3-3.3-5.3-7.5-4.7-13zm75.8 4c1.2 8-4 10.3-7.4 11.5 4.3-6.4 6-9.4 7.3-11.6zm-76.6 3.5c1.4.8 4.6 5 3.8 10.3-2.2-3.5-3.8-2-3.8-10.3zm58 1.4c2.7 2 6 2.8 8.6 5.8-3 1-3.3 1.6-3.5 4 1.2-.5 3.2-.7 6.3-1-1 2-1.2 4-5.2 5.3-4 1.2-5.8-2.2-1.8-6.8-5.4.4-3.2-2.5 0-2-1 0-1.8-1.3-4.2-5.3zm-47.3.4c1.6 2 2.2 2.5 2.6 8.6-1-2-1.6-2-3.6-3 .8.5 2.6 7.6 2.6 10.2-4.6-.8-7-3-7.3-6.6 1.5-.2 2-.8 3.7-.8-1.4-1.4-1.4-3-1.7-6.7 1 .4 1.5.2 3.3 2.6-.6-1.2-.4-3 .4-4.2zm58 15c-.7 3.2-1 7-8 9.5-.4-6 4-9.4 8-9.4zm-63.8 1c2.5.3 9.2 4.4 7.6 10.3-6-3.5-8.8-2.8-8-10.2h.4zm63.8 7c-.7 3.6-.7 7.2-8.8 11 .3-5.6 3.2-9.8 8.8-11z" style="fill:#1a1a1a;stroke:none"/><path class="beta--dark" d="M247 282.6c17 6.4 54.3 7.4 72-7 3 5 6 18.6 7 21-3.7-4-25.5 4.4-28 15.8-2.8 14.5-13.2 13.4-19.5 3.2-10-16-30-13.3-32.2-13.7 0-7.8.7-14.4.7-19.4z" style="fill:#1a1a1a;stroke:none;stroke-width:.5"/><path class="alpha" d="M294.3 152.4c-.6 4.8-24 5-25.7.3v5.3c-4.5 3.6-14.6 12.5-16.6 13-2 .3-3 2-7 2.7-6.5 1.3-9.2 6.8-9.7 14 2-3.3 5.4-7.5 9.2-5.2 5 3 12.5 15.5 13.8 18.5 1.4 3 11 81.2 10.2 86-.8 3.6-7.3 16.3-10.3 34 9 9.3 21.7 6 28-3.8 7 7.7 15.8 7.6 23.3 3.3-2.6-16.5-8.8-34-9.5-37.4-1-4.6-4.5-81.8-3-84.8 1.2-3 12-13 17-16 5-3.2 9.7 5 13 8.3l.7.8c.5-8.6-1.4-16.3-8.8-17.2-6.8-.7-5.6-1-4.6-1-3.3 0-20-14.7-20-18.7v-2z" style="fill:#006680;stroke:#00222b;stroke-width:1;stroke-linecap:butt;stroke-linejoin:miter;stroke-miterlimit:4;stroke-opacity:1;stroke-dasharray:none"/><path class="alpha" d="M282.2 179c-.8-3-.2-5.3 5-5.5 5-.2 6.3-.8 11.4-.2 5 .6 11.5-.4 16-.4 4.3 0 5.7 1 5.3 2.5m-78.9.3c3.5-4.4 4.7-4.4 10.4-3.2 5.6 1.2 20.5 1 24.4.6 3.8-.3 3.6 3 2.6 4" style="fill:#006680;stroke:#00222b;stroke-width:.5"/><path class="alpha" d="M275 173c-2.5-7.4-5-7.4-6.5-18" style="fill:none;stroke:#00222b;stroke-width:.5"/><path class="beta" d="M240.3 190.6c2.4 3 2.8 3 4 11.3 1.2 8.4 3.6 12 9.7 13.2 6 1.2 21.8-2 23.4-7.6m40.3-15.3c0 7.7-4.8 21.4-11 25-6 3.7-23.7-.4-24.5-4m-36.7-2.2c.2 6.4 5.5 9.5 8 9.7m-9.8-3.3c.8 7 3.2 8 5.3 8.7" style="fill:none;stroke:#00222b;stroke-width:.5"/><path class="alpha--dark" d="M300.6 178.6c-1.3 0-2.7 0-4.4.2-10 1.2-10 3.3-3 5.3 3.5 1 9.2 2 13.3 4 1.7-1.6 3.4-3 5-4.2-.8-1-1.6-1.8-2.4-2.5-2-1.6-4.5-2.7-8.4-2.7zm-30 1.2c-4 0-8 3.4-6 7.2 1.5 3 4.7 13 3.5 15.8-1.5 3.8-4.4 5.2-8.4 5.3l2.4 17.2c1.8-2 5-3.6 9.8-3.7h1c3.6 0 4.5 4 1.4 5.8-2.5 1.4-7.6 7.2-11 6.8l.8 7c2.3-1.4 6.7-6.3 10-6.4.7 0 1.4.2 2 .8 3 3.4.5 11.3-11 11h-.4l.6 5.5c1.2-.5 3-.8 4.7-.8 4 0 8.2.8 7.8 3.6-.8 4.3-1.3 6.4-11.5 6.4l1 7.6c1-.6 2.3-1 4-1 8.4 0 8 3.3 12.7 3.3 6.4 0 5-5.2 8.6-6.2 1.3-.3 2.5-.5 3.5-.5 1.2 0 2 0 2.8.4l-.5-9c-.7 1.2-2 2.3-3.2 3-2 1-5.4 2-7.5 1.3-4.2-1.7-4.3-4.7-2.3-7 1.7-2 3.7-2.6 5.8-2.6 2.6 0 5 1 6.7 2 .2 0 .3 0 .5.2l-.4-8.7c0 1.2-1.2 2.4-3 2.4-11.4.3-14-7.6-11-11 .7-.6 1.4-.8 2-.8 3.4 0 8 5 10.2 6.4 1 .6 1.6 1.5 1.8 2.4l-.5-9.7c-3.4 2-9.4-4.8-12.2-6.4-3-1.8-2-5.7 1.4-5.8 5 0 8.6 1.4 10.6 3.4-.2-7.3-.4-13.8-.4-18.6-2.6-.3-4.7-1-6-1.7-3-1.6-8.4-9.6-4.8-21.3-4.8 4.8-4.8 22.6-3.2 26.6 1.6 4-.4 5.3-3.2 6-2.8 1-5.3-2.8-2-8 3.2-5.2 1.2-17.4-1.2-24.6-1-2.7-3.3-3.8-5.7-3.7zm-34 1.6c-.7 2-1 4-1.3 6.3l2-3-.7-3.3zm62.6 91.3c-2.5 3-7.4 5.8-14.5 5.8-9 0-14.2-1.4-17-3.2.7 6.2 1 10.6.8 11.6l-1 3c5.6 2.7 11.6 5 17.8 5 6.3 0 11.6-2.2 16.4-6l-1.7-6c-.2-.8-.5-5-.8-10.3z" style="fill:#045;stroke:none"/><path class="alpha" d="M279 177.7c-1-8.5-4-16-5.6-22.8m8.8 22.1c.4-6.7 3.6-9.5 5-21.5m-1.5 17.5c1.8-5.5 7.2-9 8.7-20.3" style="fill:none;stroke:#00222b;stroke-width:.5"/><path class="alpha" d="M282.2 179c-.8-3-.2-5.3 5-5.5 5-.2 6.3-.8 11.4-.2 5 .6 11.5-.4 16-.4 4.3 0 5.7 1 5.3 2.5m-78.9.3c3.5-4.4 4.7-4.4 10.4-3.2 5.6 1.2 20.5 1 24.4.6 3.8-.3 3.6 3 2.6 4" style="fill:#006680;stroke:#00222b;stroke-width:.5"/><path class="alpha" d="M275 173c-2.5-7.4-5-7.4-6.5-18" style="fill:none;stroke:#00222b;stroke-width:.5"/><path class="alpha--dark" d="M294.3 152.4c-.3 2.5-6.7 3.7-13 3.7-1 1.6-3.6 3-4 0-.2 6.4 4.7 5 2.5 7.2s-.8 9 .8 10 4.7-8.4 6.3-12.8c1.5-4.5 9-8.8 6.3-2.4-3 7.5-4.6 7.6-5.6 10.7-1.3 3.5-3 5-.2 4.8 2.8-.2 6.6-10.5 7.4-.6.7-.3 2 0 9.8.5-11-3.8-9-9.2.5-6.5-5.4-4.5-11-10.4-11-12.7v-2zM272 155c1 3.8 2.7 6.6 3.8 10.2 2.6 9-2.3 6-7-7.2 2.3 12-1 15.3-1.3 6.4-1 9-2.4 7-2.6 2.6-.7 1.8-6.6 6-4.8.8-1.6 2.3-4.4 3.3-7.4 4.7 6.6 1 15 .5 22.4 1 3.6 0 4 2 4.2 3.4.4-3-2-12.6-3-15.2-.8-2-1-4-1-6-1.4-.3-2.5-.6-3.5-1z" style="fill:#045;stroke:none"/><path class="alpha--dark" d="M311.72 289.31c-.7.07-1.3.43-1.75 1.22-3.18 5.6-11.63 10.84-18.52 12.46a20.43 20.43 0 0 0 13.73-5.36c-5.6 6.22-9.38 15.75-16.75 16.42-7.37.67-10.64-4.08-14.29-7.66-3.64-3.57-10.16-6.08-26.24-4.74l.45.52c5.85-.07 21.68-.14 30.15 13.62 6.26 10.2 16.66 11.33 19.62-3.15 2.07-10.13 19.38-17.95 26.01-16.71l.14-.3c-4.37-1.2-9.5-6.6-12.55-6.32z" style="fill:#045;stroke-width:.5"/><path class="alpha--dark" d="M272.15 299.1c5.57 2.23 6.9 2.67 10.47 4.9-2.23-2.67-6.24-4.23-10.47-4.9zm25.32-4.37c-7.37 6.37-15.07 4.7-26.8 1.34 9.72 2.01 18.76 2.35 26.8-1.34z" style="fill:#045;stroke-width:.5"/></g><g class="js-arm-left"><path class="beta" d="M317.5 193.2c-1.8 13.2-.8 32.5 1.6 41.6 2.5 9 5.6 12 5.4 17-.2 5 2.8 17.3 5.2 23.7 2.4 6.5 9 33.7 8.3 36.5 1.7-1.8 5.3-2.5 8.2-2-1.6-9.3-5.7-42.4-6-50.6-.4-8.4-2.4-10-5-15.7-2.8-5.7-6-18.2-5.8-25 .4-6.6 1-24.7-2.3-28-2.8-3-6.6-9-10.7-9l-.1-.3c-.8 0-1.5.2-2.3.7l-2 1.5" style="fill:#333;stroke:#000;stroke-width:1;stroke-linecap:round;stroke-linejoin:miter;stroke-miterlimit:4;stroke-dasharray:none;stroke-opacity:1"/><path class="beta--dark" d="M317.4 192.5v1.1c1 14.5 10.2 24 12.2 28.7-.2-1.4-.2-2.7-.2-3.8.2-4 .5-12 0-18.7-.5 4.6-2 7.8-3.3 7.6-3.4-.7-5.8-8-8.6-15zm6 24.2c2.2 4.3 6.8 12 8.6 17.8-1.2-4-2-8.3-2.4-12-3.8-2-3.8-3.7-6.3-5.8zm0 9.5c.4 6.6 2.3 12.4 4 15.6 2.3 4.6-1.4 7-8-6.5 2.3 8.5 5.2 11.3 5 16.2 0 2.6.6 7 1.7 11.7 1.2-5 4.3-5.6 4 3.4v9.8c2.6 7.8 8.3 32 8 35.3 1.8-2 2.5-5.3 2.5-7-1 2-2-2.3-4.5-13.2-2.3-10.3-6.8-32 0-46.3l-1-1.7-2.8-8c.7 2.7.8 5-.5 6-3 3-7.7-11.8-8.4-15.3zm15.4 25c0 10-3.8 24-1.4 38.2-.3-7 .8-19.6 3-25.7l-.2-4.5c-.2-3.6-.7-6-1.4-8zm3 24-2 10.3c1-1 1.8-2.8 2.5-4.8l-.6-5.6zm1.5 14.2c-1 4-2.7 7-3.5 8.8 3-3.2 2.7-3.8 4-5.5l-.5-3.3zm1.2 9c-.8 4.2-2.6 8-3.3 9.3 3-2.4 3-3 4-4.5l-.7-5zm.8 5.7c-1 2.6-3 5.8-3 5.8h4l-1-5.7z" style="fill:#1a1a1a;stroke:none"/><path class="alpha" d="m311.9 183.5 2-1.4c5-3 9.7 5 13 8.5 3.4 3.3 2.8 21.4 2.4 28-.3 6.8 3 19.3 5.7 25 2.8 5.7 4.8 7.3 5.2 15.7.3 8.2 4.4 41.3 6 50.7 1.2 0 2.3.6 3.2 1.2-.8-5.2-1.6-45.4-4.5-54.2-3-9-4.7-9.5-4.5-18.4.2-8.8-2-14.7-3.6-18.3-1.7-3.6 3.3-16-1.8-31.3-3.4-10.4-10.2-14.5-17.3-14.3h.3c-3.4 0-6.7 1-9.8 2.6" style="fill:#006680;stroke:#00222b;stroke-width:1;stroke-linecap:round;stroke-linejoin:miter;stroke-miterlimit:4;stroke-dasharray:none;stroke-opacity:1"/><path class="alpha--dark" d="M322.8 175.3c6.3 7.5 7.4 17.6 6.6 24.6.5 6.5.2 14.6 0 18.6 0 1 0 2.4.2 3.8v.3c.3 3.5 1.2 8 2.4 11.8v.4l.2.5c1 3 2 6 3 8l.8 1.7c.4-1 1-1.7 1.4-2.5 1 2.3 1.5 5.2 1.4 8.6.7 2 1.2 4.3 1.4 8 0 1 0 2.5.3 4.4.5-1.5 1-2.5 1.8-3 .7 3.7 0 9.3-.6 14.4l.6 5.8c1.3-3.4 2-7.3 2-10 1.4 7.5.5 13.8-1 18.6l.5 3.3 1-1.2c.3 2.3 0 4.6-.3 6.8l.7 5 .6-1c0 .6-.2 1-.5 1.8l1 6c1 0 2.2.6 3 1.2-.7-5.2-1.5-45.4-4.4-54.2-3-9-4.7-9.5-4.5-18.4.2-8.8-2-14.7-3.6-18.3-.7-1.4-.4-4 0-7.8-1.6 4.8-3.5 6-3.5-5 0-7 .8-10.6 1.8-10.5.7 0 1.5 1.7 2.2 4.8 0-4-.7-8.2-2.3-12.8-2.6-8-7.2-12.2-12.5-13.7z" style="fill:#045;stroke:none"/></g><g class="js-arm-right"><path class="beta" d="M250 188c-2-2.4-3.8-4.5-5.5-5.5-.8-.4-1.5-.6-2.3-.6v.1c-4 0-7.2 6-8.4 8.5-2 4.2-2.2 17.2-2 24 .5 6.6-3.4 23.3-6 29-2.7 5.7-4.7 7.3-5 15.7-.4 7 2 31 2.4 43.6 0 0 0 .2-.2.3 2-.2 3.8 0 4.8 0-1-4.5 1.8-28 5.2-36.3 3.5-8.5 1.8-19.8 3.4-22 1.7-2.3 8.3-7 9-49.4" style="fill:#333;stroke:#000;stroke-width:1;stroke-linecap:round;stroke-linejoin:miter;stroke-miterlimit:4;stroke-dasharray:none;stroke-opacity:1"/><path class="beta--dark" d="M237.7 184.5c-1.8 2-3.2 4.6-4 6-2 4.2-2 17.2-1.8 24v2c3.3-2.7 7.6-6.8 9.3-11-1.2 6-5 12-8 14.3.8 3.5 0 16.2-.5 17.8-.4 1.2-2.4 3.3-4.5-1.8-.8 3.2-1.7 6-2.5 7.7L224 247c.8 7.2-.2 12-3 8.2 1.3 3.6 4.2 11.2 3.4 18.2-.7-2.3-2-5.3-3.5-8.5 0 2.8.2 6.2.5 10 2.4 7 4.3 18.8 4.2 23.8-.6-1-1.6-2.4-3-3.7.3 2.3.4 4.4.5 6.3l1 1.7h3.6c-1-4.5 1.8-28 5.2-36.3 3.5-8.5 1.8-19.8 3.4-22 1.5-2 7-6.3 8.7-38.4-1.6-7.2-3.6-13.4-4.6-15.3-1-2-2-4.3-2.7-6.5z" style="fill:#1a1a1a;stroke:none"/><path class="alpha" d="M256.5 176.7c-4.3-2.7-8.3-4.4-12.3-4.6l.1.2c-5-.2-9.8 2-15 8.3-9 11-2.2 30-5 36.7-2.8 6.6-3.4 10.6-4.2 20.3-.7 9.7-7.4 11.3-7 37.3.4 26 2.2 28 1.4 33.2 1.6-3.6 5.4-4.8 8.6-5.2 0 0 .2 0 .2-.2-.3-12.7-2.8-36.7-2.5-43.6.4-8.4 2.4-10 5-15.7 2.7-5.7 6.6-22.4 6.2-29-.4-6.8-.3-19.8 1.8-24 1.5-3 5.7-11 10.7-8 1.7 1 3.5 3 5.4 5.3" style="fill:#006680;stroke:#00222b;stroke-width:1;stroke-linecap:round;stroke-linejoin:miter;stroke-miterlimit:4;stroke-dasharray:none;stroke-opacity:1"/><path class="alpha--dark" d="M237.7 180.5c-4.5 3.4-6 11.5-6.4 17-4-5.3-2-12.8-.6-15-3 2.7-3 9-3 12 0 4.5 3.6 17.3.7 24.7 1-.6 2-1.5 3.5-2.6v-2.2c-.4-6.7-.3-19.7 1.8-24 .7-1.3 2-4 4-6-.5-1.5-.6-3 0-4zm-11 49.3c.7 6.8-1 15.2-5 6.2 1.3 3.7 2 7.6 2.3 11 .6-1 1-2.2 1.8-3.5.8-1.7 1.7-4.5 2.5-7.7l-1.7-6zm-11 21-.8 3.4c-1 6.7 2.7 9 2.8 10.6-.8.2-1.5 0-2.5-1.4.4 2.3 2 18.3 4.7 26.8-.3-4-1-13.7-.7-19.8.7 1 1.5 2.5 2.2 4.5l-.6-10.2c-2.2-4.4-4.4-9.3-5.2-14zm5.3 4.2zm-2.3 36.3c.7 3.4 2.5 6.8 4.5 10 0-2-.2-4-.4-6.2-1.2-1.3-2.7-2.7-4-3.7z" style="fill:#045;stroke:none"/></g><g class="js-leg-left"><path class="beta" d="M304.6 298.7c3.3 11.7 7 27.5 6 39-1.8 16.2 7 24.5 13.5 27.7 3.4-11.3 4.3-22.7 4.3-40 0-19-2.8-35-9.4-50" style="fill:#333;stroke:#000;stroke-width:1px"/><path class="beta--dark" d="m319 275.5-14.4 23.2 3 11c1-3.2 2.3-6.6 3.4-9.8 0 4.5-.8 10-2.2 16.2.6 3 1 6 1.4 9 .5-1 1-1.8 1.6-2.4 0 1.5 1.6 18.2.5 29.8l1 2.2c.3-10.8 5.4-33.7 6.5-37.3 3.2 13.6-.3 36-3.6 41.7l2 2c2.2-10.2 5-22.2 6.6-31.8 1.7 11 1.8 21 1 29.5 2-9.5 2.5-19.6 2.5-33.6 0-19-2.8-35-9.4-50z" style="fill:#1a1a1a;stroke:none"/><path class="alpha" d="M304.6 298.7 293.8 316c-5 11-5.7 29.7-2.5 45.4 3 15.7-.3 16 2.3 24.2 2.5 8.3-.3 10.6 4.2 23.7 4.6 13-5 22 1.2 47.6s.8 35-.6 36.7c-1.4 1.7-1.4 6 0 8.6 1.4 2.5.3 11.3-1.7 14.8s-2.6 13 8.6 13c11 0 17-5 14.8-10.4-2.2-5.4-6.8-12.2-5.3-16 1.4-3.7.8-5.3 0-10-1-4.5 4.5-27.8 7-37.3 2.6-9.4 4-27 1.8-37.6-2.3-10.6-4.8-37-.6-49.6l1-3.6c-6.3-3.2-15.2-11.5-13.5-27.7 1-11.5-2.6-27.3-6-39z" style="fill:#006680;stroke:#00222b;stroke-width:1px"/><path class="alpha--dark" d="M304.6 298.7 293.8 316c-2.4 5.3-3.8 12.4-4.3 20 1-6 3-12.3 7-15.3-2.3 7.3-1 19.6-5.8 32-.5-1-.8-2.5-1-4 .2 4.3.8 8.6 1.6 12.7l.4 2.5c1.7-14.6 9-35.7 15.8-54.2l-3-11zm0 3c2.6 10.2-5.2 26.3-8 33-.7-14.8 7-25.6 8-33zm4.2 14.5c-4 17.4-12 39-16 53 1.5-4 3.6-8.5 6.6-13.8 3.2 9 0 32.7-5.6 29.5 0-.2-.3-.3-.5-.4 0 .3 0 .7.3 1 2.3 7.5.2 10 3 20 1.6 1.7 3 2.8 4 3.6-2-2.5-.8-1.8-1.5-4 3 4.3 7.8 13 8.2 14.5 0-6.3 2-10.2 5.6-12-1 5-2.5 9.2-2 15.5.2 6.3-3 32.7-3.6 39 3.5-5.6 4.2-5.3 6.3-11-1 11-7 31.7-7 33.5 0 1.7 3.8 1.4 5.6 0 0 3.5-3.8 4.2-6 4.2-2 0-1.6 6 .8 5.5 2.5-.4 4-1 5.3-1.8-3.8 6-10.5 4.3-11.2 8.8 1-1 2.5-1.8 4-1.8-1 2.5-3.6 6-3.6 10.6s-6 10.5 2.5 15.8c-2.6 0-5-.2-7.3-.5 1.2 2.5 3.8 4.4 9 4.4 11 0 17-5 14.7-10.3-2.2-5.5-6.8-12.3-5.3-16 1.4-3.7.8-5.4 0-10-1-4.6 4.5-28 7-37.4 2.6-9.4 4-27 1.8-37.6-1.8-8.3-3.7-26.4-2.4-40-1.4 3.3-3 5-4.3 4.8-2.7-.4-1-10 1.6-22.2l-2-2c-.8 1-1.5 1.6-2 1-.8-.6-1-2.7-1-5.5l-1-2.2c-.6 6.3-2 11-4.8 11.2-7.4.4-3.8-27.6 2.7-38.7-.4-3-.8-6-1.4-8.8zm-1.3 59.2c0 1.8 3.5 9.5-1.7 13.4 11 5 6.3 6 1.7 5.3-4.5-.6-11 3.6-3 6.4-4-5.6 7-3.2 4-2-2.7 1-.6 3.4 4.3 6.2-1.8.3-4 .3-7.7-1.4 1.8 1 1.5 2 1.8 3.5-1.4.3-5.6 1-8.4-6 1.8 1 2.8.4 2.8 0-3.5-3.5-2.5-8.4 4-8.4-4.7-2-1.5-11.6 2.3-17zM304 428c0 15.5-4 21-7 15.5 0 4 .7 8.3 2 13.4 2.2 9 3 16 3 21.5 1.7-16.5 3.4-38.5 2-50.4z" style="fill:#045;stroke:none"/></g><path class="gamma" d="M346 310.2c-1-7.7-5.5-42.6-5.8-51-.4-8.4-2.4-10-5-15.7-2.8-5.7-6-18.2-5.8-25 .4-6.6 1-24.7-2.3-28-3.3-3.4-8-11.5-13-8.4-5 3-15.8 13-17 16.2-1.5 3 2 80.2 3 85 1 4.7 12.4 35.5 10.5 54.5-1.7 16.5 7.4 24.7 14 27.8" style="fill:none;stroke:maroon;stroke-width:1;stroke-linecap:butt;stroke-linejoin:miter;stroke-miterlimit:4;stroke-opacity:1;stroke-dasharray:none;stroke-dashoffset:0"/><g class="js-leg-right"><path class="beta" d="M247.5 282.6c-.4 7.7.4 17.7-2.4 27.4-2.3 8.4-4.8 38-4 60 8.2-4.3 15.3-16.4 15.6-33 .4-16.4 4.6-30 8-39.2l-17-15.2z" style="fill:#333;stroke:#00222b;stroke-width:1px"/><path class="beta--dark" d="M247.5 282.6c-.2 5 0 11.3-.6 17.8 3.2-5 3 2 1.2 13.6 5-14.4 8.4-2.5 9.8 7.3l.3-.6c1.6-9.2 4-17 6.2-23l-17-15z" style="fill:#1a1a1a;stroke:none"/><path class="alpha" d="M264.5 297.8c-3.3 9-7.5 22.8-8 39-.2 16.8-7.3 29-15.5 33.3 0 3.4.2 6.5.5 9.4 2 21.8-2 38.7-3.2 47.2-1.2 8.4 1.6 22.5 3.2 35.8 1.6 13.3 4 24.7 2.4 28.7-1.7 4 .7 9-1.3 11.4-2 2.4-3.2 6.4-6 9-3 2.3-7.7 7.5-10.5 9-3 1.7-3.2 8.6 3.6 9.8 7 1.2 16-1.6 18-5.2 2.2-3.7 1.4-8 5.8-7.7 4.4.4 5.6-3.2 4.4-8.5-1.2-5.2-.4-7.2 0-7.6.4-.4 1.2-3.3 0-6.5s.4-27.4 5-36c4.3-8.4 3.5-18.8 2-27-1.7-8-2.5-14.4.7-21.3 3.2-6.8 4.4-18.5 7.6-33 3.3-14.6 13-23.5 13-60L264.4 298z" style="fill:#006680;stroke:#00222b;stroke-width:1px"/><path class="alpha--dark" d="M264.5 297.8c-2 6-4.6 13.7-6.3 23 3-6.4 12.5 1.5 14.2 29.7 1.8 29.2-2 15.8-3.5 9.5-1.5-6.4-5.7-27.4-8.2-30.2.4 22.5 0 34-.3 42.5 2-4 1-15 4.2-13 3 2 6 29 .7 32.6-.7-5.3 1.4-8-.4-13.8-1.7 5.7-4.2 9.2-5.6 9.2-.7-6-1-7 0-10.2-2.5 4.6-1.7 12.6-2 15.8-.4 3.2-4 0-7 2 6 1 2.3 4.3 0 3.6-2.6-.7-3.3.4-4.7 1 5 .8-.3 12-.3 17.3-1.4-6.4-1.8-10.3-1.4-15.2-.7 6.7 0 15.8-1.4 16.8-.8.6-1.6-2-2.2-5.6l-2 13.6c-.2.4-.2 1-.3 1.5 1.6-.5 3 .2 3.5 2.6 0-2.8 0-6.7.7-9.5 4.6 6.8 9.5 45 6 45.8-3.6.7-7.4-19.4-7.4-26.7-.2 1.4-.8 3.7-1.7 5 .8 5.5 1.8 11.6 2.5 17.4.8 7 1.8 13 2.4 18.2 1.5-1.4 1.8-3.5 2.4-8 0 7.5 2 17.3.7 19.4-1.3 2-1.3 4.2 0 4.6 1.5.3 4.3-.4 5.4-1.8-.4 6.4-7.4 3-13 20 3-6 5.3-10.5 6.7-9.4 1.5 1-1.7 12.6-2.4 13.3-.7.7-5 7.8-7.4 8-2 .4-8.7 2.2-12-1.7.3 2.2 2 4.5 5.6 5.2 7 1.2 16-1.6 18-5.2 2.2-3.7 1.4-8 5.8-7.7 4.4.4 5.6-3.2 4.4-8.5-1.2-5.2-.4-7.2 0-7.6.4-.4 1.2-3.3 0-6.5s.4-27.4 5-36c4.3-8.4 3.5-18.8 2-27-.8-3.4-1.4-6.6-1.5-9.6-3.5 3.4-6.5 9-9 17.3-.7-8 4.2-18.5 8-24.5-4.2 3.8-8.4 9.4-9.4 11.2 4.7-13.7 6.8-13.7 7.5-19.3.7-5.6.3-8.4.3-11.2 5.6 2 8-4.6 9.5-9.5-3 12.3-7.7 19.6-10.2 27.7 2.3-2 4.7-4 7-6.3 2.3-7 3.6-17.5 6.3-30 1.7-7.3 5-13.2 7.8-22-5.3 4-4.6-1.3-3.3-6.6 1.2-5 5.4-21.4 8-18.6.4-4 .6-8.2.6-13L264.4 298z" style="fill:#045;stroke:none"/></g><path class="gamma" d="M223.2 302.8c-.3-12.7-2.7-36.7-2.5-43.6.4-8.4 2.4-10 5-15.7 2.7-5.7 6.6-22.4 6.2-29-.4-6.8-.3-19.8 1.8-24 1.5-3 5.7-11 10.7-8 5 3 12.5 15.5 13.8 18.5 1.4 3 11 81.2 10.2 86-1 4.7-11.3 24-12 50-.3 16.8-7.4 29-15.8 33.2" style="fill:none;stroke:maroon;stroke-width:1;stroke-linecap:butt;stroke-linejoin:miter;stroke-miterlimit:4;stroke-opacity:1;stroke-dasharray:none;stroke-dashoffset:0"/></symbol></svg>