<svg xmlns="http://www.w3.org/2000/svg"><symbol id="ibandage_left" viewBox="296 239 81 81"><path style="fill:#f4dfc7;stroke:#60352a;stroke-width:.40637407px" d="M348.201 272.078c-.037-1.448-2.584-3.038-4.13-3.363-1.548-.325-3.646.064-4.79-.34-1.145-.406-.99.394-2.742.47-3.46.15-8.843 2.175-8.808 3.14l.047 1.286c-1.159 1.487-.552 2.915.2 3.694.193 1.119.529 1.59.78 1.903.25.313.115 1.282.62 2.149.117 1.442.72 3.108.647 3.432-.073.324-.178 1.047.124 1.594.302.548.313 1.263.954 2.112.641.848.865 2.261 1.412 3.897.547 1.636 1.465 4.77 1.617 5.321.152.552-.337 1.132-.173 2.327.164 1.196 1.005 2.622.98 3.109-.091 1.704.283 3.41.346 4.063.062.653-1.462 2.744.726 3.006-.05.983.72 1.232 2.072.704 1.351-.528 2.538-.857 5.554-1.2 3.017-.343 4.628-.396 5.519-.265.89.132 1.27-.605 1.013-1.08-.257-.475-.485-5.845-.62-7.49-.134-1.645-.405-5.125-.583-5.617.203-.925.03-3.338-.1-3.834.543-.857-.07-2.92-.012-4.006.058-1.086-.244-1.988-.004-2.497.24-.509-.553-1.914-.356-2.356.197-.443-.141-1.463-.271-1.975.545-.547.15-2.162-.013-2.92.104-.942.418-1.355.162-2.336.399-.2-.889-2.826-.17-2.928z" class="alpha"/><path style="fill:#684936;stroke:none;stroke-width:.40637407px" d="M348.266 274.921c-.463-1.149-2.108-3.445-4.021-3.925-1.914-.48-4.149-.68-5.432-1.079-1.284-.4-4.074.04-5.922.388-1.85.349-4.433 1.736-4.505 1.98-.07.243-.047.887-.047.887 3.895-1.337 7.542-3.302 8.177-2.856.635.445 1.861-.046 2.752.39.891.434 4.596.65 5.552.996.956.347 2.605 2.196 2.85 2.988l.607 1.853c.126-.809.168-1.09-.011-1.622zm-.383 1.558c-1.095-1.173-2.483-2.795-3.749-3.19-1.265-.396-5.15-.62-5.802-.654 1.21-.356 3.3-.646 3.85-.667-3.276-.638-4.402-.243-5.006-.282-.603-.04.532-.24-.303-.383-.835-.142-4.719 1.503-6.13 2.03 1.03-.113 2.156-1.107 2.856-1.083-1.6.649-2.892 2.13-3.89 3.45.201-1.212.664-1.63.664-1.63-.171-.316-.34-.552-.113-.881-1.417.448-3.325 1.318-1.977 3.202.23-.41.622-.745.938-.916-.75 1.633-.657 2.194-.074 2.898.031-1.77 1.156-3.763 2.123-4.166 1.443-.603 11.723-1.15 12.892-.657 1.17.494 2.752 1.926 3.72 2.929zm.27 3.801c-.327-.833-2.696-2.83-4.573-3.114-2.003-.302-3.924-.256-9.28.105 1.3-.534 3.074-1.485 5.882-1.857-.88.06-2.923.444-4.843.814-1.92.369-3.549 2.137-4.81 2.741.378-.736.938-2.172 2.323-2.65-.47-.047-1.564-.032-.383-1.547-.529.402-1.469.42-.942-.074-2.118 1.715-1.5 3.565-1.811 3.896-.312.332-.3.734.27 1.036-.23.41-.212 1.132.2 1.52 1.166-1.486 5.327-3.234 9.386-3.413 4.058-.178 7.234 1.131 8.62 2.7a.49.49 0 0 0-.038-.157zm.056 4.56c-1.689-1.396-6.359-2.464-8.54-2.422-2.18.042-2.327.533-3.607.27-1.28-.261-3.505-.25-4.396-.064-.891.185-1.15.936-.84 1.7.022-1.025 2.04-1.17 3.502-.75 1.463.42 4.378-.48 6.1-.493 1.723-.012 5.876 1.019 7.78 1.76zm-.156 2.952c-.57-.683-1.249-.829-2.239-.898.833.136 1.556.75 2.239.898zm-.067 3.13c-1.982-.327-6.547.269-8.185.516-1.637.248-5.782 1.632-5.994 2.196-.211.565 1.539 1.282 4.05.623-1.362.024-2.057.044-2.45-.057-.393-.101-.317-.493.068-.67.384-.177 3.608-1.223 6.915-1.631 3.307-.408 4.888-.828 5.596-.976zm.043 3.126c-2.487-.309-4.852.042-6.725.424-1.874.381-4.918.65-5.707.671-.79.022-1.401.32-.95 1.035.22-.343 3.196-.264 6.006-.92 2.81-.657 5.82-1.145 7.376-1.21zm.045 12.641c-2.912-.472-4.849-.38-6.822.08-1.972.46-3.723 1.148-4.726 1.522-1.004.375-1.361 1.37-.116 1.276.05-.81 2.187-1.636 6.023-2.323s2.91-.635 5.641-.555zm-3.8-27.9c-.72-.044-1.982-.688-5.79-.235-3.807.454-7.163 2.238-7.77 2.826-.608.589-.596 1.156-.244 1.599.04-.683.597-1.362 1.216-1.284.62.077 4.424-1.434 6.069-1.992 1.644-.56 2.763-.933 6.52-.914zm1.073 6.636c-1.188-1.04-4.14-1.472-6.128-1.303l-6.91.719c-.506.027-.36-.707.64-.886-2.303-.237-2.216 1.447-1.544 1.884 0 0-.222.538.044.815-.268.128-.742.498-.196 1.322-.126-1.065.531-.586.475-.244-.057.343-.11.4.283 1.224-.367-1.552.095-1.308.95-1.057.854.251 2.662.011 5.276-.56 2.613-.572 3.796-.739 6.855-.588-2.201-.844-3.721-.94-5.303-.673-1.581.269-3.518 1.227-7.397 1.046 1.137-.048 5.042-1.316 6.668-1.657 1.626-.341 4.102-.682 6.287-.042zm1.637 22.78c-2.052-.33-4.512-.828-9.926 1.749 3.797-1.03 6.821-1.303 9.926-1.748zm-3.19-3.607c-3.455.298-5.866.016-7.368-.75a.56.56 0 0 0-.173.753c-.398-.22-.581-.56-.88-.895-.052 1.323.44 1.541.679 1.765-.367.414-.285.99-.288 1.395-.002.405-.703 1.12-.484 1.867.313-.647 1.729-2.074 2.404-2.205.674-.13 2.652-.468 3.426-.493-2.222-.156-3.422-.374-4.137-.415 3.983-.212 4.944-.494 6.82-1.022zm-.374-2.697c-3.028.41-7.012.628-7.44.697-.428.069-.468.815.166.798.633-.017 1.742-.098 2.276-.107.105.743-.164.941 4.32.37-2.833.164-2.893-.626-3.265-.677 2.443-.501 3.02-.755 3.943-1.08zm-1.682-4.551c-2.166.21-6.039.32-6.554.561-.515.24.116.892.116.892-.362.237-.901-.53-1.032-1.032-.315.967.316 1.173.345 1.511.028.339-.661.415-.084 1.876.051-.799.23-1.485.603-1.666.373-.181.696-.19.49-.636 1.966-.283 1.297-.077 6.085-1.503zm-.376 4.11c-1.616.234-3.432-.111-4.777-.249.413-.067 1.701-.388 2.945-.872-.548-.046-2.464-.11-3.87-.24.631-.302 2.403-.659 3.956-.636-.368-.164-1.405-.387-2.508-.307-1.102.081-.877.587-1.356.657-.478.07-.347.634-.505.923-.157.29-.305.634.602.78 0 0-.22.577.256.564.476-.013 3.156-.31 5.257-.62zm-1.15-5.223c-1.35-.019-4.482.245-5.013.317-.53.072-.695.413-.379 1.248-.021-.675.918-.534 1.535-.549.617-.015 1.176-.653 3.858-1.016zm-1.666-5.147c-1.578.303-3.338.999-3.838 1.18-.5.182-.534-.43-.156-.44-1.093-.024-1.472-.8 1.272-.982-2.189-.166-2.971-.75-1.396-1.02-1.411-.237-1.863-1.174.263-1.124-1.25-.299-2.034-.832-2.278-.32-.245.512.018.95.358 1.217-.05.56.17.775.47 1.1-.427.348-.088.838.144 1.11-.3.399-.36.981-.197 1.364.111-.226 2.76-1.488 5.112-2.058z" class="alpha--dark"/></symbol><symbol id="ibandage_right" viewBox="181 235 81 81"><path style="fill:#f4dfc7;stroke:#60352a;stroke-width:.40637407px" d="M231.89 273.649c-.049-1.448-3.632-2.618-5.573-2.876-1.942-.258-3.296.028-4.365-.45-1.07-.48-3.994-.53-5.162-.069-1.168.46-4.16.46-4.477 1.358l-.425 1.207c-1.469 1.438-1.376 2.828-.94 3.59-.197 1.1-.037 1.572.095 1.886.133.313-.276 1.287-.022 2.171-.23 1.47.092 3.196-.016 3.53-.108.334-.332 1.084-.167 1.651.164.567.183 1.334.46 2.194.278.86-.045 2.277.037 3.756.082 1.478.314 4.241.368 4.754.054.512-.448 1.029-.463 2.23-.014 1.203.706 2.757.652 3.29-.19 1.87.258 3.828.363 4.556.104.73-1.264 2.972 1.054 3.258.077 1.017 1.215 1.22 2.565.693 1.35-.526 4.365-1.066 7.36-1.321 2.995-.255 4.357.093 5.247.225.89.131 1.269-.606 1.011-1.08-.257-.475-.353-5.788-.406-7.397-.054-1.61-.1-4.99-.245-5.47.27-.894.274-3.23.178-3.71.616-.826.146-2.824.282-3.876.135-1.051-.114-1.929.162-2.421.277-.493.017-1.773.325-2.186.308-.413.196-1.376.18-1.858.708-.507.657-2.036.633-2.76.293-.896.845-1.236.896-2.124.478-.177.416-2.027.392-2.751z" class="alpha"/><path style="fill:#684936;stroke:none;stroke-width:.40637407px" d="M231.414 276.323c-.115-1.043-1.944-2.755-4.618-3.23-2.673-.475-2.37-.764-3.518-1.248-1.149-.485-4.76-.708-6.218-.55-1.458.157-4.033.375-4.104.615-.072.24-.504.813-.504.813 4.043-1.275 7.698-1.157 8.195-.67.497.488 2.233.112 3.047.593.814.482 2.55.788 3.93 1.145 1.382.357 3.195 1.584 3.219 2.309l.056 1.69c.378-.738.531-.984.515-1.467zm-.92 1.4c-.842-1.1-2.325-2.098-3.948-2.447-1.622-.35-3.214-.79-3.776-.875 1.08-.23.61-.332 1.332-.352-4.278-.599-2.482-.542-2.986-.632-.503-.09-.514-.726-1.114-.896-.6-.17-3.947-.078-5.345.396.957-.083 2.061.164 2.633.252-1.44.447-2.902.75-4.286 2.016.601-1.176 1.128-1.566 1.128-1.566-.07-.31-.163-.541.119-.854-1.398.402-3.443 1.237-2.823 3.08a3.88 3.88 0 0 1 1.193-.887c-1.252 1.577-1.37 2.14-1.063 2.844.607-1.76 2.237-2.835 3.228-3.095 1.481-.387 10.304.375 11.768.81 1.465.435 3.184 1.264 3.94 2.206zm-.604 3.576c-.15-.788-2.288-2.35-4.545-2.601-2.409-.268-3.804-.831-8.778-.96 1.336-.365 4.23-.44 7.38-.67-.98.022-4.372-.356-6.157-.172-1.785.184-3.78.947-5.147 1.52.588-.724 1.494-1.362 2.901-1.655-.412-.086-1.369-.182.14-1.419-.591.306-1.448.223-.82-.165-2.445 1.317-2.457 2.526-2.853 2.852-.397.326-.508.727-.073 1.039-.331.408-.502 1.14-.217 1.54 1.408-1.498 7.627-1.66 11.41-1.582 3.783.079 5.665.927 6.762 2.421a.387.387 0 0 0-.002-.147zm-1.097 4.264c-1.64-1.37-4.53-2.443-6.537-2.488-2.006-.045-4.118-.055-5.31-.362-1.193-.306-3.314-.439-4.171-.312-.857.127-1.206.84-1.024 1.591.154-.994 2.046-1.024 3.385-.555 1.34.469 6.077.202 7.697.244 1.62.042 4.056 1.148 5.96 1.882zm-.36 2.86c-.536-.666-1.224-.814-2.252-.893.86.142 1.563.745 2.251.893zm-.299 3.028c-2.004-.332-6.112-.246-8.019-.066-1.906.18-7.583 1.149-7.934 1.638-.352.488.89 1.63 3.895.966-1.528.026-2.064-.293-2.437-.404-.374-.111-.199-.45.239-.586.438-.136 6.575-.958 9.79-1.183 3.215-.224 3.73-.226 4.466-.365zm-.185 3.025c-2.516-.315-4.636-.43-6.554-.146-1.919.284-6.981.126-7.787.093-.807-.033-1.48.206-1.174.86.287-.296 5.26.292 8.164-.223 2.904-.516 5.758-.531 7.351-.584zm-.557 12.378c-2.92-.473-5.704-.745-7.709-.322-2.004.422-5 1.104-6.02 1.484-1.02.38-1.274 1.435.023 1.35-.05-.844 3.273-1.716 7.167-2.319 3.894-.602 3.803-.273 6.54-.193zm-1.568-26.66c-.855-.029-.423-.682-3.83-.527-3.407.156-9.152.594-9.843 1.183-.691.588-.778 1.175-.532 1.633.148-.702.788-1.063 1.347-.952.56.11 6.29-.581 7.981-.94 1.692-.359.379-.362 4.877-.397zm.123 5.675c-1.17-.99-2.939-1.295-5.008-1.295l-7.883-.03c-.475.008-.253-.697.715-.819-2.139-.334-2.282 1.322-1.743 1.77 0 0-.31.531-.125.814-.276.123-.586.52-.39 1.353.3-1.07.737-.58.55-.239-.189.34-.466.429-.322 1.249.099-1.543 1.274-1.385 1.968-1.121.693.264 3.228.275 6.074-.142 2.846-.416 2.688-.58 5.833-.318-2.225-.877-2.745-.925-4.402-.744-1.658.182-4.212.69-7.708.427 1.067-.022 5.88-.803 7.548-1.033 1.669-.23 2.677-.523 4.892.128zm.357 22.501c-2.061-.33-6.482-1.205-11.885 1.4 3.89-1.032 8.767-.955 11.885-1.4zm-2.794-4.162c-3.406.167-8.587-.18-10.136-1.123-.29.183-.329.569-.188.83-.415-.267-.599-.655-.894-1.039-.092 1.472.442 1.744.695 2.006-.371.45-.26 1.1-.237 1.55.023.451-.647 1.232-.339 2.037.251-.692 1.628-2.223 2.347-2.33.718-.107 4.042-.354 4.82-.36-2.218-.215-4.86-.598-5.62-.684 4.214-.006 7.682-.43 9.552-.887zm-.169-2.698c-2.988.28-9.935.121-10.378.172-.444.051-.523.868.133.885.655.018 1.835.031 2.413.08.092.815 2.59.982 7.028.581-2.79.057-5.59-.423-6.03-.474 2.905-.506 5.905-.96 6.834-1.244zm-2.097-4.372c-2.195.117-7.942-.453-8.499-.256-.557.197-.106.857-.106.857-.398.21-.739-.551-.77-1.024-.494.896.1 1.126.076 1.46-.024.334-.746.365-.327 1.912.134-.84.412-1.523.81-1.687.398-.163.723-.152.589-.595 2.02-.147 3.24.526 8.227-.667zm-.984 4.032c-1.64.179-5.19-.669-6.567-.926.434-.035 1.503.353 3.074-.126-.657-.047-2.491-.87-3.894-1.083.677-.268 2.644.188 4.555.221-.426-.165-1.785-.987-2.941-1.03-1.157-.043-.99.487-1.483.527-.493.04-.432.62-.624.913-.19.293-.382.64.53.846 0 0-.274.601.215.617.49.017 5.002.279 7.135.041zm-1.399-5.09c-1.662-.042-5.403-.468-5.949-.434-.546.035-.779.331-.6 1.122.089-.63 1.008-.447 1.644-.406.637.041 1.495.027 4.905-.282zm-.561-5.066c-1.885.243-4.298.682-4.854.828-.555.147-.415-.406-.031-.405-1.094-.054-1.299-.763 1.593-.885-2.212-.202-2.795-.757-1.115-1.008-1.357-.244-1.407-1.191.67-1.121-1.127-.31-1.665-.854-2.098-.342-.434.513-.421.965-.165 1.228-.218.545-.064.748.136 1.056-.526.321-.332.776-.18 1.026-.41.357-.322.85-.28 1.193.175-.198 3.512-1.095 6.324-1.57z" class="alpha--dark"/></symbol></svg>