<svg xmlns="http://www.w3.org/2000/svg"><symbol id="ichest_warmer" viewBox="185 120 190 190"><path class="alpha--dark" d="M269 153c-.5 7.6-1.7 12 .7 19.5 2.3 7.6 7 16 16 23 8.6 7.2 14.6 24.3 18.2 32.3 3.4 8 13.8 22.3 17 25.8 3 3.6-.4 4.4-2 7.2 6 7 5 10 3.5 15.5-1 3-3 6.5-6 4.8-7.5-4.5-19-22.6-23.4-28.6-4.3-6-30.4-46.3-37-63.2-5-12.5-3.4-25.6 0-28.2 3.7-2.6 7.5-9.8 13-8z" style="fill:red;stroke:#a00;stroke-width:.5"/><path class="alpha" d="m318.8 260.8-8.6-7.8m-16.5-100c.6 12 3.8 9.5-6.4 29.2-10.3 19.6-18.3 23-26.6 44.8-8.2 21.8-7 20.8-13.2 27-6.2 6.4-4 6.4-2.7 8 1.4 1.5-1.6 3.7-2.8 6-1 2.4-.7 5.4.2 7 1 2-.4 5 3.4 7 3.7 2 10.2-3 14-8.4 4-5.5 23-38.2 32.2-55 9.2-17 19.4-36.2 22.2-46.7 2.7-10.5-3.2-11.5-6-13-3-1.6-6.4-5-14.3-6z" style="fill:red;stroke:#a00;stroke-width:.5"/><path style="fill:#d40000;stroke:none" class="alpha--dark" d="M293.7 152.9v.1c.6 12 3.8 9.5-6.4 29.2-10.3 19.6-18.3 23-26.6 44.8-8.2 21.8-7 20.8-13.2 27-6.2 6.4-4 6.4-2.7 8 1.4 1.5-1.6 3.7-2.8 6-1 2.4-.7 5.4.2 7 1 2-.4 5 3.4 7 3.7 2 10.2-3 14-8.4 4-5.5 23-38.2 32.2-55 9.2-17 19.4-36.2 22.2-46.7 2.7-10.5-3.2-11.5-6-13-3-1.6-6.4-5-14.3-6zm1.86 3.477c.06-.004.14.005.24.023 1.7.3 3.9 0 4.2 2.7.296 2.763-5.446 23.913-10.787 34.08 1.474-1.166 2.62-1.818 5.088-3.28 2.8-1.7 3.9-.3 2.6 2.5-1.4 2.7-4.2 6.9-10 24.5 8.1-19.5 11.4-22.6 14.7-24-1 1.5-2.4 3.5-6 9.5 1.6-2.3 5.2-4.8 6.8-7.5-1.3 2.6-16 30.6-18 33.6-1.8 3.1-13.8 25.6-15.8 28.4-2 2.7-5.6 10.1-8.3 9.7 1.3-1 3.3-4 3-8-.3-3.8-1-8.6 5-8.8 6.1-.4 11.4-17 4.7-22 .7 1.6 1.4 10.5-3.3 16.2.3-1.7 1.1-7.8 1.7-10.5-1.6 3.8-4.6 8.8-13.6 13 11.2-8.1 11.6-16.1 12.2-26.4-12.5 30.8-11.2 21.7-9.2 13 2-8.5 10.6-26.1 21-39.5 10.7-13.3 12-21 14-28 1.876-6.563-1.172-9.17-.24-9.223z"/></symbol><symbol id="idrape" viewBox="185 140 190 190"><path class="alpha" d="M268 150c-1 20.7 8 35.3 11.3 68.3 3 30-1 55.7 1.6 79 1.4 14-5.6 9-12.2 17.5-6.7 8.3-7.5 7.6-7.5 7.6 1-26.4 4.5-64.8 2-93.8-3.2-40-2.8-63.8 4.6-78.6z" style="fill:red;stroke:#a00;stroke-width:.5"/><path class="alpha--dark" d="M268 150c-7.5 14.8-8 38.7-4.6 78.6 2.4 29-1 67.4-2 93.8 0 0 .7.7 7.4-7.7 6.6-8.3 13.6-3.4 12-17.5-2.5-23.2 1.6-49-1.5-79-3.4-33-12.4-47.5-11.4-68.2zm2.3 26.3c3 11.6-1.4 33.5 0 49.7 0-20.4 2.5-24.6 3-37.3 0 5.5 7 27 5.6 68.6-.4 7.4-1.7 12.7-2 9-.2-3.7 0-31.3-.2-41.3-.3 8.4-3.2 22-3.5 17.5-.2-4.5-1.3-11.2 0-29.7-2.6 17.7-3 28.6-1.8 44.7-2.4-11.6-6-64.6-6-70.4 0-4.4 1.6-3.3 1.8-.7l1 14.8c1.6-11.7 1.3-18.2 2-24.7z" style="fill:#d40000;stroke:none;stroke-width:.5"/><path class="alpha" d="M295 147.4c2 24.6-10.7 54-12.5 83.4-1.8 28.8-4 56.4-4.8 63-2 14 7 2.4 18.5 22.5 5.3 9.3 7 5 7 5-1-21.7-2.7-55-2.4-80 .5-43.5 5.8-75-6-94z" style="fill:red;stroke:#a00;stroke-width:.5"/><path class="alpha--dark" d="M295 147.4c2 24.6-10.7 54-12.5 83.4-1.8 28.8-4 56.4-4.8 63-2 14 7 2.4 18.5 22.5 5.3 9.3 7 5 7 5-1-21.7-2.7-55-2.4-80 .5-43.5 6-75-6-94zm1.4 35c.6-.3 1.8 2.8 1.6 9.7-.3 9.4-3.5 44.4-3.2 59.7.3 15.4 1 53 4.5 59.6 3.4 6.6 1 6.6-1 2.7-2.2-4-4.8-20.7-5.6-69.2-.6 21-1.6 48.2-2.7 53.3-1 5-2.4.6-1.8-10.3.5-10.8 1.8-66.8 3.2-69.8 2.2-4.6 0-6-1-2.7-.7 2.4-.4 6-.4 7.3 0 4.3-4.7 71.2-5 75-.3 3.6-3 4.7-2-1 .7-5.4 4-57 3.3-68.2-1.3 9.8-1.8 26.2-2.4 29-.6 2.5-2 .4-1.6-3.3.2-3.6 1.3-28 4-40.2 2.6-12 4-18 4.4-22.5.6-4.5 2 4 2 7 1.2-3 1.2-5 1.5-7 .2 5.5.4 11 .3 15.3.4-9.2 1.5-20 1.5-23 0-.7.2-1.2.4-1.3z" style="fill:#d40000;stroke:none;stroke-width:.5"/></symbol><symbol id="ifake_knot" viewBox="185 120 190 190"><path class="alpha" d="M294.6 144s.6 13.2-.6 14.6c-1.3 1.5-8 9.8-12.3 13.5-4.3 3.8-1.4 6.8-.4 11.3 1 4.6.4 24.3-.6 30-1 6-2 20.7-1.5 23 .5 2.3 2 4.3 6.3 5.4 4.3 1 10.6 9.7 11.2 3.3.6-6.4 2-34.3-1.7-47-3.7-12.6-2.3-14.3-.2-15.7 2-1.5 11.3-17.3 8.5-27.2-1-3-5.5-9.4-8.7-11z" style="fill:red;stroke:#a00;stroke-width:.5"/><path class="alpha--dark" d="M294.6 144s.6 13.2-.6 14.6c-1.3 1.5-8 9.8-12.3 13.5-4.3 3.8-1.4 6.8-.4 11.3 1 4.6.4 24.3-.6 30-1 6-2 20.7-1.4 23 .4 2.3 1.8 4.3 6.2 5.4 4.3 1 10.5 9.7 11.2 3.3.4-4.6 1.3-20 .4-33.3-.4 23.6-3.7 18.2-4 13.5 0-3.4 0-8.3-1.3-13.2.3 7.5-1.2 22.2-1.7 23.6-.6 1.3-5 .2-7.6-1 2 2 5.3 3 7.5 3.5-2 .8-4 .2-7.7-1.4.4 1 .6 1.4 2.4 2.2-1.5 0-2 .7-3.2-.8-1.4-1.5 0-22.5.8-27.5.6-5 2-25 3.5-23.6 1.6 1.4 3 20 2 29.8.6-2 3-19.3 3.7-24.2 1 4.2 4.4 12.6 5.5 17.2-.4-4.5-1-8.6-2-11.7-3.7-12.6-2.3-14.3-.2-15.7 2-1.5 11.3-17.3 8.5-27.2-1-3-5.5-9.4-8.7-11zm2.8 5.8c1.4 1.3.4 5.7 0 7.3 1.3-1.5 2.2-3 2.4-4 1.4 2.7-2.2 13-3.7 15.6 3.3-5.2 5.2-9 6-11.5 1.5 5.5-.7 11.6-3.3 16.8-1 1.7-3.6 1.6-6 1-2.4-.8.5-2.3 1-4-.8.6-1.8 1-2.5 1.2.5-1 1-2 1.2-2.8-1 .8-3.3 2.8-4.5 2.6-1.6-.2-2.5-.8-1-2 1.3-1.4 6-7.8 7.8-10.5 2-3 2.4-8.5 2.6-9.5z" style="fill:#d40000;stroke:none"/><path class="alpha" d="M276 166.3c-3.8 8-4.4 67.5-4.4 72 0 4.6 1.6 2.8 4 1.7 2.2-1 6-1.6 7.8-2 2 0 3-1 2.3-4.2-.6-3.3-3-59.2-4.4-63-1.2-3.7-5.4-4.5-5.4-4.5z" style="fill:red;stroke:#a00;stroke-width:.5"/><path class="alpha--dark" d="M276 166.3c-3.8 8-4.4 67.5-4.4 72 0 4.6 1.6 2.8 4 1.7 2.2-1 6-1.7 7.8-2 1.8 0 3-1 2.3-4.2-.6-3.3-3-59.2-4.4-63-1.2-3.7-5.4-4.5-5.4-4.5zm.5 18c2.4-.4 4.7 5.6 4 15.6-1 10.5-2.5 18.2-3 21.6-1.2-4-2-10-2.3-11.8-.8 7.2-.3 13.8-1 16.5-.8 2.8-2-1.2-1.8-15.4 1-7.8 1.3-14 1.5-16.7 1.8 3.8 2.4 13.3 2.6 16.2 1.6-11.5-3.3-24.6-.6-26 0 0 .3 0 .5-.2z" style="fill:#d40000;stroke:none"/><path class="alpha" d="M298 179.3c-2.7 1-9.7-4.4-14.7-7.5-5-3-15.4-10.2-15.4-16.4 0-6.2.3-12 .3-12-8.3 5.8-10.4 15.7-7.5 22.4 3 6.6 16 14.7 21.4 16.4 5.4 1.7 9 6.4 11 4.6 2-2 5.5-4.6 4.8-7.5z" style="fill:red;stroke:#a00;stroke-width:.5"/><path class="alpha--dark" d="M268.3 143.3c-8.3 6-10.4 15.8-7.4 22.5 2.8 6.6 16 14.7 21.3 16.4 5.4 1.7 9 6.4 11 4.6 2-2 5.4-4.6 4.7-7.5-2.7 1-9.7-4.3-14.7-7.5-5-3-15.4-10-15.4-16.4 0-6.2.3-12 .3-12zM266 147c-1.4 1.5-3 5.5-3 9.2.3-1.6 2.4-6.6 3.4-6.4 1 0 0 4.7.4 7.8.6 3 4.4 5.6 4.3 6.5 0 1-2.6 1.3-3.7 1-1.2-.3-.3-3.3-1.2-6.3 0 1.6-2 7.7-4 3.4-2.3-4 0-11.8 4-15zm17.8 26.7h.2c1 .3 6.2 4.6 9 7.4-1-.8-3.2-1.8-8.6-4.7 1.8 1.2 7 5 6.6 5.7-.4.5-1.7.8-6-2 .7.8 3 3 6.7 5.4-2-.5-11.2-4.8-13.5-6.4-2-1.4 1.2-2.6 2-2.6s2.4 1.5 4.3 2.3c-.6-.6-2-2.4-2.7-3-.5-.3.8-1.8 1.8-2h.2z" style="fill:#d40000;stroke:none"/><path class="alpha" d="M284.6 169.4c-5.4-6-11.2-5.6-15.7-4.4-4.7 1.3-8.4.5-9.7-3 1.3 7.8 9 15.5 13 15 3.8-.7 6-2 7.8-3.6 1.7-1.7 4.6-4 4.6-4z" style="fill:red;stroke:#a00;stroke-width:.5"/><path class="alpha--dark" d="M259.3 162.2c1.3 7.6 9 15.3 13 14.7 3.8-.7 6-2 7.8-3.6 1.7-1.7 4.6-4 4.6-4-5.4-6-11.2-5.6-15.7-4.3-4.7 1.3-8.4.5-9.7-2.8zm14.8 3c2.5 0 4 1 7 2.8-1.7 1-5.8.7-11.2 1.2 3 .3 7 1.6 7.7 3 .6 1.2-2.6 3-6 2.4-2.6-.4-6.4-4.6-6.5-6.3 1.2 0 3-.2 4-.7-1.8.2-4.6-1.4-4.6-2 1.5 1 3.7 1 7 0 1 0 2-.3 2.7-.3z" style="fill:#d40000;stroke:none"/></symbol><symbol id="ifour_in_hand" viewBox="185 120 190 190"><path class="alpha" d="M292.6 172.5c-5.6-.2-17-4.5-21.4-10-4.3-5.2-3.7-8.3-4-10.4v-8.5c-7 .4-12.5 5.3-10 9.6 2.5 4.5-4.3 4.5-.2 9.6 4 5.2 30.7 30.7 35.6 10z" style="fill:red;stroke:#a00;stroke-width:.5"/><path class="alpha--dark" d="M267 143.4c-6.7.5-12.3 5.4-9.8 9.7 2.5 4.5-4.3 4.5-.2 9.6 4 5.2 30.7 30.7 35.6 10-5.6-.3-17-4.6-21.4-10-1-1.3-1.8-2.4-2.3-3.4-3-3-3-.8-2.7 0 .4 1.3-2.5.7-1.6 1.5 1 .8 3 .4 4.2 2 1 1.6 1.6 2.5 4.8 6.3 0 0-4.4-2-7.7-4 2.5 2.4 4.2 3 8 5.7-1.8 0-7-2.3-9.5-4.3-2.3-2-1.4-4.7-3.7-7-2.4-2 .4-5-.2-7-1.2-4 3.3-6.6 4.7-7.2-.6 2-.4 7.5.6 9.6.4 1.2 1.4 2.4 2.7 4-1.5-3-1.3-5.2-1.4-6.7-.2-2-.2-8.6-.2-8.6z" style="fill:#d40000;stroke:none"/><path class="alpha" d="m294.3 141.7 1 13.7s-11.8 11-18.8 14.6c-7 3.5-12.5 4.2-13 17.8-.2 13.6-.2 25-1.3 39.8-1 14.6-.7 40.8 2.5 46.4 3 5.6 10.5-.7 14.6-2 4.2-1.5 10.5-1 9-8-1.3-7-11-39.6-12-56s0-22.7 4-27.2c3.7-4.6 6-5 8.4-8.7 4-6 9-11 14.2-18.2 1.7-2.6.6-5.6 0-6.6-1-2-2-5.4-8.7-5.5z" style="fill:red;stroke:#a00;stroke-width:.5"/><path class="alpha--dark" d="m294.4 141.8 1 13.6s-12 11-18.8 14.6c-2.4 1.2-4.7 2-6.6 3.2 8.5-1.8 21.5-12 25.2-16.8 3.7-5 .2-7.5.2-7.5 1.4-.3 2.3.5 3 1.5 0-2-.7-3.7-3.2-5.5 4.7.8 5.7 5 2.5 9.2-3 4-6.4 8-7.4 9 3.3-3 6.7-6.8 6.7-6.8s-2.4 4-3.4 5.3l7.5-8c-3.5 4.8-9 11-11 14-2 2.8-7.4 6.6-9.2 8.4 1 .6 2 1 3 1.2 1.8-1.6 3.3-2.6 5-5 4-6.3 9-11.3 14-18.4 2-2.6.8-5.6.2-6.6-1-2-2-5.4-8.6-5.4zm3.3 2.4c4 .6 4.2 2.8 4.2 5-.7-1.6-2.3-3.8-4.3-5z" style="fill:#d40000;stroke:none"/><path class="alpha--dark" d="M263.6 187.8c-.2 9.6-.3 18-.7 27.5 1-7.6 2.8-14.2 3-16.2.2-2.6 1.7-4 2.2-1 .4 3 .2 19.2 3 38 .6-8.6 1.7-34.2 1.7-38 0-3.8 1-6.2 1.6-3.5.7 2.6 0 9.5 0 17 0 2.2 2 4.4 2.5 8 1 4.8-1.4 10.5.8 15.3 1.7 4 3.8 7.8 2.6 10.7-1 3-2.3 2.6-3.3 9-.4 3-2.2 1.2-2-1 0-4.5-.7-9.2-.6-17.2 0 3.6-2 11.4-3 14.5-.8 3.2-2.6 7.4-3.2 3.2-.7-4.3-1.6-9.8-3.4-23.7-.6 2.7 1 21 1 24.3 0 3.4-1.8 5.8-2.5 1-.5-4-1.2-15-1.2-24.7-.7 14.8-.2 37.8 2.7 43 3 5.6 10.4-.7 14.6-2 4.2-1.5 10.5-1 9-8-1.3-7-11-39.6-12-56-1.2-16.4 0-22.7 4-27.2-2.2-2.4-15.4-23.7-16.7 7z" style="fill:#d40000;stroke:none"/><path class="alpha" d="M303.7 149.6c6.4.2 5.4 6.8 5.6 9.7.2 3 .6 5 2.4 7.2 2 2.3-1 10.5-5.5 15-4.5 4.6-8.5 6-14 5.8-5.6-.2 6.4 77.6 3.7 93.5-2.8 15.8-6 12-10 11s-6.8-2.6-12.8-1.7c-6 1-5.7-2.2-4.7-4.5 1-2.2 3.5-34.8 2.7-63.2-.8-28.4 15.2-45.5 18-51 3-5.6 11.6-14.2 13-16 1.5-2 2-4 1.5-5.7z" style="fill:red;stroke:#a00;stroke-width:.5"/><path class="alpha--dark" d="m291.3 168-2 3.3c-3 5.5-19 22.6-18 51v7l1 9.7c.3 11.7 2.7 42.8 1.5 44.4-1.2 1.5-.4 2.3 1.6 2.7 2 .5 5.5-.3 7.4.5 2 .8 4.7 3.5 9 1.2-2 .8-3 4-7.4 1.5-4.3-2.3-10.3-2.3-11.8-1-1.6 1-4.3.7-2.4-1.3 1.8-2 2.3-17.2.6-29.4 0 2.3-.2 4.6-.3 6.8l.5 19.4c-1 .7-2 1.6-2.8 2.5-.7 2.2-.2 4.5 5 3.7 6-.8 9 .7 12.8 1.7 4 1 7.2 5 10-11 1-7-.6-26.5-2.4-46 .6 14.8.8 32-2 44.7-.5-10.2-2-31-2-40-1 7.8-8 28.6-7.2 22 .8-6.7-4-28.4-3.5-33.5.3-5.2 2.6-13.4 2.6-18 0-5 3.2-4 3.6-1.3.4 2.7-1.6 6.3-2.4 9.8-.8 3.5 2.8 6.7 3.2 1.6.4-5 2.3-6.2 3 10.3 0-2.7-1.5-22.4-1.5-28 0-1.8 1.3-3.5 3.2-5.4 0-6 .3-9.7 1.5-9.7 4.6.2 8-.8 11.7-3.7-6 3-11.8 0-4.7-8.7-7.3 5.4-13.3 3-8-7z" style="fill:#d40000;stroke:none"/><path class="alpha" d="M297.7 187c.5 3.6-2.2 9-5.7 9.8-3.5.8-9-1.5-15.7-5.2-6.8-3.7-8.6-4-12-5.3-3.6-1.2-7.5-5.4-11.4-12.6-4-7.2-3.8-9.2-2.8-11 1-1.5 2.7-3.4 3-5.4 0-2.3 2.3-5.4 3.6-5 1.8 2.5 1.8 3 .4 5.6-1.5 2.3 1 4.6 4.5 7.7 3.5 3 8.3 4.3 13.4 6.8 5.2 2.5 15.7 13.2 18.2 14.5 1.7 1 3.6.4 4.5 0z" style="fill:red;stroke:#a00;stroke-width:.5"/><path class="alpha--dark" d="M303.7 149.6c.4 1.7 0 3.7-1.4 5.6-1 1.4-6 6.3-9.6 11v.2c6.2-4.7 11.3-11.4 12.5-13-1 4.4-3.5 6-5.7 8.7 3.4-2.3 5.3-5.4 6.7-6.8-1.4 4.7-3.7 7.5-6 10.2-2.4 2.8 2 2 2.4 1l2.8-5c-.2 4.6-1.4 9.7-3 12 4.4-3.3 3 1 1.8 2 4.3-.5-1 4-2.3 5.2 4.2-1.4 6.4-5.5 7.2-6.7-1 3.6-2.6 6-3.8 8.3l.8-.8c4.5-4.5 7.4-12.7 5.5-15-1.8-2.2-2.2-4.3-2.4-7.2-.2-3 .8-9.4-5.6-9.7zm-47.2 2.7c-1.2 0-3.2 2.8-3.4 5 0 2-1.8 4-2.8 5.5-1 1.7-1.2 3.7 2.7 11 3.8 7 7.7 11.3 11.2 12.5 3.5 1.2 5.3 1.6 12 5.3 7 3.7 12.3 6 15.8 5.2 1.8-.4 6.5-5 5.7-9.8-.4.3-1.4 1.3-3 1.2-2.2 0-3.3-1-5.8-1.5 3 1.7 2.4 2 3 4.3.6 2.3-6 4-10 3-4-.7-5.3-4.4-5-7.7-5 3.3-8.5.6-14.2-2.4-5.7-3-11.5-15.8-11.8-17.2-.4-1.4 1.2-6 3.3-6.7-.4 4 1.6 10.5 3.6 13.7-1.2-2.6-.6-8.5 1-10.6-2-1.8-2.8-3.4-1.8-5 1.4-2.6 1.4-3.2-.4-5.7h-.3z" style="fill:#d40000;stroke:none"/><path class="alpha" d="M287.6 173.7c-3 5-7.6 9.7-11 13.6-3.6 4-7.5 4-11-.4 4 2 5.8 1 9-2.8 3.4-3.7 6.3-7.4 8-9.4 1.6-2 4-1 5-1z" style="fill:red;stroke:#a00;stroke-width:.5"/></symbol><symbol id="ionce_around" viewBox="185 120 190 190"><path class="alpha" d="M298 156.6c9.2 2.4 12.6 15 11.6 23.4-1 8.6.2 59 0 66-4.5.6-10.8 1-15.3-2.5-4.2-3.3-6.6-8-7.3-10 .7-14.4.3-35.4 0-41.3 6.2-7.3 12.2-20 11-35.6z" style="fill:red;stroke:#a00;stroke-width:.5"/><path class="alpha--dark" d="M306.5 163.6c.3 15.6.8 16.7 2 20.4 1 4 .3 7-1.7 11s1.2 25.2-.4 31.8c-1.6 6.7-3 1.2-3-2l.3-41.6c-1.6 19.7-3.2 38-3.6 41-.3 2.7-1.5.3-1.5-2.8 0-3.2.4-32-.4-35-1.8 14.5-2.6 35.8-2.2 38.5-1.6-9.5-2.4-24-2-30-1.2 11-2 32.2-1.6 37.7.4 5.5-2.7-1-3-5.5-.5-4 .5-19.2-2-31.8.2 8.4.4 25.6-.2 38 .7 2 3 7 7.3 10 4.5 3.6 10.8 3.2 15.3 2.5.2-7-1-57.4 0-66 .6-5-.4-11.5-3-16.4z" style="fill:#d40000;stroke:none"/><path class="alpha" d="M258.7 152c-7.3 7.4-9.8 27.3-9.8 42.6 0 4.3-3.5 44-5.5 46.7-1.7 2.2-.4 2.7 3.7 3.6 13.4 3 14.6-14 28.6-11 .3-9.7-6.6-35.2-6.3-50.5.4-15.4-3-30.4-10.8-31.4z" style="fill:red;stroke:#a00;stroke-width:.5"/><path class="alpha--dark" d="M258.7 152c-7.3 7.4-9.8 27.3-9.8 42.6 0 4.3-3.5 44-5.5 46.7-1.7 2.2-.4 2.7 3.7 3.6 13.4 3 14.6-14 28.6-11 .2-5.5-2-16-3.8-27-.3-.2-.6-.3-1-.3-.4 6.6 1.8 12.8 0 19.2-.7-4-.4-11.5-6-16.6 3.4 5.6 1.4 10.6 1 9-.7-1.7-1-3.4-4-5.6 2 3 4 10.3 3.3 13-.5 2.8-2.2 7-2.8 4.2-.5-2.8-.5-10.5-3-17.2 0 1.6.5 10.8 0 14.4-.6 3.7-5 7.3-6 2.8-1.2-4.4-2-11.4-1.5-20.8-.8 6-2 16.7-2 19 0 2-1.6 5.7-2 2.4-.2-3.4-.2-16.4 1.2-33.4s4-32.5 6.4-38c1.3-3 3.3-4.5 2 1.3-1.4 6-4.8 31.7-4 53 .6-4.6 2.3-33 2.8-36.3.6-3.3 2.5-5.3 2.8-2.5.3 2.8 1.4 7.8.3 17 1-6.4 2.8-10.6 4-22.8 0 3.5-1.5 19.3-2.3 31.8.8-3 5.5-12 8.4-12.6v-4.7c0-4.3-.2-8.5-.7-12.5-.5-2-1-4.3-1.3-6.6-1.8-6.8-4.7-11.7-9-12.3z" style="fill:#d40000;stroke:none"/><path class="alpha" d="M295 144c0 6.7 1 26.2-.7 29.7-1.8 3.5-5.6 13.6-11.5 16-7-5.5-14.3-23-14.7-32V142c-8 2-10.4 11.8-10.4 16 0 4.2 3.5 15 2.5 22.7-1 8 10 42.6 23.5 29.6 3.8-3.6 14.3-9.5 17-12.5 4-4.2 8.4-19.2 7.7-27.6-.7-10.2-5.4-27.3-13.2-26.2z" style="fill:red;stroke:#a00;stroke-width:.5"/><path class="alpha--dark" d="M268 142c-8 2-10.4 11.8-10.4 16 0 4.2 3.6 15 2.5 22.7-1 8 10 42.6 23.5 29.6 3.8-3.6 14.3-9.5 17-12.5 4-4.2 8.4-19.2 7.8-27.6-.8-10.2-5.5-27.3-13.3-26.2v1.4c7 1.4 7.2 11.5 5.8 14-1.4 3-1 7-2.2 17.3 1.4-3 2-8 2.5-9 .4 4.5.7 8.4-2 12-3 3.7.4 9.7-.7 13.6-1 4-5.6 5.3-12.6 11 2.8-1.5 8.4-4 12.3-6-3 3-12.6 8.5-16.8 13-4.2 4.5-15.2-8.5-19.2-22.5 2.3 5 7.7 11.2 17.8 18.8-3.7-2.8-15.5-20.2-16-28-.6-8-3.4-8-3-18.7 1 1.3 4 15.7 7.7 23-3.3-14.3-4.2-26.7-6-32-1.4-5 1.6-6.8 5.6-8.8V142zm-7.3 7.4.8 7.6c-.6-1.4-2.8-4.5-.8-7.6z" style="fill:#d40000;stroke:none"/><path class="alpha" d="M286.5 195.8s-1.3-4-3.8-6" style="fill:red;stroke:#a00;stroke-width:.5"/></symbol><symbol id="ioverhand" viewBox="185 120 190 190"><path class="alpha" d="M280 204c-2.4 8-4.3 52-3.8 58.4.5 6.2-3 4.6-7 3.8-4-.7-6-3-11.4 1.5-5.3 4.3-5-2-4.6-4.6.2-2.6 2.4-30.4 8.2-51 5.8-20.6 11.6-29.8 7.3-38.3 20.8-5.7 14.4 19 11.4 30.3z" style="fill:red;stroke:#a00;stroke-width:.5"/><path class="alpha--dark" d="M273.8 173c-1.5 0-3.2.2-5 .7 4.2 8.5-1.6 17.7-7.4 38.3-5.8 20.6-8 48.4-8.2 51-.3 2.7-.7 9 4.6 4.7 5.3-4.4 7.3-2.2 11.4-1.5 4 .8 7.5 2.4 7-3.8-.5-6.3 1.4-50.4 4-58.4 2.7-10.3 8-31.5-6.4-31zm-2.4 27c1-.6 2.7 9 3.2 12.3.5 3.8 0 31.4-.8 35.5-.8 4-3.8-6.6-5.2-16-.5 9-.5 13-2 16.5-1.3 3.6-1.5-.6-2-3.8-.6-3.3 1.3-11.5 1.5-14.2.4-2.7 0-9.8-.4-11.8-.5-2-1.4-5.4-.5-8-2 6.4-.8 14-2 20.6-1 6.7-1.5 17.6-2.3 21.7-.8 4-1.6-9-.3-13-1.6 1.5-2.2 5.6-3 7.8-.8 2-.5-3 .3-6.3s4.4-26.2 6.5-34.4c2.2-8.2 3-2 2 10 .8-.2 2-3.7 2-3.7.7 3.4 1.2 11.3 2 19.7 1.4-9.5.3-25.6.8-31.3 0-1 .3-1.4.4-1.5z" style="fill:#d40000;stroke:none"/><path class="alpha" d="M267.7 143.2c-.7 8.7 4.3 18.7 13 20.6 3.2.7 12.6-10 13.7-12 1.2-1.8.7-8.6.7-8.6 3.5 1.5 4.4 4.4 4.2 7.3-.2 3 .7 4.8 3.2 6.3 2.4 1.4-.3 13.7-5.6 22.5-8 13-18.6 4-24 0-5.8-4.2-16.3-16.8-9.7-24.8 2.4-2.8-.4-9 4.7-11.3z" style="fill:red;stroke:#a00;stroke-width:.5"/><path class="alpha--dark" d="M267.7 143.2c-5 2.2-2.3 8.5-4.6 11.3-6.5 8 4 20.6 9.8 24.8 5.4 4 16 13 24 0 5.3-8.8 8-21 5.6-22.5-2.5-1.5-3.4-3.4-3.2-6.3.2-3-.7-5.8-4-7.3 0 0 .4 6.8-.8 8.7-1 1.7-10.5 12.5-13.8 11.8-8.6-2-13.6-12-13-20.6zm-.6 1.2c-1 8.7 2.4 12.8 7.2 17.2 5 4.4 1 18.7-3.3 14.5-4.3-4.2-.3-9.8-2.4-14-.6 2.7-1.3 6.2-3 5-1.4-1-5.3-5.8-1.6-11.6-2 9.3 2 9 2.5 7.8.4-1.2-1-4-1.7-6.6 1 .8 1.7 4 3.3 4.4-1.3-2.5-2.5-3.8-3-7.7 1.5 2.3 2 3 4 4.5 0 0-6.4-8.5-2-13.4zm29 1.2c2.7 3.7 2.2 7-1 10.2 2.6-1.7 4-2 4 1.2 0 3-4.7 2-4.7 4.4 0 2.5-.6 4-2.2 7-1.4 3 3.4 5.2 8.3 1-1.8 4.6-6.2 10.7-7.5 8.8-1.4-2-4-9.3-3.7-13 .3-3.6-.7-3.8-1.5 0-.3-4 .8-5.5 4-7.8 3-2.3 5.3-6.8 4.5-11.8z" style="fill:#d40000;stroke:none"/><path class="alpha" d="M287.6 159.2c-1.5 5 3.6 19.8 7 35.8 3.4 16 2.2 33.7-.7 40.2-3 6.6-3.8 4.6-4.5 2.7-.7-2-2-5.4-5 0-3.2 5.2-5.2 6-6.4 7.4-1 1.5-2.5-.2-2.8-4.6-.2-4.4-3.4-76.5-2.2-80 1.3-3.3 2.5-.4 5 0 2.3.6 3.3.6 5.7-1.6 2.4-2.2 2.7-1.2 4 0z" style="fill:red;stroke:#a00;stroke-width:.5"/><path class="alpha--dark" d="M285.7 158c-.5 0-1 .4-2 1.2-2.4 2.2-3.4 2.2-5.8 1.7-2.5-.6-3.7-3.5-5 0-1.2 3.3 2 75.4 2.2 79.8.3 4.4 1.7 6 3 4.6 1-1.5 3-2.2 6.2-7.5 3.2-5.4 4.4-2 5 0 .8 1.8 1.6 3.8 4.5-2.8 2.8-6.5 4-24.2.6-40.2l-2.2-9.5c1.3 6.6 2.5 16.3 2.8 29 .4 12.7-1.5 18.5-2.8 21.2-1.4 2.7-2.5 2-1.2-.2 1.4-2.3 1.4-28.7.6-36.7-.4 3-.6 26-.6 29.2 0 3.2-1.2 5.8-1.2 2.3s-2-35-4.2-45.5c1 9.2 2.7 38.2 1 47.2-.2-4.8-.2-12.3-1.4-15.8.6 2 1.2 14 0 16.6 0-4-2-6.6-4-6.2-2 .4-2.2 0-2.2-9.6-1 12.5-.7 21.4-1 24.5 0 3-1.3 3-2-.2-.4-3.3-.6-48.8-1.2-58.3-.6-9.4 6.6-14 8.7-3.8 0-6.2 1.3-9.3 1.5-1.2.6-5.6 1.4-7.7 1.4-.6 0 0 .2-5 2-7.2-1-5-1.6-9-1-11-.8-.8-1.2-1.4-2-1.3zm3.5 14.8c.6 5.8-2.6 8.4-1 17.4-.3-7.2 2.4-11 4-6l-3-11.4z" style="fill:#d40000;stroke:none"/></symbol><symbol id="iparisian_knot" viewBox="185 120 190 190"><path class="alpha" d="M257 166c.3 11.5 13 21.5 22.5 24 9.5 2.4-12.6-20.2-22.6-24z" style="fill:red;stroke:#a00;stroke-width:.5"/><path class="alpha--dark" d="M257 166c.3 11.5 13 21.5 22.5 24 9.5 2.4-12.6-20.2-22.6-24z" style="fill:#d40000;stroke:none"/><path class="alpha" d="M295.8 160c-3 4-15 13.6-18.8 29.3-4.7 20.4-11.5 65.7-11.5 72.8 0 7.2 4 1 12 5.2 8 4 11 4.5 11.7-.6.7-5 .7-46-1.4-63.2-2-17.3 11.4-35 8-43.4z" style="fill:red;stroke:#a00;stroke-width:.5"/><path class="alpha--dark" d="M295.7 160c-2.8 4-15 13.6-18.6 29.3-1.4 6.3-3 15-4.7 24.3 2.7-9.8 6.3-21 7-20.5 1.8 1.5-1 6.8 1 12.2 3.6 10 0 15.2 1.7 23 1 4.6.2 12.8-2 6.2-2.4-6.6-1.3-18.7-2.6-29 0 0-1.8 9.5-1.4 31.7.4 22.4-2.7 20.7-1.7-9-1.2 23-8.4 33-7 18-1 7.8-1.8 14-1.8 16 0 7.2 4 1 12 5.2 8 4 11 4.5 11.7-.6.7-5 .7-46-1.4-63.3-2-17.2 11.4-35 8-43.3z" style="fill:#d40000;stroke:none"/><path class="alpha" d="M295 149.3s.8 12 0 13c-.5 1-12 19.3-13 26.6-1 7.2 4.4 63 5.4 66.2 1 3.3 6 .6 11.6 2.2 5.5 1.7 13.6 2 13.4-4.2-.2-6-1-34.7-16.8-57.2-5.2-7.2 18.2-25 11.3-31.3-8-7.4-3.7-13.6-12-15.4z" style="fill:red;stroke:#a00;stroke-width:.5"/><path class="alpha--dark" d="M295 149.3s.7 12 0 13c0 .4-2.3 4-4.8 8.4v.5c4.4-5.5 8.7-6 12-9 0 1-1.3 2.5-4 5.5l5-4.4c-.5 1.4-3.5 5.6-7.6 9-4.2 3.2-.6 8 2 3.8 3-4 5-6.8 6.4-10.7 0 .8.6 2.6-1 6.3 1-1.4 3.2-3.7 3.6-5.5.8.3.6 3-1 6-1.6 3.2-11.2 10.8-12.4 12.8-1.2 2-1.8 8.6-1.6 13.7.2 5 3.8 15.4 10.8 22.2-1.3-2-6-11.8-7.4-15.7-1.6-4 .2-6.7 2-4.3 2 2.4 10 22.2 6.6 20.3.8 2 3.4 14 2 13s-4.5-2.4-10.8-17c2.2 9.8-3.8 17-3.8 15.3 0-1.7 1.6-12 .2-25.6.2 5.8-1.4 23-2 27-.5 4.7-3 4.5-2.3-.4.7-5 1-13.3.5-21.6-.2 4-.4 11.6-2 16.7 0-5.7-2.7-31.3-2.3-40.3 1.6 0 3.3-.3 7.6.3 0 0-3.3-4-6.5-6-1 2.5-2 5-2.2 6.6-1 7.2 4.4 63 5.4 66.2 1 3.2 6 .6 11.6 2.2 5.5 1.7 13.6 2 13.4-4.2-.2-6-1-34.7-16.8-57.2-5.2-7.2 18.2-25 11.3-31.3-8-7.4-3.7-13.6-12-15.4zm-4 55.7c0 .5 0 1 .2 1.5 0-.7 0-1.2-.2-1.5z" style="fill:#d40000;stroke:none"/><path class="alpha" d="M268 149.5v8c0 1 4 6.2 19.4 11.5 15.5 5.3 17 7.7 16 11.4-.7 3.6-6 11.6-9 13-2-6-5.6-6.5-14-6.7-8.2-.2-21.6-13.7-23.5-19.3-1.4-4 1.6-7 4-7.4 3.4-.6.6-9.5 7-10.5z" style="fill:red;stroke:#a00;stroke-width:.5"/><path class="alpha--dark" d="M268 149.5c-6.4 1-3.6 10-7 10.5-2.4.5-5.4 3.5-4 7.4 1.8 5.6 15.2 19 23.5 19.3 8.3.2 12 .6 14 6.7 3-1.4 8.2-9.4 9-13 .8-3.7-.6-6-16-11.4-6.8-2.3-11.4-4.6-14.5-6.6 5.5 5 20.3 10.4 22.6 12 2.4 1.6-1 5-2.5 5-1.6 0-2.2-2-9.2-.5 3 0 8.3.7 8.5 3.2.2 2.4-3 .4-8.7 1.4-5.7 1-12.6-1.6-17-5.8-4.2-4-7.3-8.6-5.6-8 1.6.6 1.8 1 1.4-.6-.4-1.7.6-3 2.7-2.7 2 .2 3.6-1.5 2.2-3-1.5-1.7-3.6-6-2.5-5 1 .8 2.6 3.5 6 5-6.6-5.2-7-9.6-5.8-10 .8-.3 1.8 0 3 2.3v-6.3z" style="fill:#d40000;stroke:none"/></symbol><symbol id="ireverse_drape" viewBox="185 120 190 190"><path class="alpha" d="M295 173c-9.3-.2-27.8-9.5-27.2-13.6.5-4 .5-13 .5-13-7 2-11.3 8.2-12.7 12-1.3 3.6 1.2 9 4 12 2.6 3 13.6 16.8 22.4 18.7 9 2 14-10 13-16z" style="fill:red;stroke:#a00;stroke-width:.5"/><path class="alpha--dark" d="M268.2 146.4c-7 2-11.2 8.3-12.6 12-1.3 3.6 1.2 9 4 12 2.6 3 13.6 16.8 22.5 18.7 9 2 14-10 13-16-6.7 0-18.2-5-24-9.3 3.8 3.8 11 7.7 13 8.4 3.2 1.5 1.5 2.8-.3 3.7-2.2 1-5.8.6-9-1.4 1.2 1.4 3.4 3 2.6 4.2 0 0-2.5 2.5-6.6.8-3-1-8-8-9.7-10-1.6-2-4.4-5.7-2.2-11.3.8 1.4 1.4 1.7 3 3-2.5-7.5 2-11 6.5-13v-1.5z" style="fill:#d40000;stroke:none"/><path class="alpha" d="M295.2 146.3s-.2 16.4-.6 18.5c-.4 2.2-2.7 14.5-24 16.6-7.5-6-13.2-13-14.2-15.6-1-2.7-.8-7.5-.8-7.5-2.7.2-3.5 3-3.6 4.4-4 1-5.3 2.5-5.5 7.5 0 5 3.5 9.3 9.7 16 6.2 6.4 12.3 11.6 18 12.4 5.5.8 17 .6 25.4-6.2 8.5-6.7 13-12.7 14.3-20.2 1-7.5-2-15.5-10.7-15.6 0-6-3.3-9.3-8-10.3z" style="fill:red;stroke:#a00;stroke-width:.5"/><path class="alpha--dark" d="M295.2 146.3s-.2 16.4-.6 18.6c-.2.8-.8 4-3.5 7.3v.4c2-1.7 4.5-5.6 4.8-11 .3-5.6 1-11 1.4-11.7.6-.5 2.5.3 3.3 2 .8 1.6-1.6 4.4-.8 10.5.5-3 .7-5.3 1.3-7.4 1.2-4.2 1.7 1 1.4 2.5-.4 2.2-2.7 6-4.7 14.3 1-1.6 4.5-6 5.3-10-.6 4 2.5 7.8 4 8.4 1.8.5 3.5 0 4-2.8 2.5 3.6.3 5.3-2 5-2.2-.3-4.3 2-5.4 4-1 1.8 0 5.4 2.7 3 2.8-2.6 5-4 4.2-1.8-.8 2-11.7 18.4-26.2 21 5-.7 10.6-2.4 15.3-6.2 8.5-6.7 13-12.7 14.3-20.2 1-7.6-2-15.5-10.7-15.7 0-6-3.3-9.2-8-10.2zm-39.6 12c-2.7.2-3.5 3-3.7 4.4-4 1-5.2 2.5-5.4 7.5 0 1 0 2.2.4 3.2.2-1.4 1.8-2 4.4-2.7-1.4-.2-6.7-2-1-5.8 2 2.2 2.3 4.6 5 6-3.8-9.3-2.4-10.6.2-11.2v-1.5zm-4 14c-.7 0-1.4 0-2.2.4 1.4.2 2.8.8 1.4 1-1 .3-2.7 1-3.5.8 1.4 3.4 4.5 7 9 11.6 6 6.6 12.2 11.8 17.8 12.6 1.7.2 4 .4 6.2.3-15.7-.5-30.8-22.5-29.7-23.3 1-.8 2.2-.3 3.3-1.7.8-1-.3-2-2.3-1.8z" style="fill:#d40000;stroke:none"/></symbol><symbol id="ireverse_drape_cross" viewBox="185 120 190 190"><path class="alpha" d="M292.6 202c-.4-6.5-4-19-5.7-21.2M270 231.5c-2.2-17.3-1.3-35.3-1.3-38" style="fill:red;stroke:#a00;stroke-width:.5"/><path class="alpha" d="M256.6 164c.4-3.7 1.8-7 .8-10.5-1-3.6.8-9.3 10-9l-.2 9.7c6.7 5.2 16 5.3 28 1.4v-14c5 1.2 7.8 4.2 8 9 .2 5 1 24.3-2 28.2-3 4-22.8 9.5-36.6 1.4-9.6-5.7-8-16.3-8-16.3z" style="fill:red;stroke:#a00;stroke-width:.5"/><path class="alpha--dark" d="M295 141.7v14c-3 1-6 1.7-8.8 2.2 5.3-.2 8-.2 11.2-1.2-2 2.3-3.8 3.8-10 7 5-1.3 9.6-3.6 12.8-8-2.8 6.7-7.8 8.4-10.3 12.4-1.7 2.6-1.3 7-2.6 9.6-.6 1.3-1.2.5-1-.5.4-1.8.7-4-.3-6 0 1 0 3.6-2 6.2 0-2 0-5.5-1.5-7.2 1 1.3.2 3 0 4.5-1.6-1.6-3.4-3.8-7.5-5 1.8 1.2 4 3 4.6 5.2-.3-1-4-3.2-7.6-3.7-3.5-.6-8.5-3-11.6-8.5 2.4 2 7.3 5 11.2 6-8.8-5.6-11.5-10.4-12.3-15.6.8.7 1.3 1.4 3 2.5-3.4-4.8-1.7-8.4 0-8.4 1.6 0 3.8 1 4 5.4-.7-2-3.5-3.6-2.2 0 1 2.6 5 4.4 10.7 5-2.8-.6-5.3-1.8-7.5-3.4l.2-10c-9.2 0-11 5.6-10 9.2 1 3.5-.4 6.8-.8 10.4 0 0-1.6 10.5 8 16.2 13.8 8 33.4 2.5 36.6-1.4 3-4 2.2-23.2 2-28-.2-5-3-8-8-9z" style="fill:#d40000;stroke:none"/><path class="alpha" d="M269 193.7c-10 2-9.4 14-9 19.2.2 5.3 1.2 22.3.2 33.3-1 11 3.2 32.8 3.2 36.6 0 3.7 1.2 3.7 2.2 1.8 1-2 3.4 1 7.5-1.6 4.2-2.5 5-4.7 9.6-3.8 4.7 1 2.2-11.4 2-15.4-2.6-33 .2-81.7-15.6-70.3z" style="fill:red;stroke:#a00;stroke-width:.5"/><path class="alpha--dark" d="M273 192c-1.2 0-2.5.6-4 1.7-10 2-9.4 14-9 19.2 0 3 .5 10.2.6 17.7.8-9 3-12.8 2-18-1.2-6 0-11.4 3.8-14.2-.3 1-.8 4.8-1 7.5-.4 3.2.7 7.3 2.7 1.4-.8 10.6-1 16.4 3 33.4.7-4.2-.7-29.2 1.8-37.3 1.7 3.7 4.5 26 3.3 41 0-1.8-1.5-7.6-3.5-11 1.2 5.3-.2 32-2.7 31-.3-2.3-1.3-6.4-1.7-8.7-.5-3.3-2.3-21.6-2.2-24.7.3-5-2-4.2-1.3-1.3.8 4 .2 17.6 1 26 .7 6-.2 15-1.3 11.2-1-3.4-3-16.7-3.7-26 0 2 0 3.7-.3 5.3-1 11 3.2 32.8 3.2 36.6 0 3.7 1.2 3.6 2.2 1.8 1-2 4.7 0 7.6-1.6 2.7-1.7 6.3-3.4 9-3 5 .7 2.6-9.7 2.3-16.2-1.4-28.7-.2-72.7-11.5-72z" style="fill:#d40000;stroke:none"/><path class="alpha" d="M289 185c-3.2-5.4.4-10 2.2-13.7 1.7-3.7 9-13 11-15.3 2-2.2 1-6 1-6 6.6 2 6.5 4.2 6.5 8.6 0 4.3.7 6 2.3 8.6 1.6 2.6.8 10.6-3 14.4-3.7 3.7-15 11.4-20 3.3z" style="fill:red;stroke:#a00;stroke-width:.5"/><path class="alpha--dark" d="M303.2 150s1 4-1 6c-2 2.2-9.3 11.6-11 15.3-1.8 3.8-5.4 8.3-2.2 13.6 5 8 16.3.3 20-3.4 3.8-3.8 4.6-11.8 3-14.4-1.6-2.5-2.4-4.3-2.4-8.6 0-4.4.3-6.7-6.4-8.5zm2 1.8h.4c2 1 2.7 3.4 2.4 5-.4 2.3-2 4.6-3.5 6.4 1.2-.8 3.3-1 4.2.6-2.8.4-2.8 5-2.8 8.3 0 3.5-2 7-5 7.4-3.2.2-3 1.3-1 2 2 .5 6 0 8.4-2.6 0 3.6-9.7 9.5-11 5.3-1.5-4 .2-7.4 2.7-12.7-7.5 10.5-6.3 1-4.3-3.6 1.6-3.6 5-8.6 7.7-12 1.2-1.6 1.3-3.7 2-4z" style="fill:#d40000;stroke:none"/><path class="alpha" d="M256.3 152.6c-1.4.2-4 3.8-4.4 6.4-.3 1-.6 2.7-2 3.7s-1 6.3.5 9.2c3.4 6.2 8 19 20 24.2 11.5 4.7 10.5-10.4 9-18-1.6-7.5-8.6-3.4-15.2-8.8-6.6-5.3-7.2-8-7-10.7.4-2.8 1-6.2-1-6z" style="fill:red;stroke:#a00;stroke-width:.5"/><path class="alpha--dark" d="M256.3 152.7c-1.4 0-4 3.6-4.4 6.3-.3 1-.6 2.7-2 3.6-1.5 1.2-1 6.4.5 9.3 3.4 6.2 8 19 20 24.2 11.5 4.7 10.5-10.4 9-18-1.6-7.5-8.6-3.4-15.2-8.8-6.6-5.3-7.2-8-7-10.7.4-2.8 1-6.2-1-6zm-1.8 4.4c1.4 9 11 14.3 14.4 15 3.2 1 .2 2.4-2 2.4 4.4 1.8 7 3.8 8.2 6-2.3-1-6.4-2-8.8-1.6 6.7 2.8 6 7.8 5.3 9-4.5-1-6-2.2-9.5-6 1.8 3 2.8 6.7 8.6 6.7 0 2-1.6 2.5-3 2.5 3.6 4.2 7 3.4 9 3.6-11.5 2.8-19.3-10.5-21.5-15.2-2.2-4.8-3.6-10.3-3-14.5 1 5.2 3.8 10.8 6 12.4-5-9.7-4.4-16.7-3.8-20.3z" style="fill:#d40000;stroke:none"/><path class="alpha" d="M287 180.5c5.6-4.7 10 3.8 10.5 10.3.7 6.4 1.8 62.8.7 73.5-1 10.7-6.2 7.3-12.3 5.8-6-1.5-8.5 1-13 0-4.4-.8-.2-5.5.7-15 1-9.6 4.2-43 3.3-58.2-1-15.2 5.4-20.5 10-16.3z" style="fill:red;stroke:#a00;stroke-width:.5"/><path class="alpha--dark" d="M283.4 179c-3.7.5-7 6.4-6.4 17.8 1 15-2.4 48.5-3.3 58-1 9.7-5.2 14.4-.7 15.3 4.5 1 7-1.5 13 0 6 1.6 11 5 12.2-5.7.3-3.2.5-10.7.5-19.5-1 9-1.5 18.6-2.3 21-.8 2.8-2.5-3-2.2-6 .3-3.2 2.8-18.7-.3-35 1 13-3.7 33-5.4 36.5-1.6 3.7-3.3-19-4.4-24.7.6 11-.3 21-.6 23.4-.2 2.2-1-1-1.3-4-.3-3-2.3-17.4-2.5-21.6 0 13.3-.3 22.2-1.2 26-.8 4-2.5 2-2.2-3.2.3-5.3 1.7-26 1.7-32.3 0-6.4.6-17 1.8-26.2.7-6 5.5-12.2 6.3 2.2.7 10.3.7 30.6.7 35.6.8-19.7.8-39 1.7-41.7 1.4 3.3 2.7 21 2.5 31.6.7-8.3.7-15.3.7-18.6 0-3.4 3.4 3.3 4.2 15.3.7-12.5-.7-27.6-1.8-31.4 2.2 3.4 2.8 9.7 4 17.3-.2-9-.5-16.5-.7-18.6-.6-6.4-5-15-10.5-10.2-1-1-2.4-1.5-3.6-1.4z" style="fill:#d40000;stroke:none"/></symbol><symbol id="ireverse_drape_tuck" viewBox="185 120 190 190"><path class="alpha" d="M284.4 174.2c.8 15.3-3.5 61.5-1 92 .6 7-3.5 3-4.5 1.7-2-2.7-7.5-2.2-11.5-3-2.5-.7-5-.4-5-4.8-.3-31.3 6.7-61 8-89 3-.8 11.5 1.3 14 3z" style="fill:red;stroke:#a00;stroke-width:.5"/><path class="alpha--dark" d="M271.4 171c-.3 0-.7 0-1 .2-1.2 28-8.2 57.7-8 89 0 4.4 2.6 4 5 4.7 4 .8 9.5.3 11.5 3 1 1.2 5 5.2 4.4-2-2.5-30.3 1.8-76.6 1-91.8-1.5-1-5-2.2-8.5-2.8.5 2 1 4.7 1.6 8.3 1.6 8.8-1 24.5 0 33 1 8.6 3.4 28 2.2 34.2-1.2 6-2.6 14.5-.6 16.4 2 2 4 4 3.4 5-.6.7.3 1.5-5.3-3-5.7-4.5-9.3.6-13.8-3 3.4 1.3 8.2.2 8-1.2-.4-1.4-.4-10.3-3.3-26.7-4.4-24.4 4.3-40 3.2-63.5z" style="fill:#d40000;stroke:none"/><path class="alpha" d="M274.4 184c-2 11.7-7.6 25.2-2.4 59.8-2-21.7-2-32.4 1.8-42.6 3-7.6 2.2-14 .6-17.3z" style="fill:#d40000;stroke:none"/><path class="alpha" d="M283.8 172.6c-.8 15.2-6.5 48.4-6.5 61 0 12.6 3.5 5.5 4.7 4.4 1.2-1 10.4-2.2 13.8.5 3.5 2.6 5.3-.3 4.5-4.5-.8-4.3.8-25.6-5.7-62.8-3.2-.8-8.4-.3-10.8 1.4z" style="fill:red;stroke:#a00;stroke-width:.5"/><path class="alpha--dark" d="M296 233.8c-3.3-4.6 2.8-8.8-2.3-32.8-2.3-10.7-6.8-27.2-6.8-27.2 2.5 15 5.6 23.4 6.5 37.2.7 10.4.5 20.7-.4 20.7-.3 0-2.5.3-3.7 1 3 .3 5.2 0 6.8 1z" style="fill:#d40000;stroke:none"/><path class="alpha--dark" d="M294.6 171.4c-.7 3-2 5-3.3 7 4 2.7 6.2 18.2 6 30.2-.4 12 2 21.4 1.5 22.4s-1.3 1-2.3.6c1 2.8 3 3.2 2 5.3-.7 2-1.4.6-4.6-1-3.4-1.5-7.2-1-10.7-.5-3.5.4-3.4-.4-2.5-5.4.8-4.8 3-19.8 2.8-29.7 0-8.7.8-21.5 1.2-28.3l-1 .6c-.8 15.2-6.5 48.4-6.5 61 0 12.6 3.5 5.5 4.7 4.4 1.2-1 10.4-2.2 13.8.5 3.5 2.6 5.3-.2 4.5-4.5-.8-4.3.8-25.5-5.7-62.6z" style="fill:#d40000;stroke:none"/><path class="alpha" d="M295 147.8s.8 13.6-1.4 14.6c-2.3 1-12.4 1.4-20 3.3-7.5 1.8-5.6-21.4-5.6-21.4-4.3 0-6 2.7-6 5.5-.3 2.8-.8 20.5 0 23.2.5 2.6 5 7 9 7.7 4 .6 21.4.2 24.4-1.2s8.5-6 8-15c-.3-9-.7-14.5-8.4-16.7z" style="fill:red;stroke:#a00;stroke-width:.5"/><path class="alpha--dark" d="M268 144.3c-4.3 0-6 2.6-6 5.5-.4 2.8-.8 20.5 0 23.2.5 2.6 5 7 9 7.7 4 .6 21.4.2 24.4-1.2s8.6-6 8.2-15c-.5-9-1-14.5-8.6-16.7 0 0 .8 13.6-1.4 14.6-2.3 1-12.4 1.4-20 3.3-7.5 1.8-5.6-21.4-5.6-21.4zm19.3 20c.8-.2.8.3-.5 2 1.2-.7 4.7-1.7 6-1 1 1-2 4.8-5.6 3.4-3.5-1.3-4.5.2-3 1.2 1.2 1 8.7 2.3 10.7 0 1.8-2 4.8-1.8 5.2 0 .4 2-3.2 6.6-6 8.4-3 1.8-16.8 2-23 .4-4.7-1.3-6-5.3 5.8-6-5-1-7-1.7-7-3.3 0-1.5 6.2-4 12.7-4.5 2-.2 3.8-.8 4.6-.8z" style="fill:#d40000;stroke:none"/><path class="alpha" d="M281 164.2c-3.3-7-7-9.7-11.8-12.2-5-2.4-5.7-2.8-6-6-3.2.5-5 3.6-5 5.6 0 2 .8 7.8-.2 10.4-1 2.6.8 7.3 4 6.7 3-.6 10.6-3.4 19-4.5zm3-.4c3-7 6.7-10.5 9.6-11.2 2.8-.6 7-1.2 8-.4 1.3 1.5 3.8 6.8 1.7 14-.2-.7-1.6-2.2-3.2-2.8-1.6-.6-9-.2-16 .4z" style="fill:red;stroke:#a00;stroke-width:.5"/><path class="alpha--dark" d="M263 146.2c-3 .4-4.8 3.4-4.8 5.4 0 2 .8 7.8-.2 10.4-1 2.6.8 7.3 4 6.7 1.5-.3 4.5-1.3 8.3-2.3-2.6 0-4.6 0-6.7-.2-4-.4-4.3-1.8.6-2.8-3.3-5-4.5-8.6-3-8.8 1.6-.2 3.2-.2 5.2-1-5.5.2-6-1.2-5.4-3 .4 1.8 1.6 1 2.8 1.4-1.2-.5-2.2-2.5-2.2-3.5 2 2.4 7.3 4.3 9 5 1.5 1 .8 3 3.2 4 5.5 2-2.5 3-5 4.2 6.4-1 8.2.4 9.6 1-3.2 0-6.3 2-8.5 2.3 4-.6 5-.5 6.7 0l4.3-.8c-3.3-7-7-9.7-11.8-12.2-5-2.4-5.7-2.8-6-5.8zm36.4 5.8h-.7c2.2 0 3.6 1 2.3 2.8-2 2.5-6.2 1.6-9 4 4.6-1.5 11 1 10 2-.7 1-6.6-1-10 .5-3.2 1.3-4 .6-2.5-1.4 1.6-2 4.2-5.2 6.3-6-5.5 1.8-7.2 3.7-9.2 7 2.8-5.3 5-7.5 8.2-8.6l-1.2.3c-3 .6-6.7 4.2-9.6 11 7-.5 14.3-1 16-.3 1.7.6 3 2 3.3 3 2-7.5-.4-12.7-1.6-14.2-.4-.3-1.2-.4-2.3-.3z" style="fill:#d40000;stroke:none"/></symbol><symbol id="itwice_around" viewBox="185 120 190 190"><path class="alpha" d="M305.6 158.4c1.3 7.2 4 14.5 3 22.8-1 8.4 2.2 31.8 2 38.7-9.8 2.6-14-1.5-16.6-6-2.7-4.3-4.4-3.6-5-5.7.6-14 3-27.8 2.7-33.6 6-7 11.8-12.2 14-16.3z" style="fill:red;stroke:#a00;stroke-width:.5"/><path class="alpha--dark" d="M306 160c-4.2 7.8 0 18.8 1 20.4 1 1.6.5 12.8 1 19.7.6 7 2 16.2.4 18-1.7 2-2.5-7.8-3-10.8-.6-3 1.3-29.3-1.7-32-3-2.7-2.2 9.6-.5 10.4 1.6.8 1.6 3 .2 3-1.3 0-3-1.3-4.6-.3-1.6 1-.6 13 .5 15 1 2.3 3-1.6 2.2-4-.8-2.5-1.6-8 .6-8.5 2.3-.5-.5 13.4 1 14 1.3.5 1.3-5.3 1.6-7.5.5 5.2-.3 12-2 13.7-1.6 1.7-6.5-6.8-6.8-9.3-.3-2.4 1-12-.8-15 .3 6.3-2.5 14-2 17 .6 3 3 6.8 5.5 9s.3 2.4-2 .8c-2-1.7-4.8-7-5.6-9.6-.6-1.4-1-3.5-1.3-5.6l-.8 10c.6 2 2.3 1.3 5 5.7 2.7 4.5 6.8 8.6 16.7 6 0-7-3-30.4-2-38.8.8-7.6-1.4-14.5-2.8-21z" style="fill:#d40000;stroke:none"/><path class="alpha" d="M267 156.7c6 11 20 17.7 30-.6 2.5 12.3-2.6 30.6-15.2 30.6-12.5 0-14.2-12.6-15-30z" style="fill:red;stroke:#a00;stroke-width:.5"/><path class="alpha--dark" d="M297 156c-3.4 6.4-7.4 9.7-11.3 11 1.6 0 3.3 0 7.2-2.6-1.2 2.2-2 4-8.3 10.3 2-2.5 2.2-3.8 3.8-6.5-5 5-7 5.4-11 2 0 0 .7 2.3 2.6 4-2.3-1-4.7-2.2-12.6-9.4 1 13 4 21.8 14.4 21.8 12.6 0 17.7-18.3 15.3-30.5z" style="fill:#d40000;stroke:none"/><path class="alpha" d="M259 154c-7 7.2-5.7 14-5.4 19.7.4 5.8-4.7 26.5-3.3 29.2 1.3 2.6 12.5 12 21 12 .3-9.4-2-15.5-1.7-30.4.3-15-3-29.6-10.5-30.6z" style="fill:red;stroke:#a00;stroke-width:.5"/><path class="alpha--dark" d="M259 154c-7 7.2-5.7 14-5.3 19.7.3 5.8-4.8 26.5-3.4 29.2 1.3 2.6 12.5 12 21 12 .3-9-1.8-15-1.8-28.3-2 6.8-1.3 11.5-.5 17 1 7.6-3.7 1-3.6-2.5 0-3 .3-7 1-9.3.4-2.6-3.3-3.7-3-1.2 1 5.2-.7 7.4-1.8 8.2-1 .8-1.8-3.5-1.3-6.3.2-2-.5-4.7-1.7-4.4-2.3.6-1.2 5.4-4 8-1.4 1 .5 6.8 1.4 10.2-5.2-2-4.8-8.5-4.2-12 1-6.3 4-12.7 3.3-16.8-.8-4-.2-7.7.3-12.6 2 11.3 4.4 25 14.2 21.7v-2c.4-15-3-29.7-10.4-30.7z" style="fill:#d40000;stroke:none"/><path class="alpha" d="M294.7 145c0 6.3 1.4 16.2-.3 19.5-1.7 3.4-10 12-13 13.6-6.7-5.3-12.5-13.8-13.2-18.5-.6-4.8 0-15.3 0-15.3-9.5 2-12.2 13.6-12.2 17.6 0 4 3.4 20 8.2 26.5 4.7 6.4 11.8 10.2 16.3 7.5 4.4-2.8 17.6-12.3 21-14.3 3.4-2 6.8-3.4 6.4-11.5-.4-8.2-1-13-2.8-16.3-1.7-3.4-8-7-10.5-8.8z" style="fill:red;stroke:#a00;stroke-width:.5"/><path class="alpha--dark" d="M268.2 144.2c-9.5 2-12.2 13.6-12.2 17.6 0 4 3.4 20 8.2 26.5 3.3 4.6 8 7.7 11.8 8.3-5.6-2.2-12.4-10.6-14.8-18.2 2 3.6 2.7 4.7 4.6 6.8-3.5-4.3-5-15-5-18 1.2 4 1.8 6.7 1.8 6.7-.3-2.3.2-6.6.2-6.6 1.4 10.5 4.6 2 3.5.5-1-1.7-3.7-4.7-2.4-8.7 1.3-4 2.6.8 4 3.8 1.3 3 9.7 18 19.4 19.5-3.5-3.2-4.8-4.6-2-6.8 3-2 7.7-7 8.5-10.2h-.2c-2.4 3.8-9.5 11-12.3 12.6-6.6-5.2-12.2-13.3-13.2-18l-.6.6c0-2.4-2.4-7.6-3.5-7.6-1 0-.8 2-1.6 3.8-.8 2-4 .8-2.2-1 2-2 .8-2.5 1-3.8.4-1.4-.5-3.8 3.6-5.2-.6.8-1.6 2-1.6 3.3 1.3-1.5 2-1.5 2.7 0 .6 1.7-1.6 2-.2 2.8 1 .5 1.5 1 2 2.2 0-5 .4-10.8.4-10.8z" style="fill:#d40000;stroke:none"/><path class="alpha" d="M287 182.3c-2-1-3.8-3-5.5-4.3" style="fill:none;stroke:#a00;stroke-width:.25"/></symbol></svg>