<svg xmlns="http://www.w3.org/2000/svg"><symbol id="ibullet" viewBox="185 135 190 190"><path class="alpha--dark" d="m241.2 280.4 6.8.1-.2 8.4-6.8-.1z" style="fill:#333;stroke-width:.25"/><path class="gamma" style="fill:#fcbb29" d="M244.3 302.8c0 .1-.2.1-.2 0l-.2-.5a19.8 19.8 0 0 1-.9-6.2l1.3-.8 1.3.9c0 2-.4 4.1-1.1 6z"/><path class="gamma--dark" style="fill:#d39a29" d="m243.2 299.2.7 3 .2.6c0 .1.1.1.2 0l.2-.5v-.4a19.8 19.8 0 0 1-.7-6l-.8.2c0 1 0 2.1.2 3.1z"/><path class="beta--light" d="M242.9 293v.1l-.8-2.1 2.4-1.5 2.2 1.6-.8 2-1.6.8z" style="fill:#ccc"/><path class="beta" d="m242 291 .8 2.1 1-.1-.5-2.2c-.4 0-.9 0-1.2.2z" style="fill:#b3b3b3"/><path class="beta" style="fill:#b3b3b3" d="M242.8 296.1v-3c.9-.3 2.1-.3 3 0v3h-.2c-.7-.1-2-.2-2.6 0z"/><path class="beta--dark" style="fill:#999" d="M242.8 296.1v-3l1-.2v3.1l-.8.1zm3.7-15.8h-3.8v-2.5l3.9.1z"/><path class="beta--darker" d="M244 279h-1.3v-1.2h1.3z" style="fill:gray"/><path class="beta" d="m247 279.1-.3 12a9.8 9.8 0 0 0-4.6-.1l.2-12a13 13 0 0 1 4.7.1z" style="fill:#b3b3b3"/><path class="beta--dark" d="M243.5 278.9c0 4-.2 8-.3 11.9 0 0-.8 0-1.1.2l.2-12 1.2-.1z" style="fill:#999"/><path class="beta" style="fill:#b3b3b3" d="M242 277.5h.3c1.7-.3 3-.3 4.7 0 .2 0 .4.2.4.4s-.2.4-.4.4c-1.3-.1-2.5-.3-4.7-.1a.4.4 0 0 1-.4-.4c0-.1 0-.2.2-.3z"/><path class="beta--dark" d="m243.5 278.1-.2-.4c0-.2 0-.3.2-.4l-1.2.1c-.2 0-.3.2-.3.4 0 .1 0 .3.2.4h.3z" style="fill:#999"/><path class="alpha" d="M242.2 279.8c-.5 0-.9.4-.9.8v1h6.5v-.8c0-.5-.4-.8-.8-.9zm-1 2.9v3.7l6.5.2v-3.7zm0 5v.8c0 .5.3.9.7.9l4.9.1c.4 0 .8-.3.8-.8v-1z" style="fill:#4d4d4d"/><path class="alpha--dark" d="m316.7 272.3 6.5-2 2.4 8-6.5 2z" style="fill:#333;stroke-width:.25"/><path class="gamma" style="fill:#fcbb29" d="M326.7 292.6c0 .1-.1.2-.2 0l-.3-.4a19.8 19.8 0 0 1-2.8-5.5l1-1.2 1.5.4c.6 2 .9 4 .8 6.1z"/><path class="gamma--dark" style="fill:#d39a29" d="M324.6 289.5c.4 1 1 1.9 1.6 2.7l.3.5h.2v-1a19.8 19.8 0 0 1-2.6-5.4l-.7.4c.3 1 .7 2 1.2 2.8z"/><path class="beta--light" d="m324 284-1.7-.2-1.4-1.7 1.8-2.2 2.6.8-.1 2.2z" style="fill:#ccc"/><path class="beta" d="m320.9 282 1.4 1.9.9-.5-1.2-1.9c-.4.2-.8.3-1.1.6z" style="fill:#b3b3b3"/><path class="beta" style="fill:#b3b3b3" d="m323.2 286.7-1-2.8c.8-.6 2-1 3-1l.9 3h-.2a5 5 0 0 0-2.5.8z"/><path class="beta--dark" style="fill:#999" d="m323.2 286.7-1-2.8 1-.5.9 3c-.3 0-.4.1-.7.3zm-2.2-18.4.7 2.2-3.6 1.3-.7-2.4z"/><path class="beta--darker" d="m318.6 269 .3 1.1-1.2.4-.3-1.1z" style="fill:gray"/><path class="beta" d="m321.8 269.3 3.5 11.4c-1.3 0-3.2.6-4.4 1.4l-3.6-11.4a13 13 0 0 1 4.5-1.4z" style="fill:#b3b3b3"/><path class="beta--dark" d="m318.4 270.1 3.5 11.4-1 .6-3.6-11.4c.1-.2.7-.5 1.1-.6z" style="fill:#999"/><path class="beta" style="fill:#b3b3b3" d="m316.6 269.3.2-.1c1.5-.8 2.8-1.2 4.5-1.4.2 0 .4 0 .5.2 0 .2 0 .4-.3.5-1.3.3-2.4.5-4.4 1.4-.2 0-.4 0-.5-.3v-.3z"/><path class="beta--dark" d="M318.2 269.4c-.1 0-.3 0-.4-.2l.1-.5-1 .5c-.3 0-.4.2-.3.4 0 .2.2.3.4.3h.2z" style="fill:#999"/><path class="alpha" d="M317.5 271.5c-.5.1-.7.6-.6 1l.3.8 6.1-1.9-.2-.8a.8.8 0 0 0-1-.5zm0 3 1.1 3.6 6.2-2-1.1-3.5zm1.5 4.7.2.9c.2.4.6.6 1 .5l4.7-1.4c.4-.1.6-.6.5-1l-.3-1z" style="fill:#4d4d4d"/><path class="alpha--dark" d="m241 280.9 6.7.6-.8 8.4-6.8-.7z" style="fill:#333;stroke-width:.25"/><path class="gamma" style="fill:#fcbb29" d="M242.4 303.5h-.2l-.2-.6a19.8 19.8 0 0 1-.4-6.2l1.3-.7 1.3 1c-.2 2-.8 4-1.6 6z"/><path class="gamma--dark" style="fill:#d39a29" d="M241.6 299.8c0 1 .2 2 .4 3.1l.2.6h.2l.2-.5.1-.4a19.8 19.8 0 0 1-.3-6l-.8.1v3.1z"/><path class="beta--light" d="m243.5 290.2 2.2 1.7-1 2-1.6.7-1.4-1-.7-2z" style="fill:#ccc"/><path class="beta" d="m241 291.5.6 2.2h1.1l-.5-2.3-1.2.1z" style="fill:#b3b3b3"/><path class="beta" style="fill:#b3b3b3" d="m241.4 296.7.2-3c1-.2 2.1-.1 3 .3l-.2 3h-.2a6 6 0 0 0-2.6-.3z"/><path class="beta--dark" style="fill:#999" d="m241.4 296.7.2-3h1l-.2 3h-.8zm5.1-17.9-.2 2.4-3.8-.3.2-2.4z"/><path class="beta--darker" d="m244 278.6-.2 1.2-1.2-.2v-1.1z" style="fill:gray"/><path class="beta" d="m246.8 280-1.1 12a9.8 9.8 0 0 0-4.7-.5l1.2-12a13 13 0 0 1 4.6.5z" style="fill:#b3b3b3"/><path class="beta--dark" d="m243.4 279.5-1.2 12H241l1.2-12h1.2z" style="fill:#999"/><path class="beta" style="fill:#b3b3b3" d="M242 278.1h.3c1.7-.1 3 0 4.7.4.2 0 .3.2.3.4s-.2.3-.4.3c-1.3-.2-2.5-.4-4.7-.4-.2 0-.3-.2-.3-.4l.1-.3z"/><path class="beta--dark" d="m243.4 278.8-.2-.4c0-.2.2-.3.3-.4h-1.2c-.2 0-.4.1-.4.3 0 .2 0 .4.2.4h.3z" style="fill:#999"/><path class="alpha" d="M242 280.4c-.5 0-.9.3-1 .7v1l6.4.6.1-1c0-.4-.3-.8-.7-.8zm-1.1 2.8-.4 3.7 6.4.7.4-3.8zm-.5 5-.1.8c0 .5.3.9.7 1l4.8.4c.5 0 .9-.3 1-.7v-1z" style="fill:#4d4d4d"/><path class="alpha--dark" d="m315.4 272 6.5-2 2.3 8.1-6.5 2z" style="fill:#333;stroke-width:.25"/><path class="gamma" style="fill:#fcbb29" d="M325.2 292.4c0 .1-.2.2-.2 0l-.4-.4a19.8 19.8 0 0 1-2.7-5.6l1-1.1 1.5.4c.6 2 .9 4 .8 6.2z"/><path class="gamma--dark" style="fill:#d39a29" d="M323 289.3c.5 1 1 1.9 1.6 2.7l.4.5h.2v-1a19.8 19.8 0 0 1-2.6-5.5l-.7.4 1.2 3z"/><path class="beta--light" d="m319.4 281.8 1.9-2.1 2.6.8-.1 2.2-1.3 1.2-1.6-.3z" style="fill:#ccc"/><path class="beta" d="m319.4 281.8 1.4 1.8 1-.4-1.3-1.9-1 .5z" style="fill:#b3b3b3"/><path class="beta" style="fill:#b3b3b3" d="m321.7 286.5-.9-2.9c.8-.5 2-.9 3-.9l.8 3h-.2c-.8 0-2 .4-2.5.7z"/><path class="beta--dark" style="fill:#999" d="m321.7 286.5-.9-2.9c.2-.2.7-.4 1-.4l.8 3-.7.2zM316 269l3.7-1 .7 2.3-3.6 1.2z"/><path class="beta--darker" d="m316 269 1.3-.3.3 1.2-1.2.3z" style="fill:gray"/><path class="beta" d="m320.5 269 3.4 11.5a11 11 0 0 0-4.5 1.3l-3.4-11.4a13 13 0 0 1 4.5-1.4z" style="fill:#b3b3b3"/><path class="beta--dark" d="m317.1 269.9 3.4 11.4-1 .5-3.5-11.4c.1-.2.8-.4 1.1-.5z" style="fill:#999"/><path class="beta" style="fill:#b3b3b3" d="m315.3 269 .3-.2c1.5-.6 2.8-1 4.5-1.3.2 0 .4 0 .4.2s0 .5-.2.5c-1.3.3-2.5.5-4.5 1.4a.5.5 0 0 1-.5-.3v-.3z"/><path class="beta--dark" d="M317 269.1c-.2 0-.4 0-.5-.2 0-.2 0-.4.2-.5l-1.2.4-.2.5c0 .1.2.3.4.3h.2z" style="fill:#999"/><path class="alpha" d="M316.2 271.2c-.5.1-.7.6-.6 1l.2.8 6.2-1.8-.2-.8a.8.8 0 0 0-1-.6zm0 3 1 3.6 6.2-1.9-1-3.5zm1.4 4.7.2.9c.2.4.6.7 1 .5l4.7-1.3c.4-.1.7-.6.5-1l-.2-1z" style="fill:#4d4d4d"/><path class="alpha--dark" d="m311.6 274.1 6.3-2.6 3.2 7.8-6.2 2.6z" style="fill:#333;stroke-width:.25"/><path class="gamma" style="fill:#fcbb29" d="M322 294c0 .2 0 .2-.1.1l-.3-.5a19.8 19.8 0 0 1-2.7-5.6l1-1.2 1.5.5c.6 2 .8 4 .7 6.2z"/><path class="gamma--dark" style="fill:#d39a29" d="m320 291 1.6 2.6.3.5c0 .1.2 0 .2 0v-1a19.8 19.8 0 0 1-2.5-5.5l-.7.4 1.1 3z"/><path class="beta--light" d="m318.4 281.3 2.6.8-.2 2.2-1.3 1.2-1.6-.4-1.4-1.7z" style="fill:#ccc"/><path class="beta" d="m316.5 283.4 1.4 1.8.9-.4-1.2-2c-.3.2-.8.3-1 .6z" style="fill:#b3b3b3"/><path class="beta" style="fill:#b3b3b3" d="m318.7 288-.8-2.8c.7-.5 1.9-.9 3-.9l.7 3h-.2c-.7 0-2 .4-2.5.7z"/><path class="beta--dark" style="fill:#999" d="m318.7 288-.8-2.8c.1-.2.6-.4.9-.5l.8 3-.7.3zm-1.7-18.5.7 2.3-3.7 1.2-.7-2.4z"/><path class="beta--darker" d="m314.6 270.2.3 1.2-1.2.3-.4-1.1z" style="fill:gray"/><path class="beta" d="M317.8 270.6 321 282c-1.3 0-3.2.5-4.5 1.3l-3.3-11.6a13 13 0 0 1 4.6-1.2z" style="fill:#b3b3b3"/><path class="beta--dark" d="M314.4 271.4c1 3.8 2 7.6 3.2 11.4l-1 .6-3.4-11.6 1.2-.4z" style="fill:#999"/><path class="beta" style="fill:#b3b3b3" d="m312.6 270.5.2-.2c1.5-.6 2.8-1 4.5-1.2.2 0 .4 0 .5.2 0 .2 0 .4-.3.5-1.3.2-2.4.5-4.5 1.2-.2.1-.4 0-.4-.2v-.3z"/><path class="beta--dark" d="M314.2 270.6c-.1 0-.4 0-.4-.2l.1-.5-1.1.4c-.2 0-.3.3-.2.4 0 .2.1.4.3.4l.3-.1z" style="fill:#999"/><path class="alpha" d="M312.4 273.2c-.5.2-.7.7-.5 1.1l.3.8 6-2.5-.3-.8a.8.8 0 0 0-1.1-.4zm.3 3 1.4 3.5 6-2.5-1.4-3.5zm1.9 4.6.3.8c.2.4.7.6 1.1.5l4.5-1.9c.4-.2.6-.6.4-1l-.3-1z" style="fill:#4d4d4d"/><path class="alpha--dark" d="m242.5 281.4 6.8.3-.3 8.4-6.8-.3z" style="fill:#333;stroke-width:.25"/><path class="gamma" style="fill:#fcbb29" d="M245.3 304h-.2l-.2-.6a19.8 19.8 0 0 1-.8-6.2l1.3-.8 1.3.9c0 2-.5 4.1-1.2 6z"/><path class="gamma--dark" style="fill:#d39a29" d="m244.3 300.3.6 3 .2.6c0 .1.2.1.2 0l.2-.5.1-.4a19.8 19.8 0 0 1-.7-6l-.8.2c0 1 0 2 .2 3.1z"/><path class="beta--light" d="m245.7 290.6 2.2 1.6-.8 2h-.1l-1.5.7-1.5-.7-.7-2.2z" style="fill:#ccc"/><path class="beta" d="m243.3 292 .7 2.2 1-.2-.5-2.1-1.2.1z" style="fill:#b3b3b3"/><path class="beta" style="fill:#b3b3b3" d="m243.9 297.2.1-3c.8-.3 2-.3 3 0v3.1h-.3c-.7-.2-2-.3-2.6-.1z"/><path class="beta--dark" style="fill:#999" d="m243.9 297.2.1-3 1-.2-.1 3.1-.8.1zM248 279l-.1 2.4H244l.1-2.5z"/><path class="beta--darker" d="M245.4 279v1.1H244v-1.2z" style="fill:gray"/><path class="beta" d="m248.3 280.2-.4 12a9.8 9.8 0 0 0-4.6-.2l.3-12a13 13 0 0 1 4.7.2z" style="fill:#b3b3b3"/><path class="beta--dark" d="m244.9 280-.5 11.9-1.1.1.3-12h1.3z" style="fill:#999"/><path class="beta" style="fill:#b3b3b3" d="m243.4 278.6.3-.1c1.6-.2 3-.1 4.7.2.2 0 .3.1.3.3 0 .2-.1.4-.3.4-1.4-.1-2.5-.3-4.7-.2-.2 0-.4-.1-.4-.3l.1-.3z"/><path class="beta--dark" d="M244.9 279.2c-.1 0-.3-.2-.3-.4s.2-.3.3-.4l-1.2.1c-.2 0-.4.1-.4.3 0 .2.1.4.3.4h.2z" style="fill:#999"/><path class="alpha" d="M243.5 280.9c-.4 0-.8.3-.8.8v.9l6.4.2v-.9c0-.4-.3-.8-.8-.8zm-1 2.8v3.8l6.4.2.1-3.7zm-.1 5v.9c0 .4.3.8.8.8l4.8.2c.4 0 .8-.3.8-.8v-.9z" style="fill:#4d4d4d"/><path class="alpha--dark" d="m245.2 281.4 6.8.3-.3 8.4-6.8-.3z" style="fill:#333;stroke-width:.25"/><path class="gamma" style="fill:#fcbb29" d="M248.1 304h-.2l-.2-.6a19.8 19.8 0 0 1-.8-6.2l1.3-.8 1.3.9c0 2-.5 4.1-1.2 6z"/><path class="gamma--dark" style="fill:#d39a29" d="m247 300.3.7 3 .2.6c0 .1.2.1.2 0l.2-.5.1-.4a19.8 19.8 0 0 1-.7-6l-.8.2c0 1 0 2 .2 3.1z"/><path class="beta--light" d="m249.8 294.3-1.5.7-1.5-.8-.8-2.1 2.4-1.5 2.3 1.6z" style="fill:#ccc"/><path class="beta" d="m246 292 .8 2.2 1-.1-.6-2.2c-.4 0-.8 0-1.2.2z" style="fill:#b3b3b3"/><path class="beta" style="fill:#b3b3b3" d="M246.7 297.2v-3c1-.3 2.1-.3 3.1 0v3.1h-.3c-.7-.2-2-.3-2.6 0z"/><path class="beta--dark" style="fill:#999" d="M246.7 297.2v-3l1-.2v3.1l-.8.1zm0-15.8.1-2.5 3.8.1v2.4z"/><path class="beta--darker" d="M246.8 280.1v-1.2h1.3v1.2z" style="fill:gray"/><path class="beta" d="m251 280.2-.3 12a9.8 9.8 0 0 0-4.7-.1l.3-12a13 13 0 0 1 4.7.1z" style="fill:#b3b3b3"/><path class="beta--dark" d="m247.6 280-.4 11.9s-.8 0-1.2.2l.3-12c.2-.1.9-.2 1.3-.1z" style="fill:#999"/><path class="beta" style="fill:#b3b3b3" d="M246.1 278.6h.3c1.6-.3 3-.2 4.7 0 .2 0 .3.2.3.4s-.1.4-.4.4c-1.3-.1-2.4-.3-4.6-.1a.4.4 0 0 1-.4-.4l.1-.3z"/><path class="beta--dark" d="M247.6 279.2c-.1 0-.3-.2-.3-.4s.2-.3.3-.4l-1.2.1c-.2 0-.4.2-.4.3 0 .2.1.4.3.4h.2z" style="fill:#999"/><path class="alpha" d="M246.2 281c-.4-.1-.8.2-.8.7v.9l6.4.2v-.9c0-.4-.3-.8-.8-.8zm-.9 2.8-.1 3.7 6.4.2.2-3.7zm-.2 4.9v1c0 .4.4.7.8.8l4.8.1c.5 0 .9-.3.9-.8v-.9z" style="fill:#4d4d4d"/><path class="alpha--dark" d="m249.8 281.3 6.8.6-.7 8.4-6.8-.6z" style="fill:#333;stroke-width:.25"/><path class="gamma" style="fill:#fcbb29" d="m251.6 304-.2-.1-.2-.6a19.8 19.8 0 0 1-.5-6.1l1.3-.8 1.3 1c-.2 2-.7 4-1.5 6z"/><path class="gamma--dark" style="fill:#d39a29" d="m250.7 300.3.5 3 .2.6c0 .1.1.1.2 0l.2-.5.1-.3a19.8 19.8 0 0 1-.4-6h-.8v3.2z"/><path class="beta--light" d="m252.2 295-1.4-.9-.7-2.2 2.5-1.3 2.2 1.7-1 2z" style="fill:#ccc"/><path class="beta" d="m250 292 .7 2.1h1l-.4-2.2H250z" style="fill:#b3b3b3"/><path class="beta" style="fill:#b3b3b3" d="m250.5 297.1.2-3c.9-.2 2.1-.1 3 .3l-.2 3h-.2c-.7-.3-2-.4-2.6-.2z"/><path class="beta--dark" style="fill:#999" d="m250.5 297.1.2-3h1l-.2 3h-.8zm4.9-17.9-.2 2.4-3.8-.3.2-2.4z"/><path class="beta--darker" d="M252.8 279v1.2l-1.3-.1v-1.2z" style="fill:gray"/><path class="beta" d="m255.7 280.4-1 12a9.8 9.8 0 0 0-4.6-.4l1-12a13 13 0 0 1 4.6.4z" style="fill:#b3b3b3"/><path class="beta--dark" d="m252.3 280-1 11.8s-.9 0-1.2.2l1-12h1.2z" style="fill:#999"/><path class="beta" style="fill:#b3b3b3" d="M251 278.5h.2c1.6-.1 3 0 4.6.3.2 0 .4.2.4.4s-.2.4-.4.4c-1.3-.2-2.5-.4-4.7-.4-.2 0-.3-.2-.3-.4l.1-.3z"/><path class="beta--dark" d="m252.3 279.2-.2-.4c0-.2.1-.3.3-.4h-1.2c-.2 0-.4.2-.4.4 0 .1 0 .3.2.4h.3z" style="fill:#999"/><path class="alpha" d="M250.9 280.8c-.5 0-.9.3-.9.8v.9l6.4.5v-.9a1 1 0 0 0-.7-.9zm-1 2.8-.4 3.8 6.4.5.4-3.7zm-.5 5v.9c-.1.4.2.8.7.9l4.8.4c.4 0 .8-.3.9-.8v-.9z" style="fill:#4d4d4d"/><path class="alpha--dark" d="m255 281.7 6.8.4-.5 8.4-6.8-.5z" style="fill:#333;stroke-width:.25"/><path class="gamma" style="fill:#fcbb29" d="M257.3 304.2c0 .1-.2.1-.2 0l-.2-.5a19.8 19.8 0 0 1-.6-6.2l1.3-.8 1.2 1c0 2-.5 4-1.3 6z"/><path class="gamma--dark" style="fill:#d39a29" d="M256.4 300.6c0 1 .3 2 .5 3l.2.6c0 .1.2.1.2 0l.2-.5.1-.3a19.8 19.8 0 0 1-.5-6l-.8.1v3z"/><path class="beta--light" d="m257.7 295.3-1.4-.9-.8-2.1 2.5-1.4 2.2 1.7-1 2z" style="fill:#ccc"/><path class="beta" d="m255.5 292.3.7 2.2 1-.1-.5-2.2-1.2.1z" style="fill:#b3b3b3"/><path class="beta" style="fill:#b3b3b3" d="m256 297.5.2-3c.9-.3 2.1-.2 3 .1l-.1 3h-.3c-.7-.2-1.9-.3-2.5-.1z"/><path class="beta--dark" style="fill:#999" d="m256 297.5.2-3c.2-.2.7-.2 1-.2l-.2 3.1h-.7v.1zm4.5-18.1-.1 2.4-3.8-.1v-2.5z"/><path class="beta--darker" d="m258 279.3-.1 1.1h-1.3v-1.2z" style="fill:gray"/><path class="beta" d="m260.9 280.6-.7 12a9.8 9.8 0 0 0-4.7-.3l.7-12a13 13 0 0 1 4.7.3z" style="fill:#b3b3b3"/><path class="beta--dark" d="m257.4 280.3-.7 11.9-1.2.1.7-12h1.2z" style="fill:#999"/><path class="beta" style="fill:#b3b3b3" d="m256 278.9.3-.1c1.6-.2 3-.1 4.7.2.2 0 .3.2.3.4s-.2.4-.4.4c-1.3-.2-2.4-.3-4.7-.3-.2 0-.3-.2-.3-.4l.1-.2z"/><path class="beta--dark" d="M257.5 279.5c-.2 0-.3-.2-.3-.4s.1-.3.3-.4h-1.2c-.2 0-.4.2-.4.4s0 .3.2.4h.3z" style="fill:#999"/><path class="alpha" d="M256 281.2c-.4 0-.8.3-.8.7v1l6.4.3v-.9c0-.4-.3-.8-.7-.8zm-1 2.8-.2 3.7 6.5.4.2-3.7zm-.2 5-.1.8c0 .5.3.9.8 1l4.8.2c.4 0 .8-.3.8-.8l.1-.9z" style="fill:#4d4d4d"/><path class="alpha--dark" d="m260.2 281.9 6.7-.3.4 8.4-6.8.2z" style="fill:#333;stroke-width:.25"/><path class="gamma" style="fill:#fcbb29" d="M264.8 304c0 .2-.2.2-.3 0l-.2-.5a19.8 19.8 0 0 1-1.2-6l1.1-1 1.4.8c.1 2.1-.1 4.2-.7 6.2z"/><path class="gamma--dark" style="fill:#d39a29" d="m263.5 300.5.8 3 .2.6h.3l.1-.6.1-.3a19.8 19.8 0 0 1-1.2-6l-.7.3c0 1 .1 2 .4 3z"/><path class="beta--light" d="m262.7 294.4-1-2 2.4-1.6 2.3 1.4-.7 2.1-1.5.8z" style="fill:#ccc"/><path class="beta" d="m261.8 292.4.9 2 1-.2-.8-2c-.3 0-.8 0-1.1.2z" style="fill:#b3b3b3"/><path class="beta" style="fill:#b3b3b3" d="m262.8 297.5-.1-3c.8-.4 2-.5 3-.2l.2 3h-.3c-.7-.1-2 0-2.5.2z"/><path class="beta--dark" style="fill:#999" d="m262.8 297.5-.1-3c.1-.2.7-.2 1-.3v3.1l-.6.2zm2.7-16.1-3.8.3-.1-2.5 3.8-.2z"/><path class="beta--darker" d="m262.9 280.3-1.3.1v-1.2h1.2z" style="fill:gray"/><path class="beta" d="m265.9 280.2.5 12a9.8 9.8 0 0 0-4.6.2l-.6-12a13 13 0 0 1 4.7-.2z" style="fill:#b3b3b3"/><path class="beta--dark" d="m262.4 280.2.5 12s-.8 0-1.1.2l-.6-12 1.2-.2z" style="fill:#999"/><path class="beta" style="fill:#b3b3b3" d="m260.9 279 .2-.2c1.6-.3 3-.3 4.7-.2.2 0 .4.2.4.4s-.2.4-.4.4c-1.3 0-2.5-.1-4.7.2-.2 0-.3-.2-.3-.4v-.2z"/><path class="beta--dark" d="M262.3 279.4s-.2-.1-.2-.3c0-.2 0-.4.2-.4l-1.2.2c-.2 0-.3.1-.3.3 0 .2 0 .3.2.4h.3z" style="fill:#999"/><path class="alpha" d="M261.1 281.2c-.4 0-.8.4-.8.9v.9l6.5-.3v-.9c0-.4-.4-.8-.9-.8zm-.7 3 .2 3.7 6.4-.3-.1-3.7zm.2 4.9v1c.1.4.5.7 1 .7l4.7-.2c.5 0 .8-.4.8-.9v-.9z" style="fill:#4d4d4d"/><path class="alpha--dark" d="M265.8 281.3h6.8v8.4h-6.8z" style="fill:#333;stroke-width:.25"/><path class="gamma" style="fill:#fcbb29" d="M269.4 303.7h-.2l-.2-.6a19.8 19.8 0 0 1-1-6.1l1.2-.9 1.4.9c0 2-.3 4.1-1 6.1z"/><path class="gamma--dark" style="fill:#d39a29" d="M268.3 300c.1 1.1.4 2.1.7 3.1l.2.6h.2l.2-.6.1-.3a19.8 19.8 0 0 1-.9-6l-.8.2.3 3z"/><path class="beta--light" d="m269.3 294.7-1.5-.7-.8-2.1 2.3-1.5 2.3 1.5-.8 2z" style="fill:#ccc"/><path class="beta" d="m267 291.9.8 2h1l-.6-2.2c-.4 0-.9 0-1.2.2z" style="fill:#b3b3b3"/><path class="beta" style="fill:#b3b3b3" d="M267.8 297v-3c.8-.3 2-.3 3 0v3h-.2c-.7-.2-2-.2-2.6 0z"/><path class="beta--dark" style="fill:#999" d="M267.8 297v-3l1-.2v3l-.8.2zm3.4-18.3v2.4h-3.8v-2.4z"/><path class="beta--darker" d="M268.6 278.7v1.2h-1.2v-1.2z" style="fill:gray"/><path class="beta" d="M271.6 279.9v12a9.8 9.8 0 0 0-4.6 0v-12a13 13 0 0 1 4.6 0z" style="fill:#b3b3b3"/><path class="beta--dark" d="M268.2 279.7v12s-.9 0-1.2.2v-12l1.2-.2z" style="fill:#999"/><path class="beta" style="fill:#b3b3b3" d="M266.7 278.4h.2c1.7-.3 3-.3 4.7 0 .2 0 .4 0 .4.3 0 .2-.2.4-.4.4-1.3-.1-2.4-.2-4.7 0-.2 0-.3-.2-.3-.4v-.3z"/><path class="beta--dark" d="M268.2 279c-.2 0-.3-.2-.3-.4l.2-.4-1.2.1c-.2 0-.3.2-.3.3 0 .2 0 .4.2.4h.3z" style="fill:#999"/><path class="alpha" d="M266.9 280.7c-.5 0-.9.4-.9.8v1h6.5v-1c0-.4-.4-.8-.8-.8zm-.9 2.9v3.7h6.5v-3.7zm0 5v.8c0 .5.4.9.8.9h4.8c.5 0 .8-.4.9-.8v-1z" style="fill:#4d4d4d"/><path class="alpha--dark" d="m272 281.2 6.8-.5.6 8.3-6.8.6z" style="fill:#333;stroke-width:.25"/><path class="gamma" style="fill:#fcbb29" d="M277.4 303.2h-.3l-.2-.5a19.8 19.8 0 0 1-1.5-6l1.2-1 1.4.8c.1 2 0 4.1-.5 6.2z"/><path class="gamma--dark" style="fill:#d39a29" d="M276 299.7c.2 1 .5 2 1 3l.1.5h.3v-.5l.2-.4a19.8 19.8 0 0 1-1.4-5.9l-.8.3.5 3z"/><path class="beta--light" d="m276.5 294.3-1.5-.6-1-2 2.2-1.7 2.4 1.3-.6 2.2z" style="fill:#ccc"/><path class="beta" d="m274 291.7 1 2 .9-.2-.8-2.1c-.3 0-.8 0-1.1.3z" style="fill:#b3b3b3"/><path class="beta" style="fill:#b3b3b3" d="m275.2 296.7-.3-3c.8-.4 2-.5 3-.2l.3 3h-.2c-.8-.1-2 0-2.6.2z"/><path class="beta--dark" style="fill:#999" d="m275.2 296.7-.3-3 1-.3.3 3.1-.8.2zm1.9-18.5.2 2.4-3.8.4-.2-2.5z"/><path class="beta--darker" d="M274.6 278.4v1.2h-1.2v-1z" style="fill:gray"/><path class="beta" d="m277.6 279.3 1 12a9 9 0 0 0-4.6.4l-1-12a13 13 0 0 1 4.6-.4z" style="fill:#b3b3b3"/><path class="beta--dark" d="m274.2 279.5.9 11.9s-.8.1-1.1.3l-1-12 1.2-.2z" style="fill:#999"/><path class="beta" style="fill:#b3b3b3" d="m272.6 278.3.2-.1c1.7-.4 3-.5 4.7-.4.2 0 .4.1.4.3 0 .2-.1.4-.3.4-1.3 0-2.5 0-4.7.4-.2 0-.4-.1-.4-.3l.1-.3z"/><path class="beta--dark" d="m274.1 278.7-.3-.3.2-.5-1.2.3c-.1 0-.3.1-.3.3 0 .2.1.4.3.4h.3z" style="fill:#999"/><path class="alpha" d="M273 280.6c-.5 0-.8.4-.8.8v1l6.5-.6v-.9c-.1-.4-.5-.7-1-.7zm-.7 2.9.3 3.7 6.5-.5-.3-3.7zm.4 5v.8c.1.5.5.8 1 .8l4.8-.4c.4 0 .8-.4.7-.9v-.9z" style="fill:#4d4d4d"/><path class="alpha--dark" d="m278.8 280.6 6.8-.2.3 8.4-6.8.2z" style="fill:#333;stroke-width:.25"/><path class="gamma" style="fill:#fcbb29" d="M284 302.7c0 .1-.2.2-.3 0l-.2-.5a19.8 19.8 0 0 1-1.5-6l1.2-1 1.4.8c.2 2 0 4.1-.5 6.2z"/><path class="gamma--dark" style="fill:#d39a29" d="m282.5 299.3 1 3 .2.5h.3v-.6l.2-.4a19.8 19.8 0 0 1-1.4-5.8l-.8.2.5 3z"/><path class="beta--light" d="m281.6 293.2-1-2 2.2-1.7 2.4 1.3-.6 2.2-1.5.8-1.5-.6z" style="fill:#ccc"/><path class="beta" d="m280.6 291.2 1 2 1-.2-.8-2.1c-.4 0-.9 0-1.2.3z" style="fill:#b3b3b3"/><path class="beta" style="fill:#b3b3b3" d="m281.8 296.2-.2-3c.8-.4 2-.5 3-.2l.2 3h-.2c-.7-.1-2 0-2.6.2z"/><path class="beta--dark" style="fill:#999" d="m281.8 296.2-.2-3 1-.3.2 3.1-.8.2zm-1.6-15.7-.2-2.5 3.8-.3.2 2.4z"/><path class="beta--darker" d="M280 279.2V278h1.2l.1 1z" style="fill:gray"/><path class="beta" d="m284.3 278.9 1 11.9c-1.3-.3-3.3 0-4.7.4l-1-12a13 13 0 0 1 4.7-.3z" style="fill:#b3b3b3"/><path class="beta--dark" d="m280.8 279 1 11.9s-.9.1-1.2.3l-1-12 1.2-.2z" style="fill:#999"/><path class="beta" style="fill:#b3b3b3" d="m279.3 277.8.2-.1c1.6-.4 3-.5 4.7-.4.2 0 .4.1.4.3 0 .2-.2.4-.4.4-1.3 0-2.4 0-4.6.4-.2 0-.4-.1-.4-.3v-.3z"/><path class="beta--dark" d="m280.8 278.2-.3-.3c0-.2 0-.4.2-.5l-1.2.3c-.2 0-.3.1-.3.3 0 .2 0 .4.3.4h.2z" style="fill:#999"/><path class="alpha" d="M279.8 280c-.5 0-.8.3-.8.8v.9l6.5-.2v-1c0-.4-.5-.7-1-.7zm-.7 2.9v3.7l6.5-.2v-3.7zm.1 4.9v1c0 .4.4.7.9.7l4.8-.2c.5 0 .8-.3.8-.8v-1z" style="fill:#4d4d4d"/><path class="alpha--dark" d="m284.9 280 6.7-.7.8 8.3-6.7.7z" style="fill:#333;stroke-width:.25"/><path class="gamma" style="fill:#fcbb29" d="M290.7 301.8c0 .1-.2.1-.2 0l-.3-.5a19.8 19.8 0 0 1-1.6-6l1.1-1 1.5.8c.2 2 0 4.1-.4 6.2z"/><path class="gamma--dark" style="fill:#d39a29" d="m289.2 298.4 1 3 .3.5h.2l.1-.6v-.4a19.8 19.8 0 0 1-1.4-5.8l-.8.2.6 3z"/><path class="beta--light" d="m288.1 292.3-1-2 2.1-1.7 2.5 1.3-.6 2.1-1.5 1z" style="fill:#ccc"/><path class="beta" d="m287 290.3 1 2h.1l1-.2-.9-2c-.3 0-.8 0-1.2.2z" style="fill:#b3b3b3"/><path class="beta" style="fill:#b3b3b3" d="m288.4 295.4-.3-3a5 5 0 0 1 3-.4l.3 3h-.2c-.8 0-2 0-2.6.3z"/><path class="beta--dark" style="fill:#999" d="m288.4 295.4-.3-3c.1-.2.7-.3 1-.3l.2 3-.7.2zm1.8-16.2-3.8.5-.3-2.5 3.8-.4z"/><path class="beta--darker" d="M287.5 278.3h-1.3v-1.1l1.2-.1z" style="fill:gray"/><path class="beta" d="m290.5 278 1.2 11.9c-1.3-.3-3.3 0-4.7.4l-1.2-11.9a13 13 0 0 1 4.7-.5z" style="fill:#b3b3b3"/><path class="beta--dark" d="m287 278.1 1.2 12-1.2.2-1.2-11.9 1.2-.3z" style="fill:#999"/><path class="beta" style="fill:#b3b3b3" d="m285.4 277 .2-.1c1.7-.4 3-.6 4.7-.5.2 0 .4.1.4.3 0 .2-.1.4-.3.4-1.3 0-2.5 0-4.7.5-.2 0-.4-.1-.4-.3v-.3z"/><path class="beta--dark" d="M287 277.4c-.2 0-.4-.2-.4-.3 0-.3 0-.4.2-.5l-1.2.3c-.2 0-.3.2-.3.3 0 .2.1.4.3.4h.3z" style="fill:#999"/><path class="alpha" d="M285.8 279.3c-.5 0-.8.4-.7.9v.8l6.5-.6-.1-.9c0-.4-.5-.8-1-.7zm-.5 3 .3 3.6 6.5-.6-.4-3.7zm.4 4.8.1 1c0 .4.5.7 1 .7l4.7-.5c.5 0 .8-.4.8-.9l-.1-1z" style="fill:#4d4d4d"/><path class="alpha--dark" d="m291.2 279.5 6.8-.9 1 8.4-6.7.8z" style="fill:#333;stroke-width:.25"/><path class="gamma" style="fill:#fcbb29" d="M297.7 301.2c0 .1-.2.2-.2 0l-.3-.5a19.8 19.8 0 0 1-1.7-5.9l1-1 1.5.7c.3 2 .2 4.1-.2 6.2z"/><path class="gamma--dark" style="fill:#d39a29" d="m296.1 297.8 1.1 3 .3.5h.2l.1-.6v-.4a19.8 19.8 0 0 1-1.6-5.8l-.7.3c0 1 .3 2 .6 3z"/><path class="beta--light" d="m296.4 292.4-1.5-.6-1.2-2 2.2-1.8 2.5 1.2-.6 2.2z" style="fill:#ccc"/><path class="beta" d="m293.7 289.8 1.1 2 1-.3-1-2-1 .3z" style="fill:#b3b3b3"/><path class="beta" style="fill:#b3b3b3" d="m295.2 294.8-.4-3a6 6 0 0 1 3-.4l.4 3h-.2c-.7 0-2 .1-2.5.4z"/><path class="beta--dark" style="fill:#999" d="m295.2 294.8-.4-3 1-.3.4 3c-.3 0-.5.2-.7.3zm1-18.6.3 2.4-3.8.6-.3-2.5z"/><path class="beta--darker" d="m293.7 276.6.1 1.2-1.2.1-.2-1.2z" style="fill:gray"/><path class="beta" d="m296.8 277.4 1.6 11.8c-1.3-.2-3.3.1-4.7.6l-1.5-11.8a13 13 0 0 1 4.6-.6z" style="fill:#b3b3b3"/><path class="beta--dark" d="m293.3 277.7 1.6 11.8-1.2.3-1.5-11.8c0-.1.7-.3 1.1-.3z" style="fill:#999"/><path class="beta" style="fill:#b3b3b3" d="m291.7 276.6.2-.2c1.6-.4 3-.6 4.7-.6.2 0 .4.1.4.3 0 .2-.1.4-.3.4a28 28 0 0 0-4.7.7c-.2 0-.3-.2-.4-.4l.1-.2z"/><path class="beta--dark" d="M293.2 276.9s-.3-.1-.3-.3c0-.2 0-.4.2-.5l-1.2.3c-.2 0-.3.2-.3.4s.2.3.3.4h.3z" style="fill:#999"/><path class="alpha" d="M292.2 278.8c-.5 0-.8.5-.7 1v.8l6.5-.8-.1-.9c-.1-.4-.5-.8-1-.7zm-.5 3 .5 3.7 6.4-.8-.5-3.7zm.6 4.9.2.9c0 .4.4.7.9.7l4.7-.6c.5 0 .8-.5.8-1l-.2-.8z" style="fill:#4d4d4d"/><path class="alpha--dark" d="m308.3 275 6.6-1.8 2.2 8.1-6.6 1.8z" style="fill:#333;stroke-width:.25"/><path class="gamma" style="fill:#fcbb29" d="M317.7 295.7s-.2.1-.2 0l-.3-.5a19.8 19.8 0 0 1-2.6-5.6l1-1.2 1.5.5c.5 2 .7 4 .6 6.2z"/><path class="gamma--dark" style="fill:#d39a29" d="M315.6 292.5c.5 1 1 1.9 1.6 2.7l.3.5c0 .1.2 0 .2 0v-1a19.8 19.8 0 0 1-2.4-5.5l-.7.4 1 3z"/><path class="beta--light" d="m312.2 285 1.9-2.2 2.6.9-.2 2.2-1.3 1.1-1.6-.3z" style="fill:#ccc"/><path class="beta" d="m312.2 285 1.3 1.8 1-.5-1.2-1.9-1.1.5z" style="fill:#b3b3b3"/><path class="beta" style="fill:#b3b3b3" d="m314.3 289.7-.8-3c.8-.5 2-.8 3-.8l.8 3h-.2c-.8 0-2 .3-2.5.7z"/><path class="beta--dark" style="fill:#999" d="m314.3 289.7-.8-3 1-.4.8 3c-.3 0-.5.2-.7.3zm-5.2-17.6 3.7-1 .6 2.3-3.6 1.1z"/><path class="beta--darker" d="m309.1 272.1 1.2-.3.4 1.1-1.3.4z" style="fill:gray"/><path class="beta" d="m313.5 272.1 3.2 11.6c-1.3 0-3.2.5-4.5 1.2l-3.2-11.5a13 13 0 0 1 4.5-1.3z" style="fill:#b3b3b3"/><path class="beta--dark" d="m310.1 273 3.2 11.4-1.1.5-3.2-11.5c.1-.2.8-.4 1.1-.5z" style="fill:#999"/><path class="beta" style="fill:#b3b3b3" d="m308.4 272 .2-.1c1.5-.7 2.8-1 4.5-1.3.2 0 .4 0 .5.3 0 .2 0 .4-.3.4-1.3.3-2.4.5-4.5 1.3-.2 0-.4 0-.5-.3v-.3z"/><path class="beta--dark" d="M310 272.2c-.2 0-.4-.1-.4-.3l.1-.5-1.1.5c-.2 0-.3.2-.3.4s.2.3.4.3h.3z" style="fill:#999"/><path class="alpha" d="M309.1 274.2c-.4.1-.7.6-.5 1l.2.9 6.2-1.7-.2-.9a.8.8 0 0 0-1-.6zm0 3 1 3.6 6.2-1.7-1-3.6zm1.3 4.8.2.9c.1.4.6.7 1 .5l4.7-1.2c.4-.1.7-.6.6-1l-.3-1z" style="fill:#4d4d4d"/><path class="alpha--dark" d="m303.3 277 6.6-1.6 2 8.2-6.6 1.6z" style="fill:#333;stroke-width:.25"/><path class="gamma" style="fill:#fcbb29" d="M312.1 298h-.2l-.3-.5a19.8 19.8 0 0 1-2.4-5.7l1-1.1 1.4.5c.5 2 .7 4 .5 6.2z"/><path class="gamma--dark" style="fill:#d39a29" d="M310.1 294.7c.4 1 1 2 1.5 2.8l.3.5h.2v-1a19.8 19.8 0 0 1-2.2-5.6l-.7.4c.2 1 .5 2 1 3z"/><path class="beta--light" d="m308.2 288.9-1.3-1.8 2-2 2.5.8-.2 2.3-1.4 1z" style="fill:#ccc"/><path class="beta" d="m306.9 287 1.3 2v-.1l1-.4-1.2-2c-.3.2-.8.3-1.1.6z" style="fill:#b3b3b3"/><path class="beta" style="fill:#b3b3b3" d="m309 291.9-.8-3a5 5 0 0 1 3-.7l.7 3h-.3c-.7 0-2 .3-2.4.6z"/><path class="beta--dark" style="fill:#999" d="m309 291.9-.8-3 1-.4.6 3-.6.3zm-.6-16.3-3.6 1-.6-2.4 3.7-1z"/><path class="beta--darker" d="m305.7 275-1.3.3-.2-1.1 1.2-.3z" style="fill:gray"/><path class="beta" d="m308.6 274.3 2.8 11.6c-1.3 0-3.2.5-4.5 1.2l-2.9-11.7a13 13 0 0 1 4.6-1z" style="fill:#b3b3b3"/><path class="beta--dark" d="m305.2 275 2.8 11.6-1.1.5-2.9-11.7 1.2-.4z" style="fill:#999"/><path class="beta" style="fill:#b3b3b3" d="M303.4 274h.3c1.5-.7 2.8-1 4.5-1.2.2 0 .4 0 .4.3.1.2 0 .4-.2.4-1.3.2-2.5.4-4.6 1.1-.2 0-.4 0-.4-.2v-.3z"/><path class="beta--dark" d="M305 274.2c-.1 0-.3 0-.4-.2 0-.2 0-.4.2-.5l-1.2.4c-.1 0-.3.2-.2.4 0 .2.2.3.3.3h.3z" style="fill:#999"/><path class="alpha" d="M304.1 276.3c-.4 0-.7.5-.6 1l.2.8 6.3-1.5-.2-.9a.8.8 0 0 0-1-.6zm0 3 .8 3.6 6.3-1.5-1-3.7zm1 4.8.3.8c0 .5.5.8 1 .6l4.7-1c.4-.2.7-.6.6-1l-.3-1z" style="fill:#4d4d4d"/><path class="alpha--dark" d="m297.4 278.6 6.7-1.4 1.6 8.2-6.6 1.4z" style="fill:#333;stroke-width:.25"/><path class="gamma" style="fill:#fcbb29" d="M305 299.8c0 .1 0 .2-.1 0l-.3-.4a19.8 19.8 0 0 1-2.1-5.9l1-1 1.5.6c.4 2 .4 4 .1 6.2z"/><path class="gamma--dark" style="fill:#d39a29" d="M303.3 296.5c.3 1 .8 2 1.3 2.9l.3.5h.2v-1a19.8 19.8 0 0 1-1.9-5.7l-.7.3c.2 1 .4 2 .8 3z"/><path class="beta--light" d="m301.7 290.6-1.2-2 2-1.8 2.6 1-.4 2.3-1.4 1z" style="fill:#ccc"/><path class="beta" d="m300.5 288.7 1.2 2v-.1l1-.3-1-2c-.4 0-.9.2-1.2.4z" style="fill:#b3b3b3"/><path class="beta" style="fill:#b3b3b3" d="m302.2 293.6-.5-3a5 5 0 0 1 3-.5l.5 3h-.2c-.8 0-2 .1-2.5.4z"/><path class="beta--dark" style="fill:#999" d="m302.2 293.6-.5-3a2 2 0 0 1 1-.3l.5 3-.7.2zm.5-16.3-3.8.8-.4-2.4 3.7-.7z"/><path class="beta--darker" d="m300 276.6-1.3.2-.2-1.1 1.2-.3z" style="fill:gray"/><path class="beta" d="m302.9 276 2.2 11.8c-1.3-.2-3.3.3-4.6.9l-2.2-11.8a13 13 0 0 1 4.6-.8z" style="fill:#b3b3b3"/><path class="beta--dark" d="m299.4 276.5 2.2 11.8-1.1.4-2.2-11.8 1.1-.4z" style="fill:#999"/><path class="beta" style="fill:#b3b3b3" d="m297.8 275.5.2-.1c1.6-.5 2.9-.8 4.6-.9.2 0 .4.1.4.3 0 .2 0 .4-.3.4-1.3.2-2.4.3-4.6.9-.2 0-.4-.1-.4-.3v-.3z"/><path class="beta--dark" d="M299.3 275.8c-.1 0-.3-.1-.3-.3l.1-.5-1.1.4c-.2 0-.3.2-.3.4 0 .1.1.3.3.3h.3z" style="fill:#999"/><path class="alpha" d="M298.3 277.8c-.5.1-.8.5-.7 1l.2.8 6.3-1.2-.1-1c-.1-.4-.6-.6-1-.6zm-.3 3 .8 3.7 6.3-1.3-.7-3.7zm1 4.8.2 1c.1.4.5.7 1 .6l4.7-1c.4 0 .7-.5.6-1l-.1-.9z" style="fill:#4d4d4d"/></symbol><symbol id="icargo" viewBox="185 135 190 190"><path style="display:inline;fill:#3f3b3b;fill-opacity:1;stroke:#332f30;stroke-width:.12488428px;stroke-linecap:butt;stroke-linejoin:miter;stroke-opacity:1" d="M244.909 276.216c3.106 1.18 13.214 2.363 19.834 2.844 4.335.315 13.436.242 15.086.23 1.677-.014 5.557-.685 9.569-1.219 10.597-1.915 21.007-5.284 30.05-9.6.45 1.079 1.824 5.376 2.163 6.475.483 1.56-2.76 3.022-6.616 4.72-4.58 2.02-7.88 3.369-15.008 5.137-2.596.643-7.296 1.667-12.26 2.232-4.367.497-11.036.468-14.475.535-2.769.053-14.344-.271-19.321-.976-4.211-.595-9.126-1.282-9.126-3.081 0-1.8.18-6.094.104-7.297z" class="gamma"/><path d="M974.624 712.815c5.035-.72 8.632 2.158 8.632 5.754 0 3.597 3.596 72.648 3.596 72.648 7.193 4.315 7.193 18.7 2.877 18.7s-27.333-2.157-58.98 1.44c-31.65 3.596-54.666 3.596-57.543 7.192-2.877 3.597-8.632 2.158-8.632-.719s-1.438-7.193 0-8.631c1.439-1.439-2.157-71.928-2.877-75.525-.719-3.596 5.035-5.754 6.474-2.877 23.017-7.193 49.63-11.508 58.98-12.947 9.351-1.438 47.473-5.035 47.473-5.035z" style="fill:#c0af9b;fill-opacity:1;stroke:#3a3326;stroke-width:1px;stroke-linecap:butt;stroke-linejoin:miter;stroke-opacity:1" class="delta" transform="translate(170.182 186.887) scale(.12488)"/><path d="M865.47 729.486c-2.022.167-4.235 1.875-3.773 4.188.72 3.596 4.316 74.087 2.877 75.525-1.438 1.439 0 5.754 0 8.631 0 2.877 5.754 4.315 8.631.719 2.877-3.597 25.895-3.595 57.543-7.192 31.648-3.596 54.665-1.439 58.98-1.439 3.91 0 4.278-11.806-1.035-17.236-12.638-1.425-39.222 1.64-57.226 3.57-20.14 2.158-58.262 10.789-58.262 10.789 2.877 5.035-2.156 4.316-2.156 4.316-3.597 9.351-5.755 5.034-2.158-.72-2.158 1.438-2.879 1.08-3.598 1.08-.72 0-1.439-.72 0-2.158 1.439-1.439 2.518-2.158 2.518-5.036 0-2.674-2.034-65.568-2.34-75.037z" style="fill:#3a3326;fill-opacity:1;stroke:none;stroke-width:1px;stroke-linecap:butt;stroke-linejoin:miter;stroke-opacity:1" class="delta--dark" transform="translate(170.182 186.887) scale(.12488)"/><path d="M972.107 784.742c-10.07-.36-32.728 7.193-35.964 7.553-3.237.36-47.113 8.633-63.657 14.027.457.152.794.387 1.035.649.942-.213 38.1-8.242 57.946-10.72 11.56-1.442 45.225-5.1 55.025-4.675 1.08-4.316-4.315-6.474-14.385-6.834zm-104.296 19.781c0 2.878-1.08 3.597-2.518 5.036-1.439 1.438-.72 2.158 0 2.158s1.44.358 3.598-1.08c-3.597 5.754-1.439 10.071 2.158.72 0 0 4.003.562 2.805-2.91-.21.333-.684.441-1.368.031-3.937-1.01-4.719-5.54-4.675-3.955z" style="fill:#fdfdf5;fill-opacity:1;stroke:none;stroke-width:1px;stroke-linecap:butt;stroke-linejoin:miter;stroke-opacity:1" class="delta--light" transform="translate(170.182 186.887) scale(.12488)"/></symbol><symbol id="idefault" viewBox="185 135 190 190"><path class="alpha" d="M244.84 276.23c6.4 3.4 26.88 3.82 32.98 3.29l14.43-1.42c6.6-1.11 23.25-7.05 27.62-10.04l1.46 4.94c-1.2 2.52-22.38 10.67-28.67 10.98l-14.53 1.42c-9.77.24-25.65-.03-33.64-3.32z" style="fill:#a40;stroke:#520;stroke-width:.5"/><path class="beta" d="m279.38 279.3 11.1-1.1.68 6.87-11.1 1.09z" style="fill:#a40;stroke:#dbe2e3;stroke-width:1"/><path class="beta" d="M279.82 282.75c.1-.03 4.41-.53 4.41-.53" style="fill:#1a1a1a;stroke:#dbe2e3;stroke-width:.5"/><path class="alpha--light" d="M270 280.5s5.57 0 6.67-.07c1.1-.08 1.41 4.78.63 4.7-.79-.08-3.53 0-4.86 0-1.34 0-.47-4.55-2.44-4.62zm16.32-.93c-.87.23-1.96 1.72-1.57 1.88.39.15.63 1.02.15 1.49-.47.47-.15 1.88 1.34 1.64 1.49-.23 2.74-.39 3.45-.39.7 0 0-1.02-.55-1.25-.55-.24-1.18-1.73-.63-2.12.55-.4.7-1.65-.08-1.57-.78.08-1.4.24-2.11.32zm10.03-1.65c-3.05.78-3.05 5.72.08 5.1a46.74 46.74 0 0 0 6.51-1.8c-1.33-.09-1.64-4.63-3.53-4.16-1.88.47-2.2.54-3.06.86z" style="color:#000;fill:#d45500;stroke-width:.5"/></symbol><symbol id="ileather" viewBox="185 135 190 190"><path class="alpha" d="M244.29 277.77c5.39 2.4 21.84 3.31 30.79 2.53l21.18-2.07a68.12 68.12 0 0 0 25.66-10.28l1.13 8.57c-1.75 3.7-16.96 9.87-26.18 10.33l-21.34 2.09c-12.08 1.35-22.96-.8-30.1-2.6z" style="fill:#784421;stroke:#28170b"/><path class="beta" d="M277.22 279.1a.87.87 0 0 0-.7.94l1 10.08a.87.87 0 0 0 .95.79l16.3-1.6a.87.87 0 0 0 .78-.96l-.99-10.07a.87.87 0 0 0-.95-.79l-16.3 1.6a.87.87 0 0 0-.1 0zm1.1 1.65 14.59-1.43.81 8.33-14.58 1.43z" style="fill:#dbe2e3;stroke:#b3b3b3;stroke-width:.5"/><path class="beta" d="m284.44 283.78-3.19.38c-.8.1-1.6.17-2.22.25l-.75.09-.25.03c-.03 0-.04.03-.06.03-.02 0 0-.03-.1 0a.5.5 0 1 0 .29.97h.03l.22-.03.75-.1 2.21-.24 3.2-.38a.5.5 0 1 0-.13-1z" style="fill:#dbe2e3;stroke:#b3b3b3;stroke-width:.5"/></symbol><symbol id="iring" viewBox="185 135 190 190"><path class="beta" d="M300.1 283.72c-9.651 2.012-21.84 3.268-28.486 3.101-5.075-.127-19.433-1.587-26.384-3.19.52-2.886-.126-6.073.536-8.408 5.886 2.06 11.96 2.393 21.032 3.169 10.781.922 23.532-.916 27.392-1.758 4.813-1.05 23.06-8.335 25.51-9.114.77 2.002 1.369 5.817 2.003 7.018-3.387 2.24-14.703 7.743-21.603 9.182z" style="fill:#000;stroke:none"/><path class="gamma" d="M284.4 274.12c4.4 0 8 3.6 8 8 0 4.3-3.6 8-8 8-4.3 0-8-3.7-8-8 0-4.4 3.7-8 8-8zm0 2.2c-3 0-5.7 2.6-5.7 5.7 0 3.2 2.6 5.7 5.7 5.7 3.2 0 5.7-2.4 5.7-5.6 0-3-2.4-5.7-5.6-5.7z" style="fill:gray;stroke:none;stroke-width:.5"/></symbol><symbol id="istraps" viewBox="185 135 190 190"><g transform="translate(0 -1)"><path class="alpha" d="M253.5 169.2c-1 .6-2 1-3.3 1.6 3.5 1.5 6.5 8 8.6 18 1.4 7 2 16.8 2.5 28 .3 8 .6 16.6.7 24.7.4 19 .2 35 .2 35h5s.2-16-.2-35c0-8.3-.3-17-.7-25.4-.6-10.8-1.7-20.4-3.3-28-1.6-7.6-6-17.8-9.5-18.8zm56.5 1.3c-3.7 3.3-5.4 8.5-6.8 19.6-1 7-.6 15-.5 23 .3 19.4 1 40.4 1.4 58.8l5-1c-.4-18.4-1.3-38.7-1.8-57.7-.2-7.7-.7-16 .2-23 1.3-9.5 2.2-15.3 5.4-18-1-.4-2.2-.8-3-1.5z" style="stroke:none;stroke-width:5;fill:#000"/><rect class="beta" width="5.9" height="1.4" x="248.2" y="230.3" rx=".6" ry=".6" transform="rotate(-3.224)" style="fill:#b3b3b3;stroke:gray;stroke-width:0"/><rect class="beta" width="5.9" height="1.4" x="299" y="216.6" rx=".6" ry=".6" transform="rotate(-.817)" style="fill:#b3b3b3;stroke:gray;stroke-width:0"/><path class="beta" d="m304.3 272 4.5-1.4c.3 0 .7 0 .8.3 0 .4 0 .7-.3.8l-1.7 2.4-3-.8c-.2 0-.5 0-.6-.4v-.2c0-.3 0-.6.3-.7z" style="fill:#b3b3b3;stroke:gray;stroke-width:.25"/><rect class="beta" width="5.9" height="1.4" x="202.1" y="353.4" rx=".6" ry=".6" transform="rotate(-18.491)" style="fill:#b3b3b3;stroke:gray;stroke-width:.25"/><path class="beta" d="M308.4 274a1 1.3 0 1 1-1.7 0 1 1.3 0 1 1 1.7 0z" style="fill:#b3b3b3;stroke:gray;stroke-width:.25"/><g transform="scale(-1 1) rotate(15.48 1.944 -1828.227)"><path class="beta" d="m304.3 272 4.5-1.4c.3 0 .7 0 .8.3 0 .4 0 .7-.3.8l-1.7 2.4-3-.8c-.2 0-.5 0-.6-.4v-.2c0-.3 0-.6.3-.7z" style="fill:#b3b3b3;stroke:gray;stroke-width:.25"/><rect class="beta" width="5.9" height="1.4" x="202.1" y="353.4" rx=".6" ry=".6" transform="rotate(-18.491)" style="fill:#b3b3b3;stroke:gray;stroke-width:.25"/><path class="beta" d="M308.4 274a1 1.3 0 1 1-1.7 0 1 1.3 0 1 1 1.7 0z" style="fill:#b3b3b3;stroke:gray;stroke-width:.25"/></g></g></symbol><symbol id="iutility" viewBox="185 135 190 190"><path class="alpha" d="M317 273c-10.3 9-51 14-69 5.7v-10c13 3.5 45.7 7.2 68.5-4l.5 8.4z" style="fill:#803300;stroke:#2b1100;stroke-width:1"/><path class="alpha--dark" d="M315.3 264.3c-16.7 8.4-46.3 8.8-65.7 3.8-.6.4-1.6.7-1.6.7 13 3.5 45.7 7.2 68.5-4 0 1.2-1.2-.4-1.2-.4z" style="fill:#a40;stroke:#520;stroke-width:1"/><path class="beta--dark" d="m274 269 .4 14 1 1.3-.2-14z" style="fill:#666;stroke:#333;stroke-width:1"/><path class="beta--light" d="m295.3 269.7-1-.7c-5 0-13.7-.3-20.2 0l1.2 1.2z" style="fill:#999;stroke:#666;stroke-width:1"/><path class="beta" d="m295.3 269.7.2 12.4c-6.4 1.5-13.2 2-20.2 2.3v-14z" style="fill:gray;stroke:#4d4d4d;stroke-width:1"/><path class="alpha" d="M303.4 266.5c0 4 .2 8.2 1.6 12 1.4 4 1.7 6.7 1.7 8.2 0 1.5 1 1.4 2 1 1-.3 3-.4 4.3-.4 1.2 0 3-1 4-1.6 1.2-.6 8.7-3.5 9-4.4.5-.8.6-16 .6-16.6 0-.8-13.6-3-15-2.7-1.2.3-8.3 4-8.2 4.5z" style="fill:#803300;stroke:#2b1100;stroke-width:1"/><path class="alpha--dark" d="M303.5 269c0 3.3 5.3 14.3 5.4 15.2 0 1 2.8.3 3.7 1.6-.4-1.3.2-1.6 1-1 0-2-.2-3.7-.4-4.3 0-.7 1.8-1.4 2 .4 1.7 0 3.6-1.8 4.8-2.2 1.4-.5 6.5.3 6.7-2.4 0-2.8-.5-8.8-.2-10.5.3-1.8-13-4.5-14.7-4-1.8.7-8.6 3.7-8.3 7z" style="fill:#520;stroke:none;stroke-width:.5"/><path class="alpha" d="M303.2 266.2c0 2.2.2 4 1.4 6 3.3 5 12 7.8 13 7.2 1.7-1 2.2-5.2 3-5.5.5-.3 1.6 2.2 3.2 3.2 1 .6 2.5.2 3 0 1-.2 1.5-1 .3-1.6-1-.6-1-2.4-1-3.3.2-1 1.6-7.5.5-8.4-1-1-6.8-1.7-9.2-2-2.5-.2-5.8-.6-6.7-.2-1 .5-7.7 3.3-7.4 4.4z" style="fill:#803300;stroke:#2b1100;stroke-width:1"/><path class="alpha--dark" d="M312.6 276.5c-2.8-.6-5-5-5-5.6 0-.7-.6-1.6-1-2-.2-.2.7-1.3 2-.5 1 .7 3.2.7 3.8.3.6-.5-.6-2.3.3-2.3 1 0 2.3 1.7 1.2 2-1 .6-2.2 6-1.4 8z" style="fill:#520;stroke:none;stroke-width:.5"/><path class="alpha" d="m319 284.8-.2-20.3s-10-2-11.5-1.3c1.3-1 2.6-1 4.3-1 1.7.2 10 1 10.8 1.7.8.5-1.2 20-1.2 20-.3.5-2 .8-2 .8z" style="fill:#a40;stroke:#520;stroke-width:1"/><path class="alpha" d="m246.8 286.5-4.4-.3c-1.4 0-1.8 1-3 .5-1-.6-1.6-1-1.7-2.2-.2-1-.2-17.2-.8-17.5-.7-.3-2.3-.5-2.3-1.4 0-1 1-1.2 2.2-1.2l5.4-.2c2.3 0 3.5-.7 4.8.2.2 5-.3 15.7-.4 22z" style="fill:#803300;stroke:#2b1100;stroke-width:1"/><path class="alpha" d="m239.4 286.7-.8-21.7 8-.2-1.5-.4-7.5.3.6 21z" style="fill:#a40;stroke:#520;stroke-width:1"/><path class="alpha" d="M262.5 267.7c.3 2.8 0 21-1 21.8-2.6-.2-9 .4-11 .5-1.6-.4-7.2-3-8-3.8l.5-21c.5 0 2.7-.7 4.2-.8 1.7-.2 5.2.3 6.2.3s6 .7 9 3z" style="fill:#803300;stroke:#2b1100;stroke-width:1"/><path class="alpha--dark" d="M261.2 268.3s-.8 18.5-1.2 19c-.5.7-8.5 1.3-8.7.4 0-1-1.5-19.2-.7-19.7.7-.4 10.3.3 10.6.3z" style="fill:#520;stroke:none;stroke-width:.5"/><path class="alpha" d="M262.5 267.7c1.4 1.7.7 2 0 1.8-2 0-4 0-4.2.4-2.3 3.2.2 9.7-8 12.4-.6 0-2.6-.2-4.7-1.3-2.8-1.2-1.4-.6-3-3 0-3.8-.2-8.4 0-9.4 0 0-1-1-1-.8-1 0 0-2 .3-2 .4-.2 3.7-1.3 5.2-1.4 1.7-.2 5.2.3 6.2.3s6 .7 9 3z" style="fill:#803300;stroke:#2b1100;stroke-width:1"/><path class="alpha" d="m244.2 287.3.3-21.2 10.5-1.3 2.8.7s-11.3 1-11.6 1.4c-.3.5.6 21.8.6 21.8z" style="fill:#a40;stroke:#520;stroke-width:1"/></symbol></svg>