<svg xmlns="http://www.w3.org/2000/svg"><symbol id="iaum_chest" viewBox="248 165 64 64"><path class="alpha" d="M265.2 196.2c3 2.2 5.8 4.5 6.4 7.3 1.5 6 8.2 0 8-3 0-3.8-3.4-1-4 .3-.5 1-1.7 0-2.2-1.2-.4-1 0-2 0-2 0-.8.6-1 1-1.3 3.5-2 2.2-4.6 1.5-4.5-2 0-3.2 3-4.7 4.5-.7.8-1.7-3-3.3-3.3 2.7-.3 5-2.7 7.3-3 4.5 0 4 3.8 2.6 6.6 3.8-1.7 4.5 1.8 4.5 4.4 0 1.7-1 7.7-6.6 9.3h-2c-3-.7-4.2-3.6-4.4-5.8-.3-2.2-1-2.7-1.7-4 .2 0 1 1.2 1.6 2.4-1-2.5-2.8-4.6-4.4-6.8zm20.8 2.6c-.2.8.3 1.8.5 2.5.2 1 0 1.8 0 1.8-1 2-3-.6-3.2-1.4-.2-1 0-2-1-2.4v-.6c.4.2 1 .3 1.3.8 0-4.6 2.8-7 6-7 7 .4 4.5 11-2 11.5.8-.3 1.5-.6 2-1-1 .2-3.8.6-3 0 1.4-1.7 4.3-3.3 4.3-5.3-.2-2-3.6-3.5-5 1z" style="fill:#454837;stroke:none"/><path class="alpha" d="M277.6 187.8c.7 1 5.3 5 8.3.4.2-.7.8-1 1.7-1 .5 0 1.6 0 1.3 1-1.6 5.5-9.3 6.7-11.4-.4z" style="fill:#454837;stroke:none"/><path class="alpha" d="M280 184c.8.2.8 1 1 2 1 3.2 3.3 2 3.2.2 0-1.3-1.2-2.3-3.8-2.5l.4.3h-1z" style="fill:#454837;stroke:none"/></symbol><symbol id="iaum_left" viewBox="298 157 64 64"><path class="alpha" d="M315.5 187.5c3 2.2 5.5 4.6 6.2 7.4 1.8 5.8 7.3.3 7-2.7-.4-3.7-3-1-3.6 0-.3 1-1.4 0-2-1.2-.4-.8 0-2 0-2 0-.6.4-.8.8-1 3-1.8 1.6-4.4 1-4.3-1.6 0-2.6 2.6-3.8 4.2-.6.6-1.8-3.2-3.2-3.5 2.4-.2 4.2-2.4 6.3-2.6 4 0 4 3.8 3 6.5 3.2-1.5 4 2 4.2 4.4.2 1.6-.3 7.4-5.2 8.7h-1.6c-2.8-1-4-3.8-4.4-6-.4-2-1-2.6-1.8-3.8.3 0 1 1 1.7 2.2-1-2.4-3-4.5-4.5-6.7z" style="fill:#454837;stroke:none"/><path class="alpha" d="M334 186c-1.7 0-2.8 1.8-2.2 5.5-.3-.5-.7-.6-1-.8v.5c.8.6 1 1.5 1.2 2.3.3.8 2 3.5 2.4 2 .2.3 1.7.3 2.3.3-.4.2-.8.4-1.4.5.7 0 1.2 0 1.7-.3l-.7-3.3c-.5 1-1.4 1.6-2 2.5 0 0 .2-.6 0-1.5-.4-.6-1-1.6-1-2.3.2-2.4 1.2-2.7 2-2.3l-1.2-3zm-8.2-6c2 5.5 6 6.6 7.4 4.2-.6-1-1-1.8-1.7-2.6-1.3 3.6-5-.6-5.7-1.7z" style="fill:#454837;stroke:none"/><path class="alpha" d="M327.3 177.5c.3.4.4 1 .6 1.4 1 2.7 2.2 2.2 2 1-.7-1-1.7-2-2.7-2.5z" style="fill:#454837;stroke:none"/></symbol><symbol id="iaum_right" viewBox="198 154 64 64"><path class="alpha" d="m232 178-2 2.2c-.3.8-.4 1.4-.2 1.3 1.3-.4 3-1.7 3.6-.7.3.4-.6 3-2.6 2.7-.3-.2-.6-.3-1 0l-1 1.8c-.3 1-.5 2.7 0 2.2 1-.6 3.4-.8 1.5 2.2-1.5 2.4-6.5 3-4-2.5.5-1 .8-2 1-3.2-1.7 3.4-2.3 7.4-2.5 11.3 2.4 1.3 5.4-2.3 6-3.5 1.4-2 3-5 1-6 1.8-1.4 3.8-4 2.4-6.8-.6-.6-1.4-.7-2.2-1z" style="fill:#454837;stroke:none"/><path class="alpha" d="M234 192.4c-.7.4-1 1.5-1.4 2-.5 1-1 1.4-1 1.4-1.8.8-1.2-2.5-.8-3.2.4-.8 1-1.4 1-2.4l.2-.5c.2.5.4 1 .3 1.5 3-3.3 5.8-3.2 7.5-1 3.5 4.8-4.5 11-8.2 7 .6.4 1 .6 1.7.7-.7-.7-2.5-2.3-1.7-2.3 2-.2 4.4.5 5.6-1 1.2-1.4.3-4.7-3.3-2.3zm2.3-13.6c-.3 1.2-.3 7 4 5.7.7-.3 1.3 0 1.7.5.3.4.8 1 0 1.5-4.2 3-9-1-5.7-7.7z" style="fill:#454837;stroke:none"/><path class="alpha" d="M239.8 177.5c.4.7-.2 1.4-.6 2.3-1.4 3 .5 3.5 1.5 2.2 1-1 1-2.5-.4-4.4v.5c0-.2-.3-.4-.5-.5z" style="fill:#454837;stroke:none"/></symbol><symbol id="ichaos_chest" viewBox="248 169 64 64"><path class="alpha" d="M279.8 180.5c-1.2 1.8-2.3 4-2.2 6.6 1.2.7 1.4 1.6 1 2-.5.4-1.6-.7-1.7-2.5-1 2 0 4.8 1 6 0-1.3 1.2-1.6 1.7-1 .4.8-.3 1.7-1 1.7.5 1 0 2.2-1 2.8.8 1 .7 1.4.5 1.5-.5.3-1-.8-1.3-2.2-1.2.3-1.5-.6-1.7-1.2-.2-.5-.3-1-1-2 .4 1.4 0 2.5-1 2-.8-.6-1.2-2-4-3 .3 2.2 1.3 3.2 2 3.8.5.6 1.2 1 1.2 1.4 0 .3-.7.6-1.6.7 2 0 3.6.2 3 1.6 1-.2 2 .7 2.3 1.2.8-.7 1.5-.2 1.4.7 0 .5-.5.7-1 .6-.2 0-.7-.2-.5-.7-1.6.2-2.6-.4-3.7-1.4-1-1-3-1.8-4.5-1.8 1.2.7 4.2 3 2.8 3.4-1 .3-1.5-.8-1.2-1.5-3.4-.4-7.7.5-11 2.6 2.4-.4 10-.7 10 .7 0 .8-1 1-1.8.8 1.2 1.5 3 1.5 4.3.7-1-.2-1-1-.2-1 1.2 0 1 .8 1 1 .8 0 1.8-.7 2-.4.3.2-.2.4-.5.5 2.3.4 2.7-1 3-.4.3 0 0 .3-.5 1-.6.5-1.5 1-.8-.3-2 1-5 3.8-6 8.4 1.7-2 5.3-5.2 5.6-5 .2.3-1 2.4-1 2.4.8-.8 1.3-1.3 1.5-1.2.2.2 0 1.2-.2 1.4 1-.6 1.6-2.2 2-2 0 0 0 1-.4 1.5.7-.5 1.5-1.7 1.2-2.7-.2-.8 0-1.2.4-1.6 0 .4 0 2 .5 3 0-.8 0-1 .4-1 .2 0 .2 1.2-1 3-1 1.7-1.5 3-1 5.5.5-1.5 1-2.3 1.2-2.7.8 1.2 0 3.6 1 4.7.2-.5.7-1.2.5 1 .5-1 .6-1.2 1-1 0 0-.5 3.6-1 5 2.5-3.3 4-6 2.6-11.6-.4 1.8-1.2 3-1.5 3-.2-.4.4-1.6.3-3.3 0 .3-.4 1-.6.8-.2-.2.3-2 .7-2.7.7-1.4.6-2.8.8-2.8.2 0 .4 1.5 1.4 2.2-.4-.8-.5-2-.2-2s1 3 2.5 3.6c-.3-.3-.6-.7-.2-.8.4-.2 2.4 2.4 2.8 3 0-.7 0-1.4 2.2.5-.6-1.3-1.7-2.8-.2-2.4-2-1.2-3.3-2.3-3-2.6 0-.2.6 0 .8 0-1-1.6-3.6-2.3-3.4-2.6 0-.4 1 .2 1.5.5-.8-1-1.8-1.5-2.4-2 0-.2 1.3.3 1.8.6 1-1 2.6-.7 2.6-.3 0 .3-.7.3-1 .2 2 1.4 5.2.6 6.4-1-1.2.8-2.3.5-2.4-.2-.8 0-1.2 0-1.2-.4 0-.3.8-.4 1.4-.2 1-1.2 3.5-2.2 9.5-.4-4.7-4.5-9.5-3.8-12.5-2.4 1.3 1 .8 1.8-1 2-2.2 0-3-1.4-3-1.4l-.5.2c0 .6-.6 1-1 .5-.2-.5.2-1 .8-.8.7-.3 2.5-1.3 3-2.3-1 .5-1.6.7-1.7.5-.2 0 .6-1 2.2-1.8s2.7-2.2 3-3c-1 1-1.4 1-1.7 1-.2-.4 1.2-2.6 2.6-3.4-2.8.4-3.8 2-4.5 2.7-.7.7-1 1-1 .7-.3-.2.5-1 .8-1-2.3.6-3.2 2.6-3.5 3.5-.3.8-1 1-1.3 1 .4.5-.4 1-1 .6-.3-.3 0-1.2.8-1 .5-1 1.7-1.2 2-3.5-.5 1.2-1.6 2.2-2 1.8-.6-.5 0-1.8.8-2.6-1-.7-.8-2-.3-2s.4.5.5 1c1-1 .7-5-.7-7 0 1.3-.3 2.7-.6 3 .3.4 0 1-.4 1-.5 0-.8-.7 0-1.2-1-2.7-1-5.8-.8-7.5zm-.5 1.6c0 1.7 0 4 .6 6-.7.5-.3 1.6.6 1.5.4 0 .7-.2 1-.5 0-.3 0-.5-.2-.8 0-.3.3-.7.4-1 .5 1.3.6 2.7.5 4 0-.5-1-.5-1-.3-.6.3-.3 1.8.3 2.3-.5.6-1.4 2.3-.7 3 .3.3 1-.2 1.3-.4-.3.3-1 1-1.2 1.4-.8-.2-1 1-.6 1.4.6.7 1.7.2 1.4-.7.4 0 1-.3 1.3-1l1.2-1.8.8-.7v.2l.6.2c.2 0 .3-.2.4-.3l.8-.8c.5-.6 1-1.3 2.5-2l-.6.6-.6 1v1.1l.7.2c-.5.5-1 1-2 1.3-.8.5-2.5 1.5-2.5 2.3 0 .4.5.4 1 .3-.5.3-1.4 1-2 1-1 0-1 .7-.7 1.4.4.6 1.5 0 1.6-.5h.3c.6.8 1.7 1 2.8 1.2 1.4 0 3-.8 2.3-2.2 2.8-1.2 5.8-.8 9 1-2.4-.5-5.8-.5-7.4 1.2-.7 0-1.6 0-1.7.7 0 .8.7.8 1.3.8.2.3.5.6 1 .6-.8.5-2.3.7-3.3.3.6-.6-.5-1-1.2-1-.4 0-1 0-1.6.3-.7-.3-2.3-.8-2.6.2l1.4.8c-.4 0-.6.3-.4.6.8.7 2 1 3 2-1.4.4 1.4 2.4 2 3 0 .4.2 1 .4 1.2-.5-.3-1-.4-1.4-.4-.7-1-2.2-3-3-2.2l-.7-1c-.2-.5-.5-1.6-1-1.7-.3-.2-.6 0-.6.5 0-.4-.2-1-.6-1-.7 0-.7 2-1.2 3.2-.2.7-1 3-.5 3.4.2.2.5 0 .7 0-.2 1-.5 2.2 0 2.5.3.2 1.4-1 1.6-1.6.5 3.2-.2 5-1.5 7.4 0-1.5.4-3.4 0-4-.2 0-.6.5-.7.7 0-.6-.3-1-.8-.5-.2-.6-.2-1.2-.2-1.8 0-1-.5-2.2-.8-2.6-.2.2-.8 1-.8 1.5 0-1 .6-2 1.2-3.2.4-1 1-2 .8-3 0-.5-.5-.8-1-.6v-2.3c-1 0-1.5 1.3-1.2 2.2 0 .4.2.7 0 1 0-.3-.3-.5-.5-.3-.5.2-.6.8-1 1l-.7-.2c.2-.2.2-.7 0-1-1-.3-3.8 2.4-4.7 3.3 1-2.3 2.3-4 4.2-5.4 0 .8 1 0 1.5-.4.5-.5 1-1.2.7-1.4-.4-.6-1.5.7-2.5.4.4-.5.2-1-.3-1l-1.8.6c0-.7-.6-1-1.3-1-1.2 0-1.6 1-1.2 1.4-.5.2-1 0-1.5 0 .4-.3.8-1 .6-1.6-.6-1.6-6.7-1.3-8.3-1 3-1.4 5.7-2 8.5-1.6-.5 1.4 1 2.2 2 1.6 1.2-1-.8-2.5-2-3.3 1.4.2 2.6 1 3.2 1.6 1.4 1 2 1.2 3.4 1.2-.2 1 1.7 1.3 2 .3.4-1 0-2-1.5-1.5-.3-.3-.8-1-1.7-1.2-.3-.8-1-1.2-1.8-1.4.4-.8-.7-1.5-1.3-2-.5-.6-1.3-1.3-1.5-2.7 2 .4 2.3 1.5 3.2 2 .7.6 1.4.5 1.6-.2.3 1 .5 2 1.8 2 0 1 1 2.8 2 2.2.4-.3 0-1.3-.5-2 1-.5 1.5-1.4 1.3-2.6 1-.4 1.2-1.5.7-2.2-.4-.7-1.7-.6-2 0-.5-.7-1-1.7-1-3 .3.8 1 1.6 1.7 1.2 1-.6.3-2.3-.7-2.6 0-2 .6-3.3 1.3-4.7z" style="fill:#22280b;stroke:none"/><path class="alpha" d="M280.2 201c-.7 0-1.3.3-2 .7-1.3.8-2 .4-3.2 0 .5.2 1.2.6 2.4.8.5.6 1.3 1.4 2.6 1.4 1.2 0 2-.6 2.3-1.8.2 0 1.3 0 1.7-.3 0 0-1 .4-2.2-.5-.6-.3-1-.5-1.6-.5zm-.2.4c1.2 0 1 1.2.4 1.5.5-.3.8-.6 1-1.2h.4c-.3 1-1 1.6-2 1.6-.7 0-1.3-.5-1.8-1.2l.7-.3c0 .3.3.7.8 1-.6-.4-.7-1.6.5-1.6z" style="fill:#22280b;stroke:none"/><path class="alpha" d="M279 183.8c0 .2-.4 1.5-.5 2.7.5.4.6.7 1 1.3-.3-.4-.6-3.3-.5-4zm0 1v2l-.3-.4.2-1.5zm2.8 4.2c-.7 1-1.8 1.2-2.4 0-.6 1-1.3 1.2-2 .5 0 .3.4.8.6 1 1-.6 2.2.2 2.5 1 0-1 1-1.3 1.4-1.2 0-.3 0-1-.2-1.3zm-2.4.6c.3.4.7.6 1.2.6.4 0 .7-.2 1-.5v.3c-.4 0-1 .3-1.2.8-.2-.3-.4-.5-.7-.6l-.8-.2.4-.4zm.3 22.6c0 .2 0 1-.6 1.4.3 1 0 1.7.3 2.4.3 0 .7 0 .8.2.8-1 1.4-.2 1.4 2 .4-1 .7-3.2.6-4.3-1.3 1.6-2.6.8-1.7-1.3-.3 0-.4-.2-.6-.5zm0 .8h.3c-.6 1.6 0 2.5 1.7 1.8 0 .5 0 1-.2 1.5-.2-.6-.8-1-1.4-.6l-.5-.3v-1.8l.3-.6z" style="fill:#28170b;stroke:none"/><path class="alpha" d="M274.3 205.5c-1.2.8-2.4 2.3-3 3.6 1-1 2-1.7 2.8-2-.4-.3-.5-1 .3-1.5zm-.5 1.4c-.2 0-1.2.6-1.7 1 .5-.7 1.2-1.4 1.6-1.7 0 .2 0 .5.2.6z" style="fill:#22280b;stroke:none"/><path class="alpha" d="M280.2 202a.3.3-.6 1 1-.5 0 .3.3-.6 1 1 .5 0z" style="fill:#28170b;stroke:none;stroke-width:1"/><path class="alpha" d="M270.6 192.5c0 1.3 3 2.8 2.6 4 1 .3 1.7.6 1.7 1.5.3 0 1 .3 1.4 1 1.5-.4 2 1 1.6 2-.5 1-2 1-2.4 0-2.2 0-3.3-1.4-4.6-2 2 1.3.6 2.6-.4 2.6s-2-.6-2-1.8c-2 0-3.6 0-5.4.6 1 0 3.5 0 5 .7 1.6.7 1 2 .6 2.4h.6c0-.5.2-1.5 1.3-1.5 1 0 1.4 0 1.8.8 2-.8 2.3-.4 2.4 0 .5-.2 1 0 1 0 1-.2 1.2.3 1.2.6 0 .5-.6 1.3-1.8 2 .8 0 1 .8 0 1.3.2.2 0 .6 0 1 0-.3.4 0 .5 0 0-.3.6-1 1-1-.4-1.4.3-2.6 1.2-2.6.6 0 .6.4.6 2.3 1.4 0 1 2 .5 3.5.5-.8.5 0 .5 1 0-.6 1-3.7 1.2-5 .2-1 1-.7 1.3 0 1-.7 1.7 1 2.4 2.3.3 0 1 0 1.6.6.7.6 1 1 1.5 2 0-.2.3-.3.7 0l-.2-1s0 .2-1.3-1c-1.4-1-1-1.6-.8-1.7-.2-.2-.7-.6-1.8-1.2-1-.6-1-1.2-.8-1.4-.3-.3-1-.7-1.4-.8.7-1.4 2-1 3.2-.5.2 0 .6-.4 1.6-.4 1.3 0 2 .7 2 1.3.3 0 1.2 0 1.7-.2-2.5-.6-2.6-2 0-2.5 1.6-1.6 4.3-1.6 5.8-1.3-1.4-.7-4.5-1.2-6.6-.2.4 1.6-1.8 2.3-3 2.3s-1.7 0-2.6-1h-.3c-.5 1-2 .5-2-.7 0-1.3 1.5-.8 2.2-1.4-.8-.6-.3-1 .8-2.2 1.2-1 2-1.3 2.8-2-.6 0-.3-1 0-1.5-.4.2-.8 1-1 1.3-.3.4-.6.6-1.4.6 0 .2.3.7-.3 1.2-.5.6-1 .4-1-.2-.3.2-.4.7-.5 1 0 .3-.5 1-1.3 1-.2 1-1 1.5-1.8 1s-.8-2.2.6-2c0 0 0-.4.3-.6-1.3 0-1.2-1.3-.3-3l-.4-1.2c0 .3-.4.8-1 1.2.3 1 0 1.8-1 2.6.8 1.5.4 2.3-.4 2.3-1 0-1.6-1-1.8-2.2-.8 0-1.3-.6-1.7-1.5-2.2.4-2.4-1.8-4-2.3zm10 .6c0 .3 0 .5.2.7-.5.8-.7 1.5-.7 2s.5 1 1 1c0 0 0 .2-.2.3-1.5 0-1.4 1.8-.5 2.4 1 .6 1.8 0 2-1 1 0 1.3-1 1.6-1.6 0 .2.3.2.5 0-.5.7-1.2 1.2-1 2-.2.4-1.8 0-1.8 1.5 0 1.3 1.4 2 2.4 1h.3c.7.7 1.2 1 2 1-.4 0-.7.3-1 .5-1-.5-2.5-1-3.4 1 .3 0 1 .4 1.2.6-.3 1 1.5 2 2.5 2.5v.8h-.8c-.6-1-1.6-2.8-2.5-2.5-.8-1-1.6-.5-1.8.4l-.7 3.4s0-.2-.2-.2c.3-1 .4-2.6-.7-3 .2-.8.3-2-.8-2-1.4 0-1.7 2-1.7 2.7l-.5.6h-.2v-.3c.5-.4.6-1 0-1.5.7-.4 1.7-1.3 1.7-2 0-.6-.8-.6-1.3-.5 0 0-.8-.3-1.2 0-.2-.7-1.7-.7-2.4-.4 0-.3-.6-.6-1-.6.4-.2.8-1 .6-1.6.6.7 2 1.3 3.4 1.4.3.3.8.6 1.3.5.5 0 1-.4 1.3-1 .3-.4.3-1 0-1.6-.4-.5-1-.8-1.8-.7-.5-.5-1-.8-1.4-1 0-.3 0-.6-.4-1-.3 0-1-.2-1-.4 0-.3-.4-1-.7-1.2-.4-.2-2-1.7-2.2-2.3 1.2.5 1.8 2.4 3.7 2.3l.7 1 1 .5c0 .6.4 1 .7 1.5.2.4.7.7 1.2.7.4 0 1-.3 1-.7.2-.5 0-1-.4-1.8.7-.7 1.3-1.5 1.2-2.5l.5-.6zm6.7 1.3v.6l-1.7 1v-.6c.7 0 1-.3 1.4-.7l.3-.4zm5.8 5.3h1.3-.7c-1 .3-2 .7-3 1.5 0 0-.4 0-.6.2.3-.3.3-.8.2-1.2 1-.3 2-.4 3-.4zm-24.6.5c0 .3 0 .7.3 1-.7-.5-1.5-.6-2.5-.8h2.2zm.8 1.4.8.4c-.2 0-.3.2-.4.4 0-.3-.2-.5-.4-.8zm19.5.6c-.2.2-.2.5-.2.7-.3-.2-.7-.4-1.2-.4.5 0 1 0 1.4-.3zm.4 1.4.8.3h-.6v-.3zm-1.8 5.8c.3.2.6.5 1 .6v.4h-.3l-.8-1z" style="fill:#22280b;stroke:none"/><path class="alpha" d="M274.7 205.8c-.2 0-.4 0-.5.3v.3s-.2 0 0 .2l.3.2s.3 0 .5-.2c.2 0 .4-.2.5-.3v-.2c.2 0 .2 0 .2-.2h-.2c0-.2 0-.2-.2-.2s-.4 0-.6.2zm0 0h.8v.3l-.6.3h-.7l.5-.4z" style="fill:#22280b;stroke:none;stroke-width:.25"/><path class="alpha" d="m279.5 210-.6 1v2c.6 0 .6-2.2.5-3zm-.2.6v1.6c-.2-.4-.2-.8-.2-1.3l.3-.4z" style="fill:#28170b;stroke:none"/><path class="alpha" d="M278.6 211.2v.7l-.3-.3c0-.2.3-.4.3-.5z" style="fill:#000;stroke:none"/><path class="alpha" d="M284.4 195.7v.7c0 .2 0 0 .2 0s.3-.2.4-.4v-.7c0-.2-.2 0-.2 0h-.2l-.2.4zm.2 0s0-.2.2-.3v.4l-.2.4v-.4z" style="fill:#28170b;stroke:none;stroke-width:.25"/><path class="alpha" d="M278.5 201.3c.6-.6 2-1 3.3 0-.6-.8-2-1.4-3.3 0z" style="fill:#22280b;stroke:none"/><path class="alpha" d="M278.8 200.8c.5-.4 1.6-.8 2.7 0-.5-.6-1.6-1-2.7 0z" style="fill:#22280b;stroke:none"/><path class="alpha" d="M279.3 200.2c.3-.2 1-.5 1.5 0-.2-.3-1-.7-1.5 0z" style="fill:#22280b;stroke:none"/></symbol><symbol id="ichaos_left" viewBox="298 164 64 64"><path class="alpha" d="M328.5 179.3c0 .4 0 1 .2 1.4.8.4 1 1.2 1 1.6-.3.5-1.2-.4-1.5-2-.2 2 .8 4.4 1.6 5.5-.2-1.3.5-1.6 1-1 .3.6 0 1.6-.6 1.6.6 1 .4 2 0 2.8.6.8.6 1.2.5 1.4-.3.3-.7-.7-1-2-.7.4-1-.4-1.3-1-.2-.5-.4-1-1-1.8.5 1.3.5 2.3-.2 1.8-.7-.4-1-1.7-3-2.3.6 2 1.3 3 1.8 3.4.4.6 1 .8 1 1 0 .5-.3 1-1 1 1.4 0 2.4 0 2.3 1.3.6-.2 1.3.5 1.6 1 .3-.8.8-.4.8.4 0 .5 0 1-.5.8 0 0-.4-.2-.4-.8-1 .4-1.8 0-2.6-1-.7-.6-2-1.3-3-1 .8.5 3 2.4 2.3 2.8-.7.5-1-.5-1-1.2-2.3 0-4.7 1-6.4 3.5 1.4-.7 6-1.7 6.2-.3 0 .7-.4 1-1 1 1 1 2 1 2.8 0-.7 0-1-.8-.3-1 .7 0 .7.7.7 1 .6-.2 1-1 1.2-.7 0 .2 0 .5-.3.6 1.5.2 1.5-1 2-.7 0 .2 0 .4-.4 1-.3.6-.8 1-.6 0-1 1-2.5 4-2.2 8.4.6-2 2.3-5.4 2.6-5.2.2.2-.2 2.3-.2 2.3.4-.8.6-1.4.7-1.3.2 0 0 1.2 0 1.4.7-1 .7-2.4 1-2.4v1.6c.4-.5.6-1.8.3-2.7-.2-.7-.2-1.2 0-1.6 0 .4.3 1.8.8 2.7 0-.7-.2-1 0-1 .3 0 .5 1.2 0 3-.3 1.8-.5 3 .3 5.4 0-1.4 0-2.2.2-2.6.6 1 .5 3.4 1.4 4.3 0-.4.2-1.2.4 1l.3-1.2c.2 0 .4 3.6.4 5 1-3.4 1.5-6.2-.3-11.4 0 1.8-.3 3-.5 3-.3-.3 0-1.5-.4-3 0 .2 0 .8-.3.7-.2 0 0-2 0-2.6.2-1.3 0-2.6 0-2.7 0 0 .4 1.4 1.2 2-.4-.8-.6-1.8-.4-1.8.3 0 1 2.6 2.2 3-.3-.2-.5-.5-.3-.7v-.4h-.4l-.6-.8c-.3-.5-.7-1.4-1-1.5-.2 0-.3.4-.3.7 0-.4-.3-1-.5-1-.4.2 0 2-.2 3.3 0 .7-.2 3 .2 3.3h.4c0 .7 0 2 .3 2.2.2.2.7-1 .7-1.6.8 3 .7 5 .2 7-.2-1.3-.4-3-.7-3.6-.2 0-.3.5-.3.7 0-.6-.5-1-.7-.4l-.4-1.7c-.2-1-.7-2-1-2.5l-.3 1.4c0-1 0-2 .3-3.2 0-1 .2-2 0-3 0-.5-.4-.7-.7-.5l-.4-2.2c-.7.3-.8 1.6-.5 2.4 0 .3.3.6.2 1 0-.4-.3-.5-.4-.3-.2.4-.2 1-.5 1.3 0-.3-.2-.3-.4-.3 0-.3 0-.8-.2-1-.6-.2-2 2.7-2.3 3.6 0-2.3.6-4.2 1.6-5.6 0 1 .7 0 1-.5 0-.4.2-1.2 0-1.4-.3-.4-.7 1-1.4.8.2-.5 0-1-.3-.8-.4 0-.8.4-1 .6-.3-.7-.6-1-1-.8-.7 0-1 1-.5 1.4-.3.3-.6.2-1 0 .3-.2.4-1 .2-1.4-.6-1.4-4.3-.5-5.3-.2 1.6-1.5 3.3-2.4 5-2.3 0 1.4 1 2 1.5 1.3.5-1-1-2.3-1.7-3 .8 0 1.7 1 2 1.2 1 1 1.6 1 2.4 1 0 .8 1.2 1 1.3 0 0-1-.4-2-1.2-1.3-.2-.3-.6-1-1.2-1-.3-1-.8-1.2-1.4-1.3.2-.7-.6-1.3-1-1.8-.5-.4-1-1-1.4-2.4 1.2.4 1.6 1.3 2.3 1.8.6.4 1 .3 1-.4.4 1 .7 2 1.5 1.8.2.8 1 2.5 1.5 1.8.3-.4-.2-1.2-.6-1.8.5-.7.6-1.5.4-2.6.5-.6.4-1.6 0-2.2-.4-.7-1-.5-1.2.3-.5-.7-.8-1.7-1-2.8.2.5.8 1.3 1 .8.7-.7 0-2.2-.7-2.4-.2-.3-.2-.6-.2-1 0 0-.2 0-.3-.2zm1.7 1.6v.2c-.2.7.2 1.6.7 1.5l.3-.4-.2-.3c0 .2 0 .3-.2.3s-.5-.5-.2-1c-.2 0-.3-.3-.4-.4zm2 2.6v.5c0-.4-.6-.2-.7 0-.2.4.2 1.8.7 2.2-.3.6-.5 2.3 0 3 .3.2.6-.4.8-.6-.2.4-.5 1.2-.5 1.6-.6 0-.6 1-.3 1.4.6.5 1 0 .8-.8.3 0 .6-.5.7-1.2 0-.4 0-1 .4-1.8 0 0 0-.2.2-.2l-.2-.5c-.4 1-.5 2-.6 2.5 0 1-.4 1-.6 1 .4.6 0 1.2-.4 1-.3-.4-.2-1.3.3-1 0-1.3.8-1.5.7-3.7-.2 1-.7 2-1 1.8-.5-.4-.3-1.7 0-2.5-.7-.5-.8-1.8-.5-1.8.2 0 .2.4.3 1 0-.3.2-.7 0-1v-.6zm2.7 6c-.4.3-.5.7-.5 1 0 .5.4.4.6.3 0 .3-.5 1-1 1-.4 0-.5.8 0 1.4.2.6 1 0 .8-.6.4.4.8.7 1.2.8v-.4c-.8-.3-1-1-1-1l-.5.3c.2.6-.2 1-.4.7-.2-.5 0-1 .4-1 .2 0 .6-.5 1-1 0-.3 0-.5-.2-.7 0 0-.3.2-.3 0-.2 0 0-.2 0-.5v-.5zm1.4 5.5c0 .2-.2.3-.3.4-.4-.2-1.5-.5-1.5.4l1 .6c-.3 0-.3.4-.2.6.5.6 1 1 1.6 1.2l-.2-.5c-.6-.4-1.2-.7-1-.8 0-.4.7 0 1 .3-.6-1-1.4-1.3-1.8-1.6 0-.4.8 0 1.2.3 0-.2.2-.3.3-.4v-.5z" style="fill:#22280b;stroke:none"/><path class="alpha" d="M332.5 193.7c-.4 0-.8.4-1 .8-.8 1-1.3.7-2 .3.2.3.7.6 1.5.6.4.6 1 1.2 1.8 1 .8 0 1-.6 1.2-1.8 0 0 .8 0 1-.4 0 0-.6.5-1.4-.2-.4-.3-.8-.3-1-.3zm0 .4c.7 0 .8 1 .5 1.5.2-.2.3-.6.3-1h.3c0 1-.3 1.4-1 1.5-.4 0-1-.3-1.3-1 0 0 .3 0 .4-.3 0 .4.4.8.7 1-.4-.4-.7-1.4 0-1.6z" style="fill:#22280b;stroke:none"/><path class="alpha" d="M329.2 179.8v.3l.7 1.2-.3-1h-.2l-.3-.4zm2.4 2.2c-.3 1.2-1 1.4-1.5.4 0 1-.5 1.2-1 .6l.5 1c.5-.8 1.4 0 1.7.6 0-1 .3-1.4.7-1.3l-.4-1.2zm-1.4 1c.2.2.5.4.8.3.2 0 .4-.2.6-.5v.2c-.3 0-.5.4-.6 1 0-.3-.3-.5-.5-.6h-.5c0-.2 0-.3.2-.5zm3.8 21.4c0 .3 0 1-.2 1.4.3 1 .2 1.7.5 2.3.2 0 .5 0 .6.3.2-1 .6-.4 1 1.8 0-1 0-3-.3-4-.6 1.6-1.5 1-1.3-1-.2 0-.3-.2-.5-.6zm.2.8c0 1.6.5 2.4 1.4 1.5l.2 1.5c-.3-.6-.7-1-1-.4l-.5-.3c0-.5 0-1-.3-1.7 0-.2 0-.5.2-.6z" style="fill:#28170b;stroke:none"/><path class="alpha" d="M329.6 198.6c-.7 1-1 2.5-1.4 3.8.5-1.2 1-2 1.5-2.4-.4-.2-.5-.7 0-1.4zm0 1.4c-.2 0-.8.8-1 1.2 0-.6.5-1.5.6-1.8 0 .2 0 .5.3.6z" style="fill:#22280b;stroke:none"/><path class="alpha" d="M332.7 194.6a.3.2 80.6 1 1-.4 0 .3.2 80.6 1 1 .4 0z" style="fill:#28170b;stroke:none;stroke-width:1"/><path class="alpha" d="M331.4 185.4c0 .4 0 .8-.4 1.3.3 1 0 1.7-.2 2.5.7 1.4.5 2.2 0 2.3-.4 0-1-.8-1.4-2-.5 0-1-.4-1.3-1.2-1.2.6-1.6-1.4-2.8-1.7.3 1.2 2.3 2.4 2.3 3.5.7.3 1 .5 1.3 1.4.2 0 .6.2 1 .7 1-.4 1.5.8 1.3 2 0 1-1 1.2-1.4 0-1.3.4-2.2-.8-3-1.4 1.4 1.2.7 2.6 0 2.7-.6 0-1.2-.4-1.4-1.6-1.3.2-2.2.5-3.3 1.2.5-.2 2-.5 3.2 0 1 .5 1 1.7.7 2.2h.2c0-.5 0-1.5.6-1.7.6 0 1 0 1.2.7 1-1 1.4-.6 1.5 0 .3-.5.7-.4.8-.3.5-.4.7 0 .7.3 0 .5 0 1.3-.8 2 .6 0 .7.7.3 1.4v1c0-.4.3-.3.4 0 0-.5.2-1 .4-1-.4-1.5-.2-2.8.4-3 .3 0 .4.4.7 2.2.8-.3 1 1.8.8 3.2.3-.8.3 0 .5 1v-5c0-1 .4-.8.8-.2.4-.7 1 .8 1.8 2h.7v-.4h-.5c-.5-.8-1.4-2.4-2-2-.5-1-1-.3-1 .5 0 1.2 0 2.3.2 3.4 0 0 0-.2-.2-.2 0-1-.2-2.6-1-2.7 0-1 0-2-.8-2-.8.3-.7 2-.6 2.8v.6c-.2-.2-.2 0-.2 0v-.4c0-.4 0-1-.3-1.4.4-.5.8-1.4.7-2 0-.7-.6-.6-1-.4 0-.2-.5-.3-.7 0-.2-.6-1-.4-1.5 0 0-.4-.5-.6-.8-.6.3 0 .4-1 .2-1.5.5.4 1.5 1 2.3.8.2.3.6.5 1 .4.3-.2.5-.5.6-1 .2-.5 0-1.2-.3-1.6-.2-.5-.7-.7-1-.6-.5-.4-1-.6-1.2-.6 0-.4-.2-.7-.4-1-.3 0-.6 0-.8-.3 0-.4-.3-1-.6-1.2-.2-.2-1.4-1.5-1.6-2 .8.3 1.5 2 2.7 1.8l.7.8c.2.2.4.4.6.4l.7 1.4c.2.4.6.6 1 .6.2 0 .4-.4.4-1 0-.3-.2-1-.5-1.5.2-.8.4-1.6.2-2.6l.2-.6c0 .3.2.5.3.7-.2.8-.2 1.5 0 2 0 .4.3 1 .6 1-1 .3-.6 2 0 2.5.7.4 1-.2 1.2-1 .5-.4.5-1.2.6-2 .2.3.4.2.5.2-.2.5-.6 1-.3 1.8 0 .5-1 .3-1 1.7.4 1.2 1.3 1.7 1.8.7.5.4 1 .6 1.2.6v-.3c-.4 0-.6-.2-1-.7h-.3c-.3 1-1.3.7-1.5-.4-.3-1.4.8-1 1-1.7-.5-.4-.2-1 .3-2v-.4c-.4.4-.7.3-.8-.3v1c0 .4-.2 1-.7 1.2 0 .7-.4 1.3-1 1-.5-.4-1-2 0-2 0-.2 0-.4.2-.6-.8.2-1-1-.7-2.7 0-.4-.3-.7-.4-1.3zM325 194c0 .3.2.6.4.8-.5-.3-1-.4-1.7-.4l1.4-.3zm11.3.5c-.2 0-.3.2-.4.4-.8-.5-1.8-.8-2 1.2.3 0 .7.3 1 .5 0 1 1 1.6 1.8 2 0 .2 0 .6.2.8v-1c-.3 0-.6-.3-1.2-.6-.7-.6-.8-1.2-.7-1.4 0-.3-.6-.6-.8-.6.2-1.5 1-1 1.8-.8l.3-.4v-.3zm-10.5.8.5.2s0 .3-.2.4c0-.3 0-.5-.2-.8z" style="fill:#22280b;stroke:none"/><path class="alpha" d="M330 198.8c-.3 0-.3.2-.4.4v.4h.5l.2-.4v-.6h-.2s-.2 0-.3.2zm0 .2s0-.2.2-.2h.2v.2l-.3.3s0 .2-.2.2v-.5z" style="fill:#22280b;stroke:none;stroke-width:.25"/><path class="alpha" d="m333.5 202.4-.2 1 .4 2c.3-.3 0-2.3-.2-3zm0 .6z" style="fill:#28170b;stroke:none"/><path class="alpha" d="M333.2 203.6v.7l-.2-.2s0-.3.2-.4z" style="fill:#000;stroke:none"/><path class="alpha" d="M334.2 188.2v.6h.2c.2 0 .2-.3.2-.4v-.9h-.2v.2l-.2.4zm.2 0v-.5.4z" style="fill:#28170b;stroke:none;stroke-width:.25"/><path class="alpha" d="M331.5 194c.3-.4 1-1 2 0-.5-.8-1.4-1.3-2 0z" style="fill:#22280b;stroke:none"/><path class="alpha" d="M331.6 193.7c.2-.5.8-1 1.7-.2-.4-.6-1.2-1-1.7.2z" style="fill:#22280b;stroke:none"/><path class="alpha" d="M331.8 193c.2-.2.5-.5 1 0-.2-.4-.7-.7-1 0z" style="fill:#22280b;stroke:none"/></symbol><symbol id="ichaos_right" viewBox="198 164 64 64"><path class="alpha" d="M231.8 178c0 .2 0 .3-.2.4v3.5c-.5.4-.4 1.5.2 1.5.2 0 .4 0 .5-.5v-.7l.4-1c.2 1.3 0 2.7 0 4 0-.6-.6-.6-.7-.4-.4.2-.3 1.7 0 2.2-.4.5-1 2-.7 2.8.2.4.6 0 1-.3-.4.4-1 1-1 1.4-.6 0-1 1-.6 1.4.3.7 1 .3 1-.5.2 0 .6-.4.8-1l1-1.8c0-.2.2-.4.4-.6v.2s0 .2.2.2c0 0 .2 0 .3-.2.2 0 .3-.4.6-.7l1.8-1.6-.4.6-.5 1-.2.3v.5l.3.2c-.2.5-.7 1-1 1.2-.8.4-2 1.2-2 2 0 .4.3.4.6.3-.3.3-1 .8-1.3.8-.5 0-.8.7-.6 1.4.2.6 1 .2 1-.4h.2c0 1 .8 1.2 1.4 1.4.8.2 2-.7 1.6-2 1.8-1 3.6-.4 5.3 1.6-1.3-.7-3.4-1-4.5.6-.4 0-1-.2-1 .5-.2.7.3.8.6.8 0 .4.3.6.5.7-.6.4-1.5.5-2 0 .3-.6-.3-1-.7-1.2-.3 0-.7 0-1 .3-.4-.2-1.4-.8-1.6 0 0 .3.4.7.7 1-.2 0-.4.2-.3.5.5 1 1.3 1.3 1.7 2.2-.8.4.6 2.5 1 3v1.3c-.2-.4-.6-.5-.8-.5-.4-1-1-3-1.6-2.3l-.4-1c0-.6-.2-1.6-.5-1.8-.2 0-.4.2-.4.5 0-.4 0-1-.2-1-.4 0-.6 1.7-1 3-.2.6-1 2.7-.7 3.2h.5c-.2.8-.6 2-.3 2.3.2.3 1-.7 1.2-1.3 0 3.2-.7 5-1.7 7 .2-1.4.6-3.2.4-3.8l-.4.6c0-.7 0-1.2-.4-.7v-1.7c0-1 0-2-.2-2.5l-.7 1.4c0-1 .6-1.8 1-3 .5-.8 1-2 1-3 0-.4-.3-.7-.6-.5 0-.6 0-1.5.2-2.3-.8 0-1 1.2-1 2 0 .4 0 .7-.2 1 0-.3 0-.5-.3-.4-.3.3-.4.8-.7 1 0-.2-.2-.2-.3-.3 0-.3.2-.8 0-1-.3-.2-1 .5-1.8 1.3v.5c.8-1 1.5-1.5 1.5-1.3l-.8 2 1-1-.2 1.4c.7-.7 1-2.2 1.3-2 0 0 0 1-.3 1.5.4-.4 1-1.6 1-2.5 0-.8 0-1.2.4-1.6 0 .5-.2 2 0 3 0-.8 0-1 .3-1 0 0 0 1.2-1 2.8-.7 1.6-1 2.7-1 5.3.4-1.4.7-2.2 1-2.5.2 1.2-.5 3.4 0 4.5.2-.4.6-1 .2 1l.6-1c.2 0-.6 3.6-1 5 2-3 3-5.7 2.8-11.2-.5 1.7-1 3-1.2 2.7 0-.3.4-1.5.5-3-.3.2-.5.7-.6.6l.6-2.5c.6-1.2.7-2.5.8-2.5 0 0 0 1.4.6 2.2v-2c.3.2.3 3 1.2 3.7 0-.3-.2-.8 0-1 .3 0 1.2 2.7 1.4 3.3 0-.7 0-1.5 1.2.5-.2-1.3-.8-2.8 0-2.3-1-1.5-1.6-2.6-1.5-3 0 0 .4 0 .6.3-.5-1.7-2-2.6-1.8-3 0-.2.7.5.8.8-.3-1-1-1.5-1.2-2 .3-.2 1 .3 1.2.7.7-.8 1.6-.4 1.6 0 0 .2-.5.2-.7 0 1.3 1.6 3.2 1 4.2-.3-1 .6-1.5.3-1.5-.4-.5 0-.7 0-.7-.5 0-.3.5-.3 1 0 .6-1.2 2.2-2 5.7.2-2.4-4.7-5.4-4.4-7.4-3.2.7 1 .3 2-.8 1.8-1.3-.2-1.5-1.5-1.5-1.5l-.5.2c0 .5-.4.8-.6.4-.2-.5 0-.8.5-.7.4 0 1.6-1 2-2-.7.5-1 .6-1 .5-.2-.2.4-1 1.5-1.7 1-.6 1.8-2 2-2.7-.6 1-1 1-1 .8 0-.3 1-2.3 2-3-1.8.3-2.6 1.6-3 2.3-.5.5-.7.7-.8.5 0-.2.4-.8.6-1-1.5.5-2.2 2.4-2.5 3.3-.2.8-.7 1-.8 1 0 .5-.4 1-.7.5-.2-.4.2-1.3.5-1 .5-1 1.2-1 1.7-3.2-.5 1-1.3 2-1.5 1.6-.3-.5.2-1.7.8-2.4-.5-.8-.3-2 0-2 .2 0 .2.5.2 1 .6-1 1-4.7.2-6.7 0 1.2-.4 2.5-.6 2.7.3.5 0 1-.2 1-.3 0-.4-.8 0-1v-4zm-1 1.4c-.2 0-.3.2-.4.3l-.2 1.3c.7.6.7 1.5.4 1.8-.3.4-.8-.7-.7-2.4-1 2-.5 4.5 0 5.8 0-1.3.8-1.5 1-.8.2.7-.4 1.6-.8 1.5.2 1-.2 2-1 2.5.5 1 .4 1.4.3 1.5-.4.3-.5-.8-.6-2.2-.7.3-1-.6-1-1.2s0-1-.3-2c0 1.3-.2 2.3-.8 1.7-.3-.3-.4-.7-.6-1v.2c0 .3.2.7.4 1 .3.5.8.4 1-.2 0 1 0 2 1 2 0 1 .2 2.7.8 2.2.4-.2.2-1.2 0-1.8.6-.6 1-1.3 1-2.5.6-.4.8-1.4.7-2-.2-1-1-.8-1.3 0-.2-1-.3-2-.2-3 0 .6.4 1.4 1 1 .5-.4.3-2-.3-2.5 0-.5 0-1 .2-1.3zm-5 8.5v.4c.2.4.4.7.4 1 0 .2-.4.4-.8.5 1 .3 2 .6 1.4 1.8.7 0 1 .8 1.3 1.4.7-.7 1-.2 1 .6-.2.5-.5.8-.8.6 0 0-.4-.3-.2-.8-1 0-1.6-.5-2-1.6l-.8-1v.4l.6 1c.7 1 1 1.3 2 1.3-.3 1 .8 1.5 1 .5.4-.8.2-2-.6-1.5-.2-.4-.4-1-1-1.3 0-1-.4-1.4-1-1.6.4-.6 0-1.3-.4-2zm-.8 4.3v1c0 .2 0 .4-.2.6.5-.5.4-1 .2-1.7zm-.3 2.8v.6c.4.2.2.8.2 1 .5 0 1-.6 1.3-.3 0 .2-.2.4-.5.4 1.4.6 1.8-.6 2 0 0 0 0 .2-.5.7-.4.6-1 1-.5-.2-.6.4-1.3 1-2 2.2v.6c.4-.8 1-1.5 1.6-2 0 .8.8 0 1-.3.4-.4.7-1 .6-1.3-.2-.6-1 .6-1.6.2.3-.4.2-1 0-.8-.4 0-.8.2-1 .3 0-.5-.3-.8-.6-1z" style="fill:#22280b;stroke:none"/><path class="alpha" d="M230.3 194.5c-.4 0-.8.2-1.2.5-.8.7-1.2.3-2-.2.4.3.8.8 1.5 1 .2.6.6 1.4 1.4 1.5.7 0 1-.4 1.5-1.5 0 0 .7.2 1 0 0 0-.6.3-1.3-.7l-1-.5zm0 .4c.6 0 .4 1 0 1.4.3-.2.5-.5.6-1h.2c-.3 1-.7 1.5-1.3 1.4-.6 0-1-.5-1-1.2l.3-.3c0 .4.2.8.4 1-.3-.3-.3-1.4.5-1.4z" style="fill:#22280b;fill-opacity:1;stroke:none"/><path class="alpha" d="m231.4 178-.6 2.5c.3.4.3.6.4 1.3 0-.4 0-3.2.2-4zm-.2 1c0 .3-.2 1.6 0 1.8l-.2-.4.2-1.5zm1.4 4c-.6 1-1.3 1-1.5 0-.4 1-.8 1-1 .3v1c.8-.6 1.4.3 1.5 1 .2-.8.7-1 1-1V183zm-1.6.5c.2.4.4.6.7.6.2.2.5 0 .7-.2v.2c-.3 0-.7.2-1 .7 0-.2 0-.5-.3-.6h-.3c0-.2.2-.3.3-.5zm-2 21.8c-.2.2-.3 1-.6 1.3 0 1-.3 1.6-.2 2.3.3-.2.5-.2.5.2.5-.8.8-.2.6 2 .3-.8.8-3 .8-4-1 1.4-1.5.5-.8-1.4-.2 0-.3-.2-.3-.5zm0 .7c-.5 1.6-.3 2.5.8 2 0 .4 0 1-.2 1.3 0-.6-.4-1-.8-.6l-.4-.4c0-.5 0-1 .2-1.7l.3-.6z" style="fill:#28170b;stroke:none"/><path class="alpha" d="M226.3 198.4c-.8.8-1.7 2.2-2.3 3.3.8-1 1.6-1.6 2-2-.3 0-.2-.6.3-1.3zm-.4 1.4c-.3 0-1 .6-1.3 1 .3-.7.8-1.4 1-1.6 0 .2 0 .5.2.6z" style="fill:#22280b;stroke:none"/><path class="alpha" d="M230.3 195.4a.2.3 6 1 1-.4 0 .2.3 6 1 1 .3 0z" style="fill:#28170b"/><path class="alpha" d="M231.5 186.3c0 .3-.3.7-.7 1 0 1-.3 1.8-1 2.5.4 1.5 0 2.2-.5 2.2-.4 0-.8-1-.8-2.3-.5 0-.7-.6-1-1.5-.7 0-1-.6-1.3-1.4v.2c.2.7.6 1.4 1.3 1.4 0 .4.2.7.3 1 .2.3.4.4.6.5 0 .5 0 1 .2 1.4.2.5.4.8.7.8.3 0 .6-.2.8-.7.2-.4 0-1 0-1.7.5-.6 1-1.4 1-2.4l.3-.5v.6l-.5 2c0 .3 0 .8.4 1-1 0-1 1.8-.6 2.4.4.6 1 0 1.4-.7.5-.2.7-1 1-1.6 0 .2.2.2.4.2-.4.4-1 1-.8 1.6-.2.4-1 0-1.3 1.4 0 1.3.7 2 1.4 1.2.4.6.7 1 1.2 1-.4 0-.6.2-.8.4-.5-.6-1.4-1-2 .7 0 .2.5.5.6.7-.3 1 .8 2 1.3 2.6v.8h-.5c-.3-1-.6-2.8-1.2-2.6-.4-1-1-.6-1 .3l-1 3.3v-.3c.3-1 .5-2.5 0-2.8 0-1 .2-2-.5-2-.8-.2-1.2 1.7-1.2 2.4 0 0-.4.3-.4.5h-.2v-.2c.5-.4.5-1 .3-1.5.4-.3 1-1 1-1.7.2-.7-.2-.7-.6-.7 0-.2-.5-.4-.7-.3 0-.5-1-.6-1.4-.4 0-.3-.3-.7-.6-.7.3 0 .7-1 .6-1.4.3.5 1 1.3 2 1.4 0 .3.3.6.7.6.3 0 .7-.2 1-.7 0-.5.2-1 0-1.6 0-.6-.5-1-1-1-.2-.5-.4-.8-.7-1 0-.3 0-.6-.2-.8l-.6-.6c0-.3 0-1-.3-1.2l-.5-1v.2c.4.7.7 1.5.6 2 .6.5 1 .8 1 1.7l.7 1c1-.3 1 1 .7 2-.4 1-1.3 1-1.5 0-1.2-.2-1.7-1.5-2.4-2.3.8 1.2.3 2-.2 2.4v.4c.4 0 .5.3.7 1 1.2-.7 1.4-.3 1.4.2.3-.2.6 0 .7 0 .5 0 .6.3.6.6-.2.6-.5 1.3-1.3 1.8.5.2.4 1-.2 1.3v1c0-.3.2 0 .2 0 0-.3.5-.8.7-.8 0-1.5.6-2.7 1-2.7s.4.4.2 2.2c.8 0 .3 2-.2 3.4.5-.8.4 0 .3 1l1.3-4.7c.3-1 .7-.7 1 0 .5-.6.7 1 1 2.4.2 0 .6 0 1 .5l.7 2s.2-.2.4 0v-.8l-.7-1c-.7-1-.5-1.7-.3-1.8-.2 0-.4-.5-1-1.2-.6-.6-.6-1.2-.4-1.4 0-.3-.5-.7-.7-.8.6-1.4 1.4-.8 2-.3 0-.3.4-.6 1-.5.8 0 1 .8 1 1.4h1c-1.4-.8-1.2-2 .4-2.5 1-1.4 2.7-1.2 3.6-.8-.8-1-2.6-1.5-4-.6.2 1.6-1.2 2-2 2-.7 0-1-.3-1.4-1.2h-.3c-.5 1-1.3.4-1.2-.8 0-1.3 1-.7 1.5-1.3-.5-.5 0-1 .7-2 .8-1 1.4-1 2-1.5-.4-.3-.2-1 0-1.5-.2 0-.5.7-.7 1-.2.4-.5.7-1 .6 0 .2.2.7-.2 1-.5.6-.8.5-.7-.2l-.3 1c0 .4-.4 1-1 1 0 1-.6 1.3-1 .8-.5-.5-.4-2.2.5-2 0 0 0-.3.2-.5-.7 0-.5-1.2.2-2.7v-1.3zm3.8 2.2v.5c-.3.4-.7.6-1.2 1 .2 0 .2 0 .2-.2v-.3c.4 0 .7-.2 1-.6v-.5zm2.5 5.5h.7c.2 0 .3 0 .5.2h-.4c-.7 0-1.4.4-2 1 0 0-.2 0-.3.2.2-.3.2-.8.2-1.2l1.3-.2zm-2.4 2-.2.8c-.2-.3-.4-.5-.7-.6h1zm0 1.4.5.4h-.5v-.4zm-1.7 5.5c.2 0 .4.4.5.6v.3c0-.2 0 0-.2 0 0-.5-.2-.8-.3-1z" style="fill:#22280b;fill-opacity:1;stroke:none"/><path class="alpha" d="M226.5 198.8s-.2 0-.3.2v.2s-.2 0 0 .2v.2h.4l.4-.4v-.6h-.5zm0 0h.5v.2l-.4.3h-.3c0-.2 0-.3.2-.4z" style="fill:#22280b;stroke:none;stroke-width:.25"/><path class="alpha" d="m229 203-.5 1c0 .6-.2 1.7 0 2 .2 0 .5-2 .5-3zm-.2.7c0 .5 0 1-.2 1.5V204l.2-.3z" style="fill:#28170b;stroke:none"/><path class="alpha" d="M228.3 204.3v.7c0-.2-.2-.3-.2-.3l.3-.4z" style="fill:#000;stroke:none"/><path class="alpha" d="M233.4 189.7v.7h.2v-.3l.3-.5c0-.2 0-.2-.2-.3h-.2c0 .2 0 .3-.2.5zm0 0c.2 0 .2-.2.3-.2v.4s-.2 0-.2.2v-.4z" style="fill:#28170b;stroke:none;stroke-width:.25"/><path class="alpha" d="M229.3 194.7c.4-.5 1.3-1 2 .3-.3-.8-1-1.6-2-.3z" style="fill:#22280b;stroke:none"/><path class="alpha" d="M229.5 194.3c.4-.4 1-.8 1.6.2 0-.7-.7-1.3-1.5-.2z" style="fill:#22280b;stroke:none"/><path class="alpha" d="M230 193.7c0-.2.5-.4.8 0 0-.2-.5-.6-1 0z" style="fill:#22280b;stroke:none"/></symbol></svg>