<svg xmlns="http://www.w3.org/2000/svg"><symbol id="isuit_1_of_2" viewBox="170 130 220 220"><path class="alpha" d="M285.8 258.6c1.4 12 4.7 70.5 6.6 75.4 11 1 40.3-6 37-14-1.4-13-4.6-37.3-6-43.8-.3-1.5-1.7-4-1-6.3.2-1.2 1.6-3.8-1.3-6.4-2.3-2.2-1-18-1-21.7 0-10-.7-22 1.7-26 2.5-4 25-29 6-41.5-3.8-2.5-11-3.6-13.5-4.3-3.3-1-11.2-7.2-16.6-11.2 11.5 33.7-6.8 61.2-11.8 99.6z" style="fill:gray;stroke:#4d4d4d;stroke-width:1"/><path class="alpha--dark" d="M299.7 163.7c5.6 4 9 8.5 14.4 9.6h-9.5c3.7 4.2 7 8.5 7 8.5l-9.3 4c4.3 3.3 10 7.3 10 7.3-4.3 18.4-12.5 44-20.7 55-4 5.2 1 4 3 3.3-3.3 3.4-5 4.2-6 4.2-1.2 0-3.2-4.5-1.5-8.8 1.7-4.2 13.8-64.6 12.7-83z" style="fill:#666;stroke:none;stroke-width:.5"/><path class="alpha" d="M283 263c3.6-12.7 22.8-41.8 28-72-1.8-2.4-6.4-4.4-8.3-7.5 3.4-2 6.3-3 7.8-4-8.8-10.8-8.6-26.7-15.7-29 1.8 49.7-13 101.4-12 112.6z" style="fill:gray;stroke:#4d4d4d;stroke-width:1"/><path class="alpha" d="M292.2 290.4a2 2.4 4.2 1 0-.4 5 2 2.4 4.2 1 0 .4-5z" style="fill:gray;stroke:#4d4d4d;stroke-width:.5"/><path class="alpha--dark" d="M288.7 259c6.6-6.2 17-11 21.6-12.5 4.5-1.4 6.6 15.6 1.4 17-3.7 1-14 .6-21.2-1.2-1-1.4-1.2-3.8-1.8-3.3zm30.7 10.4c-5.2 1-20.6-.6-25.6-2.6 13 12.8 25.6 7.2 25.6 2.6z" style="fill:#666;stroke:none"/><path class="alpha--dark" d="M323.4 202.7c-3 9-2.5 17.5-21.4 38.7 7.6-6.5 11.8-11.3 13.5-14.2 1.7-2.8 2 5.4 1.7 7-.3 1.8-.8 6.6-5.4 9 4.3-1.3 7.7 5.8 5.7 15.7-2 9.8 4.8 4 5 7.8.3 4-3.6 8.5-7.8 10.4 4 1 7.6-1.4 10 21.8 2 23.2 1.3 25.7-1 27-2.2 1.5-18 7.7-31.5 7 .5.4 1 .8 1.6 1 11.8.6 38.8-6.4 35.5-14-1.3-13-4.5-37.3-6-43.8-.3-1.5-1.6-4-1-6.3.3-1.2 1.7-3.8-1.2-6.4-2.3-2.2-1-18-1-21.7 0-10-.7-22 1.8-26l2.6-3.7-1-9.6z" style="fill:#666;stroke:none;stroke-width:.5"/><path class="alpha" d="M328 175.3c2.6.6 5.4 1.5 8 11.5 3.3 11.3 2.6 21 3 28 .4 4 3.6 16.5 4.4 23.5 1 8.8 1.3 11.7 3 17.4 2 7.8 1 17 3 19 2.5 2.8 2 5.4 1 7.6-.5 1 .3 3.3 1 4 2.5 2 .8 5.2.7 5.6-.6 2.8 0 14.5.4 16.6-.4-4.6-15.2-4-19.7.4-1.7-4.2-5.4-29.4-7.2-36-1.8-6.4-3.6-18.6-3-23.5.6-5-3.8-8-2.8-16.8.6-6 0-11 2-19.8 2.7-12.7 5.7-24.8 6.4-37.7z" style="fill:gray;stroke:#4d4d4d;stroke-width:1"/><path class="alpha--dark" d="M327 186.4c-1.4 9-3.4 17.6-5.4 26.5-2 8.8-1.3 13.6-2 19.7-1 8.7 3.5 12 3 16.8-.7 5 1 17 3 23.6 1.7 6.6 5.4 31.8 7 36 1.8-1.6 5-2.7 8.2-3.3-1.3-6.6-3.3-25-6.3-33.4 4 2 9.3 2.7 12 6-4-8.6-12.6-8-16.6-16 2.6.8 7.2 2 10.5 0-2.6-.6-7.3-2-8.6-6.5 2.6.7 5.2-1.3 12.5 4-6.6-13.2-17.2-12.6-18.6-25.8 4 4.6 8 9.2 17.8 12.5-3.3-4.6-13.2-9.2-19.2-19.2 4 5.3 8 8.6 15.2 8-7.2-5.3-12-12-14-24.5 6 4.6 11.4 12 14.7 16.5-1.3-4.6-4.6-11.8-14-19 4 1.2 4.7 3.2 8 4-1.7-4.2-7.6-12.5-7.6-26z" style="fill:#666;stroke:none"/><path class="alpha" d="M285.6 292a1.5 1.5 0 1 1-3 0 1.5 1.5 0 1 1 3 0z" style="fill:none;stroke:#b3b3b3;stroke-width:.5"/><path class="alpha" d="M265.7 159c-2.8 2.5-10.8 8.2-14 9-2.3.7-19 3.3-20.3 6.4-4 8.8 7 40.2 10 54.6 1.2 6.7 4.6 30.4 3.2 32.7-1.7 2.8-2 5.4-1 7 2.2 3.8.7 8.6-1 14-2 7.3-3.4 38.2-3.3 41.8 7.3 4.4 25.2 9 43.8 10 1.8-6.7 7.2-52.8 6.5-71.5-.8-19-36.3-83.4-23.8-104z" style="fill:gray;stroke:#4d4d4d;stroke-width:1"/><path class="alpha" d="M272.8 212.7c-6-.2-11.6-1.3-15-1-3.3 0-7.5-.6-10.2-1.4m26.4 7c-3.5 1.8-10.6 1.8-15 1.6-4.4-.4-7.8-1-11-2" style="fill:none;stroke:#4d4d4d;stroke-width:.25"/><path class="alpha--dark" d="M263.8 213.5c1.3 33.7 4 31 1.3 53.5-2.6 22.5 18.6 25.8 14-3.3-2.2-14-4.6-29-7.4-37-3-8.5-6.5-9.5-7.8-13.2z" style="fill:#666;stroke:none"/><path class="alpha--dark" d="M265.4 161.3c-5 4.7-10.3 9-15.4 11 3.6-.5 8.4 4 8.4 4-3 4.7-5.5 5.4-5.5 5.4l9.4 6.6c-3.2 2.5-10.4 4.7-10.4 4.7 6.8 17.6 20 44.5 28.7 55.5s2.4 9 0 8.6c4 3 4.4 0 7.8 2.7 1 .7 0-9.3-2.3-13.2-2.3-4-19.3-67-20.8-85.2z" style="fill:#666;stroke:none;stroke-width:.5"/><path class="alpha" d="M289.2 265.4c2.2-10.5-26-38.8-36.6-74 1.8-2.4 7-4.4 8.7-7.4-3.7-2-6.7-3-8.3-4 6.3-9.2 10-26 15.3-28.5-1.8 49.8 28 106.4 21 114z" style="fill:gray;stroke:#4d4d4d;stroke-width:1"/><path class="alpha" d="M281 291.8c2.6-.3 5-.6 5 .2-.2 1-2-.4-5-.2z" style="fill:#4d4d4d;stroke:#4d4d4d;stroke-width:.25"/><path class="alpha--dark" d="M231.2 187v.7l.8 3.8v.2c2.6 12.6 7.5 28.3 9.3 37.3 1.3 6.7 4.7 30.4 3.3 32.7-1.7 2.8-2 5.4-1 7 2.2 3.8.7 8.6-1 14-2 7.3-3.4 38.2-3.4 41.8 7.4 4.4 25.3 9 44 10v-1c-37.2-3.5-37-11-37.5-14-.5-2.7-2-25-1-30.7.8-5.6 2.8-8 6.7-11.6 4-3.6 5.7-5.3.3-6.2-5.4-.8-8.5-3-7.4-5 1.2-2 5.4-1.8 10-.6 4.4 1-.7-7-5-15.8-4-8.8-4.4-21.2-2.4-21.2 2 0 2.4.5 6.7.5-8.7-1.4-19.6-33.7-22.5-42zm51.6 106.2c2.6.4 4 .8 4.4-.8-.4 4.4-1 7.7-1.6 9.7.4-4.4 1.6-7.2-2.8-8.8z" style="fill:#666;stroke:none;stroke-width:.5"/><path class="alpha" d="M286.4 259.7a2 2.4 4.2 1 0-.4 4.8 2 2.4 4.2 1 0 .4-4.8z" style="fill:gray;stroke:#4d4d4d;stroke-width:.5"/><path class="alpha" d="M231.7 174c-7.4 8.6-8.8 30.5-9.7 34.3-1 3.8-5.8 19-5 23 1 4-1 9.7-1.8 11-2.5 3.7-4 3.2-4.6 27.4 0 .8-3 7.8-1.4 12.7 1.4 4.6-1 9.7-1 12 0 4.3 1.5 16.7 2.8 19.7 5.7-11.7 23.4-6.6 23.4-3.6-.5-3.3 1.7-18.4-.4-20.5-1.6-1.8-.7-5 .5-6.8 1.2-2 2.5-4.2 2-6.3-1.3-4-1-11.5 0-13 2-3.2-.7-17.4 1-19.3 5.4-6.8 5.7-14.8 6-23.4 0-10-.6-20.4-2.6-26-1.4-3.4-5.6-10.8-8.2-17.7z" style="fill:gray;stroke:#4d4d4d;stroke-width:1"/><path class="alpha" d="M225 222.8c-4-6-6-14.6-1.7-22.8-.2 12 5 14.8 9.2 16.5" style="fill:gray;stroke:#4d4d4d;stroke-width:.5"/><path class="alpha--dark" d="M230.8 183c3 22-2.2 33.5-7 22.3 2.3 6 5 12.7 11 9-1.5 7.8-10.8 16.4-12.4 3.7-3.7 21.4 12 5.5 13.5 0 0 9.6-6.4 13.7-12.3 17.3 6-.7 10-3.7 15.2-8-6 10-14.5 15.7-21.7 17.2 9.3.8 16.4-6 20.3-10.5-5 12.5-13 9.8-19.5 23 7.3-5.3 11-.5 13.7-1.2-1.4 4.6-6.7 8.7-9.3 9.4 3.3 2 8.6-2 11.3-2.8-4 8-12.6 7.3-16.6 16 2.8-3.4 8-4 12-6-3.6 3-7 8.6-2.6 12.4 3.3 2.8 2 12.4 2.2 22.3v.2c3.3.7 5.8 2 5.8 3.2-.5-3.3 1.6-18.4-.4-20.6-1.6-1.6-.7-4.8.5-6.6 1.2-2 2.5-4.2 1.8-6.4-1-3.8-.7-11.3 0-12.8 2-3.2-.5-17.4 1-19.3 4.4-5.2 5.5-11.2 6-17.6-2.8-17.4-7.7-31-12.6-44z" style="fill:#666;stroke:none"/></symbol><symbol id="isuit_2_of_2" viewBox="170 130 220 220"><path class="alpha--darkest" style="fill:#4d4d4d;fill-opacity:1;stroke:#4d4d4d;stroke-width:.8387208px;stroke-linecap:butt;stroke-linejoin:miter;stroke-opacity:1" d="M352.799 310.074c.108 5.187-18.368 7.235-19.848-.598-1.48-7.834 19.414-11.302 19.848.598z"/><path class="alpha--darkest" style="fill:#4d4d4d;fill-opacity:1;stroke:#4d4d4d;stroke-width:1px;stroke-linecap:butt;stroke-linejoin:miter;stroke-opacity:1" d="M211 314.1c.628 6.154 22.79 5.885 23.4-3.6.61-9.485-24.62-10.545-23.4 3.6z"/></symbol><symbol id="isuit_open_1_of_2" viewBox="170 130 220 220"><path class="alpha" d="M297.532 257.536c1.615 12.008 1.405 71.12 3.323 76.023 11.009.996 32.509-4.8 29.099-12.798-1.659-13.014-5.41-37.41-6.843-43.943-.307-1.508-1.697-4.018-1.016-6.334.193-1.208 1.563-3.828-1.267-6.437-2.244-2.209-.75-18.12-.672-21.846.213-10.07-.235-22.15 2.187-26.178 2.522-4.029 24.665-29.174 5.573-41.696-3.818-2.505-10.864-3.621-13.365-4.321-3.305-1-11.41-7.198-16.83-11.202 11.671 33.735 4.18 60.095-.093 98.531z" style="fill:gray;stroke:#4d4d4d;stroke-width:1"/><path class="alpha--dark" d="M299.786 163.71c5.678 4.007 9.381 8.483 14.752 9.584l-9.343-.01a249.631 249.631 0 0 1 7.625 8.446l-8.554 3.937c4.626 3.266 10.612 7.232 10.612 7.232-1.537 18.128-4.802 43.225-12.061 54.158-3.552 5.168 1.198 3.986 3.074 3.295-2.986 3.378-4.668 4.181-5.653 4.181-1.183 0-3.316-4.494-1.928-8.771 1.396-4.178 3.075-63.522 1.578-81.951z" style="fill:#666;stroke:none;stroke-width:.5"/><path class="alpha" d="M298.163 261.943c2.185-12.6 14.314-41.342 15.191-71.12-2.042-2.375-6.754-4.36-8.992-7.427 3.074-1.973 5.795-2.959 7.158-3.948-9.612-10.725-9.62-26.648-16.72-28.948 1.8 49.7 1.606 100.31 3.163 111.543z" style="fill:gray;stroke:#4d4d4d;stroke-width:1"/><path class="alpha" d="M302.717 289.584c-2.698-.237-3.454 4.825-.745 5.06 2.71.236 3.444-4.824.745-5.06z" style="fill:gray;stroke:#4d4d4d;stroke-width:.5"/><path class="alpha--dark" d="M300.416 257.934c6.399-6.205 13.642-10.91 17.665-12.354 3.937-1.346 5.68 15.645 1.074 16.994-3.278.964-9.912.483-16.943-1.332-.98-1.405-1.213-3.808-1.796-3.308zm18.741 12.055c-5.077 1.019-9.001-2.195-13.777-4.221 12.311 12.906 13.788 8.85 13.777 4.22z" style="fill:#666;stroke:none"/><path class="alpha--dark" d="M323.977 202.845c-2.837 8.768 2.862 16.693-13.433 37.598 6.63-6.398 7.01-10.69 8.495-13.563 1.488-2.773-1.239 6.061-1.568 7.673-.333 1.813 5.834 5.429 1.859 7.763 3.74-1.245.045 7.138-1.993 17.109-2.038 9.87 4.663 4.015 4.854 7.839.29 4.024.766 7.416-3.133 9.303 3.73 1.012 2.808-.223 5.755 23.056 2.554 23.28 1.91 25.757-.31 27.067-2.12 1.51-10.346 6.463-23.85 5.768.5.4 1.6 1 1.6 1 11.787.598 31.002-5.2 27.6-12.797-1.56-13.014-5.311-37.41-6.84-43.943-.308-1.508-1.6-4.019-1.017-6.335.292-1.208 1.662-3.827-1.168-6.437-2.244-2.208-.749-18.12-.67-21.846.213-10.07-.236-22.15 2.285-26.178l2.612-3.726-.98-9.653z" style="fill:#666;stroke:none;stroke-width:.5"/><path class="alpha" d="M328 175.3c2.6.6 5.4 1.5 8 11.5 3.3 11.3 2.6 21 3 28 .4 4 3.6 16.5 4.4 23.5 1 8.8 1.3 11.7 3 17.4 2 7.8 1 17 3 19 2.5 2.8 2 5.4 1 7.6-.5 1 .3 3.3 1 4 2.5 2 .8 5.2.7 5.6-.6 2.8 0 14.5.4 16.6-.4-4.6-15.2-4-19.7.4-1.7-4.2-5.4-29.4-7.2-36-1.8-6.4-3.6-18.6-3-23.5.6-5-3.8-8-2.8-16.8.6-6 0-11 2-19.8 2.7-12.7 5.7-24.8 6.4-37.7z" style="fill:gray;stroke:#4d4d4d;stroke-width:1"/><path class="alpha--dark" d="M327 186.4c-1.4 9-3.4 17.6-5.4 26.5-2 8.8-1.3 13.6-2 19.7-1 8.7 3.5 12 3 16.8-.7 5 1 17 3 23.6 1.7 6.6 5.4 31.8 7 36 1.8-1.6 5-2.7 8.2-3.3-1.3-6.6-3.3-25-6.3-33.4 4 2 9.3 2.7 12 6-4-8.6-12.6-8-16.6-16 2.6.8 7.2 2 10.5 0-2.6-.6-7.3-2-8.6-6.5 2.6.7 5.2-1.3 12.5 4-6.6-13.2-17.2-12.6-18.6-25.8 4 4.6 8 9.2 17.8 12.5-3.3-4.6-13.2-9.2-19.2-19.2 4 5.3 8 8.6 15.2 8-7.2-5.3-12-12-14-24.5 6 4.6 11.4 12 14.7 16.5-1.3-4.6-4.6-11.8-14-19 4 1.2 4.7 3.2 8 4-1.7-4.2-7.6-12.5-7.6-26z" style="fill:#666;stroke:none"/><path class="alpha" d="M265.687 158.999c-2.808 2.5-10.836 8.197-14.037 8.997-2.302.7-18.99 3.3-20.309 6.4-4.054 8.795 6.474 40.017 9.41 53.887 1.171 6.454 4.574 29.748 3.193 32.076-1.677 2.833-1.989 5.483-1.022 7.105 2.126 3.856.596 8.807-1.159 14.431-2.08 7.6-3.965 39.412-3.889 43.001 7.086 4.311 15.047 9.485 33.564 10.487 1.205-6.677-.873-51.957-.546-70.606.242-18.949-17.675-85.184-5.105-105.778z" style="fill:gray;stroke:#4d4d4d;stroke-width:1"/><path class="alpha" d="M266.21 212.7c-5.636-.2-8.35-1.3-10.577-1-2.126 0-5.333-.6-8.033-1.4m19.293 7c-3.5 1.8-8.221 1.8-10.865 1.6-2.653-.4-5.065-1-8.068-2" style="fill:none;stroke:#4d4d4d;stroke-width:.25"/><path class="alpha--dark" d="M256.433 214.368c-7.315 34.662-4.063 30.406-6.314 53.443-2.169 23.04 13.512 26.652 10.645-2.376-1.367-13.966-.096-29.237-.602-37.45-.56-8.726-3.4-9.8-3.64-13.616z" style="fill:#666;stroke:none"/><path class="alpha--dark" d="M265.377 161.298c-5.02 4.698-10.35 8.996-15.458 10.995 3.598-.5 8.339 4 8.339 4-3.058 4.702-6.081 5.497-6.081 5.497l8.305 6.737c-3.465 2.535-10.605 4.734-10.605 4.734 3.698 17.983 7.373 45.808 13.822 56.95 6.45 11.14 1.117 9.057-1.082 8.642 3.444 3.029 4.108.027 7.286 2.728.943.7.99-9.326-.6-13.27-1.573-4.046-2.614-68.72-4.026-86.913z" style="fill:#666;stroke:none;stroke-width:.5"/><path class="alpha" d="M270.807 267.168c.422-12.008-15.154-39.619-20.033-75.532 2.048-2.433 7.319-4.445 9.334-7.486-3.352-2.043-6.207-3.063-7.705-4.078C259.208 170.798 263 154 268.3 151.5c-1.8 49.8 6.377 97.168 2.604 115.767z" style="fill:gray;stroke:#4d4d4d;stroke-width:1"/><path class="alpha" d="M263.748 293.227c2.412-.283 4.723-.573 4.82.214-.074.982-2.02-.397-4.82-.214z" style="fill:#4d4d4d;stroke:#4d4d4d;stroke-width:.25"/><path class="alpha--dark" d="m231.017 186.985-.009.699.745 3.795-.003.2c2.405 12.584 7.14 27.935 8.901 36.604 1.271 6.454 4.674 29.748 3.293 32.076-1.678 2.833-1.989 5.483-1.022 7.105 2.126 3.856.596 8.807-1.159 14.431-2.08 7.6-3.966 39.412-3.986 43.002 7.183 4.31 15.138 9.484 33.76 10.486l-.089-.996c-37.166-3.499-26.854-11.565-27.31-14.58-.458-2.714-1.522-25.655-.436-31.596.89-5.835 1.124-8.389 3.03-13.122.954-2.37-1.057-4.3-1.364-6.124-.319-1.89-2.833-2.216-1.74-4.255.528-.984 1.146-.62 2.043-.28 3.559 1.348 3.447-6.783-.582-15.49-3.753-8.703-.87-21.247 1.107-21.245 1.977.001-4.644 1.172-1.08 1.232-6.984-1.486-11.413-33.752-14.197-42.042zm34.607 107.626c2.532.403 3.974.797 4.171-.775.148 4.324.052 7.565-.24 9.53-.26-4.324.482-7.068-3.919-8.656z" style="fill:#666;stroke:none;stroke-width:.5"/><path class="alpha" d="M301.786 258.636c-2.616-.238-2.994 4.575-.376 4.812 2.618.238 2.992-4.575.376-4.812z" style="fill:gray;stroke:#4d4d4d;stroke-width:.5"/><path class="alpha" d="M231.7 174c-7.4 8.6-8.8 30.5-9.7 34.3-1 3.8-5.8 19-5 23 1 4-1 9.7-1.8 11-2.5 3.7-4 3.2-4.6 27.4 0 .8-3 7.8-1.4 12.7 1.4 4.6-1 9.7-1 12 0 4.3 1.5 16.7 2.8 19.7 5.7-11.7 23.4-6.6 23.4-3.6-.5-3.3 1.7-18.4-.4-20.5-1.6-1.8-.7-5 .5-6.8 1.2-2 2.5-4.2 2-6.3-1.3-4-1-11.5 0-13 2-3.2-.7-17.4 1-19.3 5.4-6.8 5.7-14.8 6-23.4 0-10-.6-20.4-2.6-26-1.4-3.4-5.6-10.8-8.2-17.7z" style="fill:gray;stroke:#4d4d4d;stroke-width:1"/><path class="alpha" d="M225 222.8c-4-6-6-14.6-1.7-22.8-.2 12 5 14.8 9.2 16.5" style="fill:gray;stroke:#4d4d4d;stroke-width:.5"/><path class="alpha--dark" d="M230.8 183c3 22-2.2 33.5-7 22.3 2.3 6 5 12.7 11 9-1.5 7.8-10.8 16.4-12.4 3.7-3.7 21.4 12 5.5 13.5 0 0 9.6-6.4 13.7-12.3 17.3 6-.7 10-3.7 15.2-8-6 10-14.5 15.7-21.7 17.2 9.3.8 16.4-6 20.3-10.5-5 12.5-13 9.8-19.5 23 7.3-5.3 11-.5 13.7-1.2-1.4 4.6-6.7 8.7-9.3 9.4 3.3 2 8.6-2 11.3-2.8-4 8-12.6 7.3-16.6 16 2.8-3.4 8-4 12-6-3.6 3-7 8.6-2.6 12.4 3.3 2.8 2 12.4 2.2 22.3v.2c3.3.7 5.8 2 5.8 3.2-.5-3.3 1.6-18.4-.4-20.6-1.6-1.6-.7-4.8.5-6.6 1.2-2 2.5-4.2 1.8-6.4-1-3.8-.7-11.3 0-12.8 2-3.2-.5-17.4 1-19.3 4.4-5.2 5.5-11.2 6-17.6-2.8-17.4-7.7-31-12.6-44z" style="fill:#666;stroke:none"/></symbol><symbol id="isuit_open_2_of_2" viewBox="170 130 220 220"><path class="alpha--darkest" style="fill:#4d4d4d;fill-opacity:1;stroke:#4d4d4d;stroke-width:.8387208px;stroke-linecap:butt;stroke-linejoin:miter;stroke-opacity:1" d="M352.799 310.074c.108 5.187-18.368 7.235-19.848-.598-1.48-7.834 19.414-11.302 19.848.598z"/><path class="alpha--darkest" style="fill:#4d4d4d;fill-opacity:1;stroke:#4d4d4d;stroke-width:1px;stroke-linecap:butt;stroke-linejoin:miter;stroke-opacity:1" d="M211 314.1c.628 6.154 22.79 5.885 23.4-3.6.61-9.485-24.62-10.545-23.4 3.6z"/></symbol></svg>