<svg xmlns="http://www.w3.org/2000/svg"><symbol id="ihorizontal_neck" viewBox="265 139 32 32"><path class="skin--darker" d="M283 157c.6 0 1.6-.4 2-.5 1-.2 5.7-.5 6.3-2-2.6 1.5-4.2 1-6.4 1.4-.6 0-1.5.4-1.8.4-.3 0-1 .5-1.2.6-.7.2-1.4.3-2.2 0-.4 0-1-.4-1.4-.6-2-.7-6-.5-8-1.7 1.6 1.8 6.2 1.4 8 2.3l1.3.7c.8.3 2 .3 2.4 0l1-.6z" style="fill:#de8787;stroke:none;stroke-width:.5"/></symbol><symbol id="ivertical_heart" viewBox="249 164 64 64"><path class="skin--darker" d="M279.7 197.5c.2.8.2 2.2 0 3.2l.3 3.3v5.8c.3 1-1 4 .6 4 2 0 .7-2.5.5-4l.2-5.6v-6.6l.3-5.2v-3c.4-2.4.4-4.4.7-6.4 0-1.3 2-3.4-.5-3.4-2 0-.7 2.2-.7 3.2 0 2-.4 4.5-.7 6.4l-.3 3z" style="fill:#de8787;stroke:none;stroke-width:.5"/></symbol></svg>