<svg xmlns="http://www.w3.org/2000/svg"><symbol id="iskate" viewBox="222 345 116 116"><path class="alpha" style="fill:#3b3b37;stroke:#151515;stroke-width:.1px" d="M239.018 372.613c.082-.398.372-1.164 1.496-.97 1.124.195 5.187 1.033 10.57 1.611 5.384.578 14.064 3.097 17.078 3.259 3.013.162 4.374.565 5.073.925.7.36 1.314 1.266.62 2.292-.695 1.025-2.13 6.131-1.914 7.202.216 1.07-.445 3.526-.403 4.709.043 1.182-.21 1.228-.285 2.015-.074.787.162 1.76-.93 2.162.774 1.738-.511 3.308-.322 3.9.188.59-.273 1.675-.707 2.842-.31.832-.657 1.957-.528 2.282.13.325.287.532.288.867.001.335-.556 2.248-.693 2.633-.137.385-.62.475-.49.967.129.493.398 1.774.655 2.088.257.315-.479 1.766-.95 2.822-.47 1.056-.803 1.727-.792 2.19.01.463.238 1.975-.102 5.265-.34 3.291-1.324 6.067-2.034 6.306-.71.239-.78.28-.78.28s-.207.838-.89 1.202c-.681.364-5.246 3.498-12.315 2.874-7.069-.624-11.438-3.067-12.954-7.231-.525-.87-.493-2.076-.41-2.411.083-.335.355-8.853.103-9.033-.25-.18-.2-1.826-.2-1.826-1.634-1.766-3.204-5.233-2.59-10.35.615-5.118.888-7.656.888-7.656l.305-.517.241-4.085-.673-1.587c-.959 1.006-1.266.812-1.908.534 1.238-1.981 2.189-5.497 2.132-5.985-.057-.488.3-1.296.454-1.605.169-.342.311-.907.359-1.214.027-.17.514-.29.783-.28.4-.8.917-2.91 1.028-3.12.111-.21.301-.34.565-.69.054-.696.094-1.991.232-2.667z"/><path class="alpha--dark" style="fill:#2a2a2a" d="M272.36 377.1c.375.11.656.225.875.338.7.36 1.314 1.266.62 2.292-.696 1.025-2.13 6.131-1.914 7.202.216 1.07-.445 3.526-.403 4.709.043 1.182-.21 1.228-.285 2.015-.074.787.162 1.76-.93 2.162a3.8 3.8 0 0 1 .182.502c-5.867.294-23.756-1.342-34.655-3.758l.196-3.335-.673-1.587c-.959 1.006-1.266.812-1.908.534 1.238-1.981 2.19-5.497 2.132-5.985-.057-.488.3-1.296.454-1.605.169-.342.311-.907.36-1.214.026-.17.513-.29.782-.28.4-.8.917-2.91 1.028-3.12.111-.21.301-.34.565-.689.054-.697.094-1.992.232-2.668.058-.282.223-.75.715-.927-.859.456.088 1.252.724 1.41.657.162 2.419 1.494 3.405 2.335.987.842.664 2.953 1.322 3.514.657.56 3.452 2.547 4.908 3.504 1.456.958 14.505 7.16 15.514 7.508 1.009.35 1.517-2.512 1-2.839-.516-.327-2.325-1.87-3.358-2.524-1.033-.653-.007-2.79.86-3.073.867-.283 5.036-1.239 5.755-1.3.72-.062.007-1.238.046-1.715.027-.322-.363-1.18-1.04-1.946 1.672.128 2.764.328 3.491.54z"/><path class="alpha--darker" d="M272.36 377.1c.375.11.656.225.875.338.247.127.482.323.653.567-.72-.701-2.863-1.036-4.102-1.2a134.56 134.56 0 0 0-5.922-.602c-1.586-.116-7.498-1.868-9.04-2.024-1.388-.14-2.68-.668-3.992-.953l.253.028c5.383.578 14.063 3.097 17.077 3.259 2.071.111 3.373.347 4.198.588zm-.201 8.035c-.14.76-.276 1.509-.218 1.797.216 1.07-.445 3.526-.403 4.709.043 1.182-.21 1.228-.285 2.015-.073.777.15 1.734-.892 2.146l-1.163-2.093c-.361-1.202.656-1.526 1.074-1.628.419-.102 1.632-3.353 1.535-4.676-.046-.64.187-1.604.352-2.27zm-5.204 25.724c.296.081.426.297.426.297s-.727 1.57-1.205 2.13c-.477.559-4.002 4.541-6.458 5.796-2.456 1.256-7.197 2.623-9.457 2.403-2.26-.22-6.32-2.75-7.292-3.611-.972-.862-2.185-2.347-6.744-7.878l28.699 1.963c.999-1.086 1.652-1.205 2.031-1.1zm-2.417 15.52c.103.03.18.159.124.384-.097.393-.044 1.033.083 1.169a.467.467 0 0 1-.097.048c-.71.239-.78.28-.78.28s-.207.838-.89 1.202c-.681.364-5.246 3.498-12.315 2.874-7.069-.624-11.438-3.067-12.954-7.231-.261-.433-.384-.949-.432-1.4 1.035 2.646 3.42 5.671 8.844 7.013 10.645 2.634 17.476-1.743 17.7-2.327.224-.583.363-1.467.446-1.805.042-.17.169-.238.271-.208z" style="fill:#151515"/><path class="alpha" style="fill:#3b3b37;stroke:#151515;stroke-width:.1px" d="M237.203 411.835c-1.635-1.766-3.205-5.233-2.59-10.35.614-5.118.887-7.656.887-7.656l.305-.517.241-4.085c.045-.754.11-1.157.61-1.744-.506-1.309 4.283-3.913 11.226-3.498 6.944.415 11.156 1.576 14.521 3.77s3.954 3.643 4.166 4.702c.211 1.059.003 1.422-.49 1.42 0 0 1.077 5.06 1.6 8.21-.063 2.648-.016 4.614-1.595 8.841-1.579 4.228-5.975 7.64-7.451 8.34-1.476.701-5.948 2.022-7.816 1.915-1.868-.107-6.46-2.368-7.703-3.326-1.243-.96-2.43-1.904-5.911-6.022z"/><path class="alpha" style="fill:#3b3b37" d="M249.698 373.095c-.61.01-1.615.131-2.816-.067a495.55 495.55 0 0 1-6.35-1.113c-.744-.143-.931.05-1.057.238-.127.188-.265 1.152-.288 1.566-.022.413.092 1.32.595 1.304-.14.565.322.958 1.276 1.055.234 1.474-.554 5.63-.93 7.952-1.042.181-1.445.92-1.77 2.396-.521.747-1.856 2.883-2.43 4.82l.118-2.018-.673-1.588c-.959 1.006-1.266.812-1.908.534 1.238-1.981 2.19-5.497 2.132-5.985-.057-.488.3-1.296.454-1.605.169-.342.311-.907.36-1.213.026-.17.513-.29.782-.28.4-.8.917-2.912 1.028-3.121.111-.21.301-.34.565-.689.054-.697.094-1.992.232-2.668.082-.398.372-1.164 1.496-.97 1.025.178 4.498.89 9.184 1.452z"/><path class="alpha--darker" style="fill:#0c0c0c" d="M237.388 379.86c.283.469.998.805.887 1.257-.112.451-.337.715.134 1.07.47.357.866.694.378 1.052-.487.359-.465 1.881-.746 2.051-.282.17-1.44 3.236-1.44 3.236-.584-.543-1.976-1.047-1.414-2.026.561-.979 3.237-5.985 2.201-6.64z"/><path class="beta--lighter" style="fill:#82827a" d="M266.569 392.457c-.212-1.06-.801-2.508-4.166-4.702s-7.577-3.355-14.52-3.77c-6.944-.415-11.733 2.19-11.228 3.498-.5.587-.564.99-.609 1.744l-.24 4.085-.306.517s-.273 2.538-.88 7.627c-.188 5.786 2.519 12.79 13.926 14.31 11.406 1.52 15.94-8.43 16.23-9.602.29-1.172.85-5.592.917-7.056.046-1.032.314-3.563.36-5.21.52-.02.727-.382.516-1.441z"/><path class="beta" style="fill:#4f504b;stroke:#000;stroke-width:.1px" d="M236.993 388.514c-.648 3.096-1.562 11.1-1.723 13.902-.16 2.803 1.38 11.414 12.994 12.096 11.613.683 16.098-6.674 16.297-10.829.199-4.154.468-8.114.255-9.647-.213-1.533-.592-2.633-1.305-3.342-.712-.71-.574-1.03-.268-1.31-3.057-2-8.053-4.065-13.24-4.4-5.186-.336-8.349.243-9.88.693-1.533.45-2.883 1.359-3.13 2.837z"/><path class="beta--dark" style="fill:#2d2928" d="M256.223 402.237c2.239.62 3.128 4.796 3.13 5.65.003.896 1.272 2.593 2.617 1.733-2.47 2.891-6.844 5.296-13.706 4.892-10.212-.6-12.635-7.328-12.962-10.85.362.732.67 1.282 1.562-.062 1.273-1.92 3.943-1.42 8.984.147s6.595-1.163 9.488-1.564c.317-.044.612-.022.887.054z"/><path class="alpha--darker" style="fill:#0c0c0c;stroke:#0c0c0c;stroke-width:.1px" d="M236.325 410.292s-.61.528-.777.886a2.124 2.124 0 0 1-.59.772c.188.366.245.62.105 1.024s-.064.583.096.902c.161.319.24 1.616.278 2.104.039.489.196 3.082.224 3.289.029.207.31.037.517-.152.206-.188 1.547-1.573 1.547-1.573l-.09-5.93z"/><path class="alpha--dark" style="fill:#2a2a2a" d="M237.407 415.03c.973 1.088 2.198 2.294 3.103 2.744.905.45 2.302.964 2.635 1.216.332.252.44.73.401 1.115-.039.386-.48 5.132-.531 5.57-.052.44-.224.905-.81.534-.585-.37-3.088-2.119-3.847-2.702-.76-.583-1.255-2.23-1.27-2.628-.014-.399.116-1.609.061-2.526-.055-.917.033-2.645.033-2.87 0-.226-.014-.4.225-.453z"/><path class="beta--lighter" d="M259.54 389.585c.602.135 1.106.845.94 1.432-.23.818-.801 1.183-1.326 1.027-1.158-.345-1.154-1.725-.331-2.311a.874.874 0 0 1 .717-.148zm-19.488-2c.405.11.783.67.667 1.281-.277 1.455-1.25 1.334-1.58.569-.193-.447.026-1.268.387-1.682a.495.495 0 0 1 .526-.167zm22.874 11.574c.292.072.812.596.628 1.454-.184.857-.788 1.244-1.287.98-.499-.265-.462-1.328-.217-1.86.245-.533.69-.62.876-.574zm-7.045 10.99c.735.158 1.037.742.914 1.239-.193.78-1.08 1.271-1.764 1.2-.829-.086-1.248-.677-1.345-1.066-.14-.561.232-1.307 1.618-1.406.215-.016.408-.002.577.034zm-14.671-1.505c.767.15 1.25.902 1.195 1.47-.032.331-.283 1.03-.888.965-.605-.065-1.168-.516-1.351-1.04-.167-.475.195-1.475.887-1.417.053.004.105.012.157.022z" style="fill:#82827a"/><path class="beta--darker" d="M259.068 390.151c.109.036.207.18.3.256.55.116.776.491.715.736-.06.244-.355.628-.783.505-.486-.14-.425-.784-.29-1.01-.22-.108-.226-.394-.055-.479a.145.145 0 0 1 .113-.008zm-19.066-2.083c.253.059.431.427.396.68-.034.252-.176.794-.495.875-.32.08-.523-.23-.481-.638.041-.41.157-.88.467-.922a.326.326 0 0 1 .113.005zm23.005 11.386c.013.005.027.01.039.017.2.106.307.584.215.956-.092.373-.437.852-.69.733-.252-.12-.36-.592-.294-.863.186-.75.524-.913.73-.843zm-7.495 11.272c.219.057.41.186.466.366.098.32-.155.819-.597.977-.389.14-.85-.15-.949-.471-.098-.32.204-.743.57-.866a.926.926 0 0 1 .51-.006zm-14.186-1.5c.463.114.628.51.627.73-.002.346-.344.638-.703.493-.36-.146-.56-.477-.534-.81a.487.487 0 0 1 .61-.413z" style="fill:#13130f"/><path class="beta--light" style="fill:#737372" d="M254.757 385.75c3.366.854 6.384 2.26 8.486 3.634-.284.26-.422.555.129 1.163-1.105 1.034-2.188-.459-2.902-.971-.719-.517-1.742-.488-2.26.006-.516.493-1.458 1.837-2.15 1.666-.691-.17-1.51-.26-5.39-.898-3.881-.638-6.44-.615-7.863-.571-1.422.043-1.65-1.312-1.107-1.686.544-.373.649-1.025.635-1.423-.015-.399.17-1.37 1.126-1.585l.075-.032c1.653-.171 3.788-.243 6.468-.07 1.62.106 3.223.38 4.753.768z"/><path style="fill:#4b4b49;stroke:#2c2c2e;stroke-width:.1px" d="m237.251 378.964.015.016-.063.255c-.208 0-.495.059-.515.138-.02.08.76.583.979.722-.549 1.191-1.057 2.674-1.593 3.473-.458.682-1.34 2.093-1.696 2.784.759-1.816 1.261-3.805 1.22-4.163-.058-.488.3-1.296.453-1.605.169-.342.311-.907.36-1.214.026-.17.513-.29.782-.28.019-.038.039-.082.058-.126z" class="alpha--light"/><path style="fill:none;stroke:#000;stroke-width:.1px" d="M235.406 387.712c-.119-.329-.322-.878.071-1.5.393-.62 1.08-2.267 1.319-2.747.238-.48 1.294-3.132.875-3.376m28.419 13.859c-.004-1.302-.995-3.539-3.065-4.702"/><path class="alpha" style="fill:#3b3b37;stroke:#151515;stroke-width:.1px" d="M324.685 373.166c-.059-.386-.311-1.124-1.435-.93-1.124.195-6.043.44-11.427 1.018-5.383.578-13.001 2.711-15.353 2.487-2.352-.225-3.559.076-4.215.408-.655.333-1.272 1.241-.693 2.338.578 1.096.756 6.949.455 8.051-.302 1.103.121 3.648-.028 4.87-.15 1.223.097 1.272.103 2.084.007.812-.3 1.812.75 2.23-.883 1.778.322 3.379.115 3.977-.207.598.223 1.694.657 2.86.31.833.657 1.958.528 2.283-.13.325-.287.532-.288.867-.001.335.556 2.248.693 2.633.137.385.62.475.49.967-.129.493-.398 1.774-.655 2.088-.257.315.479 1.766.95 2.822.47 1.056.803 1.727.792 2.19-.01.463-.238 1.975.102 5.265.34 3.291 1.324 6.067 2.034 6.306.71.239.78.28.78.28s.207.838.89 1.202c.681.364 5.246 3.498 12.315 2.874 7.069-.624 11.438-3.067 12.954-7.231.525-.87.493-2.076.41-2.411-.083-.335-.355-8.853-.103-9.033.25-.18-.156-1.845-.156-1.845 1.226-1.788 1.058-5.346.443-10.464-.614-5.117-.235-7.518-.235-7.518l-.192-.505.32-4.02.727-1.58c.909 1.01 1.224.816 1.866.538-1.238-1.981-1.85-5.524-1.747-6.016.103-.491-.156-1.307-.27-1.62-.128-.344-.205-.915-.22-1.224-.007-.172-.466-.294-.724-.285-.306-.807-.22-2.615-.287-2.805-.067-.19-.219-.304-.41-.62.057-.648-.57-2.53.064-2.53z"/><path class="alpha--dark" style="fill:#2a2a2a" d="M293.053 375.86a3.791 3.791 0 0 0-.798.29c-.655.332-1.272 1.24-.693 2.337.579 1.096.756 6.949.455 8.051-.302 1.103.121 3.648-.028 4.87-.15 1.223.097 1.272.103 2.084.007.812-.3 1.812.75 2.23a4.03 4.03 0 0 0-.213.514c5.775.327 23.29-1.239 33.515-3.601l-.364-3.321.633-1.584c.909 1.01 1.224.815 1.866.537-1.238-1.981-1.85-5.524-1.747-6.016.103-.491-.156-1.307-.27-1.62-.128-.344-.205-.914-.22-1.224-.007-.172-.466-.294-.724-.285-.306-.807-.22-2.615-.287-2.805-.067-.19-.219-.304-.41-.62.057-.648.164-1.875.064-2.53-.042-.275-.188-.728-.666-.896.834.439-.111 1.238-.754 1.39-.662.158-2.607 1.362-3.755 2.092-1.147.73-1.128 2.63-1.786 3.192-.657.56-3.452 2.547-4.908 3.504-1.456.958-13.976 6.96-14.959 7.3-.983.34-1.244-2.615-.734-2.94.51-.324 2.296-1.858 3.28-2.493.982-.635.12-2.833-.664-3.147-.784-.314-4.11-1.741-4.685-1.889-.575-.148.1-1.303.083-1.792-.012-.33.296-1.139.78-1.792-1.305-.088-2.219.001-2.864.164z"/><path class="alpha--darker" d="M293.053 375.86a3.791 3.791 0 0 0-.798.29 1.754 1.754 0 0 0-.628.55c.721-.7 2.6-.873 3.58-.88 1.135-.01 3.38.067 4.798.022 1.418-.046 6.537-1.507 8.08-1.663 1.387-.14 2.68-.668 3.99-.953l-.252.028c-5.383.578-13.001 2.711-15.353 2.487-1.617-.154-2.685-.065-3.417.119zm-1.11 8.827c.083.781.155 1.555.074 1.851-.302 1.103.121 3.648-.028 4.87-.15 1.223.097 1.272.103 2.084.007.802-.286 1.785.714 2.212l1.298-2.143c.448-1.234-.512-1.58-.913-1.689-.4-.109-1.29-3.48-1.083-4.844.1-.66-.05-1.655-.164-2.341zm4.01 26.172c-.296.081-.426.297-.426.297s.727 1.57 1.205 2.13c.477.559 4.002 4.541 6.458 5.796 2.456 1.256 7.197 2.623 9.457 2.403 2.26-.22 6.32-2.75 7.292-3.611.972-.862 2.185-2.347 6.744-7.878l-28.699 1.963c-.999-1.086-1.652-1.205-2.031-1.1zm2.417 15.52c-.103.03-.18.159-.124.384.097.393.044 1.033-.083 1.169.033.02.065.037.097.048.71.239.78.28.78.28s.207.838.89 1.202c.681.364 5.246 3.498 12.315 2.874 7.069-.624 11.438-3.067 12.954-7.231.26-.433.384-.949.432-1.4-1.035 2.646-3.42 5.671-8.844 7.013-10.645 2.634-17.476-1.743-17.7-2.327-.224-.583-.363-1.467-.446-1.805-.042-.17-.169-.238-.271-.208z" style="fill:#151515"/><path class="alpha" style="fill:#3b3b37;stroke:#151515;stroke-width:.1px" d="M325.35 411.816c1.226-1.788 1.058-5.346.443-10.464-.614-5.117-.235-7.518-.235-7.518l-.192-.505.32-4.02c.059-.748-.026-1.151-.486-1.741.49-1.308-3.231-3.998-10.174-3.583-6.944.415-11.156 1.576-14.521 3.77s-3.954 3.643-4.166 4.702c-.211 1.059-.003 1.422.49 1.42 0 0-1.077 5.06-1.6 8.21.063 2.648.016 4.614 1.595 8.841 1.579 4.228 5.975 7.64 7.451 8.34 1.476.701 5.948 2.022 7.816 1.915 1.868-.107 6.46-2.368 7.703-3.326 1.243-.96 3.013-1.874 5.556-6.04z"/><path class="alpha" style="fill:#3b3b37" d="M313.246 373.12c.639.03 1.718.203 3.063.104 1.632-.12 6.178-.574 6.922-.717.745-.142.916.04 1.034.222s.2 1.116.18 1.51c-.02.394-.247 1.249-.726 1.242.052.523-.448.898-1.404.974-.466 1.354-.353 5.289-.151 7.625.933.19 1.241.936 1.49 2.418.452.752 1.66 2.898 2.322 4.828l-.196-2.012.633-1.584c.909 1.01 1.224.815 1.866.537-1.238-1.981-1.85-5.524-1.747-6.016.103-.491-.156-1.307-.27-1.62-.128-.344-.205-.914-.22-1.224-.007-.172-.466-.294-.724-.285-.306-.807-.22-2.615-.287-2.805-.067-.19-.219-.304-.41-.62.057-.648.164-1.875.064-2.53-.059-.387-.31-1.125-1.435-.93-1.025.176-5.083.484-10.004.883z"/><path class="alpha--darker" style="fill:#0c0c0c" d="M325.055 379.897c-.317.472-1.022.808-.96 1.263.064.455.247.722-.22 1.078-.469.356-.857.692-.435 1.056.42.364.303 1.894.552 2.066.25.172 1.255 3.251 1.255 3.251.543-.54 1.879-1.04 1.372-2.023-.507-.983-2.616-6.034-1.564-6.691z"/><path class="alpha--darker" style="fill:#0c0c0c;stroke:#0c0c0c;stroke-width:.1px" d="M326.583 410.292s.61.528.777.886c.169.357.394.621.59.772-.188.366-.245.62-.105 1.024s.064.583-.096.902c-.161.319-.24 1.616-.278 2.104-.039.489-.196 3.082-.224 3.289-.029.207-.31.037-.517-.152-.206-.188-1.547-1.573-1.547-1.573l.09-5.93z"/><path class="alpha--dark" style="fill:#2a2a2a" d="M325.501 415.03c-.973 1.088-2.198 2.294-3.103 2.744-.905.45-2.302.964-2.635 1.216-.332.252-.44.73-.401 1.115.039.386.48 5.132.531 5.57.052.44.224.905.81.534.585-.37 3.088-2.119 3.847-2.702.76-.583 1.255-2.23 1.27-2.628.014-.399-.116-1.609-.061-2.526.055-.917-.033-2.645-.033-2.87 0-.226.014-.4-.225-.453z"/><path style="fill:#4b4b49;stroke:#2c2c2e;stroke-width:.1px" d="m325.274 378.995-.015.015.035.258c.199 0 .47.06.48.141.011.08-.786.585-1.008.724.404 1.203.737 2.7 1.182 3.506.38.688 1.14 2.11 1.463 2.803-.675-1.824-.955-3.83-.88-4.19.104-.492-.155-1.308-.27-1.62-.127-.345-.204-.915-.218-1.225-.008-.172-.467-.294-.725-.285a3.122 3.122 0 0 1-.044-.127z" class="alpha--light"/><path style="fill:none;stroke:#000;stroke-width:.1px" d="M326.38 387.801c.118-.328.322-.877-.03-1.502s-.892-2.283-1.077-2.767c-.185-.484-.931-3.161-.51-3.405"/><path class="beta--lighter" style="fill:#82827a" d="M294.29 392.457c.213-1.06.802-2.508 4.166-4.702 3.365-2.194 7.578-3.355 14.521-3.77 6.943-.415 11.732 2.19 11.227 3.498.5.587.565.99.61 1.744l.24 4.085.305.517s.273 2.538.881 7.627c.188 5.786-2.52 12.79-13.926 14.31-11.407 1.52-15.94-8.43-16.23-9.602-.29-1.172-.851-5.592-.917-7.056-.047-1.032-.314-3.563-.36-5.21-.52-.02-.728-.382-.516-1.441z"/><path class="beta" style="fill:#4f504b;stroke:#000;stroke-width:.1px" d="M323.867 388.514c.648 3.096 1.562 11.1 1.722 13.902.16 2.803-1.38 11.414-12.993 12.096-11.614.683-16.098-6.674-16.297-10.829-.2-4.154-.468-8.114-.256-9.647.213-1.533.592-2.633 1.305-3.342.713-.71.574-1.03.268-1.31 3.058-2 8.053-4.065 13.24-4.4 5.186-.336 8.35.243 9.881.693 1.533.45 2.883 1.359 3.13 2.837z"/><path class="beta--dark" style="fill:#2d2928" d="M301.506 407.887c-.002.896-1.271 2.593-2.616 1.733 2.47 2.891 6.843 5.296 13.706 4.892 10.211-.6 12.634-7.328 12.961-10.85-.362.732-.908 1.495-2.417.926-1.076-.406-3.57-1.268-7.8-.446-3.325.647-7.356.213-10.278.213-2.933 0-3.395 2.233-3.556 3.532z"/><path class="beta--light" style="fill:#737372" d="M306.103 385.75c-3.367.854-6.385 2.26-8.487 3.634.284.26.423.555-.128 1.163 1.105 1.034 2.188-.459 2.901-.971.72-.517 1.743-.488 2.26.006.517.493 1.366 1.186 2.057 1.015.692-.172 1.503-.26 5.425-.898 3.921-.637 6.5-.616 7.921-.572 1.422.043 1.651-1.277 1.107-1.65s-.648-.409-.634-.807c.014-.399-.17-1.37-1.126-1.585l-.076-.032c-1.653-.171-3.788-.243-6.467-.07-1.621.106-3.223.38-4.753.768z"/><path class="beta--lighter" d="M300.903 389.751c-.551.115-1.013.809-.85 1.397.224.819.77 1.189 1.254 1.047 1.068-.314 1.017-1.665.255-2.273a.775.775 0 0 0-.659-.17zm18.224-1.579c-.399.105-.744.638-.584 1.214.382 1.37 1.357 1.248 1.625.53.157-.418-.121-1.192-.506-1.585a.532.532 0 0 0-.535-.159zm-21.204 10.97c-.289.073-.796.595-.593 1.438.204.843.828 1.21 1.326.939.498-.271.42-1.309.158-1.826-.263-.517-.707-.599-.89-.552zm7.675 10.46c-.784.205-1.108.808-.978 1.3.204.771 1.155 1.206 1.896 1.085.897-.146 1.35-.77 1.452-1.167.146-.57-.268-1.285-1.752-1.291a2.402 2.402 0 0 0-.618.072zm15.18-2.11c-.756.15-1.182.88-1.09 1.431.055.322.348 1.004.954.935.605-.069 1.145-.513 1.292-1.022.134-.463-.312-1.426-1-1.366a1.318 1.318 0 0 0-.156.022z" style="fill:#82827a"/><path class="beta--darker" d="M301.343 390.33c-.1.031-.188.171-.272.244-.505.099-.71.465-.65.71.061.243.345.63.739.518.447-.127.374-.762.244-.989.201-.1.202-.383.043-.472a.126.126 0 0 0-.104-.011zm17.86-1.699c-.248.057-.402.405-.35.643.053.238.238.746.564.82.327.075.503-.214.43-.599-.072-.384-.218-.829-.53-.87a.323.323 0 0 0-.113.006zm-21.352 10.801a.299.299 0 0 0-.039.017c-.196.107-.293.579-.191.944.102.365.462.83.714.708.252-.122.346-.587.27-.852-.21-.731-.55-.888-.754-.817zM306 410.15c-.235.072-.44.214-.5.398-.105.328.165.812.642.94.419.113.92-.213 1.024-.54.105-.329-.225-.73-.618-.827a1.068 1.068 0 0 0-.548.03zm14.71-2.098c-.456.113-.592.499-.576.711.026.337.388.619.74.475.352-.145.531-.468.48-.79a.527.527 0 0 0-.644-.396z" style="fill:#13130f"/><path style="fill:none;stroke:#000;stroke-width:.1px" d="M294.77 393.948c.003-1.302.995-3.539 3.065-4.702"/></symbol></svg>