<svg xmlns="http://www.w3.org/2000/svg"><symbol id="iboxers" viewBox="224 258 120 120"><path class="alpha" d="M246.2 288.4c0 1.3 0 4.5.2 7.5.3 6-.2 8-1.8 14.8-2.5 10-3 26.4-4 34.2-.6 8.4-.3 14.8-.5 15 9.6 1.3 32.2 5.5 41.8-.6 0 0 4.5-28.6 6.7-32.6 0 0 .6 21.4 1 24.5 2.8 1 7.7 1.2 11.2 1.6 6.3.5 10.3 2.6 16 2 3 0 4.7.2 9-2.2 1.4-.7 2.2-1.8 2.3-3.7.5-.7.6-2.5.2-3.2.3-8.2 1-21.4 0-34.4-1-11.3-3.6-20-4.5-26.2-.3-2-1.2-4-3-5.2 0 0-54 .4-72.8 6.6z" style="fill:#f2f2f2;stroke:#b3b3b3;stroke-width:.5"/><path class="alpha--dark" d="M320.8 280H318l-2.8.2c-.7.8-1.4 1.7-2 2.8 1 0 .7.5.8 1.2 0 .7.6 2 1.8 4.6-.6-.8-2-2-2.4-3-.5-1.4-.6-2.2-3-3 1.3.8 2 2.4 2.6 3.2.6.8 1.2 1.8 1.3 2.7-.7 0-2-1-2.4-2-.5-1-1.2-3-3.5-3.5 1 .5 1 1.5 1.5 2 .6.5 1.6 4 3.6 4 2 .3 1.6 1.4 2.2 2.6.7 1.2 1 3.6 1.5 4.5.5 1 .8 3.2 0 4 .8 0 1.7-.6 1.6-1.6.5.8 1 2 .5 2.6-.5.8.7 1.4 1 .3.6-1 2.6-2 1.6-2.5-1-.4-1-1.2-2.2-2.7 0 0 1 .7 2.5 1-1.2-1-4-4.3-2-4.6 2.2-.2 2.2-.6.4-1.7-1.8-1-6.8-5.8-5.7-6.2 1-.4 6.5 1 6.8 1.6.4.7 2.5 7 3 10.4-.3-1.2.8-2 .5-3.6l.6 1c-1-3-1.7-5.5-2-7.8l-.3-1.2c-.2-1.2-.6-2.5-1.3-3.5-.3-.5-.6-1-1-1.2l-.6-.5zm5.2 17c0 2-.4 3.5-1.5 4-1.8.7-2.4 2.7-3 4.8-.7 2-.7 9.2 1.2 11.7 2 2.5 3.4 4.5 3.7 10 .7-1.7 1.6-9 1.4-11.4.5 1.4.2 2.7.4 3.8 0-2.6 0-5.5-.4-8.4-.5-5.5-1-10.4-1.8-14.3zm4 49c-.3.8-.7 1.5-1.2 2h.5l.8-1.7v-.3zm-32.5-62.2c1 1.3 1.7 5.5 1 8-.4 2.8 4.4 13.3 5.4 15.6-.6-3.8-.4-6-1-7-.5-1.3-2.2-3-2.2-3 2 1 4.3 3 4.3 3-1.6-2.6-3.8-5-4.3-6-.5-1.2 1-5 1.8-5.7 1 2.3.8 2.4 0 4-.8 1.7 1.8 1.5 1.6.3 0-1.2-1.2-3.3-.5-4.6.7-1.2 1.3 1.3 2 .8.8-.4 0-2.3 1-1.8.7.5 3 1.3 2 .3-.8-1-1.6-1.2-1.7-2.2 0-1-.3-1-1.8-2M270 285c1.7 3 3 4.8 4 8.7.6-2.6 1-7 2-9.4-1.4 1-2 3.7-2.2 4.5-1-2.3-2.5-2.8-3.8-4z" style="fill:#ccc;stroke:none"/><path class="alpha" d="M246 288.5s.7-8 1-7.2c.4-.2 3-.7 6-.5 9 .7 22-1.3 29.5-1.3 4.5 0 8-.5 11.7-1 11.8-2 14-1.4 24.5-4 1.2 0 1.2 2 2 4.2.4.7 1.3.8 1.3 2.5-2.2 0-20.2 4-30.5 5-2.2 0-6.8.3-11.6 1-1.5.2-4.3 0-6 .2-3 .4-7-.2-10.8 0-3.8 0-8.6.6-10 .5-3.8-.5-6.6 0-7 .5z" style="fill:#f2f2f2;stroke:#b3b3b3;stroke-width:.5"/><path class="alpha" d="M291 305.8c0 1 1.2 1.5 2 1 .5-.3.8-.8.7-1.3 0-1-1.3-1.6-2.2-1-.4.3-.6.8-.6 1.3z" style="fill:none;stroke:#b3b3b3;stroke-width:1"/><path class="alpha" d="M288.3 327c1.4-2.7 2.7-3.8 4.8-6.5 2-2.7 3.4-1.6 4-6 .5-4.3-.4-5.2-.4-8 0-2.6-1.5-10.2-2-13-.3-3-1-5.5-1.7-7.5" style="fill:none;stroke:#b3b3b3;stroke-width:.5"/><path class="alpha" d="M285 280.2c0 2 .2 3.7.5 5.5 4-.3 6.7-.6 9-1-.8-1.8-1-3-1.2-4.8z" style="fill:none;stroke:#b3b3b3;stroke-width:.25"/><path class="alpha--dark" d="M281.6 287c.8 1.4 2.3 7 .8 19.2 3.6-12 .7-16.6-.8-19.3zm-32.3-6.2c-1.4.8-1 3-.7 3.8 0-1.8-.3-2.5.7-3.8zm45.9 5c2.3 3.4 0 10.8 4 19.5 3.8 8.6 4.4 9.7 5.4 9.8 1 0-4.4-9.8-4.8-11-.4-1-1.3-3-1-4 .4-1.2-1-4.3-1.4-5.7-.2-1.4-1-5.5-1-6.4-.2-1-1.2-2.2-1.2-2.2zm-39.2 2.4c-1.3 2-1.8 4.5-2 7-.4 2.7-2 4.7-2.6 3.5-.7-1.3 0-3.5 1-4.6 1.6-2 2.7-5.4 3.5-5.8zm33.3 46.3s-.3.2-.6.8l-.2 1L290 351c2.6 1 7.2 1.5 10.7 1.8h.3l-6-1.7c-.6 0-1-1-.2-1.3 1-.3 1.5-1 .4-2-1-1-2-3 .3-2.3-1.2-.7-1.7-1.8 1.3-.4-2-1.3-1.8-2.3 1.5-1.3-1.7-1-4.2-2.4-2.2-2.3 2 0 7.4 2.3 10.7 4.4-5.2-5.5-10.6-6.3-11.6-6.4-1 0-5.8-2.2-5.6-3.2v-1.7z" style="fill:#ccc;stroke:none"/><path class="alpha--dark" d="M250.6 287.3c-1.8 0-2.2 0-3.6.8-.4 2.2-.8 4.2-.6 7 .7 7.2-.4 11-1.4 15-1.7 6.6-3.6 24.8-4 33.8-.7 8.4-.7 16-1 16.2 4 .6 10.6 1.7 18.6 2l-3.4-8c-1.6-4.2 2.5-11.6-.2-18.3-2.7-6.7 2.5-12.8.7-17.2-1.8-4.4-6.8-22.5-7.3-24.3-.6-1.7 1-4 3-6.8h-.8zm26 20.5c-2.4 4-2 7.6-.5 11 1.7 3.5.6 6.8 2 9 1.4 2 5 3.6 7 3.6 2.3 0 .8-2-.8-3-1.5-1.4-1.5-7.6-4.2-9-2.7-1.2-2-4.5-2.6-5.4-.6-1-1.8-2.7-.8-6.2zm17.8 19.9c2-.2 5.8-3.6 7.3-4.7 1.5-1.2 4.5-9 4.6-11.5.2-2.4-.7-8 .5-9.6 1.3-1.6 3.3 3 3.6 4 .3 1.3 2 8.7 0 12-2 3 .2 4.3 1.4 6.2 1.2 2-.5 7-2.6 6.2-2-.8-3.5-2.6-7.3-2.7-4 0-6 1-7.6 0zm-2.6.8c-1.6 0-2.5 1-3.2 2v4c0-.2 0-.4.2-.5 1-.6 1.3-2 1.5-3 .2-.8 0-2.4 1.5-2.5zm-5.2 5.6c-1 1.5-2 2.7-4 3-3.8.6-4.7 4.3-1.8 5 2.8.7-.3 3-2 4.6-1.6 1.5-.5 8.2 1.8 8 1.3-.2 2.7-2.2 3.7-4.4.6-5 1.4-11.2 2.3-16zm15.9-54.1.2-2.8c.4 1-.3 2.5-.2 2.7zm1.5-.7c-.2-.5 0-2 0-2.2.2 1.2-.2 2 0 2.3zm1 .1V277c.5.7 0 2 0 2.4zm-36.2 3c-.4-.4-.3-1.6.2-2l-.2 2zm-8.4-1.6c.4 1-.3 3.7.6 5.6-1.2-1.5-2-3.6-1.6-4.8 0 1 0 1.2.4 1.7l.2-1.4.2 1.3c0-.8.4-2 .2-2.5zm19.6 6.6c0-.8-1-2.7-1.3-3 1 1 1.3 2.6 1.3 3zm1.5-.4c-1-.8-1.3-4.4-1.5-5.3.4 2 .4 3.7 1 4 .3.4.4.6.5 1.4zm2.7-4.6c-.7-.6-.5-2.6 0-2.8-.2 1.5-.2 1.8 0 2.8zm-26.2 5.3c-1-1-1.5-2-1.5-2.5 0-.4.2-2-.3-2.7.2 1.3.2 2 0 2.8v1.4c-.6-.7-.6-.8-.8-1.3 0 .8 1 1.7.8 2.3 0 .6.7.3.5-.7.3.4 1 .3 1.4.7zm53.5-9.4c-.3-.7.2-2-1-2 1.4-.6 1 1.2 1 2zm2.8-.3c0-1 .2-1.8-.5-2.5 1 .2 1 1.3.5 2.5zm.7-3c-.2.8 0 1.3 0 1.7.4-.6.7-1 0-1.6z" style="fill:#ccc;stroke:none"/><path class="alpha--dark" d="M315.8 275c1 .2 1 1 1 1.4-.2.3 0 1 .3 1.4l-.4-.7c0 .4-.2.6.3 1.4-.4-.2-1-1-1.2-1.6 0 .5 0 .5.4 1.4-.2-.3-.8-1-.7-1.4 0-.5.3-1-.3-1.6.6 0 .5.5.6 1 .2-.4.4-.8 0-1zm.5.7c0 .3-.5 1 0 2 0-.6.4-1.3 0-2zm2.4-1.3c1.2 0 1.2 2 2 4.3.4.7 1.3.8 1.3 2.5-.4 0-1.2 0-2.4.3 0-.4 0-1-1-1.3.3.5.4 1 .3 1.4h-.2c0-.6-.6-1-.7-1.8 0 .5 0 .7-.4 1 0-.5 0-2.2-.2-3 .3.4.5 1.2.5 2 .2-.4.4-1 0-1.6-.2-.6.4-1 0-2.8.4.5.2 1.2 1 2-.3-.5-.3-1-.2-1.5 0-.6 0-1-.8-1.4.2 0 .4 0 .7-.2zm-71.4 7c-.6.7 0 2.4 0 2.8V283l.7 1c-.8-1.5-.8-1.7-.7-2.6zm-.6 4.3c1 1.5 0 2 .2 2.6-.7-1 0-2-.3-2.6zm7.8-.7c1 1.4 0 1.3-.6 1.8.2-.7.6-1.5.5-1.7zm6-4c.5 0 1 0 1.5-.2-.4 0 0 .5 0 1-.3-.7-.6-1-.6-.5 0 .4.5 1.3.4 2 .3-.3.3-.5.4-1 0 .4-.4 2.6 0 3.5 0-.8.3-1 .4-1.8 0 1.2.2 2 .5 2.4l1 1h-2c-.8-1-1-1.5-.7-2 .3-.7.2-1.2-.2-1.6-.2-.4 0-1.3 0-1.3s.5-1.2-.5-1.6zm1.8-.2h1.4c.3.7.5 1.5 0 2-.2.7 0 1.8.4 2.5-.2-.5-.6-1-.6-1.5-.2 1 0 1.8.2 2.3-1-1.2-.8-2.8-.6-3 0-.3 0-2-.7-2.2zm6.1 9.9c0 2 1.5 8.4.8 10.4-.6 2-1.8 16.4-1 19.5.5 3 4 7 5.3 7.5 1.3.6.7-1.6-.3-3.6s.2-4.3-.5-6.2c-.7-2-.5-9 .4-11.3 1-2.4.5-4.7 0-5.8-.7-1-.8-3.5 0-4.4.8-1-1-2-1.7-3.3-.8-1.3-.3-3.4-1.6-4.3 1.2 2-.4 2.4.5 5-1.2-1.7-1.4-2.8-1.8-3.5zM249 288c-.8-.4-1.3-.8-1-3 0 1.3 1 2.3 1 3zm.5-2.2c-.3.7-.3 2.2 1.3 2-1-.5-1.3-1.5-1.3-2z" style="fill:#ccc;stroke:none"/></symbol><symbol id="iplain" viewBox="228 238 120 120"><path class="alpha" d="M247 282.6c17 6.4 54.3 7.4 72-7 3 5 6 18.6 7 21-3.7-4-25.5 4.4-28 15.8-2.8 14.5-13.2 13.4-19.5 3.2-10-16-30-13.3-32.2-13.7 0-7.8.7-14.4.7-19.4z" style="fill:#f2f2f2;stroke:#b3b3b3;stroke-width:.5"/><path class="alpha--dark" d="M272.2 299c5.5 2.3 7 2.8 10.4 5-2.2-2.7-6.2-4.2-10.4-5zm25.3-4.3c-7.4 6.4-15 4.7-26.8 1.4 9.7 2 18.7 2.4 26.8-1.3z" style="fill:#ccc"/><path class="alpha" d="M246.3 288c27.6 5.5 52.2 7.6 75-7.8" style="fill:none;stroke:#b3b3b3;stroke-width:.5"/><path class="alpha" d="M275 311c-1-6.3 2.4-12.2 3-19" style="fill:none;stroke:#b3b3b3;stroke-width:.5"/><path class="alpha--dark" d="M314.5 294.2c-9.5.2-17.8 4.3-23 8.6 2.6-1 8.7-4.7 13.7-5.4-7 3.4-9.4 15.8-16.8 16.4-7.3.7-9-5.7-13.4-8.3-4.3-2.7-11-5.4-27-4l.3.4c6 0 21.7-.2 30.2 13.6 6.3 10.2 16.7 11.3 19.6-3.2 2.2-10 19.5-18 26.2-16.7v-.3c-3.3-1-6.6-1.3-9.7-1.2z" style="fill:#ccc"/><path class="alpha" d="M299.5 308.6c0-6-4.2-11-5-17.5" style="fill:none;stroke:#b3b3b3;stroke-width:.5"/></symbol></svg>