<svg xmlns="http://www.w3.org/2000/svg"><symbol id="ibolo" viewBox="241 140 80 80"><path class="gamma" d="M284.5 205c-.6-7-2.6-23.8-.8-26.8s17-6.3 11.4-26" style="fill:none;stroke:#000;stroke-width:1"/><path class="alpha" d="m284.5 205-.5-5.8" style="fill:none;stroke:gray;stroke-width:1.5"/><path class="gamma" d="M281.2 208.3c0-7 1.7-28.4-.2-31.4-2-3-16-2.3-13-21" style="fill:none;stroke:#000;stroke-width:1"/><path class="alpha" d="M286.8 177a4.6 4.6 0 1 1-9.2 0 4.6 4.6 0 1 1 9.2 0z" style="fill:gray;stroke:#4d4d4d;stroke-width:.5"/><path class="alpha" d="M285.4 177a3.3 3.3 0 1 1-6.6 0 3.3 3.3 0 1 1 6.6 0z" style="fill:#999;stroke:#4d4d4d;stroke-width:.5"/><path class="beta" d="m284 179.5-1.6-1-1.6 1 .2-1.8-1.3-1.2 1.8-.3.8-1.7.8 1.6 2 .3-1.3 1.4.3 1.8z" style="fill:red;stroke:#4d4d4d;stroke-width:.5"/><path class="alpha" d="M281.2 208.3c0-1.6 0-3.6.2-5.8" style="fill:none;stroke:gray;stroke-width:1.5"/></symbol><symbol id="ibow_1_of_2" viewBox="241 140 80 80"><path class="alpha" d="M271.4 169.4c8.7-1.7 5.6 2.7 11.5 3 3.2 0 3-4.7 10.2-3 .8 2.2 2 6.6-.8 9.8-6-2-6-3.5-9.7-3.5-3.6 0-5.6 3.3-10.8 3-1.7-4.2-2-2.6-.6-9.3z" style="fill:#333;stroke:#000;stroke-width:1"/><path class="alpha" d="M284.3 175.8c1.4-1 1-4 0-4.6-2.4-.5-4-.2-4.8.2 1 1 1.3 4 .6 5 2 .4 4 .3 4.3-.6z" style="fill:#333;stroke:#000;stroke-width:1"/></symbol><symbol id="ibow_2_of_2" viewBox="241 140 80 80"><path class="alpha" d="M285.3 171c6-1.4 14.8-9.4 9.5-17.4 1 6.5-8 16.6-11.4 17-1.2 0-3.8 0-6-.4-2.4-.5-7.4-6-9.4-13.5-2 8.6 4 15 8 15.3 4.3.3 8 1.2 9.3-1z" style="fill:#1a1a1a;stroke:#000;stroke-width:.25"/></symbol><symbol id="ineck" viewBox="241 140 80 80"><path class="alpha" d="M285.3 171c6-1.4 14.8-9.4 9.5-17.4 1 6.5-8 16.6-11.4 17-1.2 0-3.8 0-6-.4-2.4-.5-7.4-6-9.4-13.5-2 8.6 4 15 8 15.3 4.3.3 8 1.2 9.3-1z" style="fill:#d40000;stroke:maroon;stroke-width:.25"/><path class="alpha" d="M283 176.8c8.4 26 8.5 70 10.7 95.7-2.6 4.8-4 8.7-7 13-3.7-3-8.5-8.3-10-11 .5-18 .3-76.4 3.4-97.2 0-1.5 2.7-1.8 3-.5z" style="fill:#d40000;stroke:maroon;stroke-width:.5"/><path class="alpha" d="M275.6 172c3 .3 3 8 4.3 7.6.4-1.2 3.4-1.3 3.7-.3 1 .3 2-6.4 2.4-8 .5-1.5-8.8-2.8-10.4.6z" style="fill:#d40000;stroke:maroon;stroke-width:.5"/><path class="alpha--light" d="M282.2 180c-4-.3-5.2 48.3 2.5 48.3 7.6 0 2.5-48-2.5-48.4z" style="fill:red;stroke:none;stroke-width:.5"/><path class="alpha" d="M282.3 181.8c.4 10-2.7 24.5 2 24.5 3.3 0-.7-16.5-2-24.5z" style="fill:#d40000;stroke:none;stroke-width:.5"/></symbol></svg>