<svg xmlns="http://www.w3.org/2000/svg"><symbol id="iartillery" viewBox="207 120 150 150"><g id="shoulderpads_artillery_right"><path class="alpha" d="M279 261.8c-4.8-15-25.2-79.4-27-91.4-3.3.5-14.4 4.3-15 4.4 1.4 7.5 26.3 91.3 27.2 94.3 2.7 10.3 19.2 6.8 14.8-7.2z" style="fill:#dca76b;stroke:#bb763b;stroke-width:.5"/><path class="alpha" d="M246.2 175c0-3.5-1.7-1-3.8 1-1.2.8 24 85.7 27 92.3 1.3 2.6 5.3 2.3 4.2-1.2-1-3-27.4-88-27.4-92z" style="fill:#dca76b;stroke:#bb763b;stroke-width:.5"/><path class="alpha" d="m246 216.7 17.3-5.6c.2 0 .6.4.8.8.3.5 1 3.2 1.4 3.7.2.6-.2 1.3-.2 1.3 0-.3-.7-.4-1.2-.3-.4 0-14 4.2-14.5 4.3-.5.2-2.2 0-2.3-.2l-1.2-4zm13.5 40.3s16-4.7 16.5-5c.2 0 .4.5.5.8l1.3 4c.2.4-.3.5-.3.5 0-.4-.8-.4-1.2-.3-.5 0-14.5 4-15 4.3-.4 0-.6-.3-.6-.5l-1.2-4z" style="fill:#dca76b;stroke:#bb763b;stroke-width:.5"/><path class="beta" d="M213 171.4c1.7 14.2 9.4 23.7 12.8 28.3 3.5 4.7 12.7 17 18.5 17 5.8.4 25-8.8 25.7-9.3-1-10.7-7.8-42.4-8.8-46.3-12 2-44.3 8.8-48.2 10.4z" style="fill:#b8897c;stroke:#915e4b;stroke-width:.5"/><path class="beta" d="M257 212c8.3-5 10.6-11 8.8-13.5 1.8-2 0-5-.4-5.3 1.3-2.5 0-5.7-.7-6.8 1-3-.5-6.5-1.2-7 .8-2.7-.3-5.7-1.3-7.3 1-2.2-1-5.6-2.8-7.6.7-2-1-5.7-3-8-1.8-2.3-3.6-1.7-5.2-1-1.6 1-1.4 1-3.3.5-2-.6-5 .3-6.5 1.2-1.5 1-3 .8-4.8.8-2 0-7 2.6-10 3-3.2.7-5 2.2-5.6 2.7-4.2-.4-10.5 1.5-6.4 7.5-.3 2.3.6 4.5 2.6 5-1 2.5 1.2 5.3 2.2 6-.8 1.2-.3 2 1 2.2-.4 1 .4 2.6 1.3 3.8.4 1.4 1.7 3 2.4 2.7-.6 1.2 1 3.5 1.8 3.3 0 1.6 1.3 3.3 2.3 4 1 .5 1.4 1.7 2.3 2.8 1 1.2 1.4 4.2 3.8 5.6 2.4 1.5 5 4.8 8.6 6.5 2.2 3.4 2.4 6 14.5-1z" style="fill:#bc907b;stroke:#7f5f58;stroke-width:.5"/><path class="beta--dark" d="M257.5 157.7c0 2-1 4-1.6 3.7 4.4 2.2 2.4 4 .7 3.3 4 1.5 5.4 6.3 5 6.2-.3 0-1-.4-2.7-.6 1.3.4 3.3 2.5 3.4 4.4-.6-.6-2-1-3.2-1 1.3.8 3.3 2 3.3 3.2 0 1.2-.6 1.7-3.4 2.4 3.4 0 4 1.4 4.3 2.5.2 1-1 2.4-4 3.6.6-.2 1.7-.3 2.4-.3.8 0 1.6.6.6 1-1 .2-1.2.3-3.6 1.6 1-.6 3-1 3.8-1 1 0 1.8.2 1.8.8 0 .6-.2.4-3.2 1.2 4 0 4.2 3 1 3.8 4.2 1.4 3.7 5.2 1 5.7 5.7 1.6 0 8.6-5.4 12-5.3 3.5-10.7 5.8-12 5-1-.8-2.3-2.4-1.5-2.5 1 0 1.5-.5 2-1-2.2.4-3-.7-4-1.2-.8-.5-1.3-.5-.5-2-.8.5-2.5.3-2-.3.3-.5 1-1 1-1.7-.7.5-2.7 1.3-2.7 0s-1.7-4.2-3-3.3c-1.2 1-1.5.3-1.2-.4.4-.7 1.4-1.7 2.8-2.4-1 .2-1.7.7-2.4 1.2s-2 .4-1.7-.3c.3-.7 4-3.4 5-3.6-1.7 0-3.7 1.5-4.3 2-.7.2-1.8.8-1.3-.2s1.6-2 2.3-2.4c-3 .7-7.8-3.3-6.4-4.8-1 .3-2.5-1-1.2-2.7-1.7.4-3.3-.8-2.6-1.8.6-1 2.6-2.6 5-4-1 0-3.5 1.2-5 2.4-1.3 1-1.6.3-1.3-.3.4-.7 1.5-1.2 2.6-2.2-2 1.5-2.7 1-1.8-.3-1.6 1.5-2.7.7-1.8 0 .8-1 2.2-2.3 3.8-3-1 0-3.3.6-4 1.3-.8.8-2 .7-1-.3.7-1 2.2-2.7 5-4 0 0-4.5.4-5.7 1-1 .6-2.2-1-1.2-2 1-.7 2.3-1.6 5.5-3.5-1 0-3.7 0-5.2 1s-1.7-.6-1.5-1.2c.4-.5 1-1.3 4.6-2.5-3.7 0-5.6-1-2.5-3.5-3.7.8-5.4 0-4.8-1.5-1.2 1.2-1.4 3 .4 5.7-.3 2.3.6 4.5 2.6 5-1 2.5 1.2 5.3 2.2 6-.8 1.2-.3 2 1 2.2-.4 1 .4 2.7 1.3 3.8.4 1.4 1.7 3 2.4 2.7-.6 1.2 1 3.5 1.8 3.3 0 1.6 1.3 3.3 2.3 4 1 .5 1.4 1.7 2.3 2.8 1 1.2 1.4 4.2 3.8 5.6 2.4 1.5 5 4.8 8.6 6.5 2.2 3.4 2.4 6 14.5-1 8.3-5 10.6-11 8.8-13.5 1.8-2 0-5-.4-5.3 1.3-2.5 0-5.7-.7-6.8 1-3-.5-6.5-1.2-7 .8-2.7-.3-5.7-1.2-7.3 1-2.2-1.2-5.6-3-7.6.7-1.7-.4-4.4-1.8-6.7zm-41 6.5c-.7.2-1.3.5-1.7.8l1.6-.8z" style="fill:#835c55;stroke:none"/><path class="alpha" d="M260.5 207.8c-5.3-14.5-17-53-17-53-3.2.5-14.3 4.4-15 4.6 1.6 7.4 15.6 54 17 57 1.8 4 19.3 4.3 15-8.6z" style="fill:#dca76b;stroke:#bb763b;stroke-width:.5"/><path class="alpha" d="M245.7 184.5c-1.5-3.2-4.5-1.8-3.8.8.6 2.7 7 24.2 8 26.5 1.3 2.7 6 2 5.3-1-.8-3-8-23.2-9.6-26.3z" style="fill:#dca76b;stroke:#bb763b;stroke-width:.5"/><path class="alpha" d="m238.2 194.7 16.2-4.7c.3 0 .7.3.8.7.3.5 1 2.7 1.2 3.2.2.4-.3 1.3-.3 1.3 0-.4-.7-.4-1-.3l-15 4.5c-.4 0-.6-.7-.6-1l-1.2-3.8zm1.8 5.9s15.8-5 16.4-5c.3 0 .4.4.6.7l1.3 3.8c.2.7-.3.7-.3.7 0-.4-.8-.4-1.2-.3l-15 4.5c-.3 0-.5-.4-.6-.6l-1.2-3.8z" style="fill:#dca76b;stroke:#bb763b;stroke-width:.5"/><path class="gamma" d="M246.4 157c-3.4.4-17 3.6-17.4 4-.5.2-6.4-1.7-7.4-1.5-.4-1-.8-2.8-.6-4 1.7-.8 6.4-4 6.4-4l16.2-4.3c.6 2.8 2.8 9.7 2.8 9.7z" style="fill:#adb7bd;stroke:#6b6364;stroke-width:.5"/><path class="gamma--light" d="M244.6 153c-2.7.4-16.2 4.2-16.6 4.3l-6.2.6c0-.4-.3-1-.2-1.5l5.4-2.7 16.8-3.7.8 3z" style="fill:#e4eae9;stroke:none"/><path class="delta" d="m221.8 155-.8.6c-.2 1 .2 3 .6 4h1c-.7-1.8-.8-3.4-.8-4.5zm21.8-7.8h-.7l2.7 9.8h.7s-2.2-7-2.8-9.8z" style="fill:#393435;stroke:#31292b;stroke-width:.5"/><path class="gamma" d="M247.4 164.7c-3.4.5-17 3-17.5 3.4-.6.3-6.4-1.8-7.4-1.6-.4-1-.7-2.8-.5-4 2-.8 6.7-3.8 6.7-3.8L245 155c.6 3 2.4 9.7 2.4 9.7z" style="fill:#adb7bd;stroke:#6b6364;stroke-width:.5"/><path class="gamma--light" d="M245.8 160.8c-2.7.3-16.4 3.6-16.8 3.6l-6 .4c-.2-.3-.4-1-.3-1.4l5.5-2.5s16.4-3 17-3l.6 2.8z" style="fill:#e4eae9;stroke:none"/><path class="delta" d="m223 162-1 .5c0 1 .2 3 .6 4h1c-.6-1.8-.7-3.4-.6-4.5zm22-7h-.6c.8 4 1.7 7.5 2.4 9.8h.6L245 155z" style="fill:#393435;stroke:#31292b;stroke-width:.5"/><path class="gamma" d="M249.6 170.5c-3.4.6-17 3.8-17.3 4-.5.4-6.4-1.5-7.4-1.3-.5-1-1-2.8-.7-4 1.7-.8 6.4-4 6.4-4l16.2-4.3c.5 2.7 2.6 9.5 2.6 9.5z" style="fill:#adb7bd;stroke:#6b6364;stroke-width:.5"/><path class="gamma--light" d="M248 166.6c-2.8.5-16.4 4.3-16.7 4.4l-6.2.6-.2-1.4 5.5-2.7 16.8-3.7c.4.7 1 2.8 1 2.8z" style="fill:#e4eae9;stroke:none"/><path class="delta" d="m225 168.8-.7.5c-.3 1 .2 3 .6 4h1c-.8-1.8-1-3.5-1-4.5zm22-7.8h-.8c1 4 2 7.4 2.8 9.7.2 0 .5 0 .6-.2L247 161z" style="fill:#393435;stroke:#31292b;stroke-width:.5"/><path class="gamma" d="M251.2 176c-3.4.6-16.8 4.4-17.2 4.6-.5.3-6.5-1.3-7.4-1-.5-1-1-2.8-.8-4 1.7-1 6.2-4.3 6.2-4.3l16-5c.8 3 3.2 9.6 3.2 9.6z" style="fill:#adb7bd;stroke:#6b6364;stroke-width:.5"/><path class="gamma--light" d="M249.3 172c-2.7.6-16 5-16.5 5-.7 0-5.4 1-6 1-.2-.3-.5-1-.4-1.5l5.3-3 16.7-4.2 1 2.8z" style="fill:#e4eae9;stroke:none"/><path class="delta" d="M226.6 175.2c-.3 0-.6.3-.8.4-.2 1.2.3 3 .8 4h1c-.8-1.8-1-3.4-1-4.4zm21.4-8.8s-.5 0-.6.2l3 9.5h.8s-2.4-6.8-3.2-9.6z" style="fill:#393435;stroke:#31292b;stroke-width:.5"/><path class="alpha" d="M226.6 151.7c2.2 8.4 7 26.8 8 29 1.6 4.5 13.5 2 11.7-3.4-.4-1-1.8-4.3-3-8l-6.2-20.5c-2.6.2-9 2-10.4 3z" style="fill:#dca76b;stroke:#bb763b;stroke-width:.5"/></g><g id="shoulderpads_artillery_left"><path class="alpha" d="M291.6 263.8c3.6-15 18.8-78.3 20.8-93 3 .3 14.2 3.2 15 3.3-1 7.4-19.2 90-19.8 93.2-2 10-18.4 6.7-16-3.4z" style="fill:#dca76b;stroke:#bb763b;stroke-width:.5"/><path class="alpha" d="M318.3 175c-.3-3.5 1.6-1 3.7.5 1.2 1-17.4 84.8-20 91.3-1 2.7-5 2.7-4-.8.6-3 20.5-87 20.3-91z" style="fill:#dca76b;stroke:#bb763b;stroke-width:.5"/><path class="alpha" d="m321.2 215.3-17-4.3c-.3 0-.6.3-.8.7 0 .6-.8 3.2-1 3.8 0 .5.3 1.2.3 1.2 0-.4.6-.5 1-.4.6 0 14 3 14.4 3.2.6 0 2.3-.2 2.4-.4l.8-3.7zM311 255.2l-16.4-3.6c-.2 0-.3.4-.4.8-.3.6-1 3.3-1 3.8-.2.5.3.5.3.5 0-.3.7-.4 1.2-.3l14.7 3c.5.2.6-.2.6-.4l1-3.8z" style="fill:#dca76b;stroke:#bb763b;stroke-width:.5"/><path class="beta" d="M352 169c-.8 14-7.6 23.7-10.7 28.4-3 4.7-11 17.2-16.7 17.8-5.7.7-24.8-7-25.6-7.4.3-10.4 4.7-41.6 5.4-45.5 11.7 1 43.5 5.5 47.5 6.7z" style="fill:#b8897c;stroke:#915e4b;stroke-width:.5"/><path class="beta" d="M311.8 211.3c-8.3-4-11-9.8-9.3-12.4-2-2-.5-4.8 0-5.3-1.4-2.3-.3-5.5.3-6.6-1-2.6 0-6.2.6-6.8-1-2.6 0-5.6.7-7-1-2.3 1-5.7 2.3-7.8-.7-2 .6-5.5 2.3-8 1.7-2.3 3.5-1.8 5-1.2 1.8.7 1.5.8 3.3.2 1.7-.7 4.8 0 6.3.8s3 .6 4.7.5c1.8 0 7 2 10 2.3 3 .3 4.8 1.7 5.5 2 4.2-.6 10.3 1 6.8 7 .4 2.2-.3 4.3-2.2 5 1.3 2.4-.7 5.2-1.6 6 .8 1 .4 2-.8 2.2.5 1-.2 2.6-1 3.7-.3 1.3-1.5 3-2.2 2.8.8 1-.5 3.4-1.4 3.3.2 1.7-1 3.4-2 4-1 .7-1 2-2 3-.8 1.2-1 4-3.2 5.7-2.2 1.6-4.3 5-7.8 6.8-2 3.3-2 6-14.2-.2z" style="fill:#bc907b;stroke:#7f5f58;stroke-width:.5"/><path class="beta--dark" d="M307.8 158.8c0 2 1.2 3.7 1.8 3.5-4.3 2.4-2.2 4-.6 3.3-4 1.7-4.8 6.4-4.5 6.3.4 0 1-.5 2.6-.8-1 .5-3 2.6-3 4.5.7-.6 2-1 3.3-1-1.3.7-3 2-3 3.2 0 1 .7 1.5 3.4 2-3.2.2-3.8 1.6-4 2.7 0 1 1.3 2.3 4.3 3.3-.7-.2-1.8-.2-2.4 0-.8 0-1.6.5-.6.7 1 .3 1.3.3 3.6 1.4-1-.3-3-.5-3.7-.5-1 0-1.8.4-1.8 1 0 .5.2.3 3.2 1-3.8.3-3.8 3-.7 3.6-4 1.7-3 5.4-.6 5.7-5.2 2 1 8.4 6.2 11.4 5.4 3 10.8 5 12 4 1-.8 2-2.5 1.3-2.5-.8 0-1.4-.3-1.8-.8 2 .2 3-1 3.7-1.5.8-.5 1.3-.5.4-2 .7.5 2.4.2 2-.3-.5-.6-1-1-1.2-1.7.7.4 2.7 1 2.6-.2 0-1 1.3-4 2.6-3.4 1.3.8 1.6.3 1.2-.4-.4-.7-1.5-1.6-2.8-2.2 1 0 1.6.5 2.4 1 .7.5 1.8.2 1.5-.4 0-.7-4-3-5-3.2 1.8 0 3.8 1.3 4.4 1.6.7.3 1.8.8 1.3-.2-.6-1-1.8-1.7-2.5-2 3 .4 7.4-3.8 6-5.2 1 .2 2.3-1 1-2.7 1.6.3 3-1 2.4-2-.7-.7-2.8-2.3-5-3.5 1 0 3.3 1 4.7 2 1.4 1 1.7.3 1.3-.4-.4-.5-1.5-1-2.6-1.8 2 1.2 2.7.6 1.8-.6 1.6 1.4 2.7.6 1.8 0-1-1-2.3-2-4-2.8 1 0 3.3.5 4 1 .8.8 2 .6 1-.2-.7-1-2.3-2.6-5-3.7 0 0 4.3 0 5.4.6 1 .5 2-1.3 1-2s-2.3-1.5-5.5-3c1 0 3.6-.4 5 .6 1.6 1 1.8-.7 1.5-1.3-.3-.6-1-1.3-4.6-2.2 3.7-.2 5.4-1.5 2.2-3.6 3.8.5 5.3-.5 4.7-1.8 1.2 1 1.5 3 0 5.6.4 2.2-.3 4.3-2.2 5 1.3 2.4-.7 5.2-1.6 6 .8 1 .4 2-.8 2.2.4 1-.2 2.6-1 3.8-.3 1.3-1.5 3-2.2 2.7.8 1.2-.5 3.5-1.4 3.4.2 1.7-1 3.4-2 4-1 .7-1 2-2 3-.8 1.2-1 4-3.2 5.7-2.2 1.6-4.3 5-8 6.8-1.8 3.3-1.7 6-14-.2-8.3-4-11-9.8-9.3-12.4-2-2-.5-4.8 0-5.3-1.4-2.3-.3-5.5.3-6.6-1-2.6 0-6.2.6-6.8-1-2.6 0-5.6.7-7-1-2.3 1-5.7 2.4-7.8-.7-1.6 0-4.3 1.4-6.6zm40.3 3.5 1.7.7-1.6-.7z" style="fill:#835c55;stroke:none"/><path class="alpha" d="M308.2 207.6c4.2-14.4 13-52.6 13-52.6 3 .3 14 3.4 14.8 3.4-1 7.4-11.4 53.6-12.6 56.5-1.5 3.8-18.5 5.4-15.2-7.4z" style="fill:#dca76b;stroke:#bb763b;stroke-width:.5"/><path class="alpha" d="M321 184c1.3-3.2 4.2-2 3.7.5-.5 2.6-5.3 24-6 26.3-1 2.6-5.8 2.3-5.2-.6.5-3 6.2-23 7.5-26.2z" style="fill:#dca76b;stroke:#bb763b;stroke-width:.5"/><path class="alpha" d="m329 193.4-16-3.5c-.3-.2-.7.2-.8.6-.2.5-.7 2.7-1 3.3 0 .4.4 1.2.4 1.2 0-.4.8-.5 1.2-.4.5 0 14.3 3.2 14.8 3.3.4.3.5-.6.5-.8.2-.2 1-3.8 1-3.8zm-1.4 5.8-16.2-3.8c-.3 0-.4.4-.5.8-.4.6-1 3.4-1.2 3.8 0 .5.4.5.4.5 0-.3.7-.4 1.2-.3l14.7 3.3c.5 0 .7-.3.7-.5l1-3.8z" style="fill:#dca76b;stroke:#bb763b;stroke-width:.5"/><path class="gamma" d="M318.5 157.3c3.3.3 16.6 2.5 17 2.7.6.3 6.2-2 7.2-1.8.3-1 .6-2.8.3-4-1.7-.6-6.5-3.4-6.5-3.4s-15.3-3-16-3c-.4 2.7-2 9.5-2 9.5z" style="fill:#adb7bd;stroke:#6b6364;stroke-width:.5"/><path class="gamma--light" d="M320 153.3c2.6.3 16 3 16.3 3l6 .4c.2-.3.3-1 .2-1.4L337 153l-16.5-2.4-.6 2.7z" style="fill:#e4eae9;stroke:none"/><path class="delta" d="M342.2 154c.3 0 .6.2.8.3.3 1 0 3-.3 4h-1c.6-1.8.5-3.4.5-4.4zm-21.7-6.3h.7l-2 9.6h-.7s1.6-6.8 2-9.6z" style="fill:#393435;stroke:#31292b;stroke-width:.5"/><path class="gamma" d="M318 165c3.3.2 16.6 2 17 2 .6.3 6-2 7-2 .4-1 .6-2.8.3-4-1.8-.6-6.6-3.2-6.6-3.2l-16-2.4c-.4 2.8-1.8 9.6-1.8 9.6z" style="fill:#adb7bd;stroke:#6b6364;stroke-width:.5"/><path class="gamma--light" d="M319.2 161c2.7.2 16 2.4 16.5 2.5h6c0-.3.2-1 0-1.4l-5.4-2-16.6-1.7-.5 2.7z" style="fill:#e4eae9;stroke:none"/><path class="delta" d="M341.5 160.8c.3 0 .6.2.8.3.3 1.2 0 3-.2 4l-1 .2c.6-2 .6-3.4.5-4.4zm-21.9-5.4h.6l-1.7 9.7h-.6s1.3-6.8 1.6-9.6z" style="fill:#393435;stroke:#31292b;stroke-width:.5"/><path class="gamma" d="M316.2 170.7c3.4.4 16.7 2.6 17 2.8.6.2 6.2-2 7.2-1.8.3-1 .6-2.8.3-4-1.7-.6-6.4-3.5-6.4-3.5s-15.4-3-16-3l-2 9.5z" style="fill:#adb7bd;stroke:#6b6364;stroke-width:.5"/><path class="gamma--light" d="M317.6 166.8c2.7.3 16 3 16.5 3l6 .4c.2-.3.3-1 .3-1.4l-5.5-2.3-16.6-2.4-.6 2.8z" style="fill:#e4eae9;stroke:none"/><path class="delta" d="m340 167.4.7.4c.4 1 0 3-.3 4h-1c.6-1.8.6-3.4.5-4.4zm-21.7-6.2h.6c-.8 4-1.6 7.3-2.2 9.6h-.6s1.6-6.8 2-9.6z" style="fill:#393435;stroke:#31292b;stroke-width:.5"/><path class="gamma" d="M315.2 176c3.3.5 16.5 3.2 17 3.4.4.3 6-1.7 7-1.5.5-1 1-2.8.6-4-1.7-.8-6.3-3.8-6.3-3.8l-16-3.7c-.4 2.8-2.3 9.5-2.3 9.5z" style="fill:#adb7bd;stroke:#6b6364;stroke-width:.5"/><path class="gamma--light" d="M316.8 172.2c2.6.3 16 3.6 16.3 3.7l6 .4c.2-.3.3-1 .3-1.4l-5.4-2.5-16.5-3c-.3.6-.7 2.7-.7 2.7z" style="fill:#e4eae9;stroke:none"/><path class="delta" d="m339 173.6.8.4c.3 1.2 0 3-.5 4h-1c.7-1.8.7-3.4.7-4.4zm-21.4-7.1.6.2-2.4 9.4h-.6s2-6.7 2.4-9.5z" style="fill:#393435;stroke:#31292b;stroke-width:.5"/><path class="alpha" d="M337.3 151c-1.5 8.2-5 26.4-5.7 28.7-1.3 4.3-13 2.7-11.6-2.7.3-1 1.4-4.3 2.3-8 2-7.5 4-17.4 4.7-20.2 2.6 0 9 1.3 10.3 2z" style="fill:#dca76b;stroke:#bb763b;stroke-width:.5"/></g></symbol><symbol id="igeneral" viewBox="207 120 150 150"><path class="alpha" d="M340.8 168.4c1 3.2 3 12.5 3.4 14.4.2 1-.8 1-1 0-.3-.8-2.4-10.2-3-13.6-.4-1 .2-1.4.6-.8z" style="fill:#ff0;stroke:olive;stroke-width:.5"/><path class="alpha" d="M340.3 168.8c1 3.2 3 12.5 3.3 14.5.3 1-.7 1-1 0-.3-1-2-10.5-3-13-.3-.8.3-2 .7-1.5z" style="fill:#ff0;stroke:olive;stroke-width:.5"/><path class="alpha" d="M342.6 183.5c.2 1-1 1.4-1 .4-.4-1-2-10-2.8-13-.2-.8.3-1 .7-.3 1 1 2.5 9.8 3 12.8zm-21-11.8c-.6 3-2 12.6-2 14.7 0 1-.7.6-1-.3-.4-1-.6-10.3 2-13.8 0-1 .8-1.2 1-.5z" style="fill:#ff0;stroke:olive;stroke-width:.5"/><path class="alpha" d="M322.2 171.6c-.4 3-1.3 12.6-1.4 14.8 0 1-1 1-1 0-.2-2 0-8 1.5-14.3 0-1 .8-1 1-.4z" style="fill:#ff0;stroke:olive;stroke-width:.5"/><path class="alpha" d="M323.4 172.5c-.4 3-.7 12-.7 14 0 1-1.4 1.4-1.5.4-.2-2.3-.4-8 1-14.3.4-1.2 1.3-.7 1.2-.2z" style="fill:#ff0;stroke:olive;stroke-width:.5"/><path class="alpha" d="M325 172.3c-.3 3-.4 12-.3 14.3 0 1-1.7 1.7-1.7.7-.3-2.2 0-10 .6-14.3 0-1 1.3-1.4 1.5-.7zm16.5 12.5c0 1-1 1-1 0-.3-1-2-9.8-2.5-13-.2-1 .3-1.2.7-.6 1 1 2.3 10.6 2.8 13.6z" style="fill:#ff0;stroke:olive;stroke-width:.5"/><path class="alpha" d="M340.2 185c0 1-1 1-1 0-.2-1.2-1.6-11.7-2-13-.2-1 .5-1.2.8-.6 1 1.5 2 10.7 2.2 13.6z" style="fill:#ff0;stroke:olive;stroke-width:.5"/><path class="alpha" d="M339 185.7c0 1-1 1-1 0-.2-1-2-10-2.2-13.6 0-.8.7-.8 1-.2 1.4 1.6 2 10.8 2.2 14zm-12.3-13.3c-.4 3 0 11.8 0 14 0 2.3-1.7 1-1.8 0-.3-2-.4-9.2.2-13.4 0-1 1.3-1 1.5-.4z" style="fill:#ff0;stroke:olive;stroke-width:.5"/><path class="alpha" d="M328.5 172.5c-.4 3 0 11.8 0 14 0 2.4-1.7 1-1.8 0-.2-2 0-9.2 0-13.4 0-.8 1.6-1.2 1.8-.5z" style="fill:#ff0;stroke:olive;stroke-width:.5"/><path class="alpha" d="m330.2 172.6.4 13.5c0 2.5-2 1.6-2.2.7-.2-2.2 0-10 .2-14 0-1 1.3-.5 1.6 0z" style="fill:#ff0;stroke:olive;stroke-width:.5"/><path class="alpha" d="M331.6 172.4c0 2.6 1.3 11.4 1.3 13.6 0 2.4-2 1.7-2.2.2-.2-2.2-1-9.6-.8-13.8 0-1 1.3-.3 1.6 0zm4.2-.4c1.8 3 2.2 12 2.4 14 0 1-1.6 1-1.7 0 0-1-1.4-10.8-1.6-13.6 0-1 .3-1.4.8-.4z" style="fill:#ff0;stroke:olive;stroke-width:.5"/><path class="alpha" d="M333.2 172.4c.4 2.6 1.3 11.4 1.3 13.6 0 2.4-1.6 1.8-1.8.2l-1-13.8c0-1 1.2-.3 1.5 0zm1.8-.4 1.4 14.3c0 1-1.6 1-1.7 0l-1.3-13.8c.2-1 1-1.5 1.6-.4z" style="fill:#ff0;stroke:olive;stroke-width:.5"/><path class="alpha" d="M304.5 165.6c0-.6 1.8-2.3 3-2.5 1 0 2.8 1 2.8 1 2.8 1.7 10.7 5.7 21.7 4.3 1.4.4 3 1.6 3 1.6l-2 2.3-3.6 1c-9 .7-18.5-.6-23.5-4.3-.7-.5-1.6-2-1.5-3.4z" style="fill:#ff0;stroke:olive;stroke-width:.5"/><path class="alpha--dark" d="M307.8 163h-.2c-1.3.3-3 2-3.2 2.6 0 1.3 1 3 1.5 3.4 5 3.7 14.3 5 23.4 4.2l3.6-1c-3.2.3-7 .3-11.4 0-10.4-.6-14.6-4.4-15.2-5-.6-.6-1-1.7-.8-2 .3-.8 1.4-2 2.6-2h-.4z" style="fill:olive;stroke:none;stroke-width:.5;marker:none;visibility:visible;display:inline;overflow:visible;enable-background:accumulate"/><path class="alpha" d="M308 163.8c-.7 0-1.4.7-1.5 1.3 0 1 .7 1.8 1.2 2.2 3 2.3 11.8 5.6 23.8 4 1-.4 1.4-1.4 1.4-1.4l-1.3-.7c-9 .4-14.2-.2-21.8-4.4-.6-.3-1.4-1-2-.8z" style="fill:#ff0;stroke:olive;stroke-width:.5"/><path class="alpha" d="M337.2 166.3c-3.5-.3-6-.2-8.4 0-2.5 0-2.7 3-5.8 3-1 0-.6 1-1 1.3-1.6 0-2 2.8.2 3 6.3.3 12-1 14.4-1.6 1.6-.4 3.4-1 4-2 .5-1 .8-2.3-1.3-2.5-.2-.8-.7-1.2-2-1.2z" style="fill:#ff0;stroke:olive;stroke-width:.5"/><path class="alpha" d="M309 164.5a.7 1.4-61.6 1 1-.5 1.2.7 1.4-61.6 1 1 .6-1.2z" style="fill:#ff0;stroke:olive;stroke-width:1;stroke-linecap:round;stroke-linejoin:miter;stroke-miterlimit:4;stroke-opacity:1;stroke-dasharray:none;stroke-dashoffset:0;marker:none;visibility:visible;display:inline;overflow:visible;enable-background:new"/><path class="alpha--dark" d="M322 170.5c.3.5 1 .5 2.2.6 2 .2 8 .2 11-.6 2.5-.6 4-1.6 4-3-.2 1-1 .5-1 1 0 .6 0 1-1 1-1-.3-2 0-3.2 1-1.3 1-4.4.3-5.3 0-1-.2-5.7-.5-6.6 0z" style="fill:olive;stroke:none;stroke-width:.5;marker:none;visibility:visible;display:inline;overflow:visible;enable-background:accumulate"/><path class="alpha" d="M323 169.3h8.2c2.8-.2 7.5-1.5 6-2.2-1.3-.5-9-.2-10.3 0" style="fill:#ff0;stroke:olive;stroke-width:.5"/><path class="alpha--dark" d="M334.3 166.6c-.5 0-1 0-1.8.2-1.8.6-4 2-5 1.6-1-.2-.3-1.2.6-1.5h-1l-1 1c0 .5-1.6 1.3-1.6 1.3 2.3-.3 2.6-.5 3.2-.6.2.2 0 .3-.2.6 1.2 0 2.4-1.2 3.5-1.4 1-.4 2.2-1 2.7-.6.4.3 0 1-1.3 1.3 3.2-.4 4-1.4 3.4-1.8-.3-.3-.7-.4-1.5-.4zm-6 .3h-.2.4z" style="fill:olive;stroke:none;stroke-width:.5;marker:none;visibility:visible;display:inline;overflow:visible;enable-background:accumulate"/><path class="alpha" d="M222.7 168.4c-1 3.2-3 12.5-3.5 14.4-.2 1 .8 1 1 0 .4-.8 2.5-10.2 3.2-13.6.2-1-.4-1.4-.7-.8z" style="fill:#ff0;stroke:olive;stroke-width:.5"/><path class="alpha" d="M223 168.8c-1 3.2-2.7 12.5-3.2 14.5-.2 1 .8 1 1 0 .3-1 2-10.5 3-13 .3-.8-.3-2-.7-1.5z" style="fill:#ff0;stroke:olive;stroke-width:.5"/><path class="alpha" d="M220.8 183.5c-.2 1 1 1.4 1 .4.4-1 2-10 2.8-13 .2-.8-.3-1-.7-.3-1 1-2.5 9.8-3.2 12.8zm21.2-11.8 2 14.7c0 1 .6.6 1-.3.2-1 .4-10.3-2.2-13.8 0-1-.8-1.2-1-.5z" style="fill:#ff0;stroke:olive;stroke-width:.5"/><path class="alpha" d="M241.2 171.6c.4 3 1.4 12.6 1.4 14.8 0 1 1 1 1 0 .2-2 0-8-1.5-14.3 0-1-.7-1-.8-.4z" style="fill:#ff0;stroke:olive;stroke-width:.5"/><path class="alpha" d="M240 172.5c.4 3 .7 12 .7 14 0 1 1.4 1.4 1.5.4.2-2.3.4-8-1-14.3-.4-1.2-1.3-.7-1.2-.2z" style="fill:#ff0;stroke:olive;stroke-width:.5"/><path class="alpha" d="M238.3 172.3c.4 3 .5 12 .4 14.3 0 1 1.7 1.7 1.8.7.2-2.2 0-10-.7-14.3 0-1-1.3-1.4-1.5-.7zM222 184.8c-.2 1 .8 1 1 0l2.4-13c.2-1-.3-1.2-.7-.6-1 1-2.3 10.6-2.8 13.6z" style="fill:#ff0;stroke:olive;stroke-width:.5"/><path class="alpha" d="M223.2 185c0 1 1 1 1 0 .2-1.2 1.6-11.7 2-13 .2-1-.4-1.2-.7-.6-1 1.5-2 10.7-2.3 13.6z" style="fill:#ff0;stroke:olive;stroke-width:.5"/><path class="alpha" d="M224.4 185.7c0 1 1 1 1 0 .2-1 2-10 2.2-13.6 0-.8-.7-.8-1-.2-1.4 1.6-2 10.8-2.2 14zm12.4-13.3c.3 3 0 11.8 0 14 0 2.3 1.6 1 1.7 0 .2-2 .3-9.2-.3-13.4 0-1-1.3-1-1.5-.4z" style="fill:#ff0;stroke:olive;stroke-width:.5"/><path class="alpha" d="M235 172.5c.4 3 0 11.8 0 14 0 2.4 1.6 1 1.7 0 .2-2 0-9.2 0-13.4 0-.8-1.5-1.2-1.7-.5z" style="fill:#ff0;stroke:olive;stroke-width:.5"/><path class="alpha" d="m233.2 172.6-.4 13.5c0 2.5 2 1.6 2.2.7.2-2.2 0-10 0-14-.2-1-1.5-.5-1.8 0z" style="fill:#ff0;stroke:olive;stroke-width:.5"/><path class="alpha" d="M231.8 172.4c0 2.6-1.3 11.4-1.3 13.6 0 2.4 2 1.7 2 .2.4-2.2 1-9.6 1-13.8 0-1-1.4-.3-1.7 0zm-4.2-.4c-1.8 3-2.2 12-2.3 14 0 1 1.5 1 1.6 0 0-1 1.4-10.8 1.5-13.6-.2-1-.4-1.4-1-.4z" style="fill:#ff0;stroke:olive;stroke-width:.5"/><path class="alpha" d="M230.2 172.4c-.3 2.6-1.3 11.4-1.3 13.6 0 2.4 1.5 1.8 1.7.2.2-2 1-10 1.2-13.8-.2-1-1.5-.3-1.8 0z" style="fill:#ff0;stroke:olive;stroke-width:.5"/><path class="alpha" d="M228.5 172c-.4 2.5-1.3 12.3-1.4 14.3 0 1 1.6 1 1.7 0 .2-1 1-10.3 1.3-13.8-.2-1-1-1.5-1.5-.4zm30.5-6.4c0-.6-2-2.3-3.2-2.5-1 0-2.7 1-2.7 1-2.7 1.7-10.6 5.7-21.5 4.3-1.5.4-3 1.6-3 1.6l2 2.3 3.6 1c9 .7 18.5-.6 23.5-4.3.6-.5 1.5-2 1.5-3.4z" style="fill:#ff0;stroke:olive;stroke-width:.5"/><path class="alpha--dark" d="M255.6 163h.2c1.3.3 3.2 2 3.2 2.6 0 1.3-1 3-1.5 3.4-5 3.7-14.4 5-23.4 4.2l-3.6-1c3.2.3 7 .3 11.5 0 10.2-.6 14.4-4.4 15-5 .6-.6 1-1.7.8-2-.3-.8-1.4-2-2.6-2h.4z" style="fill:olive;stroke:none;stroke-width:.5;marker:none;visibility:visible;display:inline;overflow:visible;enable-background:accumulate"/><path class="alpha" d="M255.5 163.8c.6 0 1.3.7 1.4 1.3 0 1-.8 1.8-1.3 2.2-3 2.3-11.8 5.6-23.8 4-1-.4-1.4-1.4-1.4-1.4l1-.7c9.3.4 14.3-.2 22-4.4.4-.3 1.2-1 2-.8z" style="fill:#ff0;stroke:olive;stroke-width:.5"/><path class="alpha" d="M226.2 166.3c3.6-.3 6-.2 8.4 0 2.5 0 2.7 3 5.8 3 1 0 .6 1 1 1.3 1.7 0 2 2.8-.2 3-6.3.3-12-1-14.4-1.6-1.6-.4-3.4-1-4-2-.5-1-.7-2.3 1.3-2.5.3-.8.8-1.2 2.2-1.2z" style="fill:#ff0;stroke:olive;stroke-width:.5"/><path class="alpha" d="M254.3 164.5c-1 .5-1.3 1.4-.6 1.5.3 0 .8 0 1.2-.3 1-.5 1.2-1.3.5-1.4-.3 0-.8 0-1.2.2z" style="fill:#ff0;stroke:olive;stroke-width:1;stroke-linecap:round;stroke-linejoin:miter;stroke-miterlimit:4;stroke-opacity:1;stroke-dasharray:none;stroke-dashoffset:0;marker:none;visibility:visible;display:inline;overflow:visible;enable-background:new"/><path class="alpha--dark" d="M241.4 170.5c-.3.5-1 .5-2.2.6-2 .2-8 .2-11-.6-2.5-.6-4-1.6-4-3 .2 1 1 .5 1 1 0 .6 0 1 1 1 1-.3 2 0 3.2 1 1.3 1 4.4.3 5.4 0 1-.2 5.7-.5 6.6 0z" style="fill:olive;stroke:none;stroke-width:.5;marker:none;visibility:visible;display:inline;overflow:visible;enable-background:accumulate"/><path class="alpha" d="M240.4 169.3h-8.2c-2.7-.2-7.5-1.5-6-2.2 1.3-.5 9-.2 10.3 0" style="fill:#ff0;stroke:olive;stroke-width:.5"/><path class="alpha--dark" d="M229 166.6c.6 0 1.3 0 2 .2 1.7.6 3.8 2 5 1.6 1-.2.2-1.2-.7-1.5h1.2l1 1c0 .5 1.5 1.3 1.5 1.3-2.3-.3-2.6-.5-3.2-.6-.2.2 0 .3.2.6-1.2 0-2.3-1.2-3.5-1.4-1.2-.4-2.3-1-2.7-.6-.5.3 0 1 1.2 1.3-3.2-.4-4-1.4-3.4-1.8.3-.3.7-.4 1.5-.4zm6 .3z" style="fill:olive;stroke:none;stroke-width:.5;marker:none;visibility:visible;display:inline;overflow:visible;enable-background:accumulate"/></symbol><symbol id="iplated_1_of_2" viewBox="207 120 150 150"><path class="delta" d="M333.166 232.513c-1.21.608-5.898 2.624-6.86 3.386-.962.76-2.123 1.835-2.852 2.024-.73.189-3.864 1.525-4.116 1.138-.251-.387-.445-1.733-.6-1.835-.521.187-.351-.828-.22-1.34.124.412.85.087 1.437-.46.587-.547 1.648-1.728 2.508-2.275.86-.546 3.43-1.753 4.053-1.942.622-.19 4.056-2.447 4.893-3.18" style="fill:#26283f;stroke:#181822;stroke-width:.5"/><path class="delta--dark" d="M328.679 230.58s-2.788 2.6-3.479 3.215c-.691.616-1.283 1.877-1.163 2.219.09.26.577.47.835.893a7.095 7.095 0 0 0-.592.406c-.412.327-.818.67-1.18.986-.025-.584.106-1.119-.01-1.35-.163-.322-.27-1.682.706-2.712.975-1.029 3.546-2.488 4.883-3.656z" style="fill:#1c141c"/><path class="delta" d="m324.428 214.085 5.517 21.077s6.228 1.302 9.364 1.093c1.936-.13 3.616-1.674 3.856-2.926-.194-1.805-4.657-20.17-4.657-20.17" style="fill:#26283f;stroke:#181822;stroke-width:.5"/><path d="M338.445 211.045c1.301 2.323 3.142 7.696 3.404 8.978.262 1.281 1.022 6.804.874 8.036-.148 1.232-1.94 3.683-2.318 4.054-.378.371-6.776-.4-7.229-.787-.453-.388-.66-.746-.66-.746s-1.735-.258-2.388-.205c-.657.054-1.056-.21-.475-.89.58-.68 1.494-2.737 1.543-3.147-.272-1.2-3.112-10.792-3.112-10.792" style="fill:#45637c;stroke:#1d202f;stroke-width:.5" class="beta"/><path class="beta" d="m335.532 214.87 2.125 15.33" style="fill:none;stroke:#1d202f;stroke-width:.5"/><path d="m309.214 170.868-1.945 3.078-.48 1.656-.955.614 6.115 10.602 4.161 12.155 1.056-.04.308.638 5.154-.487.858 11.773 1.316 4.294 4.117 3.83 1.67-.05 4.546-3.202 1.048-1.79 4.001-3.518-.343-3.375-1.366-5.247 1.175-9.775-5.195-13.542-6.97-5.006-13.734-4.59z" style="fill:#45637c;stroke:#1d202f;stroke-width:.5" class="beta"/><path d="M330.528 207.675c-.974-.201-2.427-1.96-3.024-2.531-.597-.572-1.047-.293-.696.25.351.542 1.115 1.8 1.814 2.218.699.417.407 1.212-.437.864-1.427-.589-1.782.285-1.227.519.917.386 1.561.854 1.971.904.41.049.708.839-.414 1.366-.705.332-.466 1.11.384.963 1.325-.23 2.593-2.187 2.702-3.09" style="fill:#2f3243" class="beta--dark"/><path d="m312.157 171.428-1.51-.525-.302-1.475 2.815-1.784 4.249.511 10.86 5.282-.26.448-1.757-.183-2.725 2.178 2.152 2.589 1.07 1.91-3.567 1.215-2.752-1.219-2.685-3.067z" style="fill:#3d4a64;stroke:#30374f;stroke-width:.5" class="gamma"/><path d="m316.184 168.328 2.065.286 9.997 4.846-2.72-.303-5.719-2.272-6.151-2.824s1.192.123 2.528.267z" style="fill:#7396bf" class="gamma--light"/><path d="m320.595 181.488-.705 2.45 4.563 10.415 2.215 1.568.731-2.172-4.406-11.15z" style="fill:#d22533;stroke:#661e2d;stroke-width:.5" class="alpha"/><path d="m337.438 209.739 2.097-1.456.688-3.354-1.138-3.26.892-9.38-.176-.492-.46.888-2.994 2.88-1.202 6.572z" style="fill:#3d4a64;stroke:#30374f;stroke-width:.5" class="gamma"/><path d="m335.19 209.095-1.594-5.014c-.017.025 2.135-8.777 2.135-8.777l-4.727-1.797.991-5.302-4.633-6.98-3.848 1.658 4.342 11.055-.85 2.777 3.686 11.131" style="fill:#3d4a64;stroke:#30374f;stroke-width:.5" class="gamma"/><path d="m331.702 193.067 4.63 1.64 3.6-3.649-2.057-7.692-2.372-5.263-6.017-3.969-2.829-.007-2.245 2.063 2.142 2.258.96 1.699 2.047 1.663 3.01 6.112z" style="fill:#3d4a64;stroke:#30374f;stroke-width:.5" class="gamma"/><path d="m329.486 174.134 5.873 3.874-2.633 1.036 1.02-1.659-1.521-1.005-1.387.723-3.035-2.078 1.41-.892zm5.92 3.905.097.064 2.372 5.263 1.857 6.94-3.579 3.47-1.177-4.654-.538-2.13-2.925-5.834z" style="fill:#7396bf" class="gamma--light"/><path d="m331.06 207.405-3.46-10.666.857-2.98-4.084-10.325 2.986-1.306 4.076 6.24-1.183 5.69 4.455 1.704-2.104 8.496 1.433 4.006m-20.37-40.285-2.641 1.666.11.696 1.273.486c.002.007 8.372 8.884 8.372 8.884l1.848.93 2.947-.978-.764-1.259-2.174-2.678 3.053-2.549 2.625.316-10.066-4.879z" style="fill:none;stroke:#30374f;stroke-width:.5" class="gamma"/><path d="m329.578 174.062-2.622.35-1.734 1.959 1.863 1.807.889 1.607 2.278 1.769 3.057 6.457-.8 4.57 3.685 1.194 3.582-3.486m.254 2.031-.896 1.225-2.274 2.31-1.07 6.12 2.019 6.743 1.45-.992 1.003-2.795" style="fill:none;stroke:#30374f;stroke-width:.5" class="gamma"/><path d="m321.011 182.321-.21 1.058 1.071.088zm-.938 1.611.618.017 1 2.412-.198.81zm1.1.028.653 1.626.18-.812-.297-.775z" style="fill:#edadc0" class="alpha--lightest"/><path d="m306.81 175.532 1.33 1.119-.468.689 5.138 8.826 3.548 10.635-.564 1.224h-.01l-3.836-11.207-6.114-10.602.955-.614zm28.655 36.07c-4.258 5.654-11.047 9.982-14.462 12.11-3.416 2.13-3.607 1.716-3.708 2.847-.077.867-.01 2.006-.01 2.006-1.322-.74-1.047-3.142-1.049-3.639-.002-.603-.455-2.956-.166-3.584.116-.566-.084-.798.476-1.154.183.696 1.583.823 4.475-1.483 2.893-2.305 6.174-4.765 6.643-5.209.47-.443 4.006-4.934 4.22-5.325" style="fill:#26283f;stroke:#181822;stroke-width:.5" class="delta"/><path class="delta--dark" d="m334.013 210.211.254.244c-.798 1.456-2.352 3.302-3.9 4.808-1.715 1.671-3.023 2.811-3.461 4.264-.2.162-.394.323-.583.478.017-.227.067-.49.17-.765.44-1.175.795-1.943 1.816-2.758.985-.786 4.582-4.16 5.704-6.27zm-.408-.368c-1.439 2.293-2.572 3.184-2.96 3-.389-.184 1.363-2.233 2.96-3z" style="fill:#1c141c"/><path class="epsilon" d="m330.064 207.43-.092 1.907 3.34.676 2.575 4.754 2.37.774 2.242-1.58 1.037-1.793-.53-1.845-.752-.737s.137-1.017.126-1.462c-.01-.447-.536-1.23-.536-1.23l-.265 2.778-.67 1.015-1.73 1.299-1.003-.19-.61-.62.13-1.081-.464-.08.073-.653-.595-1.305-4.15-.773c-.169-.017-.337.087-.496.145z" style="fill:#d4aa00;stroke:#806600;stroke-width:.5"/><path class="epsilon--dark" d="m340.422 213.283-.963-2.366-2.278 1.642-1.149-.138-.65-.828-.108.903.889 1.607 2.145.842zm-6.328-3.429.735-.578-.33-.706-3.662-.692-.07.575 1.22.23-.058.494 1.666.325z" style="fill:#a80"/></symbol><symbol id="iplated_2_of_2" viewBox="207 120 150 150"><path class="beta" style="fill:#45637c;stroke:#1d202f;stroke-width:.5" d="m239.277 197.447-.873 13.327-1.261 4.31-4.068 3.88-1.67-.027-4.587-3.144-1.07-1.777-4.046-3.467.3-3.378 1.3-5.265 1.03-8.473"/><path d="M231.322 207.68c.972-.212 2.403-1.989 2.992-2.568.59-.58 1.043-.306.7.24-.345.547-1.093 1.815-1.786 2.242-.694.426-.392 1.217.448.858 1.42-.607 1.785.263 1.233.503-.912.398-1.55.875-1.96.93-.409.054-.697.847.432 1.36.71.323.48 1.105-.371.968-1.328-.213-2.621-2.154-2.741-3.056" style="fill:#2f3243" class="beta--dark"/><path class="delta" d="M228.974 232.538c1.1.539 5.29 2.59 6.275 3.456.987.865 2.168 2.031 2.83 2.228.662.196 3.04 1.402 3.175.982.134-.42.57-1.676.722-1.78.524.181.247-.95.164-1.45-.174.402-.446.468-.966-.068s-1.43-2.003-2.277-2.622c-.848-.619-3.425-2.059-4.008-2.267-.583-.21-3.342-2.25-4.188-2.972" style="fill:#26283f;stroke:#181822;stroke-width:.5"/><path class="delta--dark" d="M232.737 230.226s1.573 1.988 1.97 2.455c.398.467.702 1.582.62 1.94-.063.273-.386.564-.511 1.05.176.119.327.23.433.323.315.275.65.578.982.874-.138-.656-.284-1.194-.222-1.45.087-.357.193-1.712-.357-2.527-.55-.815-2.094-1.759-2.915-2.665z" style="fill:#1c141c"/><path class="delta" d="m237.503 214.013-5.248 21.146s-6.211 1.38-9.35 1.211c-1.937-.104-3.637-1.627-3.892-2.876.17-1.807 4.4-20.229 4.4-20.229" style="fill:#26283f;stroke:#181822;stroke-width:.5"/><path d="M223.45 211.151c-1.273 2.34-3.045 7.736-3.291 9.02-.246 1.286-.935 6.818-.771 8.048.164 1.23 1.987 3.657 2.37 4.024.382.366 6.77-.486 7.217-.88a3.24 3.24 0 0 0 .65-.754s1.733-.28 2.386-.235c.658.046 1.054-.224.464-.896-.59-.673-1.529-2.717-1.583-3.127.256-1.203 2.975-10.83 2.975-10.83" style="fill:#45637c;stroke:#1d202f;stroke-width:.5" class="beta"/><path class="beta" d="m226.41 214.94-1.93 15.354" style="fill:none;stroke:#1d202f;stroke-width:.5"/><path class="delta" d="M226.436 211.67c4.33 5.6 9.424 9.427 12.35 11.374 2.927 1.947 4.947 2.293 5.007 3.37.06 1.077-.024 2.661-.024 2.661.688-1.093.786-4.136.803-4.639.016-.503.728-3.271.651-3.845.099-.514.117-.767-.429-1.111-.415.64-1.662 1.148-4.714-1.115-3.052-2.264-5.345-4.462-5.82-4.9-.475-.437-4.068-4.882-4.286-5.27" style="fill:#26283f;stroke:#181822;stroke-width:.5"/><path class="delta--dark" d="m227.87 210.261-.25.247c.813 1.447 2.215 3.334 3.58 4.89 1.513 1.727 2.712 2.893 3.145 4.349.197.161.39.32.583.473a3.013 3.013 0 0 0-.173-.766c-.43-1.178-.74-1.96-1.674-2.796-.9-.806-4.062-4.301-5.21-6.397zm.403-.373c1.468 2.274 2.613 3.151 2.999 2.962.386-.188-1.392-2.216-2.999-2.962z" style="fill:#1c141c"/><path d="m234.21 197.626-8.462 16.39-4.046-3.467.3-3.378 1.3-5.265-1.3-9.758 5.023-13.607 6.906-5.094 13.675-4.766 4.56 1.925 1.985 3.053.5 1.65.963.601-5.979 10.68-4.006 12.207-1.057-.027-.3.642-5.16-.421" style="fill:#45637c;stroke:#1d202f;stroke-width:.5" class="beta"/><path d="m249.23 171.203 1.505-.543.282-1.48-2.837-1.748-4.242.566-10.791 5.419.265.445 1.754-.206 2.753 2.144-2.119 2.616-1.046 1.923 3.582 1.17 2.737-1.254 2.646-3.101z" style="fill:#3d4a64;stroke:#30374f;stroke-width:.5" class="gamma"/><path d="m245.165 168.155-2.061.312-9.934 4.973 2.716-.338 5.689-2.344 6.115-2.902s-1.19.138-2.525.299z" style="fill:#7396bf" class="gamma--light"/><path d="m240.922 181.37.736 2.44-4.43 10.473-2.195 1.596-.759-2.163 4.264-11.205z" style="fill:#d22533;stroke:#661e2d;stroke-width:.5" class="alpha"/><path d="m224.44 209.833-2.116-1.43-.73-3.345 1.096-3.274-1.012-9.367.17-.495.471.882 3.031 2.842 1.286 6.556z" style="fill:#3d4a64;stroke:#30374f;stroke-width:.5" class="gamma"/><path d="m226.679 209.16 1.53-5.033c.017.024-2.246-8.75-2.246-8.75l4.703-1.857-1.058-5.288 4.544-7.04 3.868 1.61-4.2 11.11.884 2.765-3.543 11.178" style="fill:#3d4a64;stroke:#30374f;stroke-width:.5" class="gamma"/><path d="m229.962 193.089-4.608 1.7-3.647-3.604 1.96-7.717 2.305-5.293 5.966-4.045 2.829-.044 2.27 2.034-2.112 2.285-.939 1.711-2.026 1.69-2.931 6.15z" style="fill:#3d4a64;stroke:#30374f;stroke-width:.5" class="gamma"/><path d="m231.939 174.13-5.824 3.948 2.646 1.002-1.04-1.646 1.507-1.024 1.396.706 3.008-2.117-1.42-.873zm-5.87 3.98-.097.065-2.305 5.292-1.768 6.964 3.622 3.423 1.118-4.668.51-2.137 2.852-5.87z" style="fill:#7396bf" class="gamma--light"/><path d="m230.787 207.418 3.325-10.71-.895-2.968 3.952-10.376-3.003-1.269-3.996 6.292 1.256 5.675-4.434 1.76 2.212 8.469-1.381 4.023m19.856-40.54 2.662 1.632-.101.697-1.267.503c-.002.007-8.258 8.99-8.258 8.99l-1.837.953-2.96-.94.749-1.27 2.14-2.705-3.085-2.51-2.62.35 10.002-5.007z" style="fill:none;stroke:#30374f;stroke-width:.5" class="gamma"/><path d="m231.846 174.059 2.626.317 1.758 1.936-1.84 1.83-.868 1.619-2.255 1.797-2.975 6.496.857 4.56-3.669 1.24-3.625-3.44m-.23 2.034.912 1.214 2.304 2.28 1.147 6.107-1.933 6.768-1.463-.974-1.037-2.782" style="fill:none;stroke:#30374f;stroke-width:.5" class="gamma"/><path d="m240.516 182.208.224 1.056-1.07.1zm.959 1.599-.618.025-.969 2.425.208.807zm-1.1.042-.631 1.634-.192-.81.288-.778z" style="fill:#edadc0" class="alpha--lightest"/><path d="m254.63 175.24-1.315 1.135.476.683-5.025 8.891-3.412 10.68.579 1.216.008-.001 3.694-11.255 5.979-10.679-.963-.6z" style="fill:#26283f;stroke:#181822;stroke-width:.5" class="delta"/><path class="epsilon" d="m231.783 207.43.117 1.905-3.33.72-2.516 4.786-2.36.804-2.262-1.551-1.06-1.78.508-1.852.742-.746s-.15-1.016-.145-1.46c.004-.448.52-1.237.52-1.237l.301 2.773.683 1.007 1.746 1.277 1-.202.602-.63-.143-1.078.463-.086-.082-.651.58-1.312 4.138-.827c.17-.018.339.083.498.14z" style="fill:#d4aa00;stroke:#806600;stroke-width:.5"/><path class="epsilon--dark" d="m221.5 213.414.934-2.378 2.298 1.613 1.147-.153.639-.836.12.902-.868 1.618-2.135.87zm6.284-3.509-.742-.568.322-.711 3.653-.738.076.574-1.217.246.065.492-1.662.347z" style="fill:#a80"/></symbol><symbol id="ispikes_1_of_2" viewBox="207 120 150 150"><path class="gamma" style="fill:#e6e6e6;stroke:#b3b3b3;stroke-width:.25" d="M239.592 166.362s-1.925-4.208-2.22-5.475c-.294-1.267-.332-7.136.004-8.355.337-1.218 2.513-3.418 3.045-3.818.112 2.404.91 6.058 1.252 6.646.342.587 1.588 2.04 2.162 2.542.573.502 2.61 2.071 2.945 2.509.335.437 1.698 2.712 1.698 2.712"/><path class="gamma--dark" style="fill:#ccc" d="M239.67 152.893c-.648 2.419-.507 5.429 1.092 7.128l-.12-2.594c1.213 2.756 2.636 3.007 2.636 3.007-.496-1.33.214-2.4.214-2.4s.9.507 1.703.98c-.543-.442-1.11-.894-1.36-1.113-.573-.502-1.82-1.954-2.162-2.541-.148-.255-.382-1.137-.609-2.193a69.913 69.913 0 0 1-.197-.222s-.12 2.085.14 3.01c-.694-.906-1.18-2.03-1.337-3.063z"/><path class="gamma--dark" style="fill:#ccc" d="M237.14 156.85c.009 1.724.089 3.423.232 4.037.295 1.267 2.22 5.475 2.22 5.475l8.887-3.24s-1.364-2.274-1.698-2.71a2.812 2.812 0 0 0-.271-.279c.247.394.517.948.313 1.814-.58-.807-1.584-1.389-2.796-1.753.246.614.398 1.544.205 2.072-.561-.392-1.005-.582-1.925-1.686.246.613.166 1.24-.115 2.188-.458-.5-.91-.897-1.372-1.5.029.622-.017 1.976-.718 3.254-1.584-1.388-2.54-5.609-2.962-7.672zm1.41-3.107c-.214-1.314.804-2.534 1.324-2.924-.169 1.33-1.344 2.484-1.323 2.924z"/><path class="gamma--lightest" style="fill:#f9f9f9" d="M239.83 149.865c-1.705 1.322-3.433 2.132-1.352 10.573-.688-4.898-1.012-8.56 1.351-10.573z"/><path class="gamma" style="fill:#e6e6e6;stroke:#b3b3b3;stroke-width:.25" d="M212.512 175.467c-.83-1.135-1.44-2.28-1.832-3.54-.392-1.261-1.03-7.834-.464-9.987.567-2.153 2.045-3.812 3.009-4.599.964-.786 3.012-2.15 4.343-2.207-.057 1.173-1.124 4.518-1.17 5.904-.047 1.386.602 3.38 1.07 3.893.468.512 5.433 6.9 5.433 6.9"/><path class="gamma--dark" style="fill:#ccc" d="M220.746 171.758a105.63 105.63 0 0 0-3.97-5.928c-.587-.803-1.748-2.108-1.846-4.211-.098-2.103.888-4.554 1.41-5.178-1.367 1.036-2.51 3.494-2.764 4.784-.255 1.29.74 5.764 1.109 6.953.37 1.188 2.75 5.076 3 5.366m-5.2-9.82c.046.36.106.72.175 1.081-.06-.377-.114-.684-.175-1.08zm.175 1.081c.725 4.623 1.348 7.886 2.195 9.843l1.34-.47c-.607-1.1-2.725-5.12-3.535-9.373zm.107 7.33c-.055.957.004 2.341.376 3.11l1.401-.489c-.65-.749-1.372-1.699-1.777-2.621z"/><path class="gamma--lightest" style="fill:#f9f9f9" d="M215.564 156.415c-2.444 1.943-3.69 4.864-4.015 6.128-.325 1.264-.585 3.922.074 9.85-1.381-4.941-1.13-9.437-.665-11.002.465-1.564 2.425-4 4.606-4.976z"/><path class="alpha" style="fill:#c837ab;stroke:#782167;stroke-width:.25" d="m206.947 177.54 50.908-18.957c-5.21 2.857-3.488 12.87-2.375 16.51 1.112 3.64-19.961 11.84-21.762 11.992-1.8.152-7.17-2.102-8.967-1.875-1.797.227-15.611 7.365-17.447 6.766-1.835-.6-4.29-12.838-.357-14.436z"/><path class="alpha--dark" style="fill:#a02c89" d="m257.855 158.583-6.119 2.279c-.62.428-.976.823-1.106 1.235-.662 2.108-2.174 2.276-3.238 2.738-1.065.461-17.261 7.08-17.798 7.206-.532.126-.44-2.427 1.728-3.578l-6.654 2.477c-1.241 1.62-2.167 3.998-1.153 5.833 1.067 1.93 4.21 1.796 7.078.426 2.868-1.37 11.53-4.236 12.91-4.919 1.38-.683 7.54-3.65 7.192.525-.183 2.197.351 2.897-2.724 4.485-3.075 1.587-11.708 5.075-13.63 5.781-1.921.706-6.504-2.115-8.657-1.711-2.153.404-14.597 6.03-15.247 6.059-.65.027-3.569-2.032-3.512-5.467.032-1.9.25-3.471.594-4.625l-.572.213c-3.934 1.598-1.478 13.837.357 14.436 1.835.6 15.65-6.54 17.447-6.766 1.797-.228 7.166 2.027 8.967 1.875 1.8-.152 22.875-8.352 21.762-11.993-1.112-3.64-2.836-13.652 2.375-16.509z"/><path class="beta" style="fill:#fc0;stroke:#a80;stroke-width:.25" d="M258.008 158.292c-3.025.327-4.387 1.653-4.948 3.382-.56 1.729-1.49 1.995-1.876 2.162-.385.166-20.05 8.231-20.82 8.565-.77.334-1.797.227-1.893-.145-.096-.372.107-1.63.75-2.44.74-.929 1.464-1.395 2.939-1.956-.812-.568-2.348-.553-3.882.265-1.215.648-1.93 2.415-2.389 4.392-.458 1.976 1.252 3.258 2.564 2.75 1.313-.507 19.502-8.208 20.968-8.797 1.465-.59 2.866-.875 3.058 1.266.192 2.141 1.214 5.955 1.557 6.812.377.942-.128 2.027-1 2.383-.873.357-14.36 6.68-15.99 7.495-1.629.814-3.933 1.445-4.941 1.275-1.008-.17-2.475-.64-4.058-1.21-1.582-.571-3.81-.689-5.334.015-1.523.703-10.24 4.481-12.428 5.213-2.19.732-2.254-.165-2.706-.843-1.233-2.608-1.237-9.846 1.327-12.084-.69-.503-3.387-1.133-4.483 1.575-1.097 2.707-1.286 5.803-.162 10.864 1.125 5.062 2.566 5 4.755 4.267 2.189-.732 11.54-5.175 13.391-6 1.851-.824 2.84-1.079 3.853-.803 1.013.277 1.583.572 3.513 1.448s4.057 1.21 7.007.126c2.95-1.084 16.771-7.421 18.738-8.144 1.967-.722 2.805-1.822 2.302-3.078-.503-1.256-1.714-5.781-2.148-10.34-.435-4.558 1.336-4.74 2.874-5.126"/><path class="beta--dark" style="fill:#d4aa00" d="M257.938 159.845c-5.436 1.56-3.555 10.251-2.198 15.763.627-.027 1.361.545 1.464 1.067-.403-.208-1.593-.46-2.517-.043 1.57-.067 1.942 1.196 2.137 2.016-.424-.66-1.365-.62-2.142-.436-.778.184-17.42 7.368-19.345 8.203-1.926.834-2.11.24-5.397.53 1.52.458 3.207 1.977 5.592 1.705.401-.1.813-.221 1.248-.38 2.95-1.085 16.771-7.422 18.738-8.145 1.967-.722 2.805-1.822 2.302-3.078-.503-1.256-1.714-5.781-2.148-10.34-.435-4.558 1.336-4.74 2.874-5.126.937-.234 1.646-1.158 1.554-2.016-.655-.02-1.623.125-2.162.28zm-34.456 25.876c-.465.019-.94.129-1.441.357-2 .913-11.85 5.474-13.322 5.913-1.44.43-2.853 1.425-3.9-.743 1.041 2.996 2.353 2.867 4.197 2.25 2.189-.732 11.54-5.175 13.391-6 1.851-.823 2.84-1.079 3.853-.802.33.09.622.19.92.304-1.298-.72-2.463-1.328-3.698-1.279z"/><path class="beta--dark" style="fill:#d4aa00" d="M208.192 176.667c-1.506.003-2.835 1.327-3.192 4.644-.439 4.083.852 8.167 1.197 8.83.329.631 2.057.577 4.076-.419-2.176.724-2.243-.17-2.694-.846-1.233-2.608-1.237-9.846 1.327-12.084-.028-.02-.077-.04-.11-.06a2.908 2.908 0 0 0-.604-.065zm42.118-11.28a3.61 3.61 0 0 0-1.32.273c-1.93.76-20.593 8.405-21.363 8.74-.748.323-1.138.411-1.707-.525.358 1.155 1.556 1.77 2.533 1.393 1.313-.508 19.502-8.21 20.968-8.798 1.238-.498 2.427-.773 2.883.444-.201-.88-.913-1.525-1.994-1.527z"/><path class="beta--dark" style="fill:#d4aa00" d="M231.25 167.835c-.69.039-1.416.201-1.943.554-1.056.705-1.933 2.258-2.038 3.391-.096 1.044 1.109 1.32 2.561.776-.644.116-1.284-.01-1.359-.3-.096-.372.107-1.63.75-2.44.74-.929 1.374-1.814 2.939-1.956l-.001-.001a5.564 5.564 0 0 0-.909-.024z"/><path class="alpha" style="fill:#c837ab;stroke:#782167;stroke-width:.25" d="M339.625 168.478c-4.095-3.387-6.514-4.373-9.459-2.626-2.816-1.295-16.06-4.972-16.06-4.972-2.678-1.55-5.977-2.921-11.282 2.48a25.516 25.516 0 0 0-5.894 9.528c-.78 2.285-.116 3.783 3.537 4.682 3.654.9 11.456 3.061 14.16 3.77 2.705.71 3.86-.584 5.664-1.224 1.805-.64 3.35-1.25 5.006-1.607 1.656-.356 4.237.262 6.396.945 2.159.683 6.979 1.91 9.54 2.758 2.563.847 3.837-.809 4.859-2.357 1.022-1.548 5.252-7.842 9.484-7.124z"/><path class="alpha--dark" style="fill:#a02c89;stroke-width:.27768856;stroke-miterlimit:4.06053257" d="M310.118 159.5c-1.961-.074-4.31.821-7.294 3.86a25.514 25.514 0 0 0-5.894 9.528c-.78 2.285-.117 3.783 3.537 4.682 3.653.9 11.456 3.062 14.16 3.77 2.705.71 3.86-.585 5.664-1.225 1.804-.64 3.35-1.249 5.006-1.605 1.656-.357 4.238.261 6.396.945 2.159.683 6.979 1.91 9.54 2.757 2.562.848 3.837-.808 4.859-2.356 1.022-1.548 5.252-7.843 9.484-7.125l-15.95-4.252c-4.096-3.388-6.515-4.374-9.46-2.627-2.816-1.295-16.06-4.972-16.06-4.972-1.171-.678-2.463-1.322-3.988-1.38zm1.813 2.521c.425.017.74.036.826.058.342.09 9.31 2.649 10.059 2.979.748.33-.769 1.802-1.246 1.632-.478-.17-12.244-3.743-12.244-3.743-.824-.187-1.227-.5-.929-1.001 0 0 2.26.025 3.534.075zm-7.736 4.285s16.064 5.176 19.484 6.22c3.42 1.046 6.529 1.268 8.41-.629 0 0 9.924 3.103 13.272 4.032-.5.47-1.375 1.393-2.312 2.348-.873.888-2.259.874-2.605.857-.345-.016-4.58-1.468-8.751-2.77-4.172-1.3-6.067-.729-6.63-.535-.562.194-5.001 1.97-5.702 2.157-.701.187-2.18.779-3.343.43-1.163-.35-10.535-3.222-12.176-3.742-1.64-.519-2.45-2.691-1.62-4.27.828-1.578 1.973-4.098 1.973-4.098z"/><path class="gamma" style="fill:#e6e6e6;stroke:#b3b3b3;stroke-width:.25" d="M318.15 162.233c2.164-2.654 4.933-6.732 5.837-8.72.904-1.99.556-3.457.183-4.346-.372-.888.037-.869.85-.685.812.184 3.201 1.894 3.315 5.672a78.108 78.108 0 0 1-.476 11.298c-3.845.398-8.932-2.166-9.708-3.219z"/><path class="beta" style="fill:#fc0;stroke:#a80;stroke-width:.25" d="M358.781 172.927c-1.691-1.45-3.53-2.03-6.31-1.08-3.881 1.41-7.366 6.265-7.988 7.262-.622.996-2.485 1.626-3.823 1.255-1.338-.372-7.632-2.415-9.062-2.894-1.43-.478-4.68-1.351-6.153-.805-1.473.545-5.494 1.894-6.577 2.355-1.082.462-2.924.58-3.977.325-1.052-.256-12.987-3.799-14.33-4.068-1.341-.269-2.188-.822-1.733-2.443.455-1.62 3.837-6.18 4.254-6.879.416-.698 1.792-1.249 2.551-.905.76.344 13.641 4.343 16.12 5.18 2.478.835 6.056.8 7.972-1.059 1.915-1.859 3.471-2.092 4.151-2.163.68-.07 3.347.878 5.75 1.47-5.124-4.77-7.92-3.777-9.46-2.626 0 0-1.307.918-2.21 1.696-.903.778-3.038.984-4.284.72-1.245-.265-16.5-5.3-17.264-5.541-.763-.242-.943-.558-.137-1.34 1.898-1.45 4.709-1.624 7.835-.507-1.657-2.836-6.508-4.075-11.813 1.325-3.426 3.488-5.605 7.426-6.385 9.711-.78 2.285-1.624 5.148 2.03 6.047 3.653.9 13.64 3.986 16.344 4.695 2.704.71 4.54-.655 6.343-1.295 1.805-.64 3.057-1.16 4.713-1.517 1.655-.357 3.28.01 5.44.693 2.158.683 7.833 2.26 10.395 3.107 2.562.847 5.073-.34 6.095-1.888 1.023-1.547 5.279-8.457 9.814-5.774"/><path class="beta--dark" style="fill:#d4aa00;stroke-width:.25" d="M295.26 174.456c-.16 1.531.322 2.928 2.678 3.507 3.653.9 13.64 3.986 16.344 4.695 2.704.709 4.539-.655 6.343-1.295 1.804-.64 3.057-1.16 4.713-1.517 1.655-.357 3.28.01 5.439.693 2.158.684 7.835 2.26 10.397 3.107 2.562.847 5.073-.34 6.095-1.888.111-.169.277-.423.461-.7-.014-.018-.024-.036-.04-.053-1.437 1.985-4.417 2.005-6.36 1.486-1.18-.315-11.032-3.401-12.63-3.804-1.062-.268-2.157-.459-3.772-.101-2.419.535-5.123 2.016-6.988 2.651-1.346.46-2.606.411-4.088-.094-.644-.22-14.723-3.984-16.535-4.583-1.44-.476-2.006-1.175-2.057-2.104zm8.454-10.788a2.458 2.458 0 0 0-1.043.242c-1.447.684-4.358 5.815-5.155 7.885-.622 1.617.435 2.481 1.729 2.966a1.307 1.307 0 0 1-.531-.975l-.003-.036a1.948 1.948 0 0 1-.001-.234c0-.013 0-.027.002-.04.004-.05.012-.103.02-.154.017-.141.045-.29.089-.451.004-.013.003-.024.007-.037a3.13 3.13 0 0 1 .118-.336c.25-.613.749-1.471 1.318-2.368a91.31 91.31 0 0 1 2.042-3.033c.383-.551.671-.967.775-1.141a1.43 1.43 0 0 1 .199-.254 2.61 2.61 0 0 1 .949-.59c.491-.182 1.026-.234 1.405-.062.095.043.379.144.809.288 2.148.72 7.932 2.533 11.852 3.777 1.568.498 2.838.905 3.457 1.114h.001a10.514 10.514 0 0 0 3.652.517 8.45 8.45 0 0 0 2.121-.337 6.6 6.6 0 0 0 .493-.17 5.53 5.53 0 0 0 .915-.454c.286-.177.55-.381.79-.613l.066-.06c.2-.191.396-.365.587-.522.063-.053.124-.097.187-.146a8.82 8.82 0 0 1 .627-.449 7.39 7.39 0 0 1 .406-.245c.059-.033.118-.066.175-.096.137-.071.268-.133.395-.189.042-.018.086-.04.127-.056a5.53 5.53 0 0 1 .27-.1c.343-.123.617-.186.864-.229.161-.028.334-.06.448-.071.677-.07 3.328.87 5.725 1.463h.005c-.79-.356-5.464-3.234-7.74-1.98-.977.54-1.896 1.184-2.576 1.845-1.183 1.148-3.763 1.778-5.59 1.39-1.828-.388-16.66-5.158-17.504-5.348-.632-.143-1.485-.72-2.482-.711z"/><path class="gamma--dark" style="fill:#ccc;stroke-width:.25" d="M325.39 150.086c1.527 3.297-2.435 8.933-5.713 12.314a5.825 5.825 0 0 0-.388.733c.496.306 1.13.624 1.83.933.189-.272.369-.524.582-.842 5.541-8.265 5.446-10.662 3.689-13.138zm-.066 8.526c-.958 1.826-1.819 3.657-3.186 5.88 1.656.617 3.573 1.067 5.297.984-.11-1.653-.223-3.783-.195-5.837-.141 1.034-1.007 2.968-1.007 2.968l-.422-1.58-1.027 1.095s.542-1.222.54-3.51z"/><path class="gamma--dark" style="fill:#ccc;stroke-width:.25" d="M326.462 160.745s1.04-4.952.756-6.436c-.281 1.751-1.575 2.867-1.452 4.858.239-.724.305-.647.537-1.225.098.961.159 2.803.159 2.803z"/><path class="gamma--lightest" style="fill:#f9f9f9" d="M325.757 149.532c1.433.51 2.994 2.937 1.931 11.712.13-8.01-.21-9.792-1.931-11.712z"/><path style="fill:#e6e6e6;stroke:#b3b3b3;stroke-width:.32897973;stroke-miterlimit:4.06053257" d="M339.02 168.729c2.515-3.662 5.188-8.949 5.677-11.513.358-1.875-.357-4.44-.798-5.492-.442-1.053.225-1.802 1.175-1.528 3.121.901 5.664 3.374 6.002 7.84.296 3.903.346 9.208-.165 13.654-5.429 1.736-12.403-.185-11.89-2.961z"/><path class="beta--dark" style="fill:#d4aa00;stroke-width:.25" d="M359.098 176.417c.082-1.946-2.306-4.933-5.816-1.919 2.442-.602 5.376.871 5.816 1.919z"/><path class="gamma--dark" style="fill:#ccc;stroke-width:.25" d="M346.948 152.359s1.17 1.617 1.207 3.905c.028 1.666-1.277 11.693-1.277 11.693l-.412-4.18-1.82 3.658.115-2.699-3.868 5.745-.863-.457 3.357-5.249-4.296 4.773c.72 2.012 5.453 3.322 9.884 2.598.065-.074.129-.15.185-.232 0 0 .784-11.612.257-15.382-.086-.616-.068-3.02-2.47-4.173z"/><path class="gamma--lightest" style="fill:#f9f9f9" d="M350.473 169.682c.328-7.78 1.604-16.693-4.292-18.15 2.187.693 5.036 2.152 4.292 18.15z"/><path class="gamma--dark" style="fill:#ccc;stroke-width:.25" d="M346.669 153.1c.585.91.496 4.657.459 5.538-.152-1.331-.482-1.715-.482-1.715s-.184 2.713-3.132 6.912c2.357-4.963 3.128-8.456 2.385-10.551.456.684.648 1.06.695 1.578.167-.655.204-1.535.075-1.762z"/></symbol><symbol id="ispikes_2_of_2" viewBox="207 120 150 150"><path class="alpha--dark" style="fill:#a02c89" d="M256.732 160.452c-5.568 2.444-41.47 22.948-39.879 27.44 1.591 4.49 5.44 1.385 7.837.106 2.397-1.279 10.37-4.855 11.296-4.747.927.107 8.944.795 10.756.13l1.812-.666c7.093-2.656 18.816-8.157 19.415-8.476.6-.32 2.377-1.72 1.069-3.429-1.308-1.709-4.77-10.091-7.402-10.567-2.633-.476-4.904.21-4.904.21z"/><path class="beta" style="fill:#fc0;stroke:#a80;stroke-width:.25" d="M209.553 178.982c4.515 1.59 6.427 8.86 6.359 10.749-.09 2.447 1.16 3.252 4.063 2.017 3.916-1.665 6.97-2.847 10.486-4.234 2.675-1.054 4.614-1.8 6.857-1.906 2.243-.105 4.228.14 6.164-.01 1.937-.149 2.993-.157 6.433-1.608 3.441-1.452 16.008-6.847 19.714-8.65 2.053-1 .919-3.742.07-5.947a101.777 101.777 0 0 0-3.036-6.861c-1.297-2.647-3.838-4.58-8.773-4.213-.628.047-1.08 3.718.403 3.298 5.022-1.42 6.931 4.148 7.278 4.862.46.948 2.638 5.634 2.463 6.12-.176.484-17.635 7.921-18.801 8.524-1.513.783-6.51 1.92-9.703 1.52-3.193-.402-5.575-.034-8.561 1.149-3.6 1.425-9.445 4.277-10.615 5-1.17.724-2.066-.262-2.348-1.39-.282-1.127-1.958-8.58-6.675-10.066"/><path class="beta--dark" style="fill:#d4aa00" d="M259.924 159.54c-1.339-.193-3.238 1.843-1.63 2.077 5.021-1.42 6.93 4.147 7.277 4.862.46.947 2.639 5.634 2.463 6.12-.176.484-17.635 7.92-18.802 8.524-1.512.782-6.509 1.92-9.702 1.52-3.194-.402-5.575-.034-8.561 1.148-3.599 1.425-9.445 4.278-10.615 5.001-1.17.724-2.066-.262-2.348-1.39-.275-1.099-1.877-8.214-6.331-9.943l-.584.1-1.103 1.02c3.35 2.35 7.006 8.768 7.194 10.722.21 2.175 1.224 2.964 13.592-1.932l.03.013c2.491-.979 4.373-1.672 6.514-1.773 2.243-.106 4.228.139 6.165-.01 1.936-.15 2.992-.158 6.433-1.61 3.44-1.45 16.007-6.845 19.712-8.649.047-.022.083-.05.127-.074.64-.866.927-1.53.763-1.864-1.2-2.445-4.365-9.797-5.083-11.223-.628-1.247-2.932-2.789-5.511-2.639z"/><path class="alpha--dark" style="fill:#a02c89" d="M354.863 173.552c2.615.418 5.3 2.458 4.45 9.478-.85 7.02-.955 9.516-2.866 8.837-1.912-.68-13.078-5.329-14.341-4.947-1.264.381-7.082 3.635-8.32 3.429-1.239-.206-18.942-4.283-19.458-5.19-.516-.908.972-3.338 1.19-5.24.22-1.901-.45-15.613-.934-17.254 10.115 3.275 40.28 10.887 40.28 10.887z"/><path class="beta" style="fill:#fc0;stroke:#a80;stroke-width:.25" d="M356.57 171.896c8.393 1.995 4.15 18.339 3.127 19.887-1.022 1.547-2.038 2.95-4.6 2.103s-4.972-2.06-7.4-3.084c-2.103-.886-3.469-1.786-5.125-1.43-1.655.357-3.633 1.86-5.437 2.5-1.804.64-2.903 1.187-5.607.478-2.704-.71-13.196-3.714-16.85-4.613-3.653-.9-2.861-3.538-1.557-6.73.469-1.147 1.074-14.841-.567-18.598-.267-.61 3.126-1.623 3.68-.108 1.62 4.423 1.165 18.295.974 19.045-.142.56-1.07 2.707-.816 3.154.254.448 15.699 3.794 16.666 3.55.967-.245 4.042-1.84 6.274-2.895s4.54-.655 6.816.469c2.277 1.124 7.252 3.102 8.326 3.588 1.073.487 1.667-.646 1.716-1.805.05-1.159 1.699-11.094-.863-11.942"/><path class="beta--dark" style="fill:#d4aa00;stroke-width:.25" d="M314.757 161.508c-.903-.016-1.905.34-2.155.679l.066.09c1.745 2.34 1.863 16.349 1.67 17.544-.192 1.195-.824 2.1-1.444 3.996-.489 1.492.55 2.201 1.597 2.485.99.27 19.485 5.442 20.057 5.319.573-.124 3.917-2.073 5.074-2.62 1.158-.547 3.17-1.607 4.276-.952 1.107.655 8.934 3.839 10.048 4.344 1.113.504 1.39.668 1.86-.364.468-1.032 1.06-1.605 1.625-1.579.567.027 1.158-.548 1.048-1.306-.11-.758.039-.901.611-1.024.573-.124.623-1.326.23-2.097-.393-.772-.753-2.294-.29-3.176.462-.88-.202-1.966-.152-3.168.05-1.187-.8-4.026-3.547-4.228l-.005.015c2.562.847.913 10.782.865 11.94-.05 1.16-.644 2.293-1.717 1.806-1.074-.486-6.048-2.464-8.325-3.588-2.277-1.124-4.585-1.524-6.817-.47-2.232 1.056-5.307 2.651-6.274 2.895-.968.245-16.412-3.102-16.667-3.55-.255-.447.675-2.593.817-3.153.19-.75.645-14.622-.974-19.045-.208-.568-.814-.78-1.478-.793z"/></symbol></svg>