<svg xmlns="http://www.w3.org/2000/svg"><symbol id="ichain" viewBox="241 140 80 80"><path class="alpha" d="M267.71 157.01c-6.12 11.8.08 34.54 14.4 34.54 8.65 0 23.64-26.67 12.71-36.73" style="fill:none;stroke:#ffe680;stroke-dasharray:1,1"/></symbol><symbol id="idogtags" viewBox="241 140 80 80"><path d="M279.078 180.388a4.05 4.05 0 0 0-.75.025c-1.657.225-3.27 1.006-3.262 2.202.016 2.206.265 6.144.34 7.31.17 2.694 7.227 1.961 7.103-.543-.122-2.467-.403-6.175-.59-7.392-.16-1.048-1.657-1.54-2.841-1.602zm-.579.812a.169.169 0 0 1 .163.174.169.169 0 0 1-.175.163.169.169 0 0 1-.163-.174.169.169 0 0 1 .175-.163z" style="fill:#d4cbb4;stroke:#583d35;stroke-width:.07150714px" class="alpha"/><path style="fill:#f7eaca" d="M275.686 182.98c-.006-.564.211-.762.54-.775.328-.013.312 1.048.255 1.491-.037.289-.417.305-.373.717.043.403.41-.007.393.437-.018.445-.817.276-.822-.16-.006-.479.012-1.257.007-1.71z" class="alpha--light"/><path style="fill:none;stroke:#583d35;stroke-width:.06805862px" d="M275.632 182.806c.015 2.1.25 5.576.32 6.685.078 1.216 1.45 1.502 2.907 1.436 1.616-.074 3.122-.809 3.06-2.063-.116-2.347-.369-5.54-.546-6.699-.174-1.129-1.73-1.404-3.101-1.248-1.364.154-2.648.755-2.64 1.89z" class="alpha"/><path style="fill:#7a5849" d="M281.96 182.288c.062 1.437.272 6.547.308 7.217.024.458-.839 1.67-3.454 1.816-1.849.103-3.239-.594-3.409-1.396.171 2.694 7.228 1.961 7.104-.543-.114-2.292-.364-5.654-.548-7.094z" class="alpha--dark"/><path style="fill:#f7eaca" d="M277.302 180.628c-1.238.358-2.242 1.043-2.236 1.987.014 1.817.18 4.727.282 6.377-.003-.372-.1-5.98-.086-6.427.02-.62.844-1.48 2.04-1.937z" class="alpha--light"/><path d="M282.285 189.114c-1.52-.03-2.955.404-3.208 1.468-.532 2.247-1.258 6.31-1.472 7.514-.496 2.78 6.858 3.79 7.354 1.214.489-2.537 1.126-6.375 1.238-7.658.12-1.36-2.027-2.368-3.258-2.497a7.749 7.749 0 0 0-.654-.04zm.675.722a.169.169 0 1 1-.011.337.169.169 0 0 1 .011-.337z" style="fill:#d4cbb4;stroke:#583d35;stroke-width:.07481357px" class="alpha"/><path style="fill:#f7eaca" d="M279.616 191.107c.134-.574.404-.72.741-.652.337.068.057 1.142-.111 1.578-.11.284-.5.207-.557.636-.056.42.419.094.29.542-.128.448-.898.077-.795-.367.113-.488.324-1.274.432-1.737z" class="alpha--light"/><path style="fill:none;stroke:#583d35;stroke-width:.07120559px" d="M279.604 190.918c-.506 2.138-1.13 5.729-1.335 6.874-.224 1.254 1.1 1.886 2.597 2.18 1.66.328 3.374-.045 3.622-1.335.465-2.414 1.003-5.722 1.11-6.944.104-1.19-1.41-1.857-2.841-2.04-1.424-.181-2.879.11-3.153 1.265z" class="alpha"/><path style="fill:#7a5849" d="M286.165 191.964c-.295 1.475-1.351 6.721-1.482 7.41-.09.472-1.267 1.49-3.96.988-1.905-.355-3.145-1.409-3.118-2.266-.496 2.78 6.858 3.79 7.354 1.214.454-2.358 1.036-5.836 1.206-7.346z" class="alpha--dark"/><path style="fill:#f7eaca" d="M281.844 189.12c-1.348.055-2.539.502-2.767 1.462-.438 1.851-.992 4.85-1.299 6.551.09-.378 1.386-6.102 1.51-6.552.175-.627 1.226-1.295 2.556-1.462z" class="alpha--light"/><path d="M281.135 180.879c1.595-.63 3.758-2.1 5.34-3.55 2.514-2.302 5.447-5.71 6.57-8.02 1.305-2.68 2.592-6.867 2.668-9.039.08-2.292-.499-5.458-.995-5.814" style="fill:none;stroke:#a78c7b;stroke-width:.37406784;stroke-linecap:round;stroke-linejoin:round;stroke-dasharray:.37406783,.74813566" class="alpha"/><path style="fill:none;stroke:#a78c7b;stroke-width:.37406784;stroke-linecap:round;stroke-dasharray:.37406783,.37406783" d="M282.863 189.9c-.28-.094-.267-1.027-.23-1.628.041-.694.435-.742.541-.373.112.387.217.644.145 1.094" class="alpha"/><path style="fill:none;stroke:#a78c7b;stroke-width:.07481357px" d="M267.66 157.784s-.466 3.39-.477 4.476c-.014 1.393 1.216 4.771 3.021 7.569 1.946 3.015 6.252 9.185 6.894 10.403.769 1.457 5.61 7.678 6.004 7.661.517-.022 4.556-2.754 6-6.254 1.323-3.208 3.143-9.02 4.252-11.35 1.11-2.332 2.447-6.142 2.589-9.607.141-3.466-.555-5.464-1.052-5.82" class="alpha"/><path style="fill:none;stroke:#a78c7b;stroke-width:.37406784;stroke-linecap:round;stroke-linejoin:round;stroke-dasharray:.37406783,.74813566" d="M267.66 157.784s-.466 3.39-.477 4.476c-.014 1.393 1.216 4.771 3.021 7.569 1.946 3.015 6.252 9.185 6.894 10.403.769 1.457 5.61 7.678 6.004 7.661.517-.022 4.556-2.754 6-6.254 1.323-3.208 3.143-9.02 4.252-11.35 1.11-2.332 2.447-6.142 2.589-9.607.141-3.466-.555-5.464-1.052-5.82" class="alpha"/><path style="fill:none;stroke:#a78c7b;stroke-width:.07481357px" d="M283.055 190.04c-.28-.095-.503-.788-.469-1.389.047-.825.482-1.12.588-.752.112.387.21.823.138 1.273" class="alpha"/><path d="M267.964 157.648s-.862 2.443-.918 3.7c-.072 1.615 1.027 5.296 2.183 7.748 1.498 3.177 4.649 6.675 5.091 7.447.53.923 3.634 4.71 4.03 4.709" style="fill:none;stroke:#a78c7b;stroke-width:.37406784;stroke-linecap:round;stroke-linejoin:round;stroke-dasharray:.37406783,.74813566" class="alpha"/><path d="M281.135 180.879c1.595-.63 3.758-2.1 5.34-3.55 2.514-2.302 5.447-5.71 6.57-8.02 1.305-2.68 2.592-6.867 2.668-9.039.08-2.292-.499-5.458-.995-5.814m-26.754 3.192s-.862 2.443-.918 3.7c-.072 1.615 1.027 5.296 2.183 7.748 1.498 3.177 4.649 6.675 5.091 7.447.53.923 3.634 4.71 4.03 4.709" style="fill:none;stroke:#a78c7b;stroke-width:.07481357;stroke-linecap:round;stroke-linejoin:round" class="alpha"/></symbol><symbol id="istethoscope" viewBox="241 140 80 80"><path style="fill:#9da1a9;stroke:#55504d;stroke-width:.05964314px" d="M270.282 206.221c-2.826.361-3.488 3.187-2.886 4.991.6 1.804 3.367 4.39 6.915 3.669 3.548-.722 3.608-4.33 3.067-5.232-.542-.902-2.105-4.15-7.096-3.428z" class="beta"/><path style="fill:#858079;stroke:none;stroke-width:.05964314px" d="M271.597 206.118c-.205.002-.418.01-.637.028l-.077.076c-2.165 0-3.608 2.164-2.886 4.45.721 2.284 3.427 4.329 6.133 3.607 2.706-.721 3.97-3.427 2.706-5.412l.033-.053c-.753-1.12-2.242-2.719-5.272-2.696z" class="beta--dark"/><path style="fill:#f8f7fa;stroke:none;stroke-width:.05964314px" d="M267.81 209.437c-.001.1.003.2.01.303l5.409.09-.03-.181z" class="beta--light"/><path style="fill:#55504d;stroke:none;stroke-width:.05964314px" d="M269.981 209.529c-.36.962.902 2.164 2.165 2.525 1.263.361 2.465-.06 2.766-.661" class="beta--darker"/><path style="fill:#55504d;stroke:none;stroke-width:.05964314px" d="m273.56 208.206-5.105 3.477a5.808 5.808 0 0 0 2.832 2.411z" class="beta--darker"/><path style="fill:#4db4c6;stroke:#383438;stroke-width:0" d="M272.807 203.095c-1.202-6.495-4.089-16.477-6.614-24.053-2.526-7.577-3.247-16.597-1.684-20.686 1.066-2.786 2.298-5.014 3.656-5.953l-.048-2.225c-3.608 2.044-6.614 5.652-6.855 14.552-.24 8.9 3.367 17.679 4.21 20.565.841 2.887 3.848 13.83 3.848 14.312 0 .48.904 3.711.904 3.966 0 .256.297.553.552.51l-.127-.637c.723-.468 1.468-.618 2.158-.351z" class="alpha"/><path style="fill:#b2f7fb;stroke:none;stroke-width:.05964314px" d="M271.659 202.48c-.455-1.82-1.365-6.75-1.744-7.963-.38-1.213-3.716-11.603-4.171-13.043 1.896 6.749 3.716 12.664 3.792 13.043.075.38 1.668 8.19 1.668 8.19z" class="alpha--light"/><path style="fill:#9da1a9;stroke:#55504d;stroke-width:.05964314px" d="m270.479 202.978 1.063 3.87 1.615-.426s-.732-3.03-1.02-4.294c-.152-.668-1.956-.255-1.658.85z" class="beta"/><path style="fill:#3b3735;stroke:none;stroke-width:.05964314px" d="m271.033 209.926-.92.627c.359.642 1.158 1.232 1.969 1.482l.576-1.494z" class="beta--darkest"/><path style="fill:#9da1a9;stroke:#55504d;stroke-width:.05964314px" d="M272.35 204.084c-2.165.187-3.274 1.998-2.977 3.912.298 1.913 2.679 4.21 5.783 3.359 3.104-.85 2.806-4.21 1.53-5.613-1.275-1.403-3.054-1.77-4.336-1.658z" class="beta"/><path style="fill:#858079;stroke:none;stroke-width:.05964314px" d="M271.967 205.572c-.872.354-2.166 1.911-.638 3.53 1.446 1.53 3.36 1.36 4.38.594 1.02-.765.723-2.72-.426-3.571-1.148-.85-2.611-.839-3.316-.553z" class="beta--dark"/><path style="fill:#f8f7fa;stroke:none;stroke-width:.05964314px" d="M273.023 205.397c-.42 0-.792.068-1.056.175-.461.187-1.04.71-1.257 1.4 1.026.898 2.49 1.704 2.49 1.704.108-.76.828-2.54 1.051-3.081a3.996 3.996 0 0 0-1.228-.198z" class="beta--light"/><path style="fill:#f8f7fa;stroke:none;stroke-width:.05964314px" d="M275.946 206.879c-.284.144-1.899.973-2.778 1.688 1.383.12 2.466 0 3.127-.301l.036-.015a2.84 2.84 0 0 0-.385-1.372z" class="beta--light"/><path style="fill:#f8f7fa;stroke:none;stroke-width:.05964314px" d="M275.453 205.26c-1.293-.722-2.946-1.233-4.239-.331-1.293.902-1.082 1.804-1.082 1.984.27-1.203 1.292-1.804 2.134-2.045.842-.24 2.195-.09 3.187.391z"/><path style="fill:#b2f7fb;stroke:none;stroke-width:.05964314px" d="M268.117 150.178c-3.505 1.986-6.442 5.449-6.827 13.804.15.453.276.855.359 1.188-.074-9.316 3.074-12.26 6.421-14.734.023-.093.04-.18.047-.258z"/><path style="fill:#32798b;stroke:none;stroke-width:.05964314px" d="M268.162 150.702c-5.91 3.814-6.2 10.892-5.224 18.183.986 7.356 5.081 16.304 7.28 23.509l.021-.042a269.315 269.315 0 0 0-4.046-13.31c-2.526-7.577-3.247-16.597-1.684-20.686.917-2.399 2.151-5.218 3.715-5.921-.034-.647-.096-1.612-.062-1.733z" class="alpha--dark"/><path style="fill:#383438;stroke:none;stroke-width:.05964314px" d="M268.167 151.454c-2.78 2.37-3.908 5.007-4.395 10.151-.02.212-.023.41-.01.592.114-1.517.36-2.83.747-3.841.451-1.18.992-2.461 1.648-3.641.392-.704 1.33-1.886 2.02-2.217 0 0 .006-1.007-.01-1.044z" class="alpha--darker"/><path style="fill:#4db4c6;stroke:#383438;stroke-width:0" d="M294.823 151.104c-.05.13.04 2.648.04 2.648.88.363 1.938 1.953 2.384 2.54.68.892 2.679 3.57 3.232 8.588.552 5.018.51 11.055-.723 11.396-1.233.34-3.912 1.233-5.06 2.806-1.148 1.573-.638 1.446-1.106 2.04-.467.596-.34 1.744-.34 2.084 0 .34.213 3.87.213 4.252 0 .383.127 1.999.297 2.594.17.595 2.339.425 2.382-.298.042-.722-.34-6.25-.085-7.61.255-1.361 2.296-3.742 6.122-2.935 3.827.808 5.953 3.827 5.953 4.975 0 1.148.043 6.506.043 7.271 0 .766 2.423 1.19 2.508.17.085-1.02.298-6.59.128-8.036-.17-1.446-1.323-3.954-4.932-6.038-2.905-1.677-2.807-5.06-2.892-6.59-.085-1.531-.127-8.25-1.828-12.586-1.7-4.337-5.443-6.591-6.336-7.271z"/><path style="fill:#9da1a9;stroke:#55504d;stroke-width:.01491078" d="M295.469 190.12c-.043-.77-.953-.783-.953-.06 0 .51.316 6.586.698 9.647.383 3.062 2.298 10.87 5.88 13.423 3.88 2.766 7.27 1.409 9.292.393-.085-.34-.51-1.148-.51-1.148-1.865.973-4.088 2.296-7.564.138-3.141-1.95-5.743-8.518-6.085-12.639-.328-3.944-.712-8.905-.758-9.754z" class="beta"/><path style="fill:#858079;stroke:none;stroke-width:.05964314px" d="M297.14 207.1c.96 2.478 2.273 4.832 3.954 6.03 3.88 2.766 7.27 1.409 9.292.393a2.105 2.105 0 0 0-.083-.239c-.596.284-1.81.778-2.261.853-.483.08-1.395.214-1.502.053-.106-.16.317.234 3.6-1.28a9.62 9.62 0 0 0-.063-.132c-1.14.52-2.99 1.408-4.824 1.305-1.896-.107-4.751-.694-8.113-6.983z" class="beta--dark"/><path style="fill:#3b3735;stroke:none;stroke-width:.05964314px" d="M310.066 211.441s-.279.117-.385.18c-.107.064.122.786.366 1.341.221.502.443 1.163.75 1.085.306-.077.392-.104.392-.104" class="beta--darkest"/><path style="fill:#b2f7fb;stroke:none;stroke-width:.05964314px" d="M295.504 180.698c1.19-3.147 3.87-3.7 6.93-3.572 3.062.128 6.251 2.551 6.676 5.57-1.445-2.976-3.954-4.507-7.016-4.592-2.849-.08-4.974.51-6.59 2.594z" class="alpha--light"/><path style="fill:#32798b;stroke:none;stroke-width:.05964314px" d="m294.808 151.719.027 1.995c1.189.48 2.014 2.055 2.412 2.577.68.893 2.679 3.572 3.232 8.59.552 5.017.51 11.054-.723 11.395-.61.168-1.574.471-2.53.926 1.497-.382 3.482-.284 4.22-1.492.834-1.365.606-8.265 0-12.133-.599-3.813-.54-7.542-6.638-11.858z" class="alpha--dark"/><path style="fill:#383438;stroke:none;stroke-width:.05964314px" d="m294.818 152.992.014.756c.866.532 2.123 2.16 2.415 2.543.68.893 2.679 3.572 3.232 8.59.177 1.611.293 3.328.328 4.927.15-5.391-.1-9.471-1.712-11.994-.873-1.367-2.61-3.87-4.277-4.822z" class="alpha--darker"/><path style="fill:#9da1a9;stroke:#55504d;stroke-width:.01491078" d="M308.847 191.91c.034-.617 1.123-.579 1.123 0 0 .408-.395 4.918-.51 7.384-.136 2.918-1.183 10.949-4.416 13.084-3.371 2.227-6.33-.348-7.7-1.445.069-.273.622-.92.622-.92 1.888 1.234 4.195 3.39 6.593 1.328 2.813-2.42 3.625-7.691 3.863-10.992.238-3.301.388-7.76.425-8.44z" class="beta"/><path style="fill:#858079;stroke:none;stroke-width:.05964314px" d="M309.65 191.697a.26.26 0 0 0-.134.052c.215.08-.268 3.003-.187 4.96.08 1.958-.269 6.676-1.716 10.698-1.448 4.022-3.593 4.987-4.88 5.04-.863.036-1.488-.172-2.797-1.111-.683-.413-1.333-.903-1.94-1.302.902.944 2.69 2.555 4.415 2.574 2.44.027 3.378-1.528 4.29-2.842-1.1 2.52-2.95 2.87-3.164 2.896-.214.027-.295.16-.429.322-.134.16-1.528-.027-2.118-.215-.58-.184-1.758-.709-3.43-2.231-.102.148-.19.296-.215.395 1.37 1.097 4.328 3.672 7.699 1.445 3.233-2.135 4.28-10.166 4.416-13.084.115-2.456.507-6.934.51-7.376-.08-.163-.205-.232-.32-.221z" class="beta--dark"/><path style="fill:#3b3735;stroke:none;stroke-width:.05964314px" d="M296.375 211.078s.234.192.34.255c.107.064.723-.404 1.042-.85.32-.446.787-1.042.574-1.276-.212-.233-.276-.297-.276-.297"/><path style="fill:#858079;stroke:none;stroke-width:.01491078" d="M298.14 208.974c-.502-.477-1.36-1.276-1.488-1.446-.128-.17-.42-.709-.647-.87-.137-.096-.412-.21-.72-.261-.39-.064-.807-.03-1.265.002-.528.222-1.002 1.125-.944 1.327.067.239.444 1.409.528 1.47.367.263.982.585 1.09.67.215.168 1.448 1.021 1.745 1.234.298.212 2.05-1.795 1.701-2.126z" class="beta--dark"/><path style="fill:#3b3735;stroke:none;stroke-width:.05964314px" d="M293.754 207.177c.087-.121.335-.43.253-.535-.038-.047-.345.25-.453.417-.104.16-.313.452-.251.501.074.06.35-.244.45-.383z" class="beta--darkest"/><path style="fill:#55504d;stroke:none;stroke-width:.05964314px" d="M293.993 207.166c-.294.49-.76.692-.905.6.083.284.435 1.37.516 1.429.367.264.982.586 1.09.67.215.169 1.448 1.022 1.745 1.235.078.055.256-.042.47-.22-.645-.489-1.467-1.108-1.55-1.14-.133-.054-1.098-.644-1.232-.724-.134-.08-.322-.778-.402-1.073-.08-.295.187-.51.268-.777z" class="beta--darker"/><path style="fill:#858079;stroke:none;stroke-width:.01491078" d="M310.01 211.483c.618-.31 1.672-.827 1.843-.953.171-.126.588-.621.963-.686.375-.064 1.06.026 1.569.402.508.376.81 1.26.659 1.614-.152.354-.5 1.083-.912 1.27-.412.186-1.287.143-1.54.245-.253.101-1.223.518-1.57.636-.048-.69-.719-1.886-1.012-2.528z" class="beta--dark"/><path style="fill:#55504d;stroke:none;stroke-width:.05964314px" d="M314.644 210.5c.314.426.261.876.261 1.063 0 .187-1.1 1.045-1.206 1.072-.108.027-.939.107-.939.107l-1.835.798c.052.172.088.332.098.47.346-.117 1.316-.534 1.569-.635.253-.102 1.128-.059 1.54-.245.412-.187.76-.916.912-1.27.123-.289-.055-.93-.4-1.36z" class="beta--darker"/></symbol></svg>