<svg xmlns="http://www.w3.org/2000/svg"><symbol id="icowboy" viewBox="210 442 120 120"><path d="M295.68 524.686c-.453 1.244-.81 2.497-.352 3.57.457 1.074 1.11 2.508 1.554 3.127.444.62 11.22 6.382 15.662 6.362 4.75-.022 8.739-7.87 9.372-9.848.634-1.979-.018-4.718-.28-5.768" style="fill:#502d16;stroke:#28170b;stroke-width:.52548683" class="beta"/><path d="M295.487 525.287c.005 1.347-.674 2.696 2.652 4.993 1.722 1.19 11.823 5.674 14.496 5.572 2.674-.102 5.266-2.422 7.259-5.02 1.993-2.6 2.054-3.67 2.078-7.091" style="fill:#784421;stroke:#28170b;stroke-width:.24377704px" class="beta--light"/><path d="M308.977 471.867c-.45-.549-1.093-.962-1.958-2.224-.864-1.262-2.158-3.066-2.389-3.715-.23-.65-1.28-4.46-1.973-6.074-.692-1.614-1.914-3.746-2.08-4.105-.166-.358-.916-1.714-1.825-2.349.231-.647-.992-1.809-1.433-2.299-.496-.55.174-.69-.394-1.111-.813-.604-.498-1.435-.498-2.119-.622.021-.67.692-.506 2.187.144.54.117 1.927.519 6.443s1.491 11.437 1.833 15.205c.342 3.768.765 8.995.898 9.771.132.776-.246 5.745-.742 6.91-.497 1.163.091 2.787-.157 3.793-.247 1.006-.933 3.634-1.114 5.021-.181 1.388-.128 3.388.23 4.54.36 1.152.412 3.841.125 4.302-.287.461-.73 1.956-.68 3.041.049 1.085-.61 7.215-1.511 10.214-.901 3-.267 4.911-.029 5.457.238.545.79 1.29.7 1.536-.09.247.185 1.322 1.988 2.935s11.331 6.003 14.763 5.802c3.431-.202 7.954-7.094 8.45-7.804.467-.67 1.074-3.843.433-5.589-.64-1.746-3.836-7.932-4.423-9.778-.586-1.845-.872-2.597-.872-2.597.396-.06.016-2.043-.41-2.756-.426-.712-.957-2.07-1.27-2.148-.311-.079-.194-.844.196-1.43.39-.587 1.049-2.572 1.04-3.682-.01-1.11-.795-5.618-.442-6.249.352-.63 2.086-3.03 2.337-3.812.25-.78.505-3.043.764-4.345.259-1.301.758-5.25.729-5.933-.03-.684-.012-2.51.657-3.346.67-.835.515-1.136.42-1.612-.096-.475 1.423-9.274 1.788-12.351.365-3.078 1.243-7.241 1.483-8.263.135-.576-.231-.768-.62-.426-.584.515-1.513.93-2.163 1.387-.41.287-.628.872-.247 1.187-1.928 1.524-3.447 3.89-4.561 5.16-1.115 1.272-2.908 4.541-3.794 6.2-.648 1.217-1.681 3.222-1.974 3.582-.293.36-1.288 1.444-1.288 1.444z" style="fill:#803300;stroke:#2b1100;stroke-width:.52548683" class="alpha"/><path style="fill:#520;stroke:none;stroke-width:.24377704px" d="M316.544 461.593c.641-.856 1.857-1.644 2.327-2.784.366-.884 1.572-1.386 1.661-2.266.684.35-.686 14.922-1.037 15.68-.35.757-1.968 1.005-1.968 1.005 1.573-9.111.716-12.803-.983-11.635z" class="alpha--dark"/><path d="M320.032 475.174c-1.514 1.14-2.982.636-2.866 3.673.128 3.32-1.056 9.423-1.25 10.004-.193.58-2.503 5.293-2.498 5.997.004.64 1.769.88 2.029 2.21-.02-1.661-.233-3.646 0-4.062.352-.631 2.085-3.031 2.336-3.812.25-.781.505-3.044.764-4.345.26-1.302.759-5.25.73-5.934-.03-.684-.013-2.51.656-3.345.107-.134.03-.276.099-.386zm-4.067 23.918c-.303.801-.779 1.422-1.333 2.157-.668.886-.894 2.464.66 3.918-.179-.403-.49-.773-.639-.81-.312-.079-.195-.846.195-1.432s1.049-2.572 1.04-3.681c-.001-.03.074-.117.077-.152zm3.64 18.019c1.264 3.568.397 6.08-.478 6.185-.978.117-1.153 1.083-.357 1.884.796.8-3.005 7.116-6.06 7.153-3.054.038-12.91-4.115-13.125-4.975-.214-.861-.252-2.097-1.194-1.38-.942.718-1.746-.27-1.378-.85.369-.577.375-.578-.834-1.737-.743-.713-1.19-1.283-1.268-2.107-.205 1.858.203 3.057.383 3.47.238.546.79 1.29.699 1.537-.09.247.185 1.321 1.988 2.934 1.803 1.614 11.331 6.005 14.762 5.804 3.432-.202 7.955-7.095 8.45-7.805.467-.669 1.075-3.842.435-5.588-.302-.822-1.126-2.653-2.022-4.525z" style="fill:#520;stroke:none;stroke-width:1.05097365px" class="alpha--dark"/><path style="fill:none;stroke:#2b1100;stroke-width:.24377704px" d="M308.541 477.804c-1.284.332-3.102 1.268-2.436 3.005l-3.122-1.135.607 1.79c-1.707.038-2.563-.077-3.467-.181 1.044 1.362 2.193 2.616 3.387 3.845l-2.672-.953 1.648 2.363-1.416.018 1.252.799-.497.763 1.938 1.378s-.86 3.673 1.36 5.604c-.953-.611-1.864-1.577-2.254-2.278-.662 1.573-1.634 3.666-.808 5.334-.718-1.24-1.042-2.37-1.036-2.527-.476.71-.63 2.115-.67 2.543-.34-.54-.448-1.756-.474-2.022 1.25.148 1.777-1.636.552-2.947.025-.017.028-.017.056-.035.732-.556.207-2.881 1.147-3.348.2-.498.51-.848-.195-.876-.719-.03-.98-.104-1.112-.653-.133-.55-.37-1.373-.37-1.373l.823-1.078-1.014.018 1.429-.617-.93-.34.632-.285-.45-.11.112-1.567-.719 2.047-.515-.177.018 1.969.544 2.274c-.165.56-.43 1.788-.43 1.788l-.395 2.28-.029 2.583s-.597 5.688-.817 7.876c.635.66 1.112-.74 1.294-1.523.185.391.754 1.468 1.868 1.123-1.51-.39-1.699-1.808-1.205-2.954.16.799.967 1.706 1.753 2.44-.223-.566-.985-3.01-.938-5.486.445 1.32 2.476 2.667 3.114 2.622-.306-.292-.783-.916-.99-1.62-.208-.705-.017-2.014.217-3.533.412.338 2.352 1.535 3.537 1.655-3.275-4.285-2.512-5.747-1.551-6.524.44.109.734.4.359 1.1 1.513-.066 1.515-.737 1.336-1.09-.179-.352.012-1.053.012-1.053l1.14 1.16.433-.985s.423.472.517.94c.093.468.517.565 1.54 1.016 1.022.45.21 4.399-2.983 5.61 1.45.182 2.7.02 3.885-.618-.637 2.24-1.171 3.928-2.383 4.585 1 .392 1.536-.261 1.536-.261.107.878-.142 1.732-.372 2.311l5.085-9.498s-1.2-.085-1.903-.276c-.114 1.755-1.852 2.626-2.496 2.476 1.014-.436 2.34-2.75 1.4-3.79l1.673.177-2.808-1 1.277.079-.126-.879 1.123-.045-.704-.77 3.455-.115-3.33-1.7 2.946-2.136-3.917.595 2.443-2.545-3.225-.296 2.944-1.535s-3.076-.08-4.208.14c.64-.57.595-2.068-1.425-3.572zm-6.905 12.016-.012.029c-.198.515.55.82 1.359.574-.195-.51-.368-1.062-1.332-.615-.006.003-.008.009-.015.012zm5.457 9.764a2.95 2.95 0 0 0-.88.112c.338 3.646-.429 4.06-2.345 4.717.582 2.77-3.608 4.713-4.674 5.052-1.067.34-1.527-.909-1.84-2.306l-.688 3.71c1.425.579 8.758-1.677 8.764-5.151.98-.521 2.35-.459 1.967-5.1.433 2.668.544 4.357 1.45 5.103-.307 1.698 3.464 5.323 5.661 5.467 1.882.124 1.824-1.927 1.824-1.927l-.746-1.55c-.02.299.054 2.111-1.108 2.111-2.996 0-5.134-4.349-4.38-5.478-1.241-.716-1.526-2.732-1.511-4.382.043-.035-.647-.364-1.494-.378zm10.72 13.786c-.472-.023-.724.3-.598.746.126.447.086.833.231 1.197-.69.226.019.627-.373.793-.213.09-.507.274-.776.735-.607-.23-1.356-.27-2.015-.66s.034-1.042.435-.873c.4.17.312.538-.297.553 1.532.662 1.463-.294 1.152-.54-.312-.245-1.002-.521-1.603-.376-.6.146-.617.565-.171 1.208a5.345 5.345 0 0 0-2.272-1.072c.254.4 1.062 1.014 2.015 1.287-1.096.215-.907.958-.17 1.339.737.38 1.456.327 1.715.1.258-.228-.092-.58-.518-.757-.57-.153-.8.069-.5.316.14-.024.315-.001.36.071.102.158.003.476-.78.005-.782-.47.075-.78.296-.841.22-.061 2.203.434 2.203.434-.164.771.493 1.368.422 2.129-.055.593-.798 1.445-1.388 1.716-.59.27.082 1.834 1.507 1.849 1.424.015 1.798.729 1.547 1.159-.252.43-.952.735-.794 1.035.158.3 1.577.94 2.39.07-.46.252-1.127.179-1.334-.119-.207-.296.045-.233.506-.553.46-.32.157-1.382-.515-1.73-.672-.35-1.185-.263-1.441-.22-.257.042-.94-1.013-.41-1.38.531-.366 1.3-1.27 1.024-2.114-.276-.844-.34-1.336-.215-1.64.11-.271.373-.436.5-.578.103-.115.128-.303.031-.418-.141-.169-.043-.37.213-.427.236-.052.072-.534-.041-.788-.291-.656-.236-.942-.046-.968-.04-.157-.29-.689-.29-.689zm-18.855 2.804c-.418-.026-.794.155-.96.352-.223.262-.036 1.308 1.147.724-.518-.058-.678-.48-.358-.632.32-.151 1.196.55.703.903-.492.352-.99.53-1.57.748-.49-.58-.912-.708-1.222-.762-.31-.054.104-.501-.782-.843l-.14.68c.167.038.17.128.141.514-.029.385.315.534.789.793.474.26.49.94.546 1.888.055.947 1.36 2.006 2.133 2.51.772.502.184.666-.12.612-.303-.054-.909-.149-1.568.168s-.664 1.246 0 1.54c.664.292.94.261.788.52-.152.258-.946.275-1.6.072 1.284.728 2.769.335 2.853.07.084-.266-.828-.627-1.274-1.03-.445-.404-.235-1.083 1.34-.977 1.573.105 1.91-.434 1.143-.878-.768-.444-1.994-1.496-2.324-2.178-.423-.875.045-1.515-.457-2.453 0 0 1.33-.57 1.54-.503.21.066 1.11.368.552.85-.557.482-.748.156-.717-.013.014-.078.16-.104.297-.077.18-.257-.105-.478-.547-.326-.312.176-.503.562-.185.824.318.262.985.3 1.549-.105.564-.405.252-1.104-.333-1.292.939-.118 1.595-1.048 1.634-1.228-1.14.153-1.82.657-2.224.937.381-.585.22-1.055-.348-1.305a1.254 1.254 0 0 0-.426-.103zm-.206-62.774c-.902-.587-1.507.186-1.702 1.756-.194 1.57 1.519 2.843 1.362 3.972-.156 1.128.592 5.944.678 7.537.087 1.592.03 2.51.168 3.044.06.234.087.747.091 1.252m-.029 1.293s.545.19.242.786c-.304.596.065 5.497.065 5.497" class="alpha"/><path d="M320.595 455.481c.954-.156.344 1.735.298 2.578-.045.843-.139 4.238-.24 5.863-.084 1.339-.144 4.718-.61 4.719-.467 0 .344 2.076-2.159 5.049" style="fill:none;stroke:#2b1100;stroke-width:.52548683" class="alpha"/><path d="M309.558 486.006s1.475-.76 1.923-1.58c-1.235.467-2.611.46-2.611.46l-.787-2.207-1.505 2.07c-1.447-.49-2.122-.882-3.007-1.3.744.77 1.372 1.514 2.684 2.43l-1.469 1.781 2.98-.847 2.611 1.48z" style="fill:none;stroke:#2b1100;stroke-width:.24377704;stroke-miterlimit:5;stroke-dasharray:none" class="alpha"/><path d="M295.92 450.058s.323.53.905.868c.582.338.123.743.305 1.016.182.274.386.822.705 1.256.318.435.645.649 1.116.915.47.266.527.7.8 1.289.274.588.865 1.962 1.697 3.176.832 1.215 1.45 3.136 1.74 4.646.29 1.51 1.324 3.524 1.722 4.182.398.658 2.684 3.834 2.533 3.946.018.655.548 1.358 1.126 1.406.91.076.822-.631 1.132-.913.31-.281.8-.61 1.09-1.244.29-.634 1.802-3.123 2.403-4.532.602-1.409 2.262-3.926 3.113-4.966.852-1.04 3.542-4.91 4.225-4.56.684.35-.686 14.922-1.037 15.68-.35.757-3.815 1.782-3.815 1.782m4.757-.677c-.37.926-2.79.693-3.23 1.251-.44.558 1.727 2.79 1.462 4.114-.264 1.324-.15 2.32.309 3.21" style="fill:none;stroke:#2b1100;stroke-width:.24377704px" class="alpha"/><path d="M297.175 452.162c-.855.121.324 2.602.12 5.558-.205 2.955-.047 6.056 1.802 10.2" style="fill:none;stroke:#2b1100;stroke-width:.24377704px" class="alpha"/><path d="M299.106 466.43c-1.217-3.084-4.384-12.915-1.54-13.558" style="fill:none;stroke:#2b1100;stroke-width:.52548683" class="alpha"/><path d="M320.203 456.482s.263-.24.557-.133c-.096-.15-.085-.21.106-.195" style="fill:none;stroke:#2b1100;stroke-width:.24377704px" class="alpha"/><path d="M321.281 525.156c-.494-.747-1.948-1.737-4.696-1.856-2.748-.119-2.94.03-4.415-.072-1.476-.103-13.977 1.113-15.103 1.762 1.514-.362 2.152-.024 2.428.105.277.13 1.128.202 1.516.107.387-.094 6.965-.255 8.796-.097 1.83.159 4.44-1.009 5.472-1.01 1.033-.001 1.8.144 2.08.147.278.002.778.052.973.206.196.155.763.37 1.223.454.46.084 1.05-.563 1.726.254z" style="fill:#520;stroke:none;stroke-width:.24377704px" class="alpha--dark"/><path d="M315.11 502.227c.076-.858.053-1.97-.067-3.513s-.601-4.134-.423-4.885a2.949 2.949 0 0 1-1.093 1.156c-.353 2.082-2.018 3.94-2.524 4.65.467.336 1.113 2.702.399 3.569.8-.757 1.568-.532 2.03-.418-.216-.767 1.078-1.64 1.678-.559zm-17.063-45.377c1.128 1.248.188 1.665.326 2.592.135.914 2.44 7.55 4.794 9.704-1.922-2.235-3.764-7.717-4.165-9.56-.31-1.429.586-2.483-.875-3.545zm.863 22.356.186-2.68-.192-.688.348-.077-.524-3.508 1.346-.156-1.559-2.263-.702-4.118.176 3.47m22.026-7.973c-1.21 1-2.333 3.125-2.756 3.675-.423.55-2.384 3.3-2.949 4.156.694-.304 1.249-.69 1.771-.68-1.132.772-3.042 2.947-4.004 5.85.801-2.136 4.162-5.333 5.387-1.746" style="fill:none;stroke:#2b1100;stroke-width:.24377704px" class="alpha"/><path d="M302.394 508.752c1.178.222 4.497-.61 4.863-.757.367-.148 1.418-.305 2.221.244-.73-.76-1.835-.965-2.628-.597-.793.368-3.635.647-4.456 1.11zm17.914 20.077c.693-.725.185-2.318-.855-2.938-1.04-.62-2.515-.52-3.56-.842-1.047-.323-2.556.303-3.39.183-.832-.12-8.466 1.528-9.497 1.183-1.03-.344-4.753.08-5.352.24-.6.16-.817.519-.818.798.129-.4.699-.653 1.092-.69.392-.038 4.468.323 4.855.306.387-.018 8.001-.961 8.513-.883.512.078 2.69-.162 3.22-.402.53-.24 3.56.121 4.023.354.463.233 1.59 1.275 1.759 1.757.169.481.01.934.01.934z" style="fill:#520;stroke:none;stroke-width:.24377704px" class="alpha--dark"/><path d="M316.356 509.242c-.217-.533-.36-1.004-.784-1.52-.424-.514-1.079-.776-1.342-1.023-.264-.248-.209-1.167-.467-1.678-.259-.51-1.874-5.601-2.027-6.36" style="fill:none;stroke:#2b1100;stroke-width:.24377704px" class="alpha"/><path d="M301.579 509.633c.821-.309 4.267-1.043 5.083-.916.816.127 2.537-.085 3.702.546-1.015-.256-1.914-.09-2.424.026-.51.117-1.688.025-2.113-.08-.426-.104-3.518.268-4.248.424z" style="fill:#520;stroke:none;stroke-width:.24377704px" class="alpha--dark"/><path d="M297.105 499.798c.108-1.78 1.492-6.648 1.464-6.878l-.254-2.018m-1.517 17.989c.354 1.07 1.37 1.508 2.37 1.257.927-.233 5.838-2.169 6.199-4.43m-8.157-51.174s.316.416.54.814c.665-.47 1.437.431 2.236 3.937.266.246.688.801.688.801l-.083 1.99s.672-.312 1.031-1.133c-.283 3.19 1.264 6.428 2.275 7.639 1.012 1.21 1.075 1.696.869 1.965 1.397 1.278.678 4.005-.797 3.962l.013.605c1.327.32 1.208 1.643.525 2.31-.684.668-1.378.565-1.977.407-.544.947-1.752 1.134-2.16 1.087.385 1.211-.264 1.612-.49.009-.555-.266-.611-.696-.877-1.02m21.824-19.898s-.66.185-.9.488c-.598-.093-1.662.947-2.012 2.766-.253.125-.636.492-.636.492l-.168 1.749s.013.053-.592-.86c-.445 2.725-2.336 5.878-3.713 7.165-.96.898-1.118 1.708-.915 2.063-1.519.707-.898 3.739.759 4.352l.067.622c-1.572-.29-1.018 1.167.154 2.267 1.172 1.1 1.427 1.32 1.691 1.451.275 1.264.469 1.898.66 2.007-.305.936.123 1.512.257.184.332-.038.722-.239.884-.435.35.751.525.38.187-.357.285-.12-.122-1.089-.122-1.089l-.389-.197-.034-.784.408.264c-.023-.997 2.469-1.914 2.469-1.914s-3.144 1.017-3.13 1.273c.016.256.02 1.276.025 1.464.005.189-.368-.279-.385-.527-.017-.248-.266-3.524-.266-3.524m-16.532 15.989c.086-.806.087-1.85.257-1.945.17-.095.151-.238.1-.617-.052-.38.128-1.045.128-1.045s.286-1.473.243-1.758" style="fill:none;stroke:#2b1100;stroke-width:.24377704px" class="alpha"/><path d="M320.315 456.583c-.012 1.15-.95 1.153-1.359 1.768-.408.615-1.125 1.833-1.761 2.448-.636.615-1.736 1.943-2.565 3.344-.828 1.4-1.006 2.46-1.597 3.413-.29.467-2.056 2.738-1.533 3.134-.406.162-.844.4-1.149.65.227.407.005 1.207-.87 1.584.027 1.136-1.668.93-1.721-.105-.842-.275-1.078-1.088-.84-1.52a4.6 4.6 0 0 0-1.057-.722c.9-.19-.768-2.473-1.288-2.997-.52-.523-1.149-1.676-1.616-3.385-.467-1.708-1.11-3.752-1.58-4.513a69.317 69.317 0 0 1-1.63-2.834c-.35-.657-.319-1.22-.37-2.31" style="fill:none;stroke:#2b1100;stroke-width:.24377704px" class="alpha"/><path d="m254.776 523.016-4.491-1.073s3.945-6.52 5.141-4.89c1.38 1.88-.05 5.104-.65 5.963z" style="fill:#28170b;stroke:#28170b;stroke-width:.52548683" class="beta--dark"/><path d="M226.078 519.81c-1.042 1.135-3.443 5.058-5.31 7.81-1.867 2.754-1.793 5.83 2.461 6.102 11.37.725 16.875-1.169 20.187-2.737 1.226-.58 3.204-1.583 4.787-2.996 1.582-1.413 1.883-3.5 2.187-4.735.155-.606.33-5.802 4.45-5.733.018-.004-.07 5.432-.07 5.432s4.149-.838 5.102-2.442c.954-1.604 1.951-4.584 1.61-6.77-.34-2.186-.296-2.594-3.029-1.925" style="fill:#502d16;stroke:#28170b;stroke-width:.52548683" class="beta"/><path d="M224.51 521.57c-3.451 4.036-2.608 4.65-4.424 7.63-1.391 2.475 1.596 2.891 4.867 2.946 3.872.066 12.615-.143 16.873-1.927 4.82-2.02 7.664-3.84 8.6-7.407.351-1.499 1.302-4.09 6.77-5.613 2.403-.67 5.46-1.835 4.546-4.572" style="fill:#784421;stroke:#28170b;stroke-width:.24377702px" class="beta--light"/><path d="M245.769 465.627c.766-.467.647.676 1.646-.358 1-1.033 2.286-2.444 2.673-3.015.387-.57 2.773-3.67 3.821-5.02 1.049-1.35 3.032-3.258 3.295-3.562.264-.303.7-1.457 1.822-1.94-.07-.627 1.564-1.585 2.197-2.013.712-.48 3.815-.338 4.438-.152.635.19.822.626.988.957.148.308.117 1.784-.064 3.699-.383 4.044-1.367 8.563-2.097 12.475-.73 3.912-2.39 9.19-2.71 9.967-.322.776-1.058 5.753-.79 6.922.267 1.168-.613 2.751-.534 3.75.078 1 .35 3.612.336 4.989-.014 1.377-.313 3.355-.795 4.487-.484 1.131-.84 3.785-.554 4.253.287.468 1.176 2.61 1.522 4.26.393 1.867 2.56 9.604-1.576 10.683-1.212.316-3.189.982-3.897 1.269-2.18.882-3.358 2.272-4.126 3.609-.475.828-2.915 4.147-2.968 4.44-.053.293-1.46 1.887-5.678 3.778-4.218 1.89-11.184 2.83-19.184 2.21-4.099-.318-3.338-3.057-2.533-4.18.758-1.058 3.884-6.086 5.59-7.903 1.707-1.818 8.713-9.144 10.595-11.435 1.882-2.291 2.371-3.162 2.371-3.162-.225-.143.893-2.545 1.348-3.299.455-.753.749-2.148 1.024-2.203.276-.055 1.158-1.09.645-1.74-.513-.652-1.343-2.827-1.276-4.024.068-1.197 2.33-6.133 2.037-6.863-.293-.73-1.682-4.444-1.865-5.455-.183-1.01.07-3.975-.055-5.553-.125-1.578-1.165-5.724-1.272-6.333-.107-.61.636-2.729.03-3.396-.605-.667-.642-.82-.518-1.156.125-.336-.473-5.18-.828-6.704-.077-.759-.24-3.545-.309-4.434-.032-.888-.056-1.99.064-3.21.23 1.885.646 3.128 1.187 4.775.339 1.034.965 1.901 1.304 3.125.368 1.33.698 1.984 1.417 3.298.246.812 1.882 2.56 2.118 2.87.236.313 1.16 1.294 1.16 1.294z" style="fill:#803300;stroke:#2b1100;stroke-width:.52548683" class="alpha"/><path d="M241.327 493.223c-.005.042-.026.11-.028.146a3.18 3.18 0 0 0 .014.489c.012.133.038.277.063.42.008.045.01.086.02.132v.003c.075.382.188.787.32 1.174.13.387.28.758.43 1.072.15.313.3.57.427.733.385.488-.434 1.269-.504 1.564a.314.314 0 0 1-.052.12.142.142 0 0 1-.087.058c-.131.026-.243.362-.396.784 1.355-1.431 1.769-3.329 1.039-4.32-.604-.822-1.078-1.517-1.246-2.375zm20.352 20.35c-.52 1.344-7.3 1.551-9.466 3.976-1.458 1.632-4.568 5.798-4.477 6.47.092.671-2.068 1.99-2.879 1.132-.81-.86-1.972.618-3.063 1.621-1.092 1.003-10.721 2.276-16.79 1.54-3.514-.425-2.2-4.518-1.353-5.193.849-.674 1.685-1.613 1.661-1.899-.019-.232.969-1.739 4.63-5.49-1.821 1.784-2.696 2.804-3.35 3.501a49.72 49.72 0 0 0-1.475 1.667c-1.625 1.903-3.548 5.443-4.117 6.238-.425.593-.79 1.907-.537 2.395.476.917 1.302 1.646 3.072 1.783 7.815.606 14.648-.305 18.88-2.086.1-.042.205-.08.303-.125a36.606 36.606 0 0 0 1.455-.688c2.22-1.116 3.403-2.06 3.91-2.625.203-.227.3-.39.313-.463.052-.293 2.305-3.86 2.78-4.688.768-1.338 2.135-2.48 4.314-3.361.708-.287 2.685-.953 3.897-1.27.697-.181 1.232-.558 1.667-1.062-3.087 5.768-1.921 3.465.625-1.374z" style="fill:#520;stroke:none;stroke-width:1.05097365px" class="alpha--dark"/><path d="M255.602 507.585c-3.24 2.127-7.712 1.902-8.979-1.755-.608-.919-.374-5.794-.242-10.47-.282 2.673-1.571 3.39-2.492 4.177.462 4.614-2.217 7.172-3.685 6.973-1.258-.17-.647-1.875-.647-1.875m19.469-52.902c1.102-.439 1.543.35 1.419 1.798-.124 1.448.17 2.121.292 3.116.12.994 1.878 5.335 1.781 6.718-.097 1.382-.09 2.197-.255 2.665-.165.468-5.788 2.473-5.788 2.473s4.713-.12 6.52.099c.226.55-1.005 5.076-1.005 5.076" style="fill:none;stroke:#2b1100;stroke-width:.24377702px" class="alpha"/><path d="M259.602 502.182c-.307 1.384-6.359 4.963-8.053 5.36-1.695.399-4.28-.865-4.479-4.589-.135-2.521.439-4.768.768-8.443-1.266-.435-2.28.044-2.236.096-.102 1.68-1.247 4.015-2.257 4.686.568 1.287-.962 6.856-2.941 6.368-.768-.19.366-2.526.456-2.88" style="fill:none;stroke:#2b1100;stroke-width:.24377702px" class="alpha"/><path d="M246.32 479.408s-.883-1.151-1.393-2.114c.76.53 1.908.92 1.908.92l.29-2.165.829 2.208c.561-.073 1.659.119 2.153.06-.42.405-1.324 1.256-1.665 1.48l1.423 2.669-2.434-2.08-1.534 1.343z" style="fill:none;stroke:#2b1100;stroke-width:.24377702;stroke-miterlimit:5;stroke-dasharray:none" class="alpha"/><path d="M266.915 450.988s-1.355-.54-2.14-.45c-.566.066-3.316-.24-3.597.002-.28.241-.66.737-1.121 1.108-.461.37-.865.532-1.424.72-.558.189-.009.6-.45 1.1-.44.5-1.396 1.662-2.53 2.636-1.136.973-2.147 2.602-2.731 3.919-.585 1.316-2.107 3.03-2.688 3.596-.58.567-2.517 2.474-2.957 2.79-.605.434-.557-.574-.984-.187-.438.396-1.058-.143-1.365-.405-.307-.261-.946-.81-1.11-1.355-.165-.545-1.641-2.047-2.07-2.792-.43-.746-.934-2.341-1.173-3.007-.24-.666-.73-2.92-1.504-2.707-.774.214.526 7.232.827 7.708a76.106 76.106 0 0 1 1.096 1.877m-1.38-1.357c.294.63.488.965.923 1.41.435.445-.335 2.216.196 3.398.53 1.182.583 2.198.228 3.13" style="fill:none;stroke:#2b1100;stroke-width:.24377702px" class="alpha"/><path d="M261.066 450.744c.91.196.877 2.161.94 4.768.061 2.606 2.472 5.248.559 8.792" style="fill:none;stroke:#2b1100;stroke-width:.24377702px" class="alpha"/><path d="M262.46 463.024c.109-3.052-.495-11.496-2.023-11.652" style="fill:none;stroke:#2b1100;stroke-width:.52548683" class="alpha"/><path d="M239.405 455.923s.232-.515-.142-.523c.071-.14.013-.253-.229-.295.099-.07.321-.251-.192-.301" style="fill:none;stroke:#2b1100;stroke-width:.24377702px" class="alpha"/><path d="M224.651 521.375c.675-.858 2.08-2.574 2.899-2.37.82.205 1.075.352 1.734.432.66.08 8.685 2.28 9.86 2.968-2.172-.33-2.93-.313-3.317-.274-.387.038-1.156-.182-1.358-.397-.202-.214-.912-.228-1.874-.433-.962-.205-4.89-1.25-5.252-1.351-.363-.1-.682-.026-.751-.055-.07-.028-.213-.035-.384.113-.172.148-.454.321-.56.347-.105.025-.311.152-.996 1.02z" style="fill:#520;stroke:none;stroke-width:.24377702px" class="alpha"/><path d="M242.19 496.627c-.197-.928-.32-2.149.167-3.758.486-1.609 1.648-4.594 1.607-5.396.23.881-.325 1.845-.325 1.845-.267 2.086-.015 4.016.218 4.777-.377.311-1.02 2.692-.351 3.619-.722-.82-.507-.505-.88-.399.175-.797-.164-2.429-.624-1.296z" style="fill:none;stroke:#2b1100;stroke-width:.24377702px" class="alpha"/><path d="M243.357 486.508s.987.02 1.468-.132c-.413-.224-.352-.458-.416-.7.428-.175.867-.249 1.047-.662l-1.11.035 1.332-.98-.953-.152.076-1.005-.887-.252.537-.797-1.56-1.031 1.384-1.196-.684-1.912 1.172.783-1.337-3.406 2.48 1.756-1.809-3.517s.985.794 1.89 1.268c-.553-.686-1.101-2.293.42-3.138 1.114.57 1.787 1.624 1.341 3.096l2.975.346-1.574 2.308c2.048.076 3.143-.024 4.296-.113-1.423 1.321-2.85 2.521-4.214 3.682l3.22-.87-1.924 2.255 1.714.048-1.457.743.661.745-.491 2.866s1.197 1.018-1.398 2.827c.75-.257 1.44-.606 1.719-.85.27.834.583 3.226.196 4.783 1.13-1.182 1.778-2.296 1.761-2.445.63.687 1.244 2.067 1.356 2.48.304-.514 3.56-1.903 3.625-2.165-1.302.11-2.514-1.514-1.064-2.751a.971.971 0 0 1 1.352.006s-.551.624-1.475.028c-.746-.553-2.922-3.012-3.95-3.528-1.027-.517-.866.096-1.023.578.976.253 1.287-.004 1.053-.537-.234-.532-.563-.953.173-.926.735.027.92.007 1.079-.579.158-.585.493-1.493.493-1.493l-.606-1.357.974.16-1.394-.841 1.1-.33-.678-.353.539-.103-.01-1.628.554 2.239 5.512.209-5.459 1.964-.682 2.414c.143.604 3.544 1.899 3.544 1.899l1.259 1.963-.376 2.55s-.177 5.643-.129 7.82c-.688.635-2.426-.732-2.678-1.51-.174.38-.857 1.465-2.119 1.1 1.59-.343 1.624-1.72.901-2.84-.062.769-2.171 1.567-3.283 2.248.268-.533 1.677-2.901 1.527-5.25-.515 1.235-3.125 2.706-4.037 2.656.377-.282.962-.889 1.193-1.577.231-.689-.08-1.972-.346-3.462-.532.326-1.435.992-2.472 1.023 3.796-4.14 2.832-5.624 1.822-6.48-.422.07-.682.334-.255 1.063-1.484-.193-1.275-.862-1.167-1.197.108-.335-.157-1.046-.157-1.046l-.816 1.058-.53-1.014s-.28.435-.284.894c-.003.458.286.675-.32 1.095-.606.42-1.23 4.249 1.005 5.743-1.196.072-1.835-.155-2.344-.844-.334 2.265-.467 4.023.465 4.782-.809.323-1.12-.377-1.12-.377-.257 1.282.336 2.598.578 3m17.032-41.444c-1.607.966-1.461 1.617-1.962 2.342-.494.714-4.573 5.028-7.756 6.802 2.691-1.884 6.083-5.43 6.94-6.758.666-1.028.922-2.294 2.696-3.05zm.967 18.148.366-2.736.321-.699-.33-.09.99-2.934-4.79-.027 4.366-1.876.995-3.862.378 3.069" style="fill:none;stroke:#2b1100;stroke-width:.24377702px" class="alpha"/><path d="M245.204 508.284c-1.533.517-2.116-.144-2.325-.44-.209-.298-.727-.965-1.452-.414.806-.913 1.39-.603 1.853.081.463.685 1.06.54 1.924.773zm-23.561 18.126c.83-1.175 2.35-4.219 3.049-4.845.698-.625.99-.366 1.65-.645.66-.278.833.52 1.3.47.468-.05 4.232.774 4.893.786.66.012 3.383 1.726 4.045 2.026.662.3.705.715.474 1.046.13-.484-.46-.853-.919-.99-.458-.14-3.935-1.293-4.093-1.445-.157-.152-1.284-.326-1.531-.324-.247.002-3.82-.603-3.861-.908-.04-.304-1.777.163-2.096.406-.32.244-1.417 2.37-1.917 3.05-.5.68-.994 1.373-.994 1.373z" style="fill:#520;stroke:none;stroke-width:.24377702px" class="alpha"/><path d="M239.552 504.608c.441-.63.82-1.268 1.314-1.813.494-.545 1.038-.755 1.31-1.009.272-.253.376-1.31.606-1.848.23-.537-.2-1.87-.037-2.648" style="fill:none;stroke:#2b1100;stroke-width:.24377702px" class="alpha"/><path d="M245.353 509.316c-1.07.077-1.92-.361-2.548-.488-.63-.127-1.654-1.006-2.356-.73.52.135 1.01.674 1.312.998.302.323 1.243.525 1.642.486.399-.04.958-.085 1.95-.266z" style="fill:#520;stroke:none;stroke-width:.24377702px" class="alpha"/><path d="M260.502 494.897c.11-1.767-.535-6.613-.468-6.84l.596-1.98m-.405 16.766c-1.387 1.313-6.153 4.59-9.08 5.418-1.483.419-3.202-.524-4.466-2.141m14.605-53.131s-.462.346-.734.657c-.762-.475-1.848.253-1.842 2.773-.253.156-.643.537-.643.537l.253 1.61s-.717-.354-1.375-.997c.91 2.489-4.398 6.212-5.806 7.234-1.407 1.022-1.606 1.488-1.428 1.756-1.918 1.098-1.805 3.798-.003 3.818l-.157.586c-.886.495-1.275 1.816-.564 2.495.71.68 1.062.356 1.83.212.525.949 2.03 1.154 2.557 1.113-.653 1.193.119 1.595.628.016.747-.254 6.403-.738 6.75-1.043-.078.79.36.273.492-.51.428-.246.543-1.226.543-1.226l-.578-.022.361-.804.555.072c.396-1 .464-2.325.464-2.325s-5.992 1.798-6.13 2.052c-.138.252-.918 1.376-1.023 1.584-.105.21-1.275.113-1.143-.149.131-.261 1.922-3.486 1.922-3.486m-17.217-12.438s.215.324.29.551c.444.034.08 1.177-.217 2.2.087.142.823.204.823.204l-.208.921s-.182.136.335-.254c-.153 1.418.492 2.824 1.715 3.732.854.634.873 1.35.644 1.643 1.43.653 2.455 2.564 1.161 2.791l.112.507c1.196.038 1.18 1.215.791 2-.39.784-.736 1.524-.944 1.601.099 1.2-.331 1.327-.617 1.425.07 1.086-.666 1.7-.403.181-.431-.074-.392-.49-.562-.716-.535.815-.66.386-.187-.402-.337-.141.18-1.143.18-1.143l.531-.183-.12-.76-.483.227c-.144-.975-.495-2.33-.495-2.33s1.114 1.54 1.183 1.774c.07.233.325 1.225.333 1.417.008.193.466-.238.424-.482-.04-.243-.864-3.1-.864-3.1m17.589 19.756c.046-.797.226-1.825.072-1.924-.154-.099-.11-.238.01-.611s.065-1.036.065-1.036 0-1.469.102-1.75m-14.736 30.693c-.985.696-.454 1.114-.802 1.267-.348.153-.796.436-1.377 1.22-.725-.115-1.35-.213-1.934-.538-.583-.325.445-1.363.818-1.243.373.12.212.68-.402.856 1.408.462 1.577-.881 1.308-1.158-.268-.276-.941-.437-1.586-.006-.644.432-.86 1.047-.429 1.668-.472-.26-1.256-.736-2.393-.897.009.22.533 1.307 1.656 1.32-.731.289-1.09 1.24-.427 1.496.665.257 1.302.181 1.783-.148.48-.328.255-.723-.129-.864-.552-.09-.938.193-.75.444.181-.047.37-.042.375.039.013.177-.331.556-.942.107-.61-.449.563-.896.829-1.006.266-.11 1.918.269 1.918.269-.638 1.174-.122 1.77-1.152 2.662-.802.695-3.461 1.506-4.854 1.662-1.393.157-1.585.724.868.914 2.453.191.509.565-.368.933-.876.37-2.474.65-2.604.954-.129.304 1.81.943 4.316.072-1.163.26-2.351.182-2.371-.108-.02-.29.367-.224 1.53-.514 1.163-.29 3.882-1.02 3.049-1.31-.833-.292-1.89-.25-2.41-.242-.519.007-1.27-.178.325-.515 1.594-.336 4.346-1.48 4.654-2.493-3.22-3.233.274-1.794.816-2.222.541-.427.896-.705.812-1.158-.084-.452-.09-.567.09-.664" style="fill:none;stroke:#2b1100;stroke-width:.24377702px" class="alpha"/><path d="M233.709 512.32c-.166.428-.718.685-.871.958-.083.148-.272.418-.77.946.306-.084.427.055 1.067-.213.64-.268 1.403-1.166 1.076-1.057-.327.108-.79.533-.68.683-1.211.388.098-.65.478-.86.38-.208.943-.39.921-.095-.022.294-.687.814-1.656 1.406.807-.403 1.147-.112 2.152-.02-1.056.178-2.029.583-2.384.303-.038.46-.1 1.26-.753 1.526-.654.266-.806-.076-.652-.448.084-.202.214-.459.482-.512.254-.05.58.056.23.285-.024-.077-.104-.102-.19-.023-.186.172-.501.635.264.26.766-.374.196-.823.233-.935.037-.111-.794-.07-.794-.07-.847.807-1.127.976-1.77 1.692-.503.558-1.135 1.567-1.27 1.972-.136.405-.607.86-.876.67-.269-.19-.826.394-1.145.836-.319.441-.412.826-.744 1.103-.333.276-1.383.753-.498-.262-.247.33-.055.347.284.08.339-.267.216-.237.458-.618.242-.38 1.153-1.328 1.478-1.531.324-.202.332-.047.343.028.011.075.228-.014.484-.52.257-.506.979-1.58 1.71-2.283.73-.702.94-.952 1.256-1.285.28-.295.447-.528.594-.706a3.09 3.09 0 0 1 .448-.44c.192-.14.408-.38.448-.508.036-.118.575-.605.872-.868.768-.68 1.084-1.067 1.066-1.147.177-.185.801-.806.801-.806.174.081-.1.566-.65 1.094-.55.527-1.015.968-1.442 1.365z" style="fill:none;stroke:#2b1100;stroke-width:.23256457px" class="alpha"/><path d="M239.263 455.988c-.409.767.16 1.022.309 1.406.149.384.336.69.439 1.166.17.791.432 1.475.763 2.284.332.809-.018 1.56.48 2.12.244.273 2.401 1.178 1.805 1.494.372.147.717.682 1.005.91-.272.336-.063.843.82 1.262-.078 1.05 1.493 1.247 1.739.17.917-.147 1.299.843 1.11.423.345-.22.86-.506 1.332-.655-.983-.242 1.374-2.326 2.064-2.756.69-.431 1.48-1.487 2.29-2.961.811-1.475 1.445-3.136 2.095-3.752.65-.615 1.82-1.772 2.348-2.319.528-.546.614-1.058.943-2.055" style="fill:none;stroke:#2b1100;stroke-width:.24377702px" class="alpha"/><path d="M265.543 461.046c.393-3.695.258-8.485-.785-10.455" style="fill:none;stroke:#2b1100;stroke-width:.52548683" class="alpha"/><path d="M265.272 451.748c.466-.15 1.178-.12 1.671-.03" style="fill:none;stroke:#2b1100;stroke-width:.24377702px" class="alpha"/></symbol><symbol id="iflip-flops_1_of_2" viewBox="210 442 120 120"><path class="alpha" d="M305.46 523.553c-.03-1.371-4.96-6.446-9.422-6.446.495-1.24 1.24-2.728 1.24-2.728 2.742.454 6.95 2.655 9.173 6.447 2.144-3.777 6.446-6.447 11.9-6.694.249.524.802 1.749.978 2.231-6.053-.194-11.12 3.884-11.426 7.346-.105 1.179-.803 1.402-1.004 1.993-.518-.617-1.41-.814-1.44-2.149zm-68.875 1.72c.78-2.97 4.456-6.069 9.057-5.01 3.66.842 5.26 2.445 7.735-1.04-1.33.494-3.887-.813-7.561-1.518-3.15-.604-6.994.933-9.281 4.771.862-3.432-3.415-5.891-6.261-5.85-.502.417-1.526 1.46-1.955 1.87 4.169-.411 7.544 2.818 6.91 5.774-.25 1.157-.449 1.792-.248 1.874.562-.28.971-.643 1.604-.871z" style="fill:#0cf;stroke:none"/></symbol><symbol id="iflip-flops_2_of_2" viewBox="210 442 120 120"><path class="alpha" d="M298.473 516.388c-1.432 3.73-2.728 7.959-2.728 9.553v2.897c0 1.304 4.102 4.652 11.856 4.527 7.965-.128 13.185-4.636 13.185-5.795v-3.068c0-1.449-3.504-8.216-5.361-11.156-1.739-2.753-3.623-4.347-8.983-4.347-5.217 0-6.528 3.636-7.97 7.39z" id="path4269" style="fill:#0cf;stroke:#08a;stroke-width:.5"/><path class="alpha" d="M254.902 513.487c3.278.205 4.712 1.434 4.712 1.434v3.074c0 2.798-7.965 4.542-8.426 6.232-2.006 7.366-9.382 10.304-19.461 9.98-4.74-.153-7.91-2.65-7.91-4.098 0-1.046-.06-2.666-.06-3.713 0-1.845 1.229-5.738 9.015-6.557 7.786-.82 3.893-7.172 22.13-6.352z" id="path4248" style="fill:#0cf;stroke:#08a;stroke-width:.5"/><path class="alpha" d="M259.614 514.921c0 2.798-7.965 4.543-8.426 6.232-2.006 7.367-9.382 10.304-19.461 9.98-4.74-.152-7.91-2.649-7.91-4.098" id="path4248-9" style="fill:none;stroke:#08a;stroke-width:.5"/><path class="beta" d="M259.614 516.37c0 2.798-7.965 4.543-8.426 6.232-2.006 7.367-9.382 10.304-19.461 9.98-4.74-.152-7.91-2.649-7.91-4.098" id="path4248-9-8" style="fill:none;stroke:#d5f6ff;stroke-width:.5"/><path class="alpha" d="M295.745 525.506c0 1.304 4.102 4.652 11.856 4.527 7.965-.129 13.185-4.637 13.185-5.796" id="path4269-8" style="fill:none;stroke:#08a;stroke-width:.5"/><path class="beta" d="M295.745 526.955c0 1.304 4.102 4.652 11.856 4.527 7.965-.129 13.185-4.637 13.185-5.796" id="path4269-8-4" style="fill:none;stroke:#d5f6ff;stroke-width:.5"/></symbol><symbol id="ihightops" viewBox="210 442 120 120"><path class="alpha" d="M254 495.2c-5.4-7.5-11.6-2.3-11.4-.2.5 6.7-3.5 13.7-6.4 16-3 2.2-7.7 7.6-10.5 9.2-2.8 1.6-2.8 8.8 4 10 7 1.2 16.2-1.6 18.2-5.2 2-3.7 1.2-8 5.6-7.7 4.4.4 6-3.2 5-8.5-.3-1.6-1.3-4-.5-5.7 1.8-3.5 1-5 1.3-5 1.5-2.4.5-2.8-.5-3-1 2.6-2.6.3-4.8.2z" style="fill:#333;stroke:#000;stroke-width:.5;stroke-dasharray:none"/><path class="gamma" d="M224 522c1.8-3.2 6.4-4 11-3.7 5.2.3 7.6 3 8 5-3.7 3.7-20.8 2.8-19-1.4z" style="fill:#ececec;stroke:#b3b3b3;stroke-width:.5"/><path class="gamma" d="M259 510.6c-.6 4.3-8 6-10 9-2 2.8-11.8 6.6-18.5 5.5-6.7-1-7-2-6.2-3.6-1.4 0-1 4.8-.8 5.8.5 2 2 4.4 8 4.4 8.5 0 16.3-2.2 18-6.2 1-2.4 2-5 2.8-5.6 1.4-1 6.7-3.2 6.8-4.8 0-1 .6-4 0-4.4z" style="fill:#e6e6e6;stroke:#b3b3b3;stroke-width:.5;stroke-dasharray:none"/><path class="delta" d="M245.8 516a1.3.5 26.6 1 1-2.4-1 1.3.5 26.6 1 1 2.4 1zm2.8-2.8a1.3.5 25.3 1 1-2.4-1.2 1.3.5 25.3 1 1 2.4 1.2zm2.7-3.5a1.3.5 17.5 1 1-2.5-.8 1.3.5 17.5 1 1 2.5.7zm2-3.4a1.3.7 13.6 1 1-2.6-.7 1.3.7 13.6 1 1 2.6.7z" style="fill:#e6e6e6;stroke:#f9f9f9;stroke-width:.5"/><path class="beta" d="M245 516c-3.7-2-9.8-2-13.3-.5 3.8-2.6 9.3-5 16-2.6m2.3-3.5c-3.3-2-10.5-.6-13 1m15.6-4.6c-3.5-.8-10-.8-13.5 2" style="fill:none;stroke:#000;stroke-width:1"/><path class="beta" d="M242.6 513.7c-2.6-1.5-5-2-6.5-2.4m9.7-.3c-2.2-1.3-4.8-1.6-7.5-1.6m9.7-1.9c-2-.8-5.7-3.2-7-3.3" style="fill:none;stroke:#000;stroke-width:1"/><path class="gamma" d="M248.3 524c-5.8 6-25 6.7-25 .5" style="fill:none;stroke:#b5b5b5;stroke-width:.5"/><path class="alpha" d="M244 522.6c-2-3-3.3-6-2-8 1.6-2.4 6.7-8 8.4-10.3 1.7-2.4 2-7.8 3-8 1-.2 3.5 2.7 6.6.5" style="fill:none;stroke:#ececec;stroke-width:.25;stroke-dasharray:.74315912,.37157956"/><path class="alpha" d="M244 522.6c.3-4.5 4.3-6 7.4-10.7 2.5-4 4-8.3 4.6-14.3" style="fill:none;stroke:#ececec;stroke-width:.25;stroke-dasharray:.77233072,.38616536"/><path class="gamma" d="M258 507.8c-.4 2.6-1.3 3.8-1.6 2-.2-.6 0-1.8 0-3 .7-2.6 1.6-3.8 2-2 0 .6 0 1.8-.3 3z" style="fill:#ececec;fill-rule:nonzero;stroke:#ccc;stroke-width:.5"/><path class="alpha" d="M259.2 512.8c-1 4-8 4-9.6 8.8-.2.8-.7 1.6-1.3 2.3" style="fill:none;stroke:#000;stroke-width:.5"/><path class="alpha" d="M298.4 502.2c1.4 2.6.3 11.4-1.7 15-2 3.3-2.6 12.7 8.6 12.7 11 0 17-5 14.8-10.4-2.2-5.4-6.8-12.2-5.3-16 .3-1 1.8-5.3 1.3-6.2-.4-1-1.4-.5-2.7-1-1-2.2-10.8-2.3-12.3.7-1.6.4-2.7-.6-3.7-.2-2.3 1 .4 4.8 1 5.4z" style="fill:#333;stroke:#000;stroke-width:1px"/><path class="alpha" d="M296.3 521.6c1.7-3.8 9.6-4.7 8-7-1.3-2 .4-6.8-1.2-9.2-1.6-2.4-1.7-6.7-2.7-7-1 0-2.4.4-4-.5m22.3 23.1c-2-3-7.8-3.3-6.3-5.5s-4.4-6.5-2.8-9c1.7-2.3 2.7-8 3.6-8 1-.3 1.7.5 3.2.2" style="fill:none;stroke:#ececec;stroke-width:.25;stroke-dasharray:.74315912,.37157956"/><path class="delta" d="M299.6 511.3c0 .4 1.3.3 2-.2.5 0 .6-.3.6-.5 0-.4-1.3-.3-2 .2-.4.2-.6.4-.6.6zm.4 2.3c.2.4 1.3 0 2-.4.4-.3.5-.5.5-.7-.2-.4-1.3 0-2 .4-.4.2-.5.5-.5.6z" style="fill:#e6e6e6;stroke:#f9f9f9;stroke-width:.5"/><path class="gamma" d="M319 522c-5.6-3.4-7-3.7-13.3-3.7-6.3 0-8.7 2.8-9.4 5 4.4 4.3 18.4 9.6 22.7-1.3z" style="fill:#ececec;stroke:#ccc;stroke-width:.5"/><path class="delt0a" d="M316.3 516.6a1.3.5 26.6 1 1-2.4-1.2 1.3.5 26.6 1 1 2.3 1.2z" style="fill:#e6e6e6;stroke:#f9f9f9;stroke-width:.5"/><path class="delta" d="M315.3 513.6a1.3.5 25.3 1 1-2.5-1 1.3.5 25.3 1 1 2.5 1zm-.6-2.3a1.3.5 17.5 1 1-2.5-.8 1.3.5 17.5 1 1 2.5.8zm-2.2-3a1.3.7 13.6 1 1-2.6-.7 1.3.7 13.6 1 1 2.5.7zm-11.9 7.7c0 .5 1.2.2 2-.4.3-.2.4-.5.4-.7-.2-.4-1.3 0-2 .4-.4.3-.5.6-.4.7zm-.2-7.7c0 .5 1.3.6 2 0 .5 0 .7-.4.6-.7 0-.5-1.3-.6-2 0-.5 0-.7.4-.6.7z" style="fill:#e6e6e6;stroke:#f9f9f9;stroke-width:.5"/><path class="beta" d="M315.2 516.3c-6-2-12.3-2-14-.5.7-2.6 3.2-5 13-2.6m-1-2.2c-5.7-2-12-2-12.7-.3" style="fill:none;stroke:#000;stroke-width:1"/><path class="beta" d="M312 514.5c-4.4-1.4-8.6-2.5-11.4-1.4m10.2-.9c-3.7-1.4-7.5-1.4-10.2-1.4m11-3.1c-2.8-.8-9.4-3.2-11-3.3" style="fill:none;stroke:#000;stroke-width:1"/><path class="beta" d="M311.5 505c-4.7.2-9 1.8-10.7 2.8" style="fill:none;stroke:#000;stroke-width:1"/><path class="gamma" d="M320 518.4c-.5 5.3-7.6 5.6-14.4 5.6-7 0-10-2-10.2-3.7-.8 1.6-.4 4-.4 6s4.5 4 8 4.4c14 1.3 18.3-3.3 18-6.6 0-2.6.5-4.3-1-5.6z" style="fill:#ececec;stroke:#b3b3b3;stroke-width:.5;stroke-dasharray:none"/><path class="gamma" d="M321 522c0 7.3-25 7-26 1.8" style="fill:none;stroke:#b3b3b3;stroke-width:.5"/><path class="alpha" d="M318.7 521c.3-4.3-1.6-3.7-3-9-.7-2-2.5-4.8-2.2-7 .3-2 1-3.7 1.8-6.2M296.7 521c2.2-4 3-3.7 2.4-9.3-.3-4.3 1.2-5.2.5-7.2-.8-2-1.6-4-1.3-6" style="fill:none;stroke:#ececec;stroke-width:.25;stroke-dasharray:.77233072,.38616536"/></symbol><symbol id="ileather" viewBox="210 442 120 120"><g id="shoes_leather_left"><path class="alpha" d="M297.7 506c.6 1.6-1 5-1 5.6 0 .7-2.2.6-1.2 4 .3.8-2-.6-.5 4 .4 1.7-2 7.8-.5 11.4 1.7 4.3 7.4 4.8 11.7 5 7.7 0 10.5.4 14.5-5.5 1-1.4.8-7.5-.4-10.6-1-2.4-2.2-6-3.8-11.8-3-12.3-18.6-13.6-18.8-2.2z" style="fill:#000;stroke:#000;stroke-width:.25"/><path class="alpha--light" d="M295.8 515.8h-.3c0 .3-1.8-.4-.5 3.8.4 1.7-1 7.5-.5 11.4 0 .4.2.7.5 1-.4-2.4 0-5.7 0-7 1.2 3 1.8 3.3 3.5 3.5-2.2-2.7-3.4-3.7-3.3-5.7.6 2 2.3 2.5 3.4 2.4-.3-1.2-1.7-4-2.5-4.8-.7-1-.5-4 1-4.5-.4-.2-.8-.3-1.2-.2zm10.8-14.8c-1 .2-2 .4-3.3 1 2.2 0 4.5 1 6.7 1.2-3.8.5-6.7 0-8.3-.4 3 2.2 5 4 10.5 4.4-3.3 1.2-7.5 1.6-9 1 3 3.8 3.4 4.2 5.8 4 2.4 0 4.3-1.6 6 1.4 1.7 3 3.4 11.3-11.4 11.2 4.2 1.4 9.5 1.3 11.3.7-2.5 2.5-5.4 3.5-9.8 3.5 8.5.5 16.8-2.3 14.8-10.7-1-2.7-2.6-6.3-3.5-10 0-.7-.4-1.4-1-2 .2 1 0 1.3-1.2 0-2-2.2-3.6-5.3-7.7-5.2z" style="fill:#e6e6e6;stroke:#000;stroke-width:.25"/><path class="alpha--light" d="M296.5 517c-1.8 2.5-.6 8.5 7.3 6.2-4.6-1-5.8-1.2-7.3-6.2zm.5-5.4h-.2c0 .7-2 .5-1.5 3.7 1-.7 2.3-.7 3.4 0-.6-1.2-.7-1.4-2.2-1.8 1-1 3.3.6 4 .8-1.4-2-2-2.7-3.5-2.7z" style="fill:#e6e6e6;stroke:#000;stroke-width:.25"/></g><g id="shoes_leather_right"><path class="alpha" d="M240.8 503.6c-1.7 2.3-4.4 6.4-5.2 7l-5.5 4.7c-1 1-4.3 1.6-5.3 3.4-1 1.8-1 2.6-1.4 3.3-.2.6.6 1.5 0 2.2-1 .7-.4 2.5-.4 3.4 0 1 2.7 3.8 5.2 5 2.8 1.2 6.5.6 7.5.5 7.7-1 11-4 12.2-5 .8-.4 1.4-5.3 2.7-7 .8.5 2 1.7 3 2 1.8-1 5-3.7 6.4-7.4.6-1.4-.4-4.5-.6-5.8-.3-1.4-.6-6-1-7.5-.4-.6-5 4-8.7 3.6-4-.5-7.2-5.8-9-2.4z" style="fill:#000;stroke:#000;stroke-width:.25"/><path class="alpha--light" d="M239.6 506c-1.5 2.2-3 4.7-4 4.7s-4 2.7-5 3.6c-1.3 1-4.5 1.5-5.5 3.4-1 1.7-1.4 3.4-1.6 4 1 2 1.7 2.5 2.8 3.2 1.2.7 1.4 3.4 0 3.2 2.2 1.5 4.4 1.4 4.3.5 0-1-2.6-3-4.2-4.3-1.6-1.2-2-3.2-1.7-4.4.4-1.2 3 2.6 3.4 4.4.2 1.7 1.3 2.3 2 .5.8-2 7 0 9.5-2 2.4-2 3-3 2-4-1.2-.6-2 .6-4 2-2 1.3-6.4 1.6-7.3.7 2.8-.3 6.3-1 7.7-2 1.3-1 2.7-2.8 4.3-1 1.7 2 6.3.6 6-2-.3-2.8-1-3.6-3-2 1.5-.7 2 1.4.7 2-1.4.6-3.5.8-3.4-1.5-2 1.2-5 4-8 4.2 3.8-2 6-3 6-4.2 0-1-2.2-1.5-2.8-1.3-.5 0-.4.6-1.4.6-1 0 0-1 .4-1.5.5-.3 1-.5 2.2 0 1.2.4 2-.8 2.4-1.8.4-1 .4-3.7-2.2-3.6 0-.5.2-1 .4-1.6zm-14.4 12c2 1.4 4.3 2 5.3 2.3-2.3 1-4.5.2-5.3-2.2zm-2 4c0 .6.7 1.5 0 2.2-.6.6-.2 2-.3 3 .5-2 .4-3 1.2-1.3l-.3-1.5c.5 1 1 1 1.3 1-1.3-1-1.8-2.3-2-3.6zm1 4s0 .3.2.4c0 0 0-.3-.2-.5z" style="fill:#e6e6e6;stroke:#000;stroke-width:.25"/></g></symbol><symbol id="iloafers" viewBox="210 442 120 120"><path class="beta--dark" style="fill:#0b0b0e" d="m252.757 524.412-3.47-1.396c-.475-2.955 3.405-2.907 3.405-2.907z"/><path style="fill:#272421;stroke:#141312;stroke-width:.25px" d="M259.35 520.975c-.088 1.27-.709 1.59-1.953 2.106-1.244.517-4.67 1.344-4.67 1.344l-.169-4.183c-3.203 1.333-2.591 2.898-2.196 3.885.162 1.453-.335 2.566-.368 3.112-.343.39-4.282 3.606-10.188 4.856-8.616 1.823-13.318 1.15-14.436 1.044-1.118-.107-3.626-.666-3.999-.702-.373-.035-.945-.275-.993-.947-.049-.673.137-1.52.188-1.676.05-.156.228-.25.68-.826.453-.576 36.88-13.152 37.3-13.201.42-.05.814-.126.82.7.008.8.053 3.486-.016 4.488z" class="beta"/><path style="fill:#59564d" d="M258.546 515.787c-.42.05-36.847 12.625-37.3 13.2a7.51 7.51 0 0 1-.373.442c-.006.042-.014.086-.018.128a.455.455 0 0 0-.13.034.712.712 0 0 0-.15.207c.024.206.42.504 1.647.742 2.002.387 6.476.788 9.429.722 7.352-.165 14.814-3.052 17.381-4.612 1.972-1.198 1.389-2.359 1.057-3.017-.333-.659-1.729-1.911.256-2.8 1.985-.887 7.15-3.118 8.072-3.462.639-.239.934-.472.97-.87l-.025-.18c-.098-.656-.396-.583-.816-.534z" class="beta--light"/><path style="fill:#8b5d4d;stroke:#2f201d;stroke-width:.25px" d="M247.974 512.878c-1.649 1.547-2.622.431-2.897-.82-.275-1.25-.705-2.935-.963-3.961-.26-1.026-1.101-2.442-3.422-2.118-2.321.324-4.707 4.042-5.071 4.984-.364.942-1.577 2.082-2.624 3.099-.724.702-7.707 6.815-9.396 8.2-1.69 1.385-2.955 4.381-3.069 5.372-.114.99.39 1.99 1.892 2.282 1.501.29 8.45.888 10.965.633 8.747-.886 14.795-3.673 16.238-5.262 1.046-1.152.577-3.04 1.122-4.167.576-1.191 1.802-1.953 3.25-2.599 1.34-.597 2.525-.842 3.956-1.801 1.43-.96 1.406-2.737 1.266-5.423-.14-2.685-.221-7.178-.288-7.72-.067-.541-.284-1.77-.958-1.699-.19.667-.106 2.36-1.215 3.717-1.11 1.357-2.274 2.708-4.03 3.868-1.757 1.16-3.687 2.411-4.756 3.415z" class="alpha"/><path style="fill:#d6c0b3" d="M257.975 501.879c-.002 1.207-.113 2.503-1.222 3.86-1.11 1.357-2.267 2.564-4.024 3.724-1.756 1.16-3.686 2.411-4.755 3.415-1.649 1.547-2.622.431-2.897-.82-.275-1.25-.705-2.935-.963-3.961-.26-1.026-1.101-2.442-3.423-2.118-.888.124-1.784.746-2.574 1.518.78-.56 2.143-.936 2.801-.94.74-.004 2.375.423 2.666 1.897.291 1.475.769 3.833 1.033 4.934.177.737 1.09 1.409 1.623 1.371.45-.032.993-.25 1.63-.741 1.93-1.486 4.9-3.962 7.359-5.99 1.351-1.116 2.333-1.999 3.01-3.497.339-.636.32-1.226.15-1.638-.293-.4-.119-1.046-.414-1.014z" class="alpha--light"/><path style="fill:#2f201d" d="M241.44 506.541c.769.181 1.155 1.06.057.784-1.098-.278-3.629.52-5.26 3.325 1.265-.398 2.307-.904 4.61-.361-1.176.126-2.023.348-4.078 1.752 1.372-.41 3.852-.413 5.21.495-.855.091-4.462-.575-6.177 1.056.642-.07 1.497-.148 2.15-.099 1.083.082 2.353.227 4.285 1.12 1.617.748 2.442-.525 2.162-1.416-.28-.89-.238-1.816-.584-3.62-.345-1.806-.178-2.482-2.374-3.036zm17.417.7c-.263.093-.652.694-.946 1.474.179-.349.413-.703.554-.59.14.112.178.238.152.707-.218.223-.702.603-2.101.822.172.075.806.233 1.289.065.124.223.261.738-.463 1.595.262-.09.49-.284.834-.545-.003.104-.003.22-.022.385-.42 1.02-.89 1.985-1.637 2.514.265-.74.518-1.872.436-2.408-.428.88-1.209 1.75-1.764 3.218-.854.516-1.687 1.257-2.959 1.893.606-.858 1.108-2.192 1.123-3.71-.173.355-1.275 3.09-2.7 4.508-1.494.767-.937.485-2.303 1.307-3.519 2.119-1.926 3.773-5.11 5.106-.957.645-2.76 1.59-3.532 1.864.327-.463.67-.884.984-1.25-3.939.864-8.94 2.003-11.357 2.047-1.186.279-2.594.933-2.43 1.643-.687-.53-.41-1.445.378-1.622 0 0-.556-.313-1.614.87-.105-.238-.56-.712-.79-1.211-.897.777-2.011 1.503-2.202 1.572.36-1.063 1.262-1.876 2.024-2.585-1.092.311-2.023 1.177-2.595 1.838-.345.203-.654.412-.913.6.045-.443.134-.946.345-1.442-.255.192-.71 1.173-.863 1.84l-.13.109c-.061.121.103.607.443 1.325.307.342.774.608 1.435.736 1.502.29 8.46.976 10.966.633 5.586-.454 14.19-3.118 16.238-5.263.091-.172.148-.345.177-.518a2.186 2.186 0 0 0-.069-.007c.225-1.007-.845-3.65-1.264-4.049.443.108 1.207.633 1.761 1.09-.072-.115-.145-.23-.21-.342a219.125 219.125 0 0 0-1.6-1.611c.392.21.918.636 1.306.974a.907.907 0 0 1-.028-.204c-.55-.716-1.875-.938-1.875-.938s1.51.132 1.94.623c.286-.608.237-.718 1.457-.849 1.653-.177 5.302-1.777 6.732-2.736 1.43-.959 1.407-2.736 1.267-5.422-.066-1.257.069-2.762.221-4.087-.009-.01-.017-.024-.026-.034-.085.529-.246 1.115-.443 1.728.073-1.012.075-1.732-.117-1.664zm-26 8.865c.005.011.007.023.013.035.002-.018 0-.031-.014-.035zm.013.035c-.04.339-2.792 3.132-4.932 4.372-2.253 1.305-2.236 2.141-1.62 2.78-.104-.28-.21-.987.71-1.61.92-.623 2.426-1.348 3.594-2.394 1.152-1.031 2.632-2.377 2.248-3.148zm5.102-.476c.752.124-.1 2.168.776 2.598.877.43-.607 1.8-1.395 1.156-.375.19-.899.676-.934.955-.035.278.062.876.941.676 1.17-.983 3.532-3.27 3.7-3.223.166.047 1.084-.596-.368-.9.13-.285-.6-.637-.376-.53-.712-.91-.575-.998-2.344-.732zm1.322-.501c1.03.262 1.594 1.225 1.3 1.629.22-.117.734-.381.793-.62.06-.24-1.45-1.078-2.093-1.009zm3.81.229a.379.379 0 0 0-.262.142c-.298.36-.64.858-1.086.643.082.386.768.18 1.07-.115.303-.295.598.068.938.295.34.226.25 1.223-.358 1.024-.607-.198-.331.275-.95.479.765-.055.021-.28.356-.12.335.162.65.425 1.293.356-.086.305-.69.896-1.226.197.033.457.435.808.742.578.307-.23.652.062 1.108.408.456.346 1.677.084 1.825-.853-1.1.447-1.005-.622-1.105-1.132-.128-.644-.817-1.228-1.348-1.5-.32-.163-.7-.431-.997-.402zm-.633 2.619c-.298.034-.836.316-1.37.78-.64.558-4.779 3.82-6.592 4.802-1.237.67-8.666 1.186-9.244-.452.148.8 1.274 1.814 5.242 1.55 1.58-.104 3.38-.28 4.15-.637 1.411-.655 6.625-4.887 7.084-5.298.205-.183.284-.694.73-.745zm-7.484 2.969c-.711.436-3.28.991-3.86 1.04 1.196.376 1.402 1.017 1.538 1.594 0 0 .857-.032 1.36-.294.503-.261 2.699-1.64 2.699-1.64-1.165.175-1.688-.023-1.737-.7z" class="alpha--dark"/><path style="fill:none;stroke:#2f201d;stroke-width:.25px" d="M241.734 515.694c-.535-.548-2.32-1.52-4.115-1.56-1.794-.04-2.942-.104-4.4.843"/><path style="fill:#2f201d" d="M249.61 515.567c-.14.311-2.333 2.42-3.11 2.866-.216-.01-.864-.401-.506-1.426.014.196.284.956.657.521.373-.434 2.564-2.215 2.661-2.357z" class="alpha--dark"/><path style="fill:none;stroke:#2f201d;stroke-width:.25px" d="M252.169 512.88c.747-.55 2.985-2.327 3.855-3.002" class="alpha"/><path style="fill:#8b5d4d;stroke:#2f201d;stroke-width:.25px" d="M258.944 504.259c.715.083.778.797.663 1.083.077.533-.76 1.391-1.522 2.131-.371.325-1.085 1.058-1.142 1.268-.137-.155-.744-.237-.744-.237a27.647 27.647 0 0 1 2.174-2.148c.611-.544 1.095-1.233.488-1.33.087-.313.083-.767.083-.767z" class="alpha"/><path style="fill:#2f201d" d="M259.647 505.127c-.137.324-.46.733-.75 1.052-.4.44-1.232 1.207-2.334 2.362 0 .013.002.025.003.038.156.04.315.091.378.162.056-.21.77-.943 1.141-1.267.762-.74 1.6-1.599 1.523-2.132a.716.716 0 0 0 .04-.215zm-13.293 11.643s1.807-1.87 2.133-2.201c.327-.331 1.442-.187 1.172.927-.235-.27-.383-.452-.383-.452h-.62s-1.903 1.651-2.03 1.763c-.126.113-.104.045-.272-.036zm9.901-6.963c-.116-.56-.665-.842-1.013-.043.257-.142.519-.213.762.19.013-.051.25-.147.25-.147z" class="alpha--dark"/><path style="fill:#8b5d4d;stroke:#2f201d;stroke-width:.25px" d="M229.864 516.545c-1.291.604-2.463 1.8-2.956 2.364.05.18.362.263.362.263l-.01.397.214.07-.145.364.216.35.17-.02.231.302.488-.378c.772-.13 1.264-.182 1.561-.283.298-.102.842-.486 1.128-.75" class="alpha"/><path style="fill:#2f201d" d="M229.371 516.807c-1.09.64-2.034 1.61-2.464 2.101.052.181.363.264.363.264l-.01.397.214.07-.145.364.216.349.17-.019.232.302.487-.378c.772-.13 1.264-.182 1.562-.284.297-.101.841-.485 1.127-.748l-.62-1.32c-.225.164-1.966 1.627-2.739 2.052 0 0-.144-.148-.094-.247.128-.083 1.881-1.41 2.247-2.147 0 0-1.746 1.42-2.495 1.872l-.22-.395s1.11-1.282 2.32-2.202c-.053-.013-.1-.02-.15-.031z" class="alpha--dark"/><path style="fill:#8b5d4d;stroke:#2f201d;stroke-width:.25px" d="M229.416 516.686s1.764-1.444 2.45-1.983c.685-.538 1.327-.095 1.584.296.257.39.674 1.416-.357 2.457-1.03 1.04-1.996 1.934-1.996 1.934z" class="alpha"/><path style="fill:#8b5d4d;stroke:#2f201d;stroke-width:.25px" d="M232.46 516.593c-.532.569-1.276 2.416-1.276 2.416l-.37.69.22.396.462-.468.1.873.584.17.066-.147.602-.11-.02-.278.519.317.424-.464.256.391.75-.173.046-.424.405.33.34-.037.408-.695c-.563-.405-.654-1.14-.565-2.033-.47-1.764-2.307-1.334-2.952-.754z" class="alpha"/><path style="fill:#2f201d" d="M234.007 516.142c-.023.005-.036.01-.036.01-.225.838-.906 2.772-1.061 2.998-.272-.064-.752-.385-.87-.442.297-.892 1.05-2.09 1.183-2.36-.211-.023-.533.267-.533.267-.415.858-1.252 2.483-1.298 2.628-.153.145-.365.323-.562.483l.204.369.462-.468.1.873.584.17.066-.147.602-.11-.02-.278.519.317.424-.464.256.391.75-.173.046-.424.405.33.34-.037.408-.695c-.563-.405-.654-1.14-.565-2.033a2.269 2.269 0 0 0-.122-.34c-.076-.083-.142-.163-.226-.25-.116.5-.146 1.41.024 1.927.033.462-.111.57-.111.57l-.223-.185-.152-.519s-.713.425-.857.534c-.064.17-.045.703-.045.703l-.968.056.403-.229.436-1.093.044.344s.524-.66.615-.717c-.175-.586.08-1.288.23-1.839-.213-.186-.381-.181-.452-.167zm-2.418 3.196.566.451-.451.35z" class="alpha--dark"/><path class="alpha" style="fill:#8b5d4d;stroke:#2f201d;stroke-width:.25px" d="m235.252 514.876.394-.88c-.27-.32-.784-.567-.886-.393a20.72 20.72 0 0 0-.352.665"/><path style="fill:#8b5d4d;stroke:#2f201d;stroke-width:.25px" d="M235.417 517.44c.209-.814.272-1.518.232-2.072-.04-.554-.818-1.308-1.354-1.344-.536-.035-1.677 2.134-2.077 2.92.706-.773 2.726-1.314 3.2.496z" class="alpha"/><path style="fill:#272421;stroke:#141312;stroke-width:.25px" d="M294.703 524.656c-.59.208-1.253.555-1.179 1.455.074.901.221 2.425.221 2.91 0 .485 1.964 1.588 4.64 2.506 3.826 1.313 8.96 1.858 13.232 1.858 4.273 0 10.944-.615 11.223-4.018.09-1.105.147-1.8.147-2.147 0-.347-.295-.762-.59-.9" class="beta"/><path style="fill:#59564d" d="M294.703 524.657c-.5.176-1.052.454-1.163 1.084.291 1.48 4.724 4.12 8.528 4.458 4.1 1.13 14.95 1.221 16.794.139 2.022-.204 4.04-2.138 4.118-3.193-.038-.33-.309-.697-.582-.826z"/><path style="fill:#8b5d4d;stroke:#2f201d;stroke-width:.25px" d="M297.644 502.879c-.139.923-.113 2.475.03 3.948.06.606.138 1.026-.58 2.27-.716 1.242-.285 2.337-.11 3.308.175.97-.506 2.176-1.032 3.925-.004.01-.012.02-.017.03 0-.017-.014-.023-.02-.034.004.049.015.096-.012.156-.31.687-2.232 3.948-1.937 6.027.295 2.078 0 2.355.884 3.602.884 1.247 4.714 3.603 9.87 3.603 2.438 0 4.771.652 7.389.687 2.918.039 6.076-.577 7.784-1.38 3.241-1.524 3.83-4.71 3.388-6.65-.442-1.94-2.995-4.973-3.407-5.84-.413-.868-3.216-4.704-3.831-6.491-.616-1.788-1.042-3.675-.947-4.336.094-.662.31-.484-.114-1.258l-.255-.65s-.194 1.41-.938 2.332c-.924-1.119-5.96-.822-8.054-.849-3.015-.039-3.367.11-4.004 1.258-.526.947-1.48 2.353-2.093 1.67-.613-.684-.534.153-1.078-5.25z" class="alpha"/><path style="fill:none;stroke:#2f201d;stroke-width:.25px" d="M299.567 513.702c.48 2.037.662 5.202 1.912 6.084 1.25.881 3.433 2.258 9.791 2.253 6.359-.005 6.525-2.532 6.577-4.262.052-1.73-.947-3.575-3.069-5.08" class="alpha"/><path style="fill:#2f201d" d="M294.597 519.354c-.356.55-.787 2.056-.63 3.155.294 2.078-.001 2.355.883 3.602.884 1.247 3.681 3.15 8.78 3.914 6.823 1.022 13.239.844 16.264-1.004.972-.457 1.701-1.065 2.24-1.743-.299.22-.616.454-.864.64.734-1.323.455-2.272-.444-3.05.234.791.165 1.702-.598 2.364-1.354 1.175-2.187 1.567-3.958 1.567 1.563-.686 3.02-1.763 3.958-2.547-1.458.588-3.957.784-4.687.784 2.135-.698 3.846-2.248 3.135-2.63-1.287 1.031-5.331 1.85-6.59 1.982 2.186-.79 3.639-1.657 4.44-2.18-.65.018-1.343.062-2.026.084-3.021.098-8.021-.196-10.209-1.371-.81-.435-1.163-.646-1.798-.802-1.244 1.416-2.662 4.002-1.952 5.505-1.352-.909-2.151-3.116 1.181-5.549-1.006-.215-1.7-.232-3.056-.232-.882 0-1.531.027-2.099-.128a24.773 24.773 0 0 0-.922 2.039c-.124-.818.071-1.565.444-2.223-.788-.468-1.38-1.43-1.492-2.177zm3.549 3.028c.625.686 1.145 2.352.624 3.086l.052.147c-1.146-.833-.416-2.498-.676-3.233zm9.005 3.522c1.62 1.524 4.64 2.216 8.397 1.94-.516.276-2.21.484-2.8.484 1.106.347 1.695.416 2.21.485-2.946 0-5.818.554-7.218-.138.81.069 1.768-.139 2.136-.277-1.473-.762-2.43-1.663-2.725-2.494zm-5.083.346c.884.762 3.683 1.94 4.862 2.009-1.694.831-4.714-.554-4.862-2.009z" class="alpha--dark"/><path style="fill:none;stroke:#2f201d;stroke-width:.25px" d="M297.7 510.167c-.504.878.173 2.723.504 2.916.331.193.697.191.836-.003" class="alpha"/><path style="fill:#2f201d" d="M304.7 510.691c-1.72.001-3.027.189-3.304.481 1.423-.13 4.032.403 6.166 1.49 1.208.615 2.373 1.28 3.282 1.902a51.119 51.119 0 0 0-3.067-1.045c-1.495-.43-2.123-.62-3.128-.372.89.093.868.19 1.157.334-1.255-.285-2.817.355-2.964 1.035.479-.488.689-.392 1.088-.54-.374.245-.55.635-.612.927.75-.684 1.705-1.126 2.703-.888-.79-.142-2.384 1.372-2.72 2.102-.394-.144-.333-.436-.131-.728-.676.1-1.758.492-1.758.492.515 1.553 1.942 4.64 3.192 4.492 1.25-.147 3.9-.531 5.58-.547 1.68-.016 3.418.106 4.692-.414 1.273-.52 2.896-1.019-.085 1.365 2.64-.76 2.673-2.332 2.645-3.063l-.001-.008v-.034c0-.006-.007-.014-.008-.02-.249-1.749-3.414-4.963-4.644-5.47-.211-.574-3.638-1.25-6.238-1.426-.65-.045-1.27-.065-1.844-.064zm.845 6.493c.16.002.33.009.518.026 1.503.131 3.983.22 4.463.207.48-.014 1.4.79 3.552 1.185-.74-.203-2.393-.163-4.184-.203-1.791-.04-5.764-.116-6.426-.186-.663-.069-.43-.51-.794-.716 1.239-.004 1.755-.322 2.87-.313z" class="alpha--dark"/><path style="fill:#2f201d" d="M306.1 506.548c-2.2-.367-4.109-.64-4.453 1.246 1.53-.759 4.677.209 5.182.223-3.232.663-5.246 1.057-5.832 2 2.663-.522 4.63-.359 6.535.118 1.905.477 4.358.348 4.788.523.43.174 1.265.912 1.265.912-1.125-1.6-1.645-.696-1.899-1.264-.253-.569 1.389-.12 1.709.364.32.483 1.02.974 1.02.974-.505-.764-.905-3.63-1.255-4.148-.35-.517-4.23-.46-6.616-.873l-.444-.075zm.433 2.59c2.017.11 3.62.542 4.424 1.387-1.404-.684-3.415-.849-7.459-1.396 1.125-.131 2.118-.04 3.035.01zm-5.263 10.55c-1.458.392-4.27 2.645-4.896 3.82.313-2.645 2.813-4.702 3.646-5.094.417.686 1.25 1.274 1.25 1.274z" class="alpha--dark"/><path style="fill:none;stroke:#2f201d;stroke-width:.25px" d="M297.99 509.976c.238.034 1.05 2.473.976 2.782" class="alpha"/><path style="fill:none;stroke:#000;stroke-width:.25px" d="M313.789 506.074c.422.532.775 1.461.826 1.803.051.341.31 2.023.463 2.396.154.374.485-.34 1.177.668" class="alpha"/><path class="alpha" style="fill:#8b5d4d;stroke:#2f201d;stroke-width:.25px" d="M315.395 514.23c-1.083-1.207-3.143.506-2.177 2.59-.062.435-.392.443-.564.298-1.238-1.045-2.15-3.102-2.667-3.938-.59-.952 2.003-3.858 3.38-2.18.738.898 1.578 1.725 1.978 2.287.18.253.306.727.05.943z"/><path style="fill:#8b5d4d;stroke:#2f201d;stroke-width:.25px" d="M313.002 517.488c.36.595.746.905.97.865.226-.04.495-.33.495-.33s.357.532.73.456c.374-.076.565-.257.565-.257.749.966 1.48-.148 1.195-.436.44.036.567-.106.543-.358.399-.07.108-.754-.084-1.113s-1.789-1.839-2.191-2.286c-.403-.447-1.904-.158-2.19 1.19-.286 1.35-.148 2.023-.033 2.27z" class="alpha"/><path class="alpha--dark" style="fill:#2f201d" d="M314.698 513.836a237.1 237.1 0 0 0 1.872 3.017c.194.287-.531.506-.718.149-.187-.356-2-2.91-2.01-2.926a.163.163 0 0 1-.023.013l-.374.483s1.856 2.222 2.108 2.649c.252.427-.5.078-.5.078s-1.189-1.542-1.555-1.954c-.217.169-.415.38-.587.62-.104.858 0 1.328.091 1.523.36.595.746.904.97.865.226-.04.495-.33.495-.33s.358.532.731.456c.374-.076.564-.257.564-.257.749.966 1.48-.148 1.195-.436.44.036.568-.106.544-.358.14-.025.191-.128.195-.264l-.368.12-1.586-2.725a15.89 15.89 0 0 1-.518-.53c-.015-.018-.035-.032-.054-.047l-.2-.103a1.006 1.006 0 0 0-.272-.043zm2.384 2.074c-.01.005-.02.006-.031.01l.63 1.082a2.662 2.662 0 0 0-.265-.687c-.044-.083-.17-.23-.334-.405z"/><path class="alpha--dark" style="fill:#2f201d" d="M310.351 511.868a.14.14 0 0 0-.098.051c-.309.478-.45.965-.266 1.261.518.836 1.429 2.893 2.667 3.938.172.145.502.137.563-.299a2.355 2.355 0 0 1-.188-1.506l-.054-.162-.476.018s-.42-1.522-.818-1.989c-.348-.408-1.01-1.325-1.33-1.312z"/><path style="fill:#8b5d4d;stroke:#2f201d;stroke-width:.25px" d="M306.56 516.103s-1.644 1.233-1.748 2.017c-.104.784.833.882 1.354.588 0 .882 1.146.49 1.354.294 1.042.98 1.671.19 1.673-.106 1.365-.014 1.369-1 1.32-1.396-.048-.396-.34-1.773-.34-1.773-.92-.857-2.379-.894-3.612.376z" class="alpha"/><path class="alpha--dark" style="fill:#2f201d" d="M308.485 515.117c-.124.009-.268.052-.393.079 0 .045-.78 1.952-.728 2.63-.156-.245-.625-.343-.833 0-.209-.05-.469.05-.469.05l1.191-2.336c-.234.145-.467.33-.692.563 0 0-1.645 1.233-1.75 2.017-.103.784.834.882 1.355.588 0 .882 1.146.49 1.354.294 1.042.98 1.67.19 1.673-.106.919-.01 1.033-.463.98-.878-.128-.27-.63-.345-.998-.21l.361-.382-.955-.324.098-1.988a2.104 2.104 0 0 0-.194.003zm-1.797 1.618s-.886.895-.886 1.14c0 .245-.678.196-.626-.098.052-.294 1.512-1.042 1.512-1.042z"/><path class="alpha" style="fill:#8b5d4d;stroke:#2f201d;stroke-width:.25px" d="M310.2 516.22c.257-1.196.359-1.89.498-2.875.14-.984-.289-1.832-1.351-1.888-1.063-.057-1.917 1.237-2.128 1.92-.21.681-.784 2.921-.784 2.921.897-1.463 3.79-1.662 3.764-.078z"/><path d="M309.483 517.106s.261-.526.076-.89c-.143.177-.197.375-.076.89zm.577-1.425-.177.426-.276-.386-.365.086-.473-.723c.575.032 1.08.26 1.292.597zm12.669 10.473c.416-2.645-.525-4.208-4.66-5.13 1.441.61 2.785 2.877 3.41 4.052-.104-1.175-.313-1.371-.73-2.155 1.355.882 1.771 1.861 1.98 3.233z" style="fill:#2f201d" class="alpha--dark"/><path style="fill:#2f201d" d="M322.833 523.264c-.208-.784-2.125-2.316-3.757-3.241.668.158 1.388.317 1.388.317s-1.001-1.324-1.507-1.687a7.925 7.925 0 0 1 1.625.935c-1.005-1.173-2.409-3.332-2.546-3.586.623.562 1.88 1.4 2.484 1.818.604.419 1.063 1.72 1.01 2.309.574.44.626.93.626 1.126.52.49.781 1.323.677 2.009zm-3.32-6.742c-.712-.302-2.133-2.586-2.317-2.935 1.23 1.118 1.981 2.07 2.317 2.935z" class="alpha--dark"/><path style="fill:#d6bdb3" d="M297.808 502.903c.084.464.343 1.763.357 2.325.016.622.147 1.422.37 2.283.234.903 1.583 1.835 2.668.623 1.653-1.847 1.226-2.685 6.515-1.904 4.901.724 6.119.341 6.21 1.19.092.848.662 2.842 1.062 3.696.4.854 1.61 1.156 1.973 1.448l-.708-1.623c-.692-1.009-1.022-.294-1.177-.668-.154-.373-.412-2.055-.463-2.396-.05-.336-.393-1.238-.806-1.775l-.02.026c-.923-1.12-5.966-.698-8.054-.85-2.634-.19-3.366.112-4.003 1.26-.526.946-1.48 2.351-2.093 1.668s-.865.361-1.079-5.25z" class="alpha--light"/><path style="fill:#2f201d" d="M299.897 508.857c-.529.88-1.058 2.332-.599 2.938.263-.686.497-1.723.818-2 .268.342-.481-.668-.22-.938zm5.78 12.058c1.474.278 5.002.632 8.122.185-.888-.064-1.246-.979-1.246-.979-1.64.233-3.708.17-4.592.31-.884.138-1.473.415-2.284.484z" class="alpha--dark"/></symbol><symbol id="imoon" viewBox="210 442 120 120"><path d="M260.311 524.995c-.73-.156-1.654 1.304-1.356 2.76l1.825.564c.557-1.771.1-3.203-.469-3.324zm-3.17.827c-.653-.33-1.369.636-1.624 2.956l2.796.841c.004-1.894-.521-3.468-1.173-3.797zm-4.297-.154c-1.491.004-1.439 1.429-1.97 3.507.467.343 3.235 1.479 4.326 1.842-.907-3.264-1.196-5.352-2.356-5.35zm-3.03 8.467c-2.43.043-6.335 3.445-7.355 7.418l3.952.172 1.288-1.632 1.804.086.43-1.89h1.718c.547-2.996-.379-4.18-1.837-4.154z" style="fill:#222224;stroke:none;stroke-width:.29427487px"/><path d="M301.73 511.22c.242 3.674-6.255 8.397-6.59 10.931 0 0-1.641 5.755-1.784 7.728 0 0-.384.133-.443.425-.317.895-1.241 8.199-1.241 8.199l.707.168.032.516.853.788.888.012.084.87 1.227.543 2.583-.134s.466.955 1.334 1.04c3.398.636 11.791 1.374 17.399.5 6.164-.959 7.296-2.856 7.235-3.524-.06-.668-.06-1.276.366-1.397-.243-.85-1.762-8.991-1.823-9.295-.06-.303-.546-.607-.79-.789-9.392-9.073-13.73-16.36-20.037-16.58z" style="fill:#494752;stroke:#000;stroke-width:.29427487px"/><path class="alpha" style="fill:#302f2f;stroke:#000;stroke-width:.29427487px" d="M295.414 514.821c-.225-.93 1.592-4.418.82-5.435-.387-.51-1.176-.724-1.284-1.204-.109-.48-.086-.848.361-1.269.448-.42.28-1.375-.005-1.669-.283-.294-.246-1.113-.246-1.113.115-.338-.168-.781-.168-.781-.392-.27-.066-1.018-.066-1.018.307-.194.634-4.989.62-5.48-.013-.493.674-.98.755-1.401.082-.42.024-1.433.086-1.973.062-.54.724-2.041 1.012-2.13.287-.09-.017-1.099.35-1.32.367-.222.545-.365.595-.75.049-.386-.094-4.174-.203-4.934-.108-.76.632-7.032.609-8.56-.023-1.529.546-5.644.541-6.572-.005-.928.711-1.564 1.377-1.014 1.47 1.215 6.32 2.561 10.928 1.905 4.333-.617 7.9-.962 8.484-.84.711.147.01.601-.138.857-.597 1.031-.595 4.667-.965 5.957s-.042 2.366.18 3.014c.221.648.482 1.08-.453 1.965-.936.885-.793 1.032-.708 1.675.076.586-.047.99-.78 1.118-.732.129-.47 1.06.168 2.011.639.951-.427 1.96-.85 2.03-.421.072-.571.215-.08 1.037.49.823.704 2.803-.084 3.579-.788.776-.822 1.331-.453 2.133.368.801.1 8.115-.039 9.83-.139 1.714-.053 2.732.48 3.587.533.854.833 2.86 1.333 4.225.5 1.365 3.33 6.68 3.498 7.484.168.804.599 1.924.388 3.124-.404 2.295.203 5.991-2.89 7.366-3.092 1.374-7.985 1.47-13.765 1.233-5.78-.237-9.252-2.454-9.982-4.344-.73-1.89-.296-6.408-.77-6.832-.474-.424-.635-5.877 1.344-5.49z"/><path style="fill:none;stroke:#000;stroke-width:.29427487px" d="M322.557 528.591c.121 1.762-.061 3.45-.85 4.422-.79.971-3.288 2.106-8.566 2.442-6.682.425-16.688-1.822-18.263-3.037-1.575-1.215-1.815-1.822-1.553-2.49"/><path class="beta--light" style="fill:#7b7987;stroke:none;stroke-width:.29427487px" d="M319.398 530.9c-12.136 3.312-21.294.254-23.735-1.033-1.196-.631-1.516-1.923-1.88-2.797-.067 1.602.597 2.426.997 2.89 2.857 3.303 11.99 3.733 14.69 3.794 2.699.06 6.141-.203 7.68-.546 2.1-.47 3.86-1.344 4.495-2.187.637-.845.608-2.308.122-2.612-.067 1.264-1.197 2.17-2.369 2.49z"/><path class="beta" style="fill:none;stroke:#000;stroke-width:.29427487px" d="M293.927 526.75c.174 1.2.597 2.435 1.735 3.117 2.332 1.397 11.5 4.458 23.736 1.032m4.556 7.715-.486-3.827"/><path class="alpha--light" style="fill:#4f4d58;stroke:none;stroke-width:.29427487px" d="M297.59 491.406c-.149.02-.293.04-.435.063-.318.378-.815 1.545-.868 2.009-.062.54-.004 1.552-.086 1.973-.081.42-.768.908-.754 1.4.012.443-.228 4.303-.524 5.272.56-1.282 1.169-3.627 1.161-4.185-.009-.634-.244-1.154.292-1.672.537-.518.507-1.2.347-2.004-.16-.805.39-2.17.867-2.856zm13.756-1.143c-.488.042-.738.296-.387.382.4.1-.297.493.025.717.322.224.093.96-.387.683-.48-.276-.893-.736-1.13.005-.238.742-3.766 1.765-3.294 1.359.471-.407 3.505-2.635 3.001-2.783-.504-.148-3.338 2.194-3.939 2.873-.6.68-1.195 3.23-.818 4.897.378 1.667 2.114 1.617 5.099.974 2.985-.644 3.633 1.421 3.871 3.286s-1.547 8.583-1.396 10.443c.15 1.86-.333 5.587.936 5.67 1.27.084 2.906.61 3.258 1.398.35.79-4.575 4.053-9.197 4.988-4.622.935-5.224 4.466-.909 5.095 4.104.599 9.06-.325 11.557-1.047 2.713-.784 4.585-6.066 3.809-8.43a9.654 9.654 0 0 1-.222-.556l-.017-.034.003-.002a3.546 3.546 0 0 1-.12-.416c-.168-.804-3-6.119-3.5-7.484-.5-1.364-.798-3.371-1.332-4.226-.533-.854-.619-1.872-.48-3.587.139-1.714.407-9.028.04-9.83-.162-.35-.244-.652-.222-.948-1.035.162-.094-.96-.864-2.034-.852-1.192-2.537-1.365-3.163-1.396a1.625 1.625 0 0 0-.222.004zm-2.537 2.56c1.089-.11 1.426 1.386.924 1.728-.502.343-.913 1.502-.182 1.393.73-.11.955.769.23.877-.723.108-.968.831-1.708.885-.739.054-2.05-.146-2.783-.186-.733-.04-.456-.732.053-.837.51-.104 1.709-.927.835-1.006-.873-.078 1.881-2.78 2.631-2.855z"/><path class="alpha--lightest" style="fill:#d4d2d6;stroke:none;stroke-width:.29427487px" d="M307.755 529.409c-1.883.123-2.737-1.334-.48-2.439 2.258-1.105 5.684-.617 6.608-.632.923-.015.662-.666-.069-.935-.73-.268 1.238-1.138 2.163-.866.925.271 1.46 1.297 1.351 1.953-.109.657.262.937 1.12.748-.584.753-2.561.857-3.95.782-1.387-.074-2.397.23-3.492.73-1.096.499-4.144.687-3.25.659z"/><path class="alpha--light" d="M306.575 472.165c.456.264.407.566.062.848-.437.357-1.237.837-1.354 1.558-.117.721-.294 3.103.175 4.254.47 1.152-.73 2.694.011 3.54.742.844 1.075 1.565.858 1.993-.217.428-.169.696.174.939.213.15-.007.654-.205 1.308-.128.544 2.421-1.987 3.252-1.978.982.01 2.295 1.608 1.348 1.648-.948.04-1.326-.682-1.542-.956-.188-.241-3.106 2.2-3.281 2.386a3.171 3.171 0 0 0-.008.218c.003 1.231 3.911-.862 4.927-.825 1.016.037 1.062-1.18 2.23-.401 1.168.779 2.499 1.26 3.233 1.02.734-.238-.118-.245-.622-.407-.504-.162-2.153-1.11-2.934-1.33-.78-.22-1.488-1.078-2.124-1.453-.637-.375-.469-.705.05-1.833.519-1.128 1.05-1.95.348-2.869-.7-.918-2.01-1.327-.434-2.156 1.577-.83 1.903-1.046 1.49-1.376-.415-.33-1.31.564-2.077.148-.768-.416 2.833-1.254 3.058-3.4.084-.805-1.908-2.372 2.465-3.033l.022-.072c-1.253-.051-3.197.528-4.531.58-1.2.046-3.532 2.09-4.592 1.649z" style="fill:#4f4d58;stroke:none;stroke-width:.29427487px"/><path class="beta--light" style="fill:#7b7987;stroke:none;stroke-width:.29427487px" d="m322.642 529.514-.055.002c.003 1.411-.231 2.697-.88 3.497-.79.972-3.286 2.15-8.566 2.442-8.724.484-16.688-1.822-18.263-3.037-1.17-.903-1.586-1.47-1.634-1.976l.028-.513c-.107-.095-.39.23-.398.662-.053 3.075 9.94 6.991 22.528 5.633 6.11-.66 7.75-2.817 7.713-4.687l-.306-1.615a4.664 4.664 0 0 0-.167-.407z"/><path class="alpha" style="fill:none;stroke:#000;stroke-width:.29427487px" d="M299.186 469.04c1.015.343.398-.205 1.423.595.747.584 3.163 1.878 6.222 2.228 1.962.225 5.125-.04 7.139-.27 1.431-.162 3.42-.676 4.301-.676.882 0 1.244-.588 1.533-.825"/><path style="fill:#222224;stroke:none;stroke-width:.29427487px" d="m292.217 536.235-.234 2.343.395.092.004.075.077-2.3zm1.537.975-.392 2.766.79.011.085.87.004.002-.105-3.51zm2.934 1.058-.052 1.276-1.468 1.726.295.13 2.583-.135s.042.08.116.193l-.552-3.04z"/><path style="fill:#d4d2d6;stroke:none;stroke-width:.29427487px" d="M322.172 529.649c0 1.679-2.753 2.35-4.365 2.686 2.485-.806 4.298-2.216 4.365-2.686z"/><path class="alpha--lighter" style="fill:#9f9aa1;stroke:none;stroke-width:.29427487px" d="M295.951 519.25c.652-2.064 8.725-5.442 12.5-4.945-1.47-.05-2.538.453-3.317 1.045 2.1-.682 4.102-.215 5.454-1 1.351-.785 1.52-1.336 1.069-3.455-.452-2.119 1.61-5.819 1.35-7.394-.259-1.575-.548-3.195-.515-4.686.032-1.492-.185-3.372-.667-4.233-.483-.86-.011-2.783.49-3.814.502-1.031 1.275-.3.763.565-.511.865-.95 2.172-.418 3.48.534 1.309.543 2.768.767 3.88.223 1.113 1.548.242 1.64 1.774.093 1.53-.09 4.103-.494 6.046-.404 1.942.215 5.242 1.492 6.82 1.278 1.58 2.097 3.524 2.496 4.555-.945-1.628-1.583-2.323-2.24-2.905.421 1.009 1.142 2.384 1.142 2.384s-3.704-3.913-5.75-2.813c-2.046 1.101-4.375 1.083-6.543 1.55-2.17.469-7.843 1.95-9.219 3.146z"/><path style="fill:#4f4d58;stroke:none;stroke-width:.29427487px" d="M315.297 488.781c-.888.007-1.028-.316-1.467-.553-.438-.236-.653-.313-1.348-.698-.696-.385-1.647-.02-2.517-.465-.87-.445-1.113.303-.173.418.94.114 2.358-.024 2.406.384.048.407-1.644.065-2.835-.115-1.19-.18-4.78 1.75-4.47 1.102.31-.65-1.869-2.786-.066-3.415 1.802-.629-.88-1.573-.08-2.118.8-.546-1.623-1.34-.747-2.039.876-.698-3.618-2.868-3.926-5.322.096 3.413.93 6.654 2.099 6.994 1.17.34-.815.624.542 1.42 1.357.795-.409.587.165 2.185.574 1.599 1.476 1.416 1.025 2.564-.452 1.148 6.596-.696 7.82-.581 1.223.115 2.31.496 3.572.24z" class="alpha--light"/><path style="fill:#4f4d58;stroke:none;stroke-width:.29427487px" d="M316.627 490.393c-1.062-.009-1.657-.65-2.477-.985-.82-.335-8.335 1.252-10.018.72-1.683-.534-3.724-.647-4.798-.757 2.08.275 3.097.717 3.806 1.047.708.33 4.179-1.64 6.585-1.304 2.406.335 4.035.708 5.046 1.167 1.011.46 1.202.403 1.856.112z" class="alpha--light"/><path style="fill:#9f9aa1;stroke:none;stroke-width:.29427487px" d="M303.19 492.878c.617-.573 1.438-.448 2.055-.811.616-.363 4.836-2.62 4.862-2.267.025.353-3.999 2.184-4.476 2.483-.477.3-1.446.087-2.442.595z" class="alpha--lighter"/><path style="fill:#4f4d58;stroke:none;stroke-width:.29427487px" d="M302.342 492.604c-.379.75-1.008.508-.886.19.122-.32.396-.6.21-.936-.185-.335.495-.95 1.089-.956.594-.007 1.466-.09 1.424.163-.043.254-1.535.091-1.739 1.022.414-.344 1.249-.174 1.495-.598.007.7-.898.59-.952.798-.053.208-.28.18-.641.317z" class="alpha--light"/><path style="fill:none;stroke:#000;stroke-width:.29427487px" d="M295.045 503.636c1.036 1.498 1.395.324 2.141.869.746.545 2.483-.307 3.51.22 1.027.528 2.21.668 3.126.185.917-.482 2.931-.832 4.118-.633" class="alpha"/><path style="fill:#4f4d58;stroke:none;stroke-width:.29427487px" d="M296.733 507.89c-.583.557-.303 1.203-.139 1.88.03.124-1.464 1.108-1.805 2.1a7.68 7.68 0 0 0 .126 1.346c.112.514-.268 2.523.157 2.7.425.177-1.056.867-1.2 1.328-.143.461-.228 1.332.22 1.805.439.461.206 1.488.294 1.867.392 1.011-.113 4.761.454 6.228.126.326.335.666.62 1.005 1.712 1.27 4.166.372 3.666-.167-.528-.57-1.453-5.777-1.601-6.7 2.094 1.564 4.502 3.865 6.13 4.15-4.384-1.235-3.036-4.527-2.948-5.295.088-.767 2.427-1.834 3.97-1.933-1.858-.536-7.226 1.205-7.937 2.01-.71.805-1.327.24-1.372-.59-.046-.829 8.057-7.511 12.035-9.316-1.812.106-6.977 3.014-7.492 3.914-.516.9-4.683 3.633-4.852 4.177-.17.545-.94-.528-.521-1.317.418-.788 9.071-6.295 11.077-7.065-2.161.268-4.72 1.304-5.42 2.008-.7.705-2.588 1.16-3.11 1.225-.52.065-1.022-.086-1.144-.497-.12-.412 1.059-2.638.98-3.026-.077-.389-.442-1.323-.188-1.837z" class="alpha--light"/><path style="fill:#4f4d58;stroke:none;stroke-width:.29427487px" d="M303.191 519.944c-.168.668 6.636 1.709 6.825.702.188-1.006-2.567-1.714-3.76-1.655-1.194.06-2.87.173-3.065.953z" class="alpha--light"/><path class="alpha" style="fill:none;stroke:#000;stroke-width:.29427487px" d="M300.855 512.223c1.784-2.175 2.973-6.097 2.49-8.9-.482-2.805-.389-4.234-.618-5.477-.229-1.243-.174-5.256-.66-5.853-.135-.273.465-.614 1.277-.833.811-.219 2.102-1.395 1.698-2.664-.404-1.27-2.18-2.69-1.572-3.287.608-.598.123-1.04-.312-1.214-.435-.174-.17-.402.182-.705.35-.304-.271-.391-1.092-1.112-.82-.722-1.236-2.22-1.5-2.725-.747-1.84-.72-4.041-.772-4.792-.052-.75-.09-1.458-1.208-2.003"/><path class="beta" style="fill:#494752;stroke:#000;stroke-width:.29427487000000002px" d="M224.307 525.384c-.364.06-.911.243-1.093.486-.182.243-.79 1.519-.911 1.883-.122.364-.122.911-.061 1.276-.304.303-.608.546-.73.91-.12.365-2.672 8.687-2.854 9.416-.182.73.696 3.476 7.982 4.291 5.242.587 12.068.437 17.227-1.071.121-1.519.243-3.28.243-3.28s.547-.486 1.397-.243c.243.546.85 2.733.85 2.733l1.58-.547-.182-3.766.79-.425.85 3.194 1.093-.46-.182-3.706.547-.425.668 2.673.729-.365-.122-2.187c.365-.182.304-.546.06-1.032-.242-.486-.789-3.524-.667-3.827.121-.304.243-.79.243-1.458 0-.668-.151-2.244.092-2.487.243-.243.668-.425.972.122.304.546 1.404 2.981 1.769 3.407.364.425.842.637 1.4.335.557-.302 1.223-.716 1.223-.716s-.81-1.266-.526-3.049c.205.023.584-.13.584-.13.163.91 1.005 2.55 1.005 2.55l1.435-.47-.254-2.701.67-.469.735 2.493s1.442-.702 1.82-.99c.379-.288.428-2.647.137-3.473-.29-.827-2.539-9.293-2.668-9.808-.129-.516-.043-.816-.644-1.332.129-.816-.344-1.589-1.074-1.975.215-1.117-.387-1.504-1.117-1.719"/><path class="alpha" style="fill:#302f2f;stroke:#000;stroke-width:.29427487px" d="M262.04 468.553c-.952 1.17-3.03 6.035-2.162 6.547.867.513.932 2.901-.38 4.262-1.31 1.36-1.552 5.97-.823 8.717.73 2.747.616 3.487.395 4.335-.222.848-.658 2.535-.044 3.91s.157 3.431-.007 4.46c-.164 1.027-.067 3.252-.754 4.283-.687 1.031.439 2.535.782 4.08.344 1.547.482 6.01-1.093 7.707-2.234 2.406-6.168.28-7.364 3.672-.372 1.053-.746 5.034-2.659 6.832-1.913 1.798-8.06 4.196-12.678 4.376-6.833.267-10.714-1.621-11.607-3.428-.893-1.807-.64-4.876.449-7.162 1.089-2.286 4.175-4.937 5.173-5.645 1-.708 4.954-3.123 5.664-3.725.71-.602 4.845-5.543 5.24-6.344.397-.8 1.27-9.541 1.385-10.529.12-1.027.376-2.866.783-3.548-.527-2.224-1.08-5.985-.936-7.35.144-1.366-.997-16.553-1.047-17.162-.05-.609.316-.728.933-.36.618.37 3.076 3.175 5.272 3.423 2.196.248 2.066-1.327 7.88-1.092 3.704-.005 5.053-.063 6.208-.98.69-.55 1.782.24 1.39.72z"/><path class="alpha--lighter" d="M254.587 470.794a.618.618 0 0 0-.114.005c-.919.113-.44 1.743-.887 1.588-.339-.118-.518-1.593-1.081-1.586-.79.01.06 2.505-.55 2.505-.611.001-2.27.058-2.458.415-.187.358 1.72.564 1.844.978.177.591-2.283 1.523-2.64 2.652-.36 1.129-.24 1.781.104 1.961.396.207 3.238-.652 4.267-2.85-.62 1.45-1.793 3.39-1.873 3.621-.185.534.94 1.067 1.314.353.975-1.864 1.455-3.787 1.808-5.03.343-1.204 1.342-4.55.266-4.612zm-11.491 1.19c-.227.02-.427.69-.367 2.154.115 2.779.91 3.96 2.527 6.651 1.618 2.692 2.428 4.874 1.766 5.71-.661.837-1.281 2.177-1.561 3.351s-.635 3.103-.12 5.794c-.25.252-.368.756-.201 1.682-.986 1.85-.518 3.704-1.036 4.884-.519 1.18-1.297 3.63-1.803 5.149-.506 1.519.169 2.7-.084 3.376-.254.675.337 1.857 1.097 1.182s1.688.084 2.387-1.032c.776-.955 2.208-1.254 3.581-.896 1.373.358 3.76-2.09 4.656-1.075.895 1.015 1.73.478 1.73-.477s.998-2.67 1.409-2.995c.779-.617.63-2.015-.076-1.955-.705.06-1.628.297-3.216.297-1.59 0-.804-1.906.121-1.965.926-.06 2.489-1.369 2.892-1.786.404-.416 1.685-.475 1.223.299-.246.476.292.506.394.06.102-.447.389.535.51.03.12-.507-.458-.388-.908-1.371-.451-.984-1.513-.777-2.125-.837-.613-.06-.852-1.403-.542-1.432.31-.03 2.549.639 2.492-.446-.057-1.084-1.017-.978-1.514-1.033-.497-.056-.643-.82-.83-1.328-.185-.508-.466-1.255-.8-.837-.332.417-.582 1.044-.58 1.462 0 .418-.142.419-.405.359s-.316.387.06.656c.376.27 1.042-.058 1.495-.058.454.001 1.56.266 1.649.718.09.452-1.178.238-1.945.028-.767-.21-1.438.088-1.941-.061-.503-.15-1.583-.807-2.266-1.017 1.577.3 2.12.33 1.975-.118-.145-.448-.025-.598.29-.777.316-.179 1.01-2 1.446-2.775.435-.776 1.347-2.504 1.794-2.533.446-.029.257-.537.1-.746-.159-.208-.175-.511.08-.535.999-.093.62-.774.177-.953-.442-.18-1.905-.304-1.858-3.152.047-2.85.574-3.438.973-4.207.398-.77.075-1.184.243-1.776.168-.591.405-1.952-.498-1.124-.902.828-.51 1.774-1.315 3.077-.804 1.302-1.158 5.631-1.685 7.893-.51 1.191-1.107 5.308-2.103 6.204-.997.896-.798 2.269-.21 2.388.588.12 1.283.538 2.285 1.255 1.003.717.172 1.372-.238.835-.41-.537-.866-.537-1.251-.418-.385.12.436.776.752 1.015.315.239.08.656.428 1.133.347.477.695 1.371.166 1.311-.529-.06-.395-.834-.634-1.371s-.568-.418-.467-.06c.1.358.447.835.102.835-.346 0-.271-.603-1.203-.94-.931-.338-.53-.84-1.497-1.346-.967-.506-1.171-1.515-.472-1.85.699-.335-.499-.842.02-1.765.517-.923 1.36-3.858 1.067-7.465-.293-3.607-2.74-8.734-3.618-9.745-.878-1.012-1.34-2.19-1.843-4.13-.22-.848-.436-1.343-.63-1.397a.145.145 0 0 0-.045-.005zm5.215 13.684c.076-.014.146.082.213.35.27 1.067.177 1.838.109 3.498-.068 1.66-.061 2.668-1.194 5.101-.63-1.367.529-6.11.673-7.355-1.033 1.42-1.717 7.472-2.12 7.352-.403-.12-.36-1.842-.167-3.266.192-1.424 1.164-3.556 1.637-4.147.354-.444.622-1.489.85-1.533zm-10.55 37.234a7.63 7.63 0 0 0-.937-.095c-.729-.038-.627.313.191.438.818.125.97.678-.105.516-1.075-.162-1.096.265-1.902.237-.805-.028-.658.43.535.552 1.193.122.579.605-.443.473-1.021-.132-1.699-.25-2.515-.67-.815-.42-2.289 2.703-.526 2.894 1.762.19 2.075-.398 2.53-.568.456-.17 1.832.357 3.03.587 1.2.23 2.994.533 4.645-.235l-.616-3.217c-.832-.271-2.352-.464-3.007-.682-.328-.11-.6-.181-.88-.23zm-10.078-.904c-.328-.022-.162 1.056.29 1.083.452.028.466.363 1.044.405.578.042.133-.692.547-.656.414.035.386-.589-.07-.647a38.303 38.303 0 0 0-1.811-.185z" style="fill:#9f9aa1;stroke:none;stroke-width:.29427487px"/><path class="alpha--light" d="M234.987 511.717c-.017.017-.04.044-.055.057-.71.603-4.664 3.017-5.663 3.725-.999.708-4.085 3.359-5.174 5.645-1.071 2.25-1.33 5.254-.487 7.073.038.031.077.063.116.092-.619-1.185-.075-3.548.113-4.875.189-1.328.97-2.975 1.458-2.936.488.04.857-.078 1.133-.458.275-.381.672-.552.91-.316.238.236.511.655 1.463.441.952-.214.705.337 2.082.753 1.377.417 1.564-.115.483-.472-1.082-.357-1.218-.88-.234-.663.984.216.662-.225 2.249.313 1.586.538 1.745-.164 2.765.013 1.02.177 1.677.287 2.092-.227.757.271 1.547-1.193 2.554-.499 1.007.695 2.193.859 3.07 1.2.878.341 1.398 1.69.592 1.63-.806-.06-.287.939.154 1.396.408.424 2.037 2.178 1.727 2.823.436-.631.023-1.611-.318-2.328-.365-.769-.11-1.364.42-1.685.53-.32.258-1.093-1.012-2.048-1.269-.955-2.262-1.104-2.897-1.52-.636-.415-2.638.209-3.731-.235-1.093-.445-3.955-1.572-4.747-2.12-.792-.548-1.913-1.373-2.338-1.28-.426.092-.423.647-1.183.563-.76-.085-2.16 1.372-2.487 1.6-.328.228-.902.508-1.307.827 1.85-2.169 4.552-3.866 4.978-4.02.418-.151 2.68-1.577 3.274-2.469zm11.347 14.715a.981.981 0 0 1-.107.131.325.325 0 0 0 .107-.131zm3.407-12.809c-.052.132-.141.217-.296.205-.454-.032-1.096.19-1.56.73-.264.305-.604.762-1.254 1.097l-.023.034c.45-.222.85-.022 1.074-.122.225-.1.495-.197 1.027.019.533.216.123.931.475 1.293.352.36.481.794.611 1.102.13.307-.004.515-.623.329-.62-.187-1.553-.322-2.131-.316-.579.007-.757-.206-.756-.451 0-.245.002-.61-.445-.552-.446.06-1.338.14-2.582-.161-1.244-.301-4.326-.57-5.124-.97-.799-.401-1.312-.907-3.918-1.455 1.495.336 3.032 1.314 4.103 2.043 1.072.73 4.397 1.016 6.586 1.256.755.082 1.112.38.982.98-.13.6 1.482 2.938 2.231 4.02.75 1.082.531 2.268-.051 2.754.973-.615 1.22-1.535.725-2.406-.496-.87-1.879-2.836-1.005-3.19.874-.355 1.505-1.266 2.253-.923.747.343 1.436.018.94-.422-.494-.439-.55-.997-1.11-1.429-.561-.431-.316-1.318-.545-1.694-.393-.645 1.014-1.068.416-1.77zm-17.811 2.144c.422.077 1.26.635 1.707.981-.513-.096-1.496.038-1.64.278-.143.24-1.01-.215-1.357.056-.347.272-.492.315-.756.265-.264-.05-.673-.145-.962-.074.51-.709 1.616-1.114 1.91-1.053.295.061.646-.216.88-.425.045-.04.12-.046.218-.028zm2.207 1.354c.42.3.725.38 1.47.753.72.36 1.271 1.06 1.665 1.389-.288.075-3.089-.238-3.398-.456-.31-.218-.256-1.514.263-1.686zm6.576-50.849c0-.155-.264.072-.32.215.492.181.783.426 1.2 1.07.426.66 2.653 2.16 4.422 2.94.02.537.275 2.148.383 3.636.109 1.49.34 5.175 1.218 5.236.877.061.272-3.566.027-4.876-.149-.794-.919-1.899-.999-3.868 1.52.242 2.352-.48 4.442-1.017 2.089-.537 4.522-.064 6.319-.008 1.73.053 3.076-.395 4.652-1.073.333-.482-.729-1.234-1.407-.695-1.155.918-2.503.975-6.207.98-5.814-.234-5.685 1.34-7.88 1.092-2.196-.248-4.655-3.053-5.272-3.422-.232-.138-.578-.058-.578-.21z" style="fill:#4f4d58;stroke:none;stroke-width:.29427487px"/><path class="alpha--dark" style="fill:#2d2a2e;stroke:none;stroke-width:.29427487px" d="m242.324 491.276.007.032c.006-.01.01-.02.017-.03l-.024-.002zm-.308.985c-.212.836-.376 1.93-.459 2.64-.03.256-.066.98-.15 1.908.175-.812.415-1.183.703-1.43.417-.356.397-.713.194-1.19-.142-.332-.38-1.132-.288-1.928z"/><path class="alpha" style="fill:none;stroke:#000;stroke-width:.29427487px" d="M259.185 498.843c-1.203-.834-1.721-.895-3.084-.778-1.363.118-2.315.774-4.14-.6-1.825-1.374-3.707-1.54-5.01-1.78s-3.477.113-4.132.052c-.656-.06-1.116-.24-1.328-.538"/><path class="gamma" style="fill:#d7d2d8;stroke:#858087;stroke-width:.29427487px" d="M261.424 469.39c-.118.043-.77.277-1.144.24 0 0-1.312 3.025-1.011 3.57.3.545-.64 2.011-1.533 5.819-.892 3.807-.33 7.004-.202 8.479.127 1.474.615 2.203.867 3.082s.162 1.285-.16 1.748c-.32.464-.335 2.197-.112 3.122.222.926.4 1.629.517 2.85.118 1.223.134 2.275-.026 2.57-.16.294-.226 1.473-.287 1.978-.062.505-.079 1.137-.373 1.642-.295.506-.38.758.126 2.109.023-.008.042-.018.065-.026-.145-.562-.172-1.076.114-1.505.688-1.031.59-3.257.754-4.285.164-1.028.621-3.085.006-4.46a2.847 2.847 0 0 1-.182-.57 3.636 3.636 0 0 1-.137-.473c-.173-.972-.21-1.4.013-2.304.223-.904.51-1.01.298-2.057-.212-1.047-.88-1.947-1.156-4.6-.276-2.651.177-5.038.548-6.126.371-1.088.531-3.348.786-4.353.093-.365.239-1.024.444-1.776.102-1.284.89-3.39 1.785-4.675zm-6.039 50.124c1.013-1.984 1.35-2.828 1.35-4.136 0-1.309-1.857-3.124-2.152-3.42-.296-.295-.929-.59-.507-1.73.211.085 1.055.085 1.055.085-.042.675-.084.549 1.351 2.068 1.435 1.52 1.435 3.039.886 4.305-.548 1.266-.97 1.984-.97 1.984z"/><path class="alpha--light" d="M246.863 498.118c-.15-.008-.314.025-.427.135-.303.294-.371.126-.291.378.08.253.055.59-.283 1.052-.339.463-.33.548-.271 1.137.058.59.073 1.265-.268 1.855-.34.59-.033 1.012.433.38.466-.633.47-1.56.499-2.066.36.759.354 2.572.021 2.572-.332 0-.407.253-.07.38.338.126.1.716-.28.505-.381-.21-.56-.675-1.068-.97-.509-.296-.576.464-.113.59.464.127 1.354.845 1.017 1.604-.338.76-1.098 2.068-1.267 2.364-.168.295-.02.44.211.253.656-.531 2.195-2.701 2.406-3.165.211-.465 1.021-2.152 1.016-3.668-.004-1.013-.302-1.432-.047-1.6.255-.168.246-.715.194-1.01-.052-.294-.509-.42-.602-.042-.093.378-.408 1.22-.603 1.262-.194.042-.923-.043-.73-.38.193-.337.47-.589.358-.8-.113-.21.206-.42.46-.546.158-.078-.047-.207-.295-.22zm-2.374 6.397c-.288.037-.426.559-.5 1.113-.084.633-1.14 1.899-1.266 2.279-.127.38-.21 1.013-.042 1.266.169.253.928.212.675-.084-.254-.295-.506-.506-.253-.886s.464.337.717 0c.886-1.182 1.097-1.773 1.266-2.406.17-.633-.084-1.14-.464-1.266a.298.298 0 0 0-.133-.016z" style="fill:#4f4d58;stroke:none;stroke-width:.29427487px"/><path class="beta--light" style="fill:#7b7987;stroke:none;stroke-width:.29427487px" d="M251.678 528.094c-.416.38-.55 1.636-.66 2.05-.102.38-.291.7-.709 1.186-.036-.011-.074-.02-.11-.03-3.355 3.478-13.25 5.132-19.235 4.697-6.207-.45-7.943-1.548-8.521-2.174-.268-.289-.471-.701-.618-1.165-.003.001-.059-.104-.059-.104.537 2.448 3.643 4.179 8.488 4.637 5.568.526 12.943-.173 16.59-1.98 3.647-1.807 4.598-4.266 4.657-4.99.06-.722-.18-1.26.177-2.127z"/><path class="beta--light" style="fill:#7b7987;stroke:none;stroke-width:.29427487px" d="M260.389 515.542c-.043.005-.09.013-.133.019-.737 2.229-1.654 2.182-3.824 2.996-2.267.85-3.324.152-4.699 1.956-1.374 1.804-1.46 7.225-3.186 8.384-1.438.964-8.615 5.157-18.873 4.27-4.53-.391-6.243-1.423-6.543-1.827-.446-.6-.89-1.454-.948-2.118l-.059-.01c-.358.895.24 2.925.836 3.349.598.423 2.123 1.648 8.196 1.872 7.3.27 13.077-1.345 16.767-3.376 1.362-.75 1.874-1.34 2.169-2.103.49-1.267 1.002-6.116 2-7.491.954-1.315 3.275-1.538 5.913-2.612 1.482-.602 3.033-1.488 2.735-2.276-.056-.41-.351-1.033-.351-1.033z"/><path class="alpha--light" style="fill:#4f4d58;stroke:none;stroke-width:.29427487px" d="M243.461 485.029c-.065-.002-.118.018-.151.073-.18.293-.369.67-.14 1.09.23.42-.207.544-.312.083-.105-.462-.528-.422-.336-.002.191.42-.317.292-.068.796.25.505-.16.965-.248.545-.086-.42-.078-.504-.272-.715-.183-.199-.177-.55-.492-1.222.043.509.103 1.064.182 1.65.036-.287.263-.216.31.16.051.42.075.63.419.757s.571-.502.502-.963c-.07-.462.082-.294.082-.294s.32.38.37.212c.052-.168.313.462.55.673.239.21.444.086.204-.46-.24-.546-.483-1.219-.236-1.302.248-.082.718.633.723 1.304.004.67.57.463.547-.04-.022-.504.258-.503.628-.46.37.044.578-.081.137-.334-.44-.253.11-.322.271-.57.518-.79-1.091-.523-1.507-.525-.338-.001-.878-.447-1.163-.457z"/><path style="fill:none;stroke:#000;stroke-width:.29427487px" d="M261.16 518.047c.063.78-2.725 1.796-5.27 2.436-1.405.353-3.168 1.124-3.752 2.263-.11.35-.487.947-.614 1.703 1.271-2.046 2.688-2.348 5.115-2.935 1.882-.455 4.948-1.654 4.797-2.465 0 0-.118-.908-.276-1.002z"/><path class="alpha--lightest" d="M250.029 503.08c-.07.01-.144.06-.218.16-.296.403-.142 1.207.194 1.879.335.671.94 1.208.604 1.41-.336.201-.806 1.007-.269 1.544.484.484.747 1.455.158 1.742 1.111-.43 2.375-1.352 3.128-1.106-.54-.451-.201-.981-1.137-1.106-1.007-.134-.526-1.948-.63-3.423-.103-1.475-.99-.872-.964-.537.027.335-.404.805-.446.201-.031-.452-.21-.792-.42-.764zm4.714 6.025c-3.436 1.718-5.148 1.98-5.531 2.827-.383.846-.388 1.104-.933 1.065-.546-.038-.754 1.207-1.668 1.368-.914.16-1.735.31-2.192.5-.456.19-1.256 1.234.08 1.232 2.223-.004 2.92-1 3.385-1.54.465-.539 1.107-.761 1.56-.729.455.033.379-.73.298-1.23-.08-.5 1.135-1.26 5.001-3.493zm-4.393.762c-.026.006-.05.014-.077.019l.009.005.068-.023zm-9.209 13.8a4.137 4.137 0 0 0-.967-.055c-.876.072-2.089.402-2.93 1.004-.841.603-.257 1.995.527 2.118.785.123 3.067.711 4.706.263 1.046-.287.827-1.927.279-2.584-.343-.411-1.004-.643-1.615-.745zm-9.419.415c-.852-.086-3.27.253-3.92.677-.65.423-.375 2.355.364 2.647 1.064.42 4.304.2 5.355-.266.826-.365.32-1.55-.13-2.03-.452-.48-.817-.942-1.67-1.028z" style="fill:#d4d2d6;stroke:none;stroke-width:.29427487px"/><path class="alpha" style="fill:none;stroke:#000;stroke-width:.29427487px" d="M254.265 520.544c1.234-1.14 1.187-2.28.332-3.134-.855-.855-.285-2.184-.665-2.896-.38-.713-2.184-2.897-2.849-3.087-.664-.19-1.519-.237-.875-1.504 0 0 1.736-5.753 1.703-7.942-.712-.415-2.378-2.09-2.782-2.225"/><path class="alpha" style="fill:none;stroke:#000;stroke-width:.29427487px" d="M255.554 509.131c-1.098-1.266-4.474-2.363-4.474-2.363"/><path style="fill:none;stroke:#000;stroke-width:.29427487px" d="M221.584 529.87c-.172 1.203.073 3.103.859 3.953.578.626 2.315 1.723 8.521 2.174 6.207.451 16.998-1.11 19.582-5.088 1.586-2.442-.2-6.236 2.186-9.1 1.288-1.546 6.997-6.066 7.512-6.324.516-.257.086-.773.086-.773"/><path style="fill:none;stroke:#000;stroke-width:.29427487px" d="M248.033 500.09c.96.47 1.098.068 1.224-.334.126-.401.523-1.605-.548-1.94 1.308.268 1.273-1.27.507-1.605m-7.974 1.125c1.162.336 1.561.069 2.797.07 1.235.003 2.986-.195 4.01-.06" class="alpha"/><path style="fill:none;stroke:#000;stroke-width:.29427487px" d="M248.803 497.815c-.753 0-.873-.87-.251-.87.497.001.414-.734-.313-.936m3.605 6.864c-1.1-.805-2.514-2.213-2.86-2.615m.966 1.173c-.405.402-.84 1.608-.499 2.279.34.67.99 1.106.587 1.879-.403.772.235.537.537.604.302.067.504.168.336 1.04-.168.874 1.578 1.444 2.317 1.243.738-.202 1.108.268 1.51.47.403.201 1.075.906 1.075 1.108 0 .201.1.84-.537 1.108" class="alpha"/><path style="fill:none;stroke:#000;stroke-width:.29427487px" d="M259.557 512.479c.89 1.906 1.325 4.482-2.398 5.87-2.567.958-3.394.606-5.115 2.19-1.44 1.325-1.918 6.98-3.204 8.138-1.286 1.158-7.666 5.447-19.166 4.49-5.125-.426-6.243-1.422-6.543-1.827-.516-.693-1.032-1.727-.946-2.415"/></symbol></svg>