<svg xmlns="http://www.w3.org/2000/svg"><symbol id="igeneric" viewBox="331 302 25 25"><path class="alpha" d="M336.75 314.26c4.02 0 7.96 1.14 10.33 3.34 2.13 1.99 1.85-.62 2.78-1.24.93-.61 1.85-4.01.62-4.63-1.24-.62-1.86-1.55-3.71-.93-1.86.62-3.58-.62-9.91-.47 0 1.54-.11 3.93-.11 3.93z" style="fill:#ffd42a;stroke:#ffe680;stroke-width:.5"/><ellipse class="alpha" cx="348.16" cy="314.36" rx="2.32" ry="4.48" style="fill:#f9f9f9;stroke:#ffe680"/><path class="alpha--dark" d="m349.47 312-1.2 2.3.55 1.3" style="fill:none;stroke:#d4aa00;stroke-width:.25"/><path class="alpha" d="m344.33 315.7.4-4.9m-2.08 4.4.52-4.4m-1.94 3.88.39-4.14m-1.81 3.88.39-4.01m-1.68 3.88.26-4m-1.3 4 .26-4" style="fill:none;stroke:#ffe680;stroke-width:.5"/></symbol><symbol id="isinn" viewBox="331 302 25 25"><path style="fill:#333;stroke:#000;stroke-width:.2" d="M337.361 310.045c-.128-.019-.205.152-.209.27-.004.117-.189.404-.35.695-.16.29-.202.482-.236.804a36.19 36.19 0 0 1-.216 1.67c-.062.332.074.654.132.702.059.047-.014.181.03.332.043.15.059.322.21.357.153.035 6.612.973 7.444 1.016.09.013.163-.042.19-.221.026-.18.102-.783.115-.873.013-.09-.033-.229-.033-.229.071-.042.091-.091.095-.209.004-.117.049-.423.092-.627.043-.203.23-1.394.26-1.953.029-.559.096-.575.111-.677a.276.276 0 0 0-.217-.307c-.177-.04-7.29-.731-7.418-.75zm13.284 1.375c-.11-.013-.154.227-.166.33-.013.103.021.136-.073.68a28.74 28.74 0 0 0-.217 1.908c-.012.2-.044.501-.064.613-.02.112-.016.162.018.217 0 0-.054.123-.063.21-.01.09-.086.684-.107.864-.022.18.008.249.062.256.488.138.73-.078.822-.062.15.023.17-.28.121-.46.02-.074.149-.45.182-.794.03-.31.04-.81.088-1.131.048-.322.132-.94.186-1.25.053-.311-.011-.45.03-.563.085-.183.131-.504.065-.554-.257-.199-.61-.231-.885-.264z" class="beta"/><path style="fill:#e6e6e6" d="m337.166 310.438-.008.066.176.02.008-.067zm.31.033-.007.068.27.03.007-.067zm.403.047-.006.066.267.03.008-.067zm.404.045-.008.066.27.031.008-.068zm.405.044-.008.067.269.031.008-.068zm.404.045-.008.069.27.029.005-.066zm.402.045-.008.069.27.029.008-.067zm.404.047-.008.066.27.03.008-.067zm.405.045-.008.066.27.032.005-.069zm.402.045-.006.066.268.031.008-.068zm.404.045-.008.068.27.03.008-.067zm.405.045-.008.068.27.03.007-.067zm.402.047-.006.066.268.03.008-.067zm.404.044-.008.067.27.031.008-.068zm.405.045-.008.067.27.031.007-.068zm.404.045-.008.069.267.029.008-.066zm.402.045-.008.069.27.029.008-.067zm-6.914 3.123-.008.067.268.033.01-.067zm.403.049-.008.068.27.034.007-.069zm.404.05-.008.067.267.033.008-.066zm.402.052-.008.066.27.033.008-.066zm.404.048-.01.069.27.033.008-.068zm.403.051-.008.067.267.033.01-.067zm.404.051-.01.066.27.034.008-.067zm.402.049-.008.068.268.033.01-.068zm.403.05-.008.067.267.035.01-.066zm.404.053-.01.067.27.035.008-.067zm.402.053-.01.066.27.036.008-.069zm.403.05-.008.07.267.034.01-.068zm.402.054-.008.068.268.033.01-.066zm.404.052-.01.067.27.035.008-.067zm.403.053-.008.066.267.035.008-.066zm.402.053-.008.066.268.035.01-.068zm.402.05-.008.069.27.035.008-.068z" class="beta--light"/><path style="fill:#1a1a1a" d="M344.049 310.71c.12.161.379.462.361.581-.017.12-.159.954-.13 1.04.028.085.131.485.116.585-.014.1-.236 1.634-.271 1.73-.034.097-.24.394-.264.553-.023.157-.213.506-.445.6.303.048.57.082.75.092.09.013.163-.042.19-.221.026-.18.102-.783.115-.873.013-.09-.033-.229-.033-.229.071-.042.091-.091.095-.209.004-.117.049-.423.092-.627.043-.203.23-1.394.26-1.953.029-.559.096-.575.111-.677a.276.276 0 0 0-.217-.307c-.049-.01-.346-.043-.73-.084zm6.596.71c-.11-.013-.154.227-.166.33-.013.103.021.136-.073.68a28.924 28.924 0 0 0-.219 1.906c-.012.2-.042.501-.062.613-.02.112-.016.164.018.219 0 0-.053.12-.063.209-.01.088-.086.685-.107.865-.022.18.008.25.062.256h.002c.062.017.579.092.668.104.077-.015.096-.058.106-.098a.388.388 0 0 1-.038-.227c-.024.201-.284.174-.267.034.017-.14.073-.584.084-.868.01-.283-.061-.495-.002-.976.06-.482.128-.636.168-.957.04-.321.105-.455.156-.57.051-.116.082-.968.182-1.18-.032-.14.047-.23.135-.27-.013-.006-.041-.03-.053-.035-.055-.019-.395-.018-.531-.035z" class="beta--dark"/><path d="m347.468 319.409.028-.855-1.19-.068-.042.854c.294.016.25.333.558.35.358.02.366-.297.646-.281z" style="fill:#ccc;stroke:gray;stroke-width:.2" class="alpha"/><path style="fill:none;stroke:gray;stroke-width:.0596779px" d="m346.441 318.492-.043.865zm.13.008-.044.865zm.173.01-.043.865zm.129.008-.043.865zm.188.012-.041.863zm.15.008-.043.865zm.137.008-.043.865z" class="alpha"/><path style="fill:#b3b3b3;stroke:gray;stroke-width:.2" d="M351.508 311.5c.015-.119-.023-.355-.08-.39-.057-.035-.152-.037-.582-.256-.371-.188-.824-.74-1.262-1.237-.44-.497-1.464-.716-1.9-.77a1.916 1.916 0 0 0-1.188.252 3.528 3.528 0 0 0-.669.507c-.38.303-.793.484-1.1.555-.472.11-.659.055-.723.075-.064.02-.102.238-.117.357l1.345.156c-.279.714-.412 1.718-.524 2.614-.117.94-.209 2.038-.081 2.703l-1.36-.126c-.015.118-.077.286-.02.32.058.035.268.109.698.327.222.158.538.403.842.694.2.354.44.646.708.863.126.221.208.447.217.668l1.022.049.043-.347c.103.033.208.056.315.07.112.011.226.012.34.002l-.044.354.407.049c.06-.205.19-.406.36-.596a3.165 3.165 0 0 0 1.004-.793 6.36 6.36 0 0 1 .907-.458c.471-.11.564-.089.627-.109.064-.02.159-.24.173-.359l-1.008-.122c.375-.73.632-1.59.745-2.485.116-.936.068-1.87-.137-2.694z" class="alpha"/><ellipse style="fill:#666;stroke:#4d4d4d;stroke-width:.20000041" cx="269.571" cy="-383.659" rx="4.573" ry="2.729" transform="rotate(97.069) skewX(.161)" class="alpha--dark"/><ellipse style="fill:#4d4d4d;stroke:none;stroke-width:.05273431" cx="269.571" cy="-383.659" rx="4.276" ry="2.552" transform="rotate(97.069) skewX(.161)" class="alpha--darker"/><ellipse style="fill:#1a1a1a;stroke:none;stroke-width:.05528837" cx="504.273" cy="-303.287" rx="3.738" ry="2.91" transform="matrix(.20527 .9787 -.80514 .59308 0 0)"/><path style="fill:#e6e6e6;stroke:none;stroke-width:.05273422" d="m347.86 313.515.564-.855.155-.584-.027-.052-.333.333-.474 1.007" class="alpha--light"/><path style="fill:#333;stroke:#000;stroke-width:.10546844" d="m348.138 313.077-.16-.207-.214.452a.209.348 6.756 0 0-.141.025.209.348 6.756 0 0-.134.462.209.348 6.756 0 0 .268.162.209.348 6.756 0 0 .133-.462.209.348 6.756 0 0-.007-.028l.25-.38.006-.024z" class="alpha--darker"/><path style="fill:#e6e6e6;stroke:none;stroke-width:.05273421" d="m350.006 313.635.009-.135-.208.01-.01.134zm-.082.638-.199-.06-.025.132.2.06zm.041-.436-.602-.072-.026.214.602.073zm.058-.599v-.134l-.21.045v.134zm-.181 1.423-.192-.095-.033.13.191.095zm.172-1.827-.01-.132-.207.082.009.131zm-.282 2.216-.181-.13-.042.125.182.13zm.247-2.6-.017-.126-.205.115.018.127zm-.376 2.962-.17-.163-.048.12.169.162zm.303-3.277-.041-.194-.584.437.042.194zm-.447 3.551-.46-.563-.087.178.46.563zm.38-3.94-.033-.115-.191.178.034.116zm-.547 4.312-.141-.22-.062.103.141.22zm.441-4.644-.041-.107-.182.208.042.107zm-.628 4.938-.124-.246-.066.093.124.247zm.495-5.254-.05-.098-.168.236.049.098zm-.703 5.526-.105-.27-.071.082.104.27zm.552-5.804-.056-.088-.155.261.056.087zm-.767 6.035-.086-.291-.075.07.085.292zm.601-6.228-.098-.121-.408.829.098.12zm-.8 6.365-.194-.902-.126.094.194.902zm.619-6.622-.068-.064-.122.3.067.064zm-.869 6.831-.044-.321-.081.046.044.32zm.666-7.009-.071-.052-.105.316.072.052zm-.906 7.13-.023-.332-.082.032.023.332zm.684-7.273-.076-.038-.084.327.076.038zm-.935 7.355v-.338l-.083.017v.339zm.709-7.454-.08-.024-.063.336.08.024zm-.953 7.492.022-.342-.082.004-.022.342zm.739-7.51-.13-.016-.123 1 .13.015zm-.817 6.474-.129-.016-.124 1 .13.015zm.547-6.189.021-.341-.082.004-.022.34zm-.871 6.842-.079-.024-.064.336.08.024zm.65-6.821-.001-.339-.083.018v.339zm-.859 6.745-.076-.038-.084.327.076.038zm.63-6.684-.023-.332-.083.032.023.332zm-.836 6.566-.072-.052-.104.316.072.052zm.56-5.728-.194-.902-.125.094.194.902zm-.613 4.849-.099-.12-.408.828.098.121zm.669-5.59-.045-.322-.08.046.044.321zm-.804 6.32-.067-.065-.123.3.067.064zm.39-6.03-.085-.29-.076.07.086.291zm-.717 5.642-.056-.087-.155.26.056.088zm.518-5.443-.105-.27-.072.082.105.27zm-.662 5.2-.049-.098-.169.236.05.098zm.47-4.065-.46-.563-.087.178.46.563zm-.37 2.923-.04-.193-.584.436.042.194zm.368-3.821-.124-.247-.067.094.124.246zm-.596 4.684-.042-.107-.18.208.04.107zm.42-4.426-.14-.22-.061.103.14.22zm-.246 1.962-.602-.073-.027.215.602.073zm-.279 2.17-.034-.116-.19.179.033.115zm.23-3.56-.169-.162-.048.119.17.163zm-.372 2.93-.017-.127-.205.115.018.127zm.248-2.606-.181-.13-.042.125.182.13zm-.287 2.261-.01-.13-.207.08.009.131zm.18-1.912-.192-.095-.033.13.191.095zm-.197 1.547v-.134l-.21.045v.134zm.114-1.196-.2-.061-.025.133.2.06zm-.107.836.01-.135-.209.009-.009.135z" class="alpha--light"/><path style="fill:#e6e6e6;stroke:none;stroke-width:.05273422" d="m347.875 313.87.577 1.466.204.989-.037.049-.408-.803-.48-1.565" class="alpha--light"/><path style="fill:#333;stroke:#000;stroke-width:.10546844" d="m348.053 314.321-.178-.451-.145.136.145.472.007.005z"/><path style="fill:#e6e6e6;stroke:none;stroke-width:.05273422px" d="m348.034 314.641-1.525-3.51.059-.05 1.577 3.43z" class="alpha--light"/><path style="fill:#333;stroke:#000;stroke-width:.05273422px" d="m348.145 314.51-.356-.774a.115.191 6.756 0 0 .01-.16.115.191 6.756 0 0-.13-.099l-.093-.203-.028-.03-.075.096.002.015.108.25a.115.191 6.756 0 0-.004.136.115.191 6.756 0 0 .11.107l.344.793z" class="alpha--darker"/></symbol></svg>