<svg xmlns="http://www.w3.org/2000/svg"><symbol id="iheart" viewBox="295 187 23 23"><circle class="alpha" style="fill:#f2f2f2;fill-opacity:1;stroke:none;stroke-width:.5;stroke-miterlimit:4;stroke-dasharray:none;stroke-opacity:1" cx="333.405" cy="-148.367" r="8.455" transform="scale(1 -1) rotate(-9.03)"/><path class="alpha--light" style="fill:#fff;fill-opacity:1;stroke:none;stroke-width:.48151821;stroke-miterlimit:4;stroke-dasharray:none;stroke-opacity:1" d="M307.363 190.891a8.143 8.143 0 0 0-9.367 6.698 8.143 8.143 0 0 0-.055.421 8.143 8.143 0 0 1 9.304-6.404 8.143 8.143 0 0 1 6.752 8.945 8.143 8.143 0 0 0 .064-.292 8.143 8.143 0 0 0-6.698-9.368z"/><path class="alpha--dark" style="fill:#ccc;fill-opacity:1;stroke:none;stroke-width:.5;stroke-miterlimit:4;stroke-dasharray:none;stroke-opacity:1" d="M304.64 207.202a8.455 8.455 0 0 1-6.953-9.727 8.455 8.455 0 0 1 .087-.433 8.455 8.455 0 0 0 6.99 9.418 8.455 8.455 0 0 0 9.64-6.521 8.455 8.455 0 0 1-.036.309 8.455 8.455 0 0 1-9.727 6.954z"/><path style="fill:red;stroke:none;stroke-width:1px;stroke-linecap:butt;stroke-linejoin:miter;stroke-opacity:1" d="M306.13 196.055c-2.475-4.596-8.563.07-5.215 3.712a146.33 146.33 0 0 0 4.596 4.773s3.096-2.082 5.48-3.8c3.8-2.74-1.06-8.574-4.862-4.685z" class="beta"/></symbol><symbol id="ipeace" viewBox="295 187 23 23"><circle class="alpha" style="fill:#f2f2f2" cx="333.405" cy="-148.367" r="8.455" transform="scale(1 -1) rotate(-9.03)"/><path class="alpha--light" style="fill:#fff" d="M307.363 190.891a8.143 8.143 0 0 0-9.367 6.698 8.143 8.143 0 0 0-.055.421 8.143 8.143 0 0 1 9.304-6.404 8.143 8.143 0 0 1 6.752 8.945 8.143 8.143 0 0 0 .064-.292 8.143 8.143 0 0 0-6.698-9.368z"/><path class="alpha--dark" style="fill:#ccc" d="M304.64 207.202a8.455 8.455 0 0 1-6.953-9.727 8.455 8.455 0 0 1 .087-.433 8.455 8.455 0 0 0 6.99 9.418 8.455 8.455 0 0 0 9.64-6.521 8.455 8.455 0 0 1-.036.309 8.455 8.455 0 0 1-9.727 6.954z"/><circle class="beta" transform="scale(1 -1) rotate(-16.575)" r="6.121" cy="-103.305" cx="350" style="fill:none;fill-opacity:1;stroke:#333;stroke-width:1.5;stroke-miterlimit:4;stroke-dasharray:none;stroke-opacity:1"/><path class="beta" style="fill:none;stroke:#333;stroke-width:1.5" d="m306.79 192.782-1.601 12.092"/><path style="fill:none;stroke:#333;stroke-width:1.5" d="m301.3 202.158 4.746-3.83 3.83 4.747"/></symbol><symbol id="ismile" viewBox="295 187 23 23"><circle class="alpha" style="fill:#ffe680" cx="333.405" cy="-148.367" r="8.455" transform="scale(1 -1) rotate(-9.03)"/><path class="alpha--light" style="fill:#fff6d5;fill-opacity:1;stroke:none;stroke-width:.48151821;stroke-miterlimit:4;stroke-dasharray:none;stroke-opacity:1" d="M307.363 190.891a8.143 8.143 0 0 0-9.367 6.698 8.143 8.143 0 0 0-.055.421 8.143 8.143 0 0 1 9.304-6.404 8.143 8.143 0 0 1 6.752 8.945 8.143 8.143 0 0 0 .064-.292 8.143 8.143 0 0 0-6.698-9.368z"/><path class="alpha--dark" style="fill:#d4aa00" d="M304.64 207.202a8.455 8.455 0 0 1-6.953-9.727 8.455 8.455 0 0 1 .087-.433 8.455 8.455 0 0 0 6.99 9.418 8.455 8.455 0 0 0 9.64-6.521 8.455 8.455 0 0 1-.036.309 8.455 8.455 0 0 1-9.727 6.954z"/><ellipse class="beta" ry="2.14" rx=".416" cy="160.469" cx="325.116" style="fill:#540" transform="rotate(6.629)"/><ellipse class="beta" ry="2.14" rx=".416" cy="160.469" cx="328.759" style="fill:#540" transform="rotate(6.629)"/><path style="fill:#540" d="M309.777 201.668c-.753.97-2.616 1.897-4.346 1.715-1.766-.187-3.57-2.19-3.874-3.055 1.782 1.388 5.395 2.043 8.22 1.34z" class="beta"/><path style="fill:#540" d="M301.567 201.538c-.17-.572-.263-1.136.008-1.42.27-.285.513-.336.911-.368a1.78 1.78 0 0 0-.773.542c-.183.215-.214.685-.145 1.246zm7.747 1.266c.382-.46.688-.942.551-1.31-.136-.367-.34-.509-.694-.695.265.24.416.532.5.802.083.27-.073.715-.357 1.203z" class="beta"/></symbol></svg>