<svg xmlns="http://www.w3.org/2000/svg"><symbol id="isocks" viewBox="210 442 120 120"><path class="alpha" d="M302 479.2c-.2 9.3-2.7 13.4-3.6 14.5-1.4 1.7-1.4 6 0 8.5 1.4 2.6.3 11.4-1.7 15-2 3.3-2.6 12.7 8.6 12.7 11 0 17-5 14.8-10.4-2.2-5.4-6.8-12.2-5.3-16 1.4-3.6.8-5.4 0-10-.4-2 .6-8.5 2-15.7-.4 2.4-10.7 2.5-14.8 1.2z" style="fill:#f9f9f9;stroke:#e6e6e6;stroke-width:1"/><path class="beta" d="M291.893 431.494c-.05.722-.11 1.41-.186 2.059 2.97 1.032 6.276 1.236 9.15 1.037 1.708-.119 3.263-.38 4.516-.717.124-.033.23-.067.348-.1.123-.74.258-1.498.398-2.279-.333.148-.76.314-1.264.45-1.102.295-2.547.542-4.134.652-2.835.196-6.122-.061-8.828-1.102zm-.438 3.867a31.75 31.75 0 0 1-.4 2.002c3.1 1.199 6.628 1.434 9.672 1.223 1.642-.114 3.134-.362 4.36-.68.088-.665.218-1.45.331-2.187a8.64 8.64 0 0 1-.695.22c-1.102.296-2.548.54-4.135.65-2.943.205-6.371-.084-9.133-1.228z" style="fill:#d40000;stroke:none;stroke-width:1" transform="translate(10 50)"/><path class="alpha" d="M243.7 478.4c.8 6 1 10.4.2 12.7-1.7 4 .7 9-1.3 11.4-2 2.4-3.2 6.4-6 8.8-3 2.5-7.7 7.7-10.5 9.3-3 1.6-3.3 8.5 3.6 9.7 7 1.2 16-1.6 18-5.2 2.2-3.7 1.4-8 5.8-7.7 4.4.4 5.6-3.2 4.4-8.5-1.2-5.2-.4-7.2 0-7.6.4-.4 1.2-3.3 0-6.5-.6-1.5-.5-8 .2-15-3.3 1-13.6.7-14.5-1.3z" style="fill:#f9f9f9;stroke:#e6e6e6;stroke-width:1px"/><path class="beta" d="M247.908 431.924c-.16.064-.321.129-.504.187-.971.313-2.256.6-3.69.784-2.866.366-6.337.306-9.232-.635-.122-.04-.235-.092-.355-.135.073.748.143 1.487.187 2.164 3.193.94 6.705.965 9.655.588a23.132 23.132 0 0 0 3.777-.791c.048-.709.1-1.426.162-2.162zm-.278 4.097c-.145.054-.283.11-.444.159-1.093.332-2.53.624-4.114.787-2.76.283-5.971.155-8.672-.737.016.756-.003 1.435-.04 2.07 2.932.86 6.134.943 8.917.657a24.54 24.54 0 0 0 4.268-.805c.02-.68.048-1.39.086-2.13z" style="fill:#d40000;stroke:none;stroke-width:2" transform="translate(10 50)"/></symbol></svg>