<svg xmlns="http://www.w3.org/2000/svg"><symbol id="iboxing" viewBox="191 283 73 73"><path class="alpha" style="fill:#aa432e;fill-stroke:#633424;stroke-width:.1634094" d="M231.472 312.808c-.49-1.266-.984-3.165-1.272-5.565-.287-2.4-.34-6.522.147-8.846.486-2.324.383-3.697.201-4.467-.181-.77-3.757-5.19-4.535-5.61-.778-.42-1.21-.672-1.898-.663-.686.009-3.522-.128-4.46.313-.94.441-5.777 4.967-6.453 5.834-.676.867-1.508 2.938-1.583 3.798-.075.86-.03 11.334-.016 12.45.014 1.116.249 6.093.342 6.693.094.6.342 1.751.542 2.14.528 1.024 4.86 2.898 9.038 1.775 4.981-1.337 11.144-4.76 9.947-7.852z"/><path class="alpha--darker" style="fill:#693d30" d="M215.933 291.097c-1.262 1.172-2.425 2.315-2.73 2.707-.677.867-1.51 2.939-1.584 3.798-.075.86-.03 11.334-.015 12.45.014 1.116.248 6.093.341 6.693.094.6.342 1.751.542 2.14.32.62 2.038 1.552 4.27 1.94-.862-.599-1.641-1.422-1.892-4.03-.296-3.088-.578-18.711-.605-20.857-.016-1.258.267-2.775 1.673-4.841z"/><path class="alpha--dark" style="fill:#91442e" d="M226.164 288.424c.285.498.294 1.144.303 1.865.01.772-1.454 7.316-.522 13.143.932 5.827 1.036 7.286.96 8.06-.076.773-.72 4.216-5.505 6.079-4.67 1.819-7.389 2.712-8.973 1.174.02.051.04.102.06.14.528 1.024 4.86 2.898 9.038 1.776 4.981-1.338 11.144-4.76 9.947-7.853-.49-1.266-.984-3.165-1.272-5.565-.287-2.4-.34-6.522.147-8.846.486-2.324.383-3.697.201-4.467-.171-.73-3.378-4.72-4.384-5.506z"/><path style="fill:#a69191" d="M218.978 294.43a1.035 1.035 0 0 0-.272.035c-.343.09-3.033 1.24-4.601 2.805-1.269 1.266-2.11 2.35-2.523 2.95-.014 3.423.012 9.028.022 9.832.013 1.084.233 5.77.332 6.595.738-2.184 3.02-3.594 3.65-3.94.64-.351 3.374-1.46 4.623-1.131.507-.608.588-1.038.497-1.466-.092-.428-.62-1.495.363-1.851-.139-.771-.625-1.881-.797-1.879-.171.002-.385.048-.385.048-.223-.598-.349-10.643-.357-11.33-.006-.514-.275-.664-.552-.669z"/><path style="fill:#5c544f" d="M214.28 297.105c-.06.055-.12.11-.175.165-1.269 1.266-2.11 2.35-2.523 2.95v.47a655.706 655.706 0 0 0 0 4.635l.003 1.192c.006 1.666.013 3.174.018 3.535a60.172 60.172 0 0 0 .045 1.388c.012.314.03.692.046 1.047.016.337.029.653.046.999.033.689.07 1.37.104 1.93v.005c.035.572.067 1.02.091 1.226.521-1.54 1.807-2.692 2.742-3.361-.197-5.144-.352-13.29-.398-16.18z"/><path style="fill:#b37965" d="M223.14 312.19c.194-.396.324-1.192.32-1.557-.003-.271.121-.602.593-.608.472-.006 2.024.21 2.45.27.84.118 2.837.221 3.396.3.56.079 1.25.457 1.34.756.09.3.092.428-.122.474-.48-.552-1.21-.672-1.812-.664-.6.008-2.319-.127-2.965-.22-.514-.075-1.677-.237-1.892-.277-.216-.04-.342.133-.339.39.004.344-.118.817-.285 1.206-.167.388-.763.238-.685-.07z"/><path style="fill:#cba6a1" d="M230.062 300.829c-.957-1.439-2.32-2.568-3.773-3.48-.917-.535-1.898-1.06-2.972-1.16-.413-.007-.165.73-.278 1.059-.126 1.845.017 3.695.225 5.53 1.267-.001 2.42.659 3.438 1.35 1.495 1.08 2.852 2.455 3.6 4.163.156.444-.037-.398-.04-.57-.3-2.282-.328-4.597-.2-6.892z"/><path style="fill:#3b384d" d="M224.123 289.449c-.504-.043-.722.485-.66.907-.1 1.943-.237 3.884-.344 5.827.994.01 1.912.478 2.771.933 1.515.87 2.912 1.996 3.96 3.402.125.196.261.44.229.059.051-1.047.24-2.078.44-3.105.177-1.194.3-2.437.003-3.623-.81-1.398-2.187-2.34-3.503-3.222-.63-.38-1.206-.903-1.954-1.034-.31-.062-.625-.136-.942-.144z"/><path class="alpha--darkest" style="fill:#402527" d="M221.98 287.651c-.912.022-1.856.099-2.326.32-.938.44-5.776 4.966-6.452 5.833-.437.562-.938 1.625-1.258 2.54 1.595-1.526 6.797-6.61 7.64-7.085.939-.527 4.113-.739 4.975-.492.862.247 3.982 2.612 5.638 4.566l.012-.045c-.94-1.47-3.545-4.617-4.196-4.968-.778-.42-1.21-.672-1.897-.663-.344.004-1.224-.028-2.136-.005z"/><path style="fill:#322e3a" d="M218.54 308.513c.215.048.362-.156.36-.277l-.006-.456c-.002-.151-.034-.303-.247-.33-.124-.017-.396-.117-.396-.117-.015-1.214-.23-8.588-.23-8.588s.121-.093.272-.155c.151-.063.117-.829-.07-.789-.757.162-2.471 1.488-3.577 2.868-1.106 1.38-2.206 3.246-2.206 3.246l-.05.79s1.073-1.562 1.82-2.543c.746-.98 2.068-2.06 2.31-2.184.24-.124.364.026.37.511.006.486.18 7.041.18 7.041s-.098.11-.18.154c-.085.045-.181.09-.18.215.002.167.02.363.021.485.002.169.228.132.412.117.424-.036 1.094-.055 1.396.012z"/><path style="fill:#50383a" d="M215.898 301.101c-.078-.006-.161.025-.243.102a14.49 14.49 0 0 0-.959 1.014c-.212.243-.507.705-.497 1.494.01.789.082 4.127.088 4.613.006.486.046 1.214.497.935.452-.28.694-.403 1.055-.62.362-.218.628-.798.588-1.556-.04-.759-.094-5.017-.097-5.312-.004-.318-.197-.653-.432-.67zm-.46 1 .178 5.705-.662.418-.07-5.523z"/><path style="fill:#513e39" d="M214.245 309.797s-.906.375-1.042.392c-.006-.47-.19-1.834-.19-1.834l.362-.126-.18-3.458-.571.417-.006-.516 1.165-1.487.065 5.145z"/><path style="fill:#6d5436" d="m212.025 304.316-.444.419c.006 2.483.016 4.829.023 5.317.002.122.007.307.013.51l1.299-.269-.455-5.467-.467.456z"/><path style="fill:#342c39" d="M226.466 290.265v.024c.007.487-.572 3.275-.767 6.73l.191.097c1.515.87 2.912 1.996 3.96 3.402.079.123.162.265.204.26.058-.887.152-1.71.293-2.381a53.502 53.502 0 0 1 .167-.899 17.545 17.545 0 0 0 .159-1.344c.027-.393.03-.74.02-1.045a6.691 6.691 0 0 0-.012-.21c-.004-.067-.008-.134-.014-.196a5.851 5.851 0 0 0-.144-.853l-.001-.003c-.811-1.398-2.187-2.338-3.503-3.22-.187-.114-.37-.239-.552-.363z"/><path style="fill:#a18c81" d="M225.699 297.017c-.114 2.019-.098 4.265.246 6.415l.037.236c.247.147.487.302.72.46 1.495 1.08 2.852 2.455 3.599 4.163.05.14.062.144.06.091-.02-.12-.039-.238-.056-.36a2.76 2.76 0 0 1-.043-.301l-.015-.125c-.015-.118-.032-.232-.047-.353-.203-1.698-.288-4.255-.148-6.43-.957-1.43-2.314-2.555-3.763-3.463a20.97 20.97 0 0 0-.59-.334z"/><path style="fill:#aa432e;fill-stroke:#633424;stroke-width:.1634094" d="M223.135 312.13c-1.196-.419-2.326-.648-3.356-.635-1.03.013-4.71 1.09-5.551 2.388-.843 1.299-2.848 5.703-3.242 8.541-.393 2.839.365 8.496 1.696 11.914 1.33 3.418 4.33 9.734 9.622 14.132 5.293 4.399 9.414 4.347 13.948 3.002 4.533-1.345 8.167-6.027 9.676-8.88 1.51-2.852 3.028-8.969 2.692-11.282-.278-1.917-1.01-4.431-1.963-5.9-2.695-4.15-7.478-.592-8.607 1.783.954-4.013.747-12.33-2.423-15.124-1.933-1.705-4.18-1.236-5.376-.791-1.196.444-2.633 1.132-3.835 1.148-1.201.015-2.547-.04-3.28-.297z" class="alpha"/><path style="fill:#91442e" d="M215.664 312.766c-.642.334-1.176.715-1.436 1.117-.843 1.299-2.848 5.703-3.242 8.541-.393 2.839.365 8.496 1.696 11.914 1.33 3.418 4.329 9.734 9.622 14.132 5.293 4.399 9.414 4.347 13.948 3.002 4.534-1.345 8.167-6.027 9.676-8.88.97-1.833 1.99-5.187 2.476-7.853-.813 2.942-4.733 5.452-10.484 5.979-8.598.787-13.88-4.47-17.101-7.942-3.297-3.554-4.918-8.696-5.201-10.753-.282-2.045-.448-8.416.046-9.257zm32.898 20.777c.001.086-.003.17-.007.256l.03-.207-.023-.048z" class="alpha--dark"/><path style="fill:#402527" d="M238.306 318.548c-.448 3.566-10.275 11.682-12.951 9.62.91.761 1.34.799 2.41.57 1.175.693 2.686.728 3.953-.181.865-.621 1.653-1.15 2.338-1.443.814-.347 2.035-.383 3.993.036.511-2.86.58-6.144.257-8.602z" class="alpha--darkest"/><path style="fill:#aa432e;fill-stroke:#633424;stroke-width:.1634094" d="M232.778 310.817a7.718 7.718 0 0 0-2.527.46c-1.196.445-2.633 1.133-3.835 1.148-.896.012-1.872-.016-2.615-.137-.02.005-.05.014-.062.016-.9.14-3.671 1.72-3.533 5.84.137 4.12 2.767 8.657 4.587 9.774.996.61 1.559 1.01 2.414.742.855-.268 3.075-1.24 6.933-1.718 3.858-.478 4.734.884 7.664 1.792 2.931.908 4.104-1.425 4.853-3.324.502-1.036-.227-4.376-1.713-6.503-1.487-2.128-6.601-6.014-8.85-7.274-1.124-.63-2.285-.83-3.316-.816z" class="alpha"/><path style="fill:#693d30" d="M215.36 312.934c-.504.292-.914.613-1.132.95-.843 1.298-2.848 5.702-3.242 8.54-.393 2.839.365 8.496 1.696 11.914 1.33 3.418 4.329 9.734 9.622 14.132 5.293 4.399 9.414 4.347 13.948 3.002 3.036-.901 5.664-3.298 7.525-5.64-3.445 3.338-10.665 7.434-17.16 1.467-8.477-7.786-10.417-17.233-11.33-22.2-.9-4.897-.27-10.151.073-12.165z" class="alpha--darker"/><path style="fill:#91442e" d="M224.031 328.786c-1.482-1.785-3.033-5.629-3.808-9.225-.713-3.312.939-7.31 2.48-7.587-2.226.414-4.107 4.516-3.38 7.64 1.15 4.952 3.414 8.673 4.708 9.172z" class="alpha--dark"/><path style="fill:#c47768" d="M239.278 325.847c-1.466-.497-6.103-.525-10.383.474 1.954-1.656 2.104-3.375 2.093-4.234.363 1.541.725 2.996 1.068 2.992.386-.005.617-5.589.433-6.531.541 2.054.799 5.372 1.44 5.305.646-.067.47-3.698.457-4.642.452 1.797.977 4.796 1.391 4.79.344-.003.547-.95.54-1.552.363 1.627.286 2.315.715 2.31.43-.005 1.013-1.387 1.173-2.333-.121 1.335-.089 2.226.222 2.319.423.126.57-.3.691-.612.088.733-.015 1.518.16 1.714z" class="alpha--light"/><path style="fill:none;fill-stroke:#633424;stroke-width:.1634094" d="M228.32 328.389c-1.102 1.13-4.434 2.46-5.288 2.814" class="alpha"/><path style="fill:#c47768" d="M239.402 328.85c-.435-.466-1.514-.925-2.245-.959-.73-.034-.763.782.053.772.815-.01.946.16 1.596.624.65.464.942-.183.596-.437z" class="alpha--light"/><path style="fill:none;fill-stroke:#633424;stroke-width:.1634094" d="M226.872 334.424c.7-1.444 3.381-5.017 5.138-6.092" class="alpha"/><path style="fill:#693d30" d="M235.2 326.225c-.312.001-.63.012-.955.032-2.996.188-6.175 1.474-6.96 1.848-.784.374-1.45.443-2.43-.212.01.028.023.055.034.083.932.574 1.493.943 2.318.684.855-.268 3.075-1.24 6.933-1.718 3.858-.478 4.734.884 7.664 1.792 2.41.747 3.631-.7 4.405-2.292 0-.01 0-.021-.002-.032-1.068 1.987-2.704 2.432-5.604.951-1.343-.686-3.216-1.142-5.402-1.136z" class="alpha--darker"/><path style="fill:#ad7d68" d="M231.904 328.411c-.365-.056-.667.07-1.09.257-.422.187-1.026.438-2.064.026-.205.106-.41.25-.647.264.874.826 1.91 1.238 2.452.806.54-.432.63-.615.901-.74.272-.125.573-.34.509-.613"/><path class="alpha" style="fill:#aa432e;fill-stroke:#633424;stroke-width:.16340938" d="M333.648 315.543c.361-1.308.665-3.246.713-5.664.049-2.417-.309-6.522-1.023-8.787-.714-2.265-.747-3.64-.643-4.426.104-.784 3.224-5.537 3.957-6.032.732-.494 1.137-.788 1.822-.848.684-.06 3.492-.476 4.47-.13.978.346 6.24 4.37 6.999 5.165.758.796 1.792 2.774 1.952 3.622.16.848 1.154 11.276 1.25 12.388.097 1.112.357 6.088.324 6.694-.033.606-.166 1.776-.327 2.183-.424 1.07-4.549 3.365-8.817 2.663-5.09-.838-11.561-3.631-10.677-6.828z"/><path class="alpha--darker" style="fill:#693d30" d="M346.957 292.398c1.372 1.042 2.643 2.064 2.986 2.423.758.796 1.792 2.775 1.952 3.622.16.848 1.153 11.276 1.25 12.388.097 1.112.357 6.087.324 6.694-.034.606-.166 1.776-.327 2.183-.257.649-1.874 1.746-4.057 2.354.798-.682 1.493-1.578 1.483-4.199-.011-3.101-1.28-18.676-1.466-20.814-.109-1.253-.541-2.734-2.145-4.65z"/><path class="alpha--dark" style="fill:#91442e" d="M336.511 290.753c-.234.524-.179 1.168-.116 1.886.067.77 2.172 7.136 1.823 13.027-.35 5.89-.309 7.352-.156 8.114.152.763 1.134 4.124 6.08 5.504 4.829 1.347 7.622 1.966 9.046.278-.015.053-.03.106-.046.146-.424 1.07-4.549 3.365-8.817 2.663-5.09-.838-11.561-3.631-10.677-6.828.361-1.308.665-3.246.713-5.663.049-2.418-.308-6.523-1.023-8.788-.714-2.265-.747-3.64-.643-4.425.098-.743 2.894-5.033 3.816-5.914z"/><path style="fill:#a69191" d="M344.258 296.016c.092-.01.187-.005.274.009.35.056 3.14.933 4.857 2.335 1.388 1.134 2.333 2.128 2.802 2.685.354 3.405.884 8.985.954 9.786.094 1.08.34 5.764.324 6.596-.952-2.101-3.363-3.277-4.024-3.559-.671-.286-3.501-1.118-4.712-.668-.565-.554-.688-.974-.64-1.409.05-.435.47-1.549-.544-1.805.061-.781.435-1.934.606-1.95.17-.014.389.01.389.01.161-.617-.71-10.625-.769-11.31-.044-.512.207-.688.483-.72z"/><path style="fill:#5c544f" d="M349.198 298.213c.064.049.13.097.19.147 1.389 1.133 2.334 2.128 2.803 2.684l.048.469c.08.775.162 1.586.25 2.471l.208 2.14a1487.005 1487.005 0 0 1 .448 4.707c.023.264.056.754.09 1.341l.003.044c.019.313.038.691.057 1.047.019.336.037.652.054.998.035.689.066 1.37.088 1.93v.006c.023.573.035 1.021.031 1.23-.67-1.482-2.065-2.501-3.062-3.074-.314-5.138-.968-13.258-1.208-16.14z"/><path style="fill:#b37965" d="M341.878 314.102c-.233-.375-.441-1.154-.473-1.517-.024-.27-.18-.588-.65-.547-.471.04-1.993.41-2.412.511-.823.201-2.8.503-3.35.636-.548.134-1.199.579-1.258.886-.06.306-.048.435.17.459.421-.597 1.137-.789 1.736-.84.599-.053 2.295-.356 2.928-.514.504-.125 1.646-.402 1.856-.463.21-.061.353.098.376.355.03.342.199.802.403 1.172.205.37.783.16.674-.138z"/><path style="fill:#cba6a1" d="M333.863 303.483c.81-1.526 2.053-2.785 3.409-3.836.86-.624 1.784-1.243 2.842-1.45.411-.047.237.71.382 1.026.308 1.824.35 3.68.325 5.525-1.261.125-2.342.896-3.288 1.685-1.38 1.223-2.594 2.726-3.168 4.5-.112.457-.003-.4-.018-.572.073-2.3-.13-4.607-.484-6.878z"/><path style="fill:#3b384d" d="M338.644 291.57c.497-.092.767.412.747.837.292 1.924.62 3.843.92 5.765-.988.108-1.855.666-2.665 1.203-1.421 1.017-2.7 2.275-3.604 3.778-.104.208-.215.465-.22.081-.156-1.037-.446-2.044-.746-3.046-.295-1.17-.541-2.395-.363-3.604.668-1.472 1.944-2.545 3.167-3.554.59-.441 1.11-1.018 1.841-1.222.303-.093.608-.198.923-.237z"/><path class="alpha--darkest" style="fill:#402527" d="M340.599 289.57c.91-.07 1.856-.087 2.345.086.978.346 6.24 4.37 6.999 5.165.491.516 1.094 1.525 1.504 2.404-1.739-1.361-7.419-5.905-8.306-6.293-.986-.432-4.165-.327-4.998.004-.833.33-3.704 2.994-5.158 5.102l-.016-.044c.79-1.556 3.07-4.946 3.682-5.36.733-.494 1.138-.788 1.823-.848.342-.03 1.215-.148 2.125-.217z"/><path style="fill:#322e3a" d="M346.09 309.987c-.21.07-.375-.12-.386-.24l-.04-.454c-.012-.151.005-.305.214-.354.122-.028.382-.155.382-.155-.105-1.21-.623-8.568-.623-8.568s-.129-.08-.285-.128c-.157-.047-.2-.813-.008-.791.769.085 2.605 1.235 3.843 2.499 1.237 1.263 2.516 3.01 2.516 3.01l.13.782s-1.224-1.448-2.064-2.35c-.84-.902-2.263-1.844-2.515-1.944-.252-.1-.36.062-.318.545.042.484.52 7.024.52 7.024s.107.1.194.136c.089.036.189.07.2.195.014.167.016.364.027.486.014.167-.213.153-.398.156-.426.007-1.094.055-1.388.151z"/><path style="fill:#50383a" d="M347.984 302.35c.077-.013.163.008.252.077.408.315.773.649 1.055.914.235.22.575.65.643 1.437.068.786.327 4.115.37 4.6.041.483.074 1.211-.403.979-.477-.233-.73-.333-1.11-.513-.382-.18-.704-.731-.74-1.49-.035-.758-.404-5.001-.43-5.294-.028-.318.131-.67.363-.71zm.557.95.389 5.694.7.35-.479-5.503z"/><path style="fill:#513e39" d="M350.491 310.839s.94.283 1.077.287c-.041-.469.007-1.844.007-1.844l-.374-.09-.164-3.459.61.358-.044-.514-1.307-1.364.446 5.126z"/><path style="fill:#6d5436" d="m352.157 305.164.483.373c.241 2.472.463 4.807.505 5.294.01.121.024.305.038.508l-1.32-.138-.09-5.486.51.408z"/><path style="fill:#342c39" d="m336.393 292.616.002.023c.043.486.896 3.202 1.432 6.62-.06.04-.122.077-.18.116-1.422 1.017-2.7 2.275-3.604 3.778-.066.13-.134.28-.177.278-.146-.876-.321-1.685-.527-2.34l-.003-.008c-.082-.29-.166-.58-.252-.868l-.023-.09a17.516 17.516 0 0 1-.269-1.231c-.066-.39-.104-.734-.124-1.039a7.393 7.393 0 0 1-.009-.21l-.006-.196c0-.288.017-.576.06-.863v-.003c.668-1.472 1.944-2.544 3.166-3.553.175-.13.344-.273.514-.415z"/><path style="fill:#a18c81" d="M337.826 299.257c.314 1.998.52 4.235.392 6.409l-.014.238c-.23.17-.455.349-.67.53-1.381 1.221-2.595 2.725-3.169 4.499-.035.143-.047.15-.05.096l.02-.364c.009-.128.017-.25.012-.304l.002-.125c.004-.12.01-.235.012-.356.034-1.71-.135-4.262-.49-6.413.81-1.519 2.05-2.772 3.4-3.82.182-.131.367-.262.555-.39z"/><path style="fill:#aa432e;fill-stroke:#633424;stroke-width:.16340938" d="M341.876 314.041c1.15-.534 2.251-.874 3.278-.964 1.026-.089 4.793.617 5.76 1.826.967 1.209 3.4 5.392 4.073 8.178.673 2.785.48 8.49-.506 12.023-.985 3.533-3.343 10.115-8.173 15.017-4.83 4.901-8.936 5.258-13.581 4.37-4.645-.889-8.725-5.188-10.51-7.876-1.785-2.69-3.902-8.625-3.797-10.96.087-1.935.565-4.51 1.368-6.065 2.27-4.397 7.382-1.332 8.741.92-1.347-3.898-1.966-12.196.91-15.29 1.755-1.888 4.037-1.644 5.272-1.32 1.235.323 2.732.866 3.93.761 1.197-.104 2.53-.292 3.235-.62z" class="alpha"/><path style="fill:#91442e" d="M349.374 313.934c.672.269 1.24.595 1.54.969.967 1.209 3.4 5.392 4.072 8.178.674 2.785.48 8.49-.505 12.023-.985 3.533-3.343 10.115-8.173 15.017-4.83 4.901-8.937 5.258-13.581 4.37-4.645-.89-8.725-5.188-10.51-7.876-1.147-1.728-2.494-4.965-3.242-7.57 1.1 2.848 5.25 4.956 11.025 4.91 8.633-.069 13.37-5.825 16.23-9.599 2.927-3.863 4.03-9.14 4.108-11.216.078-2.062-.389-8.418-.964-9.206zm-30.675 23.938c.007.085.019.169.032.253-.017-.067-.035-.137-.05-.203l.018-.05z" class="alpha--dark"/><path style="fill:#402527" d="M327.417 321.933c.799 3.504 11.383 10.605 13.842 8.288-.831.848-1.255.928-2.343.807-1.1.806-2.6.99-3.95.21-.924-.531-1.76-.98-2.47-1.203-.845-.264-2.064-.179-3.97.432-.793-2.795-1.187-6.056-1.109-8.534z" class="alpha--darkest"/><path style="fill:#aa432e;fill-stroke:#633424;stroke-width:.16340938" d="M332.15 313.691a7.719 7.719 0 0 1 2.561.208c1.235.324 2.732.866 3.93.762.893-.077 1.862-.202 2.589-.396.02.003.05.009.063.01.91.05 3.824 1.348 4.095 5.461.272 4.113-1.895 8.889-3.596 10.18-.93.707-1.45 1.16-2.328.978-.877-.182-3.183-.93-7.07-1.022-3.885-.093-4.622 1.35-7.448 2.544-2.826 1.194-4.224-1.011-5.158-2.826-.602-.982-.208-4.377 1.06-6.642 1.268-2.265 5.972-6.638 8.084-8.115 1.056-.738 2.192-1.052 3.219-1.142z" class="alpha"/><path style="fill:#693d30" d="M349.693 314.07c.53.241.97.52 1.221.833.967 1.209 3.4 5.392 4.072 8.178.674 2.785.48 8.49-.505 12.023-.985 3.533-3.343 10.115-8.173 15.017-4.83 4.901-8.937 5.258-13.581 4.37-3.111-.596-5.964-2.72-8.048-4.866 3.759 2.98 11.35 6.34 17.222-.242 7.662-8.589 8.656-18.181 9.071-23.214.41-4.962-.738-10.129-1.28-12.098z" class="alpha--darker"/><path style="fill:#91442e" d="M342.637 330.705c1.297-1.923 2.46-5.902 2.874-9.558.382-3.366-1.659-7.18-3.22-7.304 2.256.192 4.534 4.087 4.122 7.269-.654 5.04-2.538 8.968-3.776 9.593z" class="alpha--dark"/><path style="fill:#c47768" d="M327.174 329.292c1.409-.64 6.02-1.127 10.379-.558-2.109-1.454-2.429-3.15-2.503-4.005-.208 1.57-.424 3.053-.766 3.083-.385.033-1.168-5.5-1.079-6.456-.334 2.097-.262 5.424-.907 5.422-.649-.003-.833-3.633-.915-4.574-.271 1.833-.496 4.869-.91 4.905-.341.03-.637-.893-.689-1.491-.2 1.655-.056 2.331-.483 2.369-.428.037-1.146-1.28-1.399-2.206.253 1.317.31 2.207.01 2.33-.41.168-.598-.242-.749-.54-.015.738.166 1.51.01 1.721z" class="alpha--light"/><path style="fill:none;fill-stroke:#633424;stroke-width:.16340938" d="M338.33 330.735c1.209 1.015 4.656 2.008 5.541 2.275" class="alpha"/><path style="fill:#c47768" d="M327.348 332.293c.387-.508 1.415-1.071 2.139-1.177.723-.106.836.703.024.774-.813.07-.926.252-1.527.779-.6.526-.955-.09-.636-.376z" class="alpha--light"/><path style="fill:none;fill-stroke:#633424;stroke-width:.16340938" d="M340.37 336.597c-.84-1.367-3.863-4.658-5.718-5.553" class="alpha"/><path style="fill:#693d30" d="M331.269 329.264c.31-.03.629-.05.954-.063 3-.11 6.29.854 7.108 1.149.818.294 1.488.297 2.398-.452l-.026.085c-.87.664-1.392 1.087-2.239.911-.877-.182-3.183-.93-7.07-1.022-3.885-.093-4.622 1.35-7.448 2.544-2.324.982-3.682-.336-4.61-1.844l-.002-.032c1.26 1.871 2.933 2.151 5.671.39 1.27-.816 3.087-1.455 5.264-1.666z" class="alpha--darker"/><path style="fill:#ad7d68" d="M334.766 331.113c.357-.092.67.003 1.11.147.439.145 1.064.334 2.056-.179.214.085.432.209.67.199-.787.908-1.778 1.42-2.36 1.045-.58-.376-.687-.55-.97-.647-.283-.097-.604-.283-.567-.56"/></symbol><symbol id="ilab" viewBox="191 283 73 73"><g id="gloves_lab_left"><path class="alpha--darker" d="M337.4 332.5c-.3 2.5-.2 4.4 1 6.4l-1 1c-.6-1.8-1.4-3-2.4-3.8-1-1-3.6 0-1.3 3.7l1.3 2.6c-1.4-.7-2.8-.6-3.7-.2-1.4.6-1 2 .5 2.3 1.5.4 2.7 1.5 3.7 2.6 2 .3 2-1.4 2-2.3 2-1 6.4-5 5.8-6l-1-2c1-1.6.5-3.2-5-4.5z" style="fill:#000;stroke:#000;stroke-width:.5"/><path class="alpha" d="M337.4 316.8c-.8 1.3-3 2.6-4.4 6-1.7 4-2 7.6-2.4 8.6-.6 1-.3 4.7-1 5.7-.8 1-1 3.7-1.4 5.2-2.4 6.5 3.6 4.3 4 2.2.3-1.2.8-2.7.8-3.6.6-1.6 1.4-2.7 1.4-3.5 2-2.3 1.2-4.4 2.5-4.3 1.5.2 3 .6 4.6 5.7.2.6-2.6 2.8-3 4.2-1 .5-2.3 1.8-3.5 3.2-1 0-3.5.4-4.5 1-1 1-1 1.8.3 1.6 1.3-.3 2.3 0 2.7-.3.8.2 2.3.4 3.4 0 1.4-.4 2.5-1.8 4-2.5 1.7-.7 2.2-2 3.5-3.2 1.5-1.3 3-2.2 4-3.5 1-1.5 1.2-3.3 1-4-1-3.4-.5-9.5-2-15l-3-1-2-.8z" style="fill:#333;stroke:#000;stroke-width:1;stroke-dashoffset:0"/><path class="alpha--dark" d="M336 328.8c-.2 3-1 5.8-2 7-.2-.3 0-.7-.3-.8.3 2-.6 4-1.2 5 0 0 0-.5-.2-.8 0 1.5-.4 3.4-1.3 5-.6 1.2-2.5 1.6-3.3 1 .2 1.8 2 1.5 3.4.6.2 0 .3 0 .4-.2.5-.3.8-.8 1-1.2 0-1.2.6-2.7.6-3.6.6-1.6 1.4-2.7 1.4-3.5 2-2.3 1.2-4.4 2.5-4.3 1.5.2 3 .6 4.6 5.7 0 .3-.4.8-1 1.5 1.4-.6 2.6-.6 3.7-.4-2.2-1.2-2.6-2.7-3.8-5l1.6 2c-2-4-2.8-4-4.3-4.5l1.6-1.4c-1 0-1.5.6-2.2.8l.2-2.2c-.3.6-.4 1-.6 2.2l-.6-3zm13 3.4-1 .5 1.4 2.8c.3.7-.3 2-.8 2.2-.5.2-1-2.6-2-4.8 0 .5.7 2.7 1 3.5.6.8 0 1.8-.6 1.6-.5 0-1-1.5-1.6-3.7 0 1 1 4.8 1 5.3 0 .4-.8 1-2.2 1.5-1.5.5-1.8 3.3-3.6 3.7-1.7.3-2.2 1-3 2.4-.7 1.4-1 1-2.5.6-1-.4-3.7 1-5 1 0 .2.3.3.8.2 1.3-.3 2.3 0 2.7-.3.8.2 2.3.4 3.4 0 1.4-.4 2.5-1.8 4-2.5 1.7-.7 2.2-2 3.5-3.2 1.5-1.3 3-2.2 4-3.5 1-1.5 1.2-3.3 1-4-.3-1-.4-2-.5-3zm-20 6-.6 3.2c.6-.6 1.2-.3 2-.5 1-.5 1-1.5 0-2-.7-.2-1-.5-1.3-.8z" style="fill:#1a1a1a;stroke:none"/><path class="alpha" d="M335.3 319c-1-2.6-1.7-3.2-1-6 .2-1.7-2-12.8-4.4-19 0-5 18.6-7.7 21.5-1 .4 4.8 0 14.4.2 18.8 0 5.5-3 6-3.7 11.2" style="fill:#333;stroke:#000;stroke-width:1"/></g><g id="gloves_lab_right"><path class="alpha" d="M227 312c-3.3-.2-9.8.6-11.6 2.2 0 1 0 2.6-.7 4.5-2 5.6.3 10.6-.2 12.6-.6 2-.3 1.8.3 2.5.5.7 1 2 1.8 2.2.7.2 2.5.2 3-.2.7 1.3 1.7 3.5 2.4 3.6 1.6.3 4.5 2 5.5.8 1.6 0 4 1 7.8-1.6.2.7 1 2.8 1.4 3 .3.7 2 1 2-.3 0-2 .2-6.5-1-9.2-1-2.6-.3-7.6-1-9.4-.4-1.8-2-5-4-7-1.3-1.4-2.6-1.7-3.5-3.3-.2-.3-1-.4-2-.4zm5.5 17.4c0 .8-.3 2 .3 3.2-.8-.8-1.4-.7-2.4-.6.7-1.7 1-2 2-2.6z" style="fill:#333;stroke:#000;stroke-width:1;stroke-dashoffset:0"/><path class="alpha" d="M231.3 340.3c-3-2.6-4.6-6-6.5-6.7-1.8-.7-2.4-.2-2-4" style="fill:#333;stroke:#000;stroke-width:.5"/><path class="alpha--dark" d="M215.8 331.4s.6-2.3.6-3.8c.8 1 .8 1.4-.6 3.8zm12.6-19.4c.7 1.6.8 2.7 2.6 3.8 2 1 3 6 4.2 7.2 1 1 .8 3 .6 4 0 1 0 4.4 1.2 6 1.3 1.5 1.3 6.5 1 7-.2.3-3.2-2.3-2.7-5.5-1.2-2-2-5-1.6-6.2.4-1 .6-4 0-5.6.2 1.5-.5 4-1 5 .5-1.7.4-2.8 0-3.5 0 1.7-.4 3-.8 4-.4-1.6-.4-1.8-1-3 .5 1.5 0 2.8 0 3.7-.8-1.3-2.5-.4-4.2-2.5.8 3.3-1 3.6-1 4.6.2 1.2-1.8 1.7-2.7 1.4 1.4 1 2.6 1.4 4.7 1.4 2 0 4.2 1 5.3 2.3 0-.8 1-1.7 1-1 .3.8 1 3.5-.4 3.5s-1.7 1.5-2.8 1c-1-.5-4.4-5.4-6-6 1.2 1.8 2 3.7 2 4.4 0 1-1.3 1-2.2-.3.2 1.3-.8 1.6-1.3 1.3-.6-.3-2-1.6-2.7-2 0-.2-.4-.4-.7-.7.6 1.3 1.4 3 2 3 1.6.4 4.5 2 5.5 1 1.6-.2 4 .8 7.8-1.7.2.7 1 2.8 1.4 3 .3.7 2 1 2-.4 0-1.8.2-6.4-1-9-1-2.8-.3-7.8-1-9.6-.4-1.8-2-5-4-7-1.3-1.4-2.6-1.7-3.5-3.3l-.8-.3zm4 17.4c0 .8-.2 2 .4 3.2-.8-.8-1.4-.7-2.4-.6.7-1.7 1-2 2-2.6zm-15 4.4c.5 1.3.8 1.5-2.4 0v.5c.5.7 1 1.4 1.6 1.7.7.2 2.2.2 3 0l-2-2.3zm2.3-4.1c1.4-1 1.3-3.3.8-3.4-.5-.2-1 0-1 0 .3 1.3.2 3.4.2 3.4z" style="fill:#1a1a1a;stroke:none"/><path class="alpha--dark" d="M224.8 330.2c-.8-2-1.4-4.3-1.4-4.3.8-.4 1.6 0 2-.7.3-.5.2-1 .3-2 .6 2.7-1 3.5-1 7z" style="fill:#1a1a1a;stroke:none"/><path class="alpha" d="M226.8 340.5c-2.2-2.5-5-6.8-6.4-7-1.4-.3-2-1.6-2-3.5m1.1 6.2c-1-1.3-1.5-2-2.5-3m13-5.2c.2 2 .8 1.8.4 4.3 1 .3 2.4 3 2.8 4.2" style="fill:#333;stroke:#000;stroke-width:.5"/><path class="alpha" d="M235.2 338.7c-.5-1.3-1.2-3-1-4-.8-1-.8-1-1.8-2.7" style="fill:none;stroke:#000;stroke-width:1;stroke-dashoffset:0"/><path class="alpha--dark" d="M231.6 319c.2.7-.2 2-.2 3.2l-2-2c.7 2.2.8 4 .8 4.6-1-1-2.2-1.8-2.2-1.8 1.5 2.7 2.5 3.8 2.7 4.6.4-2 .2-4 0-4.5.8 1.5.8 2.7 1.2 3.5.6-1.8-.5-7-.4-7.6zm1.8 4.8c.5-1.7-.3-2.5-.6-3.5-.2 1.5.6 2.7.6 3.5zm-10.8 6c-1 .5-2 .7-2 1.4-.2.8-.8 1.6-1.6 1.5 1.4 1.3 4.4.6 5.7.8-1.8-.8-2-.3-2-3.7z" style="fill:#1a1a1a;stroke:none"/><path class="alpha" d="M230.2 313c.4-1.7 1.2-1.5 0-5.7-.6-1.6 1.7-13.7 2.3-16-4.5-7-22.5-2-22.3 2 .6 6.7 3.3 17.3 3 19.3-.7 6.2 1.6 4.7 1.4 6.7" style="fill:#333;stroke:#000;stroke-width:1"/></g></symbol><symbol id="imotorcycle" viewBox="206 308 40 40"><g id="gloves_motorcycle_right"><path class="alpha" d="M227 312c-3.3-.2-9.8.6-11.6 2.2 0 1 0 2.6-.7 4.5-2 5.6.3 10.6-.2 12.6-.6 2-.3 1.8.3 2.5.5.7 1 2 1.8 2.2.7.2 2.5.2 3-.2.7 1.3 1.7 3.5 2.4 3.6 1.6.3 4.5 2 5.5.8 1.6 0 4 1 7.8-1.6.2.7 1 2.8 1.4 3 .3.7 2 1 2-.4 0-1.8.2-6.4-1-9-1-2.8-.3-7.8-1-9.6-.4-1.8-2-5-4-7-1.3-1.4-2.6-1.7-3.5-3.3-.2-.3-1-.4-2-.4zm-4.3 3h.7s1.7 6 1 9.4c-3 .4-6 1-8.7 1.8-.6-4.5.2-7.3.6-9.5 2.4-1.2 4.7-1.6 6.4-1.6zm9.8 14.4c0 .8-.3 2 .3 3.2-.8-.8-1.4-.7-2.4-.6.7-1.7 1-2 2-2.6z" style="fill:#333;stroke:#000;stroke-width:1;stroke-linecap:round;stroke-linejoin:round;stroke-miterlimit:4;stroke-opacity:1;stroke-dasharray:none"/><path class="alpha--dark" d="M228.4 312c.7 1.6.8 2.7 2.6 3.8 2 1 3 6 4.2 7.2 1 1 .8 3 .6 4 0 1 0 4.4 1.2 6 1.3 1.5 1.3 6.5 1 7-.2.3-3.2-2.3-2.7-5.5-1.2-2-2-5-1.6-6.2.4-1 .6-4 0-5.6.2 1.5-.5 4-1 5 .5-1.7.4-2.8 0-3.5 0 1.7-.4 3-.8 4-.4-1.6-.4-1.8-1-3 .5 1.5 0 2.8 0 3.7-.8-1.3-2.5-.4-4.2-2.5.8 3.3-1 3.6-1 4.6.2 1.2-1.8 1.7-2.7 1.4 1.4 1 2.6 1.4 4.7 1.4 2 0 4.2 1 5.3 2.3 0-.8 1-1.7 1-1 .3.8 1 3.5-.4 3.5s-1.7 1.5-2.8 1c-1-.5-4.4-5.4-6-6 1.2 1.8 2 3.7 2 4.4 0 1-1.3 1-2.2-.3.2 1.3-.8 1.6-1.3 1.3-.6-.3-2-1.6-2.7-2 0-.2-.4-.4-.7-.7.6 1.3 1.4 3 2 3 1.6.4 4.5 2 5.5 1 1.6-.2 4 .8 7.8-1.7.2.7 1 2.8 1.4 3 .3.7 2 1 2-.4 0-1.8.2-6.4-1-9-1-2.8-.3-7.8-1-9.6-.4-1.8-2-5-4-7-1.3-1.4-2.6-1.7-3.5-3.3l-.8-.3zm4 17.4c0 .8-.2 2 .4 3.2-.8-.8-1.4-.7-2.4-.6.7-1.7 1-2 2-2.6zm-15 4.4c.5 1.3.8 1.5-2.4 0v.5c.5.7 1 1.4 1.6 1.7.7.2 2.2.2 3 0l-2-2.3z" style="fill:#1a1a1a;stroke:none;stroke-width:.5"/><path class="alpha" d="M231.3 340.3c-3-2.6-4.6-6-6.5-6.7-1.8-.7-2.4-.2-2-4" style="fill:#333;stroke:#000;stroke-width:.5"/><path class="alpha--dark" d="M222.6 329.8c-1 .5-2 .7-2 1.4-.2.8-.8 1.6-1.6 1.5 1.4 1.3 4.4.6 5.7.8-1.8-.8-2-.3-2-3.7zm-6.8 1.6s.6-2.3.6-3.8c.8 1 .8 1.4-.6 3.8zm3.9-1.7c1.4-1 1.3-3.3.8-3.4-.5-.2-1 0-1 0 .3 1.3.2 3.4.2 3.4zm5.1.5c-.8-2-1.4-4.3-1.4-4.3.8-.4 1.6 0 2-.7.3-.5.2-1 .3-2 .6 2.7-1 3.5-1 7z" style="fill:#1a1a1a;stroke:none;stroke-width:.5"/><path class="alpha" d="M226.8 340.5c-2.2-2.5-5-6.8-6.4-7-1.4-.3-2-1.6-2-3.5" style="fill:#333;stroke:#000;stroke-width:.5"/><path class="alpha--dark" d="M219.5 336.2c-1-1.3-1.5-2-2.5-3" style="fill:#333;stroke:#000;stroke-width:.5"/><path class="alpha" d="M230 328c.2 2 .8 1.8.4 4.3 1 .3 2.4 3 2.8 4.2" style="fill:#333;stroke:#000;stroke-width:.5"/><path class="alpha" d="M235.2 338.7c-.5-1.3-1.2-3-1-4-.8-1-.8-1-1.8-2.7" style="fill:none;stroke:#000;stroke-width:1"/><path class="alpha" d="M216.6 316.5c1.5-.6 4.4-1.7 6.6-1.7 2.3 0 2.7-.2 2.7-.2l1.6-1.3-2-1.5c-3 .4-6 0-9.3 2" style="fill:none;stroke:#000;stroke-width:.5"/><path class="alpha--dark" d="M231.6 319c.2.7-.2 2-.2 3.2l-2-2c.7 2.2.8 4 .8 4.6-1-1-2.2-1.8-2.2-1.8 1.5 2.7 2.5 3.8 2.7 4.6.4-2 .2-4 0-4.5.8 1.5.8 2.7 1.2 3.5.6-1.8-.5-7-.4-7.6zm1.8 4.8c.5-1.7-.3-2.5-.6-3.5-.2 1.5.6 2.7.6 3.5z" style="fill:#1a1a1a;stroke:none;stroke-width:.5"/></g><g id="gloves_motorcycle_left"><path class="alpha--darker" d="M337.4 332.5c-.3 2.5-.2 4.4 1 6.4l-1 1c-.6-1.8-1.4-3-2.4-3.8-1-1-3.6 0-1.3 3.7l1.3 2.6c-1.4-.7-2.8-.6-3.7-.2-1.4.6-1 2 .5 2.3 1.5.4 2.7 1.5 3.7 2.6 2 .3 2-1.4 2-2.3 2-1 6.4-5 5.8-6l-1-2c1-1.6.5-3.2-5-4.5z" style="fill:#000;stroke:#000;stroke-width:.5"/><path class="alpha" d="M337.4 316.8c-.8 1.3-3 2.6-4.4 6-1.7 4-2 7.6-2.4 8.6-.6 1-.3 4.7-1 5.7-.8 1-1 3.7-1.4 5.2-2.4 6.5 3.6 4.3 4 2.2.3-1.2.8-2.7.8-3.6.6-1.6 1.4-2.7 1.4-3.5 2-2.3 1.2-4.4 2.5-4.3 1.5.2 3 .6 4.6 5.7.2.6-2.6 2.8-3 4.2-1 .5-2.3 1.8-3.5 3.2-1 0-3.5.4-4.5 1-1 1-1 1.8.3 1.6 1.3-.3 2.3 0 2.7-.3.8.2 2.3.4 3.4 0 1.4-.4 2.5-1.8 4-2.5 1.7-.7 2.2-2 3.5-3.2 1.5-1.3 3-2.2 4-3.5 1-1.5 1.2-3.3 1-4-1-3.4-.5-9.5-2-15l-10-3.5zm5.6 4.8 4.5.5c.3 1.4.7 6.6 1 9-.5.4-1.3.8-3.5.8-.4-1.2-2.7-6-2-10.2z" style="fill:#333;stroke:#000;stroke-width:1;stroke-linecap:round;stroke-linejoin:miter;stroke-miterlimit:4;stroke-opacity:1;stroke-dasharray:none"/><path class="alpha" d="M347.8 320c-1.3.2-2.5-.2-3.5-.6l-2.5-1-1.7 1 .8 2.2c2 0 4.4 2 7.6 1" style="fill:#333;stroke:#000;stroke-width:.5"/><path class="alpha--dark" d="M336 328.8c-.2 3-1 5.8-2 7-.2-.3 0-.7-.3-.8.3 2-.6 4-1.2 5 0 0 0-.5-.2-.8 0 1.5-.4 3.4-1.3 5-.6 1.2-2.5 1.6-3.3 1 .2 1.8 2 1.5 3.4.6.2 0 .3 0 .4-.2.5-.3.8-.8 1-1.2 0-1.2.6-2.7.6-3.6.6-1.6 1.4-2.7 1.4-3.5 2-2.3 1.2-4.4 2.5-4.3 1.5.2 3 .6 4.6 5.7 0 .3-.4.8-1 1.5 1.4-.6 2.6-.6 3.7-.4-2.2-1.2-2.6-2.7-3.8-5l1.6 2c-2-4-2.8-4-4.3-4.5l1.6-1.4c-1 0-1.5.6-2.2.8l.2-2.2c-.3.6-.4 1-.6 2.2l-.6-3zm13 3.4-1 .5 1.4 2.8c.3.7-.3 2-.8 2.2-.5.2-1-2.6-2-4.8 0 .5.7 2.7 1 3.5.6.8 0 1.8-.6 1.6-.5 0-1-1.5-1.6-3.7 0 1 1 4.8 1 5.3 0 .4-.8 1-2.2 1.5-1.5.5-1.8 3.3-3.6 3.7-1.7.3-2.2 1-3 2.4-.7 1.4-1 1-2.5.6-1-.4-3.7 1-5 1 0 .2.3.3.8.2 1.3-.3 2.3 0 2.7-.3.8.2 2.3.4 3.4 0 1.4-.4 2.5-1.8 4-2.5 1.7-.7 2.2-2 3.5-3.2 1.5-1.3 3-2.2 4-3.5 1-1.5 1.2-3.3 1-4-.3-1-.4-2-.5-3zm-20 6-.6 3.2c.6-.6 1.2-.3 2-.5 1-.5 1-1.5 0-2-.7-.2-1-.5-1.3-.8z" style="fill:#1a1a1a;stroke:none;stroke-width:.5"/></g></symbol></svg>