<svg xmlns="http://www.w3.org/2000/svg"><symbol id="icolar_1_of_2" viewBox="190 140 190 190">&gt;<path class="alpha" d="M283.8 169.6c5-5 10.3-4.5 11.3-18.2 4.2 8.7-.8 21.5-.3 29.7-8.3-4.7-5-11-11-11.4zm-16-17.6c-3.2 8.4 2 24.2 2 30 8-6 6.3-13 10.2-12.7-4-5.7-11.3-2-12.2-17.3z" style="fill:#f2f2f2;stroke:#b3b3b3;stroke-width:1"/><path class="alpha--dark" d="M296 156.7c.5 4 0 12.4-2 18-2 5.4-5-2.5-3.6-4.3 1.2-2 5.4-6.6 5.7-13.7zm-28.6 0c-.4 4 0 12.4 2 18 2 5.4 5-2.5 3.7-4.3-1-2-5.4-6.6-5.6-13.7z" style="fill:#e6e6e6"/></symbol><symbol id="icolar_2_of_2" viewBox="190 140 190 190"><path d="M296 156.7c.5 4 0 12.4-2 18-2 5.4-5-2.5-3.6-4.3 1.2-2 5.4-6.6 5.7-13.7z" class="alpha--dark" style="fill:#e6e6e6"/><path d="M268.5 157.2c-4 2.7-13 11.5-18.5 13.3-2.7.8-9.7.4-15.4 3.4-12.7 6.7 2.933 41.533 7.564 55.86 1.544 4.709 2.7 9.25 3.547 13.367-.305 2.268.64 3.6.857 5.343.86 6.152.628 11.282-.4 15.806-.47 1.966.073 7.533.798 12.861.484 3.552-1.1 6.592.214 9.91l.046 6.428c23.336 4.372 55.769 3.525 76.769-5.275l-1.267-5c.742-3.2-.923-4.3-1.354-6.6-1.59-8.3-5.782-17.423-5.882-19.823-.3-3.7-.856-8.836-.85-13.087.12-2.53 1.647-3.037.933-6.284 3.182-6.795 3.825-17.506 6.125-21.606 6.763-24.529 16.373-37.998-.652-42.753-.88-.246-1.671-.737-2.698-1.05-1.136-.346-2.524-.512-3.85-.677-5.5-.6-18-13.52-19.7-16.82 1 17.6-21.7 21.4-26.3 2.5z" class="alpha" style="fill:#f2f2f2;stroke:#b3b3b3;stroke-width:1"/><path d="M294.8 181.6c-8.2-3.4-8.2-7-12.2-6.7-4 0-3.7 3.5-13 7.6 3.6-6.4 5.4-12.6 12.4-12.8 7-.2 9 2 12.8 11.8z" class="alpha--dark" style="fill:#e6e6e6;stroke:none;stroke-width:.5"/><path d="M312.3 204.4c1.5 2 4.028 6.293 5.497 12.3-1.29-1.802-8.197-8.3-12.497-11 4.7 4.5 13.323 16.02 13.27 17.632-.05 1.613-3.515 10.93-4.51 10.928-.993-.001-2.943-.414-6.737-3.366 1.132 1.017 4.008 4.273 5.922 5.495 1.915 1.221 2.985 3.453.8 3.45-2.285-.004-11.568-8.683-15.717-13.22 3.242 5.439 11.885 12.703 14.061 14.534 2.078 1.83.585 7.703-.26 13.315-.743 5.41-.375 12.748 2.098 14.925 2.577 2.276 6.383 5.307 5.032 6.707-1.345 1.3-6.659 3-13.459 1.5 3 1.6 11.054 3 13.89 2.4 2.925-.5 3.833 1 2.018 2-1.505.7-4.869 7.8-11.42 11 4.98-1.3 9.215-2.8 13.607-4.6-.401-1-.949-3.5-1.275-5 .835-3.2-.927-4.3-1.358-6.6-1.587-8.3-5.767-17.424-5.87-19.823-.303-3.8-.863-8.834-.96-13.085.126-2.631 1.646-3.037 1.032-6.283 3.18-6.795 3.832-17.508 6.236-21.609l3-10c-4.5 1.5-9.6 1.5-12.6-1.6zM261 203c-3.8 6.6-11.6 13-16.3 13.2 3.6-1.3 7-6.7 9.6-13-4.3 5.8-8.2 6.8-11 8-2 1.2-4.702 1.995-5.5 6.3 1.703 4.706 3.335 9.087 4.366 12.465a113.655 113.655 0 0 1 3.545 13.162c-.215 2.194.64 3.702.857 5.343.86 6.152.624 11.589-.297 16.002-.465 1.962-.013 7.513.81 12.842.28 3.554-1.216 6.406.099 9.932l.046 6.443c5.285 1.094 10.574 1.503 16.774 1.803-6.3-1-10.535-2.426-11.839-3.243-1.605-.94-1.384-4.62-.985-4.801.498-.176 11.324 1.952 20.724-3.648-5.6 2.2-18.945 2.257-22.127.738-2.988-1.612-1.056-2.49 1.031-3.351 3.8-1.461 4.938-3.991 1.929-8.193-2.37-3.379-3.58-8.21-2.585-10.023 1.294-2.215-3.42-8.552 1.27-7.074 3.991.976 7.263.105 14.38-1.301-10.586.284-14.392-.932-14.218-3.796.181-2.046 10.612-1.921 16.033-6.718-5.94 1.65-13.871 2.923-18.472 2.02-2.501-.502-1.829-3.071 1.568-2.579 2.997.392 4.686.265 7.26-.798-3.979-.25-8.39-2.18-9.199-3-1.725-2.362-3.067-6.169-2.487-8.219.78-2.05 8.36-2.896 10.641-5.746-2.29 1.024-8.561 3.798-10.577 1.758s-3.239-6.597-2.04-7.1c1.399-.404 12.993-7.318 16.993-17.318Zm6.7 87.2c14-3.3 19.8-6 39.2-6-8.7 4.8-34 5.2-39.3 6z" class="alpha--dark" style="fill:#e6e6e6"/><path d="M280 169.7h4.3s-.4 10 .3 15c1.7 12.7 1.5 24.3.7 36.4-1.2 18 3.8 51 1 66-.6 2.8.5 9.7.5 9.7h-4.5s-.6-6.3 0-9.4c2.5-16.8-2.5-40.5-1.4-65.7.5-14.4.6-27-1-37.3-1-9 0-14.6 0-14.6z" class="alpha" style="display:inline;overflow:visible;visibility:visible;fill:#f2f2f2;stroke:#b3b3b3;stroke-width:.5;marker:none;enable-background:new"/><path d="M283.4 173.4a1.5 1.5 0 1 1-3 0 1.5 1.5 0 1 1 3 0zm1.3 18.6a1.5 1.5 0 1 1-3 0 1.5 1.5 0 1 1 3 0zm.3 19.2a1.5 1.5 0 1 1-3 0 1.5 1.5 0 1 1 3 0zm-.7 19.8a1.5 1.5 0 1 1-3 0 1.5 1.5 0 1 1 3 0zm1 19.7a1.5 1.5 0 1 1-3 0 1.5 1.5 0 1 1 3 0zm1.3 20.3a1.5 1.5 0 1 1-3 0 1.5 1.5 0 1 1 3 0zm-1 21a1.5 1.5 0 1 1-3 0 1.5 1.5 0 1 1 3 0z" class="alpha" style="fill:none;stroke:#b3b3b3;stroke-width:.5"/><path d="M233.6 175c4.8-2.5 13.4-7.3 26 2.2 4.6 13.5-13.4 29.6-15.2 31.6-1.8 2-14.5-32.7-10.8-33.8zm70.4 1.2c4.8-2.5 13.4-7.2 26 2.2 4.6 13.6-11 33.2-12.8 35.2-1.8 2-17-36.2-13-37.4z" class="alpha" style="fill:#f2f2f2;stroke:none;stroke-width:.5"/><path d="M327 175.6c2.3 0 5.7 4.6 8.6 13.4 3.4 4 1.2 4.3 1.6 6.4 2.3 12.2-1 21.8.5 25 1.6 3.5 3.8 9.4 3.6 19 0 2.5.2 4.7.5 6.6 3 2.5 1 3.5 1.4 5 1 3 2 5.5 2.5 8.5.4 2 .7 4.3 1 6.7 3.3 3.2.5 3.5.7 5.3.7 5.7 1.6 13.2 2 19 .3 3.2 4.4 6 .8 9.3l1 15c-.3-4.5-12.6-2.2-16 .3 0-1.2-.6-6.4-2-14-2.8-2.3-1-4.8-1.4-7.3l-2.4-11.6c-.5-2-2.2-1.7-1.3-5-2-6.8-4.3-19.8-4-25 .2-2.6-2.3-1.8-1.5-6.8-1.2-2.6-2.7-5.6-4-10.4-2.4-9-4-28.3-2-41.4m-82.9-19c-1.8 1-2.5 1.3-4.7 5-6 9.5-4.8 20.6-4.4 28.8-3 6 .2 6.8-.6 8.8-3 6.7-3.5 10.7-4.3 20.4-3.2 4-.8 4.4-1.6 6.3-1.3 3.4-3.2 6.8-4.5 13-2.5 4.3-.7 4-1 6.5-.3 3.3-.5 7.2-.4 11.8l.3 14.3c0 3.8-3 8 .3 11.2.2 5.6.6 7 1.4 15 2.4-6.5 16-7.2 16-4.2-.3-2.7-.3-6.8 0-13.6 2.6-4 .4-7.3.7-10.2.7-8.5 2-16.8 3.5-20.8 2-5.2 2-11.6 2-16.2 0-2.8 1.5-3 .7-5.7.6-1 9.7-16 8.8-21.7-.3-2.3-.5-7 1-9.6 2-3.5-1.8-15.5-2.3-17.3" class="alpha" style="fill:#f2f2f2;stroke:#b3b3b3;stroke-width:1"/><path d="M248.5 173.5c5.6 3.3 9.8 7.8 13.8 15.3-3.3-10-7.5-12.7-13.8-15.3zm66.5.8c-3.2 1.8-9.7 8.5-12.3 15.4 2.6-9.6 7-13 12.2-15.4zm-18-15.5c5 5.3 6 14.2 3.2 21 1-7.5.7-15.3-3.3-21zm-30.777.753c-2.5 4.2-4.123 11.647-2.323 14.647 0-5.2.623-10.847 2.323-14.647zM323.7 190.1c4.4-3 10.7-1.5 12.3 1 1.6 2.6 1 3.2-1 3-1.8-.4-4-1.4-10.7 10 4.5-5.4 6.7-7.3 10-6.3 3.6 1 1.4 22.3-2.7 29 3.5-4.8 5-3.2 6.6 1.5 1.6 4.7 4.4 8.8-.3 11.7-4.8 2.7-4 4.3 0 5.2 3.7 1 2.7 3.8 1.8 3.5-1-.3-4-1-6.3-.6 5 1.3 7.6 2.3 8.2 5 .6 3 2.5 9.2 2.2 12-.4 3-.8 4.2-3 4.8 3.2.6 4.5-1 5.4-2 1-.8 1.3 1.7-.3 3-1.5 1.2-6 4-9 5.3 4.3-.5 7.2-2.4 8.2-2.8 1-.3 1.2 15 2 16.8 1 2 3 7 1 7-1.8 0-10.6 0-12.8 1.2-2.2 1.2-2.8-3.2-1.6-4.8 1.3-1.6 5-5 6.3-5.6-3.4 1.8-6 3-6.5 3.4-.6.3-2.5-9.4-2.2-9.8.3-.3 4.4 1.3 8.5.4-3.5.3-9.8-1.3-10-3-.4-1.4 1.5-2 3.4-1-2.6-1.7-6-18.7-6.6-23-.7-4.6 5-3 8-2-3-2.5-8.7-3.2-9.6-4.7-1-1.5 1.2-2.8 3.8-2.8 2.5 0 1-3.4-.4-4.4-1.2-1-5.6-4.7-7.8-11.6-2-6.5-4.321-21.6-3.921-32.3-1 12.7-.379 29.5 1.821 37.8 1.3 4.8 3 7.8 4 10.4-.7 5 1.7 4.2 1.5 6.7-.3 5.2 2 18.2 4 25-.8 3.3 1 3 1.3 5.2.7 2.8 1.8 7.8 2.5 11.5.5 2.5-1.4 5 1.4 7.4l1 4.8c5.4-2.8 13.4-3 16.5 1.5 0-2-.3-4.5-.5-7.5 3.6-3.2-.5-6-.8-9.4-.4-5.7-1.3-13.2-2-19-.2-1.7 2.5-2-.6-5.2l-1-6.7c-.6-3-1.6-5.6-2.6-8.4-.5-1.5 1.7-2.5-1.4-5-.3-2-.5-4-.5-6.7.2-9.5-2-15.4-3.6-19-1.4-3 1.7-12.8-.5-25-.4-2 1.8-2.3-1.6-6.3-1-3-2.36-5.6-3.56-7.7-3.66.265-7.222 5.616-8.34 8.5zM325 177c-3.5.3-12.2 3.4-17.7 8.4 6.7-7.4 12-8.5 17.8-8.3z" class="alpha--dark" style="fill:#e6e6e6"/><path d="M333 301.6c3.6-1.4 12.8-3 17.4-1.4" class="alpha" style="fill:none;stroke:#b3b3b3;stroke-width:1"/><path d="M228.266 181.8c-4.5 9-4.066 19-3.566 26.6-3.2 6 0 6.8-.8 8.8-.8 1.8-1.3 3.3-1.8 4.8 1-1.4 2.2-2 3.6-2.8 2.3-1.4 6.7-3 13-6.6-10.8 4.2-13.8 2-14 .3-.4-1.8.7-3.4 3.4-4 4-1 1.6-4-1.3-8-2.59-6.392-.405-14.198 1.466-19.1zm14.434 35c-4.6 5.3 0 5 1.6 8 1.4 2.8-2.6 7-6.4 15-3.8 7.7-7.3 8.5-14 11 4.2-.2 9.6-2.5 11-3-.5 2.8-6 6.6-12.3 9 8.3-1.3 11.2-6 11.8-4.5.5 1.5.4 15.3-7.4 16 0 0 3.7 0 5 1.3 1 1.2-1 2.3-3 2.2 2.4 3.8.4 7.6-.3 7 1.7 5.3-2 7.8.3 11.8 2.3 4 1 4.6-2 4-3-.6-11.8 1.4-13.2 2-1.5.6-1.5-2 1.4-4 3-2 2.3-7 0-11s-2-14.6-.3-15c1.6-.2 8.8 5.6 12.3 9.6-2.6-5.4-12.4-13-13.5-14.4-1.2-1.4-.3-3.4.5-2.3.8 1 3 2.6 7 5-4-3-6.3-7.3-6-8.7.2-1.7 2.2-9.5 4.5-11 2.3-1.4 5.6-1 9-.2-1.2-1-4.7-3-6.4-3-3 0-5-1.2-2-2.3 8-3 1.4-5 .6-12.8-.5 3-1 6.4-1.3 11-3 4-.8 4.5-1.6 6.4-1.3 3.4-3.2 6.8-4.5 13-2.5 4.3-.8 4-1 6.6-.3 3.2-.5 7-.4 11.7l.3 14.3c0 3.8-3 8 .3 11.2 0 3.5.4 5.8.7 8.5 2.2-6.3 9-9.2 16.6-7.6V298c2.6-4 .4-7.3.7-10.2.7-8.5 2-16.8 3.5-20.8 2-5.3 2-11.6 2-16.2 0-2.8 1.5-3 .6-5.7.8-1 10-16 9-21.7-.3-2.3-.5-7 1-9.6.8-1.6.16-5.3-.54-8.8.221 3.69-1.308 9.061-3.56 11.8zm-21.3 47.7c.8.5 1.6 1 2.4 1.3-1-.5-1.6-1-2.4-1.3z" class="alpha--dark" style="fill:#e6e6e6"/><path d="M223.7 226c2.4 5.5 12.5 4.6 17 1.2-5.2 1.4-11.5 1.4-17-1.2zm3.6 13.5c3.6-.5 7.7-1.2 10.8-5.8-3.7 3-7.3 4.3-10.7 5.8z" class="alpha--dark" style="fill:#e6e6e6"/><path d="M212.3 301c2.3-3 13.3-4.7 18-3" class="alpha" style="fill:none;stroke:#b3b3b3;stroke-width:1"/><path d="M244.8 173.3c4.7 4.4 8 9.7 10.2 18-1-10.6-4.7-14-10.2-18z" class="alpha--dark" style="fill:#e6e6e6"/></symbol><symbol id="ikurta_1_of_2" viewBox="190 140 190 190"><path style="fill:#efe9e7;stroke:#c0a4a0;stroke-width:.48214287" d="M331.033 177.665c2.878 2.776 4.995 9.8 6.326 14.112 1.332 4.311 2.807 19.604 3.224 25.156.418 5.553.044 10.833.595 13.83.551 2.995.622 15.164 1.904 17.812 1.28 2.648 2.082 6.283 2.713 8.734.487 1.89.98 4.899 1.767 8.049.724 2.897 2.898 21.28 3.61 22.733.713 1.454.724 3.403-.063 5.116-.787 1.712.366 4.876.256 6.098-.11 1.223.49 15.93.98 23.885-5.963-3.231-20.898-7.163-22.615-3.702 1.465-3.46 2.096-5.672 2.015-7.146-.08-1.474 2.16-7.84 1.864-8.328-.296-.488-2.463-4.629-2.11-5.846.354-1.217.352-1.217-.29-2.431-.64-1.214-1.643-7.037-2.324-8.491-.682-1.454-1.91-7.026-1.68-8.965-1.735-4.12-2.031-6.791-2.947-8.736-.915-1.945-2.538-9.991-2.338-11.458.2-1.467 1.168-2.936.886-4.163-.281-1.228-.477-1.965-1.074-2.95-.597-.986-1.58-3.7-2.264-5.927-.683-2.228-2.389-7.7-2.31-9.693.079-1.994.225-4.745-.665-5.25-.89-.507-1.659-3.019-.903-4.018.755-1-.931-3.273-.971-5.794l3.104-8.062s-.385-2.934.012-4.316c.754-2.628 4.332-6.964 4.332-6.964z" class="alpha"/><path style="fill:#d4c7c4" d="m331.033 177.665-2.629 7.171c.157.184.319.372.476.575.683.887 1.46 5.716-1.307 14.116-2.766 8.4-4.769 17.892-4.2 18.144.568.253 4.11-10.137 5.56-13.572 1.451-3.436 3.82-6.247 4.767-5.872.948.376-2.442 12.344-3.668 18.543-1.225 6.2-2.225 17.6-1.276 17.721.949.122 1.376-5.007 2.23-5.137.853-.13 1.357 5.493 2.257 4.612.899-.88.053-11.026.088-16.205.036-5.178 2.545-15.608 3.192-15.867.646-.26 3.067 17.08 2.982 22.236-.086 5.157-1.622 9.676-3.133 13.673-1.512 3.997-2.019 6.721-1.756 9.435.262 2.713.64 4.172 2.042 5.24 1.401 1.066.994 2.171-1.175 2.952-2.17.782-.97 1.125 1.276.824 2.246-.301 7.866-1.54 8.035-.205.169 1.333-8.522 2.05-8.284 3.145.239 1.096 8.83-2.066 9.665-.242.834 1.825.654 2.94-1.028 3.344-1.682.403-3.438.448-5.191.616-1.753.168-.317 3.467-2.432 3.63 1.85-.158-1.507 9.529-1.828 14.26-.32 4.73.856 6.06 2.931 5.806 2.075-.254 1.598-9.717 3.68-11.073 2.08-1.356 1.714-6.765 2.97-7.903 1.257-1.137.135-3.36 1.607-4.621.37-.318.502-.9.484-1.612-.175-.908-.348-1.76-.46-2.53-.454-1.602-1.11-3.167-1.195-3.808-.177-1.33-1.824-3.836-2.846-4.785-1.022-.948-2.507-3.602-1.773-4.843a8.113 8.113 0 0 0 .827-1.989c-.52-4.617-.375-10.684-.743-12.682-.55-2.996-.178-8.277-.595-13.829-.417-5.552-1.892-20.845-3.224-25.156-1.331-4.312-3.448-11.336-6.326-14.112zm-2.909 7.914-.363.958c.006 1.66.35 5.285-.862 9.813-1.668 6.237-6.172 14.108-7.72 16.889-1.55 2.78-2.649 6.308-3.046 6.936-.397.628-.792-.256-.47-1.39.323-1.133 4.696-9.345 4.649-10.106-.016-.252-1.08 1.173-2.503 3.235l-3.19 8.378c.04 2.521 1.726 4.794.97 5.793-.19.253-.283.601-.303.99.95-1.7 2.68-6.713 2.64-7.522-.6 1.638-1.629 3.017-1.629 3.017-.06-.756.103-1.385.668-2.643.566-1.258 1.525-4.41 3.451-7.318 1.926-2.91 7.202-13.335 7.879-18.17.64-4.569.475-8.448-.171-8.86zm-4.485 13.789c-.218.03-.894.975-1.74 2.164l-1.627 4.106.099-.131c.548-.761 3.527-5.59 3.332-6.1-.012-.03-.034-.044-.064-.04zm7.515 6.753c-3.746 9.923-9.08 16.973-9.878 18.229-.797 1.256-1.132-.505-.756-2.267.376-1.763 2.063-9.852 2.614-10.612.55-.76-.354-1.267-.95 0-.598 1.266-2.533 4.3-3.175 6.32-.642 2.018-.647 3.445-1.624 5.576-.977 2.13-1.703 6.028-.463 7.097l-.077.053c.488.967.379 3.165.313 4.836-.079 1.994 1.627 7.466 2.31 9.694.683 2.228 1.666 4.942 2.263 5.927.598.985.794 1.723 1.076 2.95.121.53-.004 1.108-.189 1.71 2.146-4.592 3.907-16.31 3.274-18.02-.644-1.741.49-12.506 1.282-16.037.792-3.53 3.002-10.88 3.98-15.456zm5.304.852c-.989.008-1.832 10.022-1.835 12.546-.004 2.523.979 9.926.872 11.554-.107 1.627-9.356 23.344-10.53 25.548-1.174 2.204-2.01 3.668-1.826 5.985.185 2.318 1.604 7.061 2.131 7.547.527.486 1.85 6.552 2.144 7.885.292 1.333.38 2.908 1.252 3.997.873 1.09 1.007 2.059 1.001 2.907-.006.848 1.057.604 1.334.846.278.242.517 1.09-.01 1.697-.53.607-.344 2.911.793 3.152 1.136.24 1.095.846.097.727-.999-.119-.78.609.08.607.86-.002 1.433.604.373.97-1.06.367-.675 1.459.542 1.335 1.217-.125 1.326.726.216.728-.94.002-1.644.44-1.703 1.088.428.835.42 1.009.11 2.076-.354 1.217 1.814 5.359 2.11 5.847.296.487-1.945 6.853-1.864 8.327.081 1.473-.55 3.685-2.015 7.146.728-1.467 3.823-1.6 7.613-1.028-.846-2.474-1.33-4.8.13-6.74 1.85-2.459 1.561-7.108 3.477-9.068s1.06-4.88-1.12-5.359c-2.178-.478-1.724-2.79-1.141-4.008.582-1.218.07-2.186-1.993-2.785-2.064-.598-2.42-1.448-2.546-4.963-.126-3.516-.324-8.486.619-9.704.943-1.218.57-3.159.15-4.614-.422-1.456.662-4.992 1.304-5.972.642-.98-.308-3.29-1.755-3.036-1.447.254-2.415.258-3.26.262-.845.004-1.316-1.337-.25-1.586 1.065-.249 3.463-.753 3.419-1.364-.045-.61-1.621-2.313-2.963-2.552-1.342-.238-.305-1.1.65-1.35.956-.251 2.586-1.734.732-2.582-1.853-.848-2.236-1.707-.673-2.086 1.563-.378 1.307-1.116.7-1.112-.607.004-.625-.982-.147-1.601.478-.62-.376-1.108-.134-1.975.241-.866 4.446-13.826 5.326-17.345.881-3.52-.42-21.956-1.41-21.947zm14.806 81.32c.378 1.668-.827 2.028-2.653 2.893-1.847.876-4.322 2.268-2.764 3.29 1.557 1.024 1.401 1.198.268 2.066-1.134.868-4.671 8.822-3.99 10.552.681 1.73 2.373 5.722.503 7.293-1.48 1.242-1.727 3.028-1.754 4.761a59.99 59.99 0 0 1 6.958 2.073c.667-5.978 1.168-15.61 1.65-16.925.7-1.907 1.31-6.06 1.199-9.68h.158c.01-.52.085-1.005.27-1.409.752-1.634.774-3.484.155-4.914zm.136 12.77c-.44 3.13-1.004 13.736-1.036 21.177a27.38 27.38 0 0 1 1.98.95c-.407-6.62-.78-17.83-.944-22.127z" class="alpha--dark"/><path style="fill:#efe9e7;stroke:#c0a4a0;stroke-width:.48214287" d="M226.96 183.3c-.795.88-2.473 4.682-2.946 8.754-.473 4.072-.72 16.118-1.42 19.682-.7 3.565-2.235 22.774-3.188 25.03-.954 2.255-1.247 5.534-2.196 7.55-.95 2.015-6.306 22.882-6.473 26.011-.167 3.13-1.497 17.55-.71 23.127.789 5.578.814 9.213.908 12.61.091 3.285.553 7.593.156 8.872-.396 1.28 1.19 2.953.881 5.233-.309 2.28.18 1.027.18 1.027 1.659-2.403 4.204-1.538 6.952-2.176 2.747-.639 14.813-3.977 15.892-2.745-.168-2.384-3.813-9.07-4.18-9.722-.366-.652-.732-3.054-.361-3.837.37-.783-.174-1.895-.712-3.302-.537-1.408-.343-2.018.047-2.932.39-.914 4.368-14.847 3.506-15.893-.862-1.047.098-2.09.337-3.763.257-1.792 1.137-6.965 1.68-9.566.396-1.897.198-3.01-.03-4.22-.228-1.212-.261-3.96 1.353-4.863 1.614-.903 2.215-3.496 2.837-5.118.316-.824.399-2.403.552-3.573.195-1.49.38-3.172.95-4.807.549-1.578.634-2.495.782-4.004.15-1.513.78-4.356.78-4.356.955.66.896-2.685.851-4.183-.405-1.134-.927-4.61-.822-5.81.106-1.199.232-8.245-.04-10.88-.274-2.633-3.61-10.17-4.489-11.992-.879-1.822-7.166-21.147-7.42-21.92-.253-.772-1.543-1.745-2.11-2.217-.127 1.624-.75 3.101-1.546 3.982z" class="alpha"/><path style="fill:#d4c7c4" d="M228.506 179.317c-.125 1.624-.75 3.101-1.545 3.982-.796.881-2.474 4.683-2.947 8.755-.474 4.072-.72 16.118-1.42 19.682-.7 3.565-2.235 22.774-3.188 25.03-.954 2.255-1.247 5.534-2.196 7.55-.819 1.738-5.555 17.673-6.26 23.809-.003.592.064 1.048.257 1.333.416.613.44 2.604.037 4.294-.404 1.69.12 4.058.853 5.581.734 1.523 1.466 8.596 1.782 10.38.316 1.785 1.699 5.874 5.305 6.403 3.605.528 5.165.538 6.199.209 1.033-.33.273-1.085-.749-1.4-1.021-.316-3.16-2.872-4.27-6.63-1.112-3.76-4.784-11.297-4.965-13.263-.182-1.965.063-12.27.11-15.418.045-3.147 3.764-2.78 4.49-.622.724 2.159-.623 14.66 3.273 17.203 3.895 2.543 6.84.107 6.617-.31-.223-.416-1.004.607-2.842.5-1.837-.106-3.166-2.464-2.14-5.588 1.027-3.124 3.584-5.542 2.334-7.99-1.25-2.45-5.13-14.792-5.03-21.553.1-6.761 1.952-18.023 2.09-19.407.137-1.383 1.093-4.6 1.33-4.448.235.153 2.485 11 1.63 13.564-.856 2.564-2.372 17.06-2.119 18.708.254 1.648 4.703 10.359 5.343 11.542.64 1.183 2.008.876 1.157-.745-.852-1.62-1.317-4.095-1.746-7.207-.43-3.11 1.195-25.444.977-27.72-.217-2.276-2.318-15.677-2.953-18.098-.636-2.421-2.829-7.843-2.33-8.224.5-.38 6.823 10.882 7.383 12.786.56 1.903 3.393 14.426 3.67 15.18.276.754.995 2.995 1.627 3.771.633.777.946-.057.548-.814-.398-.758-2.466-14.172-3.005-15.947-.538-1.775-6.182-15.435-5.694-15.785.487-.35 8.295 12.022 8.672 13.057.188.516.492.596.669.328l-.793-3.696c-.79-2.246-1.942-5.315-2.826-6.693-1.192-1.856-4.5-7.73-5.075-10.606-.473-2.362-1.072-6.356-.836-8.697zm2.792 5.685c.79 4.5 2.093 9.723 2.352 10.78.152.619 1.63 2.725 3.262 5.136zm2.061 43.518c.1.897.174 1.817.229 2.74-.02-.982-.09-1.915-.229-2.74zm.229 2.74c.097 4.847-1.642 10.762-2.162 13.079-.626 2.786-1.012 9.007 2.09 14.913-1.194-1.97-1.523-11.963-1.22-13.32.267-1.198 1.698-7.776 1.292-14.672zm-24.246 59.452c.04 1.042.109 1.982.216 2.742.147 1.04.283 1.992.409 2.908.677.824 1.174.839 1.09 2.06-.107 1.55.246 2.74 2.757 3.467 2.511.725 3.56 1.357 3.58 2.486.019 1.13-.259 5.284.357 5.603.617.32 3.202.914 4.939.643s3.268 1.12 3.883-.277c.615-1.398.608-2.315-.157-2.659-.765-.343-1.55-2.729-.918-3.07.632-.343-.393-1.35-1.28-1.565-.888-.214-2.912-2.177-3.664-2.819-.752-.641-.385-1.643.872-2.001 1.258-.358.625-1.223-1.126-.736-1.752.487-5.425-.758-6.623-2.308-1.113-1.44-3.642-2.482-4.335-4.474zm3.331 13.78c-1.724 1.849-1.194 2.461-.667 3.531.527 1.07.31 1.304-.396 2.533-.706 1.23-.373 1.573-.046 2.277.328.704.172 1.465.012 2.358-.098.549-.074 1.362-.036 2.091.297.838.58 1.795.432 2.887-.308 2.28.18 1.027.18 1.027 1.659-2.403 4.204-1.538 6.952-2.177 1.285-.298 4.541-1.29 7.823-2.032.572-1.664-.259-3.957-2.327-3.932-2.748.033-7.563.882-9.811-.035-2.25-.917-1.998-2.335-.878-3.066 1.119-.73-2.431-2.779-1.238-5.461z" class="alpha--dark"/><path style="fill:#efe9e7;stroke:#c0a4a0;stroke-width:.48214287" d="M336.733 408.9s-40.78 0-52.732.704c-11.953.703-41.482 4.218-51.326 2.812.704-8.437.2-26.868-.503-33.899-.703-7.03.703-17.929.703-23.905 0-5.976 6.828-53.636 7.883-63.127 1.054-9.492 4.002-45.782 2.207-52.84-.437-1.718-1.133-5.613-1.279-6.439-.146-.825.34-4.544.675-5.814.336-1.269.437-8.311.164-10.945-.272-2.634-3.609-10.17-4.488-11.993-.879-1.822-7.166-21.147-7.42-21.92-.253-.772-1.543-1.745-2.11-2.217.372-1.02.67-1.297 1.575-1.971.905-.674 5.738-5.411 12.828-6.415.69-.098 5.921-.772 9.153-2.149 8.397-3.578 14.78-10.292 15.945-10.82-.636 5.032 10.55 9.614 12.888 9.928 2.339.314 2.418.924 3.068 1.84 1.524-1.98 2.667-2.561 4.397-3.194 1.73-.632 7.201-3.152 8.653-9.358 1.056 3.137 3.407 3.648 5.133 5.101 3.095 2.605 9.637 7.402 13.301 8.547 3.664 1.144 7.854 2.103 10.953 3.308 3.098 1.205 5.586 3.099 5.234 3.626-.351.528-4.746 10.722-5.8 14.062-1.055 3.34-2.813 7.207-3.34 8.437-.527 1.23-4.57 5.976-4.746 8.965-.176 2.988 1.834 26.77.906 33.798-.653 4.957-1.375 13.208 1.987 24.223.675 2.211 6.092 21.155 6.374 23.31.827 6.324 1.301 9.516 3.235 20.238 1.933 10.722 4.144 21.647 3.968 23.58-.176 1.934 0 3.867.352 5.45.351 1.581 2.258 11.224 2.484 14.06.16 1.999-1.026 7.383-.85 8.614.176 1.23-.351 41.306.528 46.403z" class="alpha"/><path style="fill:#d4c7c4" d="M297.014 157.22c-.158.682.052 1.11-.136 1.674.025.025.064.065.087.086.83.773 1.561 1.118 1.98 1.412.419.295 1.357.614 1.703 1.061.347.447.48 1 .874 1.488.395.488 1.326.736 2.174.984.848.247 1.374 1.928 1.86 2.089.485.16.902.212.908.553.006.342.288.691.705.484.416-.207.918.553.803 1.435-.116.883-.126 2.254-.456 3.138-.329.884.51 1.667.79 1.003.278-.665.107-1.87.198-3.07.09-1.199.458-1.54.828-1.356.37.183-.233 1.94-.198 2.508.034.567.859.942.822.377-.037-.565.037-2.45.579-2.164.542.286.053 1.597.6 1.873.548.275-.316-1.687 1.217-.944 1.532.743.933 1.631 1.35 1.84.418.21 1.043-1.057 1.92-.52.877.535 2.39.792 4.293 1.296s3.177 2.533 4.515 2.54c1.337.007 3.38 1.174 3.883 2.636.987-.569 2.707.19 2.619 1.408 0 0 .153-.162.345-.413.178-.385.31-.66.358-.732.352-.53-2.135-2.34-5.234-3.456-3.099-1.115-7.122-2.728-10.787-3.873-3.664-1.145-10.923-6.582-13.467-8.093-1.262-.75-4.076-2.085-5.133-5.263zm2.06 5.287c-1.18.59-1.848 1.547-1.671 2.992.177 1.445-1.454 2.258-2.5 2.624-1.044.365-1.686 2.638 1.453 1.453 3.138-1.184 1.994-4.61 2.135-5.25.141-.64.697-.9.582-1.82zm-36.416-.037c-.087-.007-.232.139-.424.432-.802 2.72-.354 5.137.461 6.82.977 2.016 3.495 1.506 2.47-.785-.584-1.307-1.042-2.27-1.78-2.923-.9-.795-.895-1.91-.712-2.755.113-.523.097-.78-.015-.789zm.954 1.445c.055 1.277.154 1.786 1.404 2.2 1.25.414 1.359.61 1.304 1.088-.055.477.074.775.863.732.79-.044 1.165.437 1.288 1.166.122.73 1.303.486 1.974 1.166.67.68.781.996.563 1.512-.217.516-.359 3.022 2.472 2.996 2.831-.025 4.074-.56 4.548-.352.473.209-.655.94-1.101 1.252 1.911-.217 3.238-1.135 3.073-1.583-.164-.448-.995-.556-2.512-.602-1.518-.046-5.196-.474-4.795-1.713.4-1.238-1.612-3.644-2.851-4.193-1.24-.549-2.243-2.359-6.23-3.67zm-5.717 3.673c-2.248 1.243-3.108 1.802-3.697 2.252-1.86 1.424 1.66 7.642 2.634 7.086 1.243-.709-.49-4.64-.304-5.494.187-.855 1.624-.815 2.54-.745.915.07.659-1.075-.107-1.17-.767-.096-.23-.503.018-.809.249-.305.189-.672-.7-.16-.888.51-1.952 1.44-2.187 1.915-.234.476-2.027.543-.71-.758 1.316-1.302 2.104-1.895 2.513-2.117zm34.705-2.059c-1.015.824-3.333 1.516-4.79 2.091-.884.348-5.274 3.279-5.01 6.462.265 3.184 1.43.685 1.326-.452-.104-1.138.326-3.88 3.407-5.471 2.014-1.04 3.943-1.154 5.067-2.63zm-19.93 1.142c-.634.026-1.104.388-1.104.388.463 1.606 3.064 2.837 3.861 3.214.798.378 1.238 1.164 1.382 1.813.144.648.55.678 1.794.808 1.245.13 2.503.796 2.12 1.532-.384.735.121 1.764-.225 2.953-.346 1.189.176.984.141 3.035 2.868-1.754 1.772-6.104.539-7.218-1.233-1.114-2.91-2.039-3.556-2.443-.647-.404-2.547-2.62-3.702-3.619-.432-.374-.871-.479-1.25-.463zm-23.885 4.784a.998.998 0 0 0-.211.019c-.864.175-3.093 2.388-2.638 2.584.493.213 1.521-.747 2.056-.843.558-.1.569.946 1.04.919.583-.033.305-.845.617-.978.487-.209 1.207.736 1.61.242.282-.346-1.377-1.927-2.474-1.943zm26.656-3.797c.398 1.006 3.878 3.513 5.36 4.385-2.29-2.395-3.49-3.714-5.36-4.385zm-44.528 9.773a.183.183 0 0 0-.086.028c-.856.526.541 2.04.923 3.028.383.99 2.184 4.587 2.316 6.52.184-2.83-2.217-9.642-3.153-9.576zm54.035-1.618s-7.865 57.899-7.962 62.572c-.097 4.672.336 12.672.336 19.703 0 7.031-1.758 10.898-2.813 15.117-1.055 4.218-4.57 4.218-4.57-3.164-3.143 12.258-9.092 26.757-10.57 32.958 5.931-33.029 4.666-36.89 8.461-40.34 3.867-3.516 5.976-7.383 3.867-11.25-2.11-3.867-1.758-3.867-.703-6.68 1.054-2.812 1.406-4.218-.703-7.03-2.11-2.813-.352-8.438-1.055-15.82s-2.46-8.085-4.57 1.406c-2.109 9.492-2.11 20.741-2.11 20.741-1.054-4.922-3.866-3.867-4.218 3.164-.351 7.031-1.679 45.353-4.003 62.577l-.497-24.857-.746-26.847s2.735-7.955 2.735-10.192-.995-4.474 0-8.452c-1.243 2.238-.995 7.706-1.492 9.198-.497 1.491-1.74 5.965-1.74 5.965s.497-10.937.497-12.677c0-1.74 3.729-9.197 4.475-12.926.745-3.728 2.734-6.214 2.734-7.954 0-1.74-.497-6.96-.746-8.95 0 4.226-.995 7.458-1.492 9.695s-3.728 9.943-4.723 12.18c.746-3.977-.497-5.717 0-6.96.498-1.243.498-3.48-.497-8.452.398 2.99.046 5.626-.481 6.68-.527-.526-1.406-2.636-1.055-3.866-1.406 1.23-.527 2.988.176 4.394.703 1.406.352 10.37 0 11.953-.352 1.582-1.934 8.612-1.934 10.546 0 1.933-4.042 30.409-4.042 30.409s.127-48.432-.618-54.15c-.087 1.298-.947 3.292-3.125 8.456.084 1.03.968 4.334 1.2 5.684.302 1.747-1.152 43.349-2.207 52.84-1.054 9.492-7.882 57.152-7.882 63.128 0 5.745-1.294 16.026-.77 23.06l.068-.034c1.757 14.238 5.776 29.153 6.303 30.911.37 1.234.824 2.813.577 4.193 6.025-.006 14.117-.57 22.044-1.228-2.745-3.73-5.547-10.028-5.022-13.004.746-4.226.497-14.418 0-16.655-.497-2.237-.745-4.226-.248-6.96.497-2.735-.25-21.626-.995-26.1-.746-4.475-1.74-18.396-1.492-37.288.498 2.983 1.492 31.819 2.983 34.553 1.492 2.734 2.735 47.975 2.984 53.444.235 5.181 4.933 10.582 9.443 11.348 6.016-.532 11.523-1.029 15.25-1.248.158-.01.374-.017.541-.026-4.802-.713-6.88-2.224-7.923-14.388-1.054-12.304-2.11-55.192-3.515-59.41-1.406-4.22-3.867-13.71-.703-17.578 3.164-3.867 7.03-9.843 7.03-15.468 0-5.624.353-36.56 1.759-42.536 1.054 5.624 1.054 16.17 1.054 20.74 3.516-14.413 5.977-30.584 5.977-32.693 1.054 2.46 1.757 3.515 2.46 8.085-.703-4.921-2.109-31.287-1.406-33.396.703-2.11 2.11-4.57 1.758-7.031-.352-2.461-2.812-5.977-3.867-7.383 2.812.703 4.57 1.758 6.68 3.867-2.11-3.867-4.298-17.438-4.085-19.048.213-1.611.52-7.835.61-9.655.092-1.82-5.422-7.87-5.422-7.87zm36.752 8.146c-.994.01-3.977 11.462-3.977 13.45 0 1.989-1.74 3.232-3.48 5.47-1.74 2.236-2.735-.747-2.238-3.233.497-2.485 2.983-12.267 2.238-12.268-.746-.002-2.984 5.805-4.475 7.794-1.491 1.989-.746 5.22 0 9.944.746 4.723-.249 5.468-1.74 7.457-1.491 1.988 1.492 13.671-.248 15.66-1.74 1.989-1.74 23.864-1.74 27.344 0 3.48 1.242 21.378 1.49 24.609.25 3.232-.497 19.638-.994 22.373-.497 2.734.747 4.474 2.984 4.474s7.706 0 7.954 1.243c.249 1.243-5.966 1.988-8.7 2.734-2.735.746-1.492 3.728-1.243 5.22.248 1.491 1.243 4.972 2.734 4.972 1.492 0 8.203-.249 8.203-.249s-1.988.995-4.723 1.74c-2.734.746 1.243 6.463 0 7.209-1.243.745 2.735 6.463 3.73 8.203.994 1.74 1.988 3.73-.498 6.215.746 1.243 2.983 4.971 3.728 7.457.746 2.486-.994 4.474-5.22 1.988 1.989 1.243 6.464 6.961 7.21 9.944.745 2.983 3.23 32.563 3.977 37.535.745 4.972-.25 7.458-6.464 7.458l.064.254c9.192-.052 16.46-.056 16.46-.056-.168-.978-.284-3.26-.364-6.293-1.174-6.204-2.332-13.373-1.714-14.917 1.126-2.817-1.409-5.07-.845-10.14.563-5.07 1.126-12.113 1.126-13.804 0-1.69-1.69-5.351-4.507-11.548-2.817-6.198-4.789-23.1-5.352-26.761-.564-3.662-3.38-12.394-3.38-15.775 0-3.38 4.465-16.215 3.338-23.257-1.127-7.042-7.845-23.504-8.972-29.983-1.127-6.478.282-10.422 1.408-14.084 1.127-3.662.845-11.267.845-14.084s-1.69-11.832-1.971-14.93c-.206-2.265.197-3.482 1.194-5.29.332-1.682 1.95-3.818 2.173-5.156.248-1.491 1.491-2.734 2.734-6.712-.497.995-2.734 4.475-2.982 6.215-.249 1.74-1.74 1.74-1.492.497.248-1.243-.249-1.74.497-3.729.746-1.988 4.226-15.202 3.232-15.19zm-81.443 2.612c.198 1.049-.017 3.722.046 6.17.063 2.45.681 8.202 2.78 13.923-.72-3.182-2.106-11.769-2.148-13.542-.041-1.774-.021-4.284-.678-6.551zm-2.475 5.907c1.524 4.964 1.248 8.388 1.248 8.388s.952 1.93 1.548 2.782c-.333-1.108-1.463-8.672-2.796-11.17zm47.84 137.874c-4.766 2.542-2.542 6.038 8.899 6.673 11.44.636 18.114 2.543 20.339 4.45-3.496-3.814-13.665-6.356-19.068-6.674-5.402-.318-9.852-1.907-10.17-4.45zm-7.672 14.962c.745 9.197 19.39 12.678 21.875 13.423 2.486.746 4.723.994 4.723 8.7 0 7.706 2.734 28.338 3.977 33.559 1.243 5.22 2.486 2.237 2.735-.249.248-2.485 1.242-4.226.248-6.96-.994-2.735-2.237-21.13-1.74-22.87.497-1.74-.248-6.079-.248-8.202 0-3.48 7.954-2.735 11.185-.498-3.231-4.226-6.711-5.717-12.677-6.712-5.966-.994-25.107-3.977-30.078-10.191z" class="alpha--dark"/><path style="fill:#c0a4a0" d="M336.726 229.308c-2.566 11.553-11.75 31.243-13.34 34.896 1.552-8.77 9.351-22.451 13.34-34.896z" class="alpha--darker"/><path class="alpha" style="fill:#efe9e7;stroke:#c0a4a0;stroke-width:.48214287" d="M281.826 168.574c-1.132-.845-1.68-3.266-2.017-4.149-.337-.882-.59-1.382-2.404-2.592-1.815-1.21-3.515-2.103-5.02-3.44-1.506-1.338-3.681-2.051-3.95-4.166l-.311-2.445c-.551.656-.677 2.087-.788 2.898-.11.811-.74 3.92-.731 4.64.008.718 3.154 3.333 6.715 5.71 2.914 1.944 7.58 3.831 8.506 3.544zm3.091-.274c.159-.876.454-2.19.852-3.061.397-.871.557-2.563 1.919-3.022 1.362-.46 4.587-2.989 5.79-4.31 1.627-1.786 1.332-6.606 1.332-6.606s.832.37.738 1.34c-.094.971 1.303 4.065 1.691 4.724-.824 3.293-4.528 8.784-12.322 10.936z"/><path class="alpha" style="fill:none;stroke:#c0a4a0;stroke-width:.48214287" d="M283.835 169.678c-1.867 2.296-2.867 4.825-2.992 11.486-.125 6.662-.544 10.874-.47 13.653.075 2.778-.566 7.775-1.34 10.699-.774 2.924-3.596 30.953-3.596 30.953l3.492 3.447 3.49-2.646s1.013-14.734 1.262-16.68c.249-1.946 1.512-12.831 1.855-14.505.343-1.674.315-3.214.47-4.423.155-1.208 1.718-26.956 1.53-28.612-.188-1.656.078-4.104.397-4.775.319-.67.176-1.38.176-1.38"/><circle class="beta" style="fill:#efe9e7;stroke:#c0a4a0;stroke-width:.48214287" cx="281.288" cy="211.509" r="2.285"/><circle class="beta" style="fill:#efe9e7;stroke:#c0a4a0;stroke-width:.48214287" cx="283.433" cy="196.216" r="2.285"/><path style="fill:#c0a4a0" d="M237.58 220.092c.022.94.071 2.03.373 3.161.635 2.384 1.255 3.492.76 4.758-.495 1.265.536 4.897-.164 6.785-.7 1.889-.308 7.54-1.706 12.233-1.398 4.693-1.909 7.35-2.143 8.446-.234 1.096-.376 3.131-.442 4.072-.065.94.504 1.88 1.034 1.096.53-.784 1.062-1.567 1.742-2.192-1.465.468-1.618-1.881-.664-1.88.954 0 1.87-1.719 1.776-2.658-.394 1.095-.417 1.408-1.212 1.407-.796-.001-.688-1.566.129-1.877.816-.312.623-2.19 1.91-2.343 1.285-.154.518-5.788 1.2-6.57.682-.781.75-2.035.494-3.29-.257-1.255.2-4.553.679-4.552.364 0 .786-1.554.982-2.993zm-3.463 41.492c.083 1.098-.52 2.984-1.352 3.614-.832.63-.659 1.9-.284 2.538.374.64 1.182 2.9.44 3.884-.744.984-3.439 7.648-3.466 8.653-.027 1.005.083 3.179-.709 3.684-.791.505-.852 8.232-1.809 8.718-.956.486-.87 4.771-.134 5.398.737.626.811.937 1.006 1.714.195.777.99 4.322.694 5.243-.295.921.808 2.765 2.243 4.309l.105-.045-.416-.619c-1.025-1.535-1.1-2.213-1.109-3.233-.005-.573-1.027-7.14-.381-9.665 1.156-4.519 3.807-12.727 3.266-14.332-.475-1.407-.676-2.988.777-3.776 1.498-.812 1.71-5.457 2.046-7.672.205-1.355-.038-2.342-.277-3.236-.85-1.649-.46-3.603-.64-5.177zm-10.363-66.765c-.44 5.082-.703 14.27-1.23 17.264-.297 1.689-.525 6.803-1.06 11.978.718-3.62 1.674-7.879 1.97-9.631.424-2.5 1.074-3.32 1.537-1.395.462 1.925 2.926 19.369 4.78 27.364-.475-3.354-1.052-18.76-2.15-25.686-1.018-6.408-3.193-14.872-3.847-19.894zm-2.969 35.061c-.472 3.581-.983 6.445-1.255 7.247-.49 1.438-.618 3.336-.812 5.064-.024 1.941.092 4.066.361 5.068.457 1.702 2.324 2.88 2.37 4.282.045 1.402 1.764 6.103 5.526 8.879-1.179-1.943-2.73-4.803-4.552-11.251-1.586-5.614-1.7-14.62-1.638-19.289z" class="alpha--darker"/></symbol><symbol id="ikurta_2_of_2" viewBox="190 140 190 190"><path style="fill:#d4c7c4;stroke:#c0a4a0;stroke-width:.48214287" d="M212.633 319.25c-.76 1.913-1.835 3.248 1.897 3.338 3.732.09 8.041.967 12.612.088 4.57-.879 10.912-2.383 7.675-6.748-3.237-4.365-21.313 1.127-22.184 3.321zm139.577 2.82c.058 3.168-5.455 3.515-10.773 2.284-5.318-1.23-13.17-1.23-11.042-6.152 2.13-4.921 21.73-.779 21.815 3.867z" class="alpha--dark"/></symbol><symbol id="itanktop_1_of_2" viewBox="190 140 190 190"><path class="alpha" d="M255.016 198.67c1.715-9.454.732-21.18-6.216-26.832 3-1.4 6-3 7.8-4.4 2.6 4.8 10.5 16.5 23.3 16.5 20.4 0 28.3-11 23-19.5 1.7 1 5 5 10.4 7.7-2.97 4.98-3.86 16.195-2.542 26.335" style="fill:#f2f2f2;stroke:#ccc;stroke-width:1px"/><path class="alpha" d="M305.2 166.638c3 13.2-10.6 19.7-23.2 19.7-13.4 0-21.2-6.5-27-18" style="fill:none;stroke:#ccc;stroke-width:.5;stroke-dasharray:1,.5"/><path class="alpha--dark" d="M251 172.438c6.5 4.7 4.8 18 19.8 21-17.2-11.2-10.5-14-19.7-21zm17 14.6c12.2 9 26.5 2 30.2-.5-6.5 2.5-15.7 6-30 .4z" style="fill:#e6e6e6;stroke:none"/><path class="alpha" d="M308.823 198.255c-1.32-12.046.524-24.73 3.277-27.317m-55.395 27.364c2.053-11.79-.432-23.684-6.005-27.064" style="fill:none;stroke:#ccc;stroke-width:.5;stroke-dasharray:1,.5"/></symbol><symbol id="itanktop_2_of_2" viewBox="190 140 190 190"><path class="alpha" d="M319.2 271.638c-7.4 13-69 12.5-73.2 7.2-1-16.3 2-32.6.4-36.3-1.8-3.7-8.3-16.3-9-23.7 7.3 1.61 15.485-8.426 17.616-20.168 1.715-9.455.732-21.18-6.216-26.832 3-1.4 6-3 7.8-4.4 2.6 4.8 10.5 16.5 23.3 16.5 20.4 0 28.3-11 23-19.5 1.7 1 5 5 10.4 7.7-2.97 4.98-3.86 16.195-2.542 26.335 1.435 11.038 5.38 20.803 9.342 19.865-2.8 12.5-6 22.6-5 34.6 1.2 12 3.7 15 4 18.3z" style="fill:#f2f2f2;stroke:#ccc;stroke-width:1px"/><path class="alpha--dark" d="M262 237.138c11.6-9.4 26.6-15 42.4-4.4-18.6-7.2-28.5-3.2-42.3 4.5zm8.7 2.8c8.6-3.6 28.7-5 38 2.2-16.5-4.8-30.8-3.4-38-2.2zm-12.2 11.5c8.6-7.2 25-10.8 41.6-6.5-15-2-32 1-41.5 6.5zm-17.5-30.8c11.6-1.3 16.6-18 17.6-21 .3 11.3-9 22-17.7 21zm-.5 2c9-.3 16-3.6 18.8-5-5 6.7-11.7 6.7-18.8 5zm80.1-2c-5-1.3-9.7-9.7-12-20 .6 7.6 2 17.3 12 20zm-1 50.4c-7.4 2.3-15.2-4-20-7.3 6.8 3 13.8 6.5 20 7.4zm-80.8-43.2c4.5 9.3 9.2 15 14.3 16.5-5-3.6-11-11.4-14.2-16.5zm75.2 4.6c4-1.8 6.6-9.6 6.4-11.2-3 5.5-4.5 9-6.3 11.2zm-50 43.6c18.2-3.6 28-5 46.7-2.3-8-3.3-28.7-5.7-46.7 2.4zm-18 2.4c7-.3 20-5 24.8-10.2-3.7 2.4-16.8 8-25 10.2z" style="fill:#e6e6e6;fill-:1;stroke:none"/><path class="alpha" d="M305.2 166.638c3 13.2-10.6 19.7-23.2 19.7-13.4 0-21.2-6.5-27-18" style="fill:none;stroke:#ccc;stroke-width:.5;stroke-dasharray:1,.5;stroke-dashoffset:0;stroke-:1"/><path class="alpha--dark" d="M251 172.438c6.5 4.7 4.8 18 19.8 21-17.2-11.2-10.5-14-19.7-21zm17 14.6c12.2 9 26.5 2 30.2-.5-6.5 2.5-15.7 6-30 .4z" style="fill:#e6e6e6;fill-:1;stroke:none"/><path class="alpha" d="M319.6 220.638c-14.5-7-12.5-45-7.5-49.7m-74.1 50.3c9.6.6 15.8-10 18-19.6 3.2-12.8.8-26.7-5.3-30.4" style="fill:none;stroke:#ccc;stroke-width:.5;stroke-dasharray:1,.5;stroke-dashoffset:0;stroke-:1"/></symbol><symbol id="itshirt" viewBox="190 140 190 190"><path d="M253.153 169.533c-2.01.758-4.677 1.163-7.194 1.592-2.096.357-3.99 1.06-5.052 1.305-18.7 4.304-1.333 41.005 1.994 60.808.788 5.347 4.71 16.943 4.081 26.419-.426 6.435-1.585 10.162-.682 13.138-1.417 2.615-1.386 5.006.146 6.412 1.251 1.003 1.607 3.35-.269 4.656-2.831 2.21-1.702 4.024-.363 4.628 1.502 1.008.463 3.726.502 5.539 18.7 1.323 51.073-5.882 75.342-5.656-1.661-2.791.037-4.31.952-6.642.555-1.264.87-5.096-2.078-6.738-.983-.513-1.3-3.78-.433-6.813.738-2.51.085-3.29-.95-3.842-2.435-1.43.097-15.366-.813-21.303-1.472-8.333 4.898-28.403 5.194-33.18.365-4.412 10.355-30.16-1.288-35.638-.96-.452-2.069-2.053-3.342-2.205-2.7-.4-13.714-7.156-20.714-12.056 9.2 24.5-39.286 24.857-33.286.657-3.478 3.19-9.754 8.167-11.747 8.919z" class="alpha" style="fill:#f2f2f2;stroke:#b3b3b3;stroke-width:1"/><path d="M261.474 163.578c-3.8 15.6 12.926 19.622 20.626 19.622 8 0 25.3-4.8 20-19.8" class="alpha" style="fill:none;stroke:#b3b3b3;stroke-width:.5;stroke-dasharray:1,.5;stroke-dashoffset:0"/><path d="M318.5 224.3c-4.8-4.7-8-8.4-12-9-4.3-.5-10 2.7-17.2 2.7-6.4 0-6 3.4-3 3.7 3.3.2 15.4.4 19.8 2.6 4.8 2.3 10 16 12.5 3.4.5-3 0-3.4 0-3.4z" class="alpha--dark" style="fill:#e6e6e6;stroke:none"/><path d="M312.3 204.4c1.497 2.002 3.969 6.325 5.238 12.51-1.227-1.859-7.938-8.51-12.238-11.21 4.7 4.5 12.917 16.384 12.848 18.047-.07 1.664-3.34 11.233-4.33 11.22-.99-.012-2.971-.458-6.82-3.543 1.15 1.06 4.126 4.445 6.08 5.723 1.955 1.278 3.107 3.584.928 3.553-2.278-.032-11.948-9.086-15.98-13.8 3.12 5.623 12.125 13.22 14.375 15.127 2.15 1.907.852 7.948-.254 13.862-.997 5.706-2.308 13.54-.153 15.936 2.245 2.504 5.096 5.923 3.883 7.253-1.214 1.232-6.481 2.585-12.566.513 2.707 1.834 10.61 3.792 13.361 3.311 2.85-.38 3.933 1.054 2.238 1.97-.665.272-1.543 1.674-2.815 3.392l5.463.11c-1.677-2.978.03-4.404.944-6.836.56-1.167.875-4.9-2.067-6.646-.982-.514-1.291-3.887-.429-6.817.74-2.511.087-3.291-1.044-3.846-2.336-1.43.091-15.365-.823-21.298-1.379-8.329 4.898-28.4 5.293-33.176.012-.61.438-2.03.853-3.643-4.415 1.512-9.29 1.393-11.985-1.612zm-65.8 16.2c6.8-3 7-4.7 11.3-5.2 4.2-.6 14 5.2 19.6 2.3 5.8-3 3.5 3.7.3 4-3 .2-15-.8-19.7.5-4.7 1.3-10.2 5.8-12.6 3.7-2.3-2.2 1-5.4 1-5.4z" class="alpha--dark" style="fill:#e6e6e6;stroke:none"/><path d="M261.18 203c-3.697 6.6-10.906 13.114-15.526 13.326 3.49-1.321 6.51-6.801 8.933-13.121-4.106 5.82-7.816 6.858-10.537 8.072-1.937 1.011-4.384 2.02-5.13 6.059 1.54 5.76 3.047 11.402 3.78 16.102.848 5.305 4.836 16.917 4.237 26.357-.414 6.52-1.562 9.82-.637 12.9-1.6 2.7-1.584 5.006-.153 6.511 1.353 1.004 1.81 3.351-.267 4.657-2.738 2.21-1.606 4.024-.365 4.628 1.605 1.007.663 3.726.503 5.538 2.164.203 4.513.207 7.039.013-.29-.001-.564-.203-.652-.304-1.483-.809-1.181-4.432-.78-4.632.498-.2 11.331.351 20.375-5.221-5.367 2.182-19.177 3.713-22.163 2.197-2.785-1.617-.92-3.222 1.248-4.22 3.936-1.694 5.373-4.597 2.728-9.21-2.078-3.709-3.293-8.783-2.428-10.564 1.132-2.176-3.612-8.385.903-6.91 3.83.981 6.748.196 13.511-.991-10.1-.01-13.612-1.176-13.508-3.935.13-1.97 9.846-1.701 15.25-6.323-5.841 1.533-13.213 2.668-17.649 1.8-2.41-.484-1.748-2.953 1.507-2.477 2.871.379 4.459.27 6.918-.744-3.774-.266-7.975-2.122-8.742-2.912-1.626-2.274-2.819-5.963-2.221-7.97.792-2.006 8.092-2.863 10.242-5.697-2.17 1.026-8.181 3.786-10.153 1.785-1.971-2.002-3.283-6.538-2.118-7.045 1.366-.407 12.189-7.468 16.054-17.469z" class="alpha--dark" style="fill:#e6e6e6;stroke:none"/><path d="M249 173c-7.96-1.556-13.394-.14-19.4 7.5-8.783 11.174-3 23-5.7 29.5-3 6.7-3.5 10.7-4.3 20.4 6 6.6 19.6 7 26 4 1.2-17.2 5-24.2-.2-39m74.6-20.986c6.3.7 12.396 5.248 15.586 14.586 5.11 14.963 3.414 24.6 3.714 28.5.6 4.3 2 10.4 2 16-8 1-19.6 1.8-24 .4 0-14.7 7-22.3 6.2-39.8" class="alpha" style="fill:#f2f2f2;stroke:none;stroke-width:.5"/><path d="M331.5 181.5c-3.2 1-6.2 4.5-7.8 8.6 4.3-3 10.3-1.6 12 .8 0-.6-.3-1.2-.4-1.8-1-3-2.3-5.5-3.8-7.5zm2 12.2c-1.7.2-4.2 1.7-9.2 10.2 4.5-5.4 6.7-7.3 10-6.3 3.6 1 1.4 22.3-2.7 29 3.5-4.8 5-3.2 6.6 1.5.7 2 1.5 3.8 2 5.5.4 0 .8 0 1.2-.2-.2-5.6-1.5-11.7-2-16-.4-3.5.6-11.4-2.7-23.8-.3.3-1 .3-1.6.2-.4-.2-1-.3-1.5-.3zM318.7 222c-.8 3.7-1.5 7.5-1.4 12 1.3.3 3.4.5 5.8.6-1-1.5-1.8-3.3-2.4-5.4z" class="alpha--dark" style="fill:#e6e6e6;stroke:none"/><path d="M317.8 229.4c9 .6 18.8 0 22.8-.6" class="alpha" style="fill:none;stroke:#b3b3b3;stroke-width:.5"/><path d="M268.043 286.974c13.304-3.247 19.457-6.174 38.857-6.174-8.7 5-33.93 5.395-38.951 6.173z" class="alpha--dark" style="fill:#e6e6e6;stroke:none"/><path d="M245.723 288.39c18.031 4.037 43.805-8.672 77.165-5.58" class="alpha--dark" style="fill:none;stroke:#b3b3b3;stroke-width:.5"/><path d="M248.5 173.5c5.6 3.3 9.8 7.8 13.8 15.3-3.3-10-7.5-12.7-13.8-15.3zm66.5.8c-3.2 1.8-9.7 8.5-12.3 15.4 2.6-9.6 7-13 12.2-15.4zm10 2.7c-3.5.3-12.2 3.4-17.7 8.4 6.7-7.4 12-8.5 17.8-8.3zm-80.2-3.7c4.7 4.4 8 9.7 10.2 18-1-10.6-4.7-14-10.2-18zM227.2 184c-5.4 10-.7 20-3.3 26-3 6.7-3.5 10.7-4.3 20.4 1.2 1.3 2.7 2.4 4.5 3.3-1-2.2-2.7-4.6-1.8-7-.7-3.2 0-5.8 1.8-7 2.4-1.5 4.7 2.2 10.4 4-5.6-4-9.6-9-10-10.8-.2-1.8 1.2-3 3.2-1.2 3 3 1.2-5.5-1-10.8-1.4-4-1.2-10.7.4-17zm20.3 18.5c.5 7.5-2 11-4.7 14.2-4.7 5.4 0 5 1.4 8 1.2 2.4-1.3 5.8-4.3 11.2 2-.4 4-1 5.6-1.7 1-14 3.8-21.3 2-31.8z" class="alpha--dark" style="fill:#e6e6e6;stroke:none"/><path d="M220.6 225.7c6.8 6 21 6.7 25.4 4.5" class="alpha" style="fill:none;stroke:#b3b3b3;stroke-width:.5"/><path d="M302.3 163.8c3.6 6.4 2.2 15.3-2 21.3 2.6-7 4.4-14.6 2-21.2zm-41.3-.1c-1.6 4.6-1.2 12.4 1 15.2-1-5.4-2-11.3-1-15.3zm-14.8 34.1c2.4 9.7-1 15-5.8 16.5-3.7 1-7.3-4-8.4-6.8-1.7-4.8-.5-6.3 2.4-3.7 3.4 3.2 10-3 11.8-6z" class="alpha--dark" style="fill:#e6e6e6;stroke:none"/><path d="M249 173c-7.96-1.556-13.394-.14-19.4 7.5-8.783 11.174-3 23-5.7 29.5-3 6.7-3.5 10.7-4.3 20.4 6 6.6 19.6 7 26 4 1.2-17.2 5-24.2-.2-39m74.6-20.986c6.3.7 12.286 5.286 15.586 14.586 5 15 3.414 24.6 3.714 28.5.6 4.3 2 10.4 2 16-8 1-19.6 1.8-24 .4 0-14.7 7-22.3 6.2-39.8" class="alpha" style="fill:none;stroke:#b3b3b3;stroke-width:.5;stroke-linecap:round"/><path d="M224.7 222c-2.6-8.6-1-18.6-.2-20.8 1.3 14.6 9.8 18 12.5 20" class="alpha" style="fill:#f2f2f2;stroke:#b3b3b3;stroke-width:.5"/></symbol><symbol id="iturtleneck" viewBox="190 140 190 190"><path class="alpha" d="M268.5 157.2c-4 2.7-13 11.5-18.5 13.3-2.7.8-9.7.4-15.4 3.4-12.7 6.7 3 41.7 7.5 55.7 1.5 4.6 2.6 9 3.4 13-1.5 3.5.6 3.5.8 5.2.8 6 .6 11-.5 15.6-.5 2-.3 8 0 14 .2 4-2.5 8.2.7 11.4l.3 6.2c23.4 4 57.2 2 78.2-6.8l-1.4-5c.6-3.2-1.2-4.3-1.8-6.6-2.2-8.3-4.7-17.8-4.8-20.2-.3-3.7-1-8.8-1.2-13 0-2.5 1.5-3 .6-6.2 2.8-6.7 3-17.3 5.3-21.4 7.5-27.2 18.5-40.8-7.2-44-5.5-.6-18-14-19.7-17.3 1 17.6-21.7 21.4-26.3 2.5z" style="fill:#f2f2f2;stroke:#b3b3b3;stroke-width:1;stroke-linecap:butt;stroke-linejoin:miter;stroke-miterlimit:4;stroke-opacity:1;stroke-dasharray:none;display:inline;enable-background:new"/><path class="alpha--dark" d="M294.8 169.2c-1.4 3.8-8.2 5.3-12.2 5.5-4 .2-12.7-.7-14.5-6.3 3.8-6.4 7 1.6 14 1.4 7-.2 9-10.3 12.8-.6z" style="fill:#e6e6e6;stroke:none;stroke-width:.5"/><path class="alpha--dark" d="M312.3 204.4c1.5 2 4 6.3 5.5 12.3-1.3-1.8-8.2-8.3-12.5-11 4.7 4.5 13.4 16 13.4 17.6 0 1.6-3 10.8-4 10.8s-3-.4-7-3.3c1.2 1 4.3 4.2 6.3 5.4 2 1.2 3.2 3.4 1 3.4-2.3 0-12.3-8.5-16.6-13 3.4 5.4 12.7 12.5 15 14.3 2.2 1.8 1 7.6.2 13.2-.7 5.4-.6 12.8 1.8 15 2.5 2.3 5.5 5.6 4.2 7-1.3 1.3-7 3-13.8 1.5 3 1.6 11.6 3 14.5 2.4 3-.5 4 1 2.2 2-1.5.7-5 7.8-12 11 5.3-1.3 10-2.8 14.4-4.6-.4-1-1-3.5-1.4-5 .7-3.2-1.2-4.3-1.8-6.6-2.2-8.3-4.7-17.8-4.8-20.2-.3-3.8-1-8.8-1.3-13 0-2.6 1.5-3 .7-6.2 2.8-6.7 3-17.3 5.4-21.4l3-10c-4.5 1.5-9.6 1.5-12.6-1.6zM261 203c-3.8 6.6-11.6 13-16.3 13.2 3.6-1.3 7-6.7 9.6-13-4.3 5.8-8.2 6.8-11 8-2 1.2-4.7 2-5.5 6.3 1.7 4.7 3.3 9 4.3 12.3 1.5 4.5 2.6 8.8 3.4 12.8-1.5 3.6.6 3.6.8 5.2.8 6 .6 11.3-.4 15.8-.5 2-.4 8 0 14 0 4-2.6 8 .6 11.4l.3 6.2c5.3 1 11 1.5 17.2 1.8-6.3-1-11-2.6-12.3-3.3-1.6-.8-1.6-4.4-1.2-4.6.5-.2 12 .3 21.4-5.3-5.6 2.2-20.3 3.8-23.5 2.3-3-1.6-1.2-3.2 1-4.2 4-1.7 5.4-4.6 2.6-9.2-2.2-3.7-3.2-8.8-2.2-10.6 1.3-2.2-3.4-8.5 1.3-7 4 1 7.3.2 14.5-1-10.7 0-14.5-1.2-14.3-4 .2-2 10.7-1.7 16.2-6.3-6 1.5-14 2.6-18.6 1.7-2.5-.5-1.8-3 1.6-2.5 3 .4 4.7.3 7.3-.7-4-.3-8.4-2.2-9.2-3-1.7-2.3-3-6-2.4-8 .8-2 8.4-2.8 10.7-5.6-2.3 1-8.6 3.7-10.6 1.7s-3.2-6.5-2-7c1.4-.4 13-7.3 17-17.3z" style="fill:#e6e6e6;stroke:none"/><path class="alpha--dark" d="M267.7 290.2c14-3.3 19.8-6 39.2-6-8.7 4.8-34 5.2-39.3 6z" style="fill:#e6e6e6;stroke:none"/><path class="alpha" d="M327 175.6c2.3 0 5.7 4.6 8.6 13.4 3.4 4 1.2 4.3 1.6 6.4 2.3 12.2-1 21.8.5 25 1.6 3.5 3.8 9.4 3.6 19 0 2.5.2 4.7.5 6.6 3 2.5 1 3.5 1.4 5 1 3 2 5.5 2.5 8.5.4 2 .7 4.3 1 6.7 3.3 3.2.5 3.5.7 5.3.7 5.7 1.6 13.2 2 19 .3 3.2 4.4 6 .8 9.3l1 15c-.3-4.5-12.6-2.2-16 .3 0-1.2-.6-6.4-2-14-2.8-2.3-1-4.8-1.4-7.3l-2.4-11.6c-.5-2-2.2-1.7-1.3-5-2-6.8-4.3-19.8-4-25 .2-2.6-2.3-1.8-1.5-6.8-1.2-2.6-2.7-5.6-4-10.4-2.4-9-4-28.3-2-41.4m-82.9-19c-1.8 1-2.5 1.3-4.7 5-6 9.5-4.8 20.6-4.4 28.8-3 6 .2 6.8-.6 8.8-3 6.7-3.5 10.7-4.3 20.4-3.2 4-.8 4.4-1.6 6.3-1.3 3.4-3.2 6.8-4.5 13-2.5 4.3-.7 4-1 6.5-.3 3.3-.5 7.2-.4 11.8l.3 14.3c0 3.8-3 8 .3 11.2.2 5.6.6 7 1.4 15 2.4-6.5 16-7.2 16-4.2-.3-2.7-.3-6.8 0-13.6 2.6-4 .4-7.3.7-10.2.7-8.5 2-16.8 3.5-20.8 2-5.2 2-11.6 2-16.2 0-2.8 1.5-3 .7-5.7.6-1 9.7-16 8.8-21.7-.3-2.3-.5-7 1-9.6 2-3.5-1.8-15.5-2.3-17.3" style="fill:#f2f2f2;stroke:#b3b3b3;stroke-width:1;stroke-linecap:round;stroke-linejoin:miter;stroke-miterlimit:4;stroke-opacity:1;stroke-dasharray:none;display:inline;enable-background:new"/><path class="alpha--dark" d="M248.5 173.5c5.6 3.3 9.8 7.8 13.8 15.3-3.3-10-7.5-12.7-13.8-15.3zm66.5.8c-3.2 1.8-9.7 8.5-12.3 15.4 2.6-9.6 7-13 12.2-15.4zm-18-15.5c5 5.3 6 14.2 3.2 21 1-7.5.7-15.3-3.3-21zm-31.3.4c-2.5 4.2-3.6 12-1.8 15 0-5.2 0-11.2 1.7-15zm66.7 22.1c-3.4.4-7 4.2-8.7 8.8 4.4-3 10.7-1.5 12.3 1 1.6 2.6 1 3.2-1 3-1.8-.4-4-1.4-10.7 10 4.5-5.4 6.7-7.3 10-6.3 3.6 1 1.4 22.3-2.7 29 3.5-4.8 5-3.2 6.6 1.5 1.6 4.7 4.4 8.8-.3 11.7-4.8 2.7-4 4.3 0 5.2 3.7 1 2.7 3.8 1.8 3.5-1-.3-4-1-6.3-.6 5 1.3 7.6 2.3 8.2 5 .6 3 2.5 9.2 2.2 12-.4 3-.8 4.2-3 4.8 3.2.6 4.5-1 5.4-2 1-.8 1.3 1.7-.3 3-1.5 1.2-6 4-9 5.3 4.3-.5 7.2-2.4 8.2-2.8 1-.3 1.2 15 2 16.8 1 2 3 7 1 7-1.8 0-10.6 0-12.8 1.2-2.2 1.2-2.8-3.2-1.6-4.8 1.3-1.6 5-5 6.3-5.6-3.4 1.8-6 3-6.5 3.4-.6.3-2.5-9.4-2.2-9.8.3-.3 4.4 1.3 8.5.4-3.5.3-9.8-1.3-10-3-.4-1.4 1.5-2 3.4-1-2.6-1.7-6-18.7-6.6-23-.7-4.6 5-3 8-2-3-2.5-8.7-3.2-9.6-4.7-1-1.5 1.2-2.8 3.8-2.8 2.5 0 1-3.4-.4-4.4-1.2-1-5.6-4.7-7.8-11.6-2-6.5-5-21.6-4.6-32.3-1 12.7.3 29.5 2.5 37.8 1.3 4.8 3 7.8 4 10.4-.7 5 1.7 4.2 1.5 6.7-.3 5.2 2 18.2 4 25-.8 3.3 1 3 1.3 5.2.7 2.8 1.8 7.8 2.5 11.5.5 2.5-1.4 5 1.4 7.4l1 4.8c5.4-2.8 13.4-3 16.5 1.5 0-2-.3-4.5-.5-7.5 3.6-3.2-.5-6-.8-9.4-.4-5.7-1.3-13.2-2-19-.2-1.7 2.5-2-.6-5.2l-1-6.7c-.6-3-1.6-5.6-2.6-8.4-.5-1.5 1.7-2.5-1.4-5-.3-2-.5-4-.5-6.7.2-9.5-2-15.4-3.6-19-1.4-3 1.7-12.8-.5-25-.4-2 1.8-2.3-1.6-6.3-1-3-2-5.6-3.2-7.7zM325 177c-3.5.3-12.2 3.4-17.7 8.4 6.7-7.4 12-8.5 17.8-8.3z" style="fill:#e6e6e6;stroke:none"/><path class="alpha" d="M333 301.6c3.6-1.4 12.8-3 17.4-1.4" style="fill:none;stroke:#b3b3b3;stroke-width:1"/><path class="alpha--dark" d="M227.7 181.8c-4.5 9-3.5 19-3 26.6-3.2 6 0 6.8-.8 8.8-.8 1.8-1.3 3.3-1.8 4.8 1-1.4 2.2-2 3.6-2.8 2.3-1.4 6.7-3 13-6.6-10.8 4.2-13.8 2-14 .3-.4-1.8.7-3.4 3.4-4 4-1 1.6-4-1.3-8-2.8-4-1.7-12.3.7-19.2zm19 23c0 6.3-1.5 9-4 12-4.6 5.3 0 5 1.6 8 1.4 2.8-2.6 7-6.4 15-3.8 7.7-7.3 8.5-14 11 4.2-.2 9.6-2.5 11-3-.5 2.8-6 6.6-12.3 9 8.3-1.3 11.2-6 11.8-4.5.5 1.5.4 15.3-7.4 16 0 0 3.7 0 5 1.3 1 1.2-1 2.3-3 2.2 2.4 3.8.4 7.6-.3 7 1.7 5.3-2 7.8.3 11.8 2.3 4 1 4.6-2 4-3-.6-11.8 1.4-13.2 2-1.5.6-1.5-2 1.4-4 3-2 2.3-7 0-11s-2-14.6-.3-15c1.6-.2 8.8 5.6 12.3 9.6-2.6-5.4-12.4-13-13.5-14.4-1.2-1.4-.3-3.4.5-2.3.8 1 3 2.6 7 5-4-3-6.3-7.3-6-8.7.2-1.7 2.2-9.5 4.5-11 2.3-1.4 5.6-1 9-.2-1.2-1-4.7-3-6.4-3-3 0-5-1.2-2-2.3 8-3 1.4-5 .6-12.8-.5 3-1 6.4-1.3 11-3 4-.8 4.5-1.6 6.4-1.3 3.4-3.2 6.8-4.5 13-2.5 4.3-.8 4-1 6.6-.3 3.2-.5 7-.4 11.7l.3 14.3c0 3.8-3 8 .3 11.2 0 3.5.4 5.8.7 8.5 2.2-6.3 9-9.2 16.6-7.6V298c2.6-4 .4-7.3.7-10.2.7-8.5 2-16.8 3.5-20.8 2-5.3 2-11.6 2-16.2 0-2.8 1.5-3 .6-5.7.8-1 10-16 9-21.7-.3-2.3-.5-7 1-9.6.8-1.6.5-5.3-.2-8.8zm-25.3 59.7c.8.5 1.6 1 2.4 1.3-1-.5-1.6-1-2.4-1.3zm23.4-91.2c4.7 4.4 8 9.7 10.2 18-1-10.6-4.7-14-10.2-18z" style="fill:#e6e6e6;stroke:none"/><path class="alpha" d="M268 151.6c1 7 8.4 9 14.3 8.6 5-.3 11.8-3 12.3-9 4.2 3.8 1.3 6.5 1.5 8.4.3 2 3.3 13.6-14.8 13.6-18 0-12.7-11.3-14.2-13.8-1.4-2.5 0-6.5 1-7.8z" style="fill:#f2f2f2;stroke:#b3b3b3;stroke-width:1"/><path class="alpha--dark" d="M296.6 153.8c0 2.8-2 7.3-5.8 9 2.3-.5 4.5-1.3 4.7.3.2 1.8-3.6 8.3-13.4 8.3-12 0-13-9.2-11.6-8.6 1.2.6 7.5 2 12 1-10.2 0-15.7-5-15.7-9-.4 1.5-.5 3.3.3 4.7 1.5 2.5-3.7 13.8 14.3 13.8s15-11.8 14.8-13.6c0-1.4 1.5-3.3.6-5.8z" style="fill:#e6e6e6;stroke:none"/></symbol></svg>