<svg xmlns="http://www.w3.org/2000/svg"><symbol id="idefault_1_of_4" viewBox="0 0 560 560"><path class="alpha" style="fill:#333;stroke-width:1px;stroke:#000" d="M282.633 91.11c-3.764-.012-5.374.472-10.276 2.6-8.105 3.52-11.112 6.536-14.734 14.78-1.582 3.604-3.954 8.032-5.27 9.848-3.155 4.355-5.14 11.02-5.793 19.455-.767 9.924-1.435 11.76-6.343 17.62-6.134 7.326-7.032 8.758-7.032 11.11 0 2.85 1.647 5.083 3.64 5.687 1.64.497 6.422 1.278 8.972 3.042 4.643 3.21 10.863 7.017 13.8 7.03 5.51.023 14.495-1.323 19.734-3.727 3.97-1.818 7.5-2.946 10.31-3.733 4.03 3.283 15.91 8.133 24.02 7.97 4.05-.082 13.67-7.49 16.23-10.046 1-.83.52-.266 1.72-2.503 1.31-2.436.43-5.79-3.1-11.826-1.7-2.918-4.47-8.763-6.15-12.97-1.68-4.208-3.7-9.2-4.45-11.087-.76-1.888-2.99-8.41-4.96-14.496-1.97-6.085-4.24-12.093-5.03-13.352-1.61-2.574-7.43-7.798-13.61-12.23-3.84-2.75-4.55-2.97-9.89-3.123-.64-.02-1.22-.05-1.76-.05zm-.85 10.283c.564.018 1.032.084 1.37.207 2.706.984 8.118 7.133 14.268 25.337s7.14 16.237 6.16 19.435c-.98 3.198-2.95 9.348-6.39 13.284s-5.9 7.872-9.1 12.792c0 0-9.84 3.936-11.31 4.428-8.12-.738-15.25-.247-17.46-6.397s-.98-46.99-.24-48.96c.74-1.97 7.88-15.75 9.11-16.98 1.07-1.08 9.68-3.28 13.63-3.16z"/><path class="alpha--dark" style="fill:#1a1a1a;stroke:none" d="M282.633 91.11c-3.764-.012-5.374.472-10.276 2.6a55.41 55.41 0 0 0-2.813 1.307c-.864.436-1.66.876-2.4 1.33 0 0 0-.002 0 0a20.973 20.973 0 0 0-2.977 2.175 18.693 18.693 0 0 0-2.427 2.597c-.496.64-.967 1.33-1.426 2.07-.918 1.49-1.785 3.23-2.69 5.29-1.583 3.6-3.955 8.03-5.27 9.84-.198.27-.39.55-.578.84-.94 1.45-1.766 3.12-2.47 5a35.13 35.13 0 0 0-.79 2.35c-.242.81-.465 1.66-.67 2.54 0 0 .002 0 0 0-.202.88-.387 1.78-.55 2.72a63.472 63.472 0 0 0-.736 5.98c-.767 9.92-1.435 11.76-6.343 17.62-1.533 1.83-2.74 3.29-3.686 4.49-.47.6-.88 1.13-1.23 1.61-1.76 2.415-2.11 3.53-2.11 5 0 2.85 1.65 5.08 3.64 5.683 1.64.496 6.42 1.28 8.97 3.04 4.65 3.21 10.87 7.02 13.8 7.03 5.51.025 14.5-1.32 19.74-3.726 3.97-1.82 7.5-2.94 10.31-3.73 4.03 3.287 15.91 8.137 24.02 7.97 4.05-.08 13.67-7.49 16.23-10.04.25-.21.41-.33.52-.43.35-.3.3-.4 1.2-2.077.08-.15.16-.31.22-.47.2-.48.31-.995.34-1.56.14-2.252-1.01-5.27-3.65-9.797-1.7-2.92-4.47-8.766-6.15-12.97-1.68-4.21-3.7-9.2-4.45-11.09-.76-1.89-2.99-8.41-4.96-14.5-1.97-6.083-4.24-12.09-5.03-13.35-.4-.64-1.07-1.45-1.94-2.37-.43-.464-.92-.95-1.45-1.46-.53-.51-1.1-1.044-1.7-1.59-2.42-2.18-5.42-4.594-8.51-6.81-.48-.344-.91-.65-1.31-.92H293c-.397-.267-.76-.5-1.104-.707-1.725-1.03-2.985-1.3-5.68-1.43a71.88 71.88 0 0 0-1.8-.07c-.64-.02-1.228-.05-1.766-.05zm-2.91 1.264 4.39 1.24c3.652 1.047 5.316 2.185 9.893 6.675 7.23 7.09 8.465 10.08 12.468 30.18.74 3.7 2.047 6.52 5.437 11.68 6.17 9.38 11.31 19.85 11.31 23 0 1.47-.67 3.45-1.6 4.62-.88 1.12-1.4 2.26-1.14 2.52.73.72 5.03-3.73 5.03-5.2 0-1.85-3.37-10.69-6.98-18.27-4.96-10.42-7.31-16.72-8.92-24.03-2.35-10.72-5.05-15.73-12.7-23.51-6.94-7.06-8.05-9.31-2.5-5.06 8.67 6.64 14.68 14.76 16.21 21.91 1.16 5.38 5.93 19.19 8.75 25.34 1.64 3.57 4.75 10.34 6.92 15.04 2.67 5.8 3.78 9.06 3.44 10.132-.64 2.02-2.48 3.777-9.3 8.87-5.74 4.29-6.79 4.58-12.83 3.32-4.02-.84-14.83-5.486-15.04-6.46-.09-.42 1.71-1.43 4.01-2.26 4.07-1.477 4.12-1.52 1.89-2-1.26-.28-1.94-.56-1.52-.62 1.24-.18 8.398-6.82 7.89-7.32-.4-.4-7.6 3.77-13.59 7.87l-1.88 1.29 1.81-3.05c1-1.68 3.17-4.88 4.82-7.11.107-.14.226-.33.336-.48-2.98 3.59-5.284 7.25-8.193 11.72 0 0-9.84 3.94-11.31 4.43-8.117-.74-15.25-.25-17.465-6.4s-.99-46.99-.25-48.957c.736-1.97 7.87-15.745 9.1-16.975.024-.026.07-.05.1-.08-.28.16-.523.32-.685.466-.84.76-3.21 4.86-5.27 9.11l-3.746 7.72-.57 19.08c-.736 25.48-.72 25.73 1.05 29.73 1.8 4.067 3.34 4.88 11.54 6.1l5.72.86-4.58 1.506c-2.667.875-6.66 1.48-9.584 1.48-4.387 0-5.495-.31-8.776-2.48-2.07-1.365-5.058-3.03-6.63-3.72-3.39-4.586-10.77-.844-12.017-7.034 0-2.36 2.856-6.664 7.154-10.75l2.77-2.62v2.075c0 2.79 2.56 7.88 5.77 11.518 3.394 3.844 3.365 3.01-.05-1.74-4.064-5.66-4.52-9.57-2.67-22.94 1.89-13.64 2.98-19.135 4.1-20.743.667-.95.88.71.95 7.25.148 13.38 1.19 34.03 1.72 34.03.267 0 .6-8.84.74-19.64.23-18.24.38-20.06 2.098-25.588 1.018-3.274 1.838-6.8 1.838-7.844 0-5.82 5.05-11.235 14.09-15.12l6.51-2.79zm-4.41 7.737c-2.108 0-4.072.23-5.126.68-1.1.48-.253.71 3.05.79l4.58.12-1.097.24c1.902-.34 3.745-.58 5.063-.53.564.02 1.032.09 1.37.21.145.06.3.13.46.21-.757-.45-1.527-.8-2.314-1.02-1.63-.45-3.88-.68-5.99-.68zm9.358 2.42c2.96 2.37 7.6 9.14 12.75 24.41 6.15 18.21 7.14 16.24 6.16 19.44-.35 1.16-.84 2.71-1.48 4.39.77-1.59 1.29-2.87 1.29-3.38 0-4.41 10.63 9.72 12.19 16.21 1.3 5.39.61 7.85-3.12 11.4-3.37 3.21-2.14 4.02 1.48.98 2.88-2.42 4.72-6.31 4.72-9.94 0-5.19-3.33-11.43-14.44-27.01-4.69-6.57-5.5-8.19-8.01-15.71-3.64-10.89-7.37-17.65-11.5-20.77zm-11.01.06-.2.04c-.91.2-1.83.48-2.7.78a39.9 39.9 0 0 1 2.91-.82z"/></symbol><symbol id="idefault_2_of_4" viewBox="0 0 560 560"><g id="cloak_default_2_of_4_right"><path class="alpha" style="fill:#333;stroke-width:1px;stroke:#000" d="M225.676 275.49c-12.78-.6-28.818 25.506-30.457 35.448-3.18 19.255.52 39.232 3.14 58.45 1.2 8.83 4.37 17.928 5.25 29.08.98 12.36-1.75 36.712-.12 44.132 4.4 19.97 9.84 24.07 13.49 28.325-.27-2.308-.58-5.003-.81-6.746-2.61-20.02 4.56-38.2 3.25-55.36-.28-3.62-1-13.04-1.49-20.92-.49-7.89-1.25-19.04-1.71-24.79-.47-5.75-.87-12.89-1.17-15.84-1.08-10.75-2.61-18.17-2-23.02.78-6.21.88-7 2.59-8.65 1.04-1 1.95-2.48 1.95-2.48.11-1.49 5.74-2.23 7.14-2.23.88 0 3.38.08 6.28 3.25 5.99 6.57 5.98 6.85 3.32 26.13-1.03 7.39-2.06 20.45-2.88 28.97-.68 7.06-.85 15.27-1.35 20.44-.33 3.32-.67 9.95-1.83 17.05-.11.66-1.37 8.4-2.31 15.61-.47 3.57-1.63 11.69-2.55 18.03-1.25 8.89.75 27.12 1.76 33.18.44 2.63.34 9.26-.01 15.88 3.88.6 7.31-16.32 8.96-25.74.94-4.68 6.74-3.01 9.26-10.23.22-3.5.71-7.21 1.1-8.26.98-2.65-.35-13.35-2.13-17.56-2.16-5.12-2.11-15.31.12-24.87 2.03-8.72 5.72-30.26 5.99-35.33.25-4.66-1.74-26-3.15-35.07-.72-4.63-2.36-10.64-4.33-15.79-1.75-4.57-3.01-11.55-3.64-14.67-1.01-5.01-3.16-11.06-4.68-13.31-.28-.42-.63-2.14-.8-3.81-.48-4.96-1.33-7.82-2.41-8.28a8.667 8.667 0 0 0-3.84-1.09z"/><path class="alpha--dark" style="fill:#1a1a1a;stroke:none" d="M234.31 393.27c-.83 5.238.755-5.78 1.045-12.85 1.17-28.596 3.225-47.816 3.766-47.816.32 0 1.01 5.964 1.61 13.25 1.48 17.945 1.15 30.123-1.43 46.8-2.29 14.797-2.33 16.593-1.19 15.448 2.41-2.423 7.54-34.823 7.48-45.56-.04-7.43-2.04-31.483-2.99-34.89-.34-1.244-1.42-4.525-2.38-7.293-.97-2.77-1.89-9.18-2.88-13.38-2.77-11.68-4.85-16-8.91-19.04-1.58-1.18-1.9-1.19-3.89-.1-5.52 3-12.45 9.82-15.45 19.43-1.57 5.02-2.05 8.01-2.56 16.12-.34 5.48-.47 12.23-.3 14.99.81 13.04 1.95 37.27 1.57 37.68-.23.25-.59.25-.8-.01-.44-.54-2.4-25.91-2.89-40-.78-22.83 4.86-39.66 12.55-51.42 2.88-4.4 5.12-6.23 8.53-6.97l2.29-.5c-.33-1.15-2.21-1.7-2.21-1.7.15 0 .3-.02.45-.01 1.33.06 2.62.41 3.85 1.09 1.08.46 1.94 3.31 2.41 8.28.16 1.67.51 3.39.8 3.81 1.52 2.24 3.67 8.29 4.68 13.3.63 3.12 1.9 10.1 3.64 14.67 1.97 5.14 3.61 11.15 4.33 15.78 1.41 9.07 3.4 30.41 3.15 35.07-.27 5.06-3.96 26.61-5.99 35.33-2.22 9.56-2.27 19.75-.11 24.87 1.77 4.21 3.11 14.91 2.12 17.55-.39 1.04-.88 4.76-1.1 8.25-2.52 7.23-8.31 5.55-9.26 10.23-2.4 13.73-8.59 43.39-14.45 11.53-2.96-7.56-10.48-6.66-16.22-32.66-.05-.23-.08-.53-.13-.79l-.4-5.17c-.13-5.85.32-14.02.62-21.86.17 2.39.35 5.17.47 7.64.21 4.24.6 10.82.86 14.62.27 3.81.45 7.69.4 8.64-.11 2.04.11 2.14 1.38.58 1.56-1.93 1.13-20.63-.49-30.4-.74-4.46-1.7-9.5-2.18-11.2l-.2-.73c-.01-1.99-.07-3.85-.2-5.48-.89-11.16-4.05-20.25-5.25-29.08-.68-5-1.43-10.06-2.112-15.13-.34-8.28-.444-17.81-.514-30.18-.03-5.14-.063-10.06-.12-14.89 1.06-3.9 3.64-9.36 7.07-14.76.04.41.18.57.45.39.41-.27 2.35-2.89 4.31-5.82 3.33-4.98 5.178-6.74 3.21-3.06-.48.9-2.89 7.35-5.4 14.34-5.9 16.45-6.52 21.42-6.17 48.04.28 21.95.64 26.136 3.76 39.345 5.2 22.03 8.01 37.85 7.7 49.05-.11 5.13 1.25 24.844 5.64 27.45 3.17 3.273 4.73 6.142 9.04 9.41 1.4 19.17 1.216-10.19 3.095-13.21 2.493-9.67 2.735-19.78 3.71-29.647.21-12.14.133-16.32.56-21.34.364-4.28 2.29-19.69 1.726-16.12zm-9.343-98.923c1.564.08 3.49.806 5.16 2.294 2.51 2.24 5.945 6.86 5.457 7.36-.134.14-1.44-.29-2.916-.97-3.776-1.73-10.875-1.37-14.27 1.47-3.446 2.88-5.014 5.55-6.797 11.43-1.47 4.85-1.63 9.98-.38 28.66.77 11.53 1.76 27.2 2.14 34.81.23 4.48.77 12.33 1.21 17.44.44 5.12.81 13.49.81 18.59.01 8.7-.01 8.89-.44 3.1-1.57-21.01-3.73-49.41-5.25-67.66-1.62-19.53-1.23-32.26.79-39.37 3.34-11.7 9.81-17.35 14.5-17.12zm12.758 118.374h-.002c-.202.02-.22.31-.037.82.474 1.33 1.005 1.55 1.023.45 0-.39-.33-.91-.73-1.16a.573.573 0 0 0-.26-.09zm4.312 17.53c-.275-.05-.455.12-.456.44 0 .42.35.96.77 1.22.42.26.77.13.77-.29s-.34-.98-.76-1.23c-.1-.06-.22-.1-.31-.12zm-6.26 1.3c-.16 0-.292 1.21-.3 2.68-.008 1.47.247 2.68.58 2.67.335 0 .483-1.2.32-2.67-.163-1.47-.437-2.67-.6-2.67z"/></g><g id="cloak_default_2_of_4_left"><path class="alpha" style="fill:#333;stroke-width:1px;stroke:#000" d="M341.52 310.824c-3.302.027-6.862.57-7.913 2.286-6.207 10.15-11.738 27.177-13.687 39.267-.914 5.673-3.728 29.326-2.836 38.39 1.316 13.375 1.41 29.002.97 42.897-.27 1.14-7.767 22.515-6.49 27.56 1.472 5.832 6.39 11.528 10.475 11.88 7.79.67 18.31-11.484 23.49-14.83 5.18-3.347 7.94-5.184 9.77-6.07 1.83-.884 3.31-1.992 3.31-2.48 0-.487-.49-3.48-1.1-6.626-.91-4.66-.97-6.944-.26-12.375.66-5.13.65-10.388-.12-22.72-.66-10.59-.81-21.278-.45-31.474.46-13.09.3-17.67-1.05-29.95-2.36-21.45-4.41-25.82-7.33-30.21-1.41-2.11-1.15-2.86-2.75-4.17-.36-.3-2.06-1.4-4.04-1.38zm-1.916 6.823c1.396.034 2.453.773 3.38 1.358 4.425 2.794 5.005 6.364 5.46 8.526-.33 1.88-.865 4.61-.865 4.61-.03.76-.91 3.1-1.96 5.16-7.27 14.42-6.85 20.76-8.73 29.52-2.24 17.3-2.85 26.64-3.34 50.79l-.5 24.51-2.48 3.98c-1.37 2.2-2.48 4.56-2.48 5.23 0 .67-1.2 3.36-2.67 5.99-3.5 6.26-3.52 7.94-.1 7.94 2.08 0 2.96-1.05 6.27-3.81 3.71-3.09 9.06-8.66 11.23-11.44 1.68-2.16 7.89-9.32 9.46-17.3-.87 12.73-16.21 31.77-23.82 35.35-4.98 2.34-6.13 2.27-8.92-.52-2.04-2.03-2.27-2.7-1.91-5.38.22-1.69 1.26-4.39 2.31-5.98 1.06-1.59 2.16-4.24 2.45-5.86.29-1.63 1.13-3.64 1.86-4.48 4.79-5.52 5.35-7.19 5.32-15.62-.04-8.04-1.38-27.7-3.13-46.01-.99-10.37-.13-30.93 1.76-42.04.82-4.85 2.22-8.07 2.62-9.93.98-4.54 1.61-8.6 4.21-11.77 1.34-1.63 2.72-2.8 4.52-2.75z"/><path class="alpha--dark" style="fill:#1a1a1a;stroke:none" d="M333.71 312.17c-.04.032-.077.058-.116.09-4.076 6.67-7.515 15.05-10.358 25.44-.278 1.988-1.125 6.77-1.978 11.173-.967 4.986-1.903 14.085-2.313 22.412-.38 7.71-.833 14.16-1.002 14.328-.257.258-.467-3.525-.625-8.988-.387 5.595-.56 10.843-.234 14.143 2.525 11.247 1.758 24.53 1.21 36.853l.102 2.18-.222.75c-.042 1.05-.09 2.1-.12 3.13-.136.57-2.077 6.2-3.825 12.32-.66 2.3-1.29 4.66-1.78 6.85-.83 3.65-1.29 6.82-.89 8.4.1.4.21.79.34 1.18.03.1.07.19.1.29.1.31.21.61.33.9.03.09.07.17.11.26.14.34.29.67.46 1l.03.06c.19.38.39.76.6 1.12l1.46 2.14v.07l.01.01c.5.67 1.05 1.29 1.61 1.84l.15.15c.23.22.46.44.69.64l.21.18c.2.17.4.33.61.48l.32.22c.17.12.35.23.53.34.11.07.22.14.33.2.18.1.37.19.55.28.1.04.2.09.29.13.19.08.38.14.57.2.1.03.21.07.31.09.28.07.55.13.82.15.97.08 1.99-.04 3.03-.31 1.46-.51 3.16-1.29 4.95-2.25.7-.42 1.4-.89 2.09-1.38l.32-.222c.67-.48 1.34-.97 2-1.49l.02-.02.01-.01c.34-.27.67-.545 1.01-.82a125.82 125.82 0 0 0 3.12-2.62l.07-.063c.92-.79 1.8-1.55 2.63-2.28.56-.483 1.14-.98 1.65-1.41.29-.24.58-.48.85-.693.13-.11.27-.217.4-.31.46-.36.91-.69 1.31-.95 2.18-1.41 3.86-2.497 5.29-3.41a112.09 112.09 0 0 1 2.96-1.836l.01-.004c.54-.32 1.05-.6 1.51-.82.46-.22.89-.46 1.29-.69.36-.22.68-.43.96-.63l.2-.16c.193-.15.36-.3.49-.43.06-.065.132-.13.18-.19.032-.05.07-.094.093-.14l.04-.054a.39.39 0 0 0 .06-.19c0-.24-.12-1.11-.32-2.31s-.47-2.734-.775-4.31c-.56-2.91-.8-4.895-.73-7.3.03-.96.11-1.99.24-3.17.07-.59.14-1.22.23-1.9.09-.64.16-1.285.22-1.94v-.006c.06-.66.11-1.333.15-2.036.123-2.11.15-4.48.07-7.48-.08-3-.26-6.64-.55-11.26-.66-10.59-.81-21.28-.45-31.47.28-8.18.33-13.04-.01-18.53-.13-2.1-.32-4.32-.57-6.83l-.03-.32c-.13-1.33-.28-2.74-.45-4.28-.59-5.36-1.12-9.857-1.62-13.67v-.01c-.507-3.81-1.12-6.267-1.748-8.24a33.054 33.054 0 0 0-1.91-4.768v-.003c-.65-1.31-1.06-3.64-1.75-4.77-2.2-3.58-2.676-5.7-6.188-5.62-3.51.08-7.57 1.71-8.72 2.66zm8.08.59c2.403 0 6.415 5.695 8.387 10.896 3.743 9.875 4.196 23.846 3.983 47.725-.118 13.29.18 28.74.717 36.01.728 9.85.737 14.67.045 21.36-.75 7.25-.69 9.5.264 13.93.625 2.91 1.05 5.35.953 5.41-2.83 1.77-9.29 6.94-13.88 11.11-6.31 5.75-12.03 9.99-15.55 11.5-1.82.78-3.74 1.41-4.27 1.41-1.26 0-6.31-4.89-8.16-7.91-2.12-3.46-1.83-6.38 1.95-19.55 1.87-6.52 3.81-14.44 4.29-17.57.52-3.41.93-18.84 1.05-38.5.16-29.43.36-33.71 1.79-41.58.87-4.82 1.95-9.51 2.21-10.49 2.06-7.6 5.14-17.21 6.89-19.86 1.99-3 7.68-3.85 9.3-3.85zm6.96 13.988c-.83 2.255-1.165 5.332-1.17 5.37.005.43.087 2.07.81 4.93 1.01 3.985 1.78 8.792 1.717 10.68-.063 1.89.355 6.01.93 9.157 1.037 5.673 1.05 5.695 1.598 2.67.99-5.48.69-9.39-1.574-19.647-2.1-9.543-2.71-11.666-2.31-13.16zm-5.52 15.623c-1.605 3.67-2.653 6.75-3.408 9.52.61-1.75 1.266-2.96 1.99-3.68.62-.62 1.03-.95 1.26-.95.508 0 .076 1.54-1.31 4.67-1.686 3.81-1.643 6.54.144 10.85.853 2.06.837 3.65-.095 9.92-.83 5.59-1.12 15.72-1.17 40.27-.03 22.58-.33 33.76-.95 35.86-1.23 4.21-3.72 8.1-8.08 12.59 3.71-3.09 9.07-8.66 11.23-11.44-1.04 1.03-1.09.75-.57-2.67.32-2.09.67-16.17.77-31.28.1-15.1.56-31.68 1.03-36.86.91-10.03.66-13.69-1.23-19.28-1.16-3.41-1.12-3.63.84-7.91 2.42-5.28 2.47-6.2.48-7.27-.99-.53-1.19-1.22-.89-2.31z"/></g></symbol><symbol id="idefault_3_of_4" viewBox="0 0 560 560"><path class="alpha" style="fill:#333;stroke-width:.5" d="M259.85 175.21c9.393 6.262 35.485 5.22 44.183-3.827 16.7 22.266-8.698 127.68-12.872 131.854-10.08-30.615-29.57-118.98-31.31-128.027z"/><path class="alpha" style="fill:#333;stroke:#000;stroke-width:1" d="M233.38 171.965c13.168 3.746 13.822 39.326 6.746 59.76-13.906 114.402-25.864 276.152-25.61 292.977 12.417 9.898 34.142 11.526 43.178 13.378 2.65.543 16.394 1.156 21.625-.286 3.39-.937 16.41-2.993 23.14-1.825 4.09 6.31 33.17 5.97 52.79.2-4.85-121.74-31.72-263.57-25.65-309.11-4.32-10.32-6.96-39.82-1.44-52.85-10.04-3.59-13.93-9.72-23.14-13.2 2.63 17.24-14.11 20.56-12.61 53.53.46 10.11-.29 44.13-1.97 64.94-.62-18.56 1.12-28.8 1.45-42.04.35-13.85-6.1-34.43-14.17-51.36-7.35-15.41-12.86-24.38-19.73-27.09-10.5 3.85-13.7 8.97-24.64 12.94z"/><path class="alpha--dark" style="fill:#1a1a1a;stroke:none" d="M258.022 159.028c-.17.062-.32.127-.485.19-.066 7.584.332 8.734 1.493 11.36 1.8 4.067 3.343 4.877 11.54 6.102l2.647.4c-5.252-9.9-9.812-15.932-15.195-18.052zm-3.293 1.35c-.23.105-.46.21-.68.314.14 1.585.28 2.66.39 2.66.09 0 .18-1.254.28-2.973zm-5.83 3.15c-.34.21-.68.418-1.01.63.75 1.173 1.6 2.316 2.51 3.343 3.39 3.85 3.36 3.01-.05-1.74-.55-.76-1.03-1.5-1.45-2.23zm67.25 3.957c.08 2.94-1.02 4.938-3.72 7.502-3.37 3.207-2.14 4.02 1.48.978 2.1-1.77 3.65-4.337 4.33-7.01-.71-.488-1.41-.978-2.1-1.47zm-79.2 3.03c-1.1.497-2.28.983-3.57 1.45 5.39 1.534 8.68 8.406 10.2 17.387.49-2.785 1.21-5.173 2.21-11.146.22.016.57.246 1.09.572 1.04.65 2.11 2.152 2 5.008-.11 2.824-.06 4.048 0 4.53-.03 0-.05.034-.08.048.33 7.228-.77 37.12-2.29 50.52-.64 5.666-1.99 15.45-3.01 21.745-1.02 6.29-2.04 13.33-2.27 15.63l-.41 4.19 1.14-3.82c3.01-10.1 7.43-35.75 6.84-39.7-.29-1.96-.04-3.91.64-5.34 1.2-2.54 3.24-32.6 2.36-34.88-.29-.75-.3-4.27 0-7.82.36-4.4.66-6.22 1.79-6.44.08-.02.16-.03.26-.02.66 0 1.57.42 2.88 1.09 1.92.99 2.22 1.65 2.69 6.05.8 7.48-1.43 28.63-6.49 61.87-1.22 7.97-3.25 22.05-4.55 31.28-1.3 9.23-3.36 21.76-4.56 27.85-2.07 10.46-6.61 34.2-9.92 51.88-2.17 11.58-3.35 19.83-2.89 20.29.22.22.76-1.59 1.21-4.03.45-2.43 2.05-9.75 3.55-16.26 4.27-18.56 7.05-31.68 11.11-52.26 5.48-27.76 5.84-29.65 7.23-39.29 1.17-8.13 3.73-25.12 8.34-55.32 1.03-6.72 2.43-16.33 3.12-21.36.78-5.68 1.7-9.67 2.43-10.49 1.4-1.58 4-1.78 4-.31 0 5.7-6.35 45.84-10.39 65.73-3.09 15.17-2.18 14.69 2.36-1.26 3.09-10.88 5.19-19.68 8.41-35.36.69-3.36 1.88-8.34 2.67-11.06.79-2.73 2-7.67 2.67-10.99.25-1.25.43-2.06.62-2.92-.23-.49-.45-.99-.69-1.48a236.39 236.39 0 0 0-3.88-7.79l-2.157.71c-2.666.87-6.657 1.47-9.584 1.47-4.383 0-5.49-.31-8.773-2.48-2.07-1.37-5.06-3.03-6.63-3.72-2.45-3.32-6.98-2.29-9.78-3.8zm84.01.222c-.46.755-.68 1.393-.49 1.58.25.256.96-.15 1.77-.828-.44-.25-.86-.5-1.28-.76zm4.9 2.564c-1.33 1.12-3.08 2.48-5.47 4.27-5.74 4.29-6.8 4.58-12.83 3.32-1.56-.32-4.12-1.22-6.7-2.25-.48.91-.95 1.8-1.45 2.76 1.01.98 2.3 2.7 3.71 5.12 4.69 8.05 10.74 26.75 17.76 55.06l1.5 6.11-.38-8.39c-.22-4.62-.7-11.31-1.08-14.88-.38-3.57-.91-12.9-1.17-20.75-.45-13.41-.39-14.47 1.12-17.88 1.76-3.98 4.26-7.49 6.37-9.04.27-.88.57-1.72.9-2.5-.81-.29-1.57-.6-2.31-.92zm-28.22 11.67c-1.32 2.82-2.58 6-3.53 9.8.19.36.36.66.55 1.02 3.52 6.72 6.4 11.98 6.41 11.68.01-.29-.86-5.85-1.91-12.35-.64-3.98-1.19-7.61-1.53-10.14zm-16.6 8.51c-2.76 15.9-7.39 45.54-8.15 52.66-.45 4.2-1.49 12.61-2.32 18.69-4.22 31.14-6.73 56.63-7.68 77.7-.43 9.51-.92 17.8-1.1 18.43-.18.63-.69 7.84-1.15 16.03-.46 8.19-1.39 21.06-2.03 28.61-1.12 13.09-1.46 18.72-3.29 53.03-.44 8.18-1.14 18.49-1.55 22.89-.42 4.41-.81 18.31-.86 30.9-.05 11.63-.24 22.15-.43 24.78 1.12.18 2.12.36 3.07.53.5-.26 1.2-.14 2.1.38 2.65.55 16.39 1.16 21.62-.28 1.46-.4 2.37-.62 3.04-.65 1.34-.24 2.9-.49 4.65-.73.28-.4 1.51-.74 2.79-.74 1.11 0 1.95.1 2.07.22 2.14-.18 4.31-.29 6.29-.26l-.76-15.73c-.79-16.57-2.5-114.47-2.46-140.43.01-6.89.31-10.87.81-10.87.51 0 .61 2.57.28 7.49-.42 6.43-.3 7.67.81 8.77 1.94 1.94 4.62 1.57 7.63-1.07l2.69-2.36v3.39c0 1.87-.49 18.46-1.1 36.88-.61 18.43-1.51 50.15-2.01 70.51-.49 20.35-1.12 38.89-1.38 41.2-.13 1.14-.25 1.95-.39 2.56.04.01.1.01.14.02 1.26 1.96 4.93 3.27 9.97 3.99.55-.02 1.05-.02 1.62-.04 22.53-.74 31.74-1.41 38.38-2.99.95-.24 1.9-.49 2.81-.76-.03-.76-.07-1.54-.1-2.31-.34.1-.65.18-.97.27-3.32.92-8.38 1.86-11.25 2.1-5.19.44-5.22.42-5.22-1.5 0-1.06-.52-8.39-1.15-16.3-3.83-53.04-.74-51.94-5.25-97.63l-.38-20.67 1.88.36c1.7.33 6.2-1.55 10.53-4.13-.07-.6-.14-1.18-.2-1.78-2.06 1.44-3.86 2.53-5.29 3.14-1.82.78-3.74 1.41-4.27 1.41-1.26 0-6.32-4.9-8.16-7.92-2.12-3.46-1.83-6.39 1.95-19.55 1.87-6.53 3.81-14.44 4.29-17.57.52-3.42.94-18.84 1.05-38.51.03-4.88.06-8.19.1-11.82-.65-6.31-1.25-12.38-1.77-18.2-.42 4.02-.77 8.49-.98 12.76-.38 7.71-.84 14.16-1 14.33-.85.85-1.26-39.37-.55-53.52.13-2.59.24-4.5.36-6.58-.33-10.24-.16-18.87.71-25.45-1.4-3.34-2.62-8.7-3.44-14.85-.08 12.72-.47 28.95-1 39.64-.64 12.8-1.2 24.99-1.24 27.08-.05 2.44-1.01-2.12-2.67-12.59-2.56-16.14-9.09-44.67-13.04-57.03-1.11-3.46-2.1-6.21-2.2-6.1-.1.11.08 5.17.43 11.26.46 8.19 1.04 12.08 2.19 14.99 2.27 5.76 6.64 21.47 8.77 31.54 1.59 7.48 4.08 24.24 9.99 67.52.63 4.61 1.37 12.87 1.65 18.33l.48 9.94-3.53 11.85c-4.238 14.18-4.63 19.5-1.72 23.8l1.86 2.72.333 35.43c.19 19.49.59 35.87.91 36.38.32.52.72 6.65.86 13.64.15 6.99.66 21.12 1.15 31.4.48 10.28.745 20.24.594 22.13-.27 3.32-.37 3.44-2.96 3.6-2.75.17-12.487-2.12-15.21-3.58-1.73-.92-1.72 1.59 0-102.64.4-24.332.72-47.04.72-50.47v-6.25l4.77-5.92c2.62-3.25 6.28-7.8 8.13-10.104l3.36-4.195-2.338-7.3c-1.73-5.35-2.59-9.97-3.2-17.24-1.11-13.18-2.46-17.49-2.03-6.48.36 9.24.18 8.7-3.67-11.07-1.5-7.68-3.21-19.89-3.89-27.73-2.26-26.09-7.034-47.21-16.31-72-1.953-5.23-3.334-8.87-4.45-11.69-.51 3.87-.73 8.31-.49 13.47.24 5.34.14 17.35-.25 30.53.877-4.66 1.324-11.23 1.38-20.63l.07-13.42 3.03 9.16c3.42 10.34 3.63 13.22 1.43 20.24-2.557 8.14-1.53 7.79 1.93-.66l1.69-4.1 1.17 4.1c.644 2.256 1.27 5.11 1.4 6.37l.24 2.29h-4.69c-2.58 0-4.95.256-5.27.57-.32.315-1.228.57-2.02.57-.2 0-.35-.03-.5-.06-.03.85-.05 1.67-.08 2.52 2.06.34 3.664.59 3.99.6.313 0 .57 1.504.57 3.34 0 3.13-.15 3.37-2.388 3.814-.97.196-1.61.32-2.5.346-.31 6.94-.69 13.67-1.15 19.39-.25-7.62-.1-13.8.18-19.4-1.597-.05-4.086-.31-9.2-.86-6.67-.72-7.056-.87-7.056-2.56 0-1.66.305-1.79 4.24-1.79 4.92 0 4.91-.89-.02-2.27-2.57-.72-3.456-1.35-3.456-2.45 0-.7.15-1.06.526-1.15.06-.01.123-.02.19-.02.2 0 .45.07.76.16.98.31 9.1 1.79 14.514 2.7.32-4.76.65-9.4.78-14.41.3-11.89-4.42-28.75-10.87-43.99zm1.6 7.5c.13-.01.26.32.4.91.3 1.26 2.14 7.21 4.05 13.21 4.05 12.7 5.23 21.07 4.07 28.54-.44 2.81-.79 5.3-.79 5.53 0 .24-1.15.41-2.55.41h-2.58l-.46-9.72c-.44-9.11-1.2-13.77-3.63-22.43-.84-2.99-.8-4.69.17-10.68.65-4.05.98-5.72 1.28-5.74zm-3.58 20.63c.19.05.62.63 1.09 1.5 1.78 3.29 4.11 14.83 4.12 20.56.01 3.67-.28 5.14-.96 5.08-2.83-.26-3.65-1.01-4.41-3.98-.45-1.75-1.12-4.08-1.48-5.2-.41-1.26-.26-4.85.41-9.53.58-4.13 1.09-7.88 1.12-8.3.01-.1.03-.13.09-.12zm-36.63 1.65c-.65 3.01-1.42 5.87-2.33 8.48-1.19 9.78-2.36 19.98-3.51 30.33v.1c0 5.86-.34 9.71-.93 10.68-.14.22-.22.35-.32.5-1.18 10.83-2.32 21.82-3.44 32.9.87 7.32.3 15.42-1.33 30.72-1.58 14.88-2.48 21.51-4.32 28.38-.93 10.29-1.82 20.42-2.67 30.29 1.09-7.81 3.19-19 5.78-30.84 3.15-14.37 4.97-27.54 7.16-51.88 3.35-37.43 5.25-66.47 5.88-89.64zm33.98 19.84c.38-.06.87.59 1.21 1.91.26 1 .03 1.53-.67 1.53-.65 0-1.08-.76-1.08-1.93 0-.96.23-1.45.52-1.5zm29.09 7.25.81 4.77c.45 2.63 1.04 7.69 1.31 11.26.52 7.1 2.27 17.69 5.19 31.28 1.04 4.83 3.13 15.47 4.65 23.66 1.52 8.19 4.02 19.08 5.53 24.2l2.74 9.3-3.75 4.32c-2.07 2.37-5.31 6.44-7.2 9.04-6.09 8.39-10.8 14.11-12.64 15.31-2.16 1.41-2.79 1.46-3.98.26-1.74-1.73-.91-3.78 3.34-8.22l4.24-4.46-.53-6.01c-.46-5.28-.28-6.79 1.52-12.47 1.12-3.55 3.06-10.88 4.29-16.28l2.24-9.82-1.55-11.77c-.84-6.48-1.52-13.18-1.52-14.9 0-1.72-.18-2.95-.41-2.72-.23.22-.75 6.02-1.17 12.9-.42 6.87-1.22 14.72-1.76 17.45-.89 4.41-1.03 4.7-1.48 2.67-2.66-12.09-5.02-20.51-7.89-28.23-4.44-11.91-4.54-15.63-.76-34.12 1.51-7.44 2.54-14.09 2.29-14.76-.26-.67-1.19-1.5-2.08-1.86-1.14-.46-.13-.68 3.46-.71l5.08-.05zm-3.84 9.37c-.33.2-.65 3.04-.98 8.56-1.08 17.81-.93 20.66 1.45 27.71 1.18 3.49 2.32 6.16 2.55 5.94.22-.22.01-4.62-.45-9.77-.47-5.15-1.06-14.14-1.34-19.98-.4-8.55-.83-12.69-1.24-12.44zm-23.37 2.07h6.98l-.53 15.45a8378 8378 0 0 1-.88 25.37c-.25 6.53-.12 9.4.35 8.4.39-.84.73-5.13.76-9.53.03-4.4.57-14.87 1.19-23.27.62-8.39 1.14-15.34 1.14-15.45 0-.1.52-.19 1.14-.19.97 0 1.16 2.1 1.24 13.93.06 9.5.28 12.96.71 10.87.35-1.68.65-5.31.67-8.08.03-2.77.28-7.66.55-10.87.46-5.38.63-5.84 2.2-5.84 1.69 0 1.69.04.64 4.77-1.71 7.76-2.16 19.69-1.03 26.94l1 6.47-3.5 12.4c-1.92 6.81-3.72 13.58-4.01 15.04-.29 1.47-2.73 10.48-5.42 20.01-2.69 9.52-4.89 17.45-4.89 17.62 0 .18 3.12.5 6.92.72 3.79.21 7.11.62 7.39.9.28.28.62 15 .74 32.72.28 40.53 1.71 122.94 2.24 129.27l.41 4.77-4.84.02c-2.66 0-7.59.67-10.94 1.5-6.54 1.62-14.66 2.54-16.21 1.84-2.36-1.06.2-143.46 3.22-179.6.22-2.72.76-12.73 1.19-22.24.85-19.25 2.42-38.69 4.17-51.38.63-4.62 1.55-11.23 2.02-14.69.47-3.46 1.14-6.29 1.5-6.29.35 0 .45 1.46.23 3.24-.22 1.79-.72 12.52-1.12 23.84-.4 11.33-1.07 26.96-1.48 34.7-.41 7.74-.61 14.2-.45 14.35.15.16.5-3.07.78-7.19.28-4.12.85-10.95 1.26-15.14.82-8.4 1.77-19.74 2.98-35.48.43-5.67.98-12.45 1.21-15.07l.41-4.77zm18.21 44.25c.57 0 3.31 8.93 4.45 14.5.39 1.89 1.12 9.96 1.62 17.93.5 7.98.78 18 .64 22.27l-.27 7.75-1.91-1.05c-2.63-1.44-8.3-2.51-16.1-3.05l-6.56-.47 2.19-7.37c1.21-4.06 3.37-10.99 4.77-15.4 1.4-4.4 4.34-14.1 6.55-21.55 2.22-7.44 4.29-13.54 4.58-13.54zm43.33 60.1c-.74 2.14-2.08 3.93-4.45 6.66-.73.84-1.57 2.86-1.86 4.48-.29 1.63-1.4 4.27-2.46 5.87-1.06 1.6-2.09 4.3-2.32 5.99-.36 2.69-.13 3.36 1.9 5.39 2.79 2.79 3.94 2.87 8.91.53 1.07-.5 2.2-1.22 3.34-2.07-.16-1.43-.33-2.84-.49-4.27-2.8 2.85-3.98 3.55-6 3.55-3.42 0-3.41-1.68.09-7.94 1.46-2.62 2.67-5.31 2.67-5.98 0-.51.67-2.05 1.61-3.74l-.98-8.45zm-40.35 4.11c.37-.01.75.29 1.14.91.48.76.38 1.55-.29 2.36-1.52 1.83-2.44 1.44-2.17-.9.17-1.52.69-2.35 1.31-2.36zm-56.25 7.51c-.36 0-1.05 2.32-1.53 5.15-.48 2.83-1.58 9.44-2.46 14.69-4.08 24.98-15.74 69.31-17.1 91.65 2.69 26.69 5.04-8.6 10.25-22.38 3.54-22.5 8.66-39 9.89-62.68.41-8.44.93-17.84 1.17-20.89.23-3.04.12-5.53-.24-5.53zm100.97 32.31c-.22-.06-.25.93.03 3.22 2.37 15.89-2.95 73.08 1.67 86.64 1.44-23.02 2.31-44.4 2.05-60.51-.93-9.14-1.89-18.19-2.88-27.18-.37-1.34-.68-2.12-.87-2.17z"/><path class="alpha" style="fill:#333;stroke:#000;stroke-width:1" d="M329.894 244.526s-34.54 14.5-91.513-5.904c-2.95 2.952-2.95 8.856-2.95 12.792 33.62 11.808 68 13.314 94.47 7.872 1.97-3.936 0-14.76 0-14.76z"/><path class="alpha--dark" style="fill:#1a1a1a;stroke:none" d="M238.38 238.622c-2.95 2.952-2.95 8.857-2.95 12.793 33.616 11.808 67.997 13.312 94.465 7.87 1.968-3.935 0-14.76 0-14.76s-34.542 14.5-91.514-5.903zm8.92 5.347c.345-.01.785.05 1.34.17 4.427.98 18.696 3.2 22.632 3.93 3.936.74 32.232 5.07 47.97 5.9 2.225.12 2.953 1.23.74 2.21-2.215.98-17.714 3.93-26.816 3.93s-31.242-3.69-37.885-5.41c-6.64-1.73-6.14-2.96-3.93-2.71s21.16 2.46 26.82 2.71c5.66.24 6.4-.5.74-1.73s-25.58-5.41-28.78-5.91c-2.8-.43-5.22-3.12-2.81-3.13z"/><path class="alpha" style="fill:#333;stroke:#000;stroke-width:1" d="M259.15 177.086c-9.636-4.237-14.108-9.908-27.492-6.843-1.112.255-1.2.365-2.265 2.408-.945 1.82-2.987 4.84-4.554 6.73-4.45 5.36-5.21 6.85-7.73 14.95-3.17 10.2-4.14 12.71-4.13 19.31.05 40.5-10.89 200.91-11.21 249.06-.12 17.16.46 25.72-.69 61.35.58 4.65-1.32 1.87 5.77 4.84 4.91 2.06 17.37 8.17 22.79 9.18 2.57.48 7.88 1.7 11.8 2.7 3.92 1 8.47 1.79 10.11 1.79 2.58 0 2.99-.23 3-1.71 1.85-53.87 7.23-154.34 10.41-216.49 2.07-40.57 15.36-126.11 22.8-149.62-13.68 5.05-21.54 5.5-28.63 2.38z"/><path class="alpha--dark" style="fill:#1a1a1a;stroke:none" d="M235.754 169.552a34.58 34.58 0 0 0-3.165.507c-.28.54-.62.69-.94.18-.44.1-.72.18-.96.37-.38.43-.81 1.1-1.3 2.04-.95 1.81-2.99 4.83-4.56 6.72-4.44 5.36-5.21 6.85-7.73 14.95-3.17 10.2-3.71 12.72-4.13 19.31 0 6.83-.32 17.28-.83 29.82.86-6.08 1.87-14.7 2.3-20.22 2.07-20.01 3.13-23.04 4.69-28.49 3.31-10.29 6.87-12.54 8.6-16.14l2.03-2.67c1.12-1.47 2.71-2.67 3.52-2.67 1.94 0 4.59 1.45 4.1 2.24-.21.34.13 3.1.76 6.15.57 6.62.33 8.76.88 15.97l.21 12.44c0 7.03-.1 12.78-.24 12.78-.51 0-6.48-15.01-7.25-16.1-2.53-3.57-.98-5.72-3.89-11.38 1.18 13.17-.35 7.68 4.88 24.03 3.47 10.2 4.43 14.5 2.98 13.3-.59-.49-1.07-1.22-1.07-1.62 0-.4-1.43-3.14-3.17-6.08-1.75-2.94-3.81-7.45-4.58-10.04l-1.41-4.72.43 4.96c.49 5.73 3.01 15.95 4.91 19.83.71 1.47 2.31 6.1 3.53 10.3 1.89 6.53 2.19 8.95 2.19 16.78 0 5.86-.34 9.71-.93 10.69-.83 1.35-.94 1.39-.96.19-.04-2.34-3.48-11.32-7.61-19.86-4.04-8.35-6.25-16.06-7.61-26.49-.25-1.91-.41-3.02-.5-3.17-.11.13-.08 2.57.09 7.96.27 8.8.78 12.26 3.05 21.29 1.49 5.93 3.91 13.84 5.36 17.57 2.75 7.05 4.27 14.23 2.81 13.33-.44-.27-2.45-2.9-4.46-5.84-3.42-5-5.36-6.77-3.39-3.07.48.9 2.79 7.37 5.12 14.37 5.48 16.47 5.78 21.46 2.98 47.83-2.31 21.74-3.11 25.85-7.61 38.88-7.5 21.73-11.08 37.37-11.13 48.49-.06 5.09-1.97 24.71-6.49 27.3l1.03-18.72a65.081 65.081 0 0 1-3.29-11.61c-.76 17.08-1.28 31.61-1.34 41.38-.11 17.16.46 25.72-.69 61.35.58 4.64-1.32 1.87 5.77 4.84 2.45 1.02 6.8 3.07 11.2 4.98 4.41 1.91 8.88 3.69 11.59 4.2 2.57.48 7.88 1.7 11.8 2.69 3.92.99 8.47 1.78 10.11 1.78 2.58 0 2.99-.23 3-1.71 1.85-53.87 7.23-154.34 10.412-216.49 1.19-23.24 6.775-57.29 12.32-88.85.085-1.55.26-3.37.56-5.47.58-4.14 1.095-7.88 1.12-8.3.01-.11.03-.14.096-.12.117.03.32.28.56.62.4-2.23.78-4.38 1.17-6.56-.37-2.13-.2-4.19.567-8.937.66-4.053.99-5.72 1.937-8.15.95-2.43 1.975-8.32 2.797-13.304.82-4.99 1.29-7.91 1.68-10.56-6.15 2.27-11.11 3.6-15.37 4.11l-.7.23c-2.66.87-6.65 1.48-9.58 1.48-4.385 0-5.49-.31-8.774-2.47-2.06-1.367-5.05-3.03-6.622-3.72-2.85-3.85-8.49-1.85-10.97-4.77zm10.043 8.654c.22.016.575.246 1.096.572 1.04.65 2.116 2.15 2.004 5.006-.11 2.825-.054 4.05 0 4.53-.023 0-.05.036-.072.05.33 7.227-.772 37.12-2.288 50.52-.64 5.665-1.99 15.45-3.005 21.745-1.016 6.29-2.04 13.33-2.265 15.64l-.405 4.19 1.144-3.82c3.013-10.1 7.426-35.75 6.843-39.7-.29-1.96-.05-3.91.64-5.34 1.2-2.54 3.24-32.61 2.36-34.88-.29-.75-.3-4.27 0-7.83.36-4.4.66-6.21 1.79-6.44.08-.02.17-.03.26-.03.66 0 1.57.42 2.88 1.1 1.92.99 2.22 1.65 2.69 6.05.8 7.48-1.43 28.63-6.49 61.87-1.22 7.97-3.25 22.05-4.56 31.28-1.3 9.23-3.36 21.76-4.56 27.84-2.07 10.46-6.61 34.2-9.92 51.88-2.17 11.58-3.35 19.83-2.89 20.29.22.22.76-1.6 1.22-4.03.45-2.43 2.06-9.76 3.55-16.26 4.27-18.57 7.05-31.68 11.11-52.26 5.47-27.76 5.83-29.65 7.22-39.29 1.17-8.13 3.73-25.12 8.34-55.32 1.02-6.71 2.43-16.33 3.12-21.36.78-5.67 1.7-9.66 2.43-10.49 1.4-1.57 4-1.77 4-.31 0 5.7-6.35 45.84-10.4 65.73-3.09 15.17-2.18 14.69 2.36-1.26 3.09-10.88 5.19-19.68 8.41-35.36.69-3.36 1.88-8.34 2.67-11.07.79-2.73 2-7.67 2.67-10.99 1.44-7.11 1.53-7.32 3.58-7.32 1.31 0 1.5.35 1.14 2.1-2.03 9.94-8.71 52.19-9.63 60.84-.45 4.19-1.49 12.6-2.31 18.69-4.22 31.13-6.73 56.63-7.68 77.7-.43 9.51-.92 17.8-1.1 18.43-.18.63-.69 7.84-1.15 16.02-.46 8.18-1.39 21.06-2.03 28.61-1.12 13.09-1.46 18.72-3.29 53.02-.44 8.18-1.14 18.48-1.55 22.89-.42 4.4-.81 18.31-.86 30.9-.06 12.59-.27 24-.48 25.37-.3 1.93-.74 2.48-2.01 2.43-1.91-.08-8.33-1.8-9.54-2.55-.46-.29-3.83-.85-7.49-1.27-6.47-.74-13.3-3.17-23.87-8.52-2.22-8.19-10.32-11.16 6.94-80.26l.09 3.75 4.34-35.22c.89-6.64 1.94-14.84 2.36-18.19.96-7.81 3.23-20.12 6.1-33.19 3.15-14.38 4.97-27.54 7.15-51.88 4.13-46.08 6.09-79.6 6.12-104.88.03-20.94.89-16.68 3.1-29.81zm-34.084 75.68c-.11 2.423-.213 4.788-.333 7.33 5.678-4.165 6.603-6.33 2.825-6.667-1.14-.11-1.95-.3-2.492-.67zm-.67 14.148c-.168 3.45-.367 7.244-.55 10.857 4.315 3.7 7.815 9.85 9.888 17.55 1.36 5.02 1.65 8.01 1.55 16.07-.06 5.46-.46 12.15-.88 14.88-1.95 12.92-4.74 36.79-4.34 37.2.25.25.66.25.91 0 .53-.52 4.36-25.52 6.04-39.48 2.72-22.62.16-39.86-7.65-51.66-1.71-2.59-3.24-4.28-4.95-5.4zm-.825 16.313c-.156 3.043-.29 5.84-.455 8.968.14.103.278.203.413.312 3.57 2.885 5.1 5.554 6.604 11.42 1.24 4.834.905 9.97-1.907 28.443-1.735 11.398-3.788 26.843-4.577 34.332-.465 4.406-1.394 12.133-2.05 17.168-.657 5.036-1.29 13.275-1.408 18.31-.203 8.578-.184 8.77.406 3.052 2.14-20.73 5.87-48.636 8.893-66.662 3.236-19.293 3.97-31.977 2.29-39.078-2.007-8.475-4.836-13.966-8.21-16.265zm-.826 16.138c-1.174 22.19-2.47 45.79-3.668 68.427.764-6.347 1.647-13.076 2.258-17.11.858-5.666 1.923-12.704 2.36-15.642 1.304-8.764 2.242-11.638 3.96-12.087 1.237-.324 1.41-.76.93-2.17-.332-.97-.693-4.817-.812-8.56-.197-6.176-.396-6.963-2.17-8.607-1.073-.995-1.954-2.11-1.954-2.48 0-.435-.372-1.082-.904-1.77zm3.48 19.415c.05-.018.125.01.19.072.252.254.267.903.047 1.454-.25.61-.42.436-.46-.453-.03-.603.06-1.015.21-1.073zm30.397 57.84c-.37 0-1.06 2.32-1.53 5.15-.48 2.834-1.58 9.442-2.46 14.687-4.08 24.977-15.74 69.314-17.1 91.65 2.69 26.69 5.04-8.6 10.25-22.388 3.54-22.51 8.66-39.01 9.89-62.69.41-8.44.93-17.85 1.17-20.89.23-3.04.12-5.53-.24-5.53zm-21.72 12.517c.1.07.11.656.14 1.67.03 1.287-.29 4.205-.69 6.485-.41 2.28-1.11 7.558-1.55 11.754-.45 4.196-1.16 10.72-1.6 14.496-.44 3.777-.77 7.64-.74 8.583.05 2.024-.19 2.13-1.48.573-1.6-1.92-.48-20.48 1.81-30.136 1.04-4.406 2.42-9.385 3.05-11.063.57-1.52.85-2.28 1-2.37.02-.01.03-.01.05 0z"/><path class="alpha" style="fill:#333;stroke:#000;stroke-width:1" d="M237.695 175.326c-1.198-2.525-4.64-4.787-5.927-4.423-.78.22-1.86.475-2.925 2.518-.945 1.82-2.437 4.07-4.004 5.96-4.45 5.36-5.21 6.85-7.73 14.95-3.17 10.2-3.71 12.72-4.13 19.31-.67 10.51-3.64 29.34-4.85 38.61-1.48 11.27-1.5 13.69-2.79 14.3-1.07.51-1.58 3.62-1.33 9.11-19.4 95.35 38.09 99.29 39.65 55.68 1.84-51.4-3.43-95.28-5.11-139.9-.41-10.96.29-13.63-.89-16.11z"/><path class="alpha--dark" style="fill:#1a1a1a" d="M232.033 170.865a1.137 1.137 0 0 0-.265.037c-.577.164-1.318.35-2.096 1.262-.095.17-.18.297-.28.486-.708 1.36-2.034 3.4-3.314 5.13l-.006.007c-.4.545-.81 1.08-1.232 1.588-3.33 4.02-4.595 5.862-6.08 9.95-.248.68-.503 1.423-.774 2.25-.27.826-.556 1.736-.87 2.75-3.17 10.198-3.71 12.717-4.126 19.31-.662 10.51-3.633 29.334-4.848 38.61-1.476 11.268-1.502 13.686-2.788 14.298-1.064.508-1.58 3.62-1.324 9.11.086 1.854-.015 3.76-.247 4.228-.342.69-.686 1.72-1.015 2.93a180.196 180.196 0 0 0-2.067 25.07c.44-2.52.81-5.24 1.05-7.57 1.34-12.96 2.71-17.84 6.44-21.27 1.46-1.33 1.79-1.34 4-.18 6.1 3.21 11.91 10.99 15.99 21.37 2.13 5.42 2.99 8.7 4.12 17.35.77 5.85 1.13 12.9 1.01 15.76-.28 6.43-1.02 15.14-2.25 22.38.65-.34 1.28-.73 1.9-1.16 1.43-7.67 2.18-16.88 2.24-23.81.2-23.78-6.08-42.93-15.45-55.59-3.5-4.74-6.03-6.67-9.67-7.44l-2.43-.51 3.83-3.43c6.46-5.72 7.84-8.48 3.72-8.83-3.18-.27-3.94-1.37-3.44-5.24.51-3.96 2.13-18.54 2.75-26.44 2.07-20 3.13-23.03 4.7-28.49 3.31-10.29 6.88-12.54 8.61-16.14l2.03-2.66c1.12-1.47 2.71-2.67 3.53-2.67 1.95 0 4.59 1.45 4.1 2.24-.21.34.13 3.1.77 6.15.12 1.39.18 2.5.25 3.58-.05-5.91.16-7.99-.75-9.91-1.12-2.37-4.22-4.5-5.66-4.46zm-4.12 24.53c1.185 13.17-.344 7.69 4.89 24.035 3.47 10.205 4.425 14.502 2.98 13.302-.59-.488-1.074-1.22-1.074-1.62 0-.4-1.43-3.14-3.17-6.08-1.75-2.942-3.81-7.45-4.58-10.038l-1.41-4.72.43 4.958c.49 5.728 3.01 15.954 4.91 19.838.71 1.47 2.31 6.103 3.53 10.3 1.89 6.53 2.21 8.964 2.83 17.132.46 6.108.65 10.227.23 11.29-.58 1.475-.67 1.518-.84.24-.34-2.493-4.58-11.94-9.14-20.697-4.47-8.572-6.64-16.232-8-26.657-.25-1.904-.41-3.015-.5-3.172-.11.13-.07 2.57.09 7.963.27 8.8.65 12.17 3.57 21.5 1.91 6.12 5.2 14.48 7.07 18.44 3.52 7.46 6 15.17 4.59 14.27-.43-.27-2.61-3.02-4.9-6.13-3.89-5.29-5.99-7.15-3.56-3.21.59.96 3.82 7.93 7.07 15.42 7.63 17.63 9.99 23.59 8.17 50.43-.05.72-.1 1.28-.15 1.96 1.53-3.61 2.52-7.89 2.7-12.85 1.55-43.39-3.33-82.18-4.42-119.23-.02 5.94-.1 10.76-.22 10.76-.51 0-6.48-15.01-7.25-16.1-2.53-3.56-.98-5.72-3.89-11.38zm-15.23 90.685c-1.583.126-3.11 1.015-4.55 2.707-2.16 2.54-4.866 7.735-4.253 8.302.17.15 1.46-.34 2.862-1.12 3.592-1.99 8.147-1.36 11.918 1.65 3.83 3.06 5.728 5.93 8.086 12.23 1.945 5.19 3.467 11.2 1.858 30.21-.463 5.46-1.285 11.65-2.43 17.34.578-.11 1.152-.24 1.72-.41.793-3.76 1.405-7.45 1.87-10.78 2.734-19.53.343-33.66-2.453-41.33-4.6-12.62-9.88-19.21-14.62-18.83zm1.704 15.353c-.896.028-3.245 2.523-5.895 6.045-5.484 7.29-4.63 8.064-1.883 27.95.43 3.138.82 7.287.97 11.507 3.95 6.958 9.37 10.34 14.9 10.697 1.17-5.29 2.07-11.76 2.36-14.56.93-8.936 1.21-12.11 2.61-12.693 1.01-.43 1.11-.89.55-2.35-.39-1-1.16-5.04-1.85-9.06-1.14-6.63-1.52-7.51-3.38-9.22-1.13-1.04-2.14-2.22-2.21-2.63-.3-1.63-4.77-5.76-6.19-5.72zm11.382 24.643c.04-.023.1.002.17.063.24.25.34.94.21 1.53-.14.65-.31.48-.44-.45-.1-.64-.08-1.08.05-1.15z"/><path class="alpha" style="fill:#333;stroke:#000;stroke-width:1" d="M356.67 385.287c-2.823-39.945-5.803-134.656-10.442-180.24-.394-3.866-2.644-18.327-10.57-27.175-2.267-2.53-2.298-3.105-5.77-5.126-5.27-3.066-10.922-6.29-25.168-8.337-.268.35-12.73 7.68-23.71 11.5 3.363 11.46 21.682 46.19 28.51 83.81 5.466 30.1 5.175 87.02 1.954 118.66-3.22 31.64-7.894 151.45-6.49 156.46 2.464 8.8 66.638 1.22 66.564-4.85-.602-49.39-13.388-123.65-14.878-144.72z"/><path class="alpha--dark" style="fill:#1a1a1a;stroke:none" d="M316.09 166.713c.3 3.37-.734 5.497-3.654 8.275-3.37 3.207-2.14 4.02 1.477.976 2.5-2.102 4.218-5.32 4.626-8.51-.78-.252-1.59-.5-2.45-.74zm-15.71.27c-4.645 2.572-12.29 6.472-19.368 8.935 3.36 11.463 21.68 46.19 28.508 83.808 1.95 10.743 3.157 24.917 3.77 40.12 1.11 5.33 2.836 14.11 4.2 21.437 1.522 8.182 4.02 19.082 5.53 24.2l2.742 9.3-3.742 4.313c-2.063 2.37-5.312 6.435-7.2 9.036-.978 1.346-1.852 2.497-2.752 3.698-.185 2.282-.383 4.48-.594 6.56-3.22 31.645-7.894 151.455-6.49 156.467 1.76 6.288 34.997 4.214 53.823.304 1.82-.48 3.286-.82 4.037-.92 1.77-.45 3.342-.91 4.633-1.38a40.82 40.82 0 0 0 2.986-1.43c.684-.47 1.09-.94 1.086-1.4-.61-49.39-13.39-123.65-14.88-144.72-.04-.57-.08-1.26-.12-1.85-1.1.94-2.18 1.88-3.16 2.77-6.31 5.75-12.03 9.98-15.55 11.49-1.82.79-3.74 1.41-4.27 1.41-1.26 0-6.31-4.9-8.16-7.92-2.12-3.46-1.83-6.38 1.95-19.55 1.87-6.52 3.81-14.44 4.29-17.57.52-3.41.93-18.84 1.05-38.5.16-29.43.36-33.71 1.79-41.58.87-4.82 1.86-9.54 2.21-10.49.57-1.54 1.03.17 2.32 1.11 1.33.98 1.15-.33.33 4.52-1.89 11.11-2.76 31.67-1.77 42.04 1.75 18.32 3.09 37.98 3.12 46.02.03 8.43-.53 10.1-5.32 15.62-.73.84-1.57 2.86-1.86 4.49-.29 1.63-1.4 4.27-2.46 5.87-1.06 1.6-2.09 4.3-2.32 5.99-.36 2.68-.12 3.36 1.91 5.39 2.79 2.79 3.94 2.86 8.92.52 5.32-2.5 11.87-9.68 16.54-17.49-.07-1.06-.13-2.25-.2-3.36-.76 1.27-1.47 2.3-1.99 2.81-1.04 1.03-1.1.75-.57-2.67.32-2.09.66-16.17.76-31.28 0-.91.02-1.83.03-2.76-.55-11.39-1.13-23.51-1.73-35.97-.47 6.3-.66 16.62-.69 35.68-.04 22.58-.34 33.76-.96 35.86-1.23 4.21-3.72 8.1-8.08 12.59-3 3.09-4.18 3.82-6.27 3.82-3.42 0-3.4-1.69.09-7.94 1.47-2.63 2.67-5.32 2.67-5.98 0-.67 1.12-3.03 2.48-5.23l2.48-3.98.5-24.51c.5-24.14 1.11-33.48 3.34-50.78.97-7.48 1.97-12.41 3.14-15.46-.82-15.78-1.68-31.19-2.62-44.97-1.2.41-2.28.87-2.83 1.45-1.14 1.2-2.32 2.17-2.6 2.17-.28 0-.07-1.71-.35-5.17-1.08-13.41-2.29-22.76-2.81-21.79-1.1 2.01-4.47 45.13-4.51 37.32-.01-1.28-2.24 2.82-3.3 3.22-2.45.93-3.15 2.73-1.72 4.41 2.02 2.38 4.44 5.97 4.02 9.29-.23 1.78-1.16 7-2.05 11.61-.97 4.99-1.91 14.09-2.32 22.41-.38 7.71-.83 14.16-1 14.33-.85.85-1.26-39.37-.55-53.52.81-16.15 1.19-20.24 3.36-36.24.65-4.82 1.74-13.24 2.41-18.69.71-5.87 1.61-10.23 2.19-10.68.54-.42 1.32-1.79 1.74-3.05-.5-2.42-3.67-7.04-5.75-9.41-2.73-1.73-4.15-2.93-4.44-3.53-.5.76-1.03 1.55-1.39 2.27-.34.84-.56 12.17-.48 25.18.08 13.01-.39 34.127-1.03 46.92-.64 12.8-1.2 24.99-1.24 27.09-.05 2.438-1.01-2.12-2.67-12.59-2.57-16.14-9.1-44.67-13.05-57.03-1.11-3.462-2.09-6.21-2.2-6.1-.1.11.09 5.17.43 11.255.46 8.19 1.05 12.08 2.2 14.995 2.27 5.76 6.64 21.48 8.77 31.54 1.58 7.49 4.07 24.25 9.99 67.52.63 4.62 1.37 12.87 1.64 18.34l.48 9.94-3.52 11.83c-4.24 14.18-4.63 19.5-1.72 23.792l1.86 2.72.33 35.43c.19 19.49.59 35.864.91 36.38.32.51.72 6.644.86 13.634.15 6.99.66 21.12 1.15 31.4.49 10.28.75 20.236.6 22.124-.26 3.32-.37 3.43-2.95 3.6-2.75.17-12.48-2.12-15.21-3.58-1.73-.93-1.72 1.58 0-102.64.4-24.34.71-47.04.71-50.48v-6.25l4.77-5.91c2.625-3.26 6.28-7.81 8.13-10.12l3.36-4.195-2.333-7.295c-1.726-5.35-2.586-9.97-3.195-17.24-1.108-13.18-2.45-17.49-2.028-6.483.36 9.24.18 8.7-3.67-11.06-1.5-7.68-3.21-19.9-3.89-27.73-2.26-26.09-7.03-47.22-16.31-72.01-3.94-10.54-5.56-14.68-7.32-18.53-2.48-5.45-4.22-9.71-4.22-10.41 0-.41.55-.632 1.22-.5.69.14 4.04 5.59 7.63 12.45 3.53 6.71 6.41 11.98 6.42 11.68.01-.3-.857-5.85-1.906-12.35-1.05-6.5-1.91-12.504-1.91-13.33 0-2.93 2.64-.81 5.865 4.72 4.7 8.05 10.74 26.75 17.77 55.057l1.5 6.1-.38-8.39c-.22-4.61-.7-11.31-1.074-14.874s-.91-12.9-1.17-20.74c-.45-13.41-.39-14.47 1.12-17.88 1.97-4.467 4.89-8.36 7.13-9.54.6-.32.97-.51 1.14-.55 9.91 7.76 13.72 20 17.35 32.464-.096-1.02-.19-2.13-.29-3.1-.39-3.87-2.64-18.33-10.57-27.18-2.3-2.49-2.6-2.65-5.77-5.12-.686-.4-1.38-.81-2.1-1.21-1.36 1.39-3.58 3.18-7.386 6.02-5.74 4.29-6.8 4.572-12.83 3.312-4.02-.84-14.84-5.49-15.05-6.46-.09-.42 1.72-1.44 4.01-2.27 4.07-1.47 4.12-1.51 1.89-2-1.26-.27-1.95-.56-1.53-.62.5-.07 1.96-1.2 3.49-2.546zm21.843 1.848c-.186.36-.39.68-.608.96-.887 1.13-1.406 2.27-1.144 2.53.45.45 2.28-1.09 3.6-2.68-.58-.27-1.2-.54-1.84-.8zm31.244 220.14c8.506 39.62 5.06 70.19 13.925 106.86 1.188 2.23 1.78 6 2.74 17.34l1.217 14.5-1.65 1.36c-.91.74-3.43 1.81-5.58 2.39-2.16.58-6.63 1.8-9.95 2.72-3.32.92-8.38 1.86-11.26 2.1-5.2.44-5.22.43-5.22-1.5 0-1.06-.52-8.39-1.15-16.31-3.83-53.04-.74-51.94-5.25-97.63l-.38-20.67 1.88.36c2.44.47 10.66-3.57 15.83-7.77 2.16-1.75 4.33-3.42 4.81-3.72zm-9.226 21.08c-.21-.06-.25.93.03 3.22 2.37 15.89-2.94 73.08 1.67 86.65 2.25-35.97 3.14-67.97.43-82.04-.87-4.71-1.75-7.72-2.12-7.82z"/><path class="alpha" style="fill:#333;stroke:none;stroke-width:1" stroke="#000" d="M354.474 303.827c-1.51-12.716-2.05-17.096-3.99-29.063-3.382-20.893-4.335-28.6-6.55-34.337-1.066-2.757-1.798-5.37-1.776-5.802.02-.433-.556-1.91-1.265-3.265-6.648-17.408.513-44.478-7.365-53.29-1.73-2.55-1.47-3.43-4.676-5.228-6.884-3.855-13.06 13.712-13.403 15.745-.35 2.032-4.02 39.548-3.52 58.16.26 30.74 4.53 47.848 10.51 70.99 8.95 34.675 37.46 31.898 32.03-13.91z"/><path class="alpha--dark" style="fill:#1a1a1a;stroke:none" d="M328.478 238.356c.048-1.044.042-1.722.215-5.226.67-13.575 2.235-23.174 1.566-22.197-1.4 2.038-7.89 29.822-8.39 37.68-.23 3.512.11 9.81.16 16.788-.03 1.75-.28 6.87-.51 11.38-.25 4.87-.05 13.74.45 21.86.46 7.53.75 13.86.63 14.03-.57.83-4.87-38.47-5.54-52.5-.77-16-.24-20.1 4.02-36.3 1.28-4.88 3.88-13.43 5.67-18.99 1.92-5.98 3.72-10.42 4.34-10.88.57-.42 1.59-1.81 2.25-3.1.1-2.48-1.82-7.21-3.32-9.64-2.21-1.78-3.36-3.01-3.54-3.61-.57.76-1.17 1.56-1.61 2.28-.43.85-2.55 12.36-5.07 25.61-2.52 13.25-5.69 34.62-5.73 47.36-.04 12.75 1.27 24.7 1.45 26.75.1 1.1-.12.62-.58-1.1 1.95 13.7 3.9 25.4 7.47 39.22 1.26 4.89 2.86 9.04 4.69 12.47-.39-4.53-.88-9.41-1.42-14.65-2.98-28.93-3.14-32.92-2.78-40.61.22-4.72.71-9.33.81-10.28.97-9.68 4.38-18.74 4.73-26.31zm5.78 14.17c-4.114 5.068-4.38 9.397-5.796 17.36-.78 2.114-1.24 3.877-1.596 7.453-.816 8.17.207 23.74 2.17 33.89 1.826 9.44 3.83 19.3 5.218 27.81 1.485 1.1 3.013 1.84 4.544 2.23-2.04-21.87-8.522-30.34-8.306-43.78.145-8.96-.098-15.28-.03-17.76.26-9.2-.268-13.29 3.797-27.22zm8.195 31.878c.303 2.454-.126 4.454 1.884 7.372 1.094 1.36 1.377 2.372 1.556 6.9.16 4.037-1.532 18.338 2.35 37.05.032.398.05.657.084 1.052.74-.33 2.392-3.22 3.09-3.724-1.142-14.196-2.24-26.01-2.565-29.696-.677-7.684-2.145-9.588-4.208-13.603-.967-1.88-.906-3.37-.904-5.314.002-1.63.096-3.27-.31-4.66-.56-1.91.23-5.7.654-7.48.78 1.41 1.568 7.56 1.58 8.95.01 1.39.17 3.32 1.07 5.59.59 1.49 1.02 4.29 1.935 5.5.04-5.13-.01-9.46-2.32-16.94-2.47-7.96-3.01-11.01-3.68-12.72-1.22-3.11-2.44-5.47-5.28-9.47 1.19 4.86 6.85 12.1 4.81 21.11-.83 3.65-1 4.76-.53 6.11.26.77.6 2.65.77 4.01zm-4.122-48.644c1.26 3.235 5.06 7.09 6.71 14.42 3.14 13.916 3.29 25.496 6.2 48.655.92 7.32 2.39 15.2 3.82 22.128.4-4.86.2-10.55-.58-17.136-1.51-12.716-2.05-17.096-3.99-29.063-.79-4.897-1.39-9.018-2.13-14.02-.74-5-1.36-9.172-2.13-12.464-.25-1.098-.5-2.098-.74-3.022v-.002a52.97 52.97 0 0 0-.74-2.54c0-.01 0-.02-.01-.03-.25-.797-.51-1.54-.79-2.258-1.06-2.758-1.79-5.37-1.77-5.803.02-.433-.55-1.908-1.26-3.265-.28-.733-.53-1.488-.76-2.253l-.16-.553c-.22-.762-.42-1.533-.6-2.32a49.39 49.39 0 0 1-.42-2.154 59.31 59.31 0 0 1-.49-3.35l-.01-.093a88.747 88.747 0 0 1-.3-3.323l-.05-.78c-.03-.56-.05-1.124-.08-1.687a151.59 151.59 0 0 1-.09-3.025c-.01-.537-.01-1.063-.02-1.6-.02-2.952.02-5.897.04-8.754v-.002c.01-.04 0-.074 0-.112.01-1.615.01-3.185-.02-4.727 0-.568-.02-1.134-.03-1.69-.01-.37-.02-.742-.04-1.107-.04-.903-.09-1.785-.16-2.647l-.03-.378v-.002c0-.035 0-.067-.01-.102-.08-.93-.18-1.82-.31-2.69l-.12-.79c-.03-.2-.07-.4-.1-.6-.06-.37-.14-.72-.21-1.08-.04-.19-.08-.39-.13-.58-.11-.47-.24-.93-.37-1.38-.01-.04-.02-.09-.04-.14-.01-.04-.03-.08-.04-.12-.14-.44-.29-.86-.45-1.28-.06-.16-.13-.32-.2-.47-.12-.28-.24-.55-.37-.82-.08-.17-.17-.33-.26-.5-.14-.25-.28-.5-.44-.74-.08-.14-.17-.28-.26-.41-.24-.35-.5-.69-.78-1-1.73-2.55-1.97-2.71-4.67-5.22h-.01c-.2-.11-.4-.2-.6-.28l-.12-.04c-.16-.05-.32-.1-.48-.13l-.13-.03c-.19-.03-.39-.06-.58-.06l-.07.01c-.22 0-.44.02-.66.06-1.14 1.01-2.88 2.35-5.04 3.97-1.93 2.68-3.52 6.16-4.53 8.76-.28.71-.52 1.37-.7 1.91-.1.28-.18.54-.25.76l-.06.19c-.08.28-.14.51-.16.66-.04.25-.11 1.06-.2 2.27-.02.31-.06.85-.09 1.21-.73 9.46-3.59 36.5-3.29 52.59v-4.44c.06-4.64.37-11.41.54-15.02.17-3.62 1.22-13.09 2.38-21.07 1.99-13.64 2.11-14.7 3.98-18.14 2.44-4.51 5.65-8.43 7.9-9.6.6-.32.97-.51 1.15-.55 13.4 12.91 3.33 36.65 9.16 55.12.55 1.72.77 3.29 1.37 4.84zm-26.38 11.932.02.834.02.098-.03-.932z"/><path class="alpha" style="fill:#333;stroke:#000;stroke-width:1" d="M292.204 251.052c1.74-1.043 2.784-2.087 4.87-2.087 2.088 0 6.936-.584 8.35-.348 6.263 1.044 6.96 64.36 22.614 106.11-9.045 11.132-21.918 26.787-24.7 29.57-2.784 2.784-7.655.35-7.307-3.13.35-3.48.35-12.873.35-12.873-6.26-2.435-19.13-3.13-19.13-3.13 2.44-14.264 17.75-64.71 17.75-64.71-2.09-6.262-1.74-21.57-1.04-26.092.7-4.523 4.87-22.614 2.79-22.962-2.08-.348-4.52-.348-4.52-.348z"/><path class="alpha--dark" style="fill:#1a1a1a;stroke:none" d="M304.744 248.565c-1.904-.046-5.843.4-7.67.4-2.087 0-3.13 1.043-4.87 2.086 0 0 2.435.01 4.523.35 2.087.35-2.088 18.44-2.783 22.97-.696 4.53-1.043 19.83 1.045 26.09 0 0-3.4 11.21-7.23 24.47-.39 1.5-.7 2.73-.79 3.23-.29 1.47-2.73 10.48-5.42 20.01-1.13 4.01-2.07 7.38-2.9 10.36-.63 2.65-1.12 4.93-1.42 6.66 0 0 12.87.7 19.13 3.13 0 0 0 9.4-.35 12.88-.35 3.48 4.52 5.91 7.31 3.13 2.78-2.79 15.65-18.44 24.7-29.57-15.66-41.75-16.35-105.07-22.62-106.11-.18-.03-.41-.05-.68-.05zm.778 1.764.81 4.76c.45 2.62 1.047 7.68 1.31 11.25.526 7.09 2.275 17.69 5.198 31.28 1.038 4.82 3.128 15.47 4.65 23.65 1.523 8.18 4.02 19.08 5.532 24.2l2.742 9.3-3.744 4.31c-2.063 2.37-5.31 6.43-7.2 9.03-6.087 8.38-10.802 14.1-12.636 15.31-2.157 1.41-2.787 1.45-3.983.26-1.73-1.74-.9-3.78 3.34-8.23l4.25-4.46-.52-6.01c-.46-5.28-.27-6.8 1.53-12.47 1.13-3.55 3.06-10.88 4.29-16.29l2.24-9.82-1.55-11.78c-.84-6.48-1.52-13.18-1.52-14.9 0-1.72-.18-2.95-.4-2.72-.22.22-.75 6.02-1.17 12.9-.42 6.87-1.22 14.72-1.76 17.45-.88 4.41-1.03 4.7-1.48 2.67-2.66-12.08-5.01-20.51-7.89-28.23-4.44-11.91-4.53-15.63-.76-34.12 1.52-7.44 2.55-14.09 2.29-14.76-.25-.68-1.18-1.51-2.07-1.86-1.14-.46-.13-.69 3.46-.72l5.08-.05zm-3.84 9.37c-.324.19-.643 3.03-.977 8.55-1.075 17.81-.925 20.65 1.455 27.7 1.178 3.49 2.327 6.16 2.55 5.93.225-.23.016-4.63-.452-9.78-.467-5.15-1.062-14.14-1.336-19.98-.4-8.55-.823-12.69-1.24-12.44zm-5.15 46.32c.575 0 3.317 8.93 4.458 14.49.388 1.88 1.12 9.95 1.622 17.93.502 7.97.788 18 .644 22.26l-.262 7.75-1.908-1.05c-2.623-1.45-8.3-2.52-16.094-3.06l-6.556-.48 2.193-7.37c1.21-4.06 3.37-11 4.77-15.41 1.39-4.41 4.33-14.11 6.55-21.55 2.21-7.45 4.28-13.55 4.58-13.55zm2.982 64.2c.37-.01.753.29 1.142.9.48.76.385 1.55-.285 2.36-1.51 1.83-2.43 1.43-2.17-.91.18-1.52.7-2.35 1.32-2.36z"/></symbol><symbol id="idefault_4_of_4" viewBox="0 0 560 560"><path class="alpha--dark" d="M281.072 92.41c-10.437 1.74-28.18 10.785-32.355 55.316-4.175 44.53 10.09 30.615 35.834 32.355 25.746 1.74 40.358-8.696 27.138-43.486-13.22-34.79-16.7-44.53-30.615-44.183z" style="fill:#1a1a1a;stroke:none"/></symbol><symbol id="idracula_1_of_2" viewBox="0 0 560 560"><path style="fill:#4f433c;stroke:#200c05;stroke-width:.35593823px" d="M334.644 186.043c-1.927-4.582-6.19-7.493-9.833-8.343-2.542-.593-9.687-.797-12.146-.927-2.46-.13-6.94-15.667-6.678-21.114 4.31 3.225 8.073 4.925 12.114 9.937 4.04 5.013 8.052 7.947 11.273 9.916 2.335 1.429 6 5.13 6.913 8.228.867 2.944 1.767 7.615 1.688 17.084 0 0-1.562-10.574-3.331-14.781z" class="beta"/><path style="fill:#200c05;stroke:none;stroke-width:.35593823px" d="M305.982 155.877c-.068 2.727.945 7.674 2.301 12.059 1.714 2.386 3.35 4.314 3.865 4.714 1.838-3.388 2.575-6.628 2.383-7.744-.434 1.286-.587 2.055-1.045 2.084-.457.03-.463-4.015.004-4.05.468-.037 1.141.182 1.649.466-1.998-2.322-7.843-6.005-9.156-7.529zm13.955 13.271s.774 3.238.055 4.84c.485-.608.55-.364 1.121-1.543.365.291 1.197 2.979 2.377 3.18-.722-.587-.689-1.51-1.234-2.645 0 0 1.219.666 1.793 1.577-.476-.895-1.844-3.123-4.111-5.409zm-3.982.348c-.541 1.055-1.712 3.142-3.654 4.777 1.977.039 4.01-3.376 3.654-4.777zm3.197.111c-1.304 2.88-3.755 4.959-6.277 6.596-.247-.007-.924-.015-1.078-.023.304.362.597.58.869.593 2.46.13 9.576.502 12.145.928 3.745.622 7.374 4.166 10.068 8.342l-.03-.115c-1.172-4.482-5.59-8.886-9.242-9.266-3.29-.342-9.906-.382-12.584-.455 4.227-.572 5.876-3.932 6.13-6.6z" class="beta--dark"/><path style="fill:#6b6155;stroke:none;stroke-width:.35593823px" d="M315.372 164.279c1.74 2.954-.72 7.515-2.153 8.22 1.23-1.736 2.774-6.936 2.153-8.22z" class="beta--light"/><path style="fill:#664a4c;stroke:#382422;stroke-width:.35593823px" d="M255.059 172.709c4.953 1.464 16.452 2.969 24.795 3.086 8.342.117 20.956-2.449 25.46-3.387 4.733-.987 5.34 5.121 2.45 5.824-2.89.703-22.725 2.08-29.09 1.981-6.365-.097-19.307-.069-23.545-2.067-4.238-1.998-2.576-6.178-.07-5.437z" class="gamma"/><path style="fill:#523938;stroke:none;stroke-width:.35593823px" d="M307.832 173.725c-.465.022-1.01.096-1.637.214-2.506.475-19.123 3.064-27.97 2.934-8.848-.13-20.622-2.44-23.383-2.76-2.761-.32-2.545 1.073-2.545 1.073 9.122 2.159 22.895 2.881 26.154 2.93 3.26.048 23.696-1.381 31.375-3.026.07-1.038-.598-1.433-1.994-1.365zm1.613 2.552a46.95 46.95 0 0 1-2.04.362c-2.968.44-20.48 2.535-28.706 2.412-7.688-.115-19.489-1.288-25.703-2.682.403.655 1.087 1.284 2.133 1.777 4.238 1.998 17.18 1.969 23.545 2.067 6.365.098 26.2-1.278 29.09-1.98.933-.228 1.499-1.021 1.681-1.956z" class="gamma--dark"/><path style="fill:#f52e62;stroke:#c01440;stroke-width:.3559382px" d="M301.797 163.005c1.233 5.548 3.39 10.172 7.398 15.103-1.85-8.322 1.936-21.401 9.39-33.321 6.881-11.001 11.545-17.982 15.372-14.377.825.777 1.911-.762 1.04-1.416-.873-.654-4.322-1.187-9.79-1.738-5.164-.52-11.46-.55-16.364 6.206" class="alpha"/><path style="fill:#fdaaa6" d="M309.355 162.34c2.398-7.084 5.776-13.84 9.154-19.289 3.378-5.448 9.916-14.166 12.205-14.384-1.199-.327-2.834 1.199-4.36 1.199-1.525 0-4.903.544-7.082-.218-2.18-.763-5.776.327-5.449.762.327.436 2.942 5.776 3.27 6.648.326.871 1.525 3.814-.328 7.41-1.852 3.596-5.23 9.044-7.41 17.871z" class="alpha--light"/><path style="fill:#200c05" d="M332.012 128.122c-1.705.236-4.299 1.624-7.956 6.413-4.495 5.886-11.344 17.873-13.377 24.08-1.792 5.468-3.249 12.014-2.839 17.74.427.581.877 1.165 1.355 1.753-1.85-8.322 1.935-21.4 9.39-33.321 6.88-11 11.545-17.981 15.372-14.376.825.777 1.911-.763 1.04-1.417-.419-.313-1.444-.599-2.985-.872z" class="alpha--darker"/><circle style="fill:#6c6962" cx="308.131" cy="175.189" r="4.218" class="epsilon"/><path style="fill:#211b17" d="M312.235 174.239c-.964.439-2.541 2.145-2.565 4.876a4.218 4.218 0 0 0 2.68-3.926 4.218 4.218 0 0 0-.115-.95z" class="epsilon--dark"/><path style="fill:#f4eedf" d="M308.13 170.97a4.218 4.218 0 0 0-2.474.81c1.263 2.428 3.827 3.074 6.423 1.93a4.218 4.218 0 0 0-3.948-2.74z" class="epsilon--lighter"/><path style="fill:#827d77" d="M304.928 172.447a4.218 4.218 0 0 0-1.015 2.742 4.218 4.218 0 0 0 3.84 4.199c-1.351-.69-3.444-2.957-2.825-6.941z" class="epsilon--light"/><circle r="4.218" cy="175.189" cx="308.131" style="fill:none;stroke:#2b2724;stroke-width:.3559382px" class="epsilon"/><path style="fill:#4f433c;stroke:#200c05;stroke-width:.3559382px" d="M257.238 159.49c-4.577 2.833-6.4 3.182-11.195 7.541-4.795 4.36-9.02 6.018-12.86 7.555-3.303 1.323-6.136 3.51-8.953 8.723-2.014 3.727-2.773 9.99-4.034 16.826-3.83 20.753-8.014 55.108-8.485 60.015-.783 8.16-3.935 76.997-4.531 84.426-.597 7.43-5.267 51.433-6.473 60.043-1.206 8.61-4.997 33.36-6.242 40.078-1.246 6.72-6.566 36.474-6.647 39.354-.08 2.88-1.618 15.619-1.336 18.334.283 2.715 1.524 8.822 1.524 8.822-1.506 1.4-3.927 5.48-4.18 6.92-.253 1.44-.758 4.56.887 5.76 1.645 1.2 13.714 7.678 14.187 8.398.474.72 2.378 1.68 4.047 2.16 1.67.48 9.088 1.68 9.088 1.68l.715 4.799c5.76-2.4 8.663-5.04 8.912-7.2.25-2.16-4.53-7.919-5-9.119-.47-1.2-.451-3.358-1.642-4.318 4.07 1.2 2.7-4.8 2.24-6.24-.461-1.44-3.656-11.519-4.32-14.158-.666-2.64-.255-114.99-.6-121.604-.346-6.614 5.184-111.91 5.361-116.7.178-4.788 8.783-77.657 8.783-77.657 2.781-4.467 7.327-6.187 10.623-6.434 2.838-.152 10.68.87 13.295 1.088 2.616.218 6.618-13.643 6.836-19.092z" class="beta"/><path style="fill:#200c05" d="M259.104 158.531c-1.443 1.403-7.553 4.586-9.795 6.684.539-.231 1.233-.386 1.695-.309.462.077.078 4.083-.385 4.006-.462-.077-.54-.848-.848-2.158-.308 1.079.077 4.317 1.618 7.861.576-.33 2.445-2.049 4.363-4.275 1.737-4.249 3.18-9.086 3.352-11.809zm-15.46 11.66c-2.724 1.853-4.576 3.706-5.23 4.47.763-.764 2.18-1.2 2.18-1.2-.763.98-.87 1.853-1.742 2.289 1.307 0 2.614-2.397 3.05-2.615.436 1.198.545.98.98 1.635-.544-1.635.763-4.579.763-4.579zm.764.545c-.106 2.559 1.255 6.048 5.598 7.22-3.105-.377-10.112-1.412-13.334-1.77a6.124 6.124 0 0 0-.752-.036c-5.032 1.27-6.786 3.784-10.012 8.569 3.051-3.923 7.056-7.238 11.2-7.225 2.841.01 10.677.87 13.292 1.088.29.024.622-.147.979-.463-.21-.016-.778-.092-1.154-.137-2.482-1.951-4.845-4.33-5.817-7.246zm3.377.328c-.545 1.308 1.2 4.904 3.27 5.122-1.853-1.853-2.834-4.032-3.27-5.122zm-21.889 13.569c-7.808 14.87-13.402 67.358-14.185 75.517-.783 8.16-3.935 76.997-4.531 84.426-.597 7.43-5.267 51.433-6.473 60.043-1.206 8.61-4.997 33.36-6.242 40.078-1.246 6.72-6.57 36.511-6.649 39.354v.004c.764-2.167 4.165-1.461 5.227-.242 1.15 1.32.436 5.878 1.12 7.078.682 1.2 3.02 2.88 3.218 4.68.197 1.8-.175 2.4 1.582 3.84 1.757 1.44 2.821 8.397 3.525 9.116.704.72 1.66.722 2.356 2.041.696 1.32 2.838 2.04 4.748 2.52-2.374-1.56-3.795-2.4-4.483-4.2 2.136.96 3.342.48 4.188 0-2.274-.12-4.414-1.08-4.09-5.519 1.494 3.12 3.637 3.959 3.676 1.8.04-2.16-.887-3.719-2.422-4.679-1.535-.96-.87-4.2 1.375-2.88 2.245 1.32 2.91 3.959 2.406 5.279-.505 1.32-.212 3.042.893 3.6 1.188.6 1.28 1.41 1.758 2.4.812 1.68 2.15.6 3.209 2.16.05-.055.103-.118.154-.174-1.12-3.54-2.81-8.978-3.317-10.986-.665-2.64-.254-114.99-.6-121.604-.345-6.613 6.295-111.533 6.474-116.322.178-4.79 7.083-77.33 7.083-77.33zm-31.369 269.902c1.264.021 2.673 1.56 3.221 2.76.548 1.2 3.336 2.999 2.682 4.559-.655 1.56.127 3 1.418 3.6 1.29.6 3.18 1.2 2.63 3.24-.548 2.04-3.503 1.2-3.716.48-.214-.72-.76-2.16-2.04-3-1.28-.84-4.747-3.6-5.42-1.44-.672 2.16-.087 2.4 3.343 3 3.429.6 2.731 3.598 4.162 3.598 1.43 0 5.806 1.32 5.763 2.64-.043 1.32-2.885 4.32-4.447 4.68-1.562.36.626 2.76 4.475 6.239-1.538-.6-5.976-3.96-6.659-5.04-.682-1.08-4.888-3.6-5.976-3-1.088.6-3.98 2.042-4.242 2.881-.263.84-1.107 1.319-1.082.479.025-.84 1.254-5.997 1.76-6.957.505-.96.843-3.961.406-5.041-.437-1.08 2.335-13.701 3.722-13.678zm2.448 44.79c-.05.02-.106.059-.155.085-1.564.84-2.36 5.159-1.566 7.318.795 2.16 4.56 5.04 5.738 6 1.179.96-.623 1.919-1.445 1.079-.823-.84-2.944-2.28-3.414-2.64-.47-.359-2.082-3.719-2.426-4.439-.344-.72-4.22-2.878-5.27-3.718-.97-.776-1.833-1.76-1.927-3.42-.066 1.236-.086 2.235-.028 2.795.283 2.715 1.522 8.822 1.522 8.822-.271.252-.574.612-.887 1.006.444-.294.915-.508 1.299-.41.668.17 3.088.847 4.084 1.695.996.848 3.823 3.224 4.236 3.818.414.594 1.923 1.188 2.518.764.595-.424 1.513.34 1.34.764-.174.424-.684.764-1.53 1.103-.846.34-1.764-.424-2.517-.763-.754-.34-3.501-2.546-3.912-3.225-.411-.679-1.068-1.866-1.897-2.545-.829-.679-1.424-.001-1.926-.086-.501-.085-1.337-.254-1.6.51-.26.763-.863 2.121-1.532 2.121-.67 0-1.345.424-1.526 1.527-.04-.028-.072-.054-.111-.082-.107.28-.182.527-.217.723-.253 1.44-.758 4.56.887 5.76 1.645 1.2 13.714 7.678 14.187 8.398.474.72 2.378 1.68 4.047 2.16 1.594.458 8.11 1.519 8.73 1.62.04-.02.082-.04.12-.061-4.916-.6-8.73-2.279-10.04-2.879-1.31-.6-2.491-2.4-2.486-3.36.006-.96-.825-1.56-.814-3 .01-1.44-2.485-1.918-3.914-1.558-1.43.36-1.654-1.2-2.84-1.32-1.186-.12-2.243-1.32-3.664-1.32-1.421 0-3.531-1.92-3.992-3-.461-1.08.489-1.56.955-.96.466.6 3.652 1.68 4.478 2.04.826.36.95-.12 1.666-.6.717-.48 1.43-.481 1.776.478.346.96.452 2.281 1.162 2.641.71.36 1.43-.48 2.143-.36.712.12 2.14.361 2.855.241.716-.12 4.433-2.041 5.986-2.041 1.554 0 1.68-.48 1.328-1.2-.35-.72-2.942-3.84-3.41-4.56-.468-.72-.332-2.038-1.746-3.238-1.413-1.2-2.304-4.92-2.521-6.12-.204-1.124-.32-6.573-1.621-6.558-.028-.034-.073-.027-.123-.006zm6.35 10.972c-.296-.021-.51.148-.348.572.324.849.811 2.205.966 3.223.155 1.018 3.156 4.412 3.49 4.752.335.34 2.702.679 3.725.17 1.023-.51 2.716-.17 4.057 1.527.878-2.715-3.84-5.6-6.201-6.28-2.362-.678-3.873-1.187-4.037-1.527-.165-.339-.49-1.186-.817-1.865a1.076 1.076 0 0 0-.836-.572zm4.482 12.004c-1.35.076-2.313 2.248-3.649 2.99-1.527.848-3.733 2.036-2.406 7.127.006-1.358.353-3.563 2.898-5.09-1.704 2.036-.875 5.429 1.15 6.108-1.01-1.019-.837-1.696-.497-2.036 2.525 2.037 2.367 0 1.19-1.187-1.178-1.188-.291-6.789 1.92-7.807a1.393 1.393 0 0 0-.606-.105z" class="beta--dark"/><path style="fill:#6b6155" d="M248.985 166.051c-2.07 2.724-.11 7.41 1.307 8.282-1.09-1.853-2.07-7.083-1.307-8.282z" class="beta--light"/><path style="fill:#f52e62;stroke:#c01440;stroke-width:.3559382px" d="M262.155 159.743c-1.233 5.548-3.39 10.171-7.397 15.103 1.849-8.322-1.233-20.034-7.09-31.438-5.856-11.405-16.531-13.494-24.04-7.09-1.32 1.51-1.32-1.324-.447-1.978.871-.654 5.884-3.923 11.986-5.012 4.632-.827 12.86-1.09 18.308 0" class="alpha"/><path style="fill:#fdaaa6" d="M245.262 128.608c-3.746-.032-7.49.255-10.094.72-2.767.494-5.305 1.436-7.34 2.38 6.283-1.617 10.74-1.725 16.82-1.182 5.647.504 7.64-.572 8.513-1.255-2.325-.435-5.11-.639-7.9-.663zm-15.096 2.845c-.43.009-.87.027-1.32.054 5.014 0 14.168-.436 22.885 17.436-4.222-9.29-8.24-17.762-21.565-17.49z" class="alpha--light"/><path style="fill:#200c05" d="M230.724 131.906c-.536-.008-1.027.037-1.441.146-2.857.756-5.374 2.345-6.655 3.366-.185.94.101 1.929 1 .9 4.026-3.433 8.962-4.422 13.579-2.846-1.592-.714-4.373-1.536-6.483-1.566zm12.544 5.398c1.639 1.604 3.133 3.634 4.4 6.103 5.857 11.405 8.939 23.117 7.09 31.44.115-.143.223-.284.335-.425 2.805-11.022-2.642-22.732-3.907-25.262-1.233-2.466-3.629-8.031-7.918-11.856z" class="alpha--darker"/><circle style="fill:#6c6962" cx="252.658" cy="174.057" r="4.218" class="epsilon"/><path style="fill:#211b17" d="M256.762 173.107c-.964.439-2.541 2.145-2.565 4.876a4.218 4.218 0 0 0 2.68-3.927 4.218 4.218 0 0 0-.115-.95z" class="epsilon--dark"/><path style="fill:#f4eedf" d="M252.658 169.839a4.218 4.218 0 0 0-2.475.809c1.263 2.427 3.827 3.074 6.423 1.93a4.218 4.218 0 0 0-3.948-2.74z" class="epsilon--lighter"/><path style="fill:#827d77" d="M249.455 171.315a4.218 4.218 0 0 0-1.015 2.741 4.218 4.218 0 0 0 3.84 4.2c-1.351-.69-3.444-2.957-2.825-6.941z" class="epsilon--light"/><circle r="4.218" cy="174.057" cx="252.658" style="fill:none;stroke:#2b2724;stroke-width:.3559382px" class="epsilon"/><path style="fill:#f52e62;stroke:#c01440;stroke-width:.39190766px" d="M228.984 180.986c-8.462 6.759-8.217 30.942-8.332 37.18-.116 6.24-3.842 23.226-5.235 35.704-1.393 12.478-2.983 72.762-3.849 87.64-.865 14.878-3.241 72.95-3.632 80.63-.39 7.679-.851 40.314-.59 46.553.26 6.24 2.506 29.756 3.905 31.676 1.4 1.92 4.126 10.559 5.999 14.398 2.982-7.199.683-12.478-.196-16.318-.88-3.839.375-65.27.135-79.189-.241-13.918-.302-112.785.68-122.864.981-10.078 5.306-61.432 6.006-71.51.7-10.079-.502-38.238 5.11-43.9z" class="alpha"/><path style="fill:#72001e;stroke:none;stroke-width:.39190766px" d="M226.153 187.094c-2.369 3.364-4.147 18.695-3.762 22.16.47 4.231 1.41 12.224 0 15.045-1.41 2.82-2.35 5.643-1.41 7.994.94 2.35-.472 9.873-1.413 11.754-.94 1.88-2.82 24.919-2.82 32.441 0 7.523-.47 31.972-.94 38.084-.47 6.112-1.88 59.712-1.88 65.354 0 5.642 1.409 31.03.468 34.79-.94 3.762-1.88 13.638-.939 18.81.94 5.171.47 20.686-.47 24.917-.941 4.232.47 11.756.94 14.577.47 2.82 2.35 5.17 2.35 8.931.16-.003.316-.019.475-.025.053-20.261.606-52.935.437-62.666-.24-13.918-.301-112.785.68-122.864.982-10.078 5.306-61.43 6.006-71.51.545-7.848 1.146-27.966 2.278-37.792zm-18.18 234.215c-.01.199-.03.674-.037.832-.202 3.968-.475 14.585-.604 24.796.44-4.681 1.326-7.504 3.049-9.671 2.154-2.71 1.368-7.453-.559-9.485-1.247-1.316-1.732-3.628-1.85-6.472zm8.668 66.283c-1.003 2.76-4.765 3.97-7.514 1.062.707 5.874 1.511 10.873 2.125 11.715.243.334.527.88.838 1.559.332.289.685.574 1.066.85.44-2.713 2.438-4.643 4.043-3.758-.047-.189-.103-.39-.144-.57-.206-.898-.345-5.015-.414-10.858z" class="alpha--dark"/><path style="fill:#2a0708;stroke:none;stroke-width:.39190766px" d="m210.09 496.864-.043.04c.43 2.201.832 3.781 1.158 4.216 1.394 1.858 4.134 9.999 6.05 14.002.205-.16.375-.357.5-.594.075-.144.134-.286.196-.429.185-.581.336-1.15.456-1.705.261-2.456-1.121-4.6-1.902-6.031-1-1.833-5.916-5.333-6.416-9.499z" class="alpha--darker"/><path style="fill:#4f433c;stroke:#200c05;stroke-width:.3094244px" d="M387.708 528.817c1.78-.863 3.445-3.747 3.954-4.305.508-.558 3.163-2.648 3.926-3.409.762-.76-.186-1.485-1.265-1.771-1.077-.285-8.685-1.544-10.161-2.023-1.477-.48-5.964-.759-9.003-1.581-3.039-.823-8.475 10.226 12.55 13.089z" class="beta"/><path style="fill:#f52e62;stroke:#c01440;stroke-width:.37705114px" d="M334.751 185.418c2.114 14.154 6.287 42.023 11.674 70.927 4.431 23.773 6.254 49.253 6.785 54.994 1.175 12.722 12.694 126.771 14.094 136.537 1.4 9.765 5.96 45.126 7.117 48.97 1.156 3.844 7.283 24.229 8.758 26.547 1.476 2.32 4.372 4.665 7.24 2.696-1.515 2.3-1.835 3.877-5.499 3.55-3.663-.326-24.668-1.988-27.61-2.653-1.773-.4-4.59-3.436-10.724-6.643-1.492-.78-4.23-1.818-5.902-2.748-1.926-1.072-.753-19.138-.498-23.935.254-4.798.89-14.564.785-19.714-.106-5.15-1.271-21.454-.9-28.331.37-6.877-.129-31.738.217-46.553.345-14.815.79-22.041 1.112-27.348.492-8.14.384-19.067.158-23.411-.145-2.772.397-7.283-.402-18.946-.672-9.822-.271-23.698-.467-29.15-.24-6.649-1.553-17.3-1.926-27.958-.373-10.659-.146-24.483-.746-30.12-.302-2.836-.968-11.138-1.636-21.722-.659-10.457-1.202-32.43-1.63-34.989z" class="alpha"/><path style="fill:#72001e" d="M335.07 185.87c3.976 26.267 9.434 76.507 9.924 79.542.512 3.169 2.524 4.145 3.077 5.282.554 1.137 1.45 15.278-.019 15.248-1.47-.03-.684 1.914.432 3.294 1.115 1.38 1.803 6.657 1.927 8.03.125 1.373-1.02 1.54-2.156 1.32-1.137-.22-.704 1.75.093 2.357.798.607.646.21 1.098 1.402.451 1.191 1.246 1.803 1.688 3.196.441 1.394 1.677 15.325 1.867 17.922.19 2.598 3.383 38.26 3.433 40.036.05 1.777 1.654 22.897 2.464 25.081.81 2.184-.854 2.915-1.776 2.3-.922-.615-2.193 3.66-4.422 5.76-2.23 2.099-2.727-2.214-1.846-3.371.88-1.156 1.429-2.125 2.732-4.644 1.302-2.518 1.096-10.984-.723-10.243-1.82.742-.728 4.638-2.525 4.999-1.797.36-1.643 2.918-1.485 4.49.159 1.572-.983 13.942 1.197 14.767 2.18.824 1.118 2.362 2.441 4.143 1.323 1.781 4.598-1.637 5.467-2.587.87-.95 3.13 3.789 2.956 6.498-.174 2.71-1.176 3.26-2.821 1.277-1.645-1.982-4.348 2.799-3.364 5.14.984 2.34 2.533 3.337 4.99 2.633 2.458-.704 3.25 5.467.202 5.196-3.05-.272-3.843 2.6-4.05 7.362-.206 4.762 3.806 5.218 5.64 3.745 1.836-1.473 3.065.27 2.36 1.766-.703 1.496-5.49 4.594-7.87 3.792-2.38-.803-4.593 3.694-6.415 7.046-1.821 3.352-.778 8.578 1.632 6.938 2.409-1.641 7.392-3.03 8.797 1.63 1.405 4.66 2.872 5.594 4.177 3.961 1.305-1.633 3.421-1.585 3.903.632.483 2.217 4.895 32.407 5.496 34.853.6 2.446 3.964 13.293 2.47 15.823 3.44 2.56 4.04 11.894 1.015 10.893-3.025-1.002-8.691-4.834-14.812-9.78 2.995 4.084 11.584 10.601 10.646 11.261-.938.66-4.927-.155-10.366-4.185.844.972 5.265 3.943 4.716 4.59.793.042 1.57.085 2.37.121 1.417.065 2.796.103 3.963.062a14.351 14.351 0 0 0 1.57-.13c.455-.068.836-.163 1.119-.292.283-.129.468-.292.535-.495.067-.204.014-.448-.18-.74.63.322 1.18.52 1.66.614.479.095.887.085 1.233-.007.347-.092.631-.267.864-.505.232-.238.413-.538.55-.881.138-.343.233-.729.295-1.136.062-.408.09-.838.095-1.269.01-.779-.07-1.536-.16-2.203-2.428-6.869-5.903-18.731-6.753-21.558-1.157-3.844-5.716-39.204-7.116-48.97-1.4-9.766-12.92-123.815-14.096-136.537-.53-5.741-2.353-31.22-6.784-54.994-4.98-26.716-6.157-55.012-11.355-70.475zm3.18 57.14c-.05.007-.103.02-.154.03.475 6.087.312 19.079.667 29.209.372 10.658 1.687 21.31 1.926 27.959.196 5.452-.205 19.327.467 29.15.798 11.662.257 16.173.402 18.945.129 2.47.255 7.096.213 12.1.437 4.504-.021 15.492 1.104 15.657 1.3.191 2.921-11.122 2.52-16.28-.4-5.156-1.485-22.766-.745-28.662.74-5.897 1.086-14.768.053-21.483-1.033-6.714-2.468-11.27-2.527-21.458-.059-10.188-2.593-36.695-3.925-45.167zm11.157 79.325c.053 4.054-.182 8.838 1.17 10.338 2.15 2.384 3.882 5.628 2.25 6.782-1.632 1.155-1.84 1.67-1.648 2.463.527 2.182-.85 5.64-2.387 8.22-1.01 1.695-.709-1.543-.682-2.902.028-1.47.185-5.062.513-6.629.327-1.567.806-2.643 2.11-2.806 1.303-.163 1.514-1.533.217-1.567-1.298-.034-3.504-6.729-3.719-9.313-.183-2.195-.456-3.806-.362-4.997.136-1.73.79-3.457.563-5.179-.459-3.467-2.174-8.461-1.778-11.919.403-3.511-2.037-10.22-1.622-13.903.415-3.682.701-13.672.56-15.945-.07-1.136.109-1.558.477-1.53.368.028.926.506 1.617 1.179 1.38 1.345 1.437 5.48.717 6.127-.722.647-1.035 2.054-.838 3.189.275 1.59.266 1.63-.435 3.356-.7 1.726.01 3.743.97 4.541.962.799 1.524 2.498.312 3.644s-.138 6.675.758 9.255c.896 2.58 1.358 4.297 1.419 7.473.039 2.006 1.136 3.842.915 4.895-.453 2.16-1.119 3.61-1.097 5.228zm-2.948 11.222c1.189 3.392.556 6.383.107 6.343-.45-.038-.778-.835-1.109-2.534-.105 2.163-.488 3.991-.404 5.24.085 1.247.835 9.62.975 11.04.3 3.042-.247 15.435-.613 18.964-.245 2.353-.374 5.516-.144 7.288.23 1.77-.116 3.419-.632 5.045-.3.945.076 3.212-1.076 4.39-.824.841-3.171-.918-3.171-.918.165 4.143-.258 13.16-.4 15.9.8.388 7.046 23.956 7.009 28.794-.038 4.838-2.067 8.488-2.67 3.861-.43.964-2.263 9.59.942 9.594 3.205.004 3.484-6.308 3.493-9.2.008-2.892-1.31-18.605-1.218-21.12.093-2.515-1.013-25.34-1.059-27.5-.045-2.16.987-23.745 1.237-26.899.25-3.154-1.265-15.85-.887-18.603.378-2.753 1.74-4.614-.38-9.685zm6.627 15.201c-.175-.007-.366.123-.532.426-.533.972-1.165 2.311-2.145 2.684-.98.373-1.48 3.622 1.58 2.036.966-.502 1.406-2.133 1.637-3.507.16-.944-.155-1.623-.54-1.639zM340.2 441.656a133.679 133.679 0 0 1-.13 3.96c-.37 6.877.795 23.18.9 28.33.002.068 0 .156.001.226h.001c.064 3.973-.296 10.465-.566 15.417.84 7.188 2.051 12.33 4.493 12.188 2.913-.169 3.85-3.12.981-8.64.29 1.6.447 4.428-.536 4.602-.983.174-1.57-.351-1.964-2.478-.394-2.126-1.25-9.467-1.489-12.549-.075-.96-.306-4.297-.552-8.772 4.472-2.725 4.367 2.47 2.927 4.09-1.602 1.806.257 6.685 3.133 8.985 2.875 2.3 2.075-4.056.008-4.324-2.067-.267.644-.78.047-3.102s-3.022-5.433.409-4.632c3.43.801 4.21-2.047 1.712-3.11-2.498-1.062-2.568-2.388-2.14-5.545.428-3.157-.182-5.285-2.46-6.884-1.957-1.375-4.238-6.683-4.668-11.93-.048-2.03-.086-3.995-.107-5.832zm20.257 23.121c-.252.005-.725.315-1.523 1.05-2.554 2.354-5.558 7.144-6.218 9.157l1.92-1.451s-.773 24.88.206 25.41c.978.528 4.59-28.71 5.219-31.083.433-1.631.949-3.094.396-3.083z" class="alpha--dark"/><path style="fill:#2a0708" d="M381.175 518.404c.089.667.168 1.424.16 2.203a9.24 9.24 0 0 1-.096 1.268 5.137 5.137 0 0 1-.294 1.136 2.667 2.667 0 0 1-.551.882 1.855 1.855 0 0 1-.864.505c-.346.092-.754.102-1.233.007-.48-.094-1.03-.292-1.66-.615.193.293.246.537.18.74-.067.204-.253.367-.535.496-.283.129-.664.224-1.119.292-.455.067-.986.109-1.57.13-1.167.041-2.546.003-3.964-.062-.8-.037-1.576-.079-2.369-.122-.019.023.004.065-.028.082-.943.495-6.23-1.007-8.165-1.01-1.935-.003-7.518-2.013-8.498-2.35-.98-.336-6.086-9.646-6.43-10.851-.596-2.089-1.404-4.492-1.393-7.269-.45 1.219-.692 3.644-.791 4.678-.1 1.035-1.428 1.382-1.55-.691-.052-.897-.218-3.22-.35-5.267-.128.004-.253.012-.378.019-.303 6.749-.235 14.298 1.008 14.99 1.671.93 4.409 1.968 5.901 2.748 6.134 3.206 8.95 6.242 10.724 6.643 2.942.665 23.946 2.327 27.61 2.653 3.663.327 3.984-1.251 5.498-3.55-2.867 1.968-5.763-.377-7.239-2.696-.39-.613-1.13-2.518-2.004-4.99z" class="alpha--darker"/></symbol><symbol id="idracula_2_of_2" viewBox="0 0 560 560"><path style="fill:#200c05;stroke:#200c05;stroke-width:.3559382px" d="M208.197 522.132c4.623.821 10.215-7.904 20.952-10.467 12.342-2.946 35.092-5.995 51.476-5.995 9.802 0 38.9.175 52.828 3.567 4.866 1.185 12.52 4.28 18.069 5.512.924-32.054-9.348-221.114-10.672-238.5-1.302-17.093-1.205-40.557-2.13-48.649-1.446-12.654-2.901-31.051-4.211-41.763-.622-5.086-10.136-9.779-15.299-10.549-2.433-.363 1.115-3.003-6.415-2.752-7.27.243-18.641 5.173-30.381 5.343-12.929.187-22.032-4.873-33.659-4.905-6.39-.018-19.734 3.907-22.563 10.81-2.44 9.11-4.315 49.315-4.931 62.877-.616 13.562-21.078 233.246-13.064 275.471z" class="beta--dark"/><path d="M234.416 129.293c12.343-2.684 19.994-2.994 27.865-1.031 5.861 1.461 36.297.972 41.11-.051 4.812-1.024 12.556-1.626 19.33-1.121-11.552 13.512-17.398 34.493-17.834 41.685-.653 6.975-41.845 11.116-46.422-.435-3.23-18.326-8.708-39.272-24.05-39.047z" style="fill:#f52e62;stroke:#c01440;stroke-width:.3559382px" class="alpha"/><path style="fill:#72001e" d="M280.926 138.494c-15.28 0-15.315 11.983-17.16 18.102-1.084 3.593-2.661 8.572-4.82 12.687 5.986 9.693 40.372 6.742 45.347.78-3.1-5.586-3.862-12.087-4.795-15.819-1.41-5.642-3.527-15.75-18.572-15.75z" class="alpha--dark"/></symbol></svg>